<?xml version="1.0" encoding="UTF-8"?>
<svg width="597px" height="597px" viewBox="0 0 597 597" version="1.1" xmlns="http://www.w3.org/2000/svg" xmlns:xlink="http://www.w3.org/1999/xlink">
    <!-- Generator: Sketch 47.1 (45422) - http://www.bohemiancoding.com/sketch -->
    <title>pm_web_font</title>
    <desc>Created with Sketch.</desc>
    <defs></defs>
    <g id="web" stroke="none" stroke-width="1" fill="none" fill-rule="evenodd">
        <g id="pm_web" transform="translate(-3.000000, 0.000000)">
            <g id="pm_web_font" transform="translate(3.000000, 0.000000)">
                <g id="ProjektManagement" transform="translate(9.000000, 356.000000)" fill-rule="nonzero" fill="#F5EED6">
                    <path d="M25.6174,21.828 C26.0559,23.293 26.6213,24.515 27.3135,25.494 C28.0057,26.474 28.8014,27.223 29.7008,27.741 C30.6001,28.259 31.5932,28.55 32.6799,28.613 C33.7666,28.676 34.9138,28.527 36.122,28.165 C37.27,27.821 38.256,27.332 39.08,26.697 C39.904,26.062 40.536,25.291 40.976,24.382 C41.416,23.474 41.646,22.424 41.667,21.231 C41.687,20.038 41.475,18.7 41.031,17.215 L39.244,11.245 L23.8308,15.858 L25.6174,21.828 Z M47.208,15.366 C48.067,18.237 48.474,20.822 48.429,23.122 C48.384,25.422 47.962,27.436 47.164,29.164 C46.365,30.892 45.223,32.339 43.739,33.506 C42.254,34.673 40.512,35.555 38.513,36.154 C36.434,36.776 34.4244,37 32.4846,36.826 C30.5448,36.651 28.7438,36.058 27.0817,35.045 C25.4195,34.032 23.9294,32.585 22.6113,30.704 C21.2931,28.823 20.2163,26.486 19.3808,23.694 L17.5941,17.725 L2.4777,22.249 L0.0866,14.261 L43.03,1.408 L47.208,15.366 Z" id="Shape"></path>
                    <path d="M38.684,53.591 C39.327,55.024 40.068,56.192 40.904,57.097 C41.741,58.001 42.629,58.655 43.57,59.06 C44.511,59.464 45.491,59.641 46.51,59.591 C47.53,59.541 48.558,59.283 49.595,58.817 C51.669,57.886 52.955,56.487 53.453,54.621 C53.952,52.754 53.57,50.417 52.309,47.608 L50.124,42.744 L36.55,48.84 L38.684,53.591 Z M26.0377,82.787 L22.9513,75.915 C22.3671,74.615 22.4528,73.443 23.2083,72.402 L32.4403,57.924 C32.7865,57.384 32.9765,56.874 33.0103,56.394 C33.0441,55.914 32.8917,55.298 32.553,54.543 L31.0924,51.291 L15.1149,58.467 L11.6984,50.86 L52.589,32.495 L58.191,44.966 C59.435,47.737 60.217,50.246 60.535,52.494 C60.853,54.741 60.78,56.734 60.314,58.472 C59.849,60.21 59.031,61.705 57.859,62.956 C56.688,64.207 55.235,65.222 53.501,66.001 C52.125,66.619 50.733,67 49.325,67.145 C47.918,67.29 46.543,67.206 45.201,66.891 C43.859,66.576 42.559,66.027 41.301,65.244 C40.043,64.461 38.876,63.451 37.799,62.213 C37.736,62.83 37.604,63.432 37.404,64.021 C37.204,64.609 36.916,65.191 36.541,65.768 L26.0377,82.787 Z" id="Shape"></path>
                    <path d="M73.548,114.86 C70.817,116.687 67.986,117.928 65.055,118.583 C62.124,119.239 59.257,119.311 56.453,118.799 C53.65,118.288 50.996,117.191 48.491,115.51 C45.986,113.829 43.786,111.571 41.89,108.737 C40.006,105.92 38.764,103.033 38.166,100.076 C37.569,97.119 37.565,94.243 38.157,91.448 C38.749,88.653 39.904,86.021 41.623,83.554 C43.341,81.087 45.566,78.939 48.297,77.112 C51.029,75.285 53.862,74.048 56.799,73.402 C59.736,72.755 62.609,72.692 65.418,73.212 C68.228,73.732 70.885,74.833 73.389,76.514 C75.894,78.195 78.088,80.444 79.973,83.261 C81.237,85.151 82.207,87.075 82.884,89.035 C83.56,90.994 83.965,92.936 84.097,94.862 C84.229,96.788 84.094,98.687 83.693,100.559 C83.292,102.431 82.645,104.225 81.754,105.94 C80.862,107.655 79.727,109.266 78.348,110.773 C76.969,112.28 75.369,113.642 73.548,114.86 Z M68.808,107.774 C70.853,106.407 72.502,104.905 73.758,103.27 C75.014,101.634 75.869,99.931 76.325,98.159 C76.781,96.387 76.824,94.574 76.454,92.72 C76.084,90.867 75.29,89.029 74.072,87.209 C72.854,85.388 71.459,83.953 69.887,82.903 C68.315,81.854 66.62,81.197 64.803,80.934 C62.985,80.67 61.081,80.806 59.09,81.343 C57.099,81.879 55.081,82.831 53.037,84.198 C50.993,85.565 49.343,87.067 48.088,88.702 C46.832,90.338 45.984,92.043 45.542,93.818 C45.101,95.593 45.065,97.407 45.435,99.261 C45.804,101.114 46.598,102.951 47.816,104.772 C49.034,106.593 50.429,108.028 52.002,109.078 C53.574,110.127 55.261,110.782 57.065,111.043 C58.868,111.304 60.765,111.166 62.756,110.63 C64.747,110.094 66.764,109.142 68.808,107.774 Z" id="Shape"></path>
                    <path d="M86.576,138.147 C84.709,139.842 82.817,141.14 80.9,142.042 C78.984,142.944 77.085,143.419 75.202,143.467 C73.32,143.515 71.478,143.115 69.675,142.267 C67.873,141.419 66.152,140.092 64.513,138.286 C63.763,137.459 63.077,136.603 62.454,135.717 C61.831,134.831 61.231,133.855 60.653,132.788 C61.307,132.278 61.968,131.776 62.636,131.282 C63.303,130.788 63.964,130.286 64.618,129.776 C64.996,129.516 65.389,129.404 65.797,129.438 C66.205,129.472 66.597,129.696 66.972,130.109 C67.208,130.369 67.464,130.759 67.738,131.277 C68.013,131.795 68.442,132.375 69.026,133.018 C69.817,133.89 70.645,134.548 71.509,134.993 C72.372,135.437 73.285,135.634 74.245,135.586 C75.206,135.537 76.23,135.228 77.319,134.659 C78.407,134.09 79.578,133.236 80.833,132.097 L102.365,112.555 L107.97,118.729 L86.576,138.147 Z" id="Shape"></path>
                    <polygon id="Shape" points="113.116 132.861 104.828 142.125 116.519 152.584 112.24 157.366 100.549 146.908 92.096 156.357 106.929 169.627 102.485 174.594 81.414 155.744 111.301 122.336 132.372 141.186 127.949 146.13"></polygon>
                    <path d="M129.862,162.409 L131.474,163.511 C132.123,163.954 132.722,164.231 133.271,164.343 C133.82,164.455 134.382,164.42 134.957,164.237 L154,158.284 C154.8,158.029 155.507,157.955 156.122,158.062 C156.737,158.169 157.403,158.468 158.12,158.957 L164.059,163.013 L141.085,169.886 C139.711,170.323 138.496,170.47 137.443,170.327 C137.867,170.916 138.179,171.549 138.381,172.225 C138.583,172.9 138.684,173.677 138.686,174.554 L139.703,200.661 L133.636,196.518 C132.816,195.959 132.285,195.427 132.041,194.923 C131.797,194.418 131.691,193.851 131.72,193.221 L130.585,172.4 C130.575,171.718 130.421,171.137 130.122,170.658 C129.824,170.179 129.274,169.666 128.471,169.118 L126.295,167.632 L115.177,183.914 L108.291,179.212 L133.568,142.193 L140.455,146.895 L129.862,162.409 Z" id="Shape"></path>
                    <polygon id="Shape" points="196.13 185.565 183.893 179.825 167.767 214.207 160.217 210.666 176.343 176.284 164.106 170.545 167.015 164.342 199.039 179.362"></polygon>
                    <path d="M268.215,195.524 L260.285,239.643 L253.054,238.344 L258.176,209.846 C258.381,208.707 258.663,207.488 259.023,206.187 L241.187,228.84 C240.34,229.927 239.266,230.353 237.965,230.119 L236.805,229.911 C235.503,229.677 234.645,228.903 234.23,227.59 L225.263,200.025 C225.204,200.707 225.136,201.377 225.059,202.035 C224.983,202.694 224.896,203.297 224.797,203.847 L219.675,232.344 L212.444,231.044 L220.374,186.925 L226.568,188.038 C226.934,188.104 227.247,188.171 227.508,188.239 C227.769,188.307 227.999,188.401 228.197,188.52 C228.396,188.64 228.566,188.807 228.706,189.021 C228.846,189.235 228.97,189.51 229.078,189.844 L237.885,216.719 C238.114,217.432 238.314,218.161 238.484,218.906 C238.655,219.65 238.817,220.414 238.97,221.198 C239.39,220.496 239.816,219.822 240.247,219.175 C240.678,218.528 241.125,217.91 241.588,217.322 L259.009,195.224 C259.227,194.948 259.443,194.735 259.659,194.585 C259.875,194.435 260.097,194.338 260.326,194.295 C260.554,194.252 260.802,194.244 261.07,194.272 C261.338,194.299 261.655,194.345 262.021,194.411 L268.215,195.524 Z" id="Shape"></path>
                    <path d="M299.274,223.042 L293.675,208.184 C293.4,207.526 293.114,206.743 292.816,205.836 C292.518,204.93 292.219,203.951 291.92,202.9 C291.661,203.956 291.392,204.946 291.111,205.868 C290.831,206.791 290.559,207.594 290.297,208.279 L285.015,223.179 L299.274,223.042 Z M314.161,239.826 L307.713,239.888 C306.99,239.895 306.399,239.72 305.941,239.362 C305.483,239.005 305.138,238.559 304.905,238.024 L301.47,228.911 L282.902,229.09 L279.641,238.266 C279.481,238.743 279.165,239.18 278.693,239.577 C278.221,239.975 277.634,240.177 276.932,240.183 L270.422,240.246 L287.63,195.253 L296.124,195.171 L314.161,239.826 Z" id="Shape"></path>
                    <path d="M353.887,187.665 L361.968,231.756 L357.76,232.528 C357.11,232.647 356.546,232.64 356.07,232.507 C355.594,232.373 355.106,232.09 354.606,231.656 L326.197,206.481 C326.565,207.8 326.854,209.029 327.062,210.167 L332.025,237.244 L324.798,238.569 L316.717,194.477 L321.017,193.689 C321.362,193.626 321.665,193.586 321.924,193.57 C322.184,193.554 322.419,193.574 322.629,193.63 C322.839,193.686 323.051,193.784 323.266,193.923 C323.48,194.063 323.725,194.254 324.001,194.498 L352.524,219.778 C352.333,219.077 352.153,218.385 351.986,217.702 C351.819,217.018 351.681,216.381 351.573,215.792 L346.66,188.989 L353.887,187.665 Z" id="Shape"></path>
                    <path d="M393.065,203.477 L382.823,191.344 C382.344,190.815 381.812,190.174 381.228,189.419 C380.645,188.664 380.036,187.841 379.402,186.95 C379.512,188.033 379.588,189.055 379.632,190.018 C379.676,190.982 379.689,191.829 379.671,192.562 L379.671,208.371 L393.065,203.477 Z M412.705,214.322 L406.648,216.535 C405.969,216.783 405.353,216.815 404.802,216.632 C404.251,216.448 403.777,216.143 403.379,215.716 L397.096,208.276 L379.654,214.648 L379.648,224.387 C379.656,224.89 379.504,225.408 379.192,225.94 C378.88,226.471 378.395,226.858 377.735,227.099 L371.62,229.333 L372.804,181.176 L380.782,178.261 L412.705,214.322 Z" id="Shape"></path>
                    <path d="M446.099,169.455 L455.339,185.059 C454.236,187.658 452.775,189.946 450.956,191.924 C449.137,193.902 446.965,195.638 444.439,197.134 C441.292,198.997 438.153,200.196 435.022,200.729 C431.891,201.262 428.907,201.191 426.07,200.517 C423.233,199.843 420.609,198.587 418.199,196.747 C415.789,194.908 413.736,192.557 412.041,189.694 C410.325,186.795 409.222,183.858 408.732,180.881 C408.243,177.904 408.349,175.031 409.051,172.262 C409.753,169.493 411.055,166.896 412.958,164.472 C414.861,162.048 417.351,159.925 420.428,158.104 C421.993,157.177 423.529,156.435 425.037,155.879 C426.545,155.322 428.01,154.917 429.433,154.663 C430.855,154.409 432.231,154.309 433.56,154.363 C434.889,154.416 436.175,154.58 437.417,154.853 L437.29,159.323 C437.275,160.029 437.044,160.592 436.597,161.013 C436.15,161.434 435.513,161.636 434.688,161.621 C433.901,161.631 433.114,161.64 432.327,161.65 C431.54,161.659 430.713,161.753 429.845,161.93 C428.977,162.108 428.047,162.383 427.054,162.754 C426.062,163.126 424.978,163.659 423.805,164.354 C421.902,165.481 420.371,166.82 419.212,168.371 C418.053,169.922 417.283,171.614 416.904,173.448 C416.525,175.282 416.537,177.208 416.94,179.227 C417.343,181.246 418.155,183.287 419.376,185.35 C420.682,187.555 422.164,189.338 423.822,190.698 C425.48,192.058 427.238,192.998 429.096,193.52 C430.953,194.041 432.878,194.138 434.87,193.811 C436.862,193.484 438.854,192.731 440.846,191.552 C442.269,190.709 443.451,189.805 444.392,188.839 C445.333,187.874 446.185,186.817 446.946,185.67 L442.808,178.681 L437.953,181.556 C437.491,181.829 437.054,181.914 436.644,181.809 C436.233,181.703 435.918,181.464 435.696,181.091 L433.296,177.036 L446.099,169.455 Z" id="Shape"></path>
                    <polygon id="Shape" points="446.825 148.697 454.542 158.442 466.839 148.704 470.823 153.735 458.526 163.473 466.398 173.413 482 161.057 486.138 166.282 463.974 183.834 436.145 148.693 458.308 131.141 462.427 136.341"></polygon>
                    <path d="M491.984,95.598 L524.977,125.943 L520.004,131.351 L498.693,111.75 C497.841,110.967 496.963,110.075 496.058,109.074 L505.62,136.274 C506.084,137.571 505.868,138.707 504.972,139.68 L504.175,140.547 C503.28,141.521 502.166,141.83 500.835,141.477 L472.759,134.269 C473.302,134.685 473.832,135.102 474.347,135.519 C474.861,135.937 475.324,136.334 475.735,136.712 L497.046,156.312 L492.072,161.72 L459.079,131.375 L463.339,126.743 C463.591,126.469 463.815,126.24 464.012,126.057 C464.209,125.873 464.412,125.729 464.62,125.625 C464.827,125.522 465.059,125.468 465.315,125.465 C465.571,125.461 465.869,125.504 466.209,125.592 L493.617,132.564 C494.342,132.753 495.064,132.975 495.784,133.23 C496.504,133.485 497.236,133.758 497.98,134.049 C497.613,133.318 497.272,132.597 496.957,131.887 C496.642,131.176 496.36,130.467 496.111,129.761 L486.796,103.209 C486.679,102.877 486.616,102.58 486.605,102.317 C486.594,102.054 486.631,101.815 486.717,101.599 C486.803,101.384 486.93,101.17 487.097,100.958 C487.263,100.747 487.472,100.504 487.724,100.23 L491.984,95.598 Z" id="Shape"></path>
                    <polygon id="Shape" points="503.277 89.385 513.634 96.259 522.308 83.19 527.655 86.739 518.98 99.808 529.544 106.82 540.55 90.238 546.103 93.924 530.468 117.479 493.12 92.689 508.756 69.134 514.283 72.803"></polygon>
                    <path d="M525.823,34.163 L566.27,53.486 L564.426,57.346 C564.141,57.943 563.805,58.395 563.417,58.702 C563.03,59.01 562.514,59.238 561.87,59.389 L524.816,67.625 C526.1,68.102 527.264,68.589 528.308,69.088 L553.148,80.954 L549.98,87.584 L509.533,68.261 L511.417,64.317 C511.569,64 511.714,63.731 511.853,63.512 C511.993,63.292 512.147,63.113 512.315,62.976 C512.484,62.839 512.687,62.725 512.926,62.633 C513.165,62.54 513.464,62.454 513.823,62.374 L551.029,54.106 C550.349,53.851 549.684,53.59 549.032,53.324 C548.38,53.059 547.784,52.797 547.243,52.538 L522.656,40.792 L525.823,34.163 Z" id="Shape"></path>
                    <polygon id="Shape" points="542.637 2.824 538.617 15.728 574.873 27.023 572.393 34.984 536.137 23.69 532.117 36.594 525.576 34.557 536.096 0.786"></polygon>
                </g>
                <g id="Outlint-Font" stroke="#527A98" stroke-width="0.109287" stroke-linecap="round" stroke-linejoin="round">
                    <path d="M0.7,298.375 C0.7,133.974 133.974,0.7 298.375,0.7 C462.776,0.7 596.05,133.974 596.05,298.375 C596.05,462.776 462.776,596.05 298.375,596.05 C133.974,596.05 0.7,462.776 0.7,298.375 Z" id="Shape"></path>
                </g>
            </g>
        </g>
    </g>
</svg>