<?xml version="1.0" encoding="UTF-8"?>
<svg width="453px" height="453px" viewBox="0 0 453 453" version="1.1" xmlns="http://www.w3.org/2000/svg" xmlns:xlink="http://www.w3.org/1999/xlink">
    <!-- Generator: Sketch 47.1 (45422) - http://www.bohemiancoding.com/sketch -->
    <title>pm_web</title>
    <desc>Created with Sketch.</desc>
    <defs>
        <path d="M0.737,227.375 C0.737,102.231 102.186,0.782 227.33,0.782 C352.474,0.782 453.923,102.231 453.923,227.375 C453.923,352.519 352.474,453.968 227.33,453.968 C102.186,453.968 0.737,352.519 0.737,227.375 Z" id="path-1"></path>
    </defs>
    <g id="web" stroke="none" stroke-width="1" fill="none" fill-rule="evenodd">
        <g id="pm_web" transform="translate(-75.000000, -72.000000)">
            <g transform="translate(74.000000, 71.000000)">
                <g id="Layer-2" transform="translate(1.000000, 1.000000)" fill-rule="nonzero">
                    <path d="M226.344,0.219 C280.498,0.219 330.192,19.284 369.125,51.031 C359.459,50.842 348.96,50.559 339.594,50.406 C307.552,49.883 278.622,49.599 253.156,49.531 C176.76,49.328 131.537,51.275 126.844,55.969 C119.718,63.095 115.532,135.471 116.125,219.938 C112.454,219.032 108.67,218.406 104.719,218.406 C103.276,218.406 101.834,218.466 100.406,218.594 C75.904,220.784 56.969,241.392 56.969,266.156 C56.969,283.971 66.848,299.303 81.312,307.5 C69.055,317.991 55.898,342.25 48.625,366.156 C18.317,327.677 0.188,279.154 0.188,226.375 C0.188,101.479 101.448,0.219 226.344,0.219 Z" id="Shape" fill="#F5EED6"></path>
                    <path d="M253.75,50.438 C279.12,50.505 307.867,50.794 339.594,51.312 C349.329,51.472 360.226,51.774 370.281,51.969 C393.995,71.566 413.617,95.931 427.75,123.562 C420.013,123.766 414.188,124.062 413.75,124.5 C412.953,125.297 412.562,135.67 412.562,146.062 C412.562,156.455 412.953,166.86 413.75,167.656 C414.473,168.379 429.301,168.715 445.031,168.781 C449.859,187.17 452.469,206.472 452.469,226.375 C452.469,229.848 452.374,233.284 452.219,236.719 C451.237,236.716 450.485,236.688 449.5,236.688 C432.02,236.688 414.547,237.11 413.75,237.906 C412.953,238.703 412.562,249.077 412.562,259.469 C412.562,269.861 412.953,280.266 413.75,281.062 C414.481,281.793 429.575,282.159 445.5,282.219 C438.557,309.564 426.602,334.872 410.719,357.219 C385.688,357.768 360.362,358.351 336.969,358.719 C266.65,359.825 210.201,359.934 172.531,358.812 C187.191,347.269 202.99,327.468 218.344,302.5 C226.218,289.695 233.304,276.491 237.938,266.375 C239.994,261.886 241.405,258.357 241.969,256.25 C242.159,255.54 242.04,255.258 242.031,254.844 C243.354,255.642 245.363,255.631 247.344,254.656 C250.442,253.131 252.313,250.026 251.781,246.281 C251.619,245.138 252.184,243.116 253.375,240.25 C253.581,239.755 253.81,239.228 254.062,238.656 C254.244,238.245 255.533,235.41 255.812,234.75 C256.445,233.26 256.595,232.69 256.281,232.312 C256.045,232.028 255.792,231.992 255.406,232.219 C255.021,232.446 254.501,232.937 253.781,233.688 C252.622,234.897 250.883,236.904 248.375,239.906 C242.739,246.655 239.974,250.955 240.719,253.312 C240.785,253.521 240.96,253.634 241.062,253.812 C240.801,253.949 240.531,254.094 240.219,254.406 C230.879,263.746 221.449,272.336 211.469,280.844 C211.75,273.123 211.901,264.205 211.844,256.906 C211.784,249.216 211.494,243.369 210.969,242.844 C210.345,242.22 198.902,241.824 185.219,241.688 C171.535,241.551 155.624,241.68 146.125,242.094 C145.979,242.1 145.955,242.264 145.875,242.375 C139.626,231.571 129.366,223.525 117.031,220.219 C116.431,136.246 120.618,63.445 127.469,56.594 C131.937,52.125 177.64,50.235 253.75,50.438 Z" id="Shape" fill="#E8AF30"></path>
                    <path d="M312.375,66.594 C294.895,66.594 277.422,66.985 276.625,67.781 C275.828,68.578 275.406,78.983 275.406,89.375 C275.406,99.767 275.828,110.141 276.625,110.938 C277.422,111.734 294.895,112.156 312.375,112.156 C329.855,112.156 347.328,111.734 348.125,110.938 C348.922,110.141 349.312,99.767 349.312,89.375 C349.312,78.983 348.922,68.578 348.125,67.781 C347.328,66.985 329.854,66.594 312.375,66.594 Z" id="Shape" fill="#F5EED6"></path>
                    <path d="M312.375,67.5 C329.624,67.5 346.879,67.817 347.5,68.438 C348.742,69.679 348.742,109.071 347.5,110.312 C346.258,111.554 278.492,111.554 277.25,110.312 C276.008,109.071 276.008,69.679 277.25,68.438 C277.871,67.817 295.126,67.5 312.375,67.5 Z" id="Shape" fill="#F5EED6"></path>
                    <path d="M175.219,121.156 C157.739,121.156 140.265,121.578 139.469,122.375 C138.672,123.172 138.281,133.545 138.281,143.938 C138.281,154.33 138.672,164.735 139.469,165.531 C140.265,166.328 157.739,166.719 175.219,166.719 C192.698,166.719 210.172,166.328 210.969,165.531 C211.765,164.735 212.188,154.33 212.188,143.938 C212.188,133.545 211.765,123.172 210.969,122.375 C210.172,121.578 192.698,121.156 175.219,121.156 Z" id="Shape" fill="#F5EED6"></path>
                    <path d="M175.219,122.062 C192.468,122.062 209.723,122.379 210.344,123 C211.586,124.242 211.586,163.633 210.344,164.875 C209.102,166.117 141.335,166.117 140.094,164.875 C138.852,163.633 138.852,124.242 140.094,123 C140.715,122.379 157.97,122.062 175.219,122.062 Z" id="Shape" fill="#F5EED6"></path>
                    <path d="M428.156,124.406 C435.126,138.174 440.755,152.699 444.812,167.906 C429.404,167.851 414.935,167.591 414.375,167.031 C413.133,165.789 413.133,126.367 414.375,125.125 C414.718,124.782 420.479,124.561 428.156,124.406 Z" id="Shape" fill="#F5EED6"></path>
                    <path d="M312.375,180 C274.965,180 244.594,192.769 244.594,208.781 C244.594,224.793 274.965,237.594 312.375,237.594 C349.785,237.594 380.156,224.794 380.156,208.781 C380.156,192.769 349.785,180 312.375,180 Z" id="Shape" fill="#F5EED6"></path>
                    <path d="M312.375,180.906 C349.337,180.906 379.25,193.479 379.25,208.781 C379.25,224.084 349.337,236.687 312.375,236.688 C275.413,236.688 245.469,224.084 245.469,208.781 C245.469,193.479 275.413,180.906 312.375,180.906 Z" id="Shape" fill="#F5EED6"></path>
                    <path d="M104.719,219.312 C130.589,219.312 151.562,240.286 151.562,266.156 C151.562,292.027 130.589,313 104.719,313 C78.848,313 57.875,292.027 57.875,266.156 C57.875,241.859 76.43,221.649 100.469,219.5 C101.87,219.375 103.303,219.312 104.719,219.312 Z" id="Shape" fill="#F5EED6"></path>
                    <path d="M255.344,233.469 C255.251,233.734 255.141,233.969 254.969,234.375 C254.694,235.023 253.404,237.893 253.219,238.312 C252.964,238.89 252.74,239.404 252.531,239.906 C251.275,242.93 250.681,245.041 250.875,246.406 C251.349,249.744 249.703,252.482 246.938,253.844 C244.496,255.046 242.079,254.698 241.562,253.062 C240.967,251.176 243.747,246.834 249.062,240.469 C251.558,237.481 253.296,235.504 254.438,234.312 C254.83,233.904 255.091,233.69 255.344,233.469 Z" id="Shape" fill="#F5EED6"></path>
                    <path d="M449.5,237.594 C450.473,237.594 451.217,237.623 452.188,237.625 C451.452,252.613 449.233,267.23 445.719,281.312 C429.933,281.267 414.947,280.978 414.375,280.406 C413.133,279.164 413.133,239.773 414.375,238.531 C414.996,237.91 432.251,237.594 449.5,237.594 Z" id="Shape" fill="#F5EED6"></path>
                    <path d="M184.688,242.594 C198.351,242.7 209.872,243.029 210.344,243.5 C211.08,244.236 211.097,266.751 210.531,281.625 C208.682,283.192 206.884,284.78 204.969,286.344 C192.345,286.767 163.446,286.473 148.062,285.906 C150.812,279.878 152.438,273.218 152.438,266.156 C152.438,257.709 150.064,249.885 146.219,243 C155.289,242.607 171.046,242.488 184.688,242.594 Z" id="Shape" fill="#F5EED6"></path>
                    <path d="M241.312,254.688 C241.332,254.895 241.297,255.27 241.094,256.031 C240.546,258.078 239.162,261.553 237.125,266 C232.507,276.082 225.418,289.257 217.562,302.031 C196.495,336.29 174.584,361.037 156.156,367.406 C151.15,351.537 145.638,337.737 139.75,326.844 C158.779,320.458 179.42,307.947 200.875,290.969 C202.441,289.729 203.764,288.487 205.281,287.25 C205.303,287.249 205.354,287.251 205.375,287.25 C205.623,287.241 205.821,287.03 205.812,286.781 C207.558,285.354 209.216,283.929 210.906,282.5 C210.938,282.509 210.935,282.561 210.969,282.562 C211.217,282.572 211.428,282.373 211.438,282.125 C211.439,282.095 211.436,282.061 211.438,282.031 C221.68,273.341 231.33,264.576 240.875,255.031 C241.066,254.84 241.186,254.775 241.312,254.688 Z" id="Shape" fill="#F5EED6"></path>
                    <path d="M147.562,286.812 C162.555,287.377 190.73,287.64 203.875,287.25 C202.638,288.253 201.583,289.276 200.312,290.281 C178.884,307.237 158.291,319.729 139.344,326.062 C135.301,318.694 131.095,312.65 126.812,308.219 C135.842,303.468 143.116,296.022 147.562,286.812 Z" id="Shape" fill="#E8AF30"></path>
                    <path d="M312.375,298.344 C294.895,298.344 277.422,298.766 276.625,299.562 C275.828,300.359 275.406,310.733 275.406,321.125 C275.406,331.517 275.828,341.922 276.625,342.719 C277.422,343.515 294.895,343.906 312.375,343.906 C329.855,343.906 347.328,343.515 348.125,342.719 C348.922,341.922 349.312,331.517 349.312,321.125 C349.312,310.733 348.922,300.359 348.125,299.562 C347.328,298.766 329.854,298.344 312.375,298.344 Z" id="Shape" fill="#F5EED6"></path>
                    <path d="M312.375,299.25 C329.624,299.25 346.879,299.567 347.5,300.188 C348.742,301.429 348.742,340.821 347.5,342.062 C346.258,343.304 278.492,343.304 277.25,342.062 C276.008,340.821 276.008,301.429 277.25,300.188 C277.871,299.567 295.126,299.25 312.375,299.25 Z" id="Shape" fill="#F5EED6"></path>
                    <path d="M82.125,307.938 C88.881,311.595 96.496,313.875 104.719,313.875 C112.416,313.875 119.595,311.889 126.031,308.656 C146.896,330.05 166.431,393.362 171.75,445.844 C122.616,433.661 79.871,405.417 49.312,367 C56.55,342.893 69.855,318.26 82.125,307.938 Z" id="Shape" fill="#F5EED6"></path>
                    <path d="M410.062,358.156 C369.023,415.284 302.054,452.531 226.344,452.531 C207.862,452.531 189.914,450.246 172.719,446.062 C170.384,422.843 164.572,394.414 156.875,369.469 C156.738,369.025 156.575,368.66 156.438,368.219 C161.341,366.524 166.494,363.539 171.781,359.469 C171.861,359.569 171.894,359.715 172.031,359.719 C190.874,360.287 214.485,360.557 242.188,360.531 C269.89,360.506 301.704,360.18 337,359.625 C360.177,359.26 385.278,358.699 410.062,358.156 Z" id="Shape" fill="#F5EED6"></path>
                </g>
                <g id="Layer-2_2">
                    <g id="Clipped">
                        <mask id="mask-2" fill="white">
                            <use xlink:href="#path-1"></use>
                        </mask>
                        <g id="Mask"></g>
                        <g id="Group" mask="url(#mask-2)" stroke-linecap="round" stroke="#262626" stroke-width="5" stroke-linejoin="round">
                            <g transform="translate(49.000000, 50.000000)" id="Shape">
                                <path d="M33.873,258.569 C20.636,269.681 7.464,295.752 0.778,318.166"></path>
                                <path d="M124.296,397.438 C119.86,352.809 101.81,283.27 78.255,259.254"></path>
                                <path d="M52.439,170.043 C53.845,169.918 55.267,169.853 56.705,169.853 C82.824,169.853 103.998,191.027 103.998,217.146 C103.998,243.265 82.824,264.439 56.705,264.439 C30.586,264.439 9.413,243.265 9.413,217.146 C9.413,192.465 28.32,172.2 52.439,170.043"></path>
                                <path d="M91.785,73.683 C93.202,72.265 161.242,72.265 162.66,73.683 C164.077,75.1 164.077,114.79 162.66,116.208 C161.242,117.625 93.202,117.625 91.785,116.208 C90.367,114.79 90.367,75.1 91.785,73.683 Z"></path>
                                <path d="M366.071,75.809 C367.488,74.392 435.528,74.392 436.946,75.809 C438.363,77.227 438.363,116.917 436.946,118.334 C435.528,119.752 367.488,119.752 366.071,118.334 C364.653,116.917 364.653,77.227 366.071,75.809 Z"></path>
                                <path d="M366.071,189.209 C367.488,187.792 435.528,187.792 436.946,189.209 C438.363,190.627 438.363,230.317 436.946,231.734 C435.528,233.152 367.488,233.152 366.071,231.734 C364.653,230.317 364.653,190.627 366.071,189.209 Z"></path>
                                <path d="M157.356,237.787 C143.427,238.273 112.791,237.877 99.429,237.371"></path>
                                <path d="M98.14,193.547 C115.345,192.798 161.495,193.006 162.66,194.17 C163.693,195.204 163.453,221.045 162.981,233.104"></path>
                                <path d="M228.928,250.87 C230.345,249.453 298.385,249.453 299.803,250.87 C301.22,252.288 301.22,291.978 299.803,293.395 C298.385,294.813 230.345,294.813 228.928,293.395 C227.51,291.978 227.51,252.288 228.928,250.87 Z"></path>
                                <path d="M228.928,19.109 C230.345,17.692 298.385,17.692 299.803,19.109 C301.22,20.527 301.22,60.217 299.803,61.634 C298.385,63.052 230.345,63.052 228.928,61.634 C227.51,60.217 227.51,20.527 228.928,19.109 Z"></path>
                                <path d="M197.034,159.796 C197.034,144.139 227.179,131.446 264.365,131.446 C301.551,131.446 331.697,144.139 331.697,159.796 C331.697,175.453 301.551,188.146 264.365,188.146 C227.179,188.146 197.034,175.453 197.034,159.796 Z"></path>
                                <path d="M264.537,75.289 L264.449,122.734 C264.449,122.734 255.2,114.527 258.227,111.501 C259.302,110.425 286.448,110.078 267.462,119.571"></path>
                                <path d="M357.894,122.556 C344.825,127.817 333.665,144.237 333.665,144.237 C333.665,144.237 333.591,131.873 337.865,132.102 C339.384,132.183 357.782,152.146 338.032,144.366"></path>
                                <path d="M260.458,244.77 L260.369,197.324 C260.369,197.324 251.121,205.531 254.148,208.558 C255.223,209.633 282.369,209.98 263.383,200.487"></path>
                                <path d="M357.503,195.017 C353.009,183.579 333.275,173.335 333.275,173.335 C333.275,173.335 333.2,185.7 337.475,185.471 C338.993,185.389 357.391,165.426 337.642,173.207"></path>
                                <path d="M169.821,119.3 C182.889,124.562 194.049,140.982 194.049,140.982 C194.049,140.982 194.124,128.617 189.85,128.846 C188.331,128.928 169.933,148.891 189.682,141.11"></path>
                                <path d="M169.667,194.119 C174.161,182.68 193.896,172.437 193.896,172.437 C193.896,172.437 193.97,184.802 189.696,184.573 C188.177,184.491 169.779,164.528 189.529,172.309"></path>
                                <path d="M68.573,171.281 C68.03,95.691 71.556,14.869 79.15,7.275 C93.325,-6.9 504.4,7.275 504.4,7.275 L504.4,304.95 C504.4,304.95 237.827,313.697 124.053,310.268"></path>
                                <path d="M91.38,277.523 C133.905,263.348 178.375,219.9 192.55,205.725 C202.573,195.702 150.453,304.808 107.928,318.983"></path>
                                <path d="M193.14,204.191 C194.436,208.293 204.442,205.198 203.326,197.346 C202.581,192.108 215.821,173.11 200.719,191.194 C196.901,195.766 192.344,201.669 193.14,204.191 Z"></path>
                            </g>
                        </g>
                    </g>
                </g>
            </g>
        </g>
    </g>
</svg>