<?xml version="1.0" encoding="UTF-8"?>
<svg width="597px" height="597px" viewBox="0 0 597 597" version="1.1" xmlns="http://www.w3.org/2000/svg" xmlns:xlink="http://www.w3.org/1999/xlink">
    <!-- Generator: Sketch 47.1 (45422) - http://www.bohemiancoding.com/sketch -->
    <title>po_web_font</title>
    <desc>Created with Sketch.</desc>
    <defs></defs>
    <g id="web" stroke="none" stroke-width="1" fill="none" fill-rule="evenodd">
        <g id="po_web" transform="translate(-3.000000, 0.000000)">
            <g id="po_web_font" transform="translate(3.000000, 0.000000)">
                <g id="Product-Owner" transform="translate(56.000000, 448.000000)" fill-rule="nonzero" fill="#F5EED6">
                    <path d="M26.21,25.307 C27.164,26.471 28.141,27.366 29.141,27.993 C30.14,28.619 31.147,28.997 32.16,29.127 C33.173,29.256 34.184,29.143 35.195,28.789 C36.205,28.434 37.19,27.863 38.15,27.077 C39.062,26.33 39.772,25.511 40.279,24.623 C40.786,23.734 41.067,22.794 41.122,21.802 C41.177,20.811 40.988,19.77 40.554,18.679 C40.121,17.589 39.421,16.454 38.454,15.274 L34.568,10.532 L22.325,20.566 L26.21,25.307 Z M43.361,11.253 C45.23,13.533 46.58,15.726 47.411,17.832 C48.242,19.937 48.623,21.925 48.553,23.796 C48.483,25.668 47.995,27.415 47.09,29.037 C46.185,30.659 44.938,32.121 43.35,33.423 C41.699,34.776 39.959,35.742 38.132,36.319 C36.305,36.896 34.445,37.04 32.552,36.751 C30.659,36.462 28.757,35.714 26.847,34.505 C24.937,33.297 23.073,31.585 21.256,29.367 L17.371,24.625 L5.363,34.465 L0.163,28.119 L34.275,0.165 L43.361,11.253 Z" id="Shape"></path>
                    <path d="M50.133,49.297 C51.256,50.357 52.368,51.142 53.469,51.65 C54.569,52.158 55.623,52.419 56.63,52.433 C57.638,52.447 58.595,52.24 59.504,51.811 C60.412,51.383 61.25,50.762 62.018,49.949 C63.554,48.323 64.197,46.567 63.949,44.683 C63.701,42.799 62.476,40.816 60.273,38.736 L56.459,35.134 L46.407,45.778 L50.133,49.297 Z M49.605,80.596 L44.216,75.508 C43.196,74.544 42.834,73.447 43.13,72.216 L46.084,55.583 C46.195,54.961 46.177,54.426 46.027,53.977 C45.878,53.529 45.507,53.025 44.916,52.466 L42.366,50.058 L30.534,62.587 L24.569,56.954 L54.849,24.889 L64.628,34.124 C66.802,36.176 68.455,38.164 69.589,40.088 C70.723,42.011 71.405,43.851 71.635,45.606 C71.865,47.362 71.683,49.028 71.088,50.606 C70.493,52.184 69.553,53.652 68.269,55.013 C67.25,56.092 66.127,56.962 64.902,57.622 C63.677,58.283 62.395,58.723 61.056,58.941 C59.718,59.159 58.329,59.148 56.891,58.909 C55.453,58.67 54.012,58.19 52.567,57.469 C52.742,58.053 52.849,58.651 52.888,59.261 C52.927,59.871 52.885,60.509 52.76,61.174 L49.605,80.596 Z" id="Shape"></path>
                    <path d="M104.989,92.112 C103.192,94.8 101.085,96.992 98.666,98.69 C96.248,100.387 93.668,101.53 90.926,102.119 C88.185,102.708 85.36,102.709 82.45,102.122 C79.541,101.535 76.692,100.309 73.902,98.445 C71.13,96.592 68.916,94.434 67.261,91.97 C65.606,89.507 64.522,86.893 64.009,84.129 C63.496,81.365 63.558,78.538 64.193,75.649 C64.828,72.759 66.043,69.971 67.84,67.283 C69.636,64.595 71.748,62.405 74.175,60.713 C76.602,59.021 79.19,57.884 81.94,57.301 C84.69,56.717 87.52,56.719 90.429,57.306 C93.338,57.893 96.179,59.113 98.952,60.966 C100.811,62.209 102.417,63.594 103.769,65.121 C105.12,66.648 106.218,68.263 107.062,69.964 C107.906,71.665 108.497,73.442 108.836,75.295 C109.175,77.148 109.262,79.022 109.096,80.917 C108.93,82.811 108.504,84.703 107.816,86.591 C107.129,88.48 106.187,90.32 104.989,92.112 Z M98.016,87.451 C99.36,85.439 100.296,83.454 100.822,81.495 C101.349,79.536 101.487,77.665 101.235,75.883 C100.983,74.1 100.341,72.436 99.308,70.889 C98.275,69.343 96.863,67.971 95.071,66.773 C93.279,65.576 91.471,64.795 89.647,64.432 C87.823,64.069 86.035,64.109 84.284,64.553 C82.532,64.996 80.852,65.836 79.243,67.072 C77.634,68.308 76.158,69.932 74.813,71.943 C73.469,73.955 72.533,75.941 72.006,77.9 C71.48,79.859 71.349,81.728 71.615,83.508 C71.881,85.287 72.53,86.95 73.563,88.497 C74.596,90.043 76.008,91.415 77.8,92.613 C79.592,93.81 81.4,94.591 83.224,94.954 C85.048,95.317 86.829,95.278 88.566,94.837 C90.304,94.397 91.977,93.559 93.586,92.323 C95.194,91.087 96.671,89.463 98.016,87.451 Z" id="Shape"></path>
                    <path d="M144.057,109.925 C142.715,112.866 140.992,115.343 138.889,117.356 C136.785,119.369 134.441,120.858 131.854,121.823 C129.268,122.788 126.503,123.191 123.558,123.032 C120.613,122.872 117.615,122.096 114.563,120.703 L99.275,113.725 L117.587,73.604 L132.875,80.582 C135.927,81.975 138.476,83.736 140.522,85.865 C142.567,87.995 144.075,90.348 145.044,92.925 C146.014,95.502 146.427,98.244 146.285,101.152 C146.142,104.06 145.4,106.984 144.057,109.925 Z M136.399,106.43 C137.404,104.229 138.014,102.121 138.229,100.107 C138.444,98.093 138.278,96.229 137.73,94.515 C137.183,92.801 136.275,91.264 135.008,89.903 C133.74,88.542 132.126,87.414 130.165,86.519 L122.368,82.961 L109.476,111.207 L117.273,114.765 C119.234,115.66 121.143,116.141 123.002,116.207 C124.86,116.273 126.617,115.951 128.27,115.242 C129.924,114.533 131.441,113.437 132.821,111.955 C134.202,110.473 135.395,108.631 136.399,106.43 Z" id="Shape"></path>
                    <path d="M160.717,130.68 C162.244,131.108 163.681,131.236 165.028,131.064 C166.375,130.892 167.588,130.461 168.668,129.771 C169.748,129.081 170.692,128.142 171.5,126.954 C172.308,125.765 172.94,124.359 173.395,122.733 L180.519,97.299 L188.419,99.512 L181.296,124.946 C180.588,127.472 179.528,129.693 178.115,131.609 C176.702,133.526 175.019,135.05 173.065,136.182 C171.112,137.313 168.926,138.01 166.509,138.273 C164.091,138.535 161.522,138.286 158.8,137.523 C156.059,136.756 153.724,135.632 151.795,134.152 C149.865,132.672 148.36,130.941 147.278,128.959 C146.197,126.978 145.55,124.801 145.338,122.429 C145.126,120.058 145.374,117.609 146.081,115.083 L153.205,89.649 L161.105,91.862 L153.99,117.267 C153.535,118.892 153.344,120.422 153.417,121.857 C153.49,123.293 153.812,124.592 154.384,125.755 C154.956,126.918 155.772,127.923 156.834,128.769 C157.895,129.615 159.19,130.252 160.717,130.68 Z" id="Shape"></path>
                    <path d="M217.074,137.19 C217.517,137.247 217.888,137.469 218.187,137.856 L220.944,141.749 C218.885,143.718 216.484,145.12 213.742,145.954 C210.999,146.789 207.813,146.972 204.183,146.503 C200.937,146.083 198.09,145.151 195.642,143.707 C193.194,142.263 191.18,140.435 189.6,138.221 C188.021,136.008 186.919,133.467 186.295,130.598 C185.672,127.729 185.57,124.671 185.989,121.424 C186.414,118.137 187.328,115.195 188.729,112.599 C190.131,110.002 191.913,107.838 194.074,106.108 C196.235,104.378 198.707,103.135 201.491,102.377 C204.275,101.619 207.27,101.448 210.476,101.862 C213.662,102.274 216.423,103.164 218.757,104.532 C221.092,105.9 223.017,107.543 224.532,109.461 L221.321,112.89 C221.129,113.111 220.895,113.296 220.619,113.445 C220.344,113.594 219.984,113.64 219.54,113.582 C219.238,113.543 218.936,113.417 218.636,113.204 C218.335,112.991 218.01,112.733 217.659,112.432 C217.309,112.13 216.901,111.796 216.436,111.428 C215.971,111.06 215.422,110.708 214.789,110.369 C214.156,110.031 213.412,109.72 212.557,109.435 C211.702,109.15 210.7,108.934 209.55,108.785 C207.594,108.532 205.76,108.649 204.046,109.135 C202.333,109.621 200.806,110.448 199.466,111.618 C198.126,112.788 197.01,114.284 196.118,116.106 C195.227,117.928 194.623,120.059 194.308,122.499 C193.99,124.96 194.055,127.193 194.503,129.198 C194.951,131.204 195.685,132.939 196.706,134.404 C197.726,135.868 198.998,137.052 200.521,137.957 C202.045,138.861 203.734,139.433 205.589,139.673 C206.698,139.816 207.709,139.885 208.622,139.88 C209.535,139.875 210.387,139.79 211.177,139.626 C211.967,139.462 212.727,139.216 213.456,138.89 C214.184,138.564 214.921,138.142 215.664,137.623 C215.89,137.467 216.12,137.348 216.356,137.266 C216.592,137.184 216.832,137.158 217.074,137.19 Z" id="Shape"></path>
                    <polygon id="Shape" points="260.57 110.476 247.273 110.618 247.672 147.979 239.468 148.066 239.069 110.706 225.771 110.848 225.699 104.108 260.498 103.736"></polygon>
                    <path d="M316.581,116.031 C317.221,119.2 317.29,122.24 316.789,125.152 C316.288,128.064 315.28,130.7 313.765,133.06 C312.25,135.419 310.259,137.424 307.792,139.073 C305.325,140.723 302.447,141.879 299.158,142.543 C295.889,143.203 292.798,143.252 289.884,142.689 C286.97,142.126 284.352,141.052 282.03,139.468 C279.708,137.883 277.747,135.847 276.145,133.359 C274.543,130.872 273.423,128.044 272.783,124.875 C272.143,121.706 272.078,118.664 272.589,115.75 C273.1,112.836 274.118,110.199 275.643,107.837 C277.168,105.475 279.164,103.47 281.632,101.82 C284.099,100.171 286.967,99.016 290.236,98.356 C292.428,97.913 294.542,97.751 296.578,97.869 C298.614,97.987 300.533,98.346 302.334,98.947 C304.136,99.548 305.813,100.381 307.366,101.447 C308.92,102.513 310.31,103.772 311.537,105.225 C312.764,106.679 313.804,108.315 314.659,110.134 C315.514,111.952 316.155,113.918 316.581,116.031 Z M308.36,117.691 C307.881,115.319 307.132,113.256 306.114,111.501 C305.096,109.746 303.866,108.33 302.424,107.252 C300.983,106.174 299.35,105.456 297.525,105.099 C295.7,104.741 293.731,104.776 291.618,105.202 C289.505,105.629 287.677,106.361 286.134,107.399 C284.591,108.437 283.359,109.733 282.439,111.288 C281.518,112.843 280.929,114.626 280.672,116.638 C280.415,118.651 280.525,120.843 281.004,123.215 C281.483,125.586 282.232,127.65 283.25,129.404 C284.268,131.159 285.502,132.569 286.951,133.635 C288.401,134.701 290.038,135.413 291.863,135.771 C293.688,136.128 295.657,136.094 297.77,135.667 C299.882,135.241 301.71,134.508 303.254,133.471 C304.797,132.433 306.025,131.143 306.937,129.6 C307.849,128.057 308.434,126.279 308.692,124.267 C308.949,122.255 308.839,120.063 308.36,117.691 Z" id="Shape"></path>
                    <path d="M370.716,69.625 L376.041,115.497 L369.264,118.496 L348.255,94.841 C347.717,94.278 347.132,93.559 346.5,92.683 C346.594,93.197 346.676,93.683 346.745,94.142 C346.815,94.6 346.863,95.035 346.889,95.446 L350.187,126.939 L343.381,129.951 L313.038,95.151 L319.313,92.374 C319.964,92.086 320.576,91.998 321.149,92.112 C321.721,92.225 322.197,92.509 322.576,92.964 L340.115,114.053 C340.527,114.582 340.957,115.165 341.405,115.8 C341.853,116.436 342.32,117.102 342.806,117.798 C342.609,116.951 342.447,116.145 342.319,115.379 C342.191,114.613 342.098,113.887 342.039,113.201 L339.283,85.57 C339.243,85.077 339.363,84.557 339.643,84.01 C339.924,83.463 340.38,83.05 341.012,82.77 L343.216,81.795 C343.867,81.507 344.466,81.431 345.015,81.566 C345.564,81.701 346.052,81.974 346.479,82.386 L365.049,103.018 C365.949,103.998 366.891,105.171 367.874,106.537 C367.465,104.962 367.147,103.513 366.918,102.191 L363.102,75.029 C363.008,74.515 363.114,73.99 363.422,73.453 C363.729,72.917 364.199,72.509 364.831,72.229 L370.716,69.625 Z" id="Shape"></path>
                    <path d="M402.29,45.581 L428.032,81.391 L424.615,83.848 C424.086,84.228 423.583,84.459 423.103,84.54 C422.623,84.622 422.07,84.575 421.443,84.4 L385.584,73.968 C386.466,74.986 387.24,75.958 387.904,76.882 L403.713,98.874 L397.844,103.093 L372.101,67.282 L375.593,64.772 C375.873,64.57 376.126,64.408 376.35,64.284 C376.574,64.161 376.791,64.08 377.002,64.041 C377.212,64.003 377.442,64 377.691,64.034 C377.941,64.067 378.239,64.134 378.587,64.235 L414.592,74.713 C414.127,74.171 413.677,73.631 413.24,73.093 C412.803,72.556 412.413,72.047 412.069,71.569 L396.42,49.8 L402.29,45.581 Z" id="Shape"></path>
                    <polygon id="Shape" points="415.433 41.883 423.862 50.744 435.044 40.107 439.396 44.681 428.214 55.318 436.812 64.356 450.999 50.86 455.519 55.611 435.365 74.783 404.967 42.83 425.121 23.658 429.62 28.387"></polygon>
                    <path d="M451.02,25.286 C451.999,24.09 452.703,22.926 453.132,21.792 C453.561,20.659 453.747,19.589 453.691,18.583 C453.634,17.578 453.36,16.637 452.868,15.761 C452.377,14.885 451.698,14.093 450.833,13.384 C449.103,11.967 447.307,11.448 445.444,11.829 C443.582,12.209 441.691,13.571 439.771,15.915 L436.447,19.973 L447.773,29.25 L451.02,25.286 Z M482.279,23.608 L477.582,29.342 C476.693,30.427 475.624,30.866 474.376,30.657 L457.576,28.882 C456.948,28.814 456.415,28.871 455.978,29.052 C455.541,29.232 455.065,29.637 454.549,30.267 L452.327,32.98 L465.658,43.9 L460.459,50.247 L426.341,22.3 L434.864,11.895 C436.758,9.582 438.624,7.793 440.463,6.526 C442.302,5.26 444.089,4.45 445.824,4.097 C447.559,3.744 449.234,3.808 450.85,4.291 C452.466,4.773 453.997,5.607 455.444,6.792 C456.593,7.733 457.539,8.791 458.285,9.967 C459.03,11.142 459.559,12.39 459.871,13.71 C460.183,15.03 460.27,16.416 460.132,17.867 C459.995,19.318 459.617,20.79 459,22.282 C459.571,22.066 460.159,21.917 460.765,21.835 C461.371,21.753 462.01,21.751 462.683,21.829 L482.279,23.608 Z" id="Shape"></path>
                </g>
                <g id="Outlint-Font" stroke="#527A98" stroke-width="0.109287" stroke-linecap="round" stroke-linejoin="round">
                    <path d="M0.7,298.375 C0.7,133.974 133.974,0.7 298.375,0.7 C462.776,0.7 596.05,133.974 596.05,298.375 C596.05,462.776 462.776,596.05 298.375,596.05 C133.974,596.05 0.7,462.776 0.7,298.375 Z" id="Shape"></path>
                </g>
            </g>
        </g>
    </g>
</svg>