<?xml version="1.0" encoding="UTF-8"?>
<svg width="597px" height="597px" viewBox="0 0 597 597" version="1.1" xmlns="http://www.w3.org/2000/svg" xmlns:xlink="http://www.w3.org/1999/xlink">
    <!-- Generator: Sketch 47.1 (45422) - http://www.bohemiancoding.com/sketch -->
    <title>re_web_font</title>
    <desc>Created with Sketch.</desc>
    <defs></defs>
    <g id="web" stroke="none" stroke-width="1" fill="none" fill-rule="evenodd">
        <g id="re_web" transform="translate(-2.000000, -2.000000)">
            <g id="re_web_font" transform="translate(2.000000, 2.000000)">
                <g id="font" transform="translate(2.000000, 1.000000)" fill="#F5EED6">
                    <path d="M21.223,312.365 C21.1489,310.847 20.8945,309.533 20.4599,308.422 C20.0253,307.312 19.4555,306.409 18.7507,305.712 C18.0459,305.016 17.2253,304.51 16.2888,304.196 C15.3524,303.881 14.3348,303.75 13.2361,303.804 C11.0387,303.911 9.3861,304.718 8.2782,306.224 C7.1703,307.73 6.689,309.971 6.8343,312.947 L7.0859,318.101 L21.4688,317.399 L21.223,312.365 Z M42.924,290.521 L43.279,297.802 C43.346,299.18 42.856,300.206 41.8074,300.877 L28.3786,310.664 C27.8758,311.029 27.5245,311.421 27.3248,311.842 C27.125,312.262 27.0447,312.872 27.0837,313.671 L27.2519,317.117 L44.182,316.29 L44.575,324.35 L1.2468,326.466 L0.6017,313.251 C0.4584,310.315 0.6399,307.778 1.1463,305.641 C1.6527,303.504 2.4223,301.734 3.4552,300.332 C4.488,298.93 5.753,297.872 7.2499,297.158 C8.7469,296.444 10.4143,296.042 12.2521,295.953 C13.7104,295.882 15.0992,296.029 16.4186,296.395 C17.7381,296.761 18.9469,297.323 20.0451,298.08 C21.1434,298.838 22.121,299.791 22.9781,300.941 C23.8352,302.09 24.5305,303.413 25.064,304.909 C25.3383,304.375 25.6695,303.878 26.0576,303.418 C26.4456,302.959 26.9105,302.536 27.4523,302.149 L42.924,290.521 Z" id="Shape"></path>
                    <polygon id="Shape" points="7.4186 275.178 19.401 276.247 20.7497 261.127 26.9351 261.679 25.5865 276.799 37.8079 277.889 39.5191 258.705 45.944 259.278 43.513 286.53 0.3043 282.676 2.7351 255.424 9.1298 255.995"></polygon>
                    <path d="M26.9502,242.815 C29.2568,243.402 31.4048,243.618 33.3942,243.463 C35.3836,243.309 37.1598,242.817 38.7227,241.986 C40.2856,241.156 41.6145,240.008 42.709,238.542 C43.804,237.077 44.613,235.317 45.136,233.263 C45.658,231.208 45.788,229.275 45.526,227.465 C45.265,225.655 44.644,224.016 43.665,222.55 C42.687,221.083 41.3604,219.807 39.6864,218.721 C38.0125,217.635 36.0222,216.799 33.7156,216.212 C31.409,215.625 29.261,215.409 27.2716,215.564 C25.2821,215.718 23.5024,216.205 21.9323,217.023 C20.3622,217.841 19.0296,218.983 17.9347,220.448 C16.8398,221.914 16.0311,223.674 15.5086,225.728 C14.9861,227.783 14.8557,229.715 15.1176,231.526 C15.3795,233.336 16.0034,234.981 16.9894,236.459 C17.9754,237.938 19.3054,239.22 20.9794,240.306 C22.6533,241.392 24.6436,242.229 26.9502,242.815 Z M65.552,213.474 L63.911,219.929 C63.674,220.859 63.335,221.665 62.893,222.348 C62.452,223.03 61.813,223.595 60.977,224.042 L52.606,228.476 C52.626,229.534 52.572,230.598 52.444,231.67 C52.316,232.741 52.109,233.839 51.823,234.963 C51.014,238.142 49.739,240.903 47.998,243.246 C46.257,245.589 44.189,247.452 41.7946,248.835 C39.4,250.217 36.7588,251.088 33.8712,251.447 C30.9835,251.807 27.9988,251.594 24.9169,250.811 C21.835,250.027 19.1114,248.787 16.7463,247.092 C14.3811,245.397 12.4769,243.37 11.0337,241.012 C9.5904,238.653 8.6637,236.029 8.2533,233.139 C7.843,230.248 8.0421,227.214 8.8505,224.035 C9.3927,221.903 10.15,219.96 11.1224,218.205 C12.0948,216.451 13.2313,214.903 14.5319,213.562 C15.8325,212.221 17.2862,211.09 18.8931,210.167 C20.5001,209.245 22.2091,208.55 24.0203,208.082 C25.8316,207.614 27.7255,207.388 29.7021,207.406 C31.6787,207.424 33.6943,207.694 35.7489,208.216 C37.6291,208.695 39.3776,209.346 40.9944,210.17 C42.611,210.993 44.073,211.959 45.381,213.065 C46.689,214.171 47.835,215.407 48.819,216.772 C49.803,218.136 50.599,219.608 51.209,221.187 L65.552,213.474 Z" id="Shape"></path>
                    <path d="M60.601,189.258 C61.252,187.84 61.598,186.464 61.639,185.129 C61.68,183.794 61.448,182.549 60.944,181.393 C60.441,180.238 59.674,179.176 58.644,178.208 C57.614,177.239 56.345,176.409 54.836,175.716 L31.2268,164.874 L34.5946,157.54 L58.204,168.383 C60.549,169.459 62.543,170.832 64.187,172.5 C65.83,174.168 67.051,176.038 67.849,178.11 C68.648,180.183 68.988,182.413 68.87,184.802 C68.752,187.191 68.113,189.648 66.953,192.175 C65.785,194.719 64.333,196.815 62.598,198.461 C60.862,200.107 58.949,201.302 56.857,202.047 C54.765,202.792 52.551,203.085 50.215,202.925 C47.878,202.765 45.537,202.147 43.193,201.071 L19.5834,190.228 L22.9512,182.895 L46.533,193.724 C48.042,194.417 49.499,194.839 50.905,194.989 C52.31,195.139 53.622,195.026 54.84,194.65 C56.058,194.274 57.16,193.636 58.146,192.735 C59.132,191.834 59.95,190.675 60.601,189.258 Z" id="Shape"></path>
                    <polygon id="Shape" points="82.882 161.853 78.644 168.756 41.6753 146.06 45.913 139.157"></polygon>
                    <path d="M77.82,129.535 C78.752,128.335 79.415,127.172 79.808,126.046 C80.201,124.921 80.357,123.864 80.276,122.877 C80.195,121.889 79.901,120.971 79.395,120.122 C78.89,119.274 78.202,118.512 77.334,117.837 C75.596,116.488 73.817,116.023 71.996,116.445 C70.174,116.866 68.349,118.253 66.521,120.607 L63.356,124.682 L74.728,133.515 L77.82,129.535 Z M108.514,127.09 L104.041,132.848 C103.195,133.937 102.155,134.396 100.922,134.223 L84.358,132.904 C83.738,132.854 83.216,132.923 82.791,133.112 C82.366,133.301 81.908,133.711 81.417,134.343 L79.3,137.067 L92.686,147.465 L87.736,153.838 L53.477,127.227 L61.593,116.779 C63.397,114.457 65.187,112.65 66.963,111.358 C68.739,110.066 70.476,109.224 72.172,108.833 C73.869,108.441 75.518,108.462 77.119,108.895 C78.72,109.328 80.247,110.109 81.7,111.238 C82.853,112.134 83.811,113.15 84.574,114.287 C85.337,115.424 85.888,116.638 86.228,117.928 C86.569,119.218 86.69,120.578 86.591,122.009 C86.493,123.439 86.16,124.896 85.59,126.378 C86.146,126.152 86.721,125.99 87.315,125.894 C87.908,125.798 88.537,125.78 89.2,125.839 L108.514,127.09 Z" id="Shape"></path>
                    <polygon id="Shape" points="91.647 92.261 100.019 100.9 110.92 90.337 115.242 94.797 104.34 105.36 112.878 114.172 126.71 100.77 131.199 105.402 111.55 124.441 81.363 93.287 101.012 74.248 105.479 78.858"></polygon>
                    <path d="M150.591,38.4253 L174.826,74.405 L168.929,78.377 L153.275,55.137 C152.649,54.208 152.023,53.171 151.396,52.026 L154.283,79.778 C154.428,81.103 153.969,82.123 152.908,82.838 L151.962,83.475 C150.9,84.19 149.783,84.231 148.61,83.599 L123.802,70.504 C124.22,71.018 124.625,71.529 125.016,72.037 C125.406,72.546 125.752,73.024 126.054,73.472 L141.708,96.712 L135.811,100.684 L111.576,64.704 L116.627,61.302 C116.926,61.101 117.188,60.936 117.415,60.808 C117.642,60.679 117.865,60.589 118.084,60.538 C118.303,60.487 118.533,60.489 118.774,60.543 C119.016,60.597 119.287,60.704 119.587,60.864 L143.819,73.587 C144.459,73.928 145.089,74.299 145.709,74.701 C146.329,75.103 146.957,75.525 147.591,75.965 C147.41,75.195 147.251,74.44 147.115,73.7 C146.978,72.961 146.872,72.23 146.796,71.509 L143.996,44.423 C143.962,44.084 143.968,43.79 144.017,43.54 C144.066,43.291 144.155,43.074 144.285,42.8902 C144.414,42.7065 144.581,42.5338 144.785,42.3719 C144.99,42.2101 145.241,42.0286 145.54,41.8275 L150.591,38.4253 Z" id="Shape"></path>
                    <polygon id="Shape" points="175.299 34.0092 180.166 45.011 194.048 38.8699 196.561 44.549 182.678 50.69 187.642 61.911 205.256 54.12 207.865 60.018 182.844 71.087 165.294 31.4148 190.316 20.3465 192.913 26.2177"></polygon>
                    <path d="M238.198,6.3266 L249.282,48.267 L245.279,49.325 C244.661,49.488 244.117,49.523 243.647,49.43 C243.178,49.337 242.686,49.1 242.171,48.719 L212.884,26.5457 C213.337,27.7913 213.707,28.9554 213.993,30.0383 L220.8,55.794 L213.926,57.611 L202.842,15.6706 L206.932,14.5898 C207.26,14.5029 207.549,14.442 207.799,14.4072 C208.048,14.3723 208.276,14.3741 208.483,14.4126 C208.689,14.451 208.901,14.5294 209.119,14.6478 C209.336,14.7662 209.587,14.9326 209.871,15.1471 L239.277,37.4129 C239.04,36.7514 238.815,36.0971 238.603,35.4499 C238.39,34.8027 238.21,34.1987 238.062,33.638 L231.324,8.1433 L238.198,6.3266 Z" id="Shape"></path>
                    <polygon id="Shape" points="284.529 7.5471 271.514 8.8405 275.148 45.41 267.117 46.208 263.483 9.6385 250.467 10.9319 249.812 4.3344 283.874 0.9496"></polygon>
                    <path d="M317.353,9.6017 C317.099,10.0136 316.835,10.3102 316.559,10.4913 C316.283,10.6725 315.945,10.7566 315.545,10.7436 C315.125,10.7299 314.675,10.5602 314.196,10.2345 C313.716,9.9088 313.143,9.545 312.475,9.1431 C311.808,8.7412 311.025,8.3706 310.125,8.0312 C309.226,7.6918 308.156,7.502 306.917,7.4618 C305.797,7.4254 304.814,7.5285 303.965,7.7711 C303.117,8.0137 302.4,8.3656 301.815,8.8269 C301.23,9.2881 300.786,9.849 300.485,10.5096 C300.183,11.1701 300.019,11.9002 299.993,12.6998 C299.96,13.7192 300.217,14.578 300.765,15.2762 C301.313,15.9743 302.048,16.5785 302.972,17.0888 C303.896,17.5991 304.952,18.0636 306.139,18.4823 C307.326,18.9011 308.542,19.3458 309.787,19.8165 C311.033,20.2871 312.246,20.8268 313.427,21.4354 C314.608,22.0441 315.654,22.7984 316.565,23.6985 C317.476,24.5986 318.196,25.6875 318.725,26.9653 C319.254,28.2432 319.489,29.7816 319.431,31.5807 C319.367,33.5396 318.973,35.3628 318.247,37.0502 C317.522,38.7375 316.494,40.1949 315.164,41.4224 C313.833,42.6498 312.227,43.598 310.344,44.267 C308.461,44.937 306.32,45.232 303.922,45.154 C302.543,45.11 301.188,44.931 299.857,44.617 C298.527,44.304 297.255,43.877 296.042,43.338 C294.828,42.798 293.694,42.1608 292.637,41.4261 C291.58,40.6914 290.646,39.8807 289.834,38.9939 L292.329,35.2028 C292.538,34.9295 292.805,34.703 293.131,34.5235 C293.457,34.344 293.8,34.2601 294.16,34.2718 C294.66,34.288 295.193,34.5104 295.759,34.939 C296.325,35.3677 297,35.8448 297.784,36.3705 C298.567,36.8962 299.487,37.3813 300.543,37.8259 C301.599,38.2704 302.877,38.517 304.376,38.5657 C306.675,38.6403 308.471,38.1534 309.766,37.1049 C311.061,36.0564 311.741,34.5126 311.808,32.4737 C311.845,31.3343 311.59,30.3955 311.044,29.6574 C310.497,28.9193 309.762,28.2901 308.839,27.7698 C307.915,27.2496 306.859,26.8001 305.671,26.4213 C304.482,26.0425 303.275,25.6331 302.049,25.1931 C300.822,24.753 299.619,24.2337 298.437,23.635 C297.256,23.0364 296.21,22.272 295.3,21.342 C294.39,20.4119 293.672,19.263 293.146,17.8952 C292.62,16.5275 292.389,14.8541 292.454,12.8751 C292.505,11.296 292.87,9.767 293.548,8.2882 C294.226,6.8095 295.184,5.5099 296.421,4.3894 C297.658,3.269 299.168,2.3875 300.949,1.745 C302.731,1.1025 304.761,0.8183 307.04,0.8923 C309.599,0.9754 311.945,1.4518 314.078,2.3215 C316.21,3.1912 318.013,4.3703 319.486,5.8589 L317.353,9.6017 Z" id="Shape"></path>
                    <polygon id="Shape" points="355.798 13.6782 353.166 25.4167 367.979 28.7379 366.62 34.7975 351.808 31.4763 349.123 43.449 367.917 47.663 366.505 53.957 339.808 47.971 349.299 5.6415 375.996 11.6276 374.592 17.892"></polygon>
                    <path d="M422.826,28.8416 L406.788,69.148 L402.941,67.617 C402.346,67.381 401.888,67.085 401.566,66.731 C401.244,66.377 400.99,65.894 400.803,65.281 L390.45,30.0364 C390.074,31.3072 389.679,32.463 389.264,33.5036 L379.415,58.256 L372.809,55.627 L388.847,15.321 L392.778,16.8849 C393.093,17.0106 393.362,17.1336 393.583,17.2539 C393.804,17.3742 393.987,17.5113 394.13,17.6652 C394.273,17.8191 394.397,18.0083 394.501,18.2328 C394.606,18.4573 394.708,18.7403 394.809,19.0818 L405.201,54.471 C405.405,53.799 405.613,53.139 405.827,52.493 C406.042,51.846 406.256,51.253 406.47,50.714 L416.22,26.2129 L422.826,28.8416 Z" id="Shape"></path>
                    <path d="M456.465,73.503 L447.243,88.435 C444.52,88.657 441.902,88.433 439.39,87.763 C436.877,87.093 434.412,86.011 431.996,84.519 C428.984,82.659 426.546,80.507 424.683,78.063 C422.819,75.619 421.538,73.03 420.841,70.295 C420.144,67.561 420.042,64.748 420.535,61.856 C421.029,58.963 422.121,56.148 423.813,53.408 C425.526,50.634 427.548,48.369 429.879,46.612 C432.211,44.854 434.721,43.654 437.41,43.011 C440.099,42.3685 442.91,42.3179 445.842,42.8599 C448.775,43.402 451.713,44.582 454.657,46.4 C456.155,47.325 457.481,48.308 458.635,49.35 C459.79,50.393 460.796,51.466 461.653,52.572 C462.51,53.677 463.214,54.811 463.765,55.974 C464.316,57.137 464.754,58.313 465.078,59.5 L461.19,61.4 C460.578,61.705 459.992,61.76 459.43,61.565 C458.868,61.371 458.409,60.917 458.051,60.202 C457.689,59.532 457.327,58.862 456.965,58.192 C456.603,57.522 456.151,56.855 455.609,56.191 C455.067,55.527 454.414,54.853 453.649,54.169 C452.884,53.485 451.941,52.797 450.818,52.103 C448.997,50.979 447.161,50.268 445.311,49.972 C443.461,49.675 441.665,49.776 439.922,50.275 C438.18,50.775 436.535,51.65 434.985,52.903 C433.436,54.156 432.052,55.769 430.832,57.743 C429.529,59.853 428.667,61.924 428.247,63.956 C427.826,65.988 427.81,67.918 428.198,69.744 C428.586,71.571 429.368,73.264 430.544,74.825 C431.719,76.385 433.26,77.754 435.165,78.931 C436.527,79.772 437.833,80.378 439.083,80.751 C440.334,81.124 441.622,81.379 442.948,81.516 L447.078,74.829 L442.433,71.96 C441.99,71.686 441.722,71.35 441.628,70.951 C441.533,70.552 441.596,70.174 441.817,69.816 L444.213,65.937 L456.465,73.503 Z" id="Shape"></path>
                    <polygon id="Shape" points="456.579 101.754 450.235 96.718 477.203 62.74 483.548 67.776"></polygon>
                    <path d="M520.708,103.111 L489.728,133.477 L486.83,130.521 C486.382,130.064 486.083,129.608 485.932,129.154 C485.781,128.7 485.744,128.155 485.821,127.52 L490.619,91.1 C489.76,92.11 488.931,93.007 488.131,93.791 L469.106,112.439 L464.129,107.361 L495.109,76.995 L498.07,80.016 C498.308,80.259 498.504,80.48 498.657,80.68 C498.811,80.879 498.922,81.078 498.991,81.277 C499.059,81.476 499.096,81.699 499.101,81.946 C499.105,82.194 499.084,82.494 499.039,82.847 L494.218,119.415 C494.676,118.882 495.133,118.363 495.591,117.859 C496.049,117.354 496.485,116.899 496.899,116.493 L515.731,98.034 L520.708,103.111 Z" id="Shape"></path>
                    <polygon id="Shape" points="529.823 125.629 520.033 132.619 528.855 144.973 523.801 148.582 514.979 136.228 504.994 143.359 516.186 159.033 510.937 162.781 495.038 140.515 530.341 115.306 546.24 137.572 541.016 141.303"></polygon>
                    <polygon id="Shape" points="550.669 158.28 540.034 163.903 547.13 177.323 541.64 180.226 534.544 166.806 523.697 172.541 532.7 189.568 526.998 192.583 514.209 168.395 552.559 148.119 565.347 172.306 559.672 175.307"></polygon>
                    <path d="M555.417,203.223 C555.93,204.654 556.555,205.837 557.294,206.773 C558.032,207.709 558.84,208.408 559.717,208.869 C560.594,209.331 561.526,209.576 562.513,209.605 C563.501,209.634 564.512,209.463 565.548,209.092 C567.619,208.35 568.966,207.098 569.588,205.335 C570.211,203.573 570.02,201.288 569.015,198.483 L567.276,193.624 L553.719,198.478 L555.417,203.223 Z M541.004,230.432 L538.547,223.569 C538.082,222.269 538.254,221.146 539.062,220.198 L549.065,206.93 C549.44,206.435 549.662,205.957 549.731,205.497 C549.8,205.037 549.7,204.43 549.43,203.677 L548.268,200.429 L532.309,206.142 L529.589,198.544 L570.432,183.924 L574.89,196.38 C575.881,199.148 576.445,201.628 576.582,203.82 C576.719,206.012 576.497,207.929 575.916,209.571 C575.335,211.212 574.433,212.592 573.208,213.711 C571.983,214.829 570.504,215.698 568.772,216.318 C567.397,216.81 566.026,217.073 564.657,217.106 C563.288,217.139 561.968,216.953 560.697,216.548 C559.426,216.143 558.214,215.514 557.059,214.664 C555.905,213.813 554.855,212.75 553.91,211.474 C553.803,212.064 553.63,212.636 553.393,213.188 C553.155,213.741 552.833,214.281 552.427,214.808 L541.004,230.432 Z" id="Shape"></path>
                    <polygon id="Shape" points="543.212 242.348 541.331 234.469 583.524 224.391 585.406 232.269"></polygon>
                    <path d="M592.786,283.057 L549.663,287.77 L549.213,283.655 C549.143,283.018 549.19,282.475 549.352,282.025 C549.514,281.575 549.822,281.124 550.275,280.672 L576.563,255.013 C575.264,255.276 574.057,255.468 572.944,255.59 L546.462,258.485 L545.689,251.417 L588.812,246.703 L589.272,250.908 C589.309,251.246 589.326,251.541 589.323,251.793 C589.321,252.044 589.285,252.27 589.216,252.468 C589.147,252.667 589.038,252.865 588.889,253.062 C588.739,253.26 588.537,253.483 588.283,253.732 L561.886,279.493 C562.575,279.357 563.256,279.233 563.927,279.119 C564.599,279.005 565.223,278.917 565.8,278.854 L592.013,275.989 L592.786,283.057 Z" id="Shape"></path>
                    <path d="M569.203,333.651 L551.688,332.548 C550.209,330.251 549.174,327.836 548.582,325.303 C547.99,322.771 547.783,320.088 547.962,317.254 C548.184,313.721 548.935,310.556 550.213,307.761 C551.491,304.966 553.172,302.617 555.256,300.714 C557.34,298.812 559.773,297.397 562.557,296.47 C565.341,295.543 568.34,295.181 571.553,295.383 C574.807,295.588 577.758,296.305 580.406,297.534 C583.054,298.763 585.294,300.412 587.128,302.482 C588.961,304.551 590.33,307.007 591.233,309.849 C592.136,312.692 592.479,315.839 592.261,319.292 C592.151,321.049 591.907,322.682 591.532,324.191 C591.156,325.701 590.683,327.094 590.111,328.37 C589.54,329.647 588.871,330.802 588.104,331.836 C587.338,332.87 586.507,333.809 585.612,334.655 L582.105,332.119 C581.549,331.724 581.224,331.232 581.13,330.645 C581.037,330.058 581.221,329.439 581.683,328.786 C582.104,328.151 582.525,327.517 582.946,326.882 C583.366,326.247 583.742,325.534 584.072,324.743 C584.403,323.953 584.689,323.059 584.933,322.062 C585.176,321.066 585.339,319.909 585.422,318.591 C585.556,316.455 585.319,314.502 584.709,312.73 C584.099,310.958 583.164,309.421 581.903,308.119 C580.642,306.817 579.095,305.778 577.26,305.001 C575.425,304.224 573.35,303.763 571.035,303.617 C568.56,303.461 566.327,303.676 564.336,304.262 C562.345,304.848 560.635,305.743 559.207,306.945 C557.779,308.148 556.653,309.635 555.83,311.407 C555.007,313.178 554.525,315.182 554.384,317.418 C554.284,319.014 554.363,320.452 554.623,321.731 C554.884,323.01 555.265,324.267 555.769,325.501 L563.613,325.995 L563.956,320.546 C563.989,320.027 564.159,319.632 564.467,319.36 C564.775,319.089 565.138,318.967 565.557,318.993 L570.108,319.28 L569.203,333.651 Z" id="Shape"></path>
                </g>
                <g id="outline" stroke="#547A97" stroke-width="0.109287">
                    <path d="M0.7,298.375 C0.7,133.974 133.974,0.7 298.375,0.7 C462.776,0.7 596.05,133.974 596.05,298.375 C596.05,462.776 462.776,596.05 298.375,596.05 C133.974,596.05 0.7,462.776 0.7,298.375 Z" id="Shape"></path>
                </g>
            </g>
        </g>
    </g>
</svg>