<?xml version="1.0" encoding="UTF-8"?>
<svg width="454px" height="454px" viewBox="0 0 454 454" version="1.1" xmlns="http://www.w3.org/2000/svg" xmlns:xlink="http://www.w3.org/1999/xlink">
    <!-- Generator: Sketch 47.1 (45422) - http://www.bohemiancoding.com/sketch -->
    <title>re_web</title>
    <desc>Created with Sketch.</desc>
    <defs>
        <path d="M0.737,227.375 C0.737,102.231 102.186,0.782 227.33,0.782 C352.474,0.782 453.923,102.231 453.923,227.375 C453.923,352.519 352.474,453.968 227.33,453.968 C102.186,453.968 0.737,352.519 0.737,227.375 Z" id="path-1"></path>
    </defs>
    <g id="web" stroke="none" stroke-width="1" fill="none" fill-rule="evenodd">
        <g id="re_web" transform="translate(-73.000000, -73.000000)">
            <g transform="translate(73.000000, 73.000000)">
                <g id="bg" fill="#F5EED6">
                    <path d="M0.737,227.375 C0.737,102.231 102.186,0.782 227.33,0.782 C352.474,0.782 453.923,102.231 453.923,227.375 C453.923,352.519 352.474,453.968 227.33,453.968 C102.186,453.968 0.737,352.519 0.737,227.375 Z" id="Shape"></path>
                </g>
                <g id="content">
                    <g id="Layer-2" transform="translate(103.000000, 79.000000)" fill="#E8AF30">
                        <path d="M120.7,0.534 C150.466,0.534 179.108,0.993 200.638,1.846 C222.463,2.71 237.309,4.142 238.232,5.065 C238.017,4.85 238.122,5.165 238.232,5.69 C238.415,6.566 238.604,7.806 238.763,9.409 C239.081,12.615 239.329,17.142 239.513,22.94 C239.859,33.884 239.943,49.231 239.825,68.502 C239.623,101.562 238.798,145.065 237.482,195.502 C237.469,195.999 237.741,196.388 237.982,196.784 C233.452,194.39 228.366,192.909 222.888,192.909 C204.926,192.909 190.388,207.478 190.388,225.44 C190.388,236.153 195.621,245.552 203.607,251.471 C192.43,262.968 184.929,285.166 180.075,314.159 C179.927,314.131 179.826,314.002 179.669,314.002 L64.075,314.002 C62.401,306.546 60.6,299.242 58.575,292.346 C50.345,264.311 39.727,243.302 26.638,231.565 C41.987,223.084 52.513,206.933 52.513,188.159 C52.513,160.659 30.2,138.346 2.7,138.346 C2.143,138.346 1.596,138.418 1.044,138.44 C0.72,101.006 0.684,69.835 1.044,46.94 C1.249,33.94 1.597,23.68 2.044,16.409 C2.277,12.63 2.53,9.683 2.825,7.596 C2.969,6.58 3.118,5.767 3.263,5.221 C3.334,4.956 3.375,4.859 3.169,5.065 C4.092,4.142 18.938,2.71 40.763,1.846 C62.293,0.993 90.935,0.534 120.7,0.534 Z M117.169,16.721 C77.685,16.721 45.427,20.744 38.2,27.971 C36.207,29.965 35.383,32.397 35.513,35.284 C35.556,36.246 35.704,37.253 35.95,38.315 C36.594,41.09 36.832,41.692 40.2,49.44 C43.206,56.353 44.482,60.507 44.482,64.815 C44.482,65.759 44.191,67.337 43.544,69.815 C30.942,70.769 21.338,72.897 17.138,77.096 C14.957,79.277 14.668,81.89 16.169,84.315 C16.899,85.494 17.991,86.582 19.607,87.877 C20.478,88.576 23.822,91.062 23.825,91.065 C28.427,94.561 30.45,97.065 30.45,99.909 C30.45,102.933 28.287,105.969 23.825,109.877 C23.315,110.325 20.786,112.474 20.419,112.784 C19.062,113.931 18.199,114.726 17.482,115.502 C15.025,118.163 14.546,121.035 17.544,123.034 C19.104,124.073 21.867,124.544 25.263,124.534 C35.449,124.503 51.136,120.349 55.763,115.721 C56.892,114.592 57.392,113.309 57.357,112.002 C57.352,111.835 57.253,111.67 57.232,111.502 C57.228,111.423 57.306,111.364 57.294,111.284 L55.169,96.721 C69.096,93.746 91.705,91.877 117.169,91.877 C142.652,91.877 165.254,93.742 179.169,96.721 L177.044,111.284 C177.034,111.351 177.08,111.405 177.075,111.471 C176.893,112.947 177.304,114.419 178.575,115.69 C183.203,120.317 198.889,124.472 209.075,124.502 C212.471,124.513 215.234,124.073 216.794,123.034 C219.793,121.034 219.313,118.132 216.857,115.471 C216.14,114.694 215.276,113.9 213.919,112.752 C213.553,112.442 211.024,110.325 210.513,109.877 C206.051,105.969 203.888,102.933 203.888,99.909 C203.888,97.065 205.912,94.53 210.513,91.034 C210.516,91.031 213.861,88.544 214.732,87.846 C216.347,86.551 217.439,85.463 218.169,84.284 C219.67,81.859 219.35,79.245 217.169,77.065 C212.998,72.894 203.513,70.806 191.044,69.846 C190.557,67.922 189.825,65.356 189.825,64.815 C189.825,60.507 191.101,56.353 194.107,49.44 C197.475,41.692 197.713,41.09 198.357,38.315 C199.342,34.066 198.765,30.629 196.107,27.971 C188.879,20.744 156.653,16.721 117.169,16.721 Z" id="Shape"></path>
                    </g>
                    <g id="Layer-2_2">
                        <g id="Clipped">
                            <mask id="mask-2" fill="white">
                                <use xlink:href="#path-1"></use>
                            </mask>
                            <g id="Mask"></g>
                            <g id="Group" mask="url(#mask-2)" stroke="#262626" stroke-width="5">
                                <g transform="translate(50.000000, 77.000000)" id="Shape">
                                    <path d="M92.972,31.742 C107.006,17.708 233.317,17.708 247.352,31.742 C254.369,38.76 240.334,52.794 240.334,66.829 C240.334,73.846 254.369,108.932 247.352,101.915 C233.317,87.881 107.006,87.881 92.972,101.915 C85.954,108.932 99.989,73.846 99.989,66.829 C99.989,52.794 85.954,38.76 92.972,31.742 Z"></path>
                                    <path d="M91.424,102.816 C91.424,102.816 112.269,110.687 107.006,115.95 C101.743,121.213 77.182,126.476 71.919,122.967 C66.657,119.459 85.954,112.441 85.954,101.915 C85.954,91.389 65.717,87.066 71.919,80.863 C76.43,76.353 89.638,74.741 98.5,74.166"></path>
                                    <path d="M107.818,113.658 L105.345,96.73"></path>
                                    <path d="M248.913,102.799 C248.913,102.799 228.067,110.669 233.33,115.932 C238.593,121.195 263.154,126.458 268.417,122.949 C273.679,119.441 254.383,112.423 254.383,101.897 C254.383,91.371 274.619,87.048 268.417,80.846 C263.906,76.335 250.698,74.724 241.837,74.148"></path>
                                    <path d="M232.518,113.639 L234.99,96.712"></path>
                                    <path d="M258.842,254.704 C232.409,280.945 230.18,367.653 230.167,371.198"></path>
                                    <path d="M317.347,328.718 C314.192,303.507 303.839,268.998 290.027,254.704"></path>
                                    <path d="M338.222,254.704 C329.46,263.411 316.747,289.576 312.707,305.734"></path>
                                    <path d="M374.111,261.679 C373.181,260.56 370.408,255.669 369.407,254.704"></path>
                                    <path d="M245.88,227.426 C245.88,210.845 259.322,197.403 275.903,197.403 C292.484,197.403 305.926,210.845 305.926,227.426 C305.926,244.007 292.484,257.449 275.903,257.449 C259.322,257.449 245.88,244.007 245.88,227.426 Z"></path>
                                    <path d="M324.221,227.462 C324.221,210.881 337.663,197.439 354.244,197.439 C370.826,197.439 384.267,210.881 384.267,227.462 C384.267,244.043 370.826,257.485 354.244,257.485 C337.663,257.485 324.221,244.043 324.221,227.462 Z"></path>
                                    <path d="M32.042,232.024 C18.804,243.136 6.768,267.553 0.081,289.967"></path>
                                    <path d="M123.296,370.438 C118.86,325.809 105.392,259.195 77.402,234.859"></path>
                                    <path d="M51.439,143.043 C52.845,142.918 54.267,142.853 55.705,142.853 C81.824,142.853 102.998,164.027 102.998,190.146 C102.998,216.265 81.824,237.439 55.705,237.439 C29.586,237.439 8.413,216.265 8.413,190.146 C8.413,165.465 27.32,145.2 51.439,143.043"></path>
                                    <path d="M232.656,318.51 L115.988,318.51"></path>
                                    <path d="M51.55,142.23 C50.932,72.732 51.237,8.462 54.408,5.291 C61.426,-1.726 285.978,-1.726 292.995,5.291 C297.008,9.303 295.232,111.107 292.975,197.572"></path>
                                </g>
                            </g>
                        </g>
                    </g>
                </g>
            </g>
        </g>
    </g>
</svg>