<?xml version="1.0" encoding="UTF-8"?>
<svg width="597px" height="597px" viewBox="0 0 597 597" version="1.1" xmlns="http://www.w3.org/2000/svg" xmlns:xlink="http://www.w3.org/1999/xlink">
    <!-- Generator: Sketch 47.1 (45422) - http://www.bohemiancoding.com/sketch -->
    <title>vf_web_font</title>
    <desc>Created with Sketch.</desc>
    <defs></defs>
    <g id="web" stroke="none" stroke-width="1" fill="none" fill-rule="evenodd">
        <g id="vf_web" transform="translate(-2.000000, -2.000000)">
            <g id="vf_web_font" transform="translate(2.000000, 2.000000)">
                <g id="font" transform="translate(42.000000, 410.000000)" fill="#F5EED6">
                    <path d="M50.208,38.771 L4.055,46.431 L0.2549,40.21 L28.143,2.646 L31.521,8.176 C31.886,8.773 32.038,9.349 31.977,9.901 C31.916,10.454 31.713,10.965 31.366,11.434 L14.118,33.957 C13.561,34.695 12.924,35.465 12.207,36.267 C11.489,37.068 10.726,37.88 9.916,38.703 C10.997,38.324 12.05,37.986 13.075,37.688 C14.1,37.39 15.068,37.162 15.979,37.003 L43.861,31.89 C44.337,31.787 44.859,31.837 45.429,32.04 C45.998,32.243 46.46,32.635 46.814,33.215 L50.208,38.771 Z" id="Shape"></path>
                    <polygon id="Shape" points="21.326 71.095 16.437 64.637 51.024 38.453 55.913 44.912"></polygon>
                    <path d="M69.086,72.208 C68.613,72.311 68.216,72.325 67.894,72.252 C67.572,72.178 67.278,71.993 67.01,71.695 C66.729,71.383 66.54,70.941 66.443,70.37 C66.346,69.798 66.211,69.132 66.038,68.373 C65.866,67.613 65.591,66.791 65.212,65.907 C64.834,65.024 64.23,64.121 63.401,63.199 C62.652,62.366 61.896,61.728 61.133,61.284 C60.371,60.841 59.62,60.567 58.882,60.465 C58.144,60.362 57.432,60.431 56.747,60.671 C56.062,60.911 55.422,61.298 54.827,61.833 C54.069,62.516 53.628,63.296 53.503,64.175 C53.379,65.053 53.453,66.003 53.725,67.022 C53.997,68.042 54.393,69.125 54.913,70.271 C55.433,71.418 55.955,72.603 56.478,73.827 C57.001,75.051 57.452,76.3 57.831,77.573 C58.21,78.847 58.391,80.124 58.373,81.404 C58.355,82.685 58.068,83.959 57.513,85.225 C56.958,86.492 56.011,87.727 54.673,88.931 C53.216,90.242 51.628,91.22 49.908,91.866 C48.189,92.512 46.426,92.78 44.619,92.671 C42.812,92.561 41.015,92.059 39.228,91.165 C37.442,90.271 35.746,88.931 34.14,87.147 C33.217,86.122 32.408,85.02 31.712,83.844 C31.017,82.667 30.443,81.454 29.992,80.205 C29.541,78.957 29.215,77.697 29.013,76.426 C28.811,75.154 28.748,73.919 28.826,72.719 L33.288,71.893 C33.63,71.854 33.978,71.89 34.333,72.001 C34.689,72.112 34.987,72.301 35.228,72.568 C35.562,72.94 35.771,73.479 35.854,74.184 C35.937,74.889 36.061,75.707 36.224,76.636 C36.387,77.565 36.675,78.564 37.086,79.634 C37.496,80.704 38.204,81.796 39.207,82.911 C40.745,84.621 42.341,85.579 43.994,85.787 C45.647,85.995 47.232,85.416 48.749,84.051 C49.596,83.289 50.097,82.455 50.251,81.55 C50.405,80.644 50.349,79.678 50.085,78.652 C49.82,77.625 49.413,76.552 48.863,75.433 C48.313,74.314 47.772,73.159 47.24,71.97 C46.708,70.78 46.249,69.552 45.862,68.286 C45.476,67.019 45.303,65.736 45.343,64.435 C45.383,63.134 45.715,61.82 46.337,60.494 C46.959,59.167 48.006,57.841 49.478,56.517 C50.653,55.46 52.008,54.664 53.545,54.129 C55.081,53.594 56.682,53.385 58.347,53.501 C60.012,53.617 61.693,54.095 63.391,54.935 C65.088,55.775 66.699,57.043 68.225,58.738 C69.937,60.641 71.218,62.662 72.068,64.803 C72.918,66.944 73.317,69.061 73.263,71.154 L69.086,72.208 Z" id="Shape"></path>
                    <path d="M66.979,109.53 C68.162,110.548 69.389,111.261 70.66,111.669 C71.932,112.077 73.192,112.199 74.442,112.034 C75.692,111.87 76.924,111.426 78.14,110.704 C79.355,109.982 80.504,108.991 81.586,107.733 L98.532,88.04 L104.649,93.304 L87.703,112.997 C86.021,114.953 84.15,116.49 82.093,117.608 C80.035,118.727 77.9,119.383 75.688,119.578 C73.476,119.772 71.239,119.482 68.975,118.709 C66.712,117.935 64.527,116.642 62.42,114.829 C60.297,113.002 58.685,111.028 57.583,108.905 C56.481,106.783 55.861,104.613 55.723,102.397 C55.585,100.181 55.916,97.972 56.715,95.771 C57.514,93.569 58.755,91.491 60.438,89.535 L77.384,69.842 L83.501,75.106 L66.575,94.776 C65.492,96.034 64.684,97.318 64.151,98.627 C63.618,99.937 63.364,101.228 63.389,102.503 C63.414,103.778 63.722,105.013 64.316,106.209 C64.909,107.406 65.797,108.513 66.979,109.53 Z" id="Shape"></path>
                    <path d="M115.322,131.904 L118.372,116.844 C118.485,116.163 118.653,115.374 118.874,114.477 C119.096,113.581 119.355,112.625 119.65,111.609 C118.894,112.342 118.165,113.015 117.46,113.627 C116.756,114.239 116.121,114.758 115.554,115.185 L103.562,124.685 L115.322,131.904 Z M118.897,153.319 L113.579,150.054 C112.983,149.688 112.588,149.241 112.397,148.712 C112.205,148.184 112.151,147.641 112.236,147.082 L114.104,137.845 L98.79,128.444 L91.399,134.291 C91.022,134.599 90.538,134.795 89.947,134.878 C89.356,134.961 88.771,134.825 88.191,134.469 L82.822,131.173 L120.065,103.134 L127.07,107.435 L118.897,153.319 Z" id="Shape"></path>
                    <polygon id="Shape" points="149.083 159.425 146.301 165.476 123.214 154.861 141.335 115.447 148.667 118.818 133.328 152.181"></polygon>
                    <polygon id="Shape" points="181.861 138.307 178.306 150.645 193.93 155.146 192.145 161.344 176.52 156.843 171.628 173.822 163.845 171.58 175.855 129.895 202.145 137.47 200.368 143.639"></polygon>
                    <path d="M227.875,168.347 L224.465,153.365 C224.288,152.697 224.116,151.909 223.95,151 C223.784,150.092 223.626,149.114 223.478,148.067 C223.09,149.046 222.702,149.959 222.311,150.806 C221.921,151.654 221.555,152.388 221.213,153.01 L214.186,166.599 L227.875,168.347 Z M239.935,186.4 L233.746,185.61 C233.051,185.521 232.508,185.275 232.116,184.872 C231.724,184.469 231.452,183.996 231.299,183.452 L229.206,174.263 L211.381,171.988 L207.046,180.356 C206.829,180.792 206.468,181.169 205.964,181.488 C205.46,181.807 204.87,181.923 204.196,181.837 L197.946,181.039 L220.373,140.17 L228.526,141.211 L239.935,186.4 Z" id="Shape"></path>
                    <path d="M277.736,175.414 C278.176,175.404 278.569,175.565 278.917,175.898 L282.174,179.275 C280.463,181.494 278.336,183.212 275.793,184.43 C273.25,185.647 270.179,186.297 266.579,186.377 C263.36,186.45 260.454,185.965 257.86,184.923 C255.266,183.881 253.037,182.401 251.173,180.482 C249.309,178.564 247.862,176.256 246.831,173.558 C245.8,170.86 245.249,167.902 245.177,164.683 C245.103,161.424 245.556,158.428 246.535,155.695 C247.514,152.962 248.926,150.595 250.771,148.593 C252.617,146.591 254.837,145.016 257.432,143.867 C260.027,142.719 262.914,142.109 266.093,142.037 C269.252,141.966 272.068,142.423 274.541,143.408 C277.014,144.392 279.129,145.705 280.886,147.346 L278.271,151.156 C278.116,151.399 277.916,151.614 277.67,151.799 C277.424,151.985 277.081,152.083 276.642,152.093 C276.342,152.099 276.03,152.021 275.706,151.859 C275.382,151.696 275.028,151.494 274.642,151.252 C274.257,151.011 273.811,150.746 273.304,150.457 C272.797,150.169 272.211,149.907 271.546,149.672 C270.88,149.436 270.111,149.244 269.237,149.093 C268.364,148.943 267.357,148.88 266.217,148.906 C264.278,148.95 262.511,149.335 260.917,150.061 C259.323,150.787 257.961,151.817 256.83,153.153 C255.7,154.489 254.836,156.109 254.239,158.013 C253.642,159.917 253.37,162.078 253.424,164.498 C253.479,166.937 253.873,169.099 254.605,170.983 C255.338,172.867 256.309,174.445 257.518,175.718 C258.727,176.992 260.139,177.955 261.754,178.609 C263.369,179.263 265.096,179.569 266.936,179.528 C268.035,179.503 269.029,179.421 269.916,179.281 C270.803,179.141 271.618,178.932 272.362,178.656 C273.106,178.379 273.809,178.028 274.469,177.603 C275.13,177.178 275.783,176.658 276.43,176.043 C276.626,175.859 276.832,175.709 277.05,175.594 C277.267,175.479 277.496,175.419 277.736,175.414 Z" id="Shape"></path>
                    <polygon id="Shape" points="295.86 183.482 287.816 184.437 282.701 141.36 290.744 140.405"></polygon>
                    <polygon id="Shape" points="329.049 170.627 330.377 177.153 305.476 182.217 296.831 139.707 304.739 138.099 312.057 174.083"></polygon>
                    <polygon id="Shape" points="343.65 173.08 335.873 175.345 323.741 133.696 331.518 131.431"></polygon>
                    <polygon id="Shape" points="368.011 125.079 355.804 129.777 369.002 164.075 361.47 166.973 348.272 132.675 336.065 137.372 333.684 131.185 365.63 118.892"></polygon>
                    <path d="M402.737,128.814 L391.028,118.864 C390.486,118.436 389.876,117.908 389.199,117.28 C388.521,116.653 387.809,115.964 387.062,115.215 C387.339,116.231 387.575,117.195 387.771,118.107 C387.966,119.019 388.113,119.827 388.213,120.529 L390.732,135.619 L402.737,128.814 Z M423.212,136.036 L417.783,139.113 C417.174,139.459 416.592,139.588 416.037,139.5 C415.481,139.412 414.98,139.197 414.532,138.853 L407.349,132.752 L391.716,141.614 L393.262,150.91 C393.349,151.389 393.287,151.908 393.074,152.465 C392.861,153.023 392.459,153.469 391.868,153.804 L386.387,156.911 L379.844,110.755 L386.995,106.701 L423.212,136.036 Z" id="Shape"></path>
                    <polygon id="Shape" points="434.411 79.888 424.274 88.154 447.498 116.635 441.244 121.735 418.02 93.254 407.883 101.519 403.693 96.381 430.222 74.75"></polygon>
                    <polygon id="Shape" points="467.298 98.465 461.505 104.127 431.186 73.102 436.979 67.44"></polygon>
                    <path d="M483.917,46.132 C486.377,48.147 488.323,50.419 489.754,52.948 C491.185,55.478 492.058,58.113 492.374,60.853 C492.689,63.593 492.42,66.359 491.568,69.151 C490.716,71.943 489.245,74.615 487.154,77.168 C485.075,79.706 482.751,81.667 480.182,83.053 C477.612,84.438 474.95,85.25 472.195,85.489 C469.441,85.727 466.679,85.398 463.911,84.501 C461.143,83.604 458.529,82.148 456.069,80.133 C453.608,78.118 451.666,75.842 450.241,73.305 C448.816,70.767 447.949,68.125 447.64,65.377 C447.331,62.63 447.603,59.86 448.455,57.068 C449.307,54.275 450.772,51.611 452.851,49.073 C454.245,47.371 455.754,45.931 457.377,44.754 C459.001,43.576 460.686,42.655 462.432,41.991 C464.178,41.327 465.974,40.917 467.821,40.762 C469.667,40.607 471.51,40.701 473.349,41.044 C475.188,41.386 476.999,41.984 478.782,42.837 C480.565,43.69 482.277,44.788 483.917,46.132 Z M478.689,52.514 C476.848,51.006 474.994,49.901 473.126,49.198 C471.258,48.496 469.44,48.183 467.671,48.26 C465.902,48.336 464.212,48.806 462.599,49.67 C460.987,50.534 459.509,51.786 458.166,53.426 C456.822,55.066 455.886,56.762 455.357,58.513 C454.827,60.264 454.696,62.018 454.964,63.775 C455.231,65.532 455.893,67.257 456.949,68.949 C458.006,70.642 459.455,72.242 461.296,73.75 C463.137,75.258 464.992,76.364 466.859,77.066 C468.727,77.769 470.545,78.075 472.312,77.984 C474.08,77.893 475.77,77.416 477.382,76.552 C478.994,75.688 480.472,74.436 481.816,72.796 C483.159,71.156 484.095,69.461 484.624,67.71 C485.154,65.959 485.286,64.212 485.02,62.469 C484.754,60.726 484.093,59.008 483.036,57.315 C481.979,55.623 480.531,54.022 478.689,52.514 Z" id="Shape"></path>
                    <path d="M485.486,0.372 L522.969,22.209 L520.885,25.787 C520.563,26.34 520.203,26.749 519.805,27.015 C519.407,27.281 518.891,27.461 518.258,27.554 L481.867,32.567 C483.068,33.128 484.153,33.69 485.12,34.254 L508.139,47.664 L504.56,53.808 L467.077,31.97 L469.206,28.315 C469.378,28.021 469.539,27.774 469.691,27.573 C469.842,27.372 470.005,27.212 470.178,27.094 C470.352,26.975 470.557,26.88 470.795,26.81 C471.032,26.74 471.327,26.681 471.68,26.632 L508.22,21.602 C507.585,21.301 506.963,20.997 506.355,20.69 C505.748,20.382 505.193,20.082 504.692,19.79 L481.907,6.515 L485.486,0.372 Z" id="Shape"></path>
                </g>
                <g id="outline" stroke="#547A97" stroke-width="0.109287">
                    <path d="M0.7,298.375 C0.7,133.974 133.974,0.7 298.375,0.7 C462.776,0.7 596.05,133.974 596.05,298.375 C596.05,462.776 462.776,596.05 298.375,596.05 C133.974,596.05 0.7,462.776 0.7,298.375 Z" id="Shape"></path>
                </g>
            </g>
        </g>
    </g>
</svg>