<?xml version="1.0" encoding="UTF-8"?>
<svg width="300px" height="137px" viewBox="0 0 300 137" version="1.1" xmlns="http://www.w3.org/2000/svg" xmlns:xlink="http://www.w3.org/1999/xlink">
    <!-- Generator: Sketch 40.3 (33839) - http://www.bohemiancoding.com/sketch -->
    <title>logo</title>
    <desc>Created with Sketch.</desc>
    <defs></defs>
    <g id="kunden" stroke="none" stroke-width="1" fill="none" fill-rule="evenodd">
        <g id="logo_ewb" transform="translate(-50.000000, -82.000000)">
            <g id="logo" transform="translate(50.000000, 82.000000)">
                <path d="M167.175389,61.811986 C162.96156,70.162649 153.642653,82.7482911 143.21622,82.7482911 C135.4469,82.7482911 132.010241,76.1775123 132.673331,69.6067335 C130.788635,74.9511578 124.022267,82.7482911 114.144844,82.7482911 C103.716034,82.7482911 100.833138,74.7316546 100.833138,65.5960293 C100.833138,56.0166259 104.162847,46.8881583 104.162847,37.4161205 C104.162847,35.6362363 103.944194,33.9637178 103.497381,32.2959711 L103.944194,30.8477276 L115.254747,28.7290451 L116.47873,29.0654575 C116.923166,30.9598651 117.248769,32.7421351 117.248769,34.6341568 C117.248769,45.1035023 113.149021,55.2388213 113.149021,65.7081668 C113.149021,68.2706274 113.481754,74.1709673 117.144196,74.1709673 C128.015066,74.1709673 132.564004,45.6641897 132.564004,37.6403955 C132.564004,35.3045957 132.233647,32.9640242 131.675131,30.6234526 L143.87931,28.7290451 L145.100916,29.0654575 C145.542976,30.8477276 145.875709,32.5154743 145.875709,34.3001303 C145.875709,45.1035023 140.663681,55.4630962 140.663681,66.1567167 C140.663681,68.6070398 141.326771,74.1709673 144.768183,74.1709673 C155.301566,74.1709673 161.297894,44.6597242 161.297894,36.1921519 C161.297894,34.3001303 161.186191,32.5154743 160.741754,30.6234526 L172.05706,28.7290451 L173.27629,29.0654575 C173.723103,31.2915057 173.94651,33.5199397 173.94651,35.8605113 C173.94651,44.3256977 170.949534,54.2367417 167.175389,61.811986" id="path2470" fill="#F47920"></path>
                <path d="M211.44079,36.4474436 C205.560919,36.4474436 197.572945,40.3460103 196.020982,51.7100697 C196.020982,51.7100697 194.687672,59.8388436 193.798799,66.519374 L193.133333,71.6395234 C195.462465,74.0946183 198.243164,76.432804 201.786773,76.432804 C214.100279,76.432804 218.318861,56.8278331 218.318861,47.4774765 C218.318861,42.4623069 217.765098,36.4474436 211.44079,36.4474436 L211.44079,36.4474436 Z M201.900853,82.8938312 C193.133333,82.8938312 186.699698,80.4411222 179.933331,74.9869463 L179.714678,74.0946183 C182.709276,59.3926796 184.926706,44.3543285 187.476868,29.5402523 C188.696098,22.8597219 190.027031,15.5111385 190.027031,8.71608471 C190.027031,7.37759273 189.806001,6.04387255 189.473267,4.70538057 L189.915327,3.36927448 L201.458793,1.25297789 C201.56812,1.25297789 202.563943,1.47486693 202.787349,1.47486693 C203.341113,2.92549639 203.564519,4.149465 203.564519,5.70984603 C203.564519,10.3862173 202.454616,16.4010806 201.56812,21.5236159 C200.67687,26.3121246 200.016157,30.9932677 199.122531,35.8939139 C204.560342,32.2148504 210.772947,28.5405587 217.539314,28.5405587 C227.970501,28.5405587 231.297833,38.5637402 231.297833,47.4774765 C231.297833,64.8468555 220.980726,82.8938312 201.900853,82.8938312 L201.900853,82.8938312 Z" id="path2480" fill="#F47920"></path>
                <path d="M75.2435773,34.6866467 C78.9701893,34.6866467 81.3801285,37.105953 81.3801285,40.8446642 C81.3801285,50.4169099 68.2347897,52.1753209 61.0002189,52.7264647 C62.5355451,46.0149175 66.9181169,34.6866467 75.2435773,34.6866467 L75.2435773,34.6866467 Z M93.7245309,106.077658 C57.4233368,86.9594112 60.3204925,60.2826217 60.4678458,59.1039853 C72.1158851,59.0896699 93.8718841,57.178561 93.8718841,41.1739189 C93.8718841,31.3869418 84.8880873,28.087237 76.5578735,28.087237 C61.4351488,28.087237 51.263019,39.9189335 48.50371,53.6975275 C47.9570768,54.0243963 37.891897,54.5898555 31.2609993,54.9310397 L29.8587665,58.9202707 L30.9377728,59.6503572 C41.3594525,59.7219344 47.9166735,59.4547131 47.9166735,59.4547131 C47.9024135,59.7410216 47.8929068,59.9724542 47.8881535,60.1680984 L47.9024135,60.1680984 C49.0527198,115.606957 107.506816,130.437735 107.506816,130.437735 C207.683281,161.506973 299.337022,66.445411 299.337022,66.445411 C176.387345,149.357951 93.7245309,106.077658 93.7245309,106.077658 L93.7245309,106.077658 Z" id="path2482" fill="#F47920"></path>
                <path d="M3.40885236,13.0488859 L7.70111086,13.0488859 C7.91976412,13.0488859 8.04097407,13.0679731 8.04097407,13.2087414 C8.04097407,13.2898621 8.00057075,13.4711908 7.98155743,13.5713988 L7.70111086,14.8717163 C7.64169421,15.1341657 7.58227757,15.1532529 7.34223432,15.1532529 L0.713713296,15.1532529 C0.454656719,15.1532529 0.4142534,15.053045 0.4142534,14.9337498 C0.4142534,14.8717163 0.433266727,14.7118608 0.454656719,14.6331259 L3.1901991,1.70629959 C3.24961574,1.44623609 3.30903239,1.42476296 3.54907564,1.42476296 L10.2156233,1.42476296 C10.5364732,1.42476296 10.5554865,1.48441055 10.5554865,1.646652 C10.5554865,1.70629959 10.4770566,1.84468201 10.4366532,1.94488997 L9.75692681,3.26906653 C9.61670352,3.5100428 9.55728688,3.52913003 9.33863362,3.52913003 L5.40525166,3.52913003 L4.68749858,6.91711331 L8.08137739,6.91711331 C8.28101732,6.91711331 8.3594473,7.01732127 8.3594473,7.13661645 C8.3594473,7.23682441 8.34043397,7.31794514 8.32142064,7.41815309 L8.04097407,8.73994375 C7.98155743,9.00000725 7.94115411,9.02148039 7.68209753,9.02148039 L4.2478154,9.02148039 L3.40885236,13.0488859" id="path2484" fill="#231F20"></path>
                <path d="M17.6831074,14.9122767 C17.6427041,15.1341657 17.6023007,15.1532529 17.4026608,15.1532529 L15.5464848,15.1532529 C15.3872482,15.1532529 15.2874282,15.1126926 15.2874282,14.952837 C15.2874282,14.8931894 15.3064415,14.8120687 15.3064415,14.7333339 L16.6254911,9.02148039 C16.725311,8.62064856 16.803741,8.21981674 16.803741,7.79751178 C16.803741,7.33703236 16.6254911,7.01732127 16.2048212,7.01732127 C14.3676585,7.01732127 13.7093221,9.50104704 13.3908489,10.9445188 L12.5328725,14.9122767 C12.4924692,15.1341657 12.4520659,15.1532529 12.2524259,15.1532529 L10.3962499,15.1532529 C10.2370133,15.1532529 10.1371933,15.1126926 10.1371933,14.952837 C10.1371933,14.8931894 10.1562067,14.8120687 10.1562067,14.7333339 L11.5132829,8.69938339 C11.6344928,8.19834361 11.7533261,7.69730383 11.7533261,7.05549573 C11.7533261,6.45663389 11.5726995,6.17509725 11.5726995,5.81482579 C11.5726995,5.67405747 11.7129228,5.63349711 11.8127428,5.59293675 L13.4098622,4.97260178 C13.4716555,4.95112865 13.5096822,4.91295419 13.6095021,4.91295419 C13.8305321,4.91295419 14.008782,5.81482579 14.008782,6.93620054 C14.5482851,6.29439244 15.6867081,4.91295419 17.3242308,4.91295419 C18.6218904,4.91295419 19.3396435,5.91503375 19.3396435,7.01732127 C19.3396435,7.53744828 19.2588368,8.07904842 19.1400035,8.5800882 L17.6831074,14.9122767" id="path2486" fill="#231F20"></path>
                <path d="M23.7317219,9.5416074 C24.5896983,9.5416074 27.265824,9.5416074 27.265824,7.69730383 C27.265824,7.17717682 26.9449741,6.7166974 26.3460544,6.7166974 C24.470865,6.7166974 23.9123485,8.79959134 23.7317219,9.5416074 L23.7317219,9.5416074 Z M28.3638437,14.0724386 C28.382857,14.1320861 28.4232603,14.1917337 28.4232603,14.2513813 C28.4232603,14.5114448 26.5670843,15.4944372 24.5302817,15.4944372 C22.1346025,15.4944372 21.0579729,13.9913178 21.0579729,11.7676556 C21.0579729,7.75695142 23.631902,4.91295419 26.7073076,4.91295419 C28.5824969,4.91295419 29.6615032,5.95559411 29.6615032,7.55653551 C29.6615032,11.3453506 24.5896983,11.3453506 23.453652,11.3453506 C23.453652,11.9465983 23.2920388,13.490278 25.1696048,13.490278 C26.3460544,13.490278 27.4060473,12.6886144 27.7055072,12.6886144 C27.8053272,12.6886144 27.8243405,12.748262 27.8647438,12.8293827 L28.3638437,14.0724386 L28.3638437,14.0724386 Z" id="path2488" fill="#231F20"></path>
                <path d="M32.8961454,14.9122767 C32.8367288,15.1341657 32.8153388,15.1532529 32.6156988,15.1532529 L30.7595228,15.1532529 C30.6002862,15.1532529 30.5004662,15.1126926 30.5004662,14.952837 C30.4790762,14.8931894 30.5004662,14.8120687 30.5194796,14.7333339 L31.8765558,8.69938339 C31.9763757,8.19834361 32.116599,7.69730383 32.116599,7.05549573 C32.116599,6.45663389 31.9359724,6.17509725 31.9359724,5.81482579 C31.9359724,5.67405747 32.0761957,5.63349711 32.1760157,5.59293675 L33.7731351,4.97260178 C33.8349284,4.95112865 33.8729551,4.91295419 33.972775,4.91295419 C34.193805,4.91295419 34.3720549,5.81482579 34.3720549,6.93620054 C34.911558,6.3349528 35.9311477,4.91295419 37.4664738,4.91295419 C37.7659337,4.91295419 38.1462002,4.99168901 38.1462002,5.17301769 C38.1462002,5.23266529 38.1271869,5.27322565 38.1057969,5.33287324 L37.2668339,7.35611959 C37.2478206,7.39667996 37.1884039,7.45632755 37.1480006,7.45632755 C37.0077773,7.45632755 36.789124,7.31794514 36.4682742,7.31794514 C34.9305714,7.31794514 34.0345683,9.60125499 33.7541218,10.9445188 L32.8961454,14.9122767" id="path2490" fill="#231F20"></path>
                <path d="M44.1591648,7.43724032 C43.8977316,7.19626405 43.4010084,6.7166974 42.6024487,6.7166974 C40.9649259,6.7166974 40.0451562,9.92335199 40.0451562,11.9656856 C40.0451562,12.9081175 40.3660061,13.3495097 41.0647459,13.3495097 C42.3624054,13.3495097 43.1395752,12.228135 43.4604251,10.7035425 L44.1591648,7.43724032 L44.1591648,7.43724032 Z M45.6968676,11.5052062 C44.9981279,14.8335418 45.4354344,19.4025475 40.3660061,19.4025475 C38.70947,19.4025475 36.7510974,18.7822125 36.7510974,18.3789948 C36.7510974,18.3002599 36.7915007,18.2406123 36.810514,18.1785789 L37.4308238,16.7160199 C37.4712271,16.6158119 37.5306438,16.5776375 37.6114504,16.5776375 C37.9299236,16.5776375 38.9471366,17.3983883 40.5442561,17.3983883 C43.0397552,17.3983883 42.6024487,15.1938133 43.1609652,13.5093653 L43.1205618,13.4711908 C42.8020886,13.8911099 41.8015123,15.1532529 40.1663662,15.1532529 C38.4100101,15.1532529 37.6494771,13.7503416 37.6494771,11.906038 C37.6494771,8.76141688 39.4866398,4.91295419 42.4028088,4.91295419 C43.7598849,4.91295419 44.2970114,5.61440988 44.7580846,6.09397653 C44.9363345,5.83391302 45.5352543,4.91295419 45.8561042,4.91295419 C45.9345342,4.91295419 46.0557441,4.99168901 46.1341741,5.03224937 L47.3534037,5.6931447 C47.4532237,5.7551782 47.493627,5.81482579 47.493627,5.89356062 C47.493627,6.09397653 46.5928706,7.17717682 46.3148007,8.53952784 L45.6968676,11.5052062 L45.6968676,11.5052062 Z" id="path2492" fill="#231F20"></path>
                <path d="M52.344402,3.95143499 C51.4460223,3.95143499 50.7068792,3.22850617 50.7068792,2.2860742 C50.7068792,1.28399464 51.5458422,0.644572441 52.344402,0.644572441 C53.161975,0.644572441 54.000938,1.30546777 54.000938,2.2860742 C54.000938,3.22850617 53.2427816,3.95143499 52.344402,3.95143499 L52.344402,3.95143499 Z M50.9849491,14.9122767 C50.9469224,15.1341657 50.9065191,15.1532529 50.7068792,15.1532529 L48.8507032,15.1532529 C48.6890899,15.1532529 48.5916466,15.1126926 48.5916466,14.952837 C48.5916466,14.8931894 48.5916466,14.8120687 48.6106599,14.7333339 L50.2267927,7.05549573 L48.7104799,7.05549573 C48.5298533,7.05549573 48.4514233,6.99584813 48.4514233,6.85746572 C48.4514233,6.77634499 48.4704366,6.69522427 48.4918266,6.61648944 L48.7104799,5.49272879 C48.7508832,5.27322565 48.8102999,5.25175252 49.0099398,5.25175252 L52.7222918,5.25175252 C52.8839051,5.25175252 52.9623351,5.31378601 52.9623351,5.4330812 C52.9623351,5.51420193 52.9623351,5.63349711 52.9433217,5.6931447 L50.9849491,14.9122767 L50.9849491,14.9122767 Z" id="path2494" fill="#231F20"></path>
                <path d="M57.1357603,9.5416074 C57.9937367,9.5416074 60.6698624,9.5416074 60.6698624,7.69730383 C60.6698624,7.17717682 60.3490125,6.7166974 59.7500927,6.7166974 C57.8725267,6.7166974 57.3140102,8.79959134 57.1357603,9.5416074 L57.1357603,9.5416074 Z M61.7655053,14.0724386 C61.7868953,14.1320861 61.8272986,14.1917337 61.8272986,14.2513813 C61.8272986,14.5114448 59.968746,15.4944372 57.93432,15.4944372 C55.5386408,15.4944372 54.4596346,13.9913178 54.4596346,11.7676556 C54.4596346,7.75695142 57.0359403,4.91295419 60.1089692,4.91295419 C61.9865353,4.91295419 63.0631649,5.95559411 63.0631649,7.55653551 C63.0631649,11.3453506 57.9937367,11.3453506 56.8553137,11.3453506 C56.8553137,11.9465983 56.6960771,13.490278 58.5736431,13.490278 C59.7500927,13.490278 60.807709,12.6886144 61.1071689,12.6886144 C61.2069889,12.6886144 61.2283789,12.748262 61.2664055,12.8293827 L61.7655053,14.0724386 L61.7655053,14.0724386 Z" id="path2496" fill="#231F20"></path>
                <path d="M80.6314788,15.1126926 C80.5316588,15.3345816 80.5126455,15.3345816 80.2726022,15.3345816 L78.6754828,15.3345816 C78.3570095,15.3345816 78.3166062,15.2343737 78.3356196,14.9933974 L78.4568295,7.83807215 C78.4758428,7.21773718 78.6564694,5.47364156 78.7348994,4.71253828 L78.6944961,4.67197791 C78.4354395,5.57384952 77.998133,6.87655295 77.5584498,7.85715937 L74.2834043,15.1126926 C74.1835843,15.3131085 74.1835843,15.3345816 73.9245278,15.3345816 L72.3274083,15.3345816 C72.0279484,15.3345816 71.9875451,15.2534609 71.9875451,14.9933974 L72.187185,1.86615514 C72.187185,1.72538682 72.308395,1.66573923 72.4866449,1.62517887 L74.243001,1.26490741 C74.3024176,1.26490741 74.4046143,1.24582018 74.4640309,1.24582018 C74.5638509,1.24582018 74.6826842,1.30546777 74.6826842,1.60609164 L74.2025977,8.8997993 C74.164571,9.62272812 74.0243477,11.1043743 73.9031378,11.8869508 L73.9435411,11.9275111 C74.2025977,11.1664078 74.6826842,9.82314404 75.103354,8.88071207 L78.2762029,1.646652 C78.3570095,1.44623609 78.3974129,1.42476296 78.6350795,1.42476296 L80.1537689,1.42476296 C80.4318388,1.42476296 80.4722421,1.48441055 80.4722421,1.76594719 L80.4722421,8.72085652 C80.4722421,9.74202331 80.3534089,10.8848712 80.2535889,11.8869508 L80.2939922,11.9275111 C80.5316588,10.9445188 80.8311187,9.88279163 81.2898152,8.72085652 L84.1061642,1.46532332 C84.1655809,1.28399464 84.3058041,1.24582018 84.3652208,1.24582018 C84.4246374,1.24582018 84.5648607,1.26490741 84.6646807,1.28399464 L86.2618001,1.646652 C86.4804534,1.70629959 86.5422467,1.80650755 86.5422467,1.86615514 C86.5422467,1.94488997 86.5018434,2.04509792 86.4614401,2.12621865 L80.6314788,15.1126926" id="path2498" fill="#231F20"></path>
                <path d="M91.8540948,7.43724032 C91.5546349,7.19626405 91.0935618,6.7166974 90.3758087,6.7166974 C88.6788693,6.7166974 87.8018796,10.2025027 87.8018796,12.2877826 C87.8018796,13.0679731 88.1013395,13.490278 88.638466,13.490278 C90.1167521,13.490278 90.8749085,11.9656856 91.1553551,10.7035425 L91.8540948,7.43724032 L91.8540948,7.43724032 Z M91.454815,15.4347896 C91.3930217,15.4538768 91.3145917,15.4944372 91.2147717,15.4944372 C90.9961185,15.4944372 90.8345052,14.6927735 90.8345052,13.690694 C90.3971987,14.1917337 89.3585957,15.4944372 87.621253,15.4944372 C86.1643568,15.4944372 85.4062004,14.2919417 85.4062004,12.1875746 C85.4062004,8.21981674 87.6022397,4.91295419 90.1357654,4.91295419 C91.433425,4.91295419 92.0323448,5.65497024 92.3531947,5.99376857 L92.5718479,5.45216843 C92.6312646,5.29231288 92.7120712,5.25175252 92.8522945,5.25175252 L94.4280239,5.25175252 C94.5872606,5.25175252 94.6490539,5.35196047 94.6490539,5.45216843 C94.6490539,5.53328916 94.6276639,5.61440988 94.6086505,5.6931447 L93.289601,11.9656856 C93.189781,12.4070778 93.1303644,13.0894462 93.1303644,13.3900701 C93.1517544,13.8720226 93.289601,14.3515893 93.289601,14.5925656 C93.289601,14.7333339 93.1517544,14.7715083 93.0519344,14.8120687 L91.454815,15.4347896 L91.454815,15.4347896 Z" id="path2500" fill="#231F20"></path>
                <path d="M102.373218,7.15570368 C102.313801,7.27738477 102.254385,7.296472 102.213981,7.296472 C101.836091,7.296472 101.175378,6.7166974 100.257985,6.7166974 C99.178979,6.7166974 98.7012691,7.27738477 98.7012691,7.95736733 C98.7012691,8.9618328 100.017942,9.14077557 100.897308,9.64181535 C101.874118,10.2025027 102.354205,10.6438949 102.354205,11.9465983 C102.354205,14.0509654 100.937712,15.4944372 98.4018092,15.4944372 C96.8831198,15.4944372 95.1481537,14.8335418 95.1481537,14.5710924 C95.1481537,14.4923576 95.167167,14.43271 95.188557,14.3515893 L95.6068502,13.1085335 C95.6472535,13.0083255 95.6852802,12.9677651 95.7470735,12.9677651 C96.0061301,12.9677651 96.9829397,13.690694 98.2805993,13.690694 C99.4594255,13.690694 100.058345,13.2087414 100.058345,12.3474302 C100.058345,11.4670317 99.1599656,11.385911 98.1213627,10.8037505 C97.0637464,10.2239759 96.4054099,9.84223127 96.4054099,8.46079302 C96.4054099,6.3349528 97.9431127,4.91295419 100.217582,4.91295419 C101.256185,4.91295419 102.834291,5.31378601 102.834291,5.83391302 C102.834291,5.89356062 102.812901,5.93412098 102.793888,5.99376857 L102.373218,7.15570368" id="path2502" fill="#231F20"></path>
                <path d="M110.539442,7.15570368 C110.480025,7.27738477 110.420608,7.296472 110.380205,7.296472 C109.999939,7.296472 109.341602,6.7166974 108.424209,6.7166974 C107.345203,6.7166974 106.865116,7.27738477 106.865116,7.95736733 C106.865116,8.9618328 108.184166,9.14077557 109.061156,9.64181535 C110.040342,10.2025027 110.520428,10.6438949 110.520428,11.9465983 C110.520428,14.0509654 109.101559,15.4944372 106.565656,15.4944372 C105.049344,15.4944372 103.312001,14.8335418 103.312001,14.5710924 C103.312001,14.4923576 103.333391,14.43271 103.352404,14.3515893 L103.770697,13.1085335 C103.811101,13.0083255 103.851504,12.9677651 103.910921,12.9677651 C104.169977,12.9677651 105.149164,13.690694 106.446823,13.690694 C107.625649,13.690694 108.224569,13.2087414 108.224569,12.3474302 C108.224569,11.4670317 107.326189,11.385911 106.287586,10.8037505 C105.22997,10.2239759 104.569257,9.84223127 104.569257,8.46079302 C104.569257,6.3349528 106.10696,4.91295419 108.383806,4.91295419 C109.422409,4.91295419 110.998138,5.31378601 110.998138,5.83391302 C110.998138,5.89356062 110.979125,5.93412098 110.957735,5.99376857 L110.539442,7.15570368" id="path2504" fill="#231F20"></path>
                <path d="M115.012327,9.5416074 C115.870303,9.5416074 118.544052,9.5416074 118.544052,7.69730383 C118.544052,7.17717682 118.225579,6.7166974 117.626659,6.7166974 C115.749093,6.7166974 115.190577,8.79959134 115.012327,9.5416074 L115.012327,9.5416074 Z M119.642072,14.0724386 C119.663462,14.1320861 119.703865,14.1917337 119.703865,14.2513813 C119.703865,14.5114448 117.845312,15.4944372 115.810886,15.4944372 C113.415207,15.4944372 112.336201,13.9913178 112.336201,11.7676556 C112.336201,7.75695142 114.912507,4.91295419 117.985536,4.91295419 C119.863102,4.91295419 120.939731,5.95559411 120.939731,7.55653551 C120.939731,11.3453506 115.870303,11.3453506 114.73188,11.3453506 C114.73188,11.9465983 114.572644,13.490278 116.447833,13.490278 C117.626659,13.490278 118.684275,12.6886144 118.983735,12.6886144 C119.083555,12.6886144 119.104945,12.748262 119.142972,12.8293827 L119.642072,14.0724386 L119.642072,14.0724386 Z" id="path2506" fill="#231F20"></path>
                <path d="M124.174374,14.9122767 C124.114957,15.1341657 124.095944,15.1532529 123.896304,15.1532529 L122.037751,15.1532529 C121.878514,15.1532529 121.778694,15.1126926 121.778694,14.952837 C121.759681,14.8931894 121.778694,14.8120687 121.800084,14.7333339 L123.157161,8.69938339 C123.256981,8.19834361 123.397204,7.69730383 123.397204,7.05549573 C123.397204,6.45663389 123.216577,6.17509725 123.216577,5.81482579 C123.216577,5.67405747 123.356801,5.63349711 123.45662,5.59293675 L125.05374,4.97260178 C125.113157,4.95112865 125.15356,4.91295419 125.25338,4.91295419 C125.472033,4.91295419 125.65266,5.81482579 125.65266,6.93620054 C126.192163,6.3349528 127.209376,4.91295419 128.747079,4.91295419 C129.046539,4.91295419 129.424428,4.99168901 129.424428,5.17301769 C129.424428,5.23266529 129.405415,5.27322565 129.386402,5.33287324 L128.547439,7.35611959 C128.526049,7.39667996 128.466632,7.45632755 128.426229,7.45632755 C128.288382,7.45632755 128.067352,7.31794514 127.748879,7.31794514 C126.211176,7.31794514 125.312797,9.60125499 125.03235,10.9445188 L124.174374,14.9122767" id="path2508" fill="#231F20"></path>
                <path d="M140.784891,7.13661645 C142.320217,7.13661645 143.399224,6.41607353 143.399224,4.67197791 C143.399224,3.62933799 142.700484,3.42892208 141.783091,3.42892208 L140.784891,3.42892208 L139.986331,7.13661645 L140.784891,7.13661645 L140.784891,7.13661645 Z M139.587052,13.1490938 C141.222198,13.1490938 142.460441,12.7291748 142.460441,10.5627742 C142.460441,9.28154389 141.642867,9.14077557 140.485431,9.14077557 L139.568038,9.14077557 L138.726698,13.1490938 L139.587052,13.1490938 L139.587052,13.1490938 Z M142.101564,1.42476296 C144.07895,1.42476296 145.994543,2.00692346 145.994543,4.41191441 C145.994543,6.7166974 144.07895,7.618569 143.299404,7.95736733 C143.998143,8.27946433 145.15558,8.98092003 145.15558,10.865784 C145.15558,14.1917337 142.56026,15.1532529 139.387412,15.1532529 L136.152769,15.1532529 C135.893713,15.1532529 135.853309,15.053045 135.853309,14.9337498 C135.853309,14.8717163 135.872323,14.7118608 135.893713,14.6331259 L138.626879,1.70629959 C138.688672,1.44623609 138.748088,1.42476296 138.988132,1.42476296 L142.101564,1.42476296 L142.101564,1.42476296 Z" id="path2510" fill="#231F20"></path>
                <path d="M149.887521,9.5416074 C150.745498,9.5416074 153.421623,9.5416074 153.421623,7.69730383 C153.421623,7.17717682 153.10315,6.7166974 152.501854,6.7166974 C150.626664,6.7166974 150.068148,8.79959134 149.887521,9.5416074 L149.887521,9.5416074 Z M154.519643,14.0724386 C154.541033,14.1320861 154.57906,14.1917337 154.57906,14.2513813 C154.57906,14.5114448 152.722884,15.4944372 150.686081,15.4944372 C148.290402,15.4944372 147.213772,13.9913178 147.213772,11.7676556 C147.213772,7.75695142 149.787701,4.91295419 152.863107,4.91295419 C154.738296,4.91295419 155.817303,5.95559411 155.817303,7.55653551 C155.817303,11.3453506 150.745498,11.3453506 149.607075,11.3453506 C149.607075,11.9465983 149.447838,13.490278 151.325404,13.490278 C152.501854,13.490278 153.561847,12.6886144 153.861307,12.6886144 C153.961127,12.6886144 153.98014,12.748262 154.020543,12.8293827 L154.519643,14.0724386 L154.519643,14.0724386 Z" id="path2512" fill="#231F20"></path>
                <path d="M159.051945,14.9122767 C158.990151,15.1341657 158.971138,15.1532529 158.771498,15.1532529 L156.915322,15.1532529 C156.756086,15.1532529 156.656266,15.1126926 156.656266,14.952837 C156.637252,14.8931894 156.656266,14.8120687 156.675279,14.7333339 L158.032355,8.69938339 C158.132175,8.19834361 158.272398,7.69730383 158.272398,7.05549573 C158.272398,6.45663389 158.094148,6.17509725 158.094148,5.81482579 C158.094148,5.67405747 158.231995,5.63349711 158.334192,5.59293675 L159.928934,4.97260178 C159.988351,4.95112865 160.031131,4.91295419 160.128574,4.91295419 C160.349604,4.91295419 160.527854,5.81482579 160.527854,6.93620054 C161.067357,6.3349528 162.08457,4.91295419 163.622273,4.91295419 C163.921733,4.91295419 164.302,4.99168901 164.302,5.17301769 C164.302,5.23266529 164.282986,5.27322565 164.261596,5.33287324 L163.422633,7.35611959 C163.40362,7.39667996 163.344203,7.45632755 163.3038,7.45632755 C163.163577,7.45632755 162.944923,7.31794514 162.624073,7.31794514 C161.086371,7.31794514 160.190368,9.60125499 159.909921,10.9445188 L159.051945,14.9122767" id="path2514" fill="#231F20"></path>
                <path d="M171.667287,14.9122767 C171.62926,15.1341657 171.588857,15.1532529 171.389217,15.1532529 L169.533041,15.1532529 C169.371428,15.1532529 169.273985,15.1126926 169.273985,14.952837 C169.273985,14.8931894 169.292998,14.8120687 169.292998,14.7333339 L170.609671,9.02148039 C170.709491,8.62064856 170.790297,8.21981674 170.790297,7.79751178 C170.790297,7.33703236 170.609671,7.01732127 170.189001,7.01732127 C168.354215,7.01732127 167.693502,9.50104704 167.375029,10.9445188 L166.517052,14.9122767 C166.476649,15.1341657 166.438622,15.1532529 166.238982,15.1532529 L164.38043,15.1532529 C164.221193,15.1532529 164.12375,15.1126926 164.12375,14.952837 C164.12375,14.8931894 164.142763,14.8120687 164.142763,14.7333339 L165.499839,8.69938339 C165.618672,8.19834361 165.739882,7.69730383 165.739882,7.05549573 C165.739882,6.45663389 165.559256,6.17509725 165.559256,5.81482579 C165.559256,5.67405747 165.699479,5.63349711 165.799299,5.59293675 L167.396418,4.97260178 C167.455835,4.95112865 167.496238,4.91295419 167.596058,4.91295419 C167.814712,4.91295419 167.995338,5.81482579 167.995338,6.93620054 C168.534841,6.29439244 169.673264,4.91295419 171.30841,4.91295419 C172.60607,4.91295419 173.3262,5.91503375 173.3262,7.01732127 C173.3262,7.53744828 173.245393,8.07904842 173.12656,8.5800882 L171.667287,14.9122767" id="path2516" fill="#231F20"></path>
            </g>
        </g>
    </g>
</svg>