<?xml version="1.0" encoding="UTF-8"?>
<svg width="300px" height="86px" viewBox="0 0 300 86" version="1.1" xmlns="http://www.w3.org/2000/svg" xmlns:xlink="http://www.w3.org/1999/xlink">
    <!-- Generator: Sketch 40.3 (33839) - http://www.bohemiancoding.com/sketch -->
    <title>path7179</title>
    <desc>Created with Sketch.</desc>
    <defs></defs>
    <g id="kunden" stroke="none" stroke-width="1" fill="none" fill-rule="evenodd">
        <g id="logo_bls" transform="translate(-50.000000, -107.000000)" fill="#0000A9">
            <path d="M350,173.563412 C350,183.586979 342.04037,191.264124 328.713747,191.264124 L285.498745,191.264124 L285.498745,176.958045 L327.066558,176.958045 C329.689066,176.958045 331.305388,175.879853 331.305388,174.019546 C331.305388,172.337146 330.207593,170.903733 326.974702,170.518505 C325.206033,170.299104 309.072941,168.350486 304.132867,167.757716 C289.890918,166.057714 285.255289,157.672478 285.255289,148.986463 C285.255289,138.955667 293.184051,131.279636 306.541791,131.279636 L347.560458,131.279636 L347.560458,145.589058 L308.158112,145.589058 C305.535604,145.589058 303.949404,146.659599 303.949404,148.528646 C303.949404,150.204955 305.017077,151.646142 308.249222,152.026567 C310.049007,152.242973 326.151481,154.195106 331.091554,154.787505 C345.334002,156.490503 350,164.878858 350,173.563412 L350,173.563412 Z M115.263736,126.901436 C112.793824,126.994945 110.628356,127.942961 110.231806,130.274058 L108.706843,142.610377 C116.910676,144.053074 123.162626,151.184241 123.162626,159.766621 C123.162626,169.399043 115.294604,177.206833 105.626796,177.206833 L105.626796,177.206833 C95.9592381,177.206833 88.0909667,169.399043 88.0909667,159.766621 C88.0909667,151.184241 94.3431656,144.053074 102.577119,142.610377 L101.052156,130.274058 C100.655606,127.942961 98.4911347,126.994945 96.0202266,126.901436 L50,126.901436 L58.2038329,141.53835 C60.5216472,145.391889 64.3950432,145.581457 64.9743101,145.589058 L76.7767171,145.589058 C73.9403756,150.236224 72.3238053,155.240717 72.3238053,159.769592 C72.3238053,178.119149 87.2677456,193 105.626796,193 C124.016466,193 138.930286,178.119149 138.930286,159.769592 C138.930286,155.240717 137.343836,150.236224 134.507495,145.589058 L146.279532,145.589058 C146.858799,145.581457 150.762813,145.391889 153.080628,141.53835 L161.253593,126.901436 L115.263736,126.901436 L115.263736,126.901436 Z M94.4648938,159.769592 C94.4648938,153.635115 99.4664538,148.657682 105.626796,148.657682 C111.817758,148.657682 116.819567,153.635115 116.819567,159.769592 C116.819567,165.912758 111.817758,170.891874 105.626796,170.891874 C99.4664538,170.891874 94.4648938,165.912758 94.4648938,159.769592 L94.4648938,159.769592 Z M256.068901,191.264124 L275.831187,191.264124 L275.831187,107 L256.068901,107 L256.068901,191.264124 L256.068901,191.264124 Z M226.609185,169.167807 C226.609185,174.410542 223.802965,176.958045 218.008802,176.958045 L197.362307,176.958045 L197.362307,145.589058 L218.008802,145.589058 C223.802965,145.589058 226.609185,148.210016 226.609185,153.599761 L226.609185,169.167807 L226.609185,169.167807 Z M222.217262,131.279636 L197.362307,131.279636 L197.362307,107 L177.569402,107 L177.569402,191.264124 L222.217262,191.264124 C238.289117,191.264124 246.401343,183.504066 246.401343,168.1933 L246.401343,154.358035 C246.401343,139.047294 238.289117,131.279636 222.217262,131.279636 L222.217262,131.279636 Z" id="path7179"></path>
        </g>
    </g>
</svg>