<?xml version="1.0" encoding="UTF-8"?>
<svg width="300px" height="78px" viewBox="0 0 300 78" version="1.1" xmlns="http://www.w3.org/2000/svg" xmlns:xlink="http://www.w3.org/1999/xlink">
    <!-- Generator: Sketch 40.3 (33839) - http://www.bohemiancoding.com/sketch -->
    <title>logo_puzzle</title>
    <desc>Created with Sketch.</desc>
    <defs></defs>
    <g id="kunden" stroke="none" stroke-width="1" fill="none" fill-rule="evenodd">
        <g id="logo_puzzle" transform="translate(-50.000000, -111.000000)" fill="#1E5996">
            <g transform="translate(50.000000, 111.000000)" id="logo">
                <g>
                    <g id="Home">
                        <g id="puzzle_website_homepage-copy-17">
                            <path d="M100.160364,35.6720597 L105.061065,35.6720597 C106.486068,35.6720597 107.572692,35.2820713 108.316852,34.4986961 C109.062374,33.7160017 109.434795,32.7104556 109.434795,31.4806999 C109.434795,30.2251271 109.062374,29.198519 108.316852,28.3954407 C107.572692,27.593722 106.486068,27.1935425 105.061065,27.1935425 L100.160364,27.1935425 L100.160364,35.6720597 L100.160364,35.6720597 Z M100.160364,40.7174531 L100.160364,50.3992291 L93.5691318,50.3992291 L93.5691318,22.1481481 L105.061065,22.1481481 C108.417616,22.1481481 111.081751,23.0049001 113.051428,24.7184051 C115.023147,26.4339477 116.008324,28.6740047 116.008324,31.4419733 C116.008324,34.2242093 115.023147,36.4656259 113.051428,38.1669003 C111.081751,39.8668159 108.417616,40.7174531 105.061065,40.7174531 L100.160364,40.7174531 L100.160364,40.7174531 Z M142.005598,22.1480124 L142.005598,40.6588876 C142.005598,43.8807104 140.932592,46.3769097 138.787258,48.1502031 C136.642605,49.9214589 133.83277,50.8067464 130.359795,50.8067464 C126.84665,50.8067464 124.014346,49.9214589 121.862205,48.1502031 C119.710744,46.3769097 118.633651,43.8807104 118.633651,40.6588876 L118.633651,22.1480124 L125.225565,22.1480124 L125.225565,40.6588876 C125.225565,42.3934536 125.673559,43.6768839 126.567505,44.5112152 C127.46145,45.3448667 128.725774,45.7627117 130.359795,45.7627117 C131.979518,45.7627117 133.22614,45.348264 134.101703,44.5207264 C134.976585,43.6925099 135.413686,42.4050043 135.413686,40.6588876 L135.413686,22.1480124 L142.005598,22.1480124 L142.005598,22.1480124 Z M152.684334,45.3551935 L165.576759,45.3551935 L165.576759,50.3992291 L144.59593,50.3992291 L144.59593,47.4505335 L157.254146,27.1935425 L144.538059,27.1935425 L144.538059,22.1481481 L165.402464,22.1481481 L165.402464,24.9813412 L152.684334,45.3551935 L152.684334,45.3551935 Z M175.721919,45.3551935 L188.613664,45.3551935 L188.613664,50.3992291 L167.634196,50.3992291 L167.634196,47.4505335 L180.292412,27.1935425 L167.574963,27.1935425 L167.574963,22.1481481 L188.439368,22.1481481 L188.439368,24.9813412 L175.721919,45.3551935 L175.721919,45.3551935 Z M197.670429,45.3551935 L209.861587,45.3551935 L209.861587,50.3992291 L191.077836,50.3992291 L191.077836,22.1481481 L197.670429,22.1481481 L197.670429,45.3551935 L197.670429,45.3551935 Z M229.838855,38.3114815 L218.735683,38.3114815 L218.735683,45.3550577 L231.821468,45.3550577 L231.821468,50.3990933 L212.145132,50.3990933 L212.145132,22.1480124 L231.860276,22.1480124 L231.860276,27.1934058 L218.735683,27.1934058 L218.735683,33.2660871 L229.838855,33.2660871 L229.838855,38.3114815 L229.838855,38.3114815 Z M251.711315,50.3993649 L245.158892,50.3993649 L245.158892,22.1482839 L251.711315,22.1482839 L251.711315,50.3993649 L251.711315,50.3993649 Z M275.632158,27.19327 L268.165362,27.19327 L268.165362,50.3989576 L261.57345,50.3989576 L261.57345,27.19327 L254.165887,27.19327 L254.165887,22.1478766 L275.632158,22.1478766 L275.632158,27.19327 L275.632158,27.19327 Z M299.621219,40.4850911 L299.660027,40.6005927 C299.529986,43.912779 298.54685,46.4409111 296.714024,48.1883865 C294.877792,49.9345032 292.218423,50.8062033 288.731831,50.8062033 C285.232302,50.8062033 282.387064,49.7327153 280.196114,47.5857393 C278.005164,45.4387623 276.909689,42.6510904 276.909689,39.2234026 L276.909689,33.3246536 C276.909689,29.9098742 277.962271,27.1255997 280.070158,24.971829 C282.176684,22.8180593 284.912987,21.7404941 288.285199,21.7404941 C291.862343,21.7404941 294.596605,22.6400499 296.487984,24.4371236 C298.382768,26.236235 299.451009,28.7895063 299.697474,32.1016925 L299.660027,32.2185529 L293.262154,32.2185529 C293.170922,30.3820737 292.759693,29.0164333 292.027106,28.125031 C291.295201,27.2315901 290.046537,26.7858885 288.285199,26.7858885 C286.793473,26.7858885 285.620383,27.3844596 284.764565,28.5809237 C283.910108,29.7780667 283.481857,31.345495 283.481857,33.285927 L283.481857,39.2234026 C283.481857,41.1767431 283.948916,42.7557221 284.88235,43.9576213 C285.815104,45.161558 287.09781,45.7628475 288.731831,45.7628475 C290.313427,45.7628475 291.434774,45.3416051 292.095872,44.5004801 C292.756289,43.6607128 293.132795,42.3215713 293.222665,40.4850911 L299.621219,40.4850911 L299.621219,40.4850911 Z M11.9687116,66.7085698 C-3.10649354,51.6654696 -3.10649354,27.2769072 11.9687116,12.233806 C27.0411935,-2.80725659 51.4820624,-2.80589785 66.5552248,12.233806 C81.6297492,27.2782659 81.6283871,51.6641108 66.5552248,66.707211 C51.4813814,81.7503122 27.043236,81.751671 11.9687116,66.7085698 L11.9687116,66.7085698 Z M96.6743846,66.8200636 C97.1298675,66.8200636 97.5315646,66.6794228 97.8787939,66.3988212 C98.2246621,66.1175397 98.3982762,65.7730724 98.3982762,65.3633808 L99.6346862,65.3633808 L99.6476219,65.4061845 C99.6707701,66.0563925 99.3820929,66.6345805 98.7788672,67.1407514 C98.1763225,67.6469213 97.4743736,67.8996664 96.6743846,67.8996664 C95.5755058,67.8996664 94.7353466,67.5422896 94.1539071,66.8275371 C93.5717875,66.1121047 93.2810672,65.2132279 93.2810672,64.1309076 L93.2810672,63.8380764 C93.2810672,62.7652682 93.5731486,61.8704676 94.1573113,61.1523178 C94.741474,60.4355267 95.5802711,60.0761123 96.6743846,60.0761123 C97.558117,60.0761123 98.280491,60.3363309 98.8421855,60.856769 C99.402519,61.3765273 99.6734942,62.0158644 99.6551113,62.7720619 L99.6408135,62.8141867 L98.3982762,62.8141867 C98.3982762,62.3542169 98.2355556,61.9635486 97.9094315,61.6401433 C97.5839894,61.3174178 97.1713987,61.1557151 96.6743846,61.1557151 C95.9520106,61.1557151 95.4372945,61.414575 95.1281923,61.9322956 C94.817728,62.4486566 94.6638579,63.0832376 94.6638579,63.834679 L94.6638579,64.1268314 C94.6638579,64.8972971 94.8163669,65.5386719 95.1241071,66.0509566 C95.4311672,66.5639212 95.9486064,66.8200636 96.6743846,66.8200636 L96.6743846,66.8200636 Z M102.611804,61.2261039 C102.872567,60.863971 103.192562,60.5813308 103.571792,60.3795429 C103.951021,60.1770741 104.3711,60.0765196 104.83203,60.0765196 C105.636785,60.0765196 106.263841,60.3177149 106.713197,60.8007843 C107.162552,61.2838547 107.38723,62.0271427 107.38723,63.0299713 L107.38723,67.7533181 L106.011929,67.7533181 L106.011929,63.016383 C106.011929,62.3940316 105.877803,61.9340617 105.610233,61.6364744 C105.342662,61.3395669 104.943688,61.1907737 104.413312,61.1907737 C104.03136,61.1907737 103.685492,61.2804573 103.376389,61.4591457 C103.066606,61.6378341 102.811972,61.8803881 102.611804,62.1868077 L102.611804,67.7533181 L101.236503,67.7533181 L101.236503,56.885271 L102.611804,56.885271 L102.611804,61.2261039 L102.611804,61.2261039 Z M111.6124,66.7437641 C112.110095,66.7437641 112.560132,66.6160329 112.959786,66.3612493 C113.360121,66.1064656 113.620884,65.8149931 113.742074,65.485473 L113.742074,64.2638707 L112.198605,64.2638707 C111.64508,64.2638707 111.201852,64.4024728 110.86892,64.680357 C110.53667,64.9582411 110.370544,65.2850438 110.370544,65.6594053 C110.370544,65.9936815 110.474713,66.2572974 110.684413,66.4516127 C110.893431,66.6459271 111.202533,66.7437641 111.6124,66.7437641 L111.6124,66.7437641 Z M113.895944,67.7533865 C113.848966,67.5257796 113.812881,67.3246706 113.78701,67.1514181 C113.761818,66.976806 113.74684,66.801515 113.742074,66.6248652 C113.486077,66.986998 113.152464,67.2906992 112.739875,67.533933 C112.328646,67.7778458 111.884737,67.8994622 111.41019,67.8994622 C110.623817,67.8994622 110.024676,67.699033 109.612086,67.296814 C109.200858,66.8959547 108.994562,66.3415461 108.994562,65.6356259 C108.994562,64.9161163 109.286643,64.3521956 109.870806,63.9465801 C110.454968,63.539606 111.247468,63.3364584 112.248307,63.3364584 L113.742074,63.3364584 L113.742074,62.5918116 C113.742074,62.1501862 113.607267,61.8009629 113.336973,61.5427819 C113.06736,61.2852808 112.685407,61.155511 112.192478,61.155511 C111.74993,61.155511 111.390446,61.2682951 111.114023,61.4938644 C110.83624,61.7187528 110.698029,61.9898423 110.698029,62.3057741 L109.385365,62.3057741 L109.371749,62.2636502 C109.343834,61.7160353 109.603235,61.2139416 110.150632,60.7587288 C110.696667,60.303515 111.403381,60.076588 112.269413,60.076588 C113.125231,60.076588 113.813562,60.293324 114.335768,60.7281547 C114.856613,61.1616258 115.117375,61.7880544 115.117375,62.6047201 L115.117375,66.2348767 C115.117375,66.5039276 115.130991,66.7641472 115.158907,67.0148536 C115.186821,67.2662399 115.237884,67.5121913 115.313458,67.7533865 L113.895944,67.7533865 L113.895944,67.7533865 Z M118.305758,60.2155975 L118.403118,61.3373251 C118.65435,60.9378245 118.97026,60.6273277 119.348808,60.4071953 C119.728718,60.1863831 120.160372,60.0763164 120.644451,60.0763164 C121.458738,60.0763164 122.089198,60.3147933 122.535831,60.7903891 C122.982462,61.2666648 123.205779,62.0018004 123.205779,62.9951169 L123.205779,67.7537939 L121.831159,67.7537939 L121.831159,63.0229725 C121.831159,62.3591771 121.699076,61.8876575 121.436951,61.6090944 C121.173465,61.3305304 120.771768,61.1912494 120.232541,61.1912494 C119.836292,61.1912494 119.486338,61.286368 119.181321,61.4766061 C118.876985,61.6675241 118.633243,61.9277437 118.452139,62.2572639 L118.452139,67.7537939 L117.076839,67.7537939 L117.076839,60.2155975 L118.305758,60.2155975 L118.305758,60.2155975 Z M126.23185,64.2701896 C126.23185,65.027067 126.392528,65.635829 126.713885,66.0957989 C127.035243,66.5550889 127.523407,66.7847334 128.179738,66.7847334 C128.594371,66.7847334 128.94092,66.6909726 129.220065,66.502773 C129.499211,66.3152524 129.730016,66.048918 129.91112,65.7051306 L129.91112,62.2359978 C129.734782,61.9153099 129.503977,61.6612061 129.220065,61.4730056 C128.936154,61.2848051 128.594371,61.1910453 128.194036,61.1910453 C127.537705,61.1910453 127.046137,61.4648522 126.721375,62.013147 C126.39457,62.5607619 126.23185,63.2653233 126.23185,64.1241139 L126.23185,64.2701896 L126.23185,64.2701896 Z M124.856549,64.1241139 C124.856549,62.9113439 125.122077,61.9343342 125.652452,61.1910453 C126.183509,60.4477563 126.916777,60.0761123 127.851573,60.0761123 C128.330885,60.0761123 128.752326,60.1725906 129.115215,60.3655462 C129.478786,60.557823 129.781079,60.8357071 130.022778,61.1985188 L130.190265,60.2153943 L131.286421,60.2153943 L131.286421,67.7950347 C131.286421,68.7611744 131.005233,69.5031037 130.442177,70.0215033 C129.87844,70.5392239 129.066876,70.7974049 128.005443,70.7974049 C127.642554,70.7974049 127.250389,70.7478065 126.828948,70.6486107 C126.408187,70.5480562 126.036448,70.4121716 125.715771,70.2402779 L126.064362,69.1749433 C126.310827,69.3142243 126.609717,69.4270084 126.957627,69.5126159 C127.307579,69.5989031 127.651405,69.6417068 127.991145,69.6417068 C128.661094,69.6417068 129.149257,69.4895153 129.453594,69.1851343 C129.759292,68.8807533 129.91112,68.4173861 129.91112,67.7950347 L129.91112,66.9457562 C129.664655,67.2610091 129.368489,67.4994859 129.024664,67.659151 C128.680158,67.8201738 128.285269,67.8996664 127.837956,67.8996664 C126.91133,67.8996664 126.183509,67.5653901 125.652452,66.8961588 C125.122077,66.2276064 124.856549,65.3525099 124.856549,64.2701896 L124.856549,64.1241139 L124.856549,64.1241139 Z M134.698393,67.7538622 L133.323092,67.7538622 L133.323092,60.2156659 L134.698393,60.2156659 L134.698393,67.7538622 L134.698393,67.7538622 Z M134.698393,58.2854259 L133.323092,58.2854259 L133.323092,56.8851352 L134.698393,56.8851352 L134.698393,58.2854259 L134.698393,58.2854259 Z M137.965754,60.2155975 L138.063115,61.3373251 C138.314345,60.9378245 138.630256,60.6273277 139.008805,60.4071953 C139.388714,60.1863831 139.820368,60.0763164 140.304447,60.0763164 C141.118733,60.0763164 141.749194,60.3147933 142.195826,60.7903891 C142.642459,61.2666648 142.865774,62.0018004 142.865774,62.9951169 L142.865774,67.7537939 L141.491154,67.7537939 L141.491154,63.0229725 C141.491154,62.3591771 141.359071,61.8876575 141.096946,61.6090944 C140.83346,61.3305304 140.431764,61.1912494 139.892537,61.1912494 C139.496287,61.1912494 139.146334,61.286368 138.841317,61.4766061 C138.536981,61.6675241 138.293239,61.9277437 138.112135,62.2572639 L138.112135,67.7537939 L136.736834,67.7537939 L136.736834,60.2155975 L137.965754,60.2155975 L137.965754,60.2155975 Z M145.892526,64.2701896 C145.892526,65.027067 146.053205,65.635829 146.374562,66.0957989 C146.69592,66.5550889 147.184083,66.7847334 147.840415,66.7847334 C148.255048,66.7847334 148.601597,66.6909726 148.880741,66.502773 C149.159887,66.3152524 149.390692,66.048918 149.571797,65.7051306 L149.571797,62.2359978 C149.395459,61.9153099 149.164653,61.6612061 148.880741,61.4730056 C148.596831,61.2848051 148.255048,61.1910453 147.854713,61.1910453 C147.198381,61.1910453 146.706813,61.4648522 146.382051,62.013147 C146.055247,62.5607619 145.892526,63.2653233 145.892526,64.1241139 L145.892526,64.2701896 L145.892526,64.2701896 Z M144.517225,64.1241139 C144.517225,62.9113439 144.782753,61.9343342 145.313129,61.1910453 C145.844186,60.4477563 146.577453,60.0761123 147.51225,60.0761123 C147.991562,60.0761123 148.413003,60.1725906 148.775892,60.3655462 C149.139462,60.557823 149.441756,60.8357071 149.683455,61.1985188 L149.850941,60.2153943 L150.947097,60.2153943 L150.947097,67.7950347 C150.947097,68.7611744 150.665909,69.5031037 150.102854,70.0215033 C149.539116,70.5392239 148.727552,70.7974049 147.66612,70.7974049 C147.303231,70.7974049 146.911066,70.7478065 146.489625,70.6486107 C146.068864,70.5480562 145.697124,70.4121716 145.376447,70.2402779 L145.725039,69.1749433 C145.971504,69.3142243 146.270393,69.4270084 146.618304,69.5126159 C146.968256,69.5989031 147.312082,69.6417068 147.651822,69.6417068 C148.32177,69.6417068 148.809934,69.4895153 149.114271,69.1851343 C149.419969,68.8807533 149.571797,68.4173861 149.571797,67.7950347 L149.571797,66.9457562 C149.325332,67.2610091 149.029165,67.4994859 148.68534,67.659151 C148.340834,67.8201738 147.945945,67.8996664 147.498633,67.8996664 C146.572006,67.8996664 145.844186,67.5653901 145.313129,66.8961588 C144.782753,66.2276064 144.517225,65.3525099 144.517225,64.2701896 L144.517225,64.1241139 L144.517225,64.1241139 Z M158.207189,67.7538622 L156.825079,67.7538622 L156.825079,57.6100797 L158.207189,57.6100797 L158.207189,67.7538622 L158.207189,67.7538622 Z M167.645566,58.6901573 L164.378205,58.6901573 L164.378205,67.7536581 L163.002904,67.7536581 L163.002904,58.6901573 L159.743032,58.6901573 L159.743032,57.6098756 L167.645566,57.6098756 L167.645566,58.6901573 L167.645566,58.6901573 Z M173.006517,67.7535907 L173.006517,61.2324902 L171.827299,61.2324902 L171.827299,60.2153943 L173.006517,60.2153943 L173.006517,59.2608053 C173.006517,58.4577269 173.217578,57.8360553 173.639019,57.3978273 C174.059779,56.9582414 174.647346,56.7394668 175.40172,56.7394668 C175.559675,56.7394668 175.718991,56.7523763 175.879671,56.7775144 C176.040349,56.8033324 176.218049,56.8393424 176.413451,56.8855425 L176.245963,57.930495 C176.16222,57.9121506 176.060774,57.8951649 175.942989,57.8822564 C175.823841,57.8673083 175.699247,57.8605146 175.569206,57.8605146 C175.168871,57.8605146 174.870663,57.9800924 174.67526,58.219929 C174.479859,58.4584067 174.382499,58.8062713 174.382499,59.2608053 L174.382499,60.2153943 L175.953202,60.2153943 L175.953202,61.2324902 L174.382499,61.2324902 L174.382499,67.7535907 L173.006517,67.7535907 L173.006517,67.7535907 Z M178.170023,64.0645277 C178.170023,64.86285 178.338872,65.5218903 178.675889,66.0402899 C179.013586,66.560728 179.515367,66.8202667 180.18055,66.8202667 C180.836881,66.8202667 181.334577,66.560728 181.674317,66.0402899 C182.014057,65.5218903 182.184268,64.86285 182.184268,64.0645277 L182.184268,63.9109784 C182.184268,63.1228481 182.013376,62.4665253 181.671594,61.9426908 C181.32913,61.4181764 180.82735,61.1559193 180.166933,61.1559193 C179.510601,61.1559193 179.013586,61.4181764 178.675889,61.9426908 C178.338872,62.4665253 178.170023,63.1228481 178.170023,63.9109784 L178.170023,64.0645277 L178.170023,64.0645277 Z M176.794041,63.9143758 C176.794041,62.8001227 177.097016,61.8815427 177.702285,61.1599955 C178.306872,60.4370896 179.128649,60.0763164 180.166933,60.0763164 C181.214068,60.0763164 182.041291,60.4364107 182.648603,61.1559193 C183.255914,61.8761077 183.559568,62.7960455 183.559568,63.9143758 L183.559568,64.0686049 C183.559568,65.1923701 183.257275,66.1123089 182.652007,66.8270614 C182.046738,67.5424938 181.222919,67.8998705 180.18055,67.8998705 C179.13818,67.8998705 178.313,67.541135 177.705689,66.8236641 C177.098378,66.1061941 176.794041,65.1876141 176.794041,64.0686049 L176.794041,63.9143758 L176.794041,63.9143758 Z M188.799533,61.427756 L188.094181,61.3856321 C187.731292,61.3856321 187.424913,61.4719184 187.175725,61.6438121 C186.927218,61.8157068 186.735221,62.057581 186.600414,62.3687567 L186.600414,67.7538622 L185.225113,67.7538622 L185.225113,60.2156659 L186.454033,60.2156659 L186.586116,61.3163306 C186.7999,60.9263421 187.064067,60.6219611 187.378617,60.4031865 C187.692484,60.1857716 188.054011,60.0763839 188.46456,60.0763839 C188.566005,60.0763839 188.664046,60.0838574 188.75664,60.1008431 C188.849916,60.1164701 188.927532,60.1348145 188.987446,60.1524791 L188.799533,61.427756 L188.799533,61.427756 Z M195.494934,58.3969187 L195.494934,60.2157333 L196.926065,60.2157333 L196.926065,61.2328301 L195.494934,61.2328301 L195.494934,65.8094224 C195.494934,66.1634008 195.567785,66.4113907 195.714166,66.5554279 C195.861228,66.6994659 196.055268,66.771485 196.297648,66.771485 C196.376625,66.771485 196.463773,66.7626517 196.55909,66.7436284 C196.654408,66.7252839 196.739514,66.7015045 196.814407,66.6736479 L196.99551,67.6139687 C196.893384,67.6975376 196.742918,67.7661593 196.545474,67.8198339 C196.347349,67.8728286 196.148543,67.8993264 195.948375,67.8993264 C195.390085,67.8993264 194.944814,67.731509 194.614606,67.3945153 C194.284398,67.0582014 194.118953,66.5302897 194.118953,65.8094224 L194.118953,61.2328301 L192.918628,61.2328301 L192.918628,60.2157333 L194.118953,60.2157333 L194.118953,58.3969187 L195.494934,58.3969187 L195.494934,58.3969187 Z M199.818622,61.2261039 C200.079385,60.863971 200.399381,60.5813308 200.77861,60.3795429 C201.157839,60.1770741 201.577918,60.0765196 202.038848,60.0765196 C202.843603,60.0765196 203.470659,60.3177149 203.920015,60.8007843 C204.36937,61.2838547 204.594048,62.0271427 204.594048,63.0299713 L204.594048,67.7533181 L203.218748,67.7533181 L203.218748,63.016383 C203.218748,62.3940316 203.084622,61.9340617 202.817051,61.6364744 C202.54948,61.3395669 202.150507,61.1907737 201.62013,61.1907737 C201.238178,61.1907737 200.892311,61.2804573 200.583207,61.4591457 C200.273425,61.6378341 200.01879,61.8803881 199.818622,62.1868077 L199.818622,67.7533181 L198.443321,67.7533181 L198.443321,56.885271 L199.818622,56.885271 L199.818622,61.2261039 L199.818622,61.2261039 Z M209.456146,61.1557835 C208.995216,61.1557835 208.601689,61.349419 208.276246,61.7360101 C207.950123,62.1226021 207.749956,62.6077101 207.676425,63.1906542 L207.68936,63.2253055 L211.17323,63.2253055 L211.17323,63.0445785 C211.17323,62.5078345 211.029572,62.0587365 210.740895,61.6979624 C210.452218,61.3371893 210.023968,61.1557835 209.456146,61.1557835 L209.456146,61.1557835 Z M209.665845,67.8997338 C208.613944,67.8997338 207.777189,67.5505104 207.15558,66.8513849 C206.534653,66.1522584 206.224188,65.245909 206.224188,64.130976 L206.224188,63.8245564 C206.224188,62.7517473 206.544184,61.8583064 207.183495,61.1455915 C207.824168,60.4328776 208.581264,60.0761807 209.456146,60.0761807 C210.475367,60.0761807 211.245399,60.3826003 211.766924,60.9961184 C212.287768,61.6089587 212.548531,62.4263043 212.548531,63.4481553 L212.548531,64.3049083 L207.64851,64.3049083 L207.626723,64.3402384 C207.641021,65.0624645 207.824849,65.6562804 208.178886,66.1223641 C208.532244,66.5870891 209.027897,66.820131 209.665845,66.820131 C210.130861,66.820131 210.539365,66.7535479 210.890681,66.6217394 C211.241995,66.4892521 211.54565,66.3071673 211.801647,66.0748044 L212.339512,66.9675664 C212.069218,67.2338998 211.713137,67.4553919 211.271271,67.6334004 C210.829405,67.8114089 210.293581,67.8997338 209.665845,67.8997338 L209.665845,67.8997338 Z M222.720584,64.1242497 C222.720584,63.260703 222.561266,62.5547828 222.242632,62.0098854 C221.923318,61.4636293 221.437877,61.191181 220.786311,61.191181 C220.362828,61.191181 220.006066,61.294453 219.715347,61.500998 C219.423946,61.707542 219.19246,61.9854261 219.020207,62.3332907 L219.020207,65.6013145 C219.197225,65.9729585 219.428713,66.2623934 219.715347,66.4716549 C220.001301,66.6809173 220.362828,66.7848692 220.80129,66.7848692 C221.447409,66.7848692 221.929445,66.5552247 222.246037,66.0952548 C222.562628,65.6359648 222.720584,65.0272027 222.720584,64.2703254 L222.720584,64.1242497 L222.720584,64.1242497 Z M224.096565,64.2703254 C224.096565,65.3567229 223.834441,66.2331781 223.310193,66.9003708 C222.787306,67.5662058 222.066294,67.8998021 221.1492,67.8998021 C220.651505,67.8998021 220.218489,67.8033239 219.851515,67.6110471 C219.483179,67.4180915 219.178843,67.1340925 218.936464,66.7570126 L218.768976,67.7537264 L217.645587,67.7537264 L217.645587,56.8856783 L219.020207,56.8856783 L219.020207,61.1076122 C219.257821,60.7726561 219.552625,60.5171936 219.903259,60.3412227 C220.255254,60.164573 220.665122,60.0762481 221.136264,60.0762481 C222.066294,60.0762481 222.792072,60.4478921 223.314278,61.191181 C223.835122,61.9337901 224.096565,62.9114797 224.096565,64.1242497 L224.096565,64.2703254 L224.096565,64.2703254 Z M228.675296,61.1557835 C228.214366,61.1557835 227.820839,61.349419 227.495397,61.7360101 C227.169274,62.1226021 226.969106,62.6077101 226.895576,63.1906542 L226.908511,63.2253055 L230.39238,63.2253055 L230.39238,63.0445785 C230.39238,62.5078345 230.248723,62.0587365 229.960046,61.6979624 C229.671368,61.3371893 229.243119,61.1557835 228.675296,61.1557835 L228.675296,61.1557835 Z M228.884996,67.8997338 C227.833095,67.8997338 226.99634,67.5505104 226.374731,66.8513849 C225.753804,66.1522584 225.443339,65.245909 225.443339,64.130976 L225.443339,63.8245564 C225.443339,62.7517473 225.763335,61.8583064 226.402646,61.1455915 C227.043318,60.4328776 227.800414,60.0761807 228.675296,60.0761807 C229.694517,60.0761807 230.464549,60.3826003 230.986075,60.9961184 C231.506919,61.6089587 231.767681,62.4263043 231.767681,63.4481553 L231.767681,64.3049083 L226.867661,64.3049083 L226.845874,64.3402384 C226.860172,65.0624645 227.043998,65.6562804 227.398037,66.1223641 C227.751394,66.5870891 228.247047,66.820131 228.884996,66.820131 C229.350011,66.820131 229.758516,66.7535479 230.109831,66.6217394 C230.461145,66.4892521 230.764801,66.3071673 231.020797,66.0748044 L231.558663,66.9675664 C231.288368,67.2338998 230.932288,67.4553919 230.490422,67.6334004 C230.048555,67.8114089 229.512732,67.8997338 228.884996,67.8997338 L228.884996,67.8997338 Z M235.15065,58.3969187 L235.15065,60.2157333 L236.581779,60.2157333 L236.581779,61.2328301 L235.15065,61.2328301 L235.15065,65.8094224 C235.15065,66.1634008 235.223499,66.4113907 235.36988,66.5554279 C235.516942,66.6994659 235.710982,66.771485 235.953362,66.771485 C236.03234,66.771485 236.119487,66.7626517 236.214805,66.7436284 C236.310123,66.7252839 236.395229,66.7015045 236.470121,66.6736479 L236.651225,67.6139687 C236.549099,67.6975376 236.398633,67.7661593 236.201189,67.8198339 C236.003063,67.8728286 235.804258,67.8993264 235.60409,67.8993264 C235.045799,67.8993264 234.600529,67.731509 234.27032,67.3945153 C233.940112,67.0582014 233.774667,66.5302897 233.774667,65.8094224 L233.774667,61.2328301 L232.574343,61.2328301 L232.574343,60.2157333 L233.774667,60.2157333 L233.774667,58.3969187 L235.15065,58.3969187 L235.15065,58.3969187 Z M240.263569,58.3969187 L240.263569,60.2157333 L241.694699,60.2157333 L241.694699,61.2328301 L240.263569,61.2328301 L240.263569,65.8094224 C240.263569,66.1634008 240.336419,66.4113907 240.4828,66.5554279 C240.629862,66.6994659 240.823902,66.771485 241.066282,66.771485 C241.145259,66.771485 241.232407,66.7626517 241.327725,66.7436284 C241.423043,66.7252839 241.508148,66.7015045 241.583041,66.6736479 L241.764145,67.6139687 C241.662018,67.6975376 241.511552,67.7661593 241.314108,67.8198339 C241.115984,67.8728286 240.917177,67.8993264 240.71701,67.8993264 C240.158719,67.8993264 239.713449,67.731509 239.383241,67.3945153 C239.053032,67.0582014 238.887587,66.5302897 238.887587,65.8094224 L238.887587,61.2328301 L237.687262,61.2328301 L237.687262,60.2157333 L238.887587,60.2157333 L238.887587,58.3969187 L240.263569,58.3969187 L240.263569,58.3969187 Z M245.905162,61.1557835 C245.444232,61.1557835 245.050705,61.349419 244.725263,61.7360101 C244.39914,62.1226021 244.198973,62.6077101 244.125441,63.1906542 L244.138377,63.2253055 L247.622247,63.2253055 L247.622247,63.0445785 C247.622247,62.5078345 247.478588,62.0587365 247.189912,61.6979624 C246.901235,61.3371893 246.472985,61.1557835 245.905162,61.1557835 L245.905162,61.1557835 Z M246.114861,67.8997338 C245.062961,67.8997338 244.226206,67.5505104 243.604597,66.8513849 C242.983669,66.1522584 242.673205,65.245909 242.673205,64.130976 L242.673205,63.8245564 C242.673205,62.7517473 242.993201,61.8583064 243.632512,61.1455915 C244.273184,60.4328776 245.03028,60.0761807 245.905162,60.0761807 C246.924383,60.0761807 247.694415,60.3826003 248.215941,60.9961184 C248.736784,61.6089587 248.997547,62.4263043 248.997547,63.4481553 L248.997547,64.3049083 L244.097526,64.3049083 L244.07574,64.3402384 C244.090038,65.0624645 244.273865,65.6562804 244.627903,66.1223641 C244.98126,66.5870891 245.476913,66.820131 246.114861,66.820131 C246.579877,66.820131 246.988382,66.7535479 247.339697,66.6217394 C247.691011,66.4892521 247.994667,66.3071673 248.250664,66.0748044 L248.788529,66.9675664 C248.518235,67.2338998 248.162154,67.4553919 247.720288,67.6334004 C247.278421,67.8114089 246.742598,67.8997338 246.114861,67.8997338 L246.114861,67.8997338 Z M254.166977,61.427756 L253.461624,61.3856321 C253.098736,61.3856321 252.792357,61.4719184 252.543169,61.6438121 C252.294661,61.8157068 252.102664,62.057581 251.967857,62.3687567 L251.967857,67.7538622 L250.592556,67.7538622 L250.592556,60.2156659 L251.821476,60.2156659 L251.953559,61.3163306 C252.167344,60.9263421 252.43151,60.6219611 252.746059,60.4031865 C253.059928,60.1857716 253.421455,60.0763839 253.832003,60.0763839 C253.933448,60.0763839 254.031489,60.0838574 254.124084,60.1008431 C254.217359,60.1164701 254.294975,60.1348145 254.354889,60.1524791 L254.166977,61.427756 L254.166977,61.427756 Z M38.2497603,44.1990197 C38.2497603,44.1990197 45.1970728,43.2192925 47.2041952,39.3486205 C49.2126794,35.4799871 51.5779244,27.6401272 51.5779244,27.6401272 C40.8812149,27.6387675 39.928036,31.3783109 39.928036,31.3783109 C39.928036,31.3783109 33.1672742,50.2431656 30.7564125,57.203173 C12.0244046,57.203173 15.0180671,47.969817 15.0180671,47.969817 L24.3878157,21.7406983 L43.3710544,21.7406983 L42.1033265,25.5169306 C42.1033265,25.5169306 43.6501996,21.7406983 54.1126997,21.7406983 C54.1126997,21.7406983 64.8386855,21.7868993 63.5784473,25.5373127 C62.3202511,29.2856884 58.2740064,40.5335339 58.2740064,40.5335339 C56.9204923,44.1990197 49.0016183,44.1670869 38.2497603,44.1990197 L38.2497603,44.1990197 Z" id="logo"></path>
                        </g>
                    </g>
                </g>
            </g>
        </g>
    </g>
</svg>