<?xml version="1.0" encoding="UTF-8"?>
<svg width="300px" height="161px" viewBox="0 0 300 161" version="1.1" xmlns="http://www.w3.org/2000/svg" xmlns:xlink="http://www.w3.org/1999/xlink">
    <!-- Generator: Sketch 40.3 (33839) - http://www.bohemiancoding.com/sketch -->
    <title>WST_BE_vertical</title>
    <desc>Created with Sketch.</desc>
    <defs>
        <polygon id="path-1" points="149.78556 161 0.0290322581 161 0.0290322581 0.40153012 149.78556 0.40153012 299.542087 0.40153012 299.542087 161 149.78556 161"></polygon>
    </defs>
    <g id="kunden" stroke="none" stroke-width="1" fill="none" fill-rule="evenodd">
        <g id="logo_wst" transform="translate(-50.000000, -70.000000)">
            <g id="WST_BE_vertical" transform="translate(50.000000, 70.000000)">
                <path d="M48.8075806,30.7621536 L48.8075806,29.8960512 C49.7259677,28.9751506 49.293871,27.7298253 49.7259677,26.4301867 C49.7259677,25.9428223 49.7259677,25.4554578 49.293871,25.0767199 C49.293871,24.2101325 47.9970968,23.3440301 47.0787097,23.3440301 C46.2145161,23.7770813 45.3498387,24.2101325 44.9172581,25.0767199 C44.4851613,25.9428223 44.4851613,27.2424608 44.4851613,28.1628765 C44.1072581,29.4625151 44.1072581,30.7621536 44.1072581,32.0617922 C44.1072581,33.4695723 43.6209677,34.7692108 43.6209677,36.0688494 L43.6209677,36.5019006 C43.1346774,38.180762 43.1346774,39.5885422 43.1346774,41.3212319 C43.1346774,42.133506 42.7020968,43.4331446 42.7020968,44.4078735 C42.7020968,44.7866114 42.27,44.7866114 42.27,45.2201476 C42.27,45.2201476 42.27,44.7866114 41.8379032,44.4078735 L41.8379032,43.9748223 C41.8379032,43.0000934 41.8379032,42.133506 41.4058065,41.7004548 L41.4058065,40.8881807 C41.4058065,39.9677651 41.4058065,38.6138133 40.9732258,37.368488 C40.9732258,36.0688494 40.4869355,34.7692108 40.0548387,33.4695723 C40.0548387,32.5491566 39.6227419,31.6825693 39.6227419,31.2495181 C39.6227419,29.8960512 39.6227419,28.5964127 39.2443548,27.2424608 C39.2443548,26.4301867 38.7580645,25.4554578 38.3259677,24.6431837 C37.893871,23.3440301 36.5970968,23.3440301 35.7324194,24.2101325 C35.3003226,24.2101325 35.3003226,24.6431837 35.3003226,25.0767199 C34.4898387,26.8637229 33.9493548,28.5964127 33.9493548,30.2747892 L33.9493548,32.0617922 C33.5172581,33.4695723 33.0851613,35.1484337 33.0851613,36.8811235 C32.7067742,38.6138133 32.2204839,40.4008163 32.2204839,42.133506 C32.2204839,42.6208705 31.7883871,43.0000934 31.7883871,43.4331446 L31.7883871,44.7866114 L31.41,45.2201476 C31.41,45.2201476 31.41,45.2201476 31.41,44.7866114 C31.3224194,44.7866114 31.2532258,44.7706084 31.1975806,44.741997 C30.9430645,42.8759488 30.6909677,41.0099006 30.4374194,39.1438524 L30.4374194,37.8015392 C30.2898387,37.4863283 30.1930645,37.1842108 30.1291935,36.8859729 C30.0953226,36.6396235 30.0619355,36.3927892 30.0280645,36.1464398 C30.0053226,35.8210452 30.0053226,35.492256 30.0053226,35.1484337 C30.0053226,33.8487952 30.0053226,32.5491566 29.6274194,31.2495181 C29.6274194,29.4625151 29.6274194,27.7298253 29.1406452,25.9428223 C29.1406452,24.2101325 27.3580645,22.910494 25.6287097,23.7770813 C24.386129,24.2101325 24.386129,24.6431837 24.386129,25.4554578 C24.386129,26.4301867 24.386129,27.7298253 24.8187097,28.5964127 C24.8187097,30.2747892 25.1966129,32.0617922 25.1966129,34.3361596 C25.1966129,36.8811235 26.115,39.9677651 26.115,42.6208705 C26.115,43.9748223 26.5475806,45.2201476 26.9254839,46.5736145 L26.9254839,48.3063042 L26.9254839,49.6059428 C26.9254839,50.9055813 27.3580645,52.2595331 27.3580645,53.5586867 C27.8980645,54.4252741 28.2764516,55.7249127 27.8980645,57.1326928 C27.8980645,57.1326928 27.8980645,57.1326928 27.8980645,57.5119157 C28.2764516,58.378503 28.7085484,59.2446054 28.2764516,60.1650211 C28.2764516,60.5985572 28.2764516,61.0316084 28.7085484,61.4646596 C29.1406452,61.4646596 29.1406452,61.8977108 29.6274194,62.331247 C30.0053226,62.331247 30.0053226,62.331247 30.4374194,62.7642982 C31.41,62.7642982 31.7883871,61.8977108 32.7067742,61.8977108 C33.0851613,61.8977108 33.0851613,61.0316084 33.0851613,60.5985572 C33.5172581,60.5985572 33.5172581,60.1650211 33.5172581,59.7319699 C33.5172581,57.9449669 33.9493548,56.1579639 34.4898387,54.4252741 C34.4898387,53.1256355 34.8677419,51.7721687 34.8677419,50.5268434 L34.8677419,50.0394789 C35.3003226,49.6059428 35.3003226,49.2272048 35.3003226,48.7398404 C35.3003226,47.873253 35.7324194,47.0071506 35.7324194,45.707512 C35.7324194,44.8336506 36.1698387,44.0567771 36.2143548,42.8230904 C36.3116129,42.3570633 36.4093548,41.8915211 36.5070968,41.425494 C36.5351613,41.3905783 36.5627419,41.3551777 36.5970968,41.3212319 C36.5970968,40.8881807 37.0291935,40.8881807 37.0291935,41.3212319 C37.5154839,41.7004548 37.5154839,42.133506 37.5154839,42.6208705 C37.5154839,43.4331446 37.893871,44.4078735 37.893871,45.2201476 C37.893871,45.707512 37.893871,46.1405633 38.3259677,46.5736145 L38.3259677,47.873253 L38.3259677,49.2272048 C38.7580645,50.0394789 39.2443548,50.9055813 39.2443548,51.3386325 C39.2443548,53.1256355 39.2443548,54.4252741 39.6227419,56.1579639 C40.0548387,57.1326928 39.6227419,58.378503 40.0548387,59.2446054 C40.4869355,59.7319699 40.0548387,59.7319699 40.0548387,60.1650211 C40.0548387,61.4646596 41.4058065,62.7642982 42.7020968,62.7642982 C43.6209677,62.331247 44.4851613,61.8977108 44.9172581,61.8977108 C45.3498387,61.4646596 45.7819355,61.0316084 45.3498387,60.5985572 C45.3498387,59.2446054 45.7819355,58.378503 45.7819355,57.1326928 L45.7819355,55.7249127 C46.2145161,54.4252741 46.2145161,53.1256355 46.2145161,52.2595331 C46.6466129,50.9055813 47.0787097,49.6059428 46.6466129,48.3063042 C47.0787097,47.873253 47.0787097,47.4940301 47.0787097,47.0071506 L47.0787097,45.707512 C47.5108065,44.4078735 47.5108065,43.4331446 47.5108065,42.6208705 C47.5108065,41.3212319 47.9970968,39.5885422 47.9970968,38.180762 C48.4296774,37.8015392 48.4296774,36.8811235 48.4296774,36.5019006 C48.4296774,35.5814849 48.4296774,34.7692108 48.8075806,33.8487952 C48.4296774,33.0365211 49.293871,31.6825693 48.8075806,30.7621536" id="Fill-1" fill="#55AA80"></path>
                <path d="M121.153065,25.0224066 C121.153065,24.101991 120.288871,23.7227681 119.424194,23.7227681 C118.937903,23.7227681 118.505806,24.101991 118.019516,24.101991 C117.641129,24.101991 117.154839,24.101991 117.154839,24.5893554 C117.154839,25.0224066 116.776935,25.0224066 116.776935,25.5097711 C116.290645,26.7550964 116.776935,28.1628765 116.776935,29.3543735 L116.776935,37.7477108 C116.776935,38.180762 116.290645,39.1011777 116.290645,39.4804006 C115.858548,40.346503 114.993871,40.346503 114.507581,40.346503 L114.129194,40.346503 C112.346129,40.346503 111.427742,40.346503 110.941452,38.5595 C110.617258,38.180762 110.617258,37.7477108 110.617258,36.8811235 C110.941452,36.8811235 110.941452,36.4480723 110.941452,36.4480723 C110.617258,35.0941205 110.941452,33.7944819 110.617258,32.4410151 C110.617258,30.654012 110.941452,28.9751506 110.617258,27.675512 L110.617258,27.2424608 C110.941452,26.3763584 110.617258,25.888994 110.617258,25.0224066 C110.617258,24.5893554 110.130968,24.101991 109.753065,23.7227681 C107.97,23.2354036 107.051129,23.2354036 106.186935,25.0224066 C105.700645,25.888994 105.700645,26.3763584 106.186935,27.2424608 L106.186935,29.3543735 C106.186935,30.654012 105.700645,32.4410151 106.186935,33.7944819 L106.186935,35.9607078 L106.186935,38.5595 L106.186935,39.4804006 C106.186935,41.2669187 105.700645,42.6208705 106.186935,44.4078735 L106.186935,51.3386325 C105.700645,52.7468976 105.700645,53.9922229 105.700645,55.400003 C105.700645,55.7792259 105.700645,56.6453283 106.565323,57.1326928 C106.186935,57.1326928 105.700645,57.565744 105.700645,57.9992801 C105.700645,58.8653825 105.700645,59.7862831 106.186935,61.0316084 C106.186935,61.9520241 107.051129,62.8186114 107.97,62.8186114 C109.266774,62.8186114 109.753065,62.4393886 110.130968,61.5189729 C110.941452,60.6523855 110.941452,59.7862831 110.617258,58.8653825 C110.617258,57.9992801 110.941452,57.1326928 110.617258,56.2665904 C110.941452,54.4795873 110.941452,53.1256355 110.617258,51.3386325 C110.617258,51.3386325 110.617258,51.3386325 110.617258,50.9598946 C110.941452,50.4725301 110.941452,49.5521145 110.617258,48.6855271 C110.617258,46.9528373 111.427742,45.707512 112.724516,45.2739759 C114.507581,44.7866114 116.776935,45.707512 116.776935,47.873253 L116.776935,49.1728916 C116.776935,49.5521145 116.776935,50.0394789 117.154839,50.0394789 C116.776935,50.9598946 116.776935,51.825997 116.776935,52.7468976 L116.776935,57.9992801 L116.776935,58.8653825 L116.776935,60.1650211 C116.776935,61.0316084 116.776935,61.9520241 117.641129,62.4393886 C118.505806,62.8186114 119.424194,62.8186114 120.288871,62.4393886 C121.153065,62.4393886 121.531452,61.5189729 121.531452,60.6523855 C121.531452,59.7862831 121.153065,59.2446054 121.153065,58.378503 C121.531452,56.6453283 121.531452,54.9126386 121.531452,53.1256355 L121.531452,47.873253 C121.531452,46.9528373 121.153065,46.5736145 121.153065,45.707512 C121.531452,44.4078735 121.531452,43.0000934 121.531452,41.7547681 L121.531452,32.0617922 L121.531452,26.7550964 C121.531452,26.3763584 121.531452,25.888994 121.153065,25.0224066" id="Fill-2" fill="#55AA80"></path>
                <path d="M133.039355,32.8212078 L133.039355,32.9278946 C133.027258,32.9278946 133.016613,32.9264398 133.005484,32.9259548 C133.016613,32.8910392 133.027742,32.8561235 133.039355,32.8212078 L133.039355,32.8212078 Z M134.389839,48.7398404 C133.849355,49.2272048 133.039355,49.2272048 132.606774,48.3063042 C131.742581,47.8194247 131.742581,47.3858886 131.742581,46.5197861 C132.120484,44.3535602 132.606774,42.1878193 133.039355,40.346503 L133.039355,37.3141747 L133.417258,37.3141747 L133.849355,37.3141747 C133.849355,38.6138133 134.389839,40.346503 134.822419,41.7004548 C134.822419,41.7004548 134.822419,41.7004548 134.822419,42.1878193 C134.822419,43.0539217 134.822419,43.920509 135.200323,44.7327831 C135.200323,45.2201476 135.200323,46.08625 135.686613,46.9528373 C135.686613,47.8194247 135.200323,48.3063042 134.389839,48.7398404 L134.389839,48.7398404 Z M142.710484,58.8115542 C142.224194,58.378503 142.224194,57.4576024 142.224194,57.0788645 L142.224194,56.6453283 C141.792097,55.3456898 141.359516,54.4252741 141.359516,53.0718072 C140.927419,50.4725301 140.062742,47.3858886 139.630645,44.7327831 C139.144355,42.6208705 138.712258,40.346503 138.225968,37.8015392 L138.225968,36.0145361 C137.847581,34.6610693 137.847581,33.7944819 137.415484,32.4948434 L137.415484,32.1161054 C137.415484,31.1952048 137.415484,30.7621536 136.983387,30.3291024 C136.497097,29.8960512 136.497097,28.9213223 136.497097,28.5420994 C136.497097,27.2424608 136.11871,26.3763584 136.11871,25.0767199 C135.686613,24.5893554 135.686613,24.2101325 135.200323,24.2101325 C134.822419,23.7770813 134.389839,23.7770813 133.417258,23.7770813 C133.417258,23.2897169 133.039355,23.2897169 132.606774,23.7770813 C131.31,24.2101325 130.391613,25.5097711 130.824194,26.8094096 C130.824194,26.8094096 130.824194,27.2424608 130.391613,27.2424608 C130.013226,28.1090482 130.013226,29.4625151 130.013226,30.3291024 L130.013226,31.628741 C129.527419,32.1161054 129.527419,32.9278946 129.527419,33.415744 C129.094839,35.202262 128.662742,37.3141747 128.230645,39.0468645 L128.230645,39.9677651 C128.230645,41.3212319 127.744355,43.0539217 127.311774,44.3535602 C126.447581,46.08625 126.933871,48.7398404 126.447581,50.4725301 C126.015,51.7721687 126.015,53.0718072 125.582903,54.0465361 C125.582903,55.3456898 125.150806,56.1579639 125.150806,57.0788645 C124.71871,58.378503 124.71871,59.7319699 124.71871,61.0316084 C124.71871,61.4646596 125.150806,61.8977108 125.582903,62.331247 C126.933871,62.7642982 129.094839,62.331247 129.527419,60.544244 C129.527419,60.1650211 130.013226,59.7319699 130.013226,59.2446054 C130.013226,58.378503 129.527419,57.4576024 130.013226,57.0788645 C130.391613,56.6453283 130.391613,56.6453283 130.391613,56.1579639 L130.391613,55.7249127 C131.31,54.4252741 132.120484,54.0465361 133.417258,54.0465361 C135.200323,54.0465361 136.11871,54.4252741 136.983387,56.1579639 C137.415484,57.4576024 137.415484,58.8115542 137.415484,60.1650211 C137.847581,61.8977108 139.144355,62.7642982 140.927419,62.7642982 C141.359516,62.7642982 141.792097,62.331247 142.224194,61.8977108 C142.710484,61.0316084 143.088871,60.1650211 142.710484,58.8115542 L142.710484,58.8115542 Z" id="Fill-3" fill="#55AA80"></path>
                <path d="M270.058548,25.0224066 C270.058548,24.101991 269.193871,23.7227681 268.329677,23.7227681 C267.843387,23.7227681 267.410806,24.101991 266.925,24.101991 C266.546613,24.101991 266.060323,24.101991 266.060323,24.5893554 C266.060323,25.0224066 265.681935,25.0224066 265.681935,25.5097711 C265.195645,26.7550964 265.681935,28.1628765 265.681935,29.3543735 L265.681935,37.7477108 C265.681935,38.180762 265.195645,39.1011777 265.195645,39.4804006 C264.763548,40.346503 263.899355,40.346503 263.412581,40.346503 L263.034677,40.346503 C261.251613,40.346503 260.333226,40.346503 259.846935,38.5595 C259.522742,38.180762 259.522742,37.7477108 259.522742,36.8811235 C259.846935,36.8811235 259.846935,36.4480723 259.846935,36.4480723 C259.522742,35.0941205 259.846935,33.7944819 259.522742,32.4410151 C259.522742,30.654012 259.846935,28.9751506 259.522742,27.675512 L259.522742,27.2424608 C259.846935,26.3763584 259.522742,25.888994 259.522742,25.0224066 C259.522742,24.5893554 259.036452,24.101991 258.658065,23.7227681 C256.875484,23.2354036 255.956613,23.2354036 255.092419,25.0224066 C254.606129,25.888994 254.606129,26.3763584 255.092419,27.2424608 L255.092419,29.3543735 C255.092419,30.654012 254.606129,32.4410151 255.092419,33.7944819 L255.092419,35.9607078 L255.092419,38.5595 L255.092419,39.4804006 C255.092419,41.2669187 254.606129,42.6208705 255.092419,44.4078735 L255.092419,51.3386325 C254.606129,52.7468976 254.606129,53.9922229 254.606129,55.400003 C254.606129,55.7792259 254.606129,56.6453283 255.470323,57.1326928 C255.092419,57.1326928 254.606129,57.565744 254.606129,57.9992801 C254.606129,58.8653825 254.606129,59.7862831 255.092419,61.0316084 C255.092419,61.9520241 255.956613,62.8186114 256.875484,62.8186114 C258.172258,62.8186114 258.658065,62.4393886 259.036452,61.5189729 C259.846935,60.6523855 259.846935,59.7862831 259.522742,58.8653825 C259.522742,57.9992801 259.846935,57.1326928 259.522742,56.2665904 C259.846935,54.4795873 259.846935,53.1256355 259.522742,51.3386325 C259.522742,51.3386325 259.522742,51.3386325 259.522742,50.9598946 C259.846935,50.4725301 259.846935,49.5521145 259.522742,48.6855271 C259.522742,46.9528373 260.333226,45.707512 261.63,45.2739759 C263.412581,44.7866114 265.681935,45.707512 265.681935,47.873253 L265.681935,49.1728916 C265.681935,49.5521145 265.681935,50.0394789 266.060323,50.0394789 C265.681935,50.9598946 265.681935,51.825997 265.681935,52.7468976 L265.681935,57.9992801 L265.681935,58.8653825 L265.681935,60.1650211 C265.681935,61.0316084 265.681935,61.9520241 266.546613,62.4393886 C267.410806,62.8186114 268.329677,62.8186114 269.193871,62.4393886 C270.058548,62.4393886 270.436935,61.5189729 270.436935,60.6523855 C270.436935,59.7862831 270.058548,59.2446054 270.058548,58.378503 C270.436935,56.6453283 270.436935,54.9126386 270.436935,53.1256355 L270.436935,47.873253 C270.436935,46.9528373 270.058548,46.5736145 270.058548,45.707512 C270.436935,44.4078735 270.436935,43.0000934 270.436935,41.7547681 L270.436935,32.0617922 L270.436935,26.7550964 C270.436935,26.3763584 270.436935,25.888994 270.058548,25.0224066" id="Fill-4" fill="#55AA80"></path>
                <path d="M150.923226,39.2636325 C151.409516,37.4766295 150.923226,35.7439398 150.923226,33.9569367 C150.490645,33.1446627 150.923226,32.224247 150.923226,30.8702952 C150.923226,30.0041928 151.409516,29.5711416 152.27371,29.1919187 C153.138387,28.7045542 154.056774,28.7045542 154.920968,29.1919187 C155.407742,29.5711416 155.785645,30.0041928 156.164032,30.0041928 C156.650323,30.0041928 156.650323,30.0041928 156.650323,30.4915572 L156.650323,31.3581446 L156.650323,33.4695723 C157.028226,35.7439398 157.028226,37.4766295 157.028226,39.2636325 C156.650323,40.5632711 155.785645,41.4293735 154.435161,41.9172229 C153.570484,42.4041024 153.138387,42.4041024 152.27371,41.9172229 L151.409516,41.9172229 C151.409516,41.0506355 150.490645,40.1302199 150.923226,39.2636325 L150.923226,39.2636325 Z M160.648548,28.2171898 C160.648548,27.8379669 159.675968,27.3510873 159.675968,26.5383283 C159.675968,26.5383283 159.675968,26.0514488 159.297581,26.0514488 C158.379194,25.1848614 157.514516,24.697497 156.164032,23.8852229 L155.785645,23.8852229 C154.435161,23.8852229 153.138387,23.3978584 151.787903,23.3978584 C150.490645,23.3978584 149.140161,23.8852229 147.843387,23.8852229 C146.97871,23.8852229 146.97871,24.2644458 146.492903,24.697497 C146.114516,25.1848614 146.114516,25.5640843 146.114516,26.0514488 C146.492903,27.3510873 146.114516,28.7045542 146.114516,30.0041928 C146.492903,31.8450241 146.114516,33.1446627 146.114516,34.8235241 C146.492903,37.0974066 146.114516,38.7762681 146.114516,41.0506355 C146.114516,41.4293735 146.492903,41.9172229 146.492903,42.4041024 C146.114516,43.2163765 146.114516,44.5703283 146.492903,45.4364307 L146.492903,46.3573313 C146.114516,47.2234337 146.114516,48.5230723 146.114516,49.8770241 C146.114516,50.3643886 146.492903,50.3643886 146.114516,50.7431265 L146.114516,52.5301295 C146.492903,53.017494 146.492903,53.3424036 146.114516,53.7754548 L146.114516,54.2628193 L146.114516,59.0821506 C146.114516,59.948738 146.114516,60.9234669 146.492903,61.3022048 C146.97871,62.6018434 148.275484,63.0892078 149.140161,62.6018434 C149.626452,62.6018434 150.490645,62.6018434 150.490645,61.735256 C150.923226,60.9234669 150.923226,59.948738 150.923226,59.0821506 C150.923226,57.782512 150.490645,55.995509 150.923226,54.6420422 C151.409516,53.7754548 151.409516,53.3424036 150.923226,52.5301295 C150.490645,52.0427651 150.490645,51.6635422 150.923226,51.1761777 L150.923226,49.0104367 C151.409516,48.0900211 151.787903,47.7107982 152.27371,47.7107982 C153.570484,47.7107982 154.920968,47.2234337 155.785645,47.2234337 C157.028226,47.2234337 158.000806,46.3573313 158.81129,45.4364307 C159.675968,44.5703283 160.162258,43.703741 160.648548,42.4041024 C161.026452,41.9172229 161.459032,41.4293735 161.459032,40.5632711 L161.459032,37.9101657 L161.459032,32.6572982 C161.459032,31.3581446 161.459032,29.5711416 160.648548,28.2171898 L160.648548,28.2171898 Z" id="Fill-5" fill="#55AA80"></path>
                <path d="M67.5556452,57.565744 C66.2046774,57.0245512 64.8541935,57.0245512 63.5574194,57.0245512 C62.2069355,57.565744 60.423871,57.0245512 59.9912903,55.7792259 C59.6133871,54.8583253 59.6133871,53.9379096 59.6133871,53.0718072 L59.6133871,50.3643886 C59.6133871,49.06475 59.6133871,48.2524759 59.9912903,46.8985241 C59.9912903,45.9781084 61.3422581,45.5450572 62.2069355,45.5450572 L66.2046774,45.5450572 C66.5830645,45.5450572 67.1772581,45.1115211 67.5556452,44.1911054 C68.4203226,43.3788313 67.9877419,42.0791928 67.5556452,41.1587771 C67.5556452,41.1587771 67.5556452,40.7257259 67.1772581,40.7257259 C66.5830645,40.7257259 65.7725806,39.8053102 64.8541935,39.8053102 C64.0437097,40.2926747 63.1253226,40.2926747 62.2069355,40.2926747 C60.9101613,40.2926747 59.6133871,38.9930361 59.6133871,37.6390843 L59.6133871,30.9789217 C59.6133871,30.058506 59.9912903,29.6792831 60.9101613,29.2462319 C61.3422581,28.7588675 61.7743548,28.3253313 62.6932258,28.3253313 C64.0437097,28.7588675 65.2862903,28.7588675 67.1772581,28.3253313 C68.4203226,28.3253313 69.2845161,27.5135422 69.2845161,25.6183976 C69.2845161,24.3725873 68.4203226,23.4521717 66.5830645,23.4521717 L61.7743548,23.4521717 L56.9119355,23.4521717 C56.1014516,23.4521717 55.1830645,23.8852229 55.1830645,25.1848614 C55.1830645,25.6183976 55.1830645,26.5926416 54.7504839,27.0261777 L54.7504839,32.7654398 C54.7504839,34.4986145 55.1830645,36.3394458 54.7504839,38.5595 L54.7504839,38.9930361 L54.7504839,40.2926747 C54.7504839,41.7004548 54.7504839,42.5127289 55.1830645,43.7580542 C54.7504839,44.6241566 55.1830645,45.5450572 54.7504839,46.4654729 L54.7504839,50.3643886 C54.7504839,51.7721687 55.1830645,52.6925843 54.7504839,53.5048584 L54.7504839,54.8583253 L54.7504839,60.1111928 C54.7504839,61.8977108 55.5609677,62.8186114 57.3440323,62.8186114 C60.423871,62.8186114 64.0437097,62.8186114 67.5556452,62.3850753 C68.4203226,62.3850753 69.2845161,61.4646596 69.2845161,60.6523855 C69.2845161,60.1111928 69.2845161,59.2989187 68.9066129,58.757241 C68.9066129,57.9449669 68.4203226,57.565744 67.5556452,57.565744" id="Fill-6" fill="#55AA80"></path>
                <path d="M179.397097,57.565744 C178.046129,57.0245512 176.695161,57.0245512 175.398871,57.0245512 C174.047903,57.565744 172.264839,57.0245512 171.832742,55.7792259 C171.454355,54.8583253 171.454355,53.9379096 171.454355,53.0718072 L171.454355,50.3643886 C171.454355,49.06475 171.454355,48.2524759 171.832742,46.8985241 C171.832742,45.9781084 173.18371,45.5450572 174.047903,45.5450572 L178.046129,45.5450572 C178.424032,45.5450572 179.01871,45.1115211 179.397097,44.1911054 C180.26129,43.3788313 179.829194,42.0791928 179.397097,41.1587771 C179.397097,41.1587771 179.397097,40.7257259 179.01871,40.7257259 C178.424032,40.7257259 177.614032,39.8053102 176.695161,39.8053102 C175.884677,40.2926747 174.96629,40.2926747 174.047903,40.2926747 C172.751129,40.2926747 171.454355,38.9930361 171.454355,37.6390843 L171.454355,30.9789217 C171.454355,30.058506 171.832742,29.6792831 172.751129,29.2462319 C173.18371,28.7588675 173.615806,28.3253313 174.534194,28.3253313 C175.884677,28.7588675 177.127742,28.7588675 179.01871,28.3253313 C180.26129,28.3253313 181.125968,27.5135422 181.125968,25.6183976 C181.125968,24.3725873 180.26129,23.4521717 178.424032,23.4521717 L173.615806,23.4521717 L168.752903,23.4521717 C167.942419,23.4521717 167.024032,23.8852229 167.024032,25.1848614 C167.024032,25.6183976 167.024032,26.5926416 166.591935,27.0261777 L166.591935,32.7654398 C166.591935,34.4986145 167.024032,36.3394458 166.591935,38.5595 L166.591935,38.9930361 L166.591935,40.2926747 C166.591935,41.7004548 166.591935,42.5127289 167.024032,43.7580542 C166.591935,44.6241566 167.024032,45.5450572 166.591935,46.4654729 L166.591935,50.3643886 C166.591935,51.7721687 167.024032,52.6925843 166.591935,53.5048584 L166.591935,54.8583253 L166.591935,60.1111928 C166.591935,61.8977108 167.402419,62.8186114 169.185484,62.8186114 C172.264839,62.8186114 175.884677,62.8186114 179.397097,62.3850753 C180.26129,62.3850753 181.125968,61.4646596 181.125968,60.6523855 C181.125968,60.1111928 181.125968,59.2989187 180.747581,58.757241 C180.747581,57.9449669 180.26129,57.565744 179.397097,57.565744" id="Fill-7" fill="#55AA80"></path>
                <path d="M202.186452,54.1488584 C202.186452,54.1507982 202.186935,54.152738 202.186935,54.1546777 L202.143387,54.1546777 C202.159839,54.1546777 202.171935,54.1503133 202.186452,54.1488584 L202.186452,54.1488584 Z M199.005968,27.3525422 C199.007419,27.353512 199.008387,27.353512 199.009839,27.353997 L199.009839,27.4049157 C199.009839,27.386488 199.007903,27.37 199.005968,27.3525422 L199.005968,27.3525422 Z M210.842419,24.7518102 C210.842419,24.2644458 210.464032,24.2644458 209.977742,23.8313946 C209.113548,23.8313946 208.248871,23.3978584 207.384677,23.3978584 C206.952097,23.3978584 206.03371,23.8313946 205.601613,23.8313946 C205.115323,23.8313946 204.736935,23.3978584 203.872742,23.3978584 C203.386452,23.3978584 203.008065,23.8313946 202.521774,23.8313946 C201.657581,23.3978584 200.792903,23.8313946 199.928226,23.3978584 L197.659355,23.3978584 C197.280968,23.3978584 196.794677,23.3978584 196.41629,23.8313946 C195.552097,25.1848614 195.065806,26.0514488 195.552097,27.4049157 C195.552097,27.8379669 195.93,28.271503 196.41629,28.7045542 C197.280968,28.7045542 197.659355,29.1376054 198.523548,29.1376054 C199.928226,29.1376054 200.792903,29.5711416 200.792903,30.9246084 C200.792903,32.224247 200.792903,33.5238855 201.279194,34.8773524 C201.279194,35.7439398 200.792903,36.176991 200.792903,36.6643554 C200.792903,38.3970452 201.279194,39.6966837 200.792903,41.4836867 C200.792903,42.3502741 200.792903,43.2163765 201.279194,43.5955994 C201.279194,44.9490663 200.306613,45.8156536 201.279194,46.682241 C201.279194,46.682241 201.279194,46.682241 201.279194,47.1691205 C200.792903,48.0357078 200.306613,48.9022952 200.792903,50.1476205 C201.279194,50.6349849 201.279194,50.6349849 201.279194,51.0680361 C200.792903,52.421988 200.792903,53.2880904 200.792903,54.1546777 C201.279194,55.8873675 200.792903,57.7281988 201.279194,59.0278373 C201.279194,60.3817892 200.792903,61.2478916 201.657581,62.1144789 C202.521774,62.9810663 204.250645,62.9810663 205.115323,62.1144789 C205.601613,61.2478916 205.601613,59.8944247 205.601613,59.0278373 L205.601613,52.421988 L205.601613,44.4621867 L205.601613,40.5632711 L205.601613,33.5238855 L205.601613,30.9246084 C206.03371,30.0041928 206.465806,29.5711416 206.952097,29.1376054 C207.870968,29.1376054 208.248871,28.7045542 209.113548,28.7045542 C209.977742,28.7045542 210.464032,28.271503 210.842419,27.8379669 C211.32871,27.4049157 211.32871,26.9718645 211.32871,26.5383283 C211.32871,25.6183976 211.32871,25.1848614 210.842419,24.7518102 L210.842419,24.7518102 Z" id="Fill-8" fill="#55AA80"></path>
                <path d="M216.126774,28.7588675 C216.125806,28.7748705 216.124839,28.7913584 216.123871,28.8078464 C216.110323,28.7918434 216.097258,28.7772952 216.083226,28.7588675 L216.126774,28.7588675 L216.126774,28.7588675 Z M227.537419,57.565744 C226.186452,57.0245512 224.835968,57.0245512 223.539194,57.0245512 C222.188226,57.565744 220.405161,57.0245512 219.973065,55.7792259 C219.595161,54.8583253 219.595161,53.9379096 219.595161,53.0718072 L219.595161,50.3643886 C219.595161,49.06475 219.595161,48.2524759 219.973065,46.8985241 C219.973065,45.9781084 221.324032,45.5450572 222.188226,45.5450572 L226.186452,45.5450572 C226.564839,45.5450572 227.159032,45.1115211 227.537419,44.1911054 C228.401613,43.3788313 227.969516,42.0791928 227.537419,41.1587771 C227.537419,41.1587771 227.537419,40.7257259 227.159032,40.7257259 C226.564839,40.7257259 225.754355,39.8053102 224.835968,39.8053102 C224.025484,40.2926747 223.106613,40.2926747 222.188226,40.2926747 C220.891452,40.2926747 219.595161,38.9930361 219.595161,37.6390843 L219.595161,30.9789217 C219.595161,30.058506 219.973065,29.6792831 220.891452,29.2462319 C221.324032,28.7588675 221.756129,28.3253313 222.674516,28.3253313 C224.025484,28.7588675 225.268065,28.7588675 227.159032,28.3253313 C228.401613,28.3253313 229.26629,27.5135422 229.26629,25.6183976 C229.26629,24.3725873 228.401613,23.4521717 226.564839,23.4521717 L221.756129,23.4521717 L216.893226,23.4521717 C216.083226,23.4521717 215.164355,23.8852229 215.164355,25.1848614 C215.164355,25.6183976 215.164355,26.5926416 214.732258,27.0261777 L214.732258,32.7654398 C214.732258,34.4986145 215.164355,36.3394458 214.732258,38.5595 L214.732258,38.9930361 L214.732258,40.2926747 C214.732258,41.7004548 214.732258,42.5127289 215.164355,43.7580542 C214.732258,44.6241566 215.164355,45.5450572 214.732258,46.4654729 L214.732258,50.3643886 C214.732258,51.7721687 215.164355,52.6925843 214.732258,53.5048584 L214.732258,54.8583253 L214.732258,60.1111928 C214.732258,61.8977108 215.542742,62.8186114 217.325806,62.8186114 C220.405161,62.8186114 224.025484,62.8186114 227.537419,62.3850753 C228.401613,62.3850753 229.26629,61.4646596 229.26629,60.6523855 C229.26629,60.1111928 229.26629,59.2989187 228.887903,58.757241 C228.887903,57.9449669 228.401613,57.565744 227.537419,57.565744 L227.537419,57.565744 Z" id="Fill-9" fill="#55AA80"></path>
                <path d="M246.404516,53.234262 C246.393387,53.2434759 246.381774,53.2522048 246.371613,53.2623886 L246.339677,53.234262 L246.404516,53.234262 L246.404516,53.234262 Z M237.705968,26.6469548 C237.684677,26.6750813 237.661935,26.7027229 237.641129,26.7313343 L237.641129,26.6469548 L237.705968,26.6469548 L237.705968,26.6469548 Z M238.991613,42.2959608 L238.991613,41.0506355 L238.991613,36.6643554 L238.991613,33.6320271 C238.991613,32.3323886 238.991613,31.4119729 239.85629,30.5453855 C240.234194,29.3000602 241.153065,28.8126958 242.449839,29.3000602 C243.314032,29.3000602 244.17871,30.1666476 244.610806,30.9789217 C244.610806,31.8993373 244.610806,32.7654398 245.042903,33.6320271 C245.042903,34.4986145 245.475484,34.9316657 246.339677,34.9316657 L247.636452,34.9316657 C248.933226,34.4986145 249.419516,34.0650783 249.419516,32.7654398 L249.419516,31.4119729 C249.419516,29.7335964 248.933226,27.9465934 247.258548,26.6469548 C247.258548,26.2139036 246.825968,26.2139036 246.825968,25.7803675 C246.825968,25.3473163 246.339677,24.9142651 245.907581,24.9142651 C242.881935,22.314988 238.073226,23.6146265 235.965968,26.6469548 C234.615484,27.9465934 234.182903,30.1666476 234.615484,32.3323886 C234.615484,33.6320271 234.182903,35.3647169 234.182903,37.0974066 C234.615484,38.3970452 234.182903,39.6966837 234.182903,41.4836867 C234.615484,44.0829639 234.182903,46.682241 234.615484,49.7145693 L234.615484,55.8330542 C234.615484,58.4323313 235.965968,60.2193343 238.073226,61.5189729 C238.991613,62.3850753 240.234194,62.8186114 242.017258,62.8186114 C243.746613,62.8186114 245.042903,62.3850753 246.339677,61.0316084 C247.258548,60.2193343 248.068548,59.352747 248.501129,57.9992801 C249.419516,57.1326928 249.419516,55.8330542 249.419516,54.5339006 L249.419516,52.3676747 C249.419516,51.9346235 248.933226,51.9346235 248.501129,51.5010873 L245.475484,51.5010873 C245.042903,51.9346235 244.610806,51.9346235 245.042903,52.3676747 C245.042903,53.6673133 244.610806,54.5339006 244.17871,55.400003 C244.17871,56.7539548 243.314032,57.1326928 242.017258,57.1326928 C240.666774,57.1326928 239.85629,56.7539548 239.424194,55.400003 C239.424194,54.9669518 239.424194,54.5339006 238.991613,54.1003645 C239.424194,52.3676747 238.991613,50.6349849 238.991613,48.9022952 L238.991613,46.682241 L238.991613,42.2959608 L238.991613,42.2959608 Z" id="Fill-10" fill="#55AA80"></path>
                <path d="M91.0001613,39.0119488 C90.9812903,38.9877018 90.9629032,38.9629699 90.9440323,38.9387229 L91.0045161,38.9387229 C91.0045161,38.9649096 91.0030645,38.9891566 91.0001613,39.0119488 L91.0001613,39.0119488 Z M99.8656452,49.5521145 C99.4330645,47.8194247 99.0009677,46.4654729 98.0825806,44.7327831 C97.2179032,44.2454187 96.7858065,43.4331446 95.8674194,42.9457801 C94.9490323,41.5918283 94.5706452,40.6714127 93.2196774,39.8591386 C92.7875806,39.3717741 92.3012903,38.5056717 91.9233871,38.0183072 C91.4908065,37.2060331 91.0045161,36.7186687 90.5724194,35.8520813 C90.1403226,34.9316657 89.6540323,34.0650783 89.6540323,33.1446627 C89.6540323,33.1446627 90.1403226,33.1446627 90.1403226,32.7116114 C90.1403226,32.7116114 90.1403226,32.7116114 90.1403226,32.2785602 C89.6540323,30.9789217 90.1403226,29.6249699 91.9233871,28.7045542 C92.3012903,28.3253313 92.3012903,28.3253313 92.3012903,27.8379669 C92.2248387,27.7506777 92.1803226,27.6813313 92.1566129,27.6255633 C92.2079032,27.6178042 92.2596774,27.6095602 92.3114516,27.6018012 C92.3806452,28.3238765 92.8548387,28.3253313 93.6522581,28.3253313 C93.6522581,28.3253313 94.1385484,28.3253313 94.1385484,28.7045542 C94.9490323,29.1376054 95.4353226,30.058506 95.8674194,30.4915572 L95.8674194,30.9789217 C95.4353226,31.7911958 95.8674194,32.2785602 96.2995161,33.1446627 C96.2995161,33.1446627 96.2995161,33.6320271 96.7858065,33.6320271 C97.7041935,33.6320271 98.5146774,34.0650783 99.4330645,33.6320271 C99.8656452,33.1446627 100.351935,32.7116114 100.351935,32.2785602 L100.351935,30.9789217 C100.351935,30.4915572 100.351935,29.6249699 99.8656452,29.1376054 C99.8656452,27.4049157 99.0009677,26.0514488 97.7041935,24.7518102 C96.7858065,23.8313946 95.4353226,23.3978584 94.1385484,23.8313946 C93.6522581,23.8313946 93.6522581,23.8313946 93.6522581,23.3978584 L92.3012903,23.3978584 C90.5724194,23.3978584 88.8435484,23.8313946 87.438871,25.1310331 C86.5741935,26.0514488 85.71,26.9718645 85.71,28.3253313 C85.2774194,29.1376054 85.2774194,30.4915572 84.791129,31.3581446 L84.791129,31.7911958 C85.2774194,33.1446627 85.2774194,34.0650783 85.2774194,34.9316657 C85.2774194,35.8520813 85.2774194,37.2060331 85.71,38.0183072 C86.5741935,39.3717741 87.0062903,40.6714127 88.3572581,41.5918283 C88.8435484,42.5127289 88.8435484,42.9457801 89.6540323,43.4331446 C89.6540323,43.8123675 90.1403226,44.7327831 91.0045161,44.7327831 C91.4908065,46.08625 92.7875806,46.4654729 93.6522581,47.8194247 C94.9490323,49.5521145 95.4353226,51.825997 95.8674194,54.0465361 C95.8674194,55.3456898 95.4353226,55.7792259 94.9490323,56.2665904 C94.5706452,56.6996416 94.1385484,57.1326928 93.6522581,57.6200572 L92.7875806,57.6200572 C91.9233871,58.0535934 91.0045161,57.1326928 90.1403226,56.6996416 L90.1403226,56.2665904 C90.1403226,54.9669518 89.2214516,53.613 89.2214516,52.3138464 C89.2214516,52.3138464 89.2214516,51.825997 88.8435484,51.3929458 C88.3572581,50.9598946 87.438871,50.9598946 86.5741935,50.9598946 C86.0879032,51.3929458 85.2774194,51.3929458 85.2774194,52.3138464 C85.2774194,52.6925843 85.2774194,52.6925843 84.791129,52.6925843 C84.3590323,53.1256355 84.791129,54.0465361 84.791129,54.4795873 C84.791129,54.9669518 84.791129,55.3456898 85.2774194,55.7792259 C84.791129,57.1326928 85.71,58.0535934 86.0879032,58.9196958 C86.5741935,60.2736476 87.438871,61.1940633 88.8435484,62.0063373 L89.6540323,62.0063373 C90.1403226,62.0063373 90.1403226,62.0063373 90.5724194,62.4937018 L91.4908065,62.4937018 L92.3012903,62.4937018 C92.7875806,62.926753 93.2196774,62.926753 93.6522581,62.4937018 L94.9490323,62.4937018 C95.8674194,62.0063373 97.2179032,62.0063373 98.0825806,61.1940633 C99.4330645,59.8401114 100.351935,58.0535934 100.351935,55.7792259 C100.351935,54.0465361 100.784032,51.825997 99.8656452,49.5521145 L99.8656452,49.5521145 Z" id="Fill-11" fill="#55AA80"></path>
                <path d="M33.8327419,86.3716506 C33.2632258,87.1082741 32.2717742,87.4821627 30.8864516,87.4821627 L28.2058065,87.4821627 L28.2058065,78.9108524 L30.8530645,78.9108524 C32.1454839,78.9108524 33.123871,79.2420663 33.761129,79.8952801 C34.4003226,80.5509187 34.7240323,81.5251627 34.7240323,82.7903705 C34.7240323,84.4018253 34.4245161,85.6064157 33.8327419,86.3716506 L33.8327419,86.3716506 Z M28.2058065,89.701247 L31.1012903,89.701247 C32.4174194,89.701247 33.4059677,90.087744 34.1235484,90.8825602 C34.8406452,91.6773765 35.2040323,92.8470512 35.2040323,94.3595783 C35.2040323,97.7730693 34.0137097,99.4325331 31.5643548,99.4325331 L28.2058065,99.4325331 L28.2058065,89.701247 L28.2058065,89.701247 Z M34.233871,88.517509 C36.1504839,87.7197831 37.1201613,85.8096054 37.1201613,82.8233464 C37.1201613,80.8283042 36.5680645,79.2900753 35.4779032,78.2503645 C34.3925806,77.215988 32.8369355,76.6917681 30.8530645,76.6917681 L25.8595161,76.6917681 L25.8595161,101.651617 L31.7791935,101.651617 C33.6193548,101.651617 35.0724194,100.992099 36.0991935,99.6905211 C37.106129,98.4151295 37.6166129,96.632491 37.6166129,94.3930392 C37.6166129,92.6331928 37.2546774,91.2322018 36.5404839,90.2283765 C35.9898387,89.4553825 35.2166129,88.8821837 34.233871,88.517509 L34.233871,88.517509 Z" id="Fill-12" fill="#55AA80"></path>
                <polyline id="Fill-13" fill="#55AA80" points="43.5701613 101.651617 53.0612903 101.651617 53.0612903 99.3665813 45.9164516 99.3665813 45.9164516 89.7342229 52.6640323 89.7342229 52.6640323 87.4487018 45.9164516 87.4487018 45.9164516 78.9772892 53.0612903 78.9772892 53.0612903 76.6917681 43.5701613 76.6917681 43.5701613 101.651617"></polyline>
                <path d="M67.7796774,83.8014699 C67.7796774,85.4924548 67.4095161,86.7722108 66.678871,87.6058223 C65.9506452,88.437009 64.9306452,88.8409639 63.5612903,88.8409639 L61.6582258,88.8409639 L61.6582258,79.0102651 L63.0982258,79.0102651 C64.7327419,79.0102651 65.9346774,79.3822139 66.671129,80.1144729 C67.4066129,80.8467319 67.7796774,82.0872078 67.7796774,83.8014699 L67.7796774,83.8014699 Z M69.221129,88.0543916 C69.8433871,86.9220572 70.1593548,85.4691777 70.1593548,83.7350331 C70.1593548,81.42575 69.5733871,79.6562048 68.4183871,78.4748916 C67.2604839,77.2916386 65.4319355,76.6917681 62.9825806,76.6917681 L59.3119355,76.6917681 L59.3119355,101.651617 L61.6582258,101.651617 L61.6582258,91.0605331 L64.1322581,91.0605331 L68.6472581,101.651617 L71.261129,101.651617 L66.3909677,90.5101265 C67.6867742,89.9408072 68.6375806,89.1159247 69.221129,88.0543916 L69.221129,88.0543916 Z" id="Fill-14" fill="#55AA80"></path>
                <g id="Group-18">
                    <mask id="mask-2" fill="white">
                        <use xlink:href="#path-1"></use>
                    </mask>
                    <g id="Clip-16"></g>
                    <path d="M87.5569355,76.6917681 L87.5569355,93.9949036 C87.5569355,94.7989337 87.5762903,95.7392319 87.615,96.8041596 L79.113871,76.6917681 L76.41,76.6917681 L76.41,101.651617 L78.7233871,101.651617 L78.7233871,83.9008825 C78.7233871,83.0730904 78.7001613,82.2186265 78.6527419,81.3457349 L87.1993548,101.651617 L89.8703226,101.651617 L89.8703226,76.6917681 L87.5569355,76.6917681" id="Fill-15" fill="#55AA80" mask="url(#mask-2)"></path>
                    <path d="M294.585,15.995253 C294.555,17.1722018 294.525968,19.9552711 294.497419,23.5181235 C294.492097,24.173762 294.486774,24.8555873 294.481935,25.55875 C294.433065,32.1786627 294.387097,40.4211837 294.337258,46.5702199 C294.309194,50.0695452 294.280161,52.7987861 294.250161,53.9611867 C294.181935,56.6104127 294.108387,59.2591536 294.00629,61.9069247 C293.985968,62.4374488 294.448548,63.6425241 294.426774,64.5081416 C294.41129,65.1390482 293.910968,65.3621205 293.895,66.1312349 C293.737258,73.5658464 293.561129,82.3180392 293.442097,86.0569247 C293.321613,89.8564277 293.296935,93.6593253 293.225323,97.4607681 C293.212258,98.1716898 293.187581,98.8826114 293.152742,99.5925633 C293.129516,100.071199 293.102419,100.864075 293.074355,101.854807 C293.03129,103.368304 292.984839,105.342009 292.942258,107.358389 C292.863387,111.101639 292.797097,109.171093 292.787903,110.52844 C292.77,113.175241 292.949032,120.67338 293.04,123.321151 C293.055484,123.777964 292.887581,124.045651 292.372742,124.026738 C291.606774,123.999096 290.838871,123.979214 290.073387,124.004916 C289.442419,124.026253 288.815323,124.140214 288.184355,124.172705 C287.680645,124.198892 287.169677,124.200346 286.669355,124.144578 C286.28371,124.101904 285.906774,123.858464 285.531774,123.871072 C284.701935,123.898229 283.875484,124.103358 283.048065,124.100934 C282.137419,124.098509 281.227742,123.92684 280.315161,123.870587 C280.063065,123.855069 279.803226,123.994732 279.544355,124.0505 C279.266613,124.111117 278.987419,124.164461 278.706774,124.207136 C278.200161,124.283271 277.602097,124.205681 277.205806,124.45397 C276.623226,124.81913 276.214355,124.740569 275.912419,124.243991 C275.609516,123.744988 275.370968,123.510277 274.858548,123.982123 C274.736613,124.09463 274.500968,124.127605 274.319516,124.123241 C273.599032,124.105783 272.87129,124.111117 272.161452,124.004431 C271.690161,123.93363 271.249839,123.558286 270.787258,123.541313 C268.960161,123.472937 267.129677,123.506883 265.301129,123.470512 C264.68129,123.457904 264.062903,123.350247 263.444032,123.286235 L263.444032,123.434627 C261.967258,123.40456 260.490484,123.366735 259.01371,123.36431 C253.608387,123.354127 248.203065,123.37013 242.797742,123.357521 C241.925323,123.355581 241.053387,123.206705 240.181452,123.213494 C237.942097,123.229982 235.702258,123.345398 233.463387,123.326485 C231.525968,123.309997 229.590968,123.115536 227.653548,123.087895 C225.444194,123.055889 223.232419,123.084015 221.023548,123.158211 C219.421935,123.212524 217.822742,123.374494 216.225,123.515611 C216.007742,123.534524 215.704839,123.653819 215.610484,123.821608 C214.785968,125.290491 214.015161,126.789925 213.198871,128.263657 C211.063548,132.118443 208.928226,135.947042 205.749194,139.116608 C203.046774,141.810449 200.308548,144.426699 197.105806,146.513395 C193.861452,148.627247 190.394516,150.316777 186.817258,151.773536 C182.563548,153.504771 178.279839,155.157931 173.734355,155.981358 C173.502581,156.023548 173.244677,155.917831 172.998387,155.880491 C173.095645,155.673907 173.159032,155.440651 173.294516,155.264133 C174.239516,154.03481 175.330645,152.897142 176.128548,151.58053 C178.320484,147.96191 179.590645,143.974735 180.376452,139.836744 C180.655645,138.364952 180.861774,136.861639 180.908226,135.367054 C180.976452,133.169307 181.750645,130.996292 181.195161,128.781087 C180.737903,126.957229 180.644516,124.960247 178.807258,123.76875 C178.573065,123.616479 178.519355,123.12572 178.460323,122.778503 C178.409032,122.47687 178.597742,122.021512 178.447258,121.87603 C178.23,121.665566 177.800323,121.591855 177.465,121.601554 C175.41871,121.660232 173.371935,121.860997 171.328548,121.823172 C166.767097,121.738792 162.209032,121.502142 157.647581,121.404184 C154.429839,121.334837 151.20871,121.39012 147.989516,121.39012 C142.403226,121.390605 136.817419,121.386241 131.231129,121.394485 C130.305968,121.39594 129.380806,121.43037 128.455161,121.458012 C127.770968,121.419702 127.08629,121.39594 126.402097,121.398849 C119.422258,121.427946 112.442419,121.51863 105.462097,121.518145 C100.757903,121.51766 96.0522581,121.43813 91.3485484,121.324169 C87.8240323,121.238334 84.3019355,121.023991 80.7779032,120.900331 C78.348871,120.814982 75.9179032,120.768428 73.4874194,120.735937 C68.561129,120.669985 63.6348387,120.618581 58.7085484,120.575907 C57.2627419,120.563783 55.8154839,120.632645 54.3696774,120.611307 C50.6496774,120.556509 46.9301613,120.47019 43.2101613,120.400358 C40.8856452,120.356714 38.561129,120.30822 36.236129,120.285428 C33.3343548,120.256816 30.4316129,120.278154 27.5303226,120.22869 C26.8112903,120.216566 26.0927419,120.198623 25.3741935,120.178256 C25.3040323,120.130247 25.2358065,120.098241 25.181129,120.099211 C24.7625806,120.10697 24.3440323,120.118608 23.9254839,120.133157 C22.5333871,120.087572 21.1412903,120.036169 19.7491935,119.992524 L19.7491935,120.340711 C17.8495161,120.456611 15.9517742,120.618581 14.0506452,120.668045 C12.3682258,120.712175 10.6819355,120.598699 8.99709677,120.567663 C8.47935484,120.557964 7.95387097,120.643313 7.44677419,120.575907 C7.23580645,120.54778 6.92225806,120.251482 6.89612903,120.046352 C6.74225806,118.851946 6.6633871,117.648325 6.55354839,116.448099 C6.39048387,114.669825 6.22258065,105.952548 6.05903226,100.270509 C6.02951613,99.2443765 6,98.5067831 5.97096774,98.185753 C5.93419355,97.7827681 5.89403226,97.2100542 5.85241935,96.5311386 C5.67241935,93.5851295 5.46725806,88.6372892 5.42322581,86.8881114 C5.36322581,84.5313042 5.52870968,86.5326506 5.60177419,84.1724488 C5.60854839,83.9571355 5.62209677,80.1993373 5.63758065,76.3954699 C5.64,75.8678554 5.64193548,75.339756 5.64387097,74.8194157 C5.64725806,74.1089789 5.65016129,73.4140602 5.65306452,72.7584217 C5.66419355,70.3448765 5.67483871,68.4686446 5.68354839,68.3183133 C5.79725806,66.388253 6.465,66.8833765 6.48532258,64.9518614 C6.50370968,63.1808614 5.82387097,58.9841928 5.79048387,57.211253 C5.74983871,55.0314488 5.79435484,48.0003072 5.77596774,45.8195331 C5.76048387,43.9336024 5.74645161,42.0467018 5.6666129,40.1631958 C5.49193548,36.0644849 5.20548387,21.300494 5.10048387,17.2003283 C5.0283871,14.3619759 5.175,11.5178042 5.25145161,8.67702711 C5.25774194,8.45104518 5.4333871,8.08588554 5.60709677,8.03205723 C6.88354839,7.63440663 8.16145161,7.19408133 9.47322581,6.97100904 C11.2214516,6.67325602 12.9967742,6.47588554 14.7677419,6.38714157 C16.4264516,6.30421687 18.0875806,6.2765753 19.7491935,6.25669277 L19.7491935,6.33040361 C21.2695161,6.41672289 22.788871,6.54232229 24.3106452,6.58063253 C27.4809677,6.66016265 30.6522581,6.70380723 33.8230645,6.74211747 C36.4727419,6.77412349 39.1219355,6.77363855 41.7716129,6.79691566 C42.8085484,6.80564458 43.8469355,6.88371988 44.8819355,6.84831928 C45.9164516,6.81291867 46.946129,6.62379217 47.9806452,6.59227108 C50.2422581,6.52389458 52.5062903,6.51371084 54.7693548,6.47734036 C59.1972581,6.40605422 63.6270968,6.37598795 68.0535484,6.24747892 C71.2204839,6.15534036 74.3825806,5.89541265 77.5490323,5.77272289 C81.3082258,5.62675602 85.0703226,5.53801205 88.8314516,5.44296386 C90.7979032,5.3935 92.7658065,5.38137651 94.7332258,5.35421988 C99.1654839,5.29360241 103.598226,5.19079518 108.030484,5.19031024 C110.844194,5.19031024 113.658871,5.4264759 116.472097,5.40901807 C121.094516,5.37992169 125.715484,5.16121386 130.337419,5.15248494 C134.302258,5.14521084 138.266613,5.34452108 142.232419,5.40610843 C145.180161,5.45169277 148.130323,5.46721084 151.078065,5.41629217 C151.421613,5.41047289 151.765645,5.40271386 152.109194,5.39495482 C152.336129,5.47981928 152.719839,5.45072289 153.369677,5.42550602 C156.894677,5.28729819 160.423548,5.17721687 163.950968,5.18012651 C167.478871,5.1825512 171.005806,5.36197892 174.534194,5.41532229 C177.318871,5.45751205 180.105484,5.46769578 182.889677,5.41677711 C184.237742,5.39253012 185.585806,5.35276506 186.933387,5.30960542 C188.868387,5.4410241 190.802419,5.58844578 192.737419,5.72859337 C196.167097,5.97688253 199.614194,6.04622892 203.054032,6.06756627 L220.570161,5.86777108 C222.583065,5.85370783 224.595484,5.84691867 226.608387,5.83770482 C229.551774,5.99288554 232.504355,6.03071084 235.452581,6.0704759 C238.019032,6.10490663 240.587903,5.98949096 243.15629,5.94827108 C246.535645,5.89444277 249.915,5.82170181 253.294839,5.80521386 C256.677581,5.78824096 260.060806,5.81782229 263.444032,5.83237048 L263.444032,5.83625 C263.460484,5.83528012 263.477419,5.8338253 263.493871,5.83237048 C263.75129,5.8338253 264.008226,5.83528012 264.265645,5.83625 L264.265645,5.77757229 C264.401129,5.77078313 264.536613,5.76641867 264.672097,5.77223795 C267.044516,5.86825602 269.418387,5.95554518 271.788387,6.09714759 C274.156452,6.23875 276.522097,6.42448193 278.886774,6.61942771 C281.898871,6.86820181 284.909516,7.13346386 287.91871,7.41521386 C289.981935,7.60870482 292.040323,7.8535994 294.103548,8.05048494 C294.637258,8.10140361 294.812903,8.38024398 294.798387,8.86130422 C294.727258,11.2389639 294.645484,13.6166235 294.585,15.995253 L294.585,15.995253 Z M298.460323,5.04337349 C298.052903,4.99633434 297.632419,4.99051506 297.243871,4.87606928 C296.993226,4.80187349 296.794355,4.55940361 296.565,4.40325301 C296.238387,4.18066566 295.920968,3.81114157 295.572097,3.77525602 C292.338387,3.44210241 289.098871,3.15889759 285.859839,2.87860241 C284.606613,2.77046084 283.348065,2.72584639 282.094355,2.61964458 C279.055161,2.36165663 276.020323,2.03965663 272.977742,1.82967771 C270.90871,1.68662048 268.829032,1.70165361 266.755645,1.6172741 C266.142581,1.59205723 265.533387,1.46839759 264.922742,1.38983735 L263.444032,1.38983735 L263.444032,1.54938253 C262.439032,1.54307831 261.434032,1.53483434 260.429032,1.54016867 C254.909516,1.56878012 249.39,1.59254217 243.870968,1.64200602 C241.001613,1.66770783 238.131774,1.81221988 235.263871,1.77875904 C232.496613,1.74675301 229.728871,1.64200602 226.963548,1.50428313 L226.963548,1.38983735 C226.803871,1.4160241 226.644194,1.46257831 226.483548,1.46548795 C226.409032,1.46645783 226.334032,1.46742771 226.259032,1.46888253 C226.042258,1.45724398 225.825,1.44754518 225.608226,1.43590663 C221.194839,1.19877108 216.786774,0.878225904 212.375323,0.610539157 C211.612258,0.56398494 210.843387,0.62411747 210.079355,0.591626506 C209.625484,0.572228916 209.175484,0.467966867 208.723548,0.40153012 L203.629355,0.40153012 C203.34629,0.475725904 203.065161,0.606174699 202.779677,0.616358434 C199.310323,0.741472892 195.840968,0.883560241 192.370161,0.952421687 C190.595323,0.987822289 188.820484,1.02176807 187.045161,1.04795482 C184.806774,0.901018072 182.568871,0.746322289 180.330484,0.610539157 C179.567903,0.56398494 178.799516,0.62411747 178.035484,0.591626506 C177.581613,0.572228916 177.131613,0.467966867 176.680161,0.40153012 L171.585968,0.40153012 C171.138871,0.48251506 170.69371,0.616843373 170.24371,0.634786145 C168.305806,0.710436747 166.365968,0.747777108 164.427097,0.807424699 C164.300323,0.811304217 164.173065,0.815668675 164.04629,0.820033133 C162.478065,0.833126506 160.909355,0.904412651 159.340645,0.922355422 C157.043226,0.947572289 154.745323,0.954361446 152.447903,0.953391566 C152.208871,0.952906627 152.042903,1.00237048 151.935,1.10614759 C147.030484,1.07996084 142.126452,0.973274096 137.221935,0.910716867 C134.380161,0.873861446 131.537903,0.807424699 128.696129,0.819548193 C124.979516,0.835551205 121.262419,0.973759036 117.54629,0.950481928 C114.485323,0.931084337 111.425323,0.678915663 108.364355,0.66436747 C104.28871,0.64496988 100.212581,0.742927711 96.1369355,0.814213855 C90.5583871,0.911201807 84.978871,0.979578313 79.4027419,1.15852108 C75.8003226,1.27393675 72.2046774,1.60466566 68.6027419,1.76421084 C65.7619355,1.88981024 62.9158065,1.91599699 60.071129,1.96012651 C55.7535484,2.02704819 51.4354839,2.08184639 47.1174194,2.1235512 C41.4343548,2.1783494 35.7512903,2.22005422 30.0682258,2.25836446 C28.9291935,2.26612349 27.7896774,2.27000301 26.6506452,2.27388253 L26.6506452,2.21326506 C24.5569355,2.21229518 22.4627419,2.21471988 20.3690323,2.20308133 C20.2170968,2.20259639 20.0651613,2.10221386 19.9132258,2.04838554 L17.2843548,2.04838554 C17.0796774,2.11918675 16.878871,2.23896687 16.6708065,2.25303012 C14.7087097,2.38638855 12.7470968,2.54641867 10.7820968,2.60170181 C9.8883871,2.62691867 8.94822581,2.22150904 8.09854839,2.3820241 C5.85241935,2.80586145 3.62419355,3.36402711 1.42790323,4.00366265 C0.110322581,4.38773494 -0.125806452,4.98033133 0.195,6.31537048 C0.876290323,9.15032831 0.848709677,12.0095331 0.619354839,14.8929849 C0.480483871,16.6407078 0.394354839,29.0740783 0.467419355,30.823256 C0.57483871,33.3769488 -0.128225806,39.4818554 0.0208064516,43.0539217 C0.0459677419,43.6523373 0.551612903,44.6644066 0.568548387,45.0916386 C0.579193548,45.3554458 1.07322581,45.1614699 1.08193548,45.4766807 C1.19322581,49.3212831 1.19758065,56.6855783 1.25758065,59.9050934 C1.27887097,61.0558554 1.33983871,62.2066175 1.33596774,63.3573795 C1.33064516,65.0367259 1.33548387,66.7165572 1.31516129,68.3959036 C1.30935484,68.8822982 1.3016129,69.3682078 1.29048387,69.8546024 C1.28032258,70.3196596 1.26725806,70.7847169 1.25080645,71.2492892 C1.15016129,74.0687289 0.85016129,76.8818645 0.799354839,79.7008193 C0.76016129,81.8583163 0.946451613,84.5075422 1.08241935,86.6655241 C0.958548387,84.6961837 1.44532258,97.0131687 1.61225806,107.311349 C1.62532258,108.129443 1.15596774,106.997593 1.17096774,107.78853 C1.18451613,108.472295 1.19854839,109.142967 1.21354839,109.796181 C1.29629032,113.434684 1.40370968,112.151533 1.53822581,113.815846 C1.72306452,116.105247 1.965,118.392708 2.04629032,120.685988 C2.08596774,121.808139 1.81741935,122.941443 1.68096774,124.136334 C1.98,124.080081 2.27370968,123.960301 2.55483871,123.984548 C3.41903226,124.058744 4.44096774,123.715407 4.89435484,124.950063 C4.98145161,125.188169 5.62741935,125.340925 6.00967742,125.329771 C8.22145161,125.265274 10.4303226,125.117367 12.6420968,125.047051 C13.4564516,125.021349 14.2780645,125.194473 15.0924194,125.165861 C16.8382258,125.105244 18.5825806,124.97722 20.3269355,124.867139 C20.9782258,124.825919 21.6290323,124.785669 22.2803226,124.742509 C23.921129,124.784214 25.5619355,124.832223 27.2032258,124.846771 C30.0648387,124.872473 32.9269355,124.832708 35.7880645,124.859864 C38.658871,124.886536 41.5291935,124.964127 44.4,125.014075 C47.7909677,125.072753 51.1814516,125.140645 54.5724194,125.177015 C56.9753226,125.202717 59.3791935,125.156163 61.7820968,125.187199 C68.1803226,125.269639 74.5785484,125.354018 80.9762903,125.483012 C84.4137097,125.552843 87.8482258,125.782705 91.2851613,125.822955 C96.6624194,125.885512 102.041129,125.870964 107.418871,125.848657 C112.302581,125.828289 117.18629,125.726452 122.070484,125.712389 C124.005484,125.707054 125.940484,125.754093 127.875484,125.805497 L127.875484,126.085792 C128.276613,126.009172 128.677258,125.871449 129.079839,125.86563 C129.315484,125.862235 129.551613,125.859325 129.787258,125.855931 C129.885968,125.858355 129.984677,125.861265 130.083387,125.86369 C130.179194,125.866114 130.262903,125.860295 130.338387,125.848172 C134.311935,125.792404 138.285484,125.738575 142.259032,125.725482 C144.735,125.717238 147.211452,125.831199 149.687903,125.833139 C152.600806,125.835563 155.515161,125.709479 158.426613,125.762337 C161.529677,125.819075 164.628871,126.06397 167.732419,126.14447 C170.546613,126.217211 173.364194,126.198783 176.180323,126.176476 C176.963226,126.170172 177.450968,126.433494 177.593226,127.212307 C177.764516,128.150666 178.048548,129.095813 178.038871,130.035142 C178.013226,132.524822 178.012258,135.031961 177.716129,137.49788 C177.18629,141.912286 175.929677,146.093922 173.325,149.810015 C171.121452,152.95388 168.463065,155.558006 165.193065,157.561292 C164.850484,157.771271 164.588226,158.290157 164.524839,158.70284 C164.495323,158.892452 165.011129,159.213482 165.324194,159.400184 C166.249355,159.9535 167.19629,160.469476 168.135,161 L168.628065,161 C168.985645,160.817178 169.324355,160.558705 169.70371,160.465111 C171.183387,160.099952 172.678065,159.795895 174.162097,159.449163 C174.745645,159.312895 175.315161,159.116979 175.894839,158.962768 C178.026774,158.393934 180.191613,157.926452 182.284839,157.240262 C184.377097,156.554557 186.402581,155.661298 188.450323,154.84272 C189.883548,154.269521 191.347742,153.75306 192.722419,153.060566 C194.603226,152.112994 196.413387,151.023334 198.252581,149.991867 C198.912097,149.622343 199.607419,149.299858 200.215645,148.858563 C201.354194,148.032711 202.487419,147.187946 203.538871,146.255407 C205.030161,144.932491 206.475,143.552352 207.87871,142.135843 C208.41871,141.590771 208.457903,140.566578 209.519516,140.501111 C209.697097,140.489958 209.878065,140.179111 210.018871,139.979801 C210.689032,139.029319 211.393548,138.09872 211.996935,137.107018 C212.915323,135.597401 213.772258,134.049958 214.629677,132.50397 C214.876452,132.05928 214.981452,131.532151 215.246613,131.102009 C215.686935,130.388663 216.265161,129.756786 216.674032,129.028407 C217.137581,128.201584 217.647097,127.663786 218.707742,127.786476 C219.313548,127.856792 219.949839,127.600259 220.573065,127.597349 C223.717258,127.583771 226.861935,127.585226 230.005645,127.622566 C231.616935,127.641964 233.226774,127.786961 234.838065,127.801509 C236.49,127.816542 238.143871,127.689973 239.795323,127.719554 C241.921935,127.75738 244.047097,127.966873 246.172742,127.964449 C251.450323,127.957175 256.727419,127.861157 262.005,127.829636 C262.757903,127.825271 263.511774,127.980937 264.265645,128.061922 L264.265645,127.91353 C268.554677,127.99791 272.844194,128.071136 277.132258,128.182187 C278.933226,128.228741 280.730323,128.406714 282.530806,128.461997 C284.13871,128.511461 285.750484,128.43581 287.357903,128.485759 C289.323387,128.546377 291.285968,128.689434 293.250968,128.778178 C293.85,128.805334 294.455806,128.808729 295.050484,128.746172 C295.282742,128.721925 295.666452,128.506127 295.684839,128.343187 C295.782581,127.483389 296.45129,127.261286 297.070161,127.008633 C297.774677,126.722033 297.990968,126.335051 297.924677,125.512593 C297.799839,123.949148 297.679355,116.513566 297.577258,108.480539 C297.560323,107.140651 297.543871,110.149217 297.527903,108.800599 C297.450484,102.230151 296.902742,97.3012229 296.859677,93.9333163 C296.847097,92.9100934 297.319839,92.1652259 297.310645,91.778244 C297.249194,89.1071958 297.470806,81.7385361 297.551613,79.0636084 C297.600968,77.4429398 297.639194,70.5155753 297.676935,66.1317199 C297.684194,65.3286596 297.690968,64.6109488 297.698226,64.0270813 C297.704516,63.4887982 297.71129,63.063991 297.718065,62.7904849 C297.77371,60.4986596 297.810968,58.2063494 297.887419,55.915494 C297.977419,53.2080753 297.613065,50.9870512 297.725806,48.2810873 C297.839032,45.5746386 298.942742,42.8686747 299.04,40.1622259 C299.160484,36.796744 298.770484,28.0959548 298.870161,24.729988 C298.936452,22.4852018 298.983387,20.2399307 299.056452,17.9951446 C299.146935,15.2033464 299.251452,12.4120331 299.358387,9.62120482 C299.400968,8.50050904 299.428065,7.37690361 299.532581,6.26154217 C299.612419,5.41677711 299.18371,5.12678313 298.460323,5.04337349 L298.460323,5.04337349 Z" id="Fill-17" fill="#55AA80" mask="url(#mask-2)"></path>
                </g>
            </g>
        </g>
    </g>
</svg>