<?xml version="1.0" encoding="UTF-8"?>
<svg width="410px" height="510px" viewBox="0 0 410 510" version="1.1" xmlns="http://www.w3.org/2000/svg" xmlns:xlink="http://www.w3.org/1999/xlink">
    <!-- Generator: Sketch 47.1 (45422) - http://www.bohemiancoding.com/sketch -->
    <title>Barbara</title>
    <desc>Created with Sketch.</desc>
    <defs>
        <radialGradient cx="65.1832678%" cy="36.5028321%" fx="65.1832678%" fy="36.5028321%" r="16.7967417%" gradientTransform="translate(0.651833,0.365028),scale(0.999996,1.000000),translate(-0.651833,-0.365028)" id="radialGradient-1">
            <stop stop-color="#262626" stop-opacity="0.653061" offset="0%"></stop>
            <stop stop-color="#262626" offset="100%"></stop>
        </radialGradient>
        <polygon id="path-2" points="0.4374 0.301 315.604 0.301 315.604 315.468 0.4374 315.468"></polygon>
    </defs>
    <g id="Planungstage-'17-framed" stroke="none" stroke-width="1" fill="none" fill-rule="evenodd">
        <g id="Barbara">
            <g id="Gertrud" transform="translate(3.000000, 1.000000)">
                <g id="Layer-1" fill-rule="nonzero">
                    <path d="M387.758,53.812 L384.631,489.251 C381.68,489.431 376.416,489.765 373.167,489.946 C361.346,490.6 347.777,491.21 332.729,491.821 C283.173,493.835 232.045,494.831 180.843,494.601 C180.03,494.604 179.224,494.666 178.411,494.67 C124.877,494.387 71.301,492.619 19.4381,489.181 C19.3862,482.066 16.2535,55.2358 16.242,54.09 C16.2518,53.9558 11.7424,54.1048 11.74,54.1848 C11.7388,54.2718 9.074,142.775 8.1821,195.484 C7.3623,243.929 6.2379,295.344 4.847,348.204 C3.8136,387.475 0.8621,483.415 0.5392,493.003 C0.4261,496.358 0.1269,504.685 0.1223,504.814 C0.0519,506.808 1.7472,508.449 3.7353,508.289 C9.5794,507.817 15.443,507.39 21.3835,506.968 C125.298,499.584 236.278,499.881 340.858,504.814 C357.077,505.58 371.708,506.357 384.492,507.177 C388.965,507.464 400.093,508.275 400.264,508.289 C402.253,508.444 403.952,506.807 403.877,504.814 C403.873,504.692 402.806,474.059 402.418,462.361 C401.311,428.938 400.186,392.422 399.153,353.971 C397.361,287.29 395.99,221.953 395.192,160.744 C394.696,122.649 393.173,87.386 393.173,54.3036 C393.173,52.0881 387.774,51.5967 387.758,53.812 Z" id="Shape" fill-opacity="0.5" fill="#262626"></path>
                    <path d="M12.9208,53.7843 L391.121,53.7843 L387.969,492.361 C387.969,492.361 202.021,504.967 16.0724,492.361 L12.9208,53.7843 Z" id="Shape" stroke="#262626" stroke-width="5" fill="#FFFFFF" stroke-linecap="round" stroke-linejoin="round"></path>
                    <polygon id="Shape" stroke="#262626" stroke-width="3" fill-opacity="0.0969388" fill="#262626" stroke-linecap="round" stroke-linejoin="round" points="44.4374 85.301 359.604 85.301 359.604 400.468 44.4374 400.468"></polygon>
                    <path d="M166.321,24.7689 C159.914,24.769 154.718,29.9653 154.718,36.3723 C154.718,42.7794 159.914,47.9756 166.321,47.9756 C168.249,47.9756 170.002,47.4178 171.602,46.586 L199.742,73.6142 C200.406,74.2519 201.251,74.5349 202.104,74.5174 C202.957,74.4999 203.759,74.1397 204.397,73.4753 C205.035,72.8108 205.387,71.9662 205.37,71.1129 C205.352,70.2595 204.992,69.3884 204.327,68.7505 L176.327,41.9308 C177.262,40.2582 177.925,38.4247 177.925,36.3723 C177.925,29.9653 172.728,24.7689 166.321,24.7689 Z" id="Shape" fill-opacity="0.5" fill="#262626"></path>
                    <path d="M186.262,23.9025 L202.021,71.1775" id="Shape" stroke="#262626" stroke-width="5" fill="#262626" stroke-linecap="round" stroke-linejoin="round"></path>
                    <path d="M170.504,12.3016 C170.504,5.8945 175.698,0.7007 182.105,0.7007 C188.512,0.7007 193.706,5.8945 193.706,12.3016 C193.706,18.7086 188.512,23.9026 182.105,23.9026 C175.698,23.9026 170.504,18.7086 170.504,12.3016 Z" id="Shape" stroke="#262626" stroke-width="3" fill="url(#radialGradient-1)" stroke-linecap="round" stroke-linejoin="round"></path>
                </g>
                <g id="Layer-3" transform="translate(105.000000, 117.000000)" fill-rule="nonzero">
                    <path d="M81.25,0.562 C96,-0.334 109.041,3.636 120.219,10.812 C123.755,13.083 126.829,15.509 129.438,17.938 C130.347,18.784 131.156,19.58 131.812,20.281 C132.2,20.695 132.443,20.981 132.562,21.125 C132.903,21.534 133.444,21.712 133.969,21.625 C153.119,18.468 167.992,21.845 178.938,30.719 C188.252,38.27 194.498,49.663 197.812,63.594 C200.55,75.099 201.103,87.828 199.719,98.438 C199.124,102.998 198.198,106.824 197.125,109.281 C196.642,110.387 196.136,111.158 195.719,111.531 C195.527,111.702 195.566,111.689 195.562,111.688 C189.35,108.581 184.203,112.75 179.844,121.25 C179.477,121.965 179.164,122.871 178.844,123.562 C179.81,96.646 171.187,76.985 155.906,63.688 C150.847,59.285 145.422,55.904 140,53.438 C138.098,52.572 136.342,51.879 134.75,51.344 C133.783,51.019 133.079,50.816 132.688,50.719 C132.002,50.549 131.279,50.897 130.969,51.531 C130.908,51.655 130.778,51.908 130.562,52.281 C130.195,52.918 129.753,53.635 129.219,54.406 C127.685,56.62 125.773,58.838 123.5,60.906 C117.667,66.214 110.378,69.465 101.656,70.094 C102.153,69.298 102.657,68.514 103.125,67.688 C103.648,66.763 104.115,65.861 104.531,65 C106.418,61.098 107.056,58.293 105.625,56.531 C103.825,54.314 100,55.21 93.562,58.844 C90.797,60.405 88.71,61.367 87.25,61.781 C86.649,61.952 86.208,62.017 85.906,62 C85.845,61.997 85.86,61.998 85.844,62 C85.827,61.812 85.831,61.543 85.906,61.188 C86.068,60.43 86.435,59.433 87,58.156 C87.139,57.842 88.262,55.427 88.469,54.969 C88.83,54.167 89.073,53.566 89.219,53.062 C89.499,52.096 89.521,51.398 88.906,50.719 C88.149,49.882 87.245,49.96 86.188,50.469 C84.282,51.386 82.325,52.068 78.812,53.062 C68.785,55.902 65.114,57.355 59.656,61.625 C58.663,62.402 57.701,63.253 56.75,64.156 C43.339,69.058 34.655,78.969 30.469,92.469 C27.654,101.547 27.102,111.933 28.312,121.969 C27.938,121.398 27.565,120.697 27.156,120.125 C22.588,113.727 17.907,110.552 13.031,112.219 C11.897,111.807 10.702,111.531 9.406,111.531 C7.792,111.531 6.464,112.28 5.344,113.469 C5.327,113.412 5.33,113.37 5.312,113.312 C4.616,110.958 3.933,108.277 3.281,105.344 C0.241,91.657 -0.753,77.533 1.531,64.375 C3.897,50.748 9.637,39.27 19.375,30.625 C41.308,11.154 61.994,1.732 81.25,0.562 Z" id="Shape" fill-opacity="0.753401" fill="#262626"></path>
                    <path d="M85.719,53.812 C85.491,54.315 84.394,56.611 84.25,56.938 C82.625,60.613 82.192,62.725 83.719,64.188 C85.491,65.886 88.93,64.899 95.062,61.438 C97.958,59.803 100.149,58.856 101.688,58.5 C102.309,58.356 102.787,58.324 103.094,58.375 C103.244,58.4 103.299,58.421 103.312,58.438 C103.662,58.868 103.19,60.904 101.844,63.688 C101.457,64.487 101.024,65.316 100.531,66.188 C99.877,67.344 99.171,68.509 98.469,69.594 C98.223,69.973 97.575,70.906 97.531,70.969 C96.837,71.963 97.537,73.344 98.75,73.344 C109.617,73.344 118.52,69.505 125.531,63.125 C127.982,60.895 130.03,58.517 131.688,56.125 C132.349,55.171 132.633,54.612 133,53.969 C133.254,54.048 133.487,54.089 133.781,54.188 C135.279,54.691 136.944,55.366 138.75,56.188 C143.921,58.54 149.11,61.737 153.938,65.938 C169.9,79.828 178.383,100.895 175.438,130.812 C175.386,131.333 175.398,131.627 175.469,131.938 C175.534,132.225 175.632,132.493 175.906,132.75 C176.154,132.982 176.477,133.118 176.781,133.156 C177.085,133.194 177.382,133.14 177.656,133 C178.031,132.808 178.194,132.599 178.375,132.281 C178.56,131.956 178.683,131.621 179.219,130.219 C180.026,128.104 180.649,126.811 181.312,125.344 C181.444,125.852 181.74,126.293 182.281,126.438 C183.082,126.651 183.911,126.175 184.125,125.375 C184.144,125.304 184.21,125.159 184.281,124.938 C184.403,124.557 184.539,124.117 184.719,123.656 C185.232,122.338 185.883,121.032 186.656,119.812 C188.778,116.464 191.42,114.531 194.656,114.531 C198.914,114.531 201.043,125.855 198.469,138.094 C196.163,149.058 191.127,156.751 184.375,158.969 C184.922,157.435 185.555,155.803 186.5,153.906 C186.869,153.165 186.585,152.276 185.844,151.906 C185.473,151.722 185.051,151.691 184.688,151.812 C184.324,151.934 183.997,152.192 183.812,152.562 C183.494,153.201 183.37,153.699 183.094,154.312 C182.261,156.158 181.434,158.001 180.969,159.594 C180.857,159.599 180.738,159.591 180.625,159.594 C181.607,157.907 182.453,156.158 183.094,154.312 C183.666,152.664 184.107,150.952 184.406,149.156 C184.542,148.339 183.973,147.574 183.156,147.438 C182.339,147.301 181.574,147.87 181.438,148.688 C180.354,155.19 177.312,160.506 172.219,165.375 C168.14,169.275 163.486,172.422 154.906,177.438 C154.553,177.644 150.654,179.915 149.5,180.594 C137.707,187.525 130.993,192.504 125.469,199.469 C118.338,208.458 114.966,219.439 115.719,233.562 C115.763,234.39 116.485,235.044 117.312,235 C118.14,234.956 118.763,234.233 118.719,233.406 C118.582,230.841 118.73,228.5 118.875,226.156 C126.92,232.1 129.491,236.263 128.094,239.25 C126.796,242.023 122.322,244.492 113.531,247.562 C112.639,247.874 112.24,248.935 112.719,249.75 L112.812,249.906 C108.308,253.74 105.321,264.603 103.25,280.906 C103.207,281.244 103.193,281.623 103.156,281.969 L101.688,281.969 C101.621,281.497 101.571,280.997 101.5,280.531 C99.391,266.786 95.945,256.854 90.875,251.656 L91.656,250.5 C92.203,249.685 91.833,248.574 90.906,248.25 C81.984,245.134 75.643,241.578 74,238.344 C72.371,235.137 76.344,231.645 87.531,228.156 C87.616,230.133 87.791,232.011 87.719,234.156 C87.691,234.984 88.328,235.691 89.156,235.719 C89.984,235.747 90.691,235.109 90.719,234.281 C90.813,231.486 90.602,228.977 90.438,226.438 C90.526,226.108 90.531,225.818 90.406,225.5 C89.528,214.191 86.189,205.26 80.281,198.219 C74.607,191.455 68.08,187.197 55.625,181 C55.184,180.781 52.971,179.687 52.656,179.531 C42.787,174.642 38.101,171.922 33.594,167.938 C27.824,162.837 24.268,156.711 22.844,148.656 C22.699,147.84 21.909,147.293 21.094,147.438 C20.278,147.582 19.762,148.372 19.906,149.188 C20.572,152.951 21.772,156.269 23.312,159.344 C22.3,159.35 21.328,159.24 20.375,159 C19.78,155.988 18.53,153.301 16.625,152.031 C16.28,151.801 15.876,151.737 15.5,151.812 C15.124,151.888 14.761,152.124 14.531,152.469 C14.072,153.158 14.279,154.072 14.969,154.531 C15.749,155.052 16.339,156.179 16.812,157.5 C11.711,154.323 7.808,147.416 5.812,138.094 C3.183,125.809 5.189,114.531 9.406,114.531 C12.642,114.531 15.285,116.464 17.406,119.812 C18.179,121.032 18.831,122.338 19.344,123.656 C19.523,124.117 19.66,124.557 19.781,124.938 C19.852,125.159 19.887,125.304 19.906,125.375 C20.12,126.175 20.95,126.651 21.75,126.438 C22.55,126.224 23.026,125.394 22.812,124.594 C22.699,124.169 22.474,123.459 22.125,122.562 C21.546,121.076 20.823,119.617 19.938,118.219 C19.243,117.123 18.474,116.169 17.656,115.312 C19.897,116.246 22.252,118.39 24.719,121.844 C25.997,123.633 27.032,125.322 28.375,127.688 C29.173,129.093 29.19,129.125 29.375,129.406 C29.457,129.531 29.51,129.622 29.594,129.719 C29.674,129.811 29.765,129.886 29.875,129.969 C30.161,130.183 30.502,130.331 30.969,130.281 C31.637,130.211 32.076,129.766 32.25,129.25 C32.32,129.042 32.348,128.869 32.344,128.688 C32.34,128.533 32.317,128.389 32.281,128.219 C29.864,116.671 30.012,103.987 33.312,93.344 C37.3,80.483 45.551,71.199 58.406,66.719 C58.808,66.579 59.09,66.295 59.25,65.938 C59.993,65.253 60.734,64.568 61.5,63.969 C66.552,60.016 69.962,58.673 79.625,55.938 C82.474,55.131 84.033,54.515 85.719,53.812 Z" id="Shape" fill="#FFFFFF"></path>
                    <path d="M127.031,229.312 C134.823,232.802 139.075,236.839 140.125,241.25 C141.378,246.514 138.225,252.421 132.062,258.375 C130.19,260.184 128.168,261.852 126.156,263.344 C125.657,263.714 125.223,264.036 124.781,264.344 L116.219,249.75 C124.594,246.693 129.149,244.057 130.812,240.5 C132.377,237.156 131.043,233.512 127.031,229.312 Z" id="Shape" fill-opacity="0.797619" fill="#262626"></path>
                    <path d="M138,232.875 C158.637,235.234 172.709,252.42 178.688,281.969 L106.156,281.969 C106.182,281.759 106.192,281.521 106.219,281.312 C108.118,266.363 110.917,255.977 114.375,252.531 L123,267.25 C123.429,267.98 124.378,268.201 125.094,267.75 C125.245,267.655 125.531,267.473 125.906,267.219 C126.524,266.8 127.199,266.329 127.938,265.781 C130.047,264.217 132.151,262.438 134.125,260.531 C140.977,253.911 144.6,247.15 143.031,240.562 C142.37,237.785 140.53,235.258 138,232.875 Z" id="Shape" fill-opacity="0.797619" fill="#262626"></path>
                    <path d="M71.656,233.438 C70.313,235.408 70.223,237.482 71.344,239.688 C73.33,243.598 79.469,247.199 88.125,250.406 L87.906,250.719 C87.899,250.727 87.913,250.742 87.906,250.75 L78,265.438 C77.74,265.162 77.502,264.906 77.219,264.594 C75.677,262.893 74.156,261.031 72.719,259.031 C69.496,254.547 67.277,250.133 66.531,246.094 C65.577,240.929 67.177,236.694 71.656,233.438 Z" id="Shape" fill-opacity="0.797619" fill="#262626"></path>
                    <path d="M64.219,238.062 C63.689,239.475 63.311,240.947 63.25,242.531 C63.2,243.843 63.331,245.203 63.594,246.625 C64.434,251.175 66.823,255.97 70.281,260.781 C71.79,262.88 73.386,264.845 75,266.625 C75.566,267.249 76.089,267.798 76.562,268.281 C76.85,268.574 77.071,268.795 77.188,268.906 C77.524,269.229 77.953,269.358 78.375,269.312 C78.797,269.267 79.209,269.043 79.469,268.656 L89.156,254.25 C93.421,259.015 96.575,268.251 98.531,281 C98.579,281.314 98.61,281.653 98.656,281.969 L29.719,281.969 C29.8,281.674 29.855,281.356 29.938,281.062 C37.161,255.352 48.416,239.688 64.219,238.062 Z" id="Shape" fill-opacity="0.797619" fill="#262626"></path>
                </g>
                <g id="Layer-3_2" transform="translate(44.000000, 85.000000)">
                    <g id="Clipped">
                        <mask id="mask-3" fill="white">
                            <use xlink:href="#path-2"></use>
                        </mask>
                        <g id="Mask"></g>
                        <g id="Group" mask="url(#mask-3)" stroke-linecap="round" stroke="#262626" stroke-linejoin="round">
                            <g transform="translate(59.000000, 30.000000)" id="Shape">
                                <path d="M59.592,67.388 C70.04,57.349 80.769,57.712 88.829,53.834 C94.31,51.196 75.697,73.782 96.31,62.145 C117.15,50.381 100.759,73.839 100.759,73.839 C124.693,73.839 134.32,54.189 134.32,54.189 C134.32,54.189 185.452,66.838 178.941,132.974 C178.399,138.486 184.925,109.04 196.892,115.024 C206.671,119.914 219.216,8.388 135.713,22.155 C135.713,22.155 91.184,-31.33 20.392,31.518 C-13.46,61.571 6.825,118.707 6.825,118.707" stroke-width="5" fill="none"></path>
                                <path d="M14.914,115.722 C24.496,111.485 33.408,133.412 32.804,130.526 C28.457,109.758 31.005,77.37 59.904,67.299" stroke-width="5" fill="none"></path>
                                <path d="M23.206,327.067 C23.206,327.067 27.405,238.466 68.758,238.258" stroke-width="5" fill="none"></path>
                                <path d="M135.513,233.032 C168.577,233.376 186.952,267.529 185.382,327.067" stroke-width="5" fill="none"></path>
                                <path d="M27.655,162.762 C4.486,166.794 -0.564,115.024 11.403,115.024 C20.174,115.024 23.37,126.991 23.37,126.991" stroke-width="5" fill="none"></path>
                                <path d="M91.206,236.219 C93.28,174.948 30.779,192.818 23.37,150.925" stroke-width="5" fill="none"></path>
                                <path d="M179.97,163.026 C204.331,166.71 208.617,115.024 196.649,115.024 C187.879,115.024 184.683,126.991 184.683,126.991" stroke-width="5" fill="none"></path>
                                <path d="M119.221,235.491 C116.283,180.338 178.941,186.826 184.925,150.925" stroke-width="5" fill="none"></path>
                                <path d="M92.397,251.672 L80.227,269.811 C80.227,269.811 43.64,234.742 91.078,228.021 C61.184,236.584 76.77,246.214 92.397,251.672 Z" stroke-width="5" fill="none"></path>
                                <path d="M116.016,250.982 L126.299,268.476 C126.299,268.476 168.731,241.764 121.758,226.944 C139.653,240.165 131.643,245.523 116.016,250.982 Z" stroke-width="5" fill="none"></path>
                                <path d="M17.787,155.287 C24.265,159.606 20.771,183.411 14.622,163.426" stroke-width="3" fill="none"></path>
                                <path d="M187.166,155.234 C176.202,177.246 193.966,174.286 191.428,163.627" stroke-width="3" fill="none"></path>
                                <path d="M91.029,253.711 C104.65,265.597 104.343,314.419 104.343,314.419 C104.343,314.419 105.733,259.795 116.283,252.584" stroke-width="5" fill="none"></path>
                                <path d="M193.432,146.389 C197.62,135.526 197.62,121.567 194.585,121.324 C192.836,121.184 190.579,125.694 190.579,125.694" stroke-width="3" fill="none"></path>
                                <path d="M13.464,145.945 C9.277,135.081 9.277,121.122 12.311,120.879 C14.06,120.739 16.317,125.249 16.317,125.249" stroke-width="3" fill="none"></path>
                                <path d="M100.867,135.368 C95.666,146.6 81.031,145.555 76.585,151.46 C71.371,158.385 82.48,168.707 92.232,163.082" stroke-width="5" fill="none"></path>
                                <path d="M67.66,123.485 C67.66,113.407 73.106,105.237 79.825,105.237 C86.543,105.237 91.99,113.407 91.99,123.485 C91.99,133.562 86.543,141.732 79.825,141.732 C73.106,141.732 67.66,133.562 67.66,123.485 Z" stroke-width="5" fill="none"></path>
                                <path d="M78.771,127.748 C78.771,126.068 80.132,124.706 81.812,124.706 C83.492,124.706 84.853,126.068 84.853,127.748 C84.853,129.427 83.492,130.789 81.812,130.789 C80.132,130.789 78.771,129.427 78.771,127.748 Z" stroke-width="5" fill="#262626" fill-rule="nonzero"></path>
                                <path d="M75.217,182.279 C75.217,182.279 124.917,184.583 137.2,157.967 C139.136,153.771 131.304,186.179 115.772,188.357" stroke-width="5" fill="none"></path>
                                <path d="M95.375,157.455 C98.502,159.214 98.578,160.494 98.578,164.001" stroke-width="5" fill="none"></path>
                                <path d="M107.061,123.495 C107.061,113.417 112.507,105.247 119.225,105.247 C125.944,105.247 131.39,113.417 131.39,123.495 C131.39,133.572 125.944,141.742 119.225,141.742 C112.507,141.742 107.061,133.572 107.061,123.495 Z" stroke-width="5" fill="none"></path>
                                <path d="M117.928,127.97 C117.928,126.29 119.289,124.929 120.969,124.929 C122.649,124.929 124.01,126.29 124.01,127.97 C124.01,129.65 122.649,131.011 120.969,131.011 C119.289,131.011 117.928,129.65 117.928,127.97 Z" stroke-width="5" fill="#262626" fill-rule="nonzero"></path>
                                <path d="M137.711,95.576 C114.39,75.312 107.028,93.175 108.284,92.176 C123.265,80.263 138.552,96.102 138.552,96.102" stroke-width="5" fill="none"></path>
                                <path d="M61.651,95.576 C84.972,75.312 92.334,93.175 91.078,92.176 C76.097,80.263 60.811,96.102 60.811,96.102" stroke-width="5" fill="none"></path>
                            </g>
                        </g>
                    </g>
                </g>
            </g>
            <text id="BARBARA" font-family="HaveaGreatDay, Have a Great Day" font-size="48" font-weight="normal" fill="#000000">
                <tspan x="115.860562" y="465">BARBARA</tspan>
            </text>
        </g>
    </g>
</svg>