<?xml version="1.0" encoding="UTF-8"?>
<svg width="410px" height="510px" viewBox="0 0 410 510" version="1.1" xmlns="http://www.w3.org/2000/svg" xmlns:xlink="http://www.w3.org/1999/xlink">
    <!-- Generator: Sketch 47.1 (45422) - http://www.bohemiancoding.com/sketch -->
    <title>Bruno</title>
    <desc>Created with Sketch.</desc>
    <defs>
        <radialGradient cx="65.1832678%" cy="36.5028321%" fx="65.1832678%" fy="36.5028321%" r="16.7967417%" gradientTransform="translate(0.651833,0.365028),scale(0.999996,1.000000),translate(-0.651833,-0.365028)" id="radialGradient-1">
            <stop stop-color="#262626" stop-opacity="0.653061" offset="0%"></stop>
            <stop stop-color="#262626" offset="100%"></stop>
        </radialGradient>
        <polygon id="path-2" points="0.4374 0.301 315.604 0.301 315.604 315.468 0.4374 315.468"></polygon>
    </defs>
    <g id="Planungstage-'17-framed" stroke="none" stroke-width="1" fill="none" fill-rule="evenodd">
        <g id="Bruno">
            <g transform="translate(3.000000, 1.000000)">
                <g id="Layer-1" fill-rule="nonzero">
                    <path d="M387.758,53.812 L384.631,489.251 C381.68,489.431 376.416,489.765 373.167,489.946 C361.346,490.6 347.777,491.21 332.729,491.821 C283.173,493.835 232.045,494.831 180.843,494.601 C180.03,494.604 179.224,494.666 178.411,494.67 C124.877,494.387 71.301,492.619 19.4381,489.181 C19.3862,482.066 16.2535,55.2358 16.242,54.09 C16.2518,53.9558 11.7424,54.1048 11.74,54.1848 C11.7388,54.2718 9.074,142.775 8.1821,195.484 C7.3623,243.929 6.2379,295.344 4.847,348.204 C3.8136,387.475 0.8621,483.415 0.5392,493.003 C0.4261,496.358 0.1269,504.685 0.1223,504.814 C0.0519,506.808 1.7472,508.449 3.7353,508.289 C9.5794,507.817 15.443,507.39 21.3835,506.968 C125.298,499.584 236.278,499.881 340.858,504.814 C357.077,505.58 371.708,506.357 384.492,507.177 C388.965,507.464 400.093,508.275 400.264,508.289 C402.253,508.444 403.952,506.807 403.877,504.814 C403.873,504.692 402.806,474.059 402.418,462.361 C401.311,428.938 400.186,392.422 399.153,353.971 C397.361,287.29 395.99,221.953 395.192,160.744 C394.696,122.649 393.173,87.386 393.173,54.3036 C393.173,52.0881 387.774,51.5967 387.758,53.812 Z" id="Shape" fill-opacity="0.5" fill="#262626"></path>
                    <path d="M12.9208,53.7843 L391.121,53.7843 L387.969,492.361 C387.969,492.361 202.021,504.967 16.0724,492.361 L12.9208,53.7843 Z" id="Shape" stroke="#262626" stroke-width="5" fill="#FFFFFF" stroke-linecap="round" stroke-linejoin="round"></path>
                    <polygon id="Shape" stroke="#262626" stroke-width="3" fill-opacity="0.0969388" fill="#262626" stroke-linecap="round" stroke-linejoin="round" points="44.4374 85.301 359.604 85.301 359.604 400.468 44.4374 400.468"></polygon>
                    <path d="M166.321,24.7689 C159.914,24.769 154.718,29.9653 154.718,36.3723 C154.718,42.7794 159.914,47.9756 166.321,47.9756 C168.249,47.9756 170.002,47.4178 171.602,46.586 L199.742,73.6142 C200.406,74.2519 201.251,74.5349 202.104,74.5174 C202.957,74.4999 203.759,74.1397 204.397,73.4753 C205.035,72.8108 205.387,71.9662 205.37,71.1129 C205.352,70.2595 204.992,69.3884 204.327,68.7505 L176.327,41.9308 C177.262,40.2582 177.925,38.4247 177.925,36.3723 C177.925,29.9653 172.728,24.7689 166.321,24.7689 Z" id="Shape" fill-opacity="0.5" fill="#262626"></path>
                    <path d="M186.262,23.9025 L202.021,71.1775" id="Shape" stroke="#262626" stroke-width="5" fill="#262626" stroke-linecap="round" stroke-linejoin="round"></path>
                    <path d="M170.504,12.3016 C170.504,5.8945 175.698,0.7007 182.105,0.7007 C188.512,0.7007 193.706,5.8945 193.706,12.3016 C193.706,18.7086 188.512,23.9026 182.105,23.9026 C175.698,23.9026 170.504,18.7086 170.504,12.3016 Z" id="Shape" stroke="#262626" stroke-width="3" fill="url(#radialGradient-1)" stroke-linecap="round" stroke-linejoin="round"></path>
                </g>
                <g id="Layer-3" transform="translate(100.000000, 136.000000)" fill-rule="nonzero">
                    <path d="M98.188,0.406 C103.207,0.669 107.166,1.849 110.188,3.625 C111.339,4.302 112.239,5.023 112.938,5.719 C113.167,5.948 113.359,6.137 113.5,6.312 C113.567,6.395 113.601,6.448 113.594,6.438 C114.462,7.765 116.316,7.933 117.438,6.812 C117.657,6.593 118.283,6.152 119.344,5.656 C122.486,4.188 126.794,3.712 132.406,4.875 C161.514,10.908 178.294,29.332 185.469,56.562 C189.643,72.407 190.112,89.316 188.406,104.812 C188.238,106.338 188.054,107.651 187.875,108.875 C187.428,108.836 186.96,108.712 186.531,108.719 C185.941,108.728 185.438,108.97 184.875,109.062 C181.623,109.161 178.738,109.7 176.625,111.094 C176.823,95.637 174.238,83.386 168.781,74.188 C163.546,65.361 156.158,59.508 146.406,55.281 C143.713,54.114 140.929,53.102 137.594,52.031 C135.961,51.507 130.61,49.855 129.688,49.562 C121.939,47.103 119.216,45.278 119.031,42.219 C118.917,40.33 116.827,39.221 115.219,40.219 C115.179,40.244 115.026,40.342 114.781,40.469 C114.335,40.701 113.781,40.954 113.094,41.25 C111.899,41.765 110.072,42.311 108.469,42.844 C108.465,42.802 108.472,42.76 108.469,42.719 C108.31,40.946 107.903,39.531 107.031,38.469 C105.543,36.656 103.269,36.6 101.156,38.062 C90.298,45.58 69.878,49.906 48.5,49.906 C31.844,49.906 20.351,58.511 13.906,73.5 C9.461,83.839 7.749,96.889 8.156,110.062 C7.585,109.815 7.018,109.56 6.406,109.406 C4.28,89.151 6.694,66.182 15.844,46.969 C28.8,19.764 53.556,3.011 92.812,0.469 C94.727,0.345 96.514,0.319 98.188,0.406 Z" id="Shape" fill-opacity="0.79932" fill="#262626"></path>
                    <path d="M103.344,42.562 C103.39,42.803 103.439,42.819 103.469,43.156 C103.54,43.948 103.549,44.831 103.5,45.656 C103.487,45.871 103.476,46.024 103.469,46.094 C103.298,47.844 104.932,49.225 106.625,48.75 C109.991,47.805 112.728,46.821 114.938,45.875 C115.729,47.598 116.987,49.077 118.812,50.312 C121.013,51.802 123.778,52.944 128.188,54.344 C129.151,54.65 134.476,56.272 136.062,56.781 C139.254,57.805 141.914,58.75 144.438,59.844 C153.291,63.681 159.822,68.886 164.469,76.719 C170.223,86.419 172.761,99.902 171.5,118.125 C171.492,118.246 171.478,118.308 171.469,118.406 C171.447,118.516 171.392,118.644 171.375,118.75 C171.329,119.045 171.3,119.328 171.312,119.594 C171.322,119.774 171.335,119.766 171.406,120.125 C171.475,120.38 171.459,120.368 171.688,120.812 C172.114,121.435 172.113,121.442 173.375,121.969 C174.79,121.904 174.811,121.904 175.469,121.406 C175.847,121.022 175.822,121.019 175.969,120.781 C176.146,120.441 176.159,120.456 176.219,120.281 C176.284,120.089 176.301,119.708 176.344,119.438 C176.385,119.207 176.614,118.854 176.719,118.562 C177.906,119.236 179.402,118.838 180.094,117.656 C180.137,117.582 180.288,117.4 180.5,117.125 C180.874,116.641 181.326,116.14 181.844,115.688 C183.633,114.125 185.738,113.484 188.219,113.938 C188.371,113.957 188.501,113.946 188.656,113.969 C192.325,114.942 194.589,126.87 192.531,138.906 C190.381,151.486 184.865,158.778 177.469,157.938 C178.451,154.901 179.259,151.604 179.875,147.906 C180.102,146.544 179.174,145.227 177.812,145 C176.451,144.773 175.164,145.701 174.938,147.062 C172.424,162.144 167.278,170.367 156.562,174.438 C129.315,184.787 109.657,203.12 110.969,220.469 L111.594,230.719 C111.679,232.097 112.872,233.148 114.25,233.062 C115.617,232.978 116.661,231.802 116.594,230.438 C118.737,232.151 118.841,233.329 117.781,234.562 C116.109,236.51 112.189,238.524 105.969,240.812 C105,241.169 100.107,242.863 99.625,243.031 C98.218,243.523 97.574,245.125 98.219,246.469 L98.406,246.875 C97.262,246.006 96.01,245.375 94.531,245.375 C93.359,245.375 92.282,245.687 91.312,246.25 C91.703,244.996 91.231,243.608 89.938,243.156 C89.625,243.047 85.034,241.491 83.656,241 C77.322,238.742 73.492,236.884 71.844,235.031 C70.529,233.553 71.112,232.112 75.625,229.375 L75.5,232.062 C75.437,233.442 76.527,234.593 77.906,234.656 C79.286,234.719 80.437,233.661 80.5,232.281 L81.125,218.5 C82.867,200.201 69.911,186.862 42.656,178.5 C32.42,175.359 24.567,166.354 20.5,156 C20.483,155.948 20.521,155.895 20.5,155.844 C20.482,155.8 20.426,155.793 20.406,155.75 C19.312,152.916 18.459,150.005 17.969,147.062 C17.742,145.701 16.456,144.773 15.094,145 C13.732,145.227 12.836,146.544 13.062,147.906 C13.461,150.296 14.117,152.661 14.875,155 C9.056,155.365 3.974,148.298 1.406,136.594 C-1.184,124.786 0.44,114 3.531,114 C6.374,114 8.727,115.749 10.688,118.844 C11.425,120.007 12.039,121.267 12.531,122.531 C12.703,122.973 12.853,123.388 12.969,123.75 C13.035,123.956 13.079,124.1 13.094,124.156 C13.45,125.49 14.822,126.263 16.156,125.906 C17.49,125.55 18.294,124.178 17.938,122.844 C17.815,122.385 17.583,121.654 17.219,120.719 C16.617,119.173 15.862,117.616 14.938,116.156 C14.423,115.345 13.832,114.662 13.25,113.969 C12.314,100.107 13.931,86.095 18.5,75.469 C24.198,62.217 33.972,54.906 48.5,54.906 C70.43,54.906 91.37,50.517 103.344,42.562 Z" id="Shape" fill="#FFFFFF"></path>
                    <path d="M129.219,232.188 C138.035,235.508 145.805,240.823 152.281,248.094 C156.254,252.553 159.679,257.613 162.469,262.969 L109.625,262.969 C109.791,262.869 109.904,262.809 110.156,262.656 C110.893,262.209 111.714,261.702 112.594,261.125 C115.108,259.476 117.643,257.64 120,255.688 C125.598,251.05 129.461,246.43 130.812,241.812 C131.856,238.249 131.281,235.028 129.219,232.188 Z" id="Shape" fill-opacity="0.498299" fill="#262626"></path>
                    <path d="M60.406,233 C59.063,234.864 58.146,236.839 58.156,239.031 C58.16,239.901 58.283,240.802 58.5,241.719 C59.612,246.426 63.457,251.108 69.156,255.781 C71.435,257.65 73.851,259.397 76.281,260.969 C77.132,261.519 77.913,262.012 78.625,262.438 C79.058,262.696 79.386,262.87 79.562,262.969 L31.406,262.969 C38.145,249.741 48.092,239.055 60.406,233 Z" id="Shape" fill-opacity="0.498299" fill="#262626"></path>
                    <path d="M123.438,233.344 C125.924,235.46 126.762,237.804 126,240.406 C124.999,243.824 121.705,247.791 116.812,251.844 C114.611,253.667 112.244,255.384 109.875,256.938 C109.571,257.137 109.318,257.286 109.031,257.469 L103.906,246.812 C105.509,246.25 107.099,245.717 107.688,245.5 C114.727,242.91 119.131,240.676 121.562,237.844 C122.816,236.384 123.4,234.86 123.438,233.344 Z" id="Shape" fill-opacity="0.498299" fill="#262626"></path>
                    <path d="M66.219,233.938 C66.259,235.431 66.855,236.916 68.125,238.344 C70.546,241.066 74.802,243.164 81.969,245.719 C82.759,246.001 84.028,246.43 85.5,246.938 L79.844,257.281 C79.554,257.099 79.308,256.949 79,256.75 C76.717,255.274 74.433,253.645 72.312,251.906 C67.394,247.873 64.168,243.92 63.375,240.562 C62.806,238.156 63.733,235.965 66.219,233.938 Z" id="Shape" fill-opacity="0.498299" fill="#262626"></path>
                    <path d="M94.531,250.375 C95.908,250.375 97.531,252.841 97.531,256.25 C97.531,259.659 95.908,262.125 94.531,262.125 C93.154,262.125 91.531,259.659 91.531,256.25 C91.531,252.841 93.154,250.375 94.531,250.375 Z" id="Shape" fill-opacity="0.748299" fill="#262626"></path>
                    <path d="M102.375,255.125 L105.719,262.125 C105.921,262.546 106.325,262.728 106.688,262.969 L100.719,262.969 C101.81,261.082 102.531,258.787 102.531,256.25 C102.531,255.855 102.405,255.511 102.375,255.125 Z" id="Shape" fill-opacity="0.498299" fill="#262626"></path>
                    <path d="M86.688,255.156 C86.659,255.532 86.531,255.866 86.531,256.25 C86.531,258.787 87.252,261.082 88.344,262.969 L81.75,262.969 C82.228,262.75 82.697,262.467 82.969,261.969 L86.688,255.156 Z" id="Shape" fill-opacity="0.498299" fill="#262626"></path>
                </g>
                <g id="Layer-3_2" transform="translate(44.000000, 85.000000)">
                    <g id="Clipped">
                        <mask id="mask-3" fill="white">
                            <use xlink:href="#path-2"></use>
                        </mask>
                        <g id="Mask"></g>
                        <g id="Group" mask="url(#mask-3)" stroke-linecap="round" stroke="#262626" stroke-linejoin="round">
                            <g transform="translate(53.000000, 48.000000)" id="Shape">
                                <path d="M13.784,117.872 C11.978,93.453 17.489,55.409 51.49,55.409 C71.307,55.409 93.329,51.613 105.577,43.133 C109.856,40.171 108.959,49.344 108.959,49.344 C116.523,47.221 119.53,45.357 119.53,45.357 C120.635,63.693 182.282,44.99 176.999,121.303 C176.616,126.839 175.258,111.466 192.993,114.602 C192.993,114.602 210.589,20.891 135.907,5.413 C123.833,2.91 118.681,8.059 118.681,8.059 C118.681,8.059 113.304,-0.158 95.658,0.985 C6.206,6.779 3.844,85.48 6.96,113.485" stroke-width="5" fill="none"></path>
                                <path d="M76.635,385.38 C64.068,385.255 49.448,385.725 45.87,387.514 C33.591,393.653 51.026,343.565 52.45,313.658 C53.408,303.541 54.631,293.35 56.195,283.822 C56.406,282.533 49.004,295.578 49.004,295.578 C49.004,303.073 24.554,285.454 25.021,283.587 C31.017,259.604 49.277,231.982 80.27,228.373" stroke-width="5" fill="none"></path>
                                <path d="M119.436,229.328 C152.004,233.352 169.102,261.189 174.401,282.385 C175.855,288.202 150.418,294.376 150.418,294.376 C150.418,294.376 142.373,277.472 143.13,282.027 C150.418,325.92 143.316,348.508 152.764,385.354 C153.258,387.279 141.097,387.117 127.705,386.856" stroke-width="5" fill="none"></path>
                                <path d="M21.194,159.793 C1.48,167.78 -5.469,114.506 6.523,114.506 C15.311,114.506 18.514,126.497 18.514,126.497" stroke-width="5" fill="none"></path>
                                <path d="M18.514,150.48 C20.369,161.613 28.491,178.83 44.938,183.876 C71.497,192.025 83.238,204.576 81.65,221.261 L81.013,235.166" stroke-width="5" fill="none"></path>
                                <path d="M177.871,163.044 C200.816,169.796 203.83,117.199 192.145,114.506 C184.808,112.815 180.95,119.408 180.95,119.408" stroke-width="5" fill="none"></path>
                                <path d="M180.397,150.48 C178.036,164.645 173.153,174.935 160.438,179.764 C136.329,188.922 115.173,206.219 116.464,223.278 L117.1,233.574" stroke-width="5" fill="none"></path>
                                <path d="M99.432,116.034 C108.182,129.257 128.849,106.72 129.768,130.618 C130.546,150.842 107.21,153.954 98.848,139.952" stroke-width="5" fill="none"></path>
                                <path d="M92.098,248.528 L83.785,263.782 C83.785,263.782 43.077,240.988 77.499,230.128 C62.256,239.274 80.647,244.528 92.098,248.528 Z" stroke-width="5" fill="none"></path>
                                <path d="M103.464,248.396 L110.975,264.043 C110.975,264.043 152.605,240.332 118.183,229.473 C133.426,238.618 114.916,244.396 103.464,248.396 Z" stroke-width="5" fill="none"></path>
                                <path d="M55.329,74.042 C78.8,60.25 91.141,80.212 91.488,75.483 C91.919,69.627 73.235,61.157 54.966,74.103" stroke-width="5" fill="#262626" fill-rule="nonzero"></path>
                                <polyline stroke-width="5" fill="none" points="12.241 113.396 42.745 88.923 153.435 88.923 184.725 112.601"></polyline>
                                <polyline stroke-width="5" fill="none" points="131.728 132.466 149.908 132.466 151.807 95.299 184.484 114.769"></polyline>
                                <path d="M12.351,114.055 L42.338,95.299 L46.001,132.466 L95.377,132.738 C95.377,132.738 95.004,109.61 98.361,109.677 C99.595,109.702 100.637,112.788 101.461,116.681" stroke-width="5" fill="none"></path>
                                <path d="M49.256,94.62 L144.753,94.349" stroke-width="3" fill="none"></path>
                                <path d="M122.737,165.012 C96.449,176.683 76.042,156.83 76.042,156.83 C76.042,156.83 74.742,165.667 81.098,169.665" stroke-width="5" fill="none"></path>
                                <path d="M106.544,187.01 C100.27,180.735 95.887,181.758 89.196,185.103" stroke-width="3" fill="none"></path>
                                <path d="M145.22,73.924 C121.749,60.132 109.409,80.094 109.061,75.365 C108.63,69.509 127.314,61.039 145.583,73.985" stroke-width="5" fill="#262626" fill-rule="nonzero"></path>
                                <path d="M79.314,118.668 C79.314,115.41 80.57,112.768 82.118,112.768 C83.667,112.768 84.922,115.41 84.922,118.668 C84.922,121.927 83.667,124.568 82.118,124.568 C80.57,124.568 79.314,121.927 79.314,118.668 Z" stroke-width="5" fill="#262626" fill-rule="nonzero"></path>
                                <path d="M128.873,117.521 C128.873,114.263 130.129,111.621 131.677,111.621 C133.226,111.621 134.481,114.263 134.481,117.521 C134.481,120.78 133.226,123.421 131.677,123.421 C130.129,123.421 128.873,120.78 128.873,117.521 Z" stroke-width="5" fill="#262626" fill-rule="nonzero"></path>
                                <path d="M92.043,259.245 C92.043,254.621 94.502,250.873 97.536,250.873 C100.569,250.873 103.028,254.621 103.028,259.245 C103.028,263.868 100.569,267.617 97.536,267.617 C94.502,267.617 92.043,263.868 92.043,259.245 Z" stroke-width="5" fill="none"></path>
                            </g>
                        </g>
                    </g>
                </g>
            </g>
            <text id="BRUNO" font-family="HaveaGreatDay, Have a Great Day" font-size="48" font-weight="normal" fill="#000000">
                <tspan x="128.900562" y="465">BRUNO</tspan>
            </text>
        </g>
    </g>
</svg>