<?xml version="1.0" encoding="UTF-8"?>
<svg width="410px" height="510px" viewBox="0 0 410 510" version="1.1" xmlns="http://www.w3.org/2000/svg" xmlns:xlink="http://www.w3.org/1999/xlink">
    <!-- Generator: Sketch 47.1 (45422) - http://www.bohemiancoding.com/sketch -->
    <title>Barbara</title>
    <desc>Created with Sketch.</desc>
    <defs>
        <radialGradient cx="65.1832678%" cy="36.5028321%" fx="65.1832678%" fy="36.5028321%" r="16.7967417%" gradientTransform="translate(0.651833,0.365028),scale(0.999996,1.000000),translate(-0.651833,-0.365028)" id="radialGradient-1">
            <stop stop-color="#262626" stop-opacity="0.653061" offset="0%"></stop>
            <stop stop-color="#262626" offset="100%"></stop>
        </radialGradient>
    </defs>
    <g id="Planungstage-'17-framed" stroke="none" stroke-width="1" fill="none" fill-rule="evenodd">
        <g id="Barbara" fill-rule="nonzero">
            <g id="Gertrud" transform="translate(3.000000, 1.000000)">
                <g id="Layer-1">
                    <path d="M387.758,53.812 L384.631,489.251 C381.68,489.431 376.416,489.765 373.167,489.946 C361.346,490.6 347.777,491.21 332.729,491.821 C283.173,493.835 232.045,494.831 180.843,494.601 C180.03,494.604 179.224,494.666 178.411,494.67 C124.877,494.387 71.301,492.619 19.4381,489.181 C19.3862,482.066 16.2535,55.2358 16.242,54.09 C16.2518,53.9558 11.7424,54.1048 11.74,54.1848 C11.7388,54.2718 9.074,142.775 8.1821,195.484 C7.3623,243.929 6.2379,295.344 4.847,348.204 C3.8136,387.475 0.8621,483.415 0.5392,493.003 C0.4261,496.358 0.1269,504.685 0.1223,504.814 C0.0519,506.808 1.7472,508.449 3.7353,508.289 C9.5794,507.817 15.443,507.39 21.3835,506.968 C125.298,499.584 236.278,499.881 340.858,504.814 C357.077,505.58 371.708,506.357 384.492,507.177 C388.965,507.464 400.093,508.275 400.264,508.289 C402.253,508.444 403.952,506.807 403.877,504.814 C403.873,504.692 402.806,474.059 402.418,462.361 C401.311,428.938 400.186,392.422 399.153,353.971 C397.361,287.29 395.99,221.953 395.192,160.744 C394.696,122.649 393.173,87.386 393.173,54.3036 C393.173,52.0881 387.774,51.5967 387.758,53.812 Z" id="Shape" fill-opacity="0.5" fill="#262626"></path>
                    <path d="M12.9208,53.7843 L391.121,53.7843 L387.969,492.361 C387.969,492.361 202.021,504.967 16.0724,492.361 L12.9208,53.7843 Z" id="Shape" stroke="#262626" stroke-width="5" fill="#FFFFFF" stroke-linecap="round" stroke-linejoin="round"></path>
                    <path d="M166.321,24.7689 C159.914,24.769 154.718,29.9653 154.718,36.3723 C154.718,42.7794 159.914,47.9756 166.321,47.9756 C168.249,47.9756 170.002,47.4178 171.602,46.586 L199.742,73.6142 C200.406,74.2519 201.251,74.5349 202.104,74.5174 C202.957,74.4999 203.759,74.1397 204.397,73.4753 C205.035,72.8108 205.387,71.9662 205.37,71.1129 C205.352,70.2595 204.992,69.3884 204.327,68.7505 L176.327,41.9308 C177.262,40.2582 177.925,38.4247 177.925,36.3723 C177.925,29.9653 172.728,24.7689 166.321,24.7689 Z" id="Shape" fill-opacity="0.5" fill="#262626"></path>
                    <path d="M186.262,23.9025 L202.021,71.1775" id="Shape" stroke="#262626" stroke-width="5" fill="#262626" stroke-linecap="round" stroke-linejoin="round"></path>
                    <path d="M170.504,12.3016 C170.504,5.8945 175.698,0.7007 182.105,0.7007 C188.512,0.7007 193.706,5.8945 193.706,12.3016 C193.706,18.7086 188.512,23.9026 182.105,23.9026 C175.698,23.9026 170.504,18.7086 170.504,12.3016 Z" id="Shape" stroke="#262626" stroke-width="3" fill="url(#radialGradient-1)" stroke-linecap="round" stroke-linejoin="round"></path>
                </g>
            </g>
        </g>
    </g>
</svg>