<?xml version="1.0" encoding="UTF-8"?>
<svg width="410px" height="510px" viewBox="0 0 410 510" version="1.1" xmlns="http://www.w3.org/2000/svg" xmlns:xlink="http://www.w3.org/1999/xlink">
    <!-- Generator: Sketch 50.2 (55047) - http://www.bohemiancoding.com/sketch -->
    <title>Fabienne</title>
    <desc>Created with Sketch.</desc>
    <defs>
        <radialGradient cx="65.1832678%" cy="36.5028321%" fx="65.1832678%" fy="36.5028321%" r="16.7968141%" gradientTransform="translate(0.651833,0.365028),scale(0.999996,1.000000),translate(-0.651833,-0.365028)" id="radialGradient-1">
            <stop stop-color="#262626" stop-opacity="0.653061" offset="0%"></stop>
            <stop stop-color="#262626" offset="100%"></stop>
        </radialGradient>
        <polygon id="path-2" points="0.4374 0.301 315.604 0.301 315.604 315.468 0.4374 315.468"></polygon>
    </defs>
    <g id="Fabienne" stroke="none" stroke-width="1" fill="none" fill-rule="evenodd">
        <g id="fabienne" transform="translate(6.000000, 1.000000)">
            <g id="Layer-1" fill-rule="nonzero">
                <path d="M387.758,53.812 L384.631,489.251 C381.68,489.431 376.416,489.765 373.167,489.946 C361.346,490.6 347.777,491.21 332.729,491.821 C283.173,493.835 232.045,494.831 180.843,494.601 C180.03,494.604 179.224,494.666 178.411,494.67 C124.877,494.387 71.301,492.619 19.4381,489.181 C19.3862,482.066 16.2535,55.2358 16.242,54.09 C16.2518,53.9558 11.7424,54.1048 11.74,54.1848 C11.7388,54.2718 9.074,142.775 8.1821,195.484 C7.3623,243.929 6.2379,295.344 4.847,348.204 C3.8136,387.475 0.8621,483.415 0.5392,493.003 C0.4261,496.358 0.1269,504.685 0.1223,504.814 C0.0519,506.808 1.7472,508.449 3.7353,508.289 C9.5794,507.817 15.443,507.39 21.3835,506.968 C125.298,499.584 236.278,499.881 340.858,504.814 C357.077,505.58 371.708,506.357 384.492,507.177 C388.965,507.464 400.093,508.275 400.264,508.289 C402.253,508.444 403.952,506.807 403.877,504.814 C403.873,504.692 402.806,474.059 402.418,462.361 C401.311,428.938 400.186,392.422 399.153,353.971 C397.361,287.29 395.99,221.953 395.192,160.744 C394.696,122.649 393.173,87.386 393.173,54.3036 C393.173,52.0881 387.774,51.5967 387.758,53.812 Z" id="Shape" fill-opacity="0.5" fill="#262626"></path>
                <path d="M12.9208,53.7843 L391.121,53.7843 L387.969,492.361 C387.969,492.361 202.021,504.967 16.0724,492.361 L12.9208,53.7843 Z" id="Shape" stroke="#262626" stroke-width="5" fill="#FFFFFF" stroke-linecap="round" stroke-linejoin="round"></path>
                <polygon id="Shape" stroke="#262626" stroke-width="3" fill-opacity="0.0969388" fill="#262626" stroke-linecap="round" stroke-linejoin="round" points="44.4374 85.301 359.604 85.301 359.604 400.468 44.4374 400.468"></polygon>
                <path d="M166.321,24.7689 C159.914,24.769 154.718,29.9653 154.718,36.3723 C154.718,42.7794 159.914,47.9756 166.321,47.9756 C168.249,47.9756 170.002,47.4178 171.602,46.586 L199.742,73.6142 C200.406,74.2519 201.251,74.5349 202.104,74.5174 C202.957,74.4999 203.759,74.1397 204.397,73.4753 C205.035,72.8108 205.387,71.9662 205.37,71.1129 C205.352,70.2595 204.992,69.3884 204.327,68.7505 L176.327,41.9308 C177.262,40.2582 177.925,38.4247 177.925,36.3723 C177.925,29.9653 172.728,24.7689 166.321,24.7689 Z" id="Shape" fill-opacity="0.5" fill="#262626"></path>
                <path d="M186.262,23.9025 L202.021,71.1775" id="Shape" stroke="#262626" stroke-width="5" fill="#262626" stroke-linecap="round" stroke-linejoin="round"></path>
                <path d="M170.504,12.3016 C170.504,5.8945 175.698,0.7007 182.105,0.7007 C188.512,0.7007 193.706,5.8945 193.706,12.3016 C193.706,18.7086 188.512,23.9026 182.105,23.9026 C175.698,23.9026 170.504,18.7086 170.504,12.3016 Z" id="Shape" stroke="#262626" stroke-width="3" fill="url(#radialGradient-1)" stroke-linecap="round" stroke-linejoin="round"></path>
            </g>
            <g id="Layer-3" transform="translate(109.000000, 143.000000)" fill-rule="nonzero">
                <path d="M111.906,0.875 C115.26,0.935 118.562,1.115 121.812,1.406 C136.223,2.696 148.188,6.324 156.906,12.625 C175.657,26.178 186.282,48.914 189.656,75.781 C190.921,85.854 191.023,95.85 190.156,103.938 C189.79,107.35 189.272,110.193 188.688,112.094 C188.52,112.638 188.363,112.907 188.219,113.219 C186.617,113.09 185.193,113.229 183.938,113.688 C184.311,101.879 182.509,90.017 179.125,78.438 C179.101,78.254 179.223,78.087 179.156,77.906 C178.971,77.406 178.726,77.012 178.531,76.531 C178.023,74.888 177.605,73.222 177.031,71.594 C175.475,67.179 173.827,63.149 172.156,59.594 C171.569,58.344 171.024,57.26 170.531,56.312 C170.231,55.735 169.998,55.312 169.875,55.094 C169.197,53.891 167.671,53.478 166.469,54.156 C165.266,54.834 164.853,56.36 165.531,57.562 C165.627,57.731 165.821,58.068 166.094,58.594 C166.543,59.459 167.054,60.478 167.594,61.625 C167.287,61.409 167.001,61.137 166.688,60.938 C161.144,57.407 155.285,56.763 150.031,57.781 C149.21,57.941 148.591,58.124 148.219,58.25 C146.2,58.932 145.923,61.653 147.75,62.75 C147.847,62.808 149.245,63.661 149.781,64 C151.312,64.969 152.828,65.976 154.25,66.969 C154.912,67.431 155.547,67.881 156.125,68.312 C156.866,68.865 157.07,69.188 157.625,69.656 C156.422,69.605 155.086,69.475 153.5,69.25 C152.652,69.13 151.801,68.985 150.562,68.781 C146.499,68.113 145.667,67.988 144.094,67.875 C141.553,67.692 139.749,67.921 138.375,68.969 C136.909,70.087 136.52,71.89 137.406,73.469 C137.909,74.364 138.752,75.106 139.938,75.875 C141.587,76.945 143.923,78.075 147.438,79.562 C148.126,79.854 148.856,80.162 149.75,80.531 C152.597,81.706 152.419,81.669 153.562,82.156 C152.601,81.991 151.8,81.959 150.688,81.688 C149.309,81.351 147.845,80.952 146.125,80.438 C145.189,80.158 142.212,79.224 141.781,79.094 C140.186,78.613 139.117,78.339 138.219,78.156 C136.633,77.834 135.595,77.795 134.562,78.438 C133.496,79.101 133.064,80.299 133.281,81.469 C133.399,82.106 133.694,82.674 134.125,83.281 C136.582,86.744 141.405,89.92 148.688,93.5 C149.622,93.96 151.773,94.961 154.094,96.031 C121.899,92.509 95.627,82.037 74.844,66.594 C65.802,59.876 58.412,52.68 52.562,45.5 C50.524,42.997 48.843,40.666 47.469,38.594 C46.992,37.875 46.577,37.261 46.25,36.719 C46.06,36.404 45.958,36.187 45.906,36.094 C45.601,35.537 45.092,35.136 44.531,34.938 C43.971,34.739 43.369,34.729 42.781,34.969 C28.34,40.858 18.436,55.282 13.188,74.875 C9.564,88.403 8.668,103.541 10.031,115.156 C9.503,114.818 8.912,114.626 8.344,114.375 C8.338,114.208 8.293,112.811 8.281,112.188 C7.971,96.329 8.674,77.292 11.188,59.125 C14.908,32.236 21.956,13.767 32.562,7.719 C44.511,0.906 55.125,0.301 63.844,3.312 C64.883,3.671 65.8,4.061 66.562,4.438 C66.996,4.652 67.267,4.807 67.375,4.875 C67.941,5.231 68.63,5.34 69.281,5.188 C69.414,5.156 71.565,4.708 72.469,4.531 C75.059,4.024 77.98,3.506 81.188,3.031 C91.409,1.518 101.846,0.696 111.906,0.875 Z" id="Shape" fill-opacity="0.14966" fill="#262626"></path>
                <path d="M42.781,40.531 C42.992,40.862 43.05,40.979 43.312,41.375 C44.775,43.581 46.543,46.024 48.688,48.656 C54.79,56.147 62.489,63.619 71.875,70.594 C80.134,76.731 89.226,82.11 99.156,86.625 C96.886,87.548 95.324,88.136 94.781,88.125 C94.764,88.125 94.59,88.096 94.281,87.969 C93.888,87.807 93.39,87.551 92.656,87.156 C92.375,87.005 90.783,86.144 90.281,85.875 C89.215,85.303 88.272,84.811 87.281,84.344 C82.237,81.966 76.999,80.498 71.062,80.156 C69.084,80.042 67.03,80.073 64.875,80.219 C59.716,80.567 53.958,82.458 47.656,85.688 C41.968,88.602 35.966,92.526 29.812,97.219 C24.997,100.891 20.361,104.82 16.062,108.75 C15.469,109.293 15.012,109.738 14.469,110.25 C13.889,99.972 15.029,87.395 18.031,76.188 C22.666,58.887 31.053,46.224 42.781,40.531 Z" id="Shape" fill="#FFFFFF"></path>
                <path d="M156.594,62.531 C159.06,62.825 161.567,63.607 164,65.156 C167.92,67.652 171.242,71.929 173.812,78.156 C177.969,91.542 180.027,105.335 178.781,118.844 C178.369,119.375 177.908,119.844 177.531,120.438 C177.142,121.052 176.893,121.708 176.562,122.344 C176.312,122.021 173.608,118.535 172.531,117.188 C169.338,113.194 166.016,109.202 162.75,105.469 C161.559,104.108 160.413,102.833 159.281,101.594 C161.932,101.784 163.862,101.83 164.875,101.562 C166.665,101.09 167.952,99.371 166.812,97.375 C166.392,96.638 165.771,96.145 164.781,95.562 C163.272,94.674 153.033,90.046 150.906,89 C147.937,87.541 145.565,86.194 143.531,84.875 C143.999,85.018 144.459,85.141 144.719,85.219 C146.514,85.755 148.027,86.203 149.5,86.562 C155.081,87.924 159.268,88.192 162.375,86.906 C164.507,86.024 165.183,83.73 163.688,81.938 C163.063,81.189 162.087,80.553 160.656,79.812 C158.822,78.863 158.348,78.667 151.656,75.906 C150.775,75.543 150.079,75.222 149.406,74.938 C147.597,74.172 146.834,73.708 145.656,73.125 C146.842,73.276 147.837,73.404 149.75,73.719 C151.023,73.928 151.888,74.061 152.781,74.188 C156.542,74.72 159.358,74.852 161.812,74.438 C165.282,73.852 165.599,70.824 163.719,68.438 C162.795,67.265 161.248,65.896 159.125,64.312 C158.502,63.848 157.828,63.366 157.125,62.875 C156.957,62.758 156.764,62.649 156.594,62.531 Z" id="Shape" fill="#FFFFFF"></path>
                <path d="M67.938,88.094 C82.349,88.094 91.531,95.826 91.531,110.594 C91.531,121.31 85.383,129.465 76.625,133.219 C76.178,133.404 75.725,133.646 75.281,133.812 C72.265,134.911 68.975,135.531 65.531,135.531 C52.79,135.531 45.25,126.691 45.25,110.594 C45.25,109.281 45.402,108.104 45.531,106.906 C45.882,104.658 46.455,102.335 47.219,99.969 C50.472,92.12 57.711,88.094 67.938,88.094 Z" id="Shape" fill="#FFFFFF"></path>
                <path d="M103.25,88.344 C103.271,88.353 103.291,88.366 103.312,88.375 C103.291,88.396 103.273,88.419 103.25,88.438 C103.248,88.406 103.249,88.375 103.25,88.344 Z" id="Shape" fill-opacity="0.14966" fill="#262626"></path>
                <path d="M107.562,90.094 C118.205,94.214 129.751,97.387 142.219,99.469 C142.235,99.511 142.2,99.552 142.219,99.594 C142.647,100.561 142.806,101.609 143.094,102.625 C143.675,105.022 144,107.67 144,110.594 C144,111.804 143.854,112.9 143.75,114.031 C142.811,120.35 139.995,126.298 135.938,130.562 C132.25,133.619 127.49,135.312 121.875,135.312 C117.042,135.312 112.78,134.098 109.219,131.875 C108.888,131.666 108.551,131.44 108.219,131.219 C102.372,127.076 98.781,119.959 98.781,110.594 C98.781,102.226 101.604,95.973 106.688,92 C107.305,91.518 107.547,90.818 107.562,90.094 Z" id="Shape" fill="#FFFFFF"></path>
                <path d="M89.281,91.031 C89.686,91.252 90.152,91.493 90.281,91.562 C92.322,92.659 93.429,93.099 94.688,93.125 C96.038,93.153 97.527,92.673 100.062,91.656 C97.794,94.364 96.19,97.621 95.156,101.312 C93.961,97.219 91.978,93.774 89.281,91.031 Z" id="Shape" fill-opacity="0.14966" fill="#262626"></path>
                <path d="M43.031,96.906 C42.875,97.349 42.643,97.809 42.5,98.25 C41.479,100.781 40.868,103.647 40.562,106.781 C40.436,107.69 40.413,108.547 40.344,109.438 C40.332,109.838 40.25,110.185 40.25,110.594 C40.25,110.89 40.308,111.145 40.312,111.438 C39.819,127.75 48.815,140.371 64.594,140.812 C65.159,140.828 65.739,140.834 66.312,140.812 C69.753,140.683 73.253,139.875 76.812,138.562 C77.597,138.282 78.341,137.932 79.094,137.594 C81.72,136.466 84.363,135.135 87,133.5 C89.534,131.928 91.881,130.245 94,128.562 C94.488,128.175 94.897,127.848 95.312,127.5 C95.689,127.792 96.051,128.063 96.75,128.656 C96.949,128.825 99.086,130.637 99.562,131.031 C100.794,132.05 101.921,132.979 103.094,133.844 C103.879,134.423 104.657,134.854 105.438,135.375 C105.734,135.582 106.038,135.774 106.344,135.969 C112.204,139.711 117.991,141.861 124.031,141.688 C130.005,141.516 135.242,138.48 139.469,134.062 C144.544,129.672 147.812,123.114 148.656,114.844 C149.117,111.784 149.251,108.698 148.875,105.656 L173.125,125.938 C173.637,126.366 174.189,126.498 174.719,126.5 C174.667,126.668 174.565,126.967 174.531,127.094 C174.175,128.428 174.979,129.8 176.312,130.156 C177.646,130.513 179.019,129.74 179.375,128.406 C179.39,128.35 179.403,128.206 179.469,128 C179.584,127.639 179.735,127.222 179.906,126.781 C180.397,125.52 181.015,124.254 181.75,123.094 C183.706,120.006 186.071,118.281 188.906,118.281 C191.942,118.281 192.851,129.062 189.125,140.562 C184.667,154.324 176.355,162.414 166.688,160.281 C166.553,160.252 166.445,160.351 166.312,160.344 C167.586,157.96 168.834,155.446 170.031,152.781 C170.597,151.522 170.009,150.035 168.75,149.469 C168.12,149.186 167.442,149.179 166.844,149.406 C166.246,149.634 165.752,150.089 165.469,150.719 C160.999,160.67 156.032,168.427 150.469,174.625 C146.86,178.646 143.074,181.94 138.688,185.062 C136.973,186.283 135.244,187.443 133.031,188.844 C132.703,189.051 128.715,191.529 127.594,192.25 C120.262,196.966 116.249,200.716 113.25,206.562 C109.68,213.523 108.283,222.916 109,236.375 C109.073,237.754 110.246,238.823 111.625,238.75 C113.004,238.677 114.042,237.504 113.969,236.125 C113.825,233.425 113.842,231 113.875,228.656 C122.013,231.368 126.844,235.533 126.844,239.562 C126.844,241.719 122.586,247.625 116.156,254.969 L73.312,254.969 C67.342,247.636 63.375,241.762 63.375,239.562 C63.375,234.756 70.13,229.832 80.875,227.375 C81.033,230.31 81.086,233.44 80.969,236.906 C80.922,238.286 81.995,239.422 83.375,239.469 C84.755,239.515 85.922,238.443 85.969,237.062 C86.506,221.186 84.214,210.412 79.094,202.875 C74.995,196.841 70.219,193.586 60.469,189.031 C59.918,188.774 56.055,186.965 55.281,186.594 C53.325,185.654 51.668,184.816 50.094,183.938 C39.467,178.003 32.21,170.104 26.656,156.219 C26.143,154.937 24.688,154.3 23.406,154.812 C22.124,155.325 21.487,156.781 22,158.062 C22.421,159.114 22.933,159.914 23.375,160.906 C13.035,161.847 5.206,153.616 1.688,140.25 C-1.3,128.9 0.386,118.281 3.656,118.281 C6.491,118.281 8.857,120.006 10.812,123.094 C11.548,124.254 12.165,125.52 12.656,126.781 C12.828,127.222 12.978,127.639 13.094,128 C13.16,128.206 13.204,128.35 13.219,128.406 C13.575,129.74 14.947,130.513 16.281,130.156 C17.615,129.8 18.419,128.428 18.062,127.094 C17.94,126.636 17.676,125.902 17.312,124.969 C16.795,123.639 16.125,122.335 15.375,121.062 C15.539,120.635 15.726,120.203 15.625,119.719 C15.441,118.838 15.396,117.705 15.25,116.75 L43.031,96.906 Z" id="Shape" fill="#FFFFFF"></path>
                <path d="M150.75,100.656 C151.48,100.746 152.202,100.855 152.938,100.938 C152.902,101.599 153.102,102.262 153.594,102.781 C153.966,103.174 154.337,103.589 154.719,104 L150.75,100.656 Z" id="Shape" fill-opacity="0.14966" fill="#262626"></path>
                <path d="M95.031,119.75 C95.238,120.545 95.396,121.37 95.656,122.125 C95.453,122.094 95.263,121.938 95.031,121.938 C94.731,121.938 94.495,122.147 94.219,122.25 C94.548,121.453 94.77,120.589 95.031,119.75 Z" id="Shape" fill-opacity="0.14966" fill="#262626"></path>
                <path d="M131.375,236.562 C143.459,237.721 153.344,243.969 160.625,254.969 L122.875,254.969 C128.631,248.095 131.844,242.953 131.844,239.562 C131.844,238.535 131.661,237.535 131.375,236.562 Z" id="Shape" fill-opacity="0.746599" fill="#262626"></path>
                <path d="M58.812,236.594 C58.53,237.56 58.375,238.542 58.375,239.562 C58.375,242.916 61.386,248.088 66.75,254.969 L35.344,254.969 C41.607,243.879 49.434,237.539 58.812,236.594 Z" id="Shape" fill-opacity="0.746599" fill="#262626"></path>
            </g>
            <g id="Layer-3_2" transform="translate(44.000000, 85.000000)">
                <g id="Group">
                    <g id="Clipped">
                        <mask id="mask-3" fill="white">
                            <use xlink:href="#path-2"></use>
                        </mask>
                        <g id="Mask"></g>
                        <g id="Group" mask="url(#mask-3)" stroke="#262626" stroke-linecap="round" stroke-linejoin="round">
                            <g transform="translate(62.000000, 56.000000)" id="Shape">
                                <path d="M103.93,90.641 C101.185,91.795 99.1,92.668 97.727,92.639 C94.332,92.568 85.861,83.499 68.052,84.702 C46.46,86.162 15.312,117.781 15.312,117.781 L51.842,91.71 C38.273,117.024 47.84,139.762 67.666,140.317 C82.572,140.734 98.03,126.452 98.03,126.452 C100.275,126.452 112.197,141.601 126.958,141.176 C143.562,140.698 154.642,116.724 147.495,100.576 L103.93,90.641 Z M70.926,87.608 C84.817,87.608 97.03,94.824 97.03,112.604 C97.03,130.383 82.434,140.037 68.544,140.037 C54.653,140.037 45.752,130.383 45.752,112.604 C45.752,94.824 57.036,87.608 70.926,87.608 Z M148.921,101.881 L177.719,126.031 C177.719,126.031 167.771,112.971 158.396,103.075 L148.921,101.881 Z M148.499,103.868 C149.145,106.467 149.488,109.376 149.488,112.604 C149.488,130.383 138.779,139.825 124.888,139.825 C110.998,139.825 99.283,130.383 99.283,112.604 C99.283,103.024 102.766,96.252 108.151,92.043 L148.499,103.868 Z" stroke-width="5" fill="#262626" fill-rule="nonzero"></path>
                                <path d="M170.698,58.333 C170.698,58.333 187.53,88.183 184.237,121.63 C184.237,121.63 185.631,116.576 192.154,117.782 C197.141,118.703 205.381,44.395 161.37,12.585 C131.275,-9.166 71.713,4.765 71.713,4.765 C71.713,4.765 56.27,-4.964 34.333,7.543 C5.541,23.96 8.854,116.522 8.854,116.522" stroke-width="5" fill="none"></path>
                                <path d="M16.163,122.216 C11.816,101.447 16.872,51.46 46.71,39.291 C46.71,39.291 76.381,93.318 160.56,100.986 C182.835,103.015 146.484,94.154 139.149,83.819 C135.486,78.657 156.358,89.929 164.406,86.597 C169.528,84.477 138.378,76.405 142.889,72.962 C145.823,70.724 157.331,75.163 164.406,73.969 C169.528,73.104 152.03,62.603 152.03,62.603 C152.03,62.603 170.72,56.289 179.813,80.788" stroke-width="5" fill="none"></path>
                                <path d="M18.468,329.825 C18.468,329.825 22.667,235.998 64.019,235.789" stroke-width="5" fill="none"></path>
                                <path d="M130.774,235.789 C163.839,236.133 182.214,270.286 180.643,329.825" stroke-width="5" fill="none"></path>
                                <path d="M27.326,165.39 C0.009,168.849 -5.302,117.782 6.665,117.782 C15.435,117.782 18.632,129.748 18.632,129.748" stroke-width="5" fill="none"></path>
                                <path d="M86.467,238.977 C88.542,177.706 47.042,208.434 27.321,159.133" stroke-width="5" fill="none"></path>
                                <path d="M169.148,164.722 C194.42,170.299 203.878,117.782 191.911,117.782 C183.141,117.782 179.944,129.748 179.944,129.748" stroke-width="5" fill="none"></path>
                                <path d="M114.483,238.249 C111.545,183.096 145.643,209.629 170.741,153.755" stroke-width="5" fill="none"></path>
                                <path d="M185.592,147.9 C190.408,140.019 192.881,124.325 189.847,124.082 C188.098,123.942 185.841,128.452 185.841,128.452" stroke-width="3" fill="none"></path>
                                <path d="M8.726,148.702 C4.538,137.839 4.538,123.88 7.573,123.637 C9.321,123.497 11.579,128.007 11.579,128.007" stroke-width="3" fill="none"></path>
                                <path d="M82.215,169.809 C98.55,176.81 103.537,172.631 117.219,167.642 C120.927,166.29 102.551,181.977 95.216,179.644" stroke-width="5" fill="none"></path>
                                <path d="M97.55,139.471 C112.052,148.473 107.59,152.145 98.883,153.64" stroke-width="5" fill="none"></path>
                                <path d="M64.48,123.773 C64.48,119.709 66.273,116.414 68.485,116.414 C70.697,116.414 72.49,119.709 72.49,123.773 C72.49,127.837 70.697,131.131 68.485,131.131 C66.273,131.131 64.48,127.837 64.48,123.773 Z" stroke-width="5" fill="#262626" fill-rule="nonzero"></path>
                                <path d="M121.015,122.829 C121.015,118.766 122.808,115.471 125.02,115.471 C127.232,115.471 129.025,118.766 129.025,122.829 C129.025,126.893 127.232,130.188 125.02,130.188 C122.808,130.188 121.015,126.893 121.015,122.829 Z" stroke-width="5" fill="#262626" fill-rule="nonzero"></path>
                                <path d="M18.22,158.268 C24.929,155.807 22.035,186.144 16.541,167.577" stroke-width="2.5" fill="none"></path>
                                <path d="M175.703,159.559 C168.995,157.098 171.888,187.435 177.382,168.868" stroke-width="2.5" fill="none"></path>
                                <path d="M180.425,139.757 C176.325,139.757 175.73,142.687 178.061,145.536" stroke-width="3" fill="none"></path>
                                <path d="M68.178,42.903 C68.178,42.903 92.929,70.938 124.248,81.041" stroke-width="2.5" fill="none"></path>
                                <path d="M79.543,33.053 C94.697,54.269 127.531,69.928 127.531,69.928" stroke-width="2.5" fill="none"></path>
                                <path d="M98.991,34.316 C98.991,34.316 127.026,54.016 140.412,57.552" stroke-width="2.5" fill="none"></path>
                                <path d="M111.367,9.059 C135.256,9.059 175.014,21.435 187.895,75.99" stroke-width="2.5" fill="none"></path>
                                <path d="M58.075,9.817 C41.405,12.595 29.787,25.728 23.22,47.197" stroke-width="2.5" fill="none"></path>
                                <path d="M100.254,20.424 C110.723,23.103 121.384,25.433 131.067,30.275" stroke-width="2.5" fill="none"></path>
                                <path d="M116.739,227.928 C126.13,230.828 132.34,235.856 132.34,241.574 C132.34,250.557 96.868,283.242 96.868,283.242 C96.868,283.242 63.875,250.557 63.875,241.574 C63.875,235.048 71.964,229.42 83.638,226.83" stroke-width="5" fill="none"></path>
                            </g>
                        </g>
                    </g>
                    <g id="Mask-link" stroke-linecap="round" stroke-linejoin="round" stroke="#262626" stroke-width="5">
                        <polygon id="Mask" points="0.4374 0.301 315.604 0.301 315.604 315.468 0.4374 315.468"></polygon>
                    </g>
                </g>
            </g>
        </g>
        <text font-family="HaveaGreatDay, Have a Great Day" font-size="48" font-weight="normal" fill="#000000">
            <tspan x="109.244562" y="465">FABIENNE</tspan>
        </text>
    </g>
</svg>