<?xml version="1.0" encoding="UTF-8"?>
<svg width="410px" height="510px" viewBox="0 0 410 510" version="1.1" xmlns="http://www.w3.org/2000/svg" xmlns:xlink="http://www.w3.org/1999/xlink">
    <!-- Generator: Sketch 49.3 (51167) - http://www.bohemiancoding.com/sketch -->
    <title>Fridolin</title>
    <desc>Created with Sketch.</desc>
    <defs>
        <radialGradient cx="65.1832678%" cy="36.5028321%" fx="65.1832678%" fy="36.5028321%" r="16.7968141%" gradientTransform="translate(0.651833,0.365028),scale(0.999996,1.000000),translate(-0.651833,-0.365028)" id="radialGradient-1">
            <stop stop-color="#262626" stop-opacity="0.653061" offset="0%"></stop>
            <stop stop-color="#262626" offset="100%"></stop>
        </radialGradient>
        <polygon id="path-2" points="0.4374 0.301 315.604 0.301 315.604 315.468 0.4374 315.468"></polygon>
    </defs>
    <g id="Fridolin" stroke="none" stroke-width="1" fill="none" fill-rule="evenodd">
        <g id="fridolin" transform="translate(6.000000, 1.000000)">
            <g id="Layer-1" fill-rule="nonzero">
                <path d="M387.758,53.812 L384.631,489.251 C381.68,489.431 376.416,489.765 373.167,489.946 C361.346,490.6 347.777,491.21 332.729,491.821 C283.173,493.835 232.045,494.831 180.843,494.601 C180.03,494.604 179.224,494.666 178.411,494.67 C124.877,494.387 71.301,492.619 19.4381,489.181 C19.3862,482.066 16.2535,55.2358 16.242,54.09 C16.2518,53.9558 11.7424,54.1048 11.74,54.1848 C11.7388,54.2718 9.074,142.775 8.1821,195.484 C7.3623,243.929 6.2379,295.344 4.847,348.204 C3.8136,387.475 0.8621,483.415 0.5392,493.003 C0.4261,496.358 0.1269,504.685 0.1223,504.814 C0.0519,506.808 1.7472,508.449 3.7353,508.289 C9.5794,507.817 15.443,507.39 21.3835,506.968 C125.298,499.584 236.278,499.881 340.858,504.814 C357.077,505.58 371.708,506.357 384.492,507.177 C388.965,507.464 400.093,508.275 400.264,508.289 C402.253,508.444 403.952,506.807 403.877,504.814 C403.873,504.692 402.806,474.059 402.418,462.361 C401.311,428.938 400.186,392.422 399.153,353.971 C397.361,287.29 395.99,221.953 395.192,160.744 C394.696,122.649 393.173,87.386 393.173,54.3036 C393.173,52.0881 387.774,51.5967 387.758,53.812 Z" id="Shape" fill-opacity="0.5" fill="#262626"></path>
                <path d="M12.9208,53.7843 L391.121,53.7843 L387.969,492.361 C387.969,492.361 202.021,504.967 16.0724,492.361 L12.9208,53.7843 Z" id="Shape" stroke="#262626" stroke-width="5" fill="#FFFFFF" stroke-linecap="round" stroke-linejoin="round"></path>
                <polygon id="Shape" stroke="#262626" stroke-width="3" fill-opacity="0.0969388" fill="#262626" stroke-linecap="round" stroke-linejoin="round" points="44.4374 85.301 359.604 85.301 359.604 400.468 44.4374 400.468"></polygon>
                <path d="M166.321,24.7689 C159.914,24.769 154.718,29.9653 154.718,36.3723 C154.718,42.7794 159.914,47.9756 166.321,47.9756 C168.249,47.9756 170.002,47.4178 171.602,46.586 L199.742,73.6142 C200.406,74.2519 201.251,74.5349 202.104,74.5174 C202.957,74.4999 203.759,74.1397 204.397,73.4753 C205.035,72.8108 205.387,71.9662 205.37,71.1129 C205.352,70.2595 204.992,69.3884 204.327,68.7505 L176.327,41.9308 C177.262,40.2582 177.925,38.4247 177.925,36.3723 C177.925,29.9653 172.728,24.7689 166.321,24.7689 Z" id="Shape" fill-opacity="0.5" fill="#262626"></path>
                <path d="M186.262,23.9025 L202.021,71.1775" id="Shape" stroke="#262626" stroke-width="5" fill="#262626" stroke-linecap="round" stroke-linejoin="round"></path>
                <path d="M170.504,12.3016 C170.504,5.8945 175.698,0.7007 182.105,0.7007 C188.512,0.7007 193.706,5.8945 193.706,12.3016 C193.706,18.7086 188.512,23.9026 182.105,23.9026 C175.698,23.9026 170.504,18.7086 170.504,12.3016 Z" id="Shape" stroke="#262626" stroke-width="3" fill="url(#radialGradient-1)" stroke-linecap="round" stroke-linejoin="round"></path>
            </g>
            <g id="Layer-3" transform="translate(119.000000, 141.000000)" fill-rule="nonzero">
                <path d="M71.844,0.719 C71.546,0.864 71.412,1.014 71.094,1.156 C69.304,1.956 67.426,2.623 65.344,3.25 C64.88,3.39 63.716,3.713 63.594,3.75 C63.166,3.88 63.025,3.938 62.75,4.094 C62.594,4.184 62.609,4.199 62.344,4.406 C61.972,4.726 61.972,4.709 61.531,5.781 C61.624,7.464 61.602,7.462 62.5,8.312 C63.126,8.662 63.127,8.682 63.438,8.75 C63.763,8.821 63.953,8.8 64.25,8.781 C65.102,8.728 65.976,8.685 66.844,8.656 C78.898,8.255 91.858,10.137 104.781,13.531 C108.896,14.612 112.695,15.781 116.094,16.938 C117.28,17.341 118.349,17.728 119.25,18.062 C119.58,18.185 119.711,18.237 119.906,18.312 C115.501,22.085 110.964,26.318 106.125,31.5 C105.183,32.509 105.21,34.089 106.219,35.031 C107.228,35.974 108.808,35.915 109.75,34.906 C124.344,19.278 136.779,10.527 146.156,8.25 C153.407,6.489 158.011,8.802 159.781,14.125 C161.6,19.593 160.107,27.424 155.625,34.344 C151.781,40.279 146.175,45.036 139.188,48 C139.149,48.024 139.1,48.005 139.062,48.031 C136.767,48.996 134.327,49.787 131.75,50.344 C121.153,52.635 113.74,53.077 108.375,52.031 C104.458,51.268 102.314,50.114 98.094,47.031 C98.042,46.993 98.052,47.007 98,46.969 C94.942,44.735 93.389,43.729 91.031,42.719 C87.62,41.257 82.776,41.025 76.125,41.688 C71.311,42.167 67.309,42.821 57.062,44.688 C56.525,44.785 56.136,44.867 55.75,44.938 C44.566,46.968 38.707,47.796 33.281,47.938 C26.844,48.105 23.019,47.016 21.656,44.781 C14.616,33.235 20.702,21.951 44.781,12.75 C46.078,12.255 46.8,11.065 46.781,9.75 C46.771,9.023 46.555,8.349 46.188,7.594 C45.941,7.087 45.404,6.334 45,5.719 C48.869,7.328 54.498,6.663 62.281,4.188 C64.193,3.579 66.198,2.855 68.406,2.031 C69.165,1.748 70.409,1.274 71.844,0.719 Z" id="Shape" fill-opacity="0.329932" fill="#262626"></path>
                <path d="M84.969,46.344 C86.594,46.495 87.897,46.826 89.031,47.312 C90.943,48.132 92.263,48.978 95.031,51 C95.083,51.038 95.104,51.024 95.156,51.062 C99.92,54.542 102.606,56.002 107.406,56.938 C113.398,58.106 121.27,57.66 132.094,55.375 C131.993,55.961 132.034,56.579 132.375,57.125 C142.003,72.53 147.869,91.269 148.812,114.719 C148.828,115.109 149.109,115.367 149.281,115.688 C149.053,115.99 148.647,116.343 148.5,116.594 C147.803,117.785 148.183,119.303 149.375,120 C150.567,120.697 152.115,120.317 152.812,119.125 C152.942,118.904 153.293,118.453 153.812,118 C154.897,117.052 156.115,116.652 157.625,117 C158.208,117.134 159.044,118.606 159.469,121.344 C159.961,124.514 159.776,128.617 158.938,132.469 C157.053,141.126 152.896,145.777 147.812,144.281 C147.53,144.198 147.278,144.36 147,144.375 C147.026,143.721 147.156,143.144 147.156,142.469 C147.156,141.088 146.037,139.969 144.656,139.969 C143.276,139.969 142.156,141.088 142.156,142.469 C142.156,151.294 139.767,157.665 135.125,162.75 C131.501,166.72 127.577,169.287 118.656,174.062 C118.006,174.41 117.684,174.584 117.375,174.75 C107.798,179.884 103.101,183.031 98.719,188.062 C92.934,194.705 89.938,203.173 89.938,214.438 L89.938,226.406 C89.938,227.787 91.057,228.906 92.438,228.906 C93.818,228.906 94.937,227.787 94.938,226.406 L94.938,223 C98.516,224.546 100.562,226.389 100.562,227.875 C100.562,231.597 90.718,235.687 78.312,235.688 C65.907,235.688 56.094,231.597 56.094,227.875 C56.094,226.685 57.574,225.246 59.969,223.906 L59.969,226.406 C59.969,227.787 61.088,228.906 62.469,228.906 C63.849,228.906 64.969,227.787 64.969,226.406 L64.969,214.438 C64.969,203.347 62.784,195.348 58.438,189.281 C55.042,184.542 51.28,181.671 43.656,177.219 C43.376,177.055 40.045,175.104 39.406,174.719 C33.558,171.19 29.743,168.118 26.438,163.844 C22.28,158.468 19.385,151.499 17.75,142.062 C17.514,140.702 16.204,139.796 14.844,140.031 C13.483,140.267 12.577,141.546 12.812,142.906 C12.945,143.668 13.133,144.328 13.281,145.062 C13.239,145.077 13.198,145.046 13.156,145.062 C8.785,146.834 4.339,141.542 1.969,131.844 C0.902,127.478 0.531,122.916 0.906,119.562 C1.217,116.785 1.876,115.625 2.219,115.625 C4.001,115.625 5.538,116.751 6.844,118.812 C7.352,119.614 7.784,120.498 8.125,121.375 C8.327,121.894 8.45,122.281 8.5,122.469 C8.856,123.803 10.229,124.575 11.562,124.219 C12.896,123.862 13.669,122.521 13.312,121.188 C13.218,120.832 13.055,120.265 12.781,119.562 C12.393,118.564 11.883,117.558 11.312,116.594 C12.151,116.19 12.812,115.493 12.812,114.5 C12.812,108.089 14.414,93.644 16.625,81.438 C19.31,66.614 22.684,56.153 25.531,54.219 C26.15,53.799 26.478,53.155 26.562,52.469 C28.607,52.797 30.836,53.005 33.438,52.938 C39.21,52.787 45.182,51.922 56.625,49.844 C57.012,49.773 57.399,49.692 57.938,49.594 C72.358,46.968 80.092,45.891 84.969,46.344 Z" id="Shape" fill="#FFFFFF"></path>
                <path d="M19.906,50.094 C20.425,50.472 21.106,50.702 21.719,51 C17.681,54.916 14.451,65.305 11.688,80.562 C10.825,85.323 10.183,90.312 9.562,95.156 C9.589,94.342 9.552,92.786 9.594,91.938 C10.186,79.972 12.927,68.497 19.906,50.094 Z" id="Shape" fill-opacity="0.329932" fill="#262626"></path>
                <path d="M139.5,53.125 C145.667,62.293 149.218,70.685 151,80.062 C152.082,85.754 152.449,92.161 152.625,100.875 C150.252,82.734 144.716,67.464 136.594,54.469 C136.498,54.315 136.306,54.311 136.188,54.188 C137.305,53.855 138.432,53.533 139.5,53.125 Z" id="Shape" fill-opacity="0.329932" fill="#262626"></path>
                <path d="M51.156,227.594 C51.152,227.691 51.094,227.777 51.094,227.875 C51.094,235.553 63.408,240.688 78.312,240.688 C92.814,240.688 104.795,235.803 105.438,228.469 C108.653,228.991 111.722,229.686 114.562,230.625 C111.761,235.287 109.226,244.582 106.875,256.969 L55,256.969 C52.68,246.362 49.942,236.887 46.562,229.125 C48.045,228.557 49.603,228.08 51.156,227.594 Z" id="Shape" fill-opacity="0.329932" fill="#262626"></path>
                <path d="M41.969,231.125 C45.093,238.297 47.665,247.14 49.875,256.969 L49.062,256.969 C46.605,245.341 43.83,236.657 40.562,231.812 C41.03,231.582 41.493,231.346 41.969,231.125 Z" id="Shape" fill-opacity="0.329932" fill="#262626"></path>
                <path d="M119.281,232.531 C119.302,232.541 119.323,232.553 119.344,232.562 C119.135,232.908 118.893,233.124 118.688,233.5 C117.918,234.907 117.194,236.544 116.469,238.375 C117.202,236.293 117.952,234.738 118.688,233.5 C118.891,233.158 119.078,232.806 119.281,232.531 Z" id="Shape" fill-opacity="0.329932" fill="#262626"></path>
                <path d="M36.094,234.094 C39.002,238.003 41.655,245.892 44.031,256.969 L13.312,256.969 C18.835,247.534 26.461,239.75 36.094,234.094 Z" id="Shape" fill-opacity="0.329932" fill="#262626"></path>
                <path d="M123.844,234.812 C128.533,237.549 132.68,240.915 136.156,245.094 C139.066,248.592 141.479,252.58 143.594,256.969 L116.375,256.969 C118.661,246.542 121.171,238.957 123.844,234.812 Z" id="Shape" fill-opacity="0.329932" fill="#262626"></path>
            </g>
            <g id="Layer-3_2" transform="translate(44.000000, 85.000000)">
                <g id="Group">
                    <g id="Clipped">
                        <mask id="mask-3" fill="white">
                            <use xlink:href="#path-2"></use>
                        </mask>
                        <g id="Mask"></g>
                        <g id="Group" mask="url(#mask-3)" stroke="#262626" stroke-linecap="round" stroke-linejoin="round">
                            <g transform="translate(73.000000, 51.000000)" id="Shape">
                                <path d="M56.635,382.38 C44.068,382.255 29.448,382.725 25.87,384.514 C13.591,390.653 31.026,340.565 32.45,310.658 C33.408,300.541 34.631,290.35 36.195,280.822 C36.406,279.533 29.004,292.578 29.004,292.578 C29.004,300.073 4.554,282.454 5.021,280.587 C11.017,256.604 27.319,236.736 55.565,229.141" stroke-width="5" fill="none"></path>
                                <path d="M105.273,230.481 C137.842,234.505 149.102,258.189 154.401,279.385 C155.855,285.202 130.418,291.376 130.418,291.376 C130.418,291.376 122.373,274.472 123.13,279.027 C130.418,322.92 123.316,345.508 132.764,382.354 C133.258,384.279 121.097,384.117 107.705,383.856" stroke-width="5" fill="none"></path>
                                <path d="M119.907,235.08 C108.115,247.933 100.393,350.071 100.662,375.533" stroke-width="5" fill="none"></path>
                                <path d="M16.094,152.372 C1.818,158.157 -4.461,118.135 4.222,118.135 C10.587,118.135 12.906,126.819 12.906,126.819" stroke-width="5" fill="none"></path>
                                <path d="M17.272,147.48 C25.55,195.244 64.466,173.474 64.466,219.428 L64.466,231.419" stroke-width="5" fill="none"></path>
                                <path d="M149.104,151.669 C164.539,156.211 168.041,121.364 160.18,119.552 C155.244,118.415 152.649,122.85 152.649,122.85" stroke-width="5" fill="none"></path>
                                <path d="M146.653,147.48 C146.653,189.45 94.444,173.474 94.444,219.428 L94.444,231.419" stroke-width="5" fill="none"></path>
                                <path d="M80.063,119.889 C95.748,137.92 102.181,117.481 106.363,128.635 C111.743,142.98 83.127,155.589 73.987,136.535" stroke-width="5" fill="none"></path>
                                <path d="M125.103,236.394 C110.659,253.044 104.956,350.24 103.933,375.384" stroke-width="5" fill="none"></path>
                                <path d="M68.117,173.073 C72.751,174.21 77.705,174.934 82.336,174.647 C86.872,174.367 91.056,173.414 94.685,172.222" stroke-width="5" fill="none"></path>
                                <path d="M41.882,109.481 C41.882,94.305 50.084,82.002 60.201,82.002 C70.319,82.002 78.52,94.305 78.52,109.481 C78.52,124.657 70.319,136.96 60.201,136.96 C50.084,136.96 41.882,124.657 41.882,109.481 Z" stroke-width="5" fill="none"></path>
                                <path d="M83.273,119.551 C82.332,115.59 81.816,111.328 81.816,107.47 C81.816,92.294 90.018,79.991 100.135,79.991 C110.253,79.991 118.454,92.294 118.454,107.47 C118.454,112.398 116.277,124.607 109.616,128.945" stroke-width="5" fill="none"></path>
                                <path d="M59.344,117.554 C59.344,115.74 60.814,114.27 62.628,114.27 C64.441,114.27 65.912,115.74 65.912,117.554 C65.912,119.367 64.441,120.837 62.628,120.837 C60.814,120.837 59.344,119.367 59.344,117.554 Z" stroke-width="5" fill="#262626" fill-rule="nonzero"></path>
                                <path d="M43.994,72.795 C62.621,57.355 69.893,75.199 72.64,72.122 C75.977,68.384 60.415,57.723 45.097,71.937" stroke-width="5" fill="#262626" fill-rule="nonzero"></path>
                                <path d="M118.481,73.054 C97.736,57.778 91.785,73.163 88.476,69.977 C84.677,66.318 109.054,56.417 118.481,72.028" stroke-width="5" fill="#262626" fill-rule="nonzero"></path>
                                <path d="M95.407,117.087 C95.407,115.274 96.877,113.804 98.691,113.804 C100.504,113.804 101.974,115.274 101.974,117.087 C101.974,118.9 100.504,120.371 98.691,120.371 C96.877,120.371 95.407,118.9 95.407,117.087 Z" stroke-width="5" fill="#262626" fill-rule="nonzero"></path>
                                <path d="M45.619,233.547 C63.896,273.521 63.449,353.088 63.242,373.08" stroke-width="5" fill="none"></path>
                                <path d="M39.405,236.59 C53.89,253.287 58.651,348.398 59.655,373.217" stroke-width="5" fill="none"></path>
                                <path d="M12.315,119.494 C12.315,107.729 17.949,62.704 26.13,57.148" stroke-width="5" fill="none"></path>
                                <path d="M20.48,51.731 C7.044,86.413 9.029,95.301 9.029,119.323" stroke-width="5" fill="none"></path>
                                <path d="M136.485,60.802 C144.712,73.965 152.228,92.751 153.309,119.607" stroke-width="5" fill="none"></path>
                                <path d="M142.505,55.091 C157.293,76.217 157.322,91.827 157.322,117.601" stroke-width="5" fill="none"></path>
                                <path d="M123.246,21.14 C123.246,21.14 94.198,9.544 66.093,11.295 C64.312,11.406 81.804,8.074 82.275,0.471 C82.41,-1.717 55.617,12.904 47.241,8.23 C33.055,0.314 48.92,14.254 45.898,15.408 C17.301,26.335 14.892,40.215 21.516,51.076 C29.324,63.882 77.841,43.941 92.031,50.022 C102.491,54.505 103.012,64.55 134.263,57.793 C182.23,47.422 174.111,-30.52 109.938,38.197" stroke-width="5" fill="none"></path>
                                <path d="M72.222,26.396 C76.557,30.73 81.19,34.79 87.052,36.988 C91.296,38.58 96.419,37.966 96.341,37.966 C91.402,37.966 86.4,38.26 81.511,37.477 C79.18,37.104 76.049,32.595 74.993,34.707 C74.334,36.025 79.079,41.54 78.415,42.203 C76.98,43.639 72.902,40.88 72.059,40.085 C70.705,38.805 70.418,38.222 69.452,36.663 C68.628,35.332 67.981,34.047 67.333,32.751" stroke-width="5" fill="none"></path>
                                <path d="M106.423,149.31 C105.476,153.939 111.976,159.719 114.213,161.397 C115.163,162.109 118.308,163.456 117.12,163.456 C112.173,163.456 107.905,159.216 103.189,159.216 C102.635,159.216 103.448,163.733 103.068,164.304 C102.088,165.773 96.496,160.064 96.405,160.428 C95.781,162.923 96.086,167.288 94.103,169.271 C93.666,169.708 89.53,161.995 87.561,162.487 C86.577,162.733 86.12,168.188 83.564,166.727 C82.778,166.278 80.599,160.485 78.718,162.366 C77.474,163.61 77.207,168.249 74.72,167.696 C72.978,167.309 73.047,163.567 70.965,162.972 C69.684,162.606 67.319,167.927 66.725,167.333 C65.689,166.297 67.277,163.237 65.029,162.487 C63.109,161.847 62.81,165.678 61.273,164.91 C60.559,164.553 61.103,161.13 59.698,160.428 C58.151,159.654 57.608,164.062 56.064,164.062 C53.877,164.062 62.71,155.967 56.018,159.19 C55.449,159.464 51.796,162.352 51.218,162.608 C49.255,163.481 47.517,163.83 45.403,163.941 C44.673,163.979 42.896,164.837 43.223,164.183 C44.717,161.195 56.293,159.978 61.895,151.487 C62.832,150.067 78.438,159.936 106.528,149.52" stroke-width="5" fill="#262626" fill-rule="nonzero"></path>
                                <path d="M97.153,225.307 C102.011,227.191 105.049,229.882 105.049,232.868 C105.049,238.567 93.98,243.188 80.324,243.188 C66.669,243.188 55.599,238.567 55.599,232.868 C55.599,230.154 58.11,227.684 62.214,225.842" stroke-width="5" fill="none"></path>
                                <path d="M7.476,126.096 C1.813,122.749 6.062,136.722 8.041,138.7" stroke-width="2.5" fill="none"></path>
                                <path d="M154.666,127.248 C159.09,120.612 158.484,133.643 157.684,136.045 C157.372,136.98 156.664,138.23 156.664,139.232" stroke-width="2.5" fill="none"></path>
                            </g>
                        </g>
                    </g>
                    <g id="Mask-link" stroke-linecap="round" stroke-linejoin="round" stroke="#262626" stroke-width="5">
                        <polygon id="Mask" points="0.4374 0.301 315.604 0.301 315.604 315.468 0.4374 315.468"></polygon>
                    </g>
                </g>
            </g>
        </g>
        <text font-family="HaveaGreatDay, Have a Great Day" font-size="48" font-weight="normal" fill="#000000">
            <tspan x="108.164563" y="465">FRIDOLIN</tspan>
        </text>
    </g>
</svg>