<?xml version="1.0" encoding="UTF-8"?>
<svg width="410px" height="510px" viewBox="0 0 410 510" version="1.1" xmlns="http://www.w3.org/2000/svg" xmlns:xlink="http://www.w3.org/1999/xlink">
    <!-- Generator: Sketch 47.1 (45422) - http://www.bohemiancoding.com/sketch -->
    <title>Fritz</title>
    <desc>Created with Sketch.</desc>
    <defs>
        <radialGradient cx="65.1832678%" cy="36.5028321%" fx="65.1832678%" fy="36.5028321%" r="16.7967417%" gradientTransform="translate(0.651833,0.365028),scale(0.999996,1.000000),translate(-0.651833,-0.365028)" id="radialGradient-1">
            <stop stop-color="#262626" stop-opacity="0.653061" offset="0%"></stop>
            <stop stop-color="#262626" offset="100%"></stop>
        </radialGradient>
        <polygon id="path-2" points="0.4374 0.301 315.604 0.301 315.604 315.468 0.4374 315.468"></polygon>
    </defs>
    <g id="Planungstage-'17-framed" stroke="none" stroke-width="1" fill="none" fill-rule="evenodd">
        <g id="Fritz">
            <g transform="translate(3.000000, 1.000000)">
                <g id="Layer-1" fill-rule="nonzero">
                    <path d="M387.758,53.812 L384.631,489.251 C381.68,489.431 376.416,489.765 373.167,489.946 C361.346,490.6 347.777,491.21 332.729,491.821 C283.173,493.835 232.045,494.831 180.843,494.601 C180.03,494.604 179.224,494.666 178.411,494.67 C124.877,494.387 71.301,492.619 19.4381,489.181 C19.3862,482.066 16.2535,55.2358 16.242,54.09 C16.2518,53.9558 11.7424,54.1048 11.74,54.1848 C11.7388,54.2718 9.074,142.775 8.1821,195.484 C7.3623,243.929 6.2379,295.344 4.847,348.204 C3.8136,387.475 0.8621,483.415 0.5392,493.003 C0.4261,496.358 0.1269,504.685 0.1223,504.814 C0.0519,506.808 1.7472,508.449 3.7353,508.289 C9.5794,507.817 15.443,507.39 21.3835,506.968 C125.298,499.584 236.278,499.881 340.858,504.814 C357.077,505.58 371.708,506.357 384.492,507.177 C388.965,507.464 400.093,508.275 400.264,508.289 C402.253,508.444 403.952,506.807 403.877,504.814 C403.873,504.692 402.806,474.059 402.418,462.361 C401.311,428.938 400.186,392.422 399.153,353.971 C397.361,287.29 395.99,221.953 395.192,160.744 C394.696,122.649 393.173,87.386 393.173,54.3036 C393.173,52.0881 387.774,51.5967 387.758,53.812 Z" id="Shape" fill-opacity="0.5" fill="#262626"></path>
                    <path d="M12.9208,53.7843 L391.121,53.7843 L387.969,492.361 C387.969,492.361 202.021,504.967 16.0724,492.361 L12.9208,53.7843 Z" id="Shape" stroke="#262626" stroke-width="5" fill="#FFFFFF" stroke-linecap="round" stroke-linejoin="round"></path>
                    <polygon id="Shape" stroke="#262626" stroke-width="3" fill-opacity="0.0969388" fill="#262626" stroke-linecap="round" stroke-linejoin="round" points="44.4374 85.301 359.604 85.301 359.604 400.468 44.4374 400.468"></polygon>
                    <path d="M166.321,24.7689 C159.914,24.769 154.718,29.9653 154.718,36.3723 C154.718,42.7794 159.914,47.9756 166.321,47.9756 C168.249,47.9756 170.002,47.4178 171.602,46.586 L199.742,73.6142 C200.406,74.2519 201.251,74.5349 202.104,74.5174 C202.957,74.4999 203.759,74.1397 204.397,73.4753 C205.035,72.8108 205.387,71.9662 205.37,71.1129 C205.352,70.2595 204.992,69.3884 204.327,68.7505 L176.327,41.9308 C177.262,40.2582 177.925,38.4247 177.925,36.3723 C177.925,29.9653 172.728,24.7689 166.321,24.7689 Z" id="Shape" fill-opacity="0.5" fill="#262626"></path>
                    <path d="M186.262,23.9025 L202.021,71.1775" id="Shape" stroke="#262626" stroke-width="5" fill="#262626" stroke-linecap="round" stroke-linejoin="round"></path>
                    <path d="M170.504,12.3016 C170.504,5.8945 175.698,0.7007 182.105,0.7007 C188.512,0.7007 193.706,5.8945 193.706,12.3016 C193.706,18.7086 188.512,23.9026 182.105,23.9026 C175.698,23.9026 170.504,18.7086 170.504,12.3016 Z" id="Shape" stroke="#262626" stroke-width="3" fill="url(#radialGradient-1)" stroke-linecap="round" stroke-linejoin="round"></path>
                </g>
                <g id="Layer-3" transform="translate(93.000000, 139.000000)" fill-rule="nonzero">
                    <path d="M107.062,0.812 C130.31,0.812 148.289,6.015 161.562,15.625 C172.837,23.788 180.521,34.99 185.125,48.594 C185.138,48.632 185.173,48.651 185.188,48.688 C184.921,48.673 184.678,48.594 184.406,48.594 C180.166,48.594 175.337,50.765 172.219,54.562 C168.307,59.326 167.307,66.09 169.875,74.375 C171.047,78.158 174.115,85.709 174.312,86.812 C174.651,88.7 174.191,90.764 172.281,95.406 C170.374,100.042 170.928,107.113 173.031,114.531 C173.853,117.43 174.849,120.098 175.781,121.875 C176.339,122.939 176.864,123.712 177.5,124.219 C179.292,125.647 181.568,124.682 182.094,122.562 C182.266,121.866 182.451,121.202 182.625,120.562 C183.194,118.476 183.775,117.116 184.344,115.656 C185.392,115.919 186.519,115.639 187.094,114.656 C187.137,114.582 187.288,114.4 187.5,114.125 C187.874,113.641 188.326,113.14 188.844,112.688 C190.73,111.04 192.932,110.324 195.594,110.938 C199.18,111.764 200.714,123.552 197.844,135.469 C194.597,148.948 187.71,156.506 179.312,154.156 C180.056,151.166 180.625,148.057 180.938,144.719 C181.066,143.344 180.062,142.129 178.688,142 C177.313,141.871 176.098,142.875 175.969,144.25 C174.12,163.977 165.013,175.471 147.312,186.094 C144.412,187.834 134.797,193.209 133.969,193.688 C121.398,200.948 115.936,206.853 115.938,216.438 L115.938,228.406 C115.938,229.787 117.057,230.906 118.438,230.906 C119.818,230.906 120.937,229.787 120.938,228.406 L120.938,226.875 C121.852,228.01 121.835,228.939 121.031,229.875 C119.359,231.822 115.439,233.805 109.219,236.094 C108.37,236.406 104.949,237.616 103.688,238.062 C103.144,237.875 98.962,236.445 97.625,235.969 C91.291,233.711 87.461,231.822 85.812,229.969 C85.043,229.104 85.041,228.226 85.969,227.125 L85.969,228.406 C85.969,229.787 87.088,230.906 88.469,230.906 C89.849,230.906 90.969,229.787 90.969,228.406 L90.969,216.688 L90.969,216.438 C91.772,207.133 85.946,200.456 72.656,192.031 C70.194,190.47 61.263,185.086 60.062,184.344 C50.464,178.411 44.317,173.693 39.625,168.125 C33.846,161.268 31.046,153.679 31.5,144.594 C31.569,143.215 30.504,142.038 29.125,141.969 C27.746,141.9 26.6,142.965 26.531,144.344 C26.372,147.538 26.682,150.554 27.219,153.469 C26.801,153.412 26.388,153.299 25.969,153.469 C19.328,156.159 13.23,147.507 10.469,132.375 C9.24,125.64 8.944,118.674 9.688,113.469 C10.192,109.939 11.086,107.739 11.969,106.844 C13.441,107.015 14.827,107.423 16.125,108.062 C17.087,109.169 17.917,110.803 18.594,112.938 C19.123,114.608 19.495,116.431 19.75,118.25 C19.84,118.889 19.921,119.472 19.969,120 C19.997,120.308 20.026,120.526 20.031,120.625 C20.103,122.004 21.277,123.072 22.656,123 C24.035,122.928 25.072,121.754 25,120.375 C24.985,120.082 24.92,119.442 24.875,118.969 C25.515,120.644 26.079,122.486 26.594,124.562 C26.996,126.184 27.947,126.989 29.062,127.125 C30.178,127.261 31.446,126.726 32.438,125.75 C33.565,124.64 34.648,122.825 35.438,120.719 C37.415,115.441 37.333,109.519 34.406,104.469 C32.593,101.34 32.487,100.444 33.094,99.156 C33.166,99.003 33.487,98.339 33.469,98.375 C35.215,94.811 35.186,91.198 32.625,84.594 C33.146,84.179 33.988,83.702 35.25,83.094 C35.661,82.896 37.044,82.241 37.156,82.188 C37.933,81.819 38.456,81.554 38.906,81.281 C39.817,80.73 40.396,80.236 40.719,79.312 C41.369,77.453 40.223,76.165 38.719,75.625 C36.22,74.727 34.357,72.87 33,70.25 C31.995,68.31 31.546,66.681 31.031,64.156 C29.471,56.506 26.471,51.697 21.969,49.688 C26.636,35.783 34.572,24.422 46.531,16.156 C60.957,6.185 80.886,0.813 107.062,0.812 Z" id="Shape" fill="#FFFFFF"></path>
                    <path d="M16.594,53.594 C21.451,53.594 24.437,56.879 26.125,65.156 C26.39,66.456 26.544,67.092 26.844,68.125 C27.291,69.668 27.833,71.154 28.562,72.562 C29.801,74.952 31.472,76.894 33.5,78.375 C33.326,78.457 33.163,78.545 33.062,78.594 C31.44,79.376 30.31,80.014 29.406,80.75 C27.768,82.084 26.932,83.744 27.719,85.688 C30.118,91.611 30.152,93.837 29,96.188 C29.039,96.108 28.691,96.793 28.594,97 C27.224,99.905 27.512,102.515 30.094,106.969 C32.197,110.597 32.239,114.994 30.75,118.969 C30.612,119.337 30.466,119.452 30.312,119.781 C27.825,112.043 24.246,106.839 19.594,104.094 C19.265,103.9 18.949,103.792 18.625,103.625 C17.013,102.258 15.14,101.375 12.844,101.375 C12.164,101.375 11.597,101.642 11,101.844 C9.922,101.796 8.961,101.627 7.719,101.688 C7.048,101.72 7.01,101.714 6.781,101.719 C2.363,93.921 -0.143,81.801 0.938,71.75 C2.173,60.259 7.468,53.594 16.594,53.594 Z" id="Shape" fill-opacity="0.0986395" fill="#262626"></path>
                    <path d="M184.406,53.594 C197.408,53.594 203.08,80.697 194.406,102.969 C193.607,105.02 193.615,105.015 191.469,104.656 C185.619,103.679 182.058,106.461 178.906,116.031 C178.541,115.025 178.173,114.319 177.844,113.156 C176.022,106.732 175.54,100.634 176.906,97.312 C179.148,91.863 179.767,88.993 179.219,85.938 C178.911,84.221 175.693,76.219 174.656,72.875 C172.563,66.12 173.309,61.141 176.094,57.75 C178.238,55.138 181.628,53.594 184.406,53.594 Z" id="Shape" fill-opacity="0.0986395" fill="#262626"></path>
                    <path d="M126.688,228.656 C129.175,230.773 130.012,233.085 129.25,235.688 C128.249,239.105 124.955,243.072 120.062,247.125 C117.861,248.949 115.494,250.665 113.125,252.219 C112.82,252.419 112.569,252.567 112.281,252.75 L107.188,242.125 C108.788,241.564 110.351,241.028 110.938,240.812 C117.977,238.223 122.381,235.957 124.812,233.125 C126.065,231.666 126.65,230.172 126.688,228.656 Z" id="Shape" fill-opacity="0.501701" fill="#262626"></path>
                    <path d="M80.188,228.875 C80.222,230.375 80.818,231.879 82.094,233.312 C84.515,236.035 88.771,238.101 95.938,240.656 C96.727,240.938 97.998,241.368 99.469,241.875 L93.812,252.25 C93.523,252.068 93.277,251.918 92.969,251.719 C90.686,250.243 88.401,248.613 86.281,246.875 C81.363,242.842 78.137,238.888 77.344,235.531 C76.775,233.125 77.701,230.902 80.188,228.875 Z" id="Shape" fill-opacity="0.501701" fill="#262626"></path>
                    <path d="M134.219,231.031 C146.055,233.501 155.299,238.851 162.156,247.094 C165.066,250.592 167.479,254.58 169.594,258.969 L39.312,258.969 C46.707,246.336 57.915,236.745 72.594,231.125 C72.319,232.056 72.12,233.004 72.125,234 C72.129,234.87 72.252,235.77 72.469,236.688 C73.581,241.395 77.426,246.077 83.125,250.75 C85.404,252.619 87.82,254.335 90.25,255.906 C91.101,256.456 91.882,256.95 92.594,257.375 C93.027,257.634 93.354,257.838 93.531,257.938 C94.746,258.618 96.271,258.16 96.938,256.938 L103.219,245.438 L108.969,257.438 C109.596,258.745 111.209,259.249 112.469,258.531 C112.651,258.427 112.99,258.209 113.438,257.938 C114.174,257.491 114.995,256.983 115.875,256.406 C118.39,254.757 120.893,252.953 123.25,251 C128.848,246.362 132.711,241.711 134.062,237.094 C134.69,234.95 134.714,232.926 134.219,231.031 Z" id="Shape" fill-opacity="0.501701" fill="#262626"></path>
                </g>
                <g id="Layer-3_2" transform="translate(44.000000, 85.000000)">
                    <g id="Clipped">
                        <mask id="mask-3" fill="white">
                            <use xlink:href="#path-2"></use>
                        </mask>
                        <g id="Mask"></g>
                        <g id="Group" mask="url(#mask-3)" stroke="#262626" stroke-width="5" stroke-linecap="round" stroke-linejoin="round">
                            <path d="M236.503,101.787 C227.961,76.547 206.601,52.322 156.078,52.322 C99.552,52.322 76.689,77.078 68.097,104.179" id="Shape"></path>
                            <path d="M129.635,433.38 C117.068,433.255 102.448,433.725 98.87,435.514 C86.591,441.653 104.026,391.565 105.45,361.658 C106.408,351.541 107.631,341.35 109.195,331.822 C109.406,330.533 102.004,343.578 102.004,343.578 C102.004,351.073 77.554,333.454 78.021,331.587 C84.017,307.604 100.319,287.736 128.565,280.141" id="Shape"></path>
                            <path d="M178.273,281.481 C210.842,285.505 222.102,309.189 227.401,330.385 C228.855,336.202 203.418,342.376 203.418,342.376 C203.418,342.376 195.373,325.472 196.13,330.027 C203.418,373.92 196.316,396.508 205.764,433.354 C206.258,435.279 194.097,435.117 180.705,434.856" id="Shape"></path>
                            <path d="M75.916,209.784 C56.202,217.771 49.865,157.884 61.857,157.884 C70.645,157.884 71.514,174.497 71.514,174.497" id="Shape"></path>
                            <path d="M78.014,198.48 C75.916,240.45 140.004,244.752 137.466,270.428 L137.466,282.419" id="Shape"></path>
                            <path d="M227.461,210.517 C250.406,217.269 256.83,165.199 245.145,162.506 C237.808,160.815 233.95,167.408 233.95,167.408" id="Shape"></path>
                            <path d="M227.461,198.48 C222.744,248.817 167.441,243.905 167.444,270.428 L167.444,282.419" id="Shape"></path>
                            <path d="M153.311,164.792 C168.996,182.823 177.635,159.738 188.464,174.142 C197.671,186.388 173.689,216.366 149.706,192.383" id="Shape"></path>
                            <path d="M152.066,294.489 L143.752,309.742 C143.752,309.742 103.044,286.949 137.466,276.089 C122.224,285.235 140.614,290.489 152.066,294.489 Z" id="Shape"></path>
                            <path d="M152.726,294.696 L160.236,310.344 C160.236,310.344 201.866,286.633 167.444,275.773 C182.687,284.919 164.177,290.696 152.726,294.696 Z" id="Shape"></path>
                            <path d="M138.105,220.71 C152.066,216.152 172.53,221.455 172.53,221.455" id="Shape"></path>
                            <path d="M120.196,155.061 C120.196,146.319 124.921,139.232 130.749,139.232 C136.577,139.232 141.301,146.319 141.301,155.061 C141.301,163.802 136.577,170.889 130.749,170.889 C124.921,170.889 120.196,163.802 120.196,155.061 Z" id="Shape"></path>
                            <path d="M167.775,170.889 C165.551,167.987 164.183,162.149 164.183,157.38 C164.183,148.639 168.908,141.552 174.735,141.552 C180.563,141.552 185.288,148.639 185.288,157.38 C185.288,160.219 184.265,163.083 182.445,168.924" id="Shape"></path>
                            <path d="M128.422,164.631 C128.422,162.817 129.892,161.347 131.705,161.347 C133.519,161.347 134.989,162.817 134.989,164.631 C134.989,166.444 133.519,167.915 131.705,167.915 C129.892,167.915 128.422,166.444 128.422,164.631 Z" id="Shape" fill="#262626" fill-rule="nonzero"></path>
                            <path d="M115.634,123.688 C130.397,124.461 145.92,131.365 145.863,127.624 C145.736,119.374 129.635,123.688 115.829,123.688" id="Shape" fill="#262626" fill-rule="nonzero"></path>
                            <path d="M171.452,164.792 C171.452,162.979 172.922,161.509 174.735,161.509 C176.549,161.509 178.019,162.979 178.019,164.792 C178.019,166.606 176.549,168.076 174.735,168.076 C172.922,168.076 171.452,166.606 171.452,164.792 Z" id="Shape" fill="#262626" fill-rule="nonzero"></path>
                            <path d="M65.582,105.103 C42.383,105.103 44.297,141.849 54.04,157.884 C55.21,159.808 71.514,151.754 78.014,177.97 C78.883,181.475 86.956,169.561 81.248,159.711 C75.291,149.434 85.327,154.314 79.029,138.76 C77.783,135.684 89.873,133.046 86.886,131.973 C79.65,129.373 78.041,120.956 77.572,118.654 C75.611,109.043 71.601,105.103 65.582,105.103 Z" id="Shape"></path>
                            <path d="M233.397,105.103 C249.48,105.103 254.513,135.314 245.723,157.884 C241.754,168.076 235.18,149.76 228.68,175.976 C227.81,179.481 219.912,159.345 223.607,150.362 C228.126,139.376 225.299,140.65 221.262,127.624 C216.129,111.062 227.378,105.103 233.397,105.103 Z" id="Shape"></path>
                            <path d="M118.658,83.281 C128.17,82.953 134.627,92.166 142.262,87.786 C158.881,78.251 163.054,93.242 172.53,87.353 C178.743,83.493 188.099,87.463 195.645,87.463" id="Shape"></path>
                            <path d="M128.422,102.077 C142.262,95.84 139.519,104.403 149.458,104.291 C159.396,104.179 161.37,94.504 174.735,104.179" id="Shape"></path>
                            <path d="M159.396,237.129 C159.396,237.129 152.726,227.507 147.067,237.129" id="Shape"></path>
                            <path d="M193.387,123.688 C178.625,124.461 163.102,131.365 163.159,127.624 C163.286,119.374 179.387,123.688 193.193,123.688" id="Shape" fill="#262626" fill-rule="nonzero"></path>
                        </g>
                    </g>
                </g>
            </g>
            <text id="FRITZ" font-family="HaveaGreatDay, Have a Great Day" font-size="48" font-weight="normal" fill="#000000">
                <tspan x="149.124562" y="465">FRITZ</tspan>
            </text>
        </g>
    </g>
</svg>