<?xml version="1.0" encoding="UTF-8"?>
<svg width="410px" height="510px" viewBox="0 0 410 510" version="1.1" xmlns="http://www.w3.org/2000/svg" xmlns:xlink="http://www.w3.org/1999/xlink">
    <!-- Generator: Sketch 49.3 (51167) - http://www.bohemiancoding.com/sketch -->
    <title>Jacques</title>
    <desc>Created with Sketch.</desc>
    <defs>
        <radialGradient cx="65.1832678%" cy="36.5028321%" fx="65.1832678%" fy="36.5028321%" r="16.7968141%" gradientTransform="translate(0.651833,0.365028),scale(0.999996,1.000000),translate(-0.651833,-0.365028)" id="radialGradient-1">
            <stop stop-color="#262626" stop-opacity="0.653061" offset="0%"></stop>
            <stop stop-color="#262626" offset="100%"></stop>
        </radialGradient>
        <polygon id="path-2" points="0.4374 0.301 315.604 0.301 315.604 315.468 0.4374 315.468"></polygon>
    </defs>
    <g id="Jacques" stroke="none" stroke-width="1" fill="none" fill-rule="evenodd">
        <g id="jacques" transform="translate(6.000000, 1.000000)">
            <g id="Layer-1" fill-rule="nonzero">
                <path d="M387.758,53.812 L384.631,489.251 C381.68,489.431 376.416,489.765 373.167,489.946 C361.346,490.6 347.777,491.21 332.729,491.821 C283.173,493.835 232.045,494.831 180.843,494.601 C180.03,494.604 179.224,494.666 178.411,494.67 C124.877,494.387 71.301,492.619 19.4381,489.181 C19.3862,482.066 16.2535,55.2358 16.242,54.09 C16.2518,53.9558 11.7424,54.1048 11.74,54.1848 C11.7388,54.2718 9.074,142.775 8.1821,195.484 C7.3623,243.929 6.2379,295.344 4.847,348.204 C3.8136,387.475 0.8621,483.415 0.5392,493.003 C0.4261,496.358 0.1269,504.685 0.1223,504.814 C0.0519,506.808 1.7472,508.449 3.7353,508.289 C9.5794,507.817 15.443,507.39 21.3835,506.968 C125.298,499.584 236.278,499.881 340.858,504.814 C357.077,505.58 371.708,506.357 384.492,507.177 C388.965,507.464 400.093,508.275 400.264,508.289 C402.253,508.444 403.952,506.807 403.877,504.814 C403.873,504.692 402.806,474.059 402.418,462.361 C401.311,428.938 400.186,392.422 399.153,353.971 C397.361,287.29 395.99,221.953 395.192,160.744 C394.696,122.649 393.173,87.386 393.173,54.3036 C393.173,52.0881 387.774,51.5967 387.758,53.812 Z" id="Shape" fill-opacity="0.5" fill="#262626"></path>
                <path d="M12.9208,53.7843 L391.121,53.7843 L387.969,492.361 C387.969,492.361 202.021,504.967 16.0724,492.361 L12.9208,53.7843 Z" id="Shape" stroke="#262626" stroke-width="5" fill="#FFFFFF" stroke-linecap="round" stroke-linejoin="round"></path>
                <polygon id="Shape" stroke="#262626" stroke-width="3" fill-opacity="0.0969388" fill="#262626" stroke-linecap="round" stroke-linejoin="round" points="44.4374 85.301 359.604 85.301 359.604 400.468 44.4374 400.468"></polygon>
                <path d="M166.321,24.7689 C159.914,24.769 154.718,29.9653 154.718,36.3723 C154.718,42.7794 159.914,47.9756 166.321,47.9756 C168.249,47.9756 170.002,47.4178 171.602,46.586 L199.742,73.6142 C200.406,74.2519 201.251,74.5349 202.104,74.5174 C202.957,74.4999 203.759,74.1397 204.397,73.4753 C205.035,72.8108 205.387,71.9662 205.37,71.1129 C205.352,70.2595 204.992,69.3884 204.327,68.7505 L176.327,41.9308 C177.262,40.2582 177.925,38.4247 177.925,36.3723 C177.925,29.9653 172.728,24.7689 166.321,24.7689 Z" id="Shape" fill-opacity="0.5" fill="#262626"></path>
                <path d="M186.262,23.9025 L202.021,71.1775" id="Shape" stroke="#262626" stroke-width="5" fill="#262626" stroke-linecap="round" stroke-linejoin="round"></path>
                <path d="M170.504,12.3016 C170.504,5.8945 175.698,0.7007 182.105,0.7007 C188.512,0.7007 193.706,5.8945 193.706,12.3016 C193.706,18.7086 188.512,23.9026 182.105,23.9026 C175.698,23.9026 170.504,18.7086 170.504,12.3016 Z" id="Shape" stroke="#262626" stroke-width="3" fill="url(#radialGradient-1)" stroke-linecap="round" stroke-linejoin="round"></path>
            </g>
            <g id="Layer-3" transform="translate(86.000000, 143.000000)" fill-rule="nonzero">
                <path d="M64.25,0.062 C79.884,0.288 99.362,2.331 118.25,6.25 C162.826,15.498 192.36,31.866 193.156,51.312 C193.283,54.417 196.5,57.443 204.438,62.469 C180.419,52.641 158.797,46.493 137.312,43.594 C128.665,42.427 119.976,41.773 111.188,41.656 C85.182,41.31 58.166,45.659 28.062,54.906 C28.055,54.824 28.038,54.671 28.031,54.594 C27.37,47.099 27.006,40.959 26.938,35 C26.762,19.801 28.775,9.178 33.344,4.781 C36.838,1.419 48.616,-0.163 64.25,0.062 Z" id="Shape" fill-opacity="0.75" fill="#262626"></path>
                <path d="M107.781,46.531 C118.546,46.52 129.212,47.41 139.969,49.062 C126.657,47.118 113.541,46.405 100.438,46.938 C80.971,47.728 63.256,50.866 38.781,56.969 C63.298,50.106 85.781,46.554 107.781,46.531 Z" id="Shape" fill-opacity="0.75" fill="#262626"></path>
                <path d="M111.469,51.781 C133.677,52.017 156.039,55.86 179.812,63.875 C179.88,64.346 179.936,64.84 180.281,65.219 C183.56,68.816 184.833,71.66 184.688,73.969 C184.581,75.658 183.775,77.124 182,79.156 C181.836,79.344 180.997,80.27 180.875,80.406 C180.395,80.941 180.059,81.327 179.75,81.719 C178.814,82.906 178.253,83.973 178.094,85.188 C178.007,85.846 178.058,86.512 178.25,87.156 C178.624,88.409 179.698,89.114 180.875,89.188 C181.449,89.223 181.967,89.105 182.562,88.906 C183.186,88.698 183.271,88.659 185,87.844 C185.056,87.817 185.106,87.805 185.156,87.781 C185.096,87.936 185.068,88.058 185,88.219 C184.487,89.43 183.762,90.728 182.812,92.281 C182.357,93.027 180.768,95.541 180.469,96.031 C179.428,97.738 179.003,98.639 179.062,99.781 C179.146,101.367 180.173,102.649 181.781,102.875 C182.682,103.001 183.538,102.777 184.531,102.344 C185.562,101.894 186.824,101.11 188.562,99.969 C186.5,102.755 185.733,104.119 185.562,105.875 C185.562,105.876 185.518,105.904 185.469,105.969 C185.298,106.196 185.007,106.516 184.594,106.875 C183.726,107.628 182.474,108.525 180.875,109.531 C179.932,110.124 178.876,110.734 177.75,111.375 C175.824,112.472 173.76,113.574 171.688,114.625 C170.962,114.993 169.07,115.937 168.938,116 C166.135,117.335 167.786,121.55 170.75,120.625 C170.821,120.603 174.51,119.505 175.625,119.188 C175.896,119.11 176.178,119.041 176.438,118.969 C176.805,118.866 177.007,118.841 177.344,118.75 C177.199,118.934 177.159,119.025 177,119.219 C176.643,119.655 176.256,120.125 175.844,120.594 C174.993,121.562 174.074,122.526 173.156,123.469 C172.835,123.799 171.994,124.633 171.938,124.688 C170.001,126.572 171.997,129.783 174.531,128.844 C174.616,128.812 175.837,128.358 176.312,128.188 C177.672,127.702 179.082,127.202 180.438,126.75 C180.789,126.633 182.217,126.186 182.906,125.969 C183.01,126.051 183.136,126.146 183.312,126.375 C183.886,127.119 184.488,128.337 185.062,129.875 C185.489,131.017 185.859,132.259 186.188,133.5 C186.303,133.936 186.579,135.055 186.594,135.125 C187.234,138.168 191.744,137.54 191.531,134.438 C191.519,134.265 191.488,133.931 191.469,133.438 C191.321,129.651 191.463,125.339 192.062,121.312 C192.473,118.555 193.114,116.404 193.875,114.594 C193.88,115.437 194.153,116.26 194.938,116.719 C196.129,117.416 197.678,117.004 198.375,115.812 C198.504,115.592 198.825,115.141 199.344,114.688 C200.429,113.74 201.677,113.339 203.188,113.688 C203.77,113.822 204.606,115.325 205.031,118.062 C205.524,121.233 205.339,125.335 204.5,129.188 C202.615,137.844 198.458,142.465 193.375,140.969 C192.995,140.857 192.649,141.027 192.281,141.094 C192.226,139.762 191.158,138.688 189.812,138.688 C188.432,138.688 187.313,139.807 187.312,141.188 C187.312,149.902 184.407,156.171 178.688,161.188 C174.175,165.146 169.285,167.659 158.219,172.344 C157.427,172.679 157.035,172.839 156.656,173 C144.908,177.98 139.174,181.033 133.812,185.969 C126.67,192.544 122.938,201.063 122.938,212.438 L122.938,224.406 C122.938,225.787 124.057,226.906 125.438,226.906 C126.818,226.906 127.937,225.787 127.938,224.406 L127.938,221 C131.516,222.546 133.562,224.389 133.562,225.875 C133.562,227.47 130.6,230.558 125.875,233.188 C120.439,236.212 113.818,238.094 107.875,238.094 C102.142,238.094 97.28,236.36 93.719,233.438 C90.795,231.039 89.094,228.049 89.094,225.875 C89.094,224.685 90.574,223.246 92.969,221.906 L92.969,224.406 C92.969,225.787 94.088,226.906 95.469,226.906 C96.849,226.906 97.969,225.787 97.969,224.406 L97.969,212.438 C97.969,201.243 95.326,193.407 90.062,187.812 C86.016,183.512 81.72,181.216 72.562,177.625 C72.609,177.643 69.004,176.224 68.375,175.969 C61.243,173.075 56.762,170.509 52.906,166.594 C48.407,162.026 45.318,155.753 43.562,147.25 C43.936,147.424 44.163,147.57 44.562,147.75 C46.081,148.435 47.525,149.016 48.656,149.406 C49.306,149.63 49.856,149.816 50.312,149.906 C50.656,149.974 50.984,149.983 51.312,149.969 C52.23,149.93 53.085,149.612 53.625,148.531 C54.721,146.34 54.084,144.464 51.969,140.312 C51.872,140.123 51.877,140.125 51.781,139.938 C50.904,138.224 50.644,137.644 50.406,137 C51.048,136.98 51.703,136.972 52.781,136.969 C53.05,136.968 55.943,136.957 56.562,136.938 C57.004,136.924 57.319,136.879 57.594,136.844 C57.888,136.806 58.144,136.777 58.438,136.656 C58.943,136.448 59.374,136.139 59.719,135.5 C60.313,134.399 60.005,133.223 59.281,132.5 C57.633,130.852 55.28,130.055 51.125,129.219 C50.803,129.154 49.151,128.842 49,128.812 C47.435,128.507 46.522,128.295 45.812,128.062 C45.506,127.962 45.312,127.863 45.156,127.781 C44.491,126.475 45.117,125.349 47.094,123.875 C47.222,123.779 47.653,123.456 47.594,123.5 C47.861,123.304 48.019,123.195 48.188,123.031 C48.515,122.714 48.745,122.405 48.906,121.844 C49.344,120.321 48.355,119.004 47.062,118.688 C46.499,118.55 46.223,118.593 45.625,118.719 C45.157,118.817 40.693,120.042 38.938,120.5 C38.798,120.536 38.752,120.693 38.625,120.75 C38.61,120.711 38.609,120.697 38.594,120.656 C38.143,119.498 37.602,118.348 36.906,117.25 C36.069,115.928 35.055,114.887 33.969,114 C34.899,113.906 35.681,113.684 36.219,113.375 C36.568,113.561 36.889,113.812 37.312,113.812 C39.774,113.812 40.887,111.961 40.812,109.75 C40.779,108.76 40.636,108.011 40.125,105.938 C40.097,105.823 40.09,105.801 40.062,105.688 C39.88,104.944 39.861,104.653 39.781,104.219 C39.859,104.255 39.848,104.239 39.938,104.281 C39.949,104.286 39.958,104.307 39.969,104.312 C42.487,105.506 43.628,105.811 45.375,104.938 C46.182,104.534 46.808,103.754 46.844,102.688 C46.869,101.929 46.626,101.378 46.25,100.906 C46.102,100.72 45.954,100.588 45.781,100.438 C45.747,100.408 45.691,100.367 45.625,100.312 C45.437,99.945 44.319,97.759 43.906,96.906 C43.287,95.627 42.797,94.494 42.406,93.438 C41.92,92.121 41.664,91.067 41.562,90.156 C42.472,90.421 43.338,90.705 45.688,91.594 C45.762,91.622 49.461,92.978 50.688,93.312 C53.077,93.965 54.557,94.036 55.844,92.75 C56.658,91.936 56.716,90.956 56.438,90.125 C56.336,89.823 56.222,89.598 56.062,89.375 C55.912,89.164 55.716,88.967 55.5,88.75 C55.197,88.446 54.786,88.081 54.25,87.625 C53.338,86.85 52.065,85.831 50.594,84.688 C48.013,82.682 45.737,81.008 44.906,80.5 C44.869,80.176 44.891,79.677 45.031,78.969 C45.348,77.375 46.118,75.189 47.219,72.656 C48.132,70.553 49.226,68.284 50.375,66.125 C51.223,64.531 52.053,63.111 52.281,62.781 C53.067,61.646 52.792,60.067 51.656,59.281 C51.439,59.131 51.179,59.199 50.938,59.125 C69.742,54.814 84.465,52.595 100.656,51.938 C104.256,51.791 107.866,51.743 111.469,51.781 Z" id="Shape" fill="#FFFFFF"></path>
                <path d="M48.625,59.625 C48.493,59.747 48.295,59.751 48.188,59.906 C47.198,61.336 44.389,66.597 42.625,70.656 C41.395,73.488 40.524,75.957 40.125,77.969 C39.507,81.08 39.889,83.476 42.188,84.625 C42.292,84.698 42.831,85.119 43.312,85.469 C42.954,85.35 42.597,85.185 42.375,85.125 C41.461,84.877 40.716,84.745 40.031,84.75 C38.637,84.76 37.376,85.34 36.875,86.844 C36.103,89.16 36.505,91.903 37.719,95.188 C38.144,96.338 38.686,97.535 39.312,98.844 C38.161,98.659 37.035,98.77 36.062,99.5 C34.775,100.465 34.465,101.856 34.594,103.562 C34.663,104.475 34.811,105.34 35.188,106.875 C35.216,106.992 35.221,107.009 35.25,107.125 C35.484,108.076 35.501,108.333 35.562,108.719 C34.826,108.628 34.098,108.746 33.531,109.312 C33.715,109.129 33.848,109.014 33.969,108.969 C33.958,108.973 33.918,109.013 33.812,109.031 C33.533,109.081 33.147,109.117 32.5,109.156 C32.373,109.164 32.38,109.148 32.25,109.156 C30.657,109.252 30.069,109.322 29.312,109.625 C26.673,110.681 27.938,110.133 26.781,110.594 C27.152,109.867 27.531,109.173 27.844,108.344 C29.182,104.794 29.516,101.064 28.531,97.125 C28.233,95.93 27.396,95.357 26.469,95.156 C26.119,95.08 25.769,95.074 25.406,95.094 C24.978,95.117 24.492,95.198 23.938,95.312 C23.25,95.454 22.429,95.678 22.094,95.781 C18.7,96.826 15.438,98.626 11.719,101.188 C12.4,100.168 13.148,99.113 14.031,97.938 C15.008,96.637 18.562,92.129 19.156,91.312 C19.081,91.416 21.303,88.6 22.406,87.156 C22.535,86.988 22.658,86.819 22.781,86.656 C23.778,85.338 24.571,84.239 25.125,83.375 C25.481,82.819 25.758,82.35 25.938,81.938 C26.091,81.585 26.178,81.26 26.219,80.875 C26.325,79.865 25.977,78.77 24.812,78.188 C22.249,76.906 18.046,77.964 8.719,81.219 C8.255,81.381 3.3,83.144 2.281,83.5 C1.328,83.833 0.758,84.01 0.031,84.25 C0.449,83.851 0.7,83.533 1.219,83.094 C3.834,80.88 7.519,78.349 11.906,75.688 C19.286,71.21 28.485,66.57 31.688,65.531 C32.613,65.231 33.049,64.402 33.188,63.5 C38.526,62.119 43.914,60.73 48.625,59.625 Z" id="Shape" fill-opacity="0.146259" fill="#262626"></path>
                <path d="M188.25,67.719 C196.647,70.905 205.86,76.139 214.156,82.219 C215.394,83.125 216.085,83.846 217.188,84.719 C217.17,84.712 216.976,84.628 216.969,84.625 C213.367,83.18 210.844,82.228 208.906,81.625 C207.635,81.229 206.654,80.997 205.875,80.938 C205.139,80.881 204.499,80.949 203.844,81.312 C202.589,82.009 202.179,83.411 202.594,84.656 C203.279,86.712 206.107,91.276 210.312,97.531 C209.878,97.203 209.231,96.616 208.844,96.344 C207.753,95.575 206.861,95.05 206.094,94.719 C205.522,94.472 204.973,94.327 204.406,94.312 C203.316,94.286 202.264,94.784 201.719,95.875 C201.331,96.65 201.34,96.651 201.531,97.75 C201.572,97.984 201.636,98.289 201.719,98.656 C201.877,99.363 202.114,100.31 202.406,101.438 C202.751,102.766 203.221,104.426 203.656,105.969 C201.863,105.135 199.994,104.615 197.875,104.875 C191.687,105.633 188.471,111.563 187.125,120.594 C187.005,121.4 186.993,122.216 186.906,123.031 C185.485,121.376 183.774,120.471 181.75,121.094 C182.383,120.239 183.098,119.336 183.469,118.625 C184.421,116.797 184.612,115.168 183.375,113.844 C183.423,113.814 183.484,113.78 183.531,113.75 C188.058,110.902 190.343,108.924 190.469,106.531 C190.506,105.823 191.021,104.964 192.938,102.406 C195.205,99.38 196.175,97.637 196.375,95.281 C196.519,93.582 195.494,92.056 193.656,91.906 C192.784,91.835 191.999,92.087 191.031,92.562 C190.07,93.035 189.108,93.661 187,95.062 C187.024,95.024 187.074,94.939 187.094,94.906 C188.162,93.161 188.968,91.663 189.594,90.188 C190.026,89.167 190.349,88.166 190.562,87.219 C191.172,84.518 190.259,82.262 187.625,82 C187.071,81.945 186.517,82.02 185.938,82.156 C189.827,77.58 191.036,73.109 188.25,67.719 Z" id="Shape" fill-opacity="0.146259" fill="#262626"></path>
                <path d="M28.062,116.75 C29.845,116.75 31.35,117.876 32.656,119.938 C33.164,120.739 33.596,121.592 33.938,122.469 C34.14,122.988 34.262,123.375 34.312,123.562 C34.669,124.896 36.041,125.7 37.375,125.344 C37.692,125.259 37.845,124.967 38.094,124.781 C38.683,125.253 39.395,125.519 40.188,125.312 C40.216,125.305 40.252,125.289 40.281,125.281 C39.854,126.99 39.843,128.759 40.906,130.531 C41.768,131.968 43.399,132.582 46.125,133.219 C44.92,134.43 44.805,136.081 45.406,137.969 C45.763,139.088 46.147,139.882 47.344,142.219 C47.438,142.403 47.438,142.38 47.531,142.562 C47.821,143.132 47.867,143.364 48.062,143.781 C47.547,143.566 47.147,143.437 46.594,143.188 C45.181,142.551 43.825,141.892 42.781,141.312 C42.257,141.022 41.831,140.737 41.531,140.531 C41.406,140.445 41.303,140.389 41.25,140.344 C41.276,140.366 41.348,140.428 41.438,140.562 C40.672,139.414 39.118,139.109 37.969,139.875 C36.82,140.641 36.484,142.195 37.25,143.344 C37.469,143.673 38.123,144.076 38.594,144.438 C38.277,144.939 38.109,145.522 38.219,146.156 C38.228,146.212 38.24,146.257 38.25,146.312 C34.122,147.255 30.052,142.099 27.812,132.938 C26.745,128.572 26.344,124.041 26.719,120.688 C27.029,117.91 27.72,116.75 28.062,116.75 Z" id="Shape" fill="#FFFFFF"></path>
                <path d="M127.938,214.062 C144.166,216.622 156.341,223.915 156.625,229.281 C156.557,229.368 156.432,229.372 156.375,229.469 C156.001,230.097 155.959,230.817 156.156,231.469 C155.621,231.876 154.389,231.89 150.781,232 C143.022,232.236 140.542,232.36 134.719,232.844 C137.056,230.574 138.562,228.182 138.562,225.875 C138.562,221.663 134.92,218.241 129.062,215.969 C128.683,215.821 128.319,215.96 127.938,216 L127.938,214.062 Z" id="Shape" fill-opacity="0.503401" fill="#262626"></path>
                <path d="M92.969,215.625 L92.969,216.531 C92.701,216.557 92.446,216.447 92.188,216.562 C87.163,218.818 84.094,222.014 84.094,225.875 C84.094,228.685 85.297,231.483 87.281,234 C86.91,233.98 86.534,233.841 86.156,233.844 C79.601,233.899 74.453,233.617 70.75,232.938 C68.769,232.574 67.283,232.099 66.375,231.562 C66.296,231.516 66.285,231.483 66.219,231.438 C66.15,231.251 66.21,231.047 66.094,230.875 C66.003,230.741 65.829,230.737 65.719,230.625 C66.09,226.028 77.171,219.111 92.969,215.625 Z" id="Shape" fill-opacity="0.503401" fill="#262626"></path>
                <path d="M159.969,234.75 C167.117,239.714 172.519,246.421 176.625,254.969 L46.25,254.969 C50.687,247.39 56.529,240.89 63.656,235.688 C65.205,236.64 67.244,237.367 69.844,237.844 C73.931,238.594 79.34,238.901 86.188,238.844 C87.308,238.834 88.406,238.963 89.656,239.281 C90.382,239.466 91.148,239.711 92.188,240.062 C92.328,240.11 94.441,240.836 95.125,241.062 C99.88,242.634 104.007,243.429 109.562,243.531 C112.529,243.586 116.258,242.804 122.438,241.031 C122.903,240.898 123.389,240.731 123.969,240.562 C131.156,238.47 132.984,238.007 134.938,237.844 C140.795,237.355 143.173,237.236 150.938,237 C156.061,236.844 158.542,236.314 159.969,234.75 Z" id="Shape" fill-opacity="0.503401" fill="#262626"></path>
            </g>
            <g id="Layer-3_2" transform="translate(44.000000, 85.000000)">
                <g id="Group">
                    <g id="Clipped">
                        <mask id="mask-3" fill="white">
                            <use xlink:href="#path-2"></use>
                        </mask>
                        <g id="Mask"></g>
                        <g id="Group" mask="url(#mask-3)" stroke="#262626" stroke-linecap="round" stroke-linejoin="round">
                            <g transform="translate(36.000000, 55.000000)" id="Shape">
                                <path d="M93.635,378.38 C81.068,378.255 66.448,378.725 62.87,380.514 C50.591,386.653 68.026,336.565 69.45,306.658 C70.408,296.541 71.631,286.35 73.195,276.822 C73.406,275.533 66.004,288.578 66.004,288.578 C66.004,296.073 41.554,278.454 42.021,276.587 C46.191,259.907 55.346,245.218 70.037,235.263" stroke-width="5" fill="none"></path>
                                <path d="M164.534,233.745 C180.557,243.278 187.552,259.988 191.401,275.385 C192.855,281.202 167.418,287.376 167.418,287.376 C167.418,287.376 159.373,270.472 160.13,275.027 C167.418,318.92 160.316,341.508 169.764,378.354 C170.258,380.279 158.097,380.117 144.705,379.856" stroke-width="5" fill="none"></path>
                                <path d="M45.922,151.48 C31.646,157.265 25.366,117.243 34.05,117.243 C40.415,117.243 42.734,125.927 42.734,125.927" stroke-width="5" fill="none"></path>
                                <path d="M46.674,148.735 C54.952,196.498 101.466,169.474 101.466,215.428 L101.466,227.419" stroke-width="5" fill="none"></path>
                                <path d="M198.662,146.381 C214.097,150.923 217.599,116.076 209.739,114.264 C204.803,113.127 202.208,117.562 202.208,117.562" stroke-width="5" fill="none"></path>
                                <path d="M195.799,144.188 C195.799,186.158 131.444,169.474 131.444,215.428 L131.444,227.419" stroke-width="5" fill="none"></path>
                                <path d="M118.916,115.248 C128.197,126.741 147.25,104.303 152.821,129.131 C158.169,152.968 122.361,160.819 110.028,135.108" stroke-width="5" fill="none"></path>
                                <path d="M89.229,152.321 C98.074,172.164 114.705,170.934 119.336,170.647 C123.872,170.367 128.056,169.414 131.685,168.222" stroke-width="5" fill="none"></path>
                                <path d="M72.188,104.286 C72.188,89.109 80.39,76.806 90.507,76.806 C100.625,76.806 108.826,89.109 108.826,104.286 C108.826,119.462 100.625,131.764 90.507,131.764 C80.39,131.764 72.188,119.462 72.188,104.286 Z" stroke-width="5" fill="none"></path>
                                <path d="M129.119,116.03 C128.177,112.068 127.661,107.807 127.661,103.948 C127.661,88.772 135.863,76.469 145.98,76.469 C156.098,76.469 164.3,88.772 164.3,103.948 C164.3,108.876 162.123,121.085 155.462,125.423" stroke-width="5" fill="none"></path>
                                <path d="M89.65,112.358 C89.65,110.545 91.121,109.074 92.934,109.074 C94.748,109.074 96.218,110.545 96.218,112.358 C96.218,114.172 94.748,115.642 92.934,115.642 C91.121,115.642 89.65,114.172 89.65,112.358 Z" stroke-width="5" fill="#262626" fill-rule="nonzero"></path>
                                <path d="M70.989,64.73 C89.615,49.29 96.887,67.134 99.634,64.057 C102.971,60.319 87.409,49.658 72.091,63.872" stroke-width="5" fill="#262626" fill-rule="nonzero"></path>
                                <path d="M163.611,66.24 C142.866,50.963 136.915,66.348 133.606,63.162 C129.807,59.503 154.184,49.603 163.611,65.214" stroke-width="5" fill="#262626" fill-rule="nonzero"></path>
                                <path d="M141.252,113.565 C141.252,111.752 142.723,110.282 144.536,110.282 C146.35,110.282 147.82,111.752 147.82,113.565 C147.82,115.379 146.35,116.849 144.536,116.849 C142.723,116.849 141.252,115.379 141.252,113.565 Z" stroke-width="5" fill="#262626" fill-rule="nonzero"></path>
                                <path d="M134.153,221.307 C139.011,223.191 142.049,225.882 142.049,228.868 C142.049,234.567 127.546,243.586 113.89,243.586 C100.235,243.586 92.599,234.567 92.599,228.868 C92.599,226.154 95.11,223.684 99.214,221.842" stroke-width="5" fill="none"></path>
                                <path d="M37.304,125.204 C31.641,121.857 35.89,135.83 37.869,137.808" stroke-width="2.5" fill="none"></path>
                                <path d="M204.225,121.96 C208.648,115.324 208.042,128.355 207.242,130.757 C206.93,131.692 206.222,132.942 206.222,133.944" stroke-width="2.5" fill="none"></path>
                                <path d="M247.639,86.956 L196.438,67.979 C128.4,42.165 79.495,53.128 32.277,65.668 C30.896,50.507 26.991,16.213 37.611,5.994 C53.254,-9.058 199.717,7.135 201.645,54.219 C201.934,61.279 247.402,81.157 247.639,86.956" stroke-width="5" fill="none"></path>
                                <path d="M33.601,60.626 C115.557,35.152 172.108,47.072 247.25,85.168" stroke-width="5" fill="none"></path>
                                <path d="M36.91,66.146 C30.906,68.093 0.806,83.754 0.806,90.653 C0.806,93.173 25.607,81.391 29.689,83.432 C30.466,83.82 23.495,92.332 23.125,92.841 C20.247,96.798 11.965,106.038 11.965,111.221 C11.965,113.629 15.918,108.469 17.873,107.064 C21.24,104.644 24.841,102.378 28.814,101.156 C28.926,101.121 31.98,100.255 32.096,100.718 C35.882,115.863 16.098,123.003 36.253,114.941 C37.374,114.492 40.526,114.826 41.286,114.066" stroke-width="5" fill="none"></path>
                                <path d="M45.564,125.905 C61.259,121.811 44.791,125.129 49.065,132.251 C50.44,134.543 60.474,134.251 63.506,137.283 C63.863,137.64 54.829,137.233 54.097,137.721 C51.523,139.437 58.848,147.476 57.38,150.412 C57.019,151.133 46.275,146.337 45.345,144.942" stroke-width="5" fill="none"></path>
                                <path d="M188.142,66.542 C200.958,80.606 185.225,84.668 186.645,89.427 C187.139,91.084 195.391,84.107 194.134,89.676 C192.944,94.949 187.476,101.061 187.56,102.658 C187.758,106.428 200.179,94.517 199.876,98.081 C199.523,102.241 194.149,105.96 193.968,109.399 C193.79,112.778 176.005,121.251 176.005,121.251 C176.005,121.251 186.855,117.865 187.47,118.357 C189.472,119.959 179.678,129.488 179.678,129.488 C179.678,129.488 184.443,127.722 188.471,126.482 C192.44,125.261 195.039,137.613 195.039,137.613 C195.039,137.613 193.258,111.678 204.166,110.342 C215.075,109.007 219.72,129.513 219.638,129.376 C215.613,122.668 209.747,100.406 209.954,99.991 C211.082,97.735 230.101,115.908 230.101,115.908 C230.101,115.908 212.608,91.813 210.956,86.856 C210.069,84.194 232.12,94.585 233.107,94.091 C235.059,93.115 213.739,74.834 193.48,67.711" stroke-width="5" fill="none"></path>
                                <path d="M56.237,64.344 C55.237,65.789 45.371,83.415 49.304,85.382 C49.956,85.708 60.441,93.609 60.062,93.988 C58.46,95.591 45.926,88.583 45.24,90.641 C43.947,94.521 47.816,101.291 49.543,104.746 C49.721,105.103 50.617,105.524 50.261,105.703 C48.4,106.633 45.305,103.203 43.567,104.507 C41.575,106.001 46.247,114.309 43.328,114.309" stroke-width="5" fill="none"></path>
                                <path d="M92.918,143.67 C86.235,142.476 78.502,144.989 78.502,153.187" stroke-width="5" fill="none"></path>
                                <path d="M133.839,214.488 C152.821,217.356 166.189,226.214 165.186,233.327 C164.375,239.077 162.419,236.539 140.739,238.347 C135.019,238.824 122.02,244.158 115.622,244.04 C102.867,243.806 98.737,239.275 92.171,239.33 C80.551,239.427 69.143,238.562 69.143,233.873 C69.143,228.058 80.383,220.064 98.829,216.083" stroke-width="5" fill="none"></path>
                                <path d="M95.991,240.967 C100.436,253.032 100.903,265.689 100.903,278.402" stroke-width="5" fill="none"></path>
                                <path d="M136.046,236.492 C134.979,240.971 132.324,244.984 131.025,249.48 C128.482,258.282 129.061,267.482 129.061,276.546" stroke-width="5" fill="none"></path>
                                <path d="M129.284,277.982 C133.1,279.47 132.778,286.113 127.735,284.853 C125.117,284.198 124.959,276.294 129.284,277.982 Z" stroke-width="5" fill="none"></path>
                                <path d="M100.053,278.299 C103.815,276.733 104.07,284.93 100.887,286.203 C97.237,287.663 97.418,279.396 100.053,278.299 Z" stroke-width="5" fill="none"></path>
                                <path d="M126.468,110.886 C122.647,106.109 116.006,99.52 110.871,110.149" stroke-width="5" fill="none"></path>
                                <path d="M70.325,111.741 L39.336,118.547" stroke-width="5" fill="none"></path>
                                <path d="M163.726,113.479 L183.565,118.113" stroke-width="5" fill="none"></path>
                                <path d="M86.156,130.686 C76.038,130.686 67.837,118.384 67.837,103.208 C67.837,88.031 76.038,75.728 86.156,75.728" stroke-width="5" fill="none"></path>
                                <path d="M124.768,114.951 C123.826,110.99 123.31,106.728 123.31,102.87 C123.31,87.694 131.512,75.391 141.629,75.391" stroke-width="5" fill="none"></path>
                            </g>
                        </g>
                    </g>
                    <g id="Mask-link" stroke-linecap="round" stroke-linejoin="round" stroke="#262626" stroke-width="5">
                        <polygon id="Mask" points="0.4374 0.301 315.604 0.301 315.604 315.468 0.4374 315.468"></polygon>
                    </g>
                </g>
            </g>
        </g>
        <text font-family="HaveaGreatDay, Have a Great Day" font-size="48" font-weight="normal" fill="#000000">
            <tspan x="111.260563" y="465">JACQUES</tspan>
        </text>
    </g>
</svg>