<?xml version="1.0" encoding="UTF-8"?>
<svg width="410px" height="510px" viewBox="0 0 410 510" version="1.1" xmlns="http://www.w3.org/2000/svg" xmlns:xlink="http://www.w3.org/1999/xlink">
    <!-- Generator: Sketch 49.3 (51167) - http://www.bohemiancoding.com/sketch -->
    <title>Laura</title>
    <desc>Created with Sketch.</desc>
    <defs>
        <radialGradient cx="65.1832678%" cy="36.5028321%" fx="65.1832678%" fy="36.5028321%" r="16.7968141%" gradientTransform="translate(0.651833,0.365028),scale(0.999996,1.000000),translate(-0.651833,-0.365028)" id="radialGradient-1">
            <stop stop-color="#262626" stop-opacity="0.653061" offset="0%"></stop>
            <stop stop-color="#262626" offset="100%"></stop>
        </radialGradient>
        <polygon id="path-2" points="0.4374 0.301 315.604 0.301 315.604 315.468 0.4374 315.468"></polygon>
    </defs>
    <g id="Laura" stroke="none" stroke-width="1" fill="none" fill-rule="evenodd">
        <g transform="translate(6.000000, 1.000000)">
            <g id="Layer-1" fill-rule="nonzero">
                <path d="M387.758,53.812 L384.631,489.251 C381.68,489.431 376.416,489.765 373.167,489.946 C361.346,490.6 347.777,491.21 332.729,491.821 C283.173,493.835 232.045,494.831 180.843,494.601 C180.03,494.604 179.224,494.666 178.411,494.67 C124.877,494.387 71.301,492.619 19.4381,489.181 C19.3862,482.066 16.2535,55.2358 16.242,54.09 C16.2518,53.9558 11.7424,54.1048 11.74,54.1848 C11.7388,54.2718 9.074,142.775 8.1821,195.484 C7.3623,243.929 6.2379,295.344 4.847,348.204 C3.8136,387.475 0.8621,483.415 0.5392,493.003 C0.4261,496.358 0.1269,504.685 0.1223,504.814 C0.0519,506.808 1.7472,508.449 3.7353,508.289 C9.5794,507.817 15.443,507.39 21.3835,506.968 C125.298,499.584 236.278,499.881 340.858,504.814 C357.077,505.58 371.708,506.357 384.492,507.177 C388.965,507.464 400.093,508.275 400.264,508.289 C402.253,508.444 403.952,506.807 403.877,504.814 C403.873,504.692 402.806,474.059 402.418,462.361 C401.311,428.938 400.186,392.422 399.153,353.971 C397.361,287.29 395.99,221.953 395.192,160.744 C394.696,122.649 393.173,87.386 393.173,54.3036 C393.173,52.0881 387.774,51.5967 387.758,53.812 Z" id="Shape" fill-opacity="0.5" fill="#262626"></path>
                <path d="M12.9208,53.7843 L391.121,53.7843 L387.969,492.361 C387.969,492.361 202.021,504.967 16.0724,492.361 L12.9208,53.7843 Z" id="Shape" stroke="#262626" stroke-width="5" fill="#FFFFFF" stroke-linecap="round" stroke-linejoin="round"></path>
                <polygon id="Shape" stroke="#262626" stroke-width="3" fill-opacity="0.0969388" fill="#262626" stroke-linecap="round" stroke-linejoin="round" points="44.4374 85.301 359.604 85.301 359.604 400.468 44.4374 400.468"></polygon>
                <path d="M166.321,24.7689 C159.914,24.769 154.718,29.9653 154.718,36.3723 C154.718,42.7794 159.914,47.9756 166.321,47.9756 C168.249,47.9756 170.002,47.4178 171.602,46.586 L199.742,73.6142 C200.406,74.2519 201.251,74.5349 202.104,74.5174 C202.957,74.4999 203.759,74.1397 204.397,73.4753 C205.035,72.8108 205.387,71.9662 205.37,71.1129 C205.352,70.2595 204.992,69.3884 204.327,68.7505 L176.327,41.9308 C177.262,40.2582 177.925,38.4247 177.925,36.3723 C177.925,29.9653 172.728,24.7689 166.321,24.7689 Z" id="Shape" fill-opacity="0.5" fill="#262626"></path>
                <path d="M186.262,23.9025 L202.021,71.1775" id="Shape" stroke="#262626" stroke-width="5" fill="#262626" stroke-linecap="round" stroke-linejoin="round"></path>
                <path d="M170.504,12.3016 C170.504,5.8945 175.698,0.7007 182.105,0.7007 C188.512,0.7007 193.706,5.8945 193.706,12.3016 C193.706,18.7086 188.512,23.9026 182.105,23.9026 C175.698,23.9026 170.504,18.7086 170.504,12.3016 Z" id="Shape" stroke="#262626" stroke-width="3" fill="url(#radialGradient-1)" stroke-linecap="round" stroke-linejoin="round"></path>
            </g>
            <g id="Layer-3" transform="translate(109.000000, 106.000000)" fill-rule="nonzero">
                <path d="M100.094,0.531 C122.426,0.134 143.157,4.547 157.25,13.312 C171.621,22.251 178.513,35.239 176.75,52.25 C176.702,52.193 176.706,52.15 176.656,52.094 C174.31,49.398 171.246,48.017 167.656,48.656 C166.46,48.869 165.205,49.318 163.906,50 C158.227,52.982 155.509,56.354 155.625,60.375 C155.709,63.284 156.809,65.315 159.906,69.531 C160.877,70.853 161.174,71.367 161.594,72.031 C158.811,73.483 155.93,74.562 152.938,75.219 C142.444,77.524 131.613,75.289 118.25,69.5 C115.768,68.425 108.494,65.036 108.062,64.844 C104.464,63.237 102.323,62.511 100.531,62.469 C98.686,62.425 96.903,63.072 94.344,64.469 C93.919,64.701 89.209,67.448 87.562,68.312 C81.855,71.31 76.352,73.07 69.688,73.5 C62.081,73.991 53.441,72.493 43.594,68.906 C44.365,67.706 45.031,66.326 45.406,64.594 C46.404,59.985 45.958,53.592 44.5,49.219 C42.293,42.598 37.565,39.587 32.156,40 C30.353,40.138 28.475,40.636 26.594,41.531 C22.806,43.333 19.894,46.343 18.312,49.625 C14.485,36.006 18.151,25.008 29.219,16.812 C42.755,6.789 66.928,1.121 100.094,0.531 Z" id="Shape" fill-opacity="0.901361" fill="#262626"></path>
                <path d="M32.281,45 C32.857,44.94 33.342,45.117 33.875,45.188 C29.367,47.169 25.448,49.914 22.094,53.281 C22.648,50.74 25.195,47.738 28.719,46.062 C29.964,45.47 31.164,45.116 32.281,45 Z" id="Shape" fill-opacity="0.80102" fill="#262626"></path>
                <path d="M38.531,48.531 C38.957,49.241 39.436,49.87 39.75,50.812 C40.932,54.36 41.333,59.828 40.531,63.531 C39.889,66.498 38.904,67.538 37.094,67.125 C36.954,65.43 35.795,63.389 33.406,60.094 C33.084,59.649 32.728,59.186 32.375,58.719 C31.415,57.449 30.4,56.155 29.375,54.906 C29.2,54.693 28.972,54.46 28.688,54.125 C31.531,51.86 34.699,49.999 38.281,48.75 C38.394,48.711 38.428,48.584 38.531,48.531 Z" id="Shape" fill-opacity="0.5" fill="#262626"></path>
                <path d="M170.031,53.594 C171.117,53.779 172.053,54.395 172.906,55.375 C173.128,55.63 173.285,55.913 173.469,56.188 C173.141,56.523 172.428,57.265 172.062,57.656 C170.813,58.993 169.546,60.384 168.375,61.781 C167.737,62.542 167.145,63.284 166.594,64 C165.652,65.223 165.032,66.233 164.406,67.25 C164.197,66.963 164.192,66.909 163.938,66.562 C161.486,63.226 160.668,61.732 160.625,60.25 C160.574,58.482 162.056,56.623 166.219,54.438 C167.708,53.655 168.945,53.409 170.031,53.594 Z" id="Shape" fill-opacity="0.5" fill="#262626"></path>
                <path d="M25,57.5 C25.216,57.757 25.369,57.934 25.5,58.094 C26.486,59.295 27.49,60.538 28.406,61.75 C28.74,62.191 29.042,62.615 29.344,63.031 C30.401,64.49 31.213,65.74 31.719,66.688 C31.892,67.012 31.984,67.203 32.062,67.406 C25.541,77.949 19.509,95.651 15.156,115.625 C12.156,129.395 10.36,142.424 10.25,150.906 C10.242,151.529 10.333,151.836 10.344,152.406 C9.695,151.962 8.992,151.652 8.281,151.344 C8.277,151.275 8.354,151.226 8.344,151.156 C8.334,151.085 8.154,149.892 8.094,149.375 C7.922,147.891 7.755,146.169 7.594,144.25 C6.191,127.519 6.58,109.29 9.969,92.188 C11.352,85.208 13.2,78.675 15.562,72.719 C17.868,66.906 21.012,61.711 25,57.5 Z" id="Shape" fill-opacity="0.496599" fill="#262626"></path>
                <path d="M174.562,62.344 C186.641,75.413 192.52,95.157 192.844,117.656 C192.972,126.588 192.158,135.355 190.75,142.281 C190.146,145.254 189.473,147.7 188.812,149.312 C188.631,149.755 188.52,149.962 188.375,150.219 C186.808,150.074 185.397,150.18 184.156,150.594 C185.73,124.545 181.13,98.127 167.625,71.875 C167.684,71.628 167.806,71.288 168.031,70.844 C168.544,69.832 169.419,68.548 170.562,67.062 C171.069,66.405 171.624,65.709 172.219,65 C172.964,64.112 173.767,63.222 174.562,62.344 Z" id="Shape" fill-opacity="0.496599" fill="#262626"></path>
                <path d="M100.438,67.469 C101.316,67.49 103.07,68.115 106.031,69.438 C106.408,69.606 113.697,72.957 116.25,74.062 C126.931,78.689 136.22,81.235 145.156,81.125 C148.135,81.088 151.062,80.77 154,80.125 C157.527,79.35 160.919,78.054 164.188,76.312 C177.434,103.046 181.356,129.902 178.75,156.375 C178.45,159.42 182.843,160.231 183.656,157.281 C183.682,157.187 183.874,156.922 184,156.719 C184.362,156.665 184.739,156.719 185.062,156.5 C186.24,155.701 187.501,155.281 188.906,155.281 C191.942,155.281 192.851,166.062 189.125,177.562 C185.151,189.83 178.11,197.564 169.781,197.594 C170.236,196.809 170.714,196.1 171.156,195.281 C171.813,194.066 171.34,192.563 170.125,191.906 C169.518,191.578 168.832,191.505 168.219,191.688 C167.606,191.87 167.078,192.299 166.75,192.906 C161.59,202.456 155.578,209.448 148.156,215.281 C145.635,217.263 142.973,219.104 139.812,221.094 C137.988,222.242 131.861,225.925 131.688,226.031 C122.958,231.385 118.261,235.423 114.594,241.625 C110.111,249.206 108.247,259.243 109,273.375 C109.073,274.754 110.246,275.823 111.625,275.75 C113.004,275.677 114.042,274.504 113.969,273.125 C113.839,270.685 113.874,268.514 113.906,266.344 C121.906,268.644 126.598,272.153 126.75,275.281 C126.608,275.499 126.386,275.774 126.031,276.125 C125.241,276.907 124.02,277.891 122.312,279.125 C120.841,280.188 112.595,285.773 110.188,287.5 C108.044,289.038 106.09,290.522 104.312,291.969 L83.281,291.969 C81.886,290.738 80.395,289.523 78.781,288.312 C76.174,286.357 67.855,280.738 68.094,280.906 C64.91,278.664 63.25,277.123 62.75,275.969 C62.659,275.759 62.625,275.583 62.625,275.438 C62.625,271.586 69.512,267.294 80.406,265.188 C80.711,267.98 80.945,270.844 80.969,274 C80.979,275.381 82.119,276.479 83.5,276.469 C84.881,276.458 85.979,275.349 85.969,273.969 C85.847,258.078 82.261,246.372 75.406,237.312 C70.203,230.436 64.892,226.403 53.094,219.156 C52.801,218.977 52.792,218.96 52.5,218.781 C44.746,214.02 41.33,211.697 37.562,208.344 C32.69,204.007 29.101,199.187 26.625,193.188 C26.098,191.911 24.651,191.286 23.375,191.812 C22.099,192.339 21.473,193.817 22,195.094 C22.405,196.076 22.885,196.976 23.344,197.906 C13.02,198.827 5.202,190.602 1.688,177.25 C-1.3,165.9 0.386,155.281 3.656,155.281 C6.491,155.281 8.857,157.006 10.812,160.094 C11.548,161.254 12.165,162.52 12.656,163.781 C12.828,164.222 12.978,164.639 13.094,165 C13.16,165.206 13.204,165.35 13.219,165.406 C13.575,166.74 14.947,167.513 16.281,167.156 C17.615,166.8 18.419,165.428 18.062,164.094 C17.94,163.636 17.676,162.902 17.312,161.969 C16.795,160.639 16.125,159.335 15.375,158.062 C15.539,157.635 15.726,157.203 15.625,156.719 C14.409,150.909 16.178,134.37 20.031,116.688 C24.072,98.145 29.606,81.816 35.438,71.688 C36.216,71.919 37.045,72.324 37.75,72.344 C37.907,72.348 38.034,72.287 38.188,72.281 C60.258,81.244 75.667,80.228 89.906,72.75 C91.669,71.824 96.419,69.056 96.75,68.875 C98.586,67.873 99.722,67.452 100.438,67.469 Z" id="Shape" fill="#FFFFFF"></path>
                <path d="M131.562,273.562 C143.562,274.768 153.382,281.026 160.625,291.969 L112.562,291.969 C112.758,291.827 112.895,291.705 113.094,291.562 C115.429,289.887 123.702,284.274 125.25,283.156 C129.849,279.834 131.812,277.905 131.812,275.438 C131.812,274.796 131.701,274.176 131.562,273.562 Z" id="Shape" fill-opacity="0.353741" fill="#262626"></path>
                <path d="M57.906,273.719 C57.789,274.285 57.625,274.849 57.625,275.438 C57.625,276.294 57.834,277.153 58.188,277.969 C59.181,280.262 61.287,282.23 65.219,285 C65.075,284.899 72.422,289.877 75.281,291.969 L35.344,291.969 C41.403,281.24 48.935,274.984 57.906,273.719 Z" id="Shape" fill-opacity="0.353741" fill="#262626"></path>
            </g>
            <g id="Layer-3_2" transform="translate(44.000000, 85.000000)">
                <g id="Group">
                    <g id="Clipped">
                        <mask id="mask-3" fill="white">
                            <use xlink:href="#path-2"></use>
                        </mask>
                        <g id="Mask"></g>
                        <g id="Group" mask="url(#mask-3)" stroke-linecap="round" stroke-linejoin="round">
                            <g transform="translate(62.000000, 19.000000)" id="Shape">
                                <path d="M16.234,73.811 C2.433,108.605 8.854,153.522 8.854,153.522" stroke="#262626" stroke-width="5" fill="none"></path>
                                <path d="M40.452,48.38 C26.367,53.294 19.311,66.052 16.234,73.811" stroke="#262626" stroke-width="5" fill="none"></path>
                                <path d="M178.514,59.664 C178.514,59.664 166.652,71.62 168.24,74.689 C185.12,107.314 186.297,137.707 184.237,158.63 C184.237,158.63 185.631,153.576 192.154,154.782 C196.734,155.628 208.877,91.473 177.735,60.776" stroke="#262626" stroke-width="5" fill="none"></path>
                                <path d="M16.163,159.216 C13.532,146.647 23.456,92.056 37.578,69.982 C38.746,68.155 29.097,56.897 29.097,56.897" stroke="#262626" stroke-width="5" fill="none"></path>
                                <path d="M18.468,366.825 C18.468,366.825 22.667,272.998 64.019,272.789" stroke="#262626" stroke-width="5" fill="none"></path>
                                <path d="M130.774,272.789 C163.839,273.133 182.214,307.286 180.643,366.825" stroke="#262626" stroke-width="5" fill="none"></path>
                                <path d="M27.326,202.39 C0.009,205.849 -5.302,154.782 6.665,154.782 C15.435,154.782 18.632,166.748 18.632,166.748" stroke="#262626" stroke-width="5" fill="none"></path>
                                <path d="M86.467,275.977 C86.039,219.991 41.409,230.269 27.321,196.133" stroke="#262626" stroke-width="5" fill="none"></path>
                                <path d="M169.148,201.722 C194.42,207.299 203.878,154.782 191.911,154.782 C189.869,154.782 188.129,155.43 186.662,156.426" stroke="#262626" stroke-width="5" fill="none"></path>
                                <path d="M114.483,275.249 C111.616,221.433 148.341,239.791 171.949,196.096" stroke="#262626" stroke-width="5" fill="none"></path>
                                <path d="M185.592,184.9 C190.408,177.019 192.881,161.325 189.847,161.082" stroke="#262626" stroke-width="3" fill="none"></path>
                                <path d="M8.726,185.702 C4.538,174.839 4.538,160.88 7.573,160.637 C9.321,160.497 11.579,165.007 11.579,165.007" stroke="#262626" stroke-width="3" fill="none"></path>
                                <path d="M87.133,217.758 C73.449,209.286 70.657,198.023 72.58,199.512 C86.607,210.372 112.019,215.46 125.42,203.635" stroke="#262626" stroke-width="5" fill="none"></path>
                                <path d="M102.555,168.994 C114.827,183.873 114.936,196.58 97.233,190.715" stroke="#262626" stroke-width="5" fill="none"></path>
                                <path d="M69.735,161.623 C69.735,157.559 71.528,154.265 73.74,154.265 C75.952,154.265 77.745,157.559 77.745,161.623 C77.745,165.687 75.952,168.981 73.74,168.981 C71.528,168.981 69.735,165.687 69.735,161.623 Z" stroke="#262626" stroke-width="5" fill="#262626" fill-rule="nonzero"></path>
                                <path d="M121.468,160.183 C121.468,156.119 123.261,152.825 125.473,152.825 C127.685,152.825 129.478,156.119 129.478,160.183 C129.478,164.247 127.685,167.542 125.473,167.542 C123.261,167.542 121.468,164.247 121.468,160.183 Z" stroke="#262626" stroke-width="5" fill="#262626" fill-rule="nonzero"></path>
                                <path d="M18.22,195.268 C24.929,192.807 22.035,223.144 16.541,204.577" stroke="#262626" stroke-width="2.5" fill="none"></path>
                                <path d="M176.532,199.044 C169.823,196.583 172.716,226.92 178.21,208.353" stroke="#262626" stroke-width="2.5" fill="none"></path>
                                <path d="M50.602,152.185 C50.602,134.188 61.222,119.598 74.323,119.598 C87.424,119.598 98.044,134.188 98.044,152.185 C98.044,170.182 87.424,184.771 74.323,184.771 C61.222,184.771 50.602,170.182 50.602,152.185 Z" stroke="#262626" stroke-width="5" fill="none"></path>
                                <path d="M61.004,100.117 C92.481,74.823 95.958,103.027 96.987,100.969 C98.536,97.87 95.362,83.445 84.212,82.834 C72.27,82.179 61.004,100.117 61.004,100.117" stroke="#262626" stroke-width="5" fill="none"></path>
                                <path d="M148.74,106.025 C148.74,106.025 135.456,96.192 122.561,104.998 C115.546,109.789 118.711,98.924 130.774,96.101 C142.837,93.278 148.397,105.512 148.397,105.512" stroke="#262626" stroke-width="5" fill="none"></path>
                                <path d="M37.613,70.918 C47.43,75.826 47.576,59.345 45.131,52.01 C39.708,35.74 19.379,49.581 22.873,58.426" stroke="#262626" stroke-width="5" fill="none"></path>
                                <path d="M167.578,73.986 C164.081,67.629 154.712,61.221 168.059,54.214 C176.074,50.006 179.507,58.42 179.507,58.42" stroke="#262626" stroke-width="5" fill="none"></path>
                                <path d="M166.584,75.854 C140.492,90.288 111.254,67.157 103.482,66.972 C95.71,66.787 82.201,88.438 41.675,71.783" stroke="#262626" stroke-width="5" fill="none"></path>
                                <path d="M181.402,60.415 C190.579,15.728 145.443,-0.712 103.039,0.042 C35.097,1.25 5.242,23.464 21.712,60.161" stroke="#262626" stroke-width="5" fill="none"></path>
                                <path d="M54.391,68.606 C62.952,49.078 51.315,27.811 30.048,35.435" stroke-opacity="0.251701" stroke="#FFFFFF" stroke-width="2.5" fill="none"></path>
                                <path d="M69.238,67.804 C75.185,47.395 68.569,29.282 46.633,20.855" stroke-opacity="0.251701" stroke="#FFFFFF" stroke-width="2.5" fill="none"></path>
                                <path d="M85.285,61.135 C87.145,48.38 83.817,19.785 68.703,14.435" stroke-opacity="0.251701" stroke="#FFFFFF" stroke-width="2.5" fill="none"></path>
                                <path d="M102.232,57.707 C101.752,43.3 100.99,24.472 93.983,11.626" stroke-opacity="0.251701" stroke="#FFFFFF" stroke-width="2.5" fill="none"></path>
                                <path d="M116.721,59.511 C111.639,40.116 117.437,14.034 119.263,14.034" stroke-opacity="0.251701" stroke="#FFFFFF" stroke-width="2.5" fill="none"></path>
                                <path d="M131.568,65.396 C127.823,50.014 129.369,20.576 144.885,20.576" stroke-opacity="0.251701" stroke="#FFFFFF" stroke-width="2.5" fill="none"></path>
                                <path d="M148.154,68.606 C144.71,55.976 146.95,28.212 168.485,32.091" stroke-opacity="0.251701" stroke="#FFFFFF" stroke-width="2.5" fill="none"></path>
                                <path d="M179.2,175.551 C173.166,173.267 171.78,181.36 176.965,182.73" stroke="#262626" stroke-width="3" fill="none"></path>
                                <path d="M116.966,265.757 C126.215,268.282 132.302,272.577 132.302,277.45 C132.302,282.741 99.028,296.748 97.085,312.027 L96.244,312.868 C90.223,292.008 63.137,285.222 63.137,277.45 C63.137,271.791 71.346,266.912 83.182,264.678" stroke="#262626" stroke-width="5" fill="none"></path>
                                <path d="M93.453,132.205 C93.453,132.205 85.362,118.443 84.878,108.969" stroke="#262626" stroke-width="5" fill="none"></path>
                                <path d="M76.165,119.48 C76.165,119.48 72.154,113.118 72.223,108.623" stroke="#262626" stroke-width="5" fill="none"></path>
                                <path d="M66.137,120.518 C64.835,119.541 62.697,115.824 62.057,114.225" stroke="#262626" stroke-width="5" fill="none"></path>
                                <path d="M59.153,125.912 C58.625,125.42 54.519,122.523 54.519,122.523" stroke="#262626" stroke-width="5" fill="none"></path>
                                <path d="M52.721,135.178 C52.089,134.827 50.093,133.726 50.093,133.726" stroke="#262626" stroke-width="5" fill="none"></path>
                                <path d="M152.895,150.969 C152.895,132.972 142.275,118.383 129.174,118.383 C116.073,118.383 105.453,132.972 105.453,150.969 C105.453,168.966 116.073,183.556 129.174,183.556 C142.275,183.556 152.895,168.966 152.895,150.969 Z" stroke="#262626" stroke-width="5" fill="none"></path>
                                <path d="M122.467,118.136 C122.467,118.136 124.224,117.181 124.708,107.707" stroke="#262626" stroke-width="5" fill="none"></path>
                                <path d="M134.347,118.903 C134.347,118.903 139.592,113.513 140.459,109.102" stroke="#262626" stroke-width="5" fill="none"></path>
                                <path d="M143.939,122.002 C145.417,121.317 148.28,118.126 149.238,116.694" stroke="#262626" stroke-width="5" fill="none"></path>
                                <path d="M149.65,128.73 C150.268,128.358 154.887,126.378 154.887,126.378" stroke="#262626" stroke-width="5" fill="none"></path>
                                <path d="M154.015,139.131 C154.707,138.918 156.887,138.257 156.887,138.257" stroke="#262626" stroke-width="5" fill="none"></path>
                            </g>
                        </g>
                    </g>
                    <g id="Mask-link" stroke-linecap="round" stroke-linejoin="round" stroke="#262626" stroke-width="5">
                        <polygon id="Mask" points="0.4374 0.301 315.604 0.301 315.604 315.468 0.4374 315.468"></polygon>
                    </g>
                </g>
            </g>
        </g>
        <text font-family="HaveaGreatDay, Have a Great Day" font-size="48" font-weight="normal" fill="#000000">
            <tspan x="132.188562" y="465">LAURA</tspan>
        </text>
    </g>
</svg>