<?xml version="1.0" encoding="UTF-8"?>
<svg width="410px" height="510px" viewBox="0 0 410 510" version="1.1" xmlns="http://www.w3.org/2000/svg" xmlns:xlink="http://www.w3.org/1999/xlink">
    <!-- Generator: Sketch 49.3 (51167) - http://www.bohemiancoding.com/sketch -->
    <title>Leo</title>
    <desc>Created with Sketch.</desc>
    <defs>
        <radialGradient cx="65.1832678%" cy="36.5028321%" fx="65.1832678%" fy="36.5028321%" r="16.7968141%" gradientTransform="translate(0.651833,0.365028),scale(0.999996,1.000000),translate(-0.651833,-0.365028)" id="radialGradient-1">
            <stop stop-color="#262626" stop-opacity="0.653061" offset="0%"></stop>
            <stop stop-color="#262626" offset="100%"></stop>
        </radialGradient>
    </defs>
    <g id="Leo" stroke="none" stroke-width="1" fill="none" fill-rule="evenodd">
        <g id="emmental_leo" transform="translate(6.000000, 1.000000)">
            <g id="Layer-1" fill-rule="nonzero">
                <path d="M387.758,53.812 L384.631,489.251 C381.68,489.431 376.416,489.765 373.167,489.946 C361.346,490.6 347.777,491.21 332.729,491.821 C283.173,493.835 232.045,494.831 180.843,494.601 C180.03,494.604 179.224,494.666 178.411,494.67 C124.877,494.387 71.301,492.619 19.4381,489.181 C19.3862,482.066 16.2535,55.2358 16.242,54.09 C16.2518,53.9558 11.7424,54.1048 11.74,54.1848 C11.7388,54.2718 9.074,142.775 8.1821,195.484 C7.3623,243.929 6.2379,295.344 4.847,348.204 C3.8136,387.475 0.8621,483.415 0.5392,493.003 C0.4261,496.358 0.1269,504.685 0.1223,504.814 C0.0519,506.808 1.7472,508.449 3.7353,508.289 C9.5794,507.817 15.443,507.39 21.3835,506.968 C125.298,499.584 236.278,499.881 340.858,504.814 C357.077,505.58 371.708,506.357 384.492,507.177 C388.965,507.464 400.093,508.275 400.264,508.289 C402.253,508.444 403.952,506.807 403.877,504.814 C403.873,504.692 402.806,474.059 402.418,462.361 C401.311,428.938 400.186,392.422 399.153,353.971 C397.361,287.29 395.99,221.953 395.192,160.744 C394.696,122.649 393.173,87.386 393.173,54.3036 C393.173,52.0881 387.774,51.5967 387.758,53.812 Z" id="Shape" fill-opacity="0.5" fill="#262626"></path>
                <path d="M12.9208,53.7843 L391.121,53.7843 L387.969,492.361 C387.969,492.361 202.021,504.967 16.0724,492.361 L12.9208,53.7843 Z" id="Shape" stroke="#262626" stroke-width="5" fill="#FFFFFF" stroke-linecap="round" stroke-linejoin="round"></path>
                <polygon id="Shape" stroke="#262626" stroke-width="3" fill-opacity="0.0969388" fill="#262626" stroke-linecap="round" stroke-linejoin="round" points="44.4374 85.301 359.604 85.301 359.604 400.468 44.4374 400.468"></polygon>
                <path d="M166.321,24.7689 C159.914,24.769 154.718,29.9653 154.718,36.3723 C154.718,42.7794 159.914,47.9756 166.321,47.9756 C168.249,47.9756 170.002,47.4178 171.602,46.586 L199.742,73.6142 C200.406,74.2519 201.251,74.5349 202.104,74.5174 C202.957,74.4999 203.759,74.1397 204.397,73.4753 C205.035,72.8108 205.387,71.9662 205.37,71.1129 C205.352,70.2595 204.992,69.3884 204.327,68.7505 L176.327,41.9308 C177.262,40.2582 177.925,38.4247 177.925,36.3723 C177.925,29.9653 172.728,24.7689 166.321,24.7689 Z" id="Shape" fill-opacity="0.5" fill="#262626"></path>
                <path d="M186.262,23.9025 L202.021,71.1775" id="Shape" stroke="#262626" stroke-width="5" fill="#262626" stroke-linecap="round" stroke-linejoin="round"></path>
                <path d="M170.504,12.3016 C170.504,5.8945 175.698,0.7007 182.105,0.7007 C188.512,0.7007 193.706,5.8945 193.706,12.3016 C193.706,18.7086 188.512,23.9026 182.105,23.9026 C175.698,23.9026 170.504,18.7086 170.504,12.3016 Z" id="Shape" stroke="#262626" stroke-width="3" fill="url(#radialGradient-1)" stroke-linecap="round" stroke-linejoin="round"></path>
            </g>
            <g id="Layer-2" transform="translate(113.000000, 98.000000)" fill-rule="nonzero">
                <path d="M114.75,0.812 C138.692,1.293 158.154,10.909 172.031,28.375 C173.334,30.015 174.41,31.869 175.594,33.625 C172.695,29.929 169.574,26.441 165.969,23.438 C153.601,13.135 137.36,7.404 116.969,6.781 C114.056,6.692 111.052,6.691 107.969,6.812 C107.741,6.822 107.613,7.028 107.406,7.094 C106.175,6.101 104.693,5.211 102.719,4.562 C99.922,3.644 96.221,3.158 92.281,2.844 C100.134,1.347 107.653,0.67 114.75,0.812 Z" id="Shape" fill-opacity="0.5" fill="#262626"></path>
                <path d="M86.125,7.469 C86.642,7.468 87.083,7.553 87.594,7.562 C87.582,8.783 87.58,9.636 87.531,11.875 C87.506,13.019 87.092,32.377 87.031,36.5 C86.807,51.67 86.977,61.078 87.531,65.844 C86.976,65.762 86.867,65.754 86.406,65.688 C86.213,59.526 85.207,48.514 83.656,37.844 C81.814,25.164 79.561,14.913 77,8.125 C79.802,7.734 82.856,7.476 86.125,7.469 Z" id="Shape" fill-opacity="0.5" fill="#262626"></path>
                <path d="M90.562,7.719 C93.548,7.898 96.181,8.257 98.5,8.781 C96.091,13.485 93.759,22.327 91.625,34.125 C90.966,37.769 90.526,41.361 90,45.031 C90.016,42.081 89.98,39.991 90.031,36.531 C90.087,32.767 90.486,12.431 90.562,7.719 Z" id="Shape" fill-opacity="0.5" fill="#262626"></path>
                <path d="M74,8.719 C76.533,15.177 78.824,25.457 80.688,38.281 C82.19,48.623 83.152,59.175 83.375,65.281 C83.324,65.275 83.205,65.256 83.156,65.25 C82.644,47.312 76.501,26.163 67.812,11.156 C67.71,10.979 67.685,11.135 67.844,10.969 C68.349,10.44 69.513,9.817 71.219,9.281 C71.979,9.043 73.092,8.914 74,8.719 Z" id="Shape" fill-opacity="0.5" fill="#262626"></path>
                <path d="M101.594,9.531 C104.303,10.505 105.22,11.378 104.875,12.188 C98.942,26.094 93.763,50.393 93.312,66.594 C93.249,66.589 93.223,66.6 93.156,66.594 C92.589,66.544 91.576,66.381 90.812,66.281 C91.26,49.452 97.03,17.107 101.594,9.531 Z" id="Shape" fill-opacity="0.5" fill="#262626"></path>
                <path d="M116.344,11.75 C118.363,11.803 120.289,11.969 122.219,12.125 C118.899,20.479 112.952,44.96 112.219,54.062 C109.992,55.403 107.479,57.203 104.719,59.25 C105.431,53.503 107.299,45.101 110.219,34.031 C110.709,32.17 111.222,30.238 111.781,28.188 C112.789,24.493 115.382,15.212 116.344,11.75 Z" id="Shape" fill-opacity="0.5" fill="#262626"></path>
                <path d="M113.25,11.781 C112.156,15.688 109.836,23.883 108.875,27.406 C108.314,29.465 107.806,31.412 107.312,33.281 C103.863,46.364 101.918,55.63 101.531,61.562 C100.379,62.428 99.216,63.307 98.625,63.75 C98.589,63.777 98.567,63.786 98.531,63.812 C99.441,48.315 104.11,26.717 109.469,14.156 C109.827,13.316 109.853,12.569 109.875,11.812 C111.019,11.782 112.133,11.781 113.25,11.781 Z" id="Shape" fill-opacity="0.5" fill="#262626"></path>
                <path d="M125.281,12.375 C126.611,12.524 127.87,12.738 129.156,12.938 C127.659,16.336 126.038,22.072 124.062,30.594 C122.281,38.277 120.622,46.773 120.062,50.312 C119.758,50.421 119.461,50.475 119.156,50.594 C117.915,51.075 116.68,51.828 115.469,52.438 C116.731,42.16 122.572,18.415 125.281,12.375 Z" id="Shape" fill-opacity="0.5" fill="#262626"></path>
                <path d="M132.281,13.406 C134.851,13.899 137.331,14.517 139.719,15.219 C135.13,22.722 130.271,38.342 128.812,48.531 C126.993,48.588 125.168,48.909 123.344,49.344 C124.02,45.407 125.362,38.345 127,31.281 C129.222,21.697 131.263,15.159 132.281,13.406 Z" id="Shape" fill-opacity="0.5" fill="#262626"></path>
                <path d="M142.656,16.219 C145.364,17.142 147.942,18.204 150.406,19.406 C143.183,32.367 138.217,42.555 136.375,49.562 C134.86,49.152 133.349,48.882 131.844,48.75 C133.333,38.589 138.341,22.709 142.656,16.219 Z" id="Shape" fill-opacity="0.5" fill="#262626"></path>
                <path d="M153.062,20.75 C155.367,22.012 157.543,23.423 159.625,24.938 C153.559,31.442 144.506,45.564 141.875,52.625 C141.3,52.373 140.682,52.147 140.094,51.906 C139.958,51.38 139.657,50.999 139.219,50.656 C140.9,43.978 145.824,33.742 153.062,20.75 Z" id="Shape" fill-opacity="0.5" fill="#262626"></path>
                <path d="M162.031,26.719 C162.274,26.914 162.542,27.082 162.781,27.281 C164.201,28.464 165.385,29.883 166.688,31.188 C160.886,35.815 152.394,46.364 146.781,55.062 C146.048,54.674 145.32,54.275 144.562,53.906 C146.753,47.637 156.219,32.839 162.031,26.719 Z" id="Shape" fill-opacity="0.5" fill="#262626"></path>
                <path d="M168.812,33.312 C170.44,35.111 171.913,37.064 173.344,39.062 C171.003,40.764 168.306,43.122 164.875,46.719 C164.002,47.634 163.099,48.596 162.156,49.625 C159.994,51.986 155.562,57.037 153.656,59.188 C152.288,58.239 150.938,57.299 149.469,56.438 C155.032,47.879 163.546,37.358 168.812,33.312 Z" id="Shape" fill-opacity="0.5" fill="#262626"></path>
                <path d="M175.062,41.5 C176.495,43.7 177.812,46.025 179.031,48.438 C173.398,50.86 164.661,57.462 158.688,63.094 C157.84,62.37 157.019,61.622 156.125,60.938 C158.192,58.612 162.305,53.916 164.375,51.656 C165.305,50.641 166.173,49.681 167.031,48.781 C170.35,45.302 172.926,43.054 175.062,41.5 Z" id="Shape" fill-opacity="0.5" fill="#262626"></path>
                <path d="M180.344,51.125 C181.348,53.312 182.28,55.564 183.125,57.906 C180.866,58.918 178.04,60.386 173.938,62.781 C173.591,62.984 167.265,66.749 164.281,68.5 C163.214,67.328 162.161,66.124 161,65.031 C166.837,59.591 175.516,53.1 180.344,51.125 Z" id="Shape" fill-opacity="0.5" fill="#262626"></path>
                <path d="M76.625,51.5 C77.586,57.053 78.25,62.53 78.25,67.656 C78.25,67.788 78.355,67.874 78.375,68 C78.391,68.12 78.31,68.224 78.344,68.344 C78.403,68.552 78.615,68.634 78.719,68.812 C78.893,69.119 79.03,69.386 79.312,69.594 C79.569,69.787 79.844,69.825 80.156,69.906 C80.369,69.965 80.518,70.156 80.75,70.156 C80.871,70.156 80.946,70.048 81.062,70.031 C81.184,70.016 81.285,70.097 81.406,70.062 C81.274,70.1 81.238,70.124 81.219,70.125 C81.292,70.122 81.41,70.117 81.562,70.125 C81.908,70.142 82.368,70.178 82.969,70.25 C83.931,70.365 84.385,70.423 87.25,70.844 C87.535,70.886 87.526,70.896 87.812,70.938 C90.985,71.4 92.945,71.658 94.281,71.688 C95.618,71.717 96.351,71.504 97.062,71.031 C98.443,70.114 99.853,69.079 101.625,67.75 C102.591,67.026 105.929,64.517 106.281,64.25 C112.504,59.54 116.54,56.956 120.938,55.25 C124.917,53.706 128.737,53.178 132.594,53.75 C132.888,54.194 133.24,54.629 133.781,54.812 C152.918,61.287 165.21,73.431 172.125,90.188 C177.245,102.594 179.031,115.879 179.031,132.031 C179.031,132.142 179.142,132.206 179.156,132.312 C177.707,133.473 176.371,134.887 175.25,136.656 C174.327,138.113 173.601,139.675 173,141.219 C172.637,142.152 172.404,142.886 172.281,143.344 C171.925,144.678 172.697,146.05 174.031,146.406 C175.365,146.763 176.737,145.959 177.094,144.625 C177.109,144.569 177.153,144.456 177.219,144.25 C177.334,143.889 177.485,143.472 177.656,143.031 C178.147,141.77 178.765,140.504 179.5,139.344 C181.027,136.934 182.821,135.39 184.875,134.812 C184.705,135.821 184.519,136.621 184.469,138.625 C184.457,139.077 184.447,139.231 184.438,139.5 C183.54,139.584 182.573,139.91 181.625,140.594 C179.933,141.814 178.594,143.646 178.594,145.062 C178.594,145.725 179.119,146.25 179.781,146.25 C180.444,146.25 181,145.725 181,145.062 C181,144.601 181.902,143.377 183.031,142.562 C184.004,141.861 184.638,141.762 184.969,141.969 C185.077,142.116 185.174,142.224 185.312,142.344 C188.531,147.597 185.105,162.77 180.188,167.688 C179.719,168.156 179.719,168.906 180.188,169.375 C180.422,169.609 180.724,169.75 181.031,169.75 C181.338,169.75 181.672,169.609 181.906,169.375 C182.212,169.07 182.488,168.615 182.781,168.25 C183.281,168.986 184.054,169.291 184.906,169.25 C183.617,171.397 182.13,173.135 180.5,174.5 C179.998,173.438 179.512,172.253 179,171.594 C178.576,171.049 177.979,170.736 177.344,170.656 C176.709,170.577 176.045,170.732 175.5,171.156 C174.41,172.004 174.215,173.566 175.062,174.656 C175.416,175.111 175.826,176.099 176.219,177 C174.702,177.522 173.091,177.71 171.406,177.594 C171.816,175.968 172.195,174.345 172.438,172.656 C172.633,171.289 171.679,170.008 170.312,169.812 C168.946,169.617 167.696,170.571 167.5,171.938 C165.366,186.829 155.722,199.216 140.531,209.75 C135.494,213.243 130.197,216.283 124.219,219.312 C122.241,220.315 114.61,224.007 113.469,224.656 C108.542,227.46 105.61,231.954 104.25,237.969 C103.206,242.587 103.084,247.71 103.562,255.062 C103.646,256.342 104.092,261.986 104.156,262.875 C104.256,264.252 105.435,265.287 106.812,265.188 C108.19,265.088 109.224,263.908 109.125,262.531 C109.06,261.63 108.644,255.972 108.562,254.719 C108.493,253.644 108.54,252.874 108.5,251.875 C108.569,251.881 108.617,251.938 108.688,251.938 C125.474,251.935 131.182,260.587 126.156,272.906 C121.017,285.504 106.886,295.781 92.375,295.781 C75.869,295.781 63.206,285.933 60.281,273.375 C57.576,261.759 64.464,253.024 79.062,252.625 C79.2,255.991 79.158,259.614 78.812,263.625 C78.694,265.001 79.687,266.194 81.062,266.312 C82.438,266.431 83.663,265.407 83.781,264.031 C85.566,243.316 81.504,229.753 68.219,223.438 C57.837,218.502 47.345,209.599 39.062,196.844 C28.023,179.843 21.809,157.487 21.906,129.281 C21.906,111.198 24.497,96.111 31.094,83.375 C39.556,67.038 54.123,56.111 76.375,51.656 C76.479,51.635 76.527,51.533 76.625,51.5 Z" id="Shape" fill="#FFFFFF"></path>
                <path d="M184.094,60.781 C184.673,62.561 185.35,64.233 185.844,66.094 C185.887,66.256 185.895,66.431 185.938,66.594 C183.908,67.175 181.429,68.097 178,69.688 C177.334,69.996 176.668,70.32 175.969,70.656 C173.87,71.665 171.706,72.733 169.625,73.812 C169.433,73.912 169.203,74.031 168.906,74.188 C168.073,73.027 167.22,71.88 166.312,70.781 C169.174,69.085 173.547,66.472 174.188,66.094 C174.62,65.838 175.06,65.614 175.469,65.375 C179.318,63.127 182.002,61.745 184.094,60.781 Z" id="Shape" fill-opacity="0.5" fill="#262626"></path>
                <path d="M186.594,69.5 C186.968,71.105 187.345,72.704 187.656,74.344 C185.896,74.903 183.691,75.748 180.344,77.281 C180.042,77.419 175.08,79.73 174.219,80.125 C173.598,80.41 173.48,80.456 173.031,80.656 C172.278,79.301 171.492,77.974 170.656,76.688 C170.791,76.618 170.933,76.551 171.031,76.5 C173.088,75.434 175.182,74.338 177.25,73.344 C177.937,73.013 178.629,72.709 179.281,72.406 C182.516,70.906 184.83,70.026 186.594,69.5 Z" id="Shape" fill-opacity="0.5" fill="#262626"></path>
                <path d="M188.188,77.281 C188.593,79.732 188.912,82.235 189.188,84.75 L176.688,88.125 C175.993,86.453 175.204,84.869 174.406,83.281 C174.822,83.097 174.937,83.088 175.469,82.844 C176.342,82.443 181.296,80.137 181.594,80 C184.588,78.628 186.635,77.812 188.188,77.281 Z" id="Shape" fill-opacity="0.5" fill="#262626"></path>
                <path d="M189.5,87.75 C189.713,90.141 189.833,92.564 189.938,95 C188.597,95.058 187.065,95.209 184.75,95.562 C184.23,95.642 180.215,96.297 179.531,96.406 C178.982,94.573 178.328,92.764 177.656,90.969 L189.5,87.75 Z" id="Shape" fill-opacity="0.5" fill="#262626"></path>
                <path d="M189.938,97.969 C190.004,97.965 190.03,97.972 190.094,97.969 C190.162,100.644 190.146,103.349 190.094,106.062 C186.708,106.113 184.04,106.158 181.875,106.188 C181.443,103.855 180.998,101.532 180.406,99.281 C181.497,99.102 184.749,98.572 185.219,98.5 C187.19,98.199 188.746,98.039 189.938,97.969 Z" id="Shape" fill-opacity="0.5" fill="#262626"></path>
                <path d="M190.031,109.062 C189.85,114.243 189.5,119.237 188.969,123.938 C188.715,126.18 188.454,127.827 188.188,129.594 C188.091,129.641 187.999,129.698 187.906,129.75 C187.494,129.67 187.102,129.531 186.656,129.531 C185.71,129.531 184.835,129.736 183.969,129.938 C183.895,122.54 183.473,115.658 182.469,109.188 C184.803,109.154 186.901,109.11 190.031,109.062 Z" id="Shape" fill-opacity="0.5" fill="#262626"></path>
                <path d="M186.125,117.5 C185.297,117.5 184.625,118.172 184.625,119 C184.625,119.828 185.296,120.5 186.125,120.5 L187.375,120.5 C188.203,120.5 188.875,119.828 188.875,119 C188.875,118.172 188.204,117.5 187.375,117.5 L186.125,117.5 Z" id="Shape" fill-opacity="0.5" fill="#262626"></path>
                <path d="M189.469,138.75 C190.673,142.9 191.047,149.549 189.5,156.906 C188.956,159.493 188.207,161.822 187.375,164 C187.06,163.973 186.761,163.884 186.438,163.906 C186.049,163.933 185.646,164.152 185.25,164.25 C188.45,157.618 190.017,148.031 188,142.594 C188.759,142.195 189.364,141.572 189.406,140.656 C189.432,140.114 189.444,139.723 189.469,138.75 Z" id="Shape" fill="#FFFFFF"></path>
                <path d="M17.188,139.594 C17.991,154.737 20.714,168.095 25.094,179.844 C19.731,176.017 15.752,167.854 14.312,158 C12.884,148.223 14.627,140.422 17.188,139.594 Z" id="Shape" fill="#FFFFFF"></path>
                <path d="M129.188,254.438 C130.49,254.654 131.611,254.815 132.438,254.969 C147.02,257.679 157.122,261.322 164.75,267.5 C173.572,274.645 178.327,285.175 178.844,299.969 L99.688,299.969 C113.485,297.204 125.774,287.057 130.781,274.781 C134.091,266.667 133.402,259.488 129.188,254.438 Z" id="Shape" fill-opacity="0.802721" fill="#262626"></path>
                <path d="M59.688,255.281 C56.411,258.928 54.622,263.597 54.719,268.938 C54.751,270.724 54.994,272.595 55.438,274.5 C58.381,287.139 69.5,297.229 84.344,299.969 L0.812,299.969 C1.282,286.366 5.342,275.802 13.969,268.375 C23.425,260.235 38.635,255.887 59.688,255.281 Z" id="Shape" fill-opacity="0.802721" fill="#262626"></path>
            </g>
            <g id="Layer-3" transform="translate(111.000000, 96.000000)" stroke="#262626" stroke-linecap="round" stroke-linejoin="round">
                <path d="M0.131,304.468 C0.131,275.853 15.153,253.763 68.827,254.491" id="Shape" stroke-width="5"></path>
                <path d="M119.564,252.026 C147.721,256.38 183.525,260.386 183.525,304.468" id="Shape" stroke-width="5"></path>
                <path d="M171.97,182.026 C196.331,185.71 200.617,134.024 188.649,134.024 C179.879,134.024 176.683,145.991 176.683,145.991" id="Shape" stroke-width="5"></path>
                <path d="M108.638,264.705 C107.652,251.04 105.491,235.199 116.714,228.814 C124.546,224.358 167.052,208.613 171.97,174.287" id="Shape" stroke-width="5"></path>
                <path d="M94.37,300.279 C55.773,300.279 44.824,251.428 82.706,252.032" id="Shape" stroke-width="5"></path>
                <path d="M94.37,300.279 C128.004,300.279 151.544,251.422 110.687,251.428" id="Shape" stroke-width="5"></path>
                <path d="M88.182,155.39 C81.835,169.096 71.479,156.269 66.644,166.378 C61.809,176.488 75.728,186.451 91.698,177.514" id="Shape" stroke-width="5"></path>
                <path d="M58.735,167.3 C51.967,163.393 47.164,153.546 47.164,142.017 C47.164,127.06 55.247,114.935 65.219,114.935 C75.19,114.935 83.273,127.06 83.273,142.017 C83.273,147.296 82.266,152.222 80.525,156.386" id="Shape" stroke-width="5"></path>
                <path d="M68.827,199.55 C68.827,199.55 88.621,205.206 110.235,197.145" id="Shape" stroke-width="5"></path>
                <path d="M94.37,142.532 C94.37,127.575 102.454,115.45 112.425,115.45 C122.396,115.45 130.48,127.575 130.48,142.532 C130.48,157.488 122.396,169.613 112.425,169.613 C102.454,169.613 94.37,157.488 94.37,142.532 Z" id="Shape" stroke-width="5"></path>
                <path d="M138.953,105.632 C122.177,79.688 103.428,100.09 104.913,99.479 C122.612,92.195 138.846,105.954 138.846,105.954" id="Shape" stroke-width="5"></path>
                <path d="M42.615,104.548 C61.213,79.877 75.506,101.076 74.069,100.36 C56.939,91.823 44.52,103.815 44.52,103.815" id="Shape" stroke-width="5"></path>
                <path d="M59.504,150.485 C59.504,147.268 61.119,144.66 63.112,144.66 C65.105,144.66 66.72,147.268 66.72,150.485 C66.72,153.701 65.105,156.309 63.112,156.309 C61.119,156.309 59.504,153.701 59.504,150.485 Z" id="Shape" stroke-width="5" fill="#262626" fill-rule="nonzero"></path>
                <path d="M104.227,150.485 C104.227,147.268 105.842,144.66 107.835,144.66 C109.828,144.66 111.443,147.268 111.443,150.485 C111.443,153.701 109.828,156.309 107.835,156.309 C105.842,156.309 104.227,153.701 104.227,150.485 Z" id="Shape" stroke-width="5" fill="#262626" fill-rule="nonzero"></path>
                <path d="M136.58,54.431 C180.274,69.214 183.525,111.256 183.525,134.024" id="Shape" stroke-width="5"></path>
                <path d="M77.887,51.198 C27.813,61.223 21.408,102.556 21.408,131.266 C21.19,194.387 52.557,219.8 69.158,227.692 C82.841,234.198 84.686,249.623 83.29,265.827" id="Shape" stroke-width="5"></path>
                <path d="M29.866,186.094 C11.56,180.354 8.864,138.949 19.626,138.949" id="Shape" stroke-width="5"></path>
                <path d="M82.741,69.667 C82.741,50.664 75.913,28.717 67.634,14.416 C62.091,4.842 113.997,3.879 109.18,15.169 C103.362,28.806 97.663,54.59 97.663,70.964" id="Shape" stroke-width="5"></path>
                <path d="M110.079,11.314 C212.473,7.263 194.078,123.873 192.247,134.863" id="Shape" stroke-width="5"></path>
                <path d="M68.172,9.762 C169.479,-28.6233 213.047,57.274 192.247,134.863" id="Shape" stroke-width="5"></path>
                <path d="M82.741,69.667 C84.304,69.225 96.332,71.849 97.663,70.964 C109.495,63.097 122.718,48.271 139.807,54.501" id="Shape" stroke-width="5"></path>
                <path d="M131.963,97.351 C140.889,83.049 153.578,106.814 134.007,105.954" id="Shape" stroke-width="5"></path>
                <path d="M104.885,65.679 C104.885,54.721 113.314,26.473 117.494,11.232" id="Shape" stroke-width="3"></path>
                <path d="M115.432,58.225 C115.432,50.151 124.001,15.765 126.658,11.778" id="Shape" stroke-width="3"></path>
                <path d="M123.155,54.504 C123.58,50.886 130.75,14.503 134.082,12.837" id="Shape" stroke-width="3"></path>
                <path d="M131.907,53.013 C132.807,44.015 139.008,21.863 144.742,15.535" id="Shape" stroke-width="3"></path>
                <path d="M139.171,54.281 C140.75,45.595 149.155,29.996 154.916,19.788" id="Shape" stroke-width="3"></path>
                <path d="M144.296,57.505 C145.238,51.857 158.403,31.298 164.526,25.891" id="Shape" stroke-width="3"></path>
                <path d="M148.754,59.778 C152.716,53.34 165.184,36.201 171.861,32.528" id="Shape" stroke-width="3"></path>
                <path d="M155.25,63.901 C159.531,59.263 172.078,43.93 178.398,40.668" id="Shape" stroke-width="3"></path>
                <path d="M160.026,67.729 C163.555,64.2 178.244,51.579 184.181,50.752" id="Shape" stroke-width="3"></path>
                <path d="M165.17,72.899 C169.636,70.417 183.366,61.644 188.061,60.256" id="Shape" stroke-width="3"></path>
                <path d="M169.612,78.583 C169.612,78.583 186.57,69.43 190.752,69.43" id="Shape" stroke-width="3"></path>
                <path d="M173.461,84.918 C176.267,84.055 189.344,77.146 192.378,77.146" id="Shape" stroke-width="3"></path>
                <path d="M176.814,92.173 L193.834,87.597" id="Shape" stroke-width="3"></path>
                <path d="M179.509,100.171 C181.308,100.171 193.308,97.499 194.577,98.768" id="Shape" stroke-width="3"></path>
                <path d="M181.665,109.717 C183.606,109.717 194.81,109.485 196.751,109.485" id="Shape" stroke-width="3"></path>
                <path d="M188.134,120.986 C188.552,120.986 188.971,120.986 189.39,120.986" id="Shape" stroke-width="3"></path>
                <path d="M87.056,70.015 C87.056,60.604 83.049,20.574 76.089,6.979" id="Shape" stroke-width="3"></path>
                <path d="M91.145,70.6 C91.145,56.439 97.549,14.091 103.578,8.826" id="Shape" stroke-width="3"></path>
                <path d="M91.136,7.02 C91.136,15.151 89.495,61.714 91.149,69.983" id="Shape" stroke-width="3"></path>
                <path d="M188.9,142.545 C189.099,138.255 188.649,134.024 192.002,133.364 C199.974,131.793 203.69,141.482 194.77,143.636" id="Shape" stroke-width="5"></path>
                <path d="M179.039,175.124 C181.331,178.07 185.793,190.997 178.942,192.138 C174.882,192.815 175.559,183.534 175.559,183.534" id="Shape" stroke-width="5"></path>
                <path d="M186.773,168.937 C192.108,166.134 196.04,174.884 192.947,178.568 C189.17,183.067 188.022,180.142 187.337,178.901" id="Shape" stroke-width="5"></path>
                <path d="M181.794,147.058 C181.794,145.131 186.443,140.962 188.121,143.311 C192.414,149.321 187.817,165.761 183.043,170.536" id="Shape" stroke-width="2.4"></path>
            </g>
            <g id="Layer-3_2" transform="translate(44.000000, 85.000000)" stroke="#262626" stroke-linecap="round" stroke-linejoin="round" stroke-width="5">
                <polygon id="Shape" points="0.4374 0.301 315.604 0.301 315.604 315.468 0.4374 315.468"></polygon>
            </g>
        </g>
        <text font-family="HaveaGreatDay, Have a Great Day" font-size="48" font-weight="normal" fill="#000000">
            <tspan x="159.572563" y="465">LEO</tspan>
        </text>
    </g>
</svg>