<?xml version="1.0" encoding="UTF-8"?>
<svg width="410px" height="510px" viewBox="0 0 410 510" version="1.1" xmlns="http://www.w3.org/2000/svg" xmlns:xlink="http://www.w3.org/1999/xlink">
    <!-- Generator: Sketch 49.3 (51167) - http://www.bohemiancoding.com/sketch -->
    <title>Leonie</title>
    <desc>Created with Sketch.</desc>
    <defs>
        <radialGradient cx="65.1832678%" cy="36.5028321%" fx="65.1832678%" fy="36.5028321%" r="16.7968141%" gradientTransform="translate(0.651833,0.365028),scale(0.999996,1.000000),translate(-0.651833,-0.365028)" id="radialGradient-1">
            <stop stop-color="#262626" stop-opacity="0.653061" offset="0%"></stop>
            <stop stop-color="#262626" offset="100%"></stop>
        </radialGradient>
        <polygon id="path-2" points="0.4374 0.301 315.604 0.301 315.604 315.468 0.4374 315.468"></polygon>
    </defs>
    <g id="Leonie" stroke="none" stroke-width="1" fill="none" fill-rule="evenodd">
        <g id="leonie" transform="translate(6.000000, 1.000000)">
            <g id="Layer-1" fill-rule="nonzero">
                <path d="M387.758,53.812 L384.631,489.251 C381.68,489.431 376.416,489.765 373.167,489.946 C361.346,490.6 347.777,491.21 332.729,491.821 C283.173,493.835 232.045,494.831 180.843,494.601 C180.03,494.604 179.224,494.666 178.411,494.67 C124.877,494.387 71.301,492.619 19.4381,489.181 C19.3862,482.066 16.2535,55.2358 16.242,54.09 C16.2518,53.9558 11.7424,54.1048 11.74,54.1848 C11.7388,54.2718 9.074,142.775 8.1821,195.484 C7.3623,243.929 6.2379,295.344 4.847,348.204 C3.8136,387.475 0.8621,483.415 0.5392,493.003 C0.4261,496.358 0.1269,504.685 0.1223,504.814 C0.0519,506.808 1.7472,508.449 3.7353,508.289 C9.5794,507.817 15.443,507.39 21.3835,506.968 C125.298,499.584 236.278,499.881 340.858,504.814 C357.077,505.58 371.708,506.357 384.492,507.177 C388.965,507.464 400.093,508.275 400.264,508.289 C402.253,508.444 403.952,506.807 403.877,504.814 C403.873,504.692 402.806,474.059 402.418,462.361 C401.311,428.938 400.186,392.422 399.153,353.971 C397.361,287.29 395.99,221.953 395.192,160.744 C394.696,122.649 393.173,87.386 393.173,54.3036 C393.173,52.0881 387.774,51.5967 387.758,53.812 Z" id="Shape" fill-opacity="0.5" fill="#262626"></path>
                <path d="M12.9208,53.7843 L391.121,53.7843 L387.969,492.361 C387.969,492.361 202.021,504.967 16.0724,492.361 L12.9208,53.7843 Z" id="Shape" stroke="#262626" stroke-width="5" fill="#FFFFFF" stroke-linecap="round" stroke-linejoin="round"></path>
                <polygon id="Shape" stroke="#262626" stroke-width="3" fill-opacity="0.0969388" fill="#262626" stroke-linecap="round" stroke-linejoin="round" points="44.4374 85.301 359.604 85.301 359.604 400.468 44.4374 400.468"></polygon>
                <path d="M166.321,24.7689 C159.914,24.769 154.718,29.9653 154.718,36.3723 C154.718,42.7794 159.914,47.9756 166.321,47.9756 C168.249,47.9756 170.002,47.4178 171.602,46.586 L199.742,73.6142 C200.406,74.2519 201.251,74.5349 202.104,74.5174 C202.957,74.4999 203.759,74.1397 204.397,73.4753 C205.035,72.8108 205.387,71.9662 205.37,71.1129 C205.352,70.2595 204.992,69.3884 204.327,68.7505 L176.327,41.9308 C177.262,40.2582 177.925,38.4247 177.925,36.3723 C177.925,29.9653 172.728,24.7689 166.321,24.7689 Z" id="Shape" fill-opacity="0.5" fill="#262626"></path>
                <path d="M186.262,23.9025 L202.021,71.1775" id="Shape" stroke="#262626" stroke-width="5" fill="#262626" stroke-linecap="round" stroke-linejoin="round"></path>
                <path d="M170.504,12.3016 C170.504,5.8945 175.698,0.7007 182.105,0.7007 C188.512,0.7007 193.706,5.8945 193.706,12.3016 C193.706,18.7086 188.512,23.9026 182.105,23.9026 C175.698,23.9026 170.504,18.7086 170.504,12.3016 Z" id="Shape" stroke="#262626" stroke-width="3" fill="url(#radialGradient-1)" stroke-linecap="round" stroke-linejoin="round"></path>
            </g>
            <g id="Layer-3" transform="translate(109.000000, 87.000000)" fill-rule="nonzero">
                <path d="M69.188,0.812 L128.438,0.812 C136.031,1.812 142.859,12.248 148.25,29.438 C150.317,36.027 152.036,43.107 153.406,50.188 C153.785,52.147 154.066,53.887 154.344,55.594 C154.154,55.494 153.972,55.38 153.781,55.281 C145.844,51.186 137.499,48.244 129,46.281 C129.296,38.807 125.739,29.927 120.688,24.656 C118.481,22.355 116.2,20.962 114,20.969 C113.267,20.971 112.515,21.14 111.812,21.469 C108.885,22.839 107.773,26.605 108,32.438 C106.004,32.261 103.626,32.188 100.562,32.188 C99.639,32.188 98.862,32.18 97.344,32.156 C95.431,32.126 94.357,32.162 93.125,32.188 C93.207,31.898 93.405,31.662 93.375,31.344 C92.805,25.368 91.272,21.919 88.156,21.219 C87.455,21.061 86.791,21.072 86.125,21.219 C84.127,21.659 82.264,23.407 80.438,26.031 C76.573,31.583 73.34,40.701 73.75,45.438 C69.071,46.129 64.473,46.978 60.031,48.062 C53.185,49.733 47.003,51.842 41.625,54.438 C40.388,55.035 39.268,55.791 38.094,56.469 C39.562,49.851 42.147,38.368 43.969,32.312 C49.943,12.459 58.013,1.272 69.188,0.812 Z" id="Shape" fill-opacity="0.0952381" fill="#262626"></path>
                <path d="M97.25,37.156 C98.794,37.18 99.605,37.188 100.562,37.188 C111.324,37.188 114.847,38.282 114.75,41.688 C114.733,42.293 114.457,42.534 113.094,42.812 C111.499,43.138 109.789,43.142 104.844,43.031 C102.879,42.987 101.809,42.969 100.562,42.969 C99.606,42.969 98.804,43.007 97.25,43.031 C92.107,43.111 90.249,43.023 88.625,42.562 C87.161,42.147 86.725,41.61 86.75,40.125 C86.776,38.596 87.25,38.044 88.719,37.625 C90.327,37.166 92.147,37.076 97.25,37.156 Z" id="Shape" fill-opacity="0.901361" fill="#262626"></path>
                <path d="M100.281,48.375 C105.268,48.15 111.809,48.379 119.281,49.5 C130.375,51.164 141.294,54.453 151.5,59.719 C155.475,61.77 159.278,64.097 162.906,66.719 C181.59,80.223 191.081,103.242 192.656,130.656 C193.246,140.925 192.617,151.16 191.125,159.469 C190.496,162.968 189.747,165.907 189,167.875 C188.754,168.524 188.54,168.875 188.344,169.219 C186.692,169.07 185.225,169.218 183.938,169.688 C184.612,153.411 182.141,134.7 176.719,119.156 C169.708,99.06 158.92,86.224 145.375,84.719 C135.565,83.629 128.059,85.404 120.719,89.406 C119.27,90.196 115.259,92.642 114.656,92.969 C113.311,93.697 112.601,93.875 112.281,93.781 C110.623,93.298 102.338,90.187 100.219,89.469 C87.251,85.073 74.65,83.25 59.125,84.906 C45.57,86.352 32.392,101.501 22.188,124.062 C14.55,140.947 9.921,159.401 10.188,171.281 C9.588,170.884 8.933,170.627 8.281,170.344 C8.277,170.275 8.354,170.226 8.344,170.156 C8.334,170.085 8.154,168.892 8.094,168.375 C7.922,166.891 7.755,165.169 7.594,163.25 C6.191,146.519 6.58,128.29 9.969,111.188 C14.973,85.933 25.816,67.608 43.781,58.938 C48.816,56.508 54.692,54.499 61.219,52.906 C69.287,50.937 77.955,49.695 86.656,49 C89.757,48.752 92.648,48.585 95.281,48.5 C96.936,48.446 98.199,48.435 98.969,48.438 C98.996,48.438 99.143,48.444 99.219,48.438 C99.391,48.423 99.739,48.399 100.281,48.375 Z" id="Shape" fill-opacity="0.0952381" fill="#262626"></path>
                <path d="M70.219,89.312 C80.364,89.325 89.382,91.054 98.625,94.188 C100.586,94.852 109.031,98.047 110.906,98.594 C112.835,99.156 114.624,98.648 117.031,97.344 C117.776,96.94 121.783,94.527 123.094,93.812 C129.586,90.273 136.095,88.719 144.812,89.688 C155.961,90.926 165.555,102.339 172,120.812 C177.793,137.418 180.303,158.031 178.781,174.688 C178.008,179.792 176.015,186.891 173.125,195.25 C171.765,199.185 170.297,203.141 168.875,206.75 C167.857,209.333 166.885,211.657 166.75,211.906 C161.59,221.456 155.578,228.448 148.156,234.281 C145.635,236.263 142.973,238.104 139.812,240.094 C137.988,241.242 131.861,244.925 131.688,245.031 C122.958,250.385 118.261,254.423 114.594,260.625 C110.111,268.206 108.247,278.242 109,292.375 C109.073,293.754 110.246,294.823 111.625,294.75 C113.004,294.677 114.042,293.504 113.969,292.125 C113.89,290.652 113.957,289.405 113.938,288.031 C114.13,288.089 114.299,288.122 114.5,288.188 C116.001,288.677 117.493,289.292 118.875,289.969 C122.421,291.704 124.357,293.614 124.312,295.312 C124.273,296.817 121.219,298.947 115.125,301.562 C115.329,301.475 109.243,304.026 107.844,304.688 C106.105,305.509 104.922,306.221 104.125,307.031 C103.378,307.25 102.714,307.709 102.438,308.5 C102.212,309.144 102.031,310.23 101.812,310.969 L93.938,310.969 C93.595,309.981 93.306,308.927 92.938,307.969 C92.638,307.19 91.974,306.792 91.219,306.594 C90.524,305.392 89.119,304.527 86.812,303.438 C85.413,302.776 79.327,300.225 79.531,300.312 C73.437,297.697 70.383,295.567 70.344,294.062 C70.299,292.364 72.235,290.423 75.781,288.688 C77.163,288.011 78.687,287.427 80.188,286.938 C80.427,286.86 80.625,286.817 80.844,286.75 C80.897,288.79 81.044,290.687 80.969,292.906 C80.922,294.286 81.995,295.422 83.375,295.469 C84.755,295.515 85.922,294.443 85.969,293.062 C86.563,275.503 83.262,262.969 76.312,253.719 C71.013,246.665 65.43,242.779 53.156,236.219 C52.787,236.022 52.774,236.009 52.406,235.812 C44.619,231.652 41.164,229.597 37.406,226.531 C32.562,222.579 29.032,218.019 26.625,212.188 C26.098,210.911 24.651,210.286 23.375,210.812 C22.099,211.339 21.473,212.817 22,214.094 C22.408,215.081 22.909,215.98 23.375,216.906 C13.035,217.847 5.206,209.616 1.688,196.25 C-1.3,184.9 0.386,174.281 3.656,174.281 C6.491,174.281 8.857,176.006 10.812,179.094 C11.548,180.254 12.165,181.52 12.656,182.781 C12.828,183.222 12.978,183.639 13.094,184 C13.16,184.206 13.204,184.35 13.219,184.406 C13.575,185.74 14.947,186.513 16.281,186.156 C17.615,185.8 18.419,184.428 18.062,183.094 C17.94,182.636 17.676,181.902 17.312,180.969 C16.795,179.639 16.125,178.335 15.375,177.062 C15.539,176.635 15.726,176.203 15.625,175.719 C13.588,165.986 18.231,144.96 26.75,126.125 C36.282,105.051 48.432,91.072 59.656,89.875 C63.342,89.482 66.837,89.308 70.219,89.312 Z" id="Shape" fill="#FFFFFF"></path>
                <path d="M188.906,174.281 C191.942,174.281 192.851,185.062 189.125,196.562 C185.151,208.83 178.11,216.564 169.781,216.594 C170.236,215.809 170.714,215.1 171.156,214.281 C171.888,212.927 175.335,204.132 177.844,196.875 C180.646,188.768 182.636,181.811 183.562,176.406 C183.582,176.349 183.64,176.341 183.656,176.281 C183.682,176.187 183.874,175.922 184,175.719 C184.362,175.665 184.739,175.719 185.062,175.5 C186.24,174.701 187.501,174.281 188.906,174.281 Z" id="Shape" fill="#FFFFFF"></path>
                <path d="M66.406,290.344 C65.769,291.533 65.307,292.776 65.344,294.188 C65.461,298.651 69.399,301.402 77.562,304.906 C77.464,304.864 83.414,307.336 84.688,307.938 C85.6,308.369 86.23,308.73 86.656,309.031 C86.636,309.198 85.774,310.616 85.625,310.969 L69.375,310.969 C65.191,304.661 62.728,298.848 62.875,294.219 C62.919,292.844 64.24,291.532 66.406,290.344 Z" id="Shape" fill-opacity="0.901361" fill="#262626"></path>
                <path d="M128.562,292.344 C128.828,292.351 129.08,292.394 129.344,292.406 C130.745,293.379 131.747,294.389 131.781,295.469 C131.919,299.786 129.828,305.147 126.156,310.969 L108.406,310.969 C108.384,310.884 108.037,310.31 108.031,310.25 C108.459,309.952 109.104,309.611 110,309.188 C111.274,308.586 117.192,306.114 117.094,306.156 C125.257,302.652 129.195,299.901 129.312,295.438 C129.342,294.312 129.003,293.313 128.562,292.344 Z" id="Shape" fill-opacity="0.901361" fill="#262626"></path>
                <path d="M58.25,292.656 C58.148,293.134 57.891,293.548 57.875,294.062 C57.712,299.19 59.793,304.892 63.438,310.969 L35.344,310.969 C41.481,300.102 49.124,293.802 58.25,292.656 Z" id="Shape" fill-opacity="0.901361" fill="#262626"></path>
                <path d="M136.25,293.344 C146.124,295.564 154.352,301.491 160.625,310.969 L131.906,310.969 C135.078,305.372 136.933,300.077 136.781,295.312 C136.758,294.591 136.44,293.993 136.25,293.344 Z" id="Shape" fill-opacity="0.901361" fill="#262626"></path>
            </g>
            <g id="Layer-3_2" transform="translate(44.000000, 85.000000)">
                <g id="Group">
                    <g id="Clipped">
                        <mask id="mask-3" fill="white">
                            <use xlink:href="#path-2"></use>
                        </mask>
                        <g id="Mask"></g>
                        <g id="Group" mask="url(#mask-3)" stroke="#262626" stroke-linecap="round" stroke-linejoin="round">
                            <g transform="translate(62.000000, 0.000000)" id="Shape">
                                <path d="M16.163,178.216 C11.816,157.447 35.237,92.299 62.381,89.403 C89.811,86.477 105.833,95.625 114.596,98.181 C119.657,99.657 127.049,86.868 148.099,89.207 C174.67,92.159 187.53,144.183 184.237,177.63 C184.237,177.63 185.631,172.576 192.154,173.782 C197.141,174.703 211.386,98.51 167.375,66.701 C137.28,44.949 102.004,47.933 102.004,47.933 C102.004,47.933 68.442,47.712 45.7,58.688 C-3.991,82.67 8.854,172.522 8.854,172.522" stroke-width="5" fill="none"></path>
                                <path d="M18.468,385.825 C18.468,385.825 22.667,291.998 64.019,291.789" stroke-width="5" fill="none"></path>
                                <path d="M130.774,291.789 C163.839,292.133 182.214,326.286 180.643,385.825" stroke-width="5" fill="none"></path>
                                <path d="M27.326,221.39 C0.009,224.849 -5.302,173.782 6.665,173.782 C15.435,173.782 18.632,185.748 18.632,185.748" stroke-width="5" fill="none"></path>
                                <path d="M86.467,294.977 C88.542,233.706 41.409,249.269 27.321,215.133" stroke-width="5" fill="none"></path>
                                <path d="M169.148,220.722 C194.42,226.299 203.878,173.782 191.911,173.782 C189.869,173.782 188.129,174.43 186.662,175.426" stroke-width="5" fill="none"></path>
                                <path d="M114.483,294.249 C111.616,240.433 148.341,258.791 171.949,215.096 C172.616,213.862 184.496,184.977 184.648,172.882" stroke-width="5" fill="none"></path>
                                <path d="M185.592,203.9 C190.408,196.019 192.881,180.325 189.847,180.082" stroke-width="3" fill="none"></path>
                                <path d="M8.726,204.702 C4.538,193.839 4.538,179.88 7.573,179.637 C9.321,179.497 11.579,184.007 11.579,184.007" stroke-width="3" fill="none"></path>
                                <path d="M83.199,223.771 C96.657,238.881 121.749,242.923 136.987,229.477" stroke-width="5" fill="none"></path>
                                <path d="M107.206,197.053 C110.333,198.812 130.183,211.966 107.509,212.913" stroke-width="5" fill="none"></path>
                                <path d="M85.245,180.362 C85.245,176.298 87.038,173.004 89.25,173.004 C91.461,173.004 93.254,176.298 93.254,180.362 C93.254,184.426 91.461,187.72 89.25,187.72 C87.038,187.72 85.245,184.426 85.245,180.362 Z" stroke-width="5" fill="#262626" fill-rule="nonzero"></path>
                                <path d="M143.204,179.885 C143.204,175.822 144.997,172.527 147.209,172.527 C149.42,172.527 151.214,175.822 151.214,179.885 C151.214,183.949 149.42,187.244 147.209,187.244 C144.997,187.244 143.204,183.949 143.204,179.885 Z" stroke-width="5" fill="#262626" fill-rule="nonzero"></path>
                                <path d="M18.22,214.268 C24.929,211.807 22.035,242.144 16.541,223.577" stroke-width="2.5" fill="none"></path>
                                <path d="M176.532,218.044 C169.823,215.583 172.716,245.92 178.21,227.353" stroke-width="2.5" fill="none"></path>
                                <path d="M92.235,310.325 C92.728,313.364 84.77,323.708 82.861,329.436 C82.807,329.598 62.93,310.416 63.385,296.127 C63.661,287.478 84.536,285.944 84.536,285.944 C84.536,285.944 70.669,289.334 70.848,296.127 C71.03,303.044 91.689,306.957 92.235,310.325 Z" stroke-width="5" fill="none"></path>
                                <path d="M108.427,311.577 C107.934,314.617 115.891,324.961 117.801,330.689 C117.855,330.85 137.732,311.668 137.277,297.38 C137.001,288.73 116.126,287.197 116.126,287.197 C116.126,287.197 129.993,290.586 129.814,297.38 C129.632,304.296 108.973,308.21 108.427,311.577 Z" stroke-width="5" fill="none"></path>
                                <path d="M93.6,310.871 C102.883,334.988 101.609,363.018 101.609,363.018" stroke-width="5" fill="none"></path>
                                <path d="M107.797,311.326 C102.999,325.034 100.608,360.743 100.608,360.743" stroke-width="5" fill="none"></path>
                                <path d="M87.241,42.093 C87.35,35.633 94.547,36.702 103.56,36.702 C112.572,36.702 120.436,37.126 120.247,43.752 C120.107,48.651 112.572,47.484 103.56,47.484 C94.547,47.484 87.132,48.553 87.241,42.093 Z" stroke-width="5" fill="none"></path>
                                <path d="M93.876,33.58 C91.86,12.457 78.41,39.106 79.225,47.302" stroke-width="5" fill="none"></path>
                                <path d="M113.483,34.414 C112.607,13.255 131.421,34.414 129.544,49.641" stroke-width="5" fill="none"></path>
                                <path d="M160.467,61.28 C160.467,61.28 152.348,0.412 130.418,0.128" stroke-width="5" fill="none"></path>
                                <path d="M72.974,0.220476999 C46.774,0.0877384703 41.055,50.6269458 37.35,63.824" stroke-width="5" fill="none"></path>
                                <path d="M101.808,27.004 C101.808,22.663 99.767,15.301 95.004,13.26" stroke-width="2.5" fill="none"></path>
                                <path d="M108.068,28.365 C109.292,22.381 110.656,15.23 115.416,10.947" stroke-width="2.5" fill="none"></path>
                                <path d="M62.564,18.564 C56.935,33.019 54.4,47.005 54.4,47.005" stroke-width="2.5" fill="none"></path>
                                <path d="M72.687,25.779 C67.68,37.672 67.652,42.245 67.652,42.245" stroke-width="2.5" fill="none"></path>
                                <path d="M127.527,17.887 C131.867,25.201 134.722,31.13 136.917,39.251" stroke-width="2.5" fill="none"></path>
                                <path d="M143.585,33.4 C144.401,36.257 145.218,39.115 146.034,41.973" stroke-width="2.5" fill="none"></path>
                                <path d="M56.847,171.185 C56.847,153.188 67.467,138.598 80.568,138.598 C93.669,138.598 104.289,153.188 104.289,171.185 C104.289,189.182 93.669,203.771 80.568,203.771 C67.467,203.771 56.847,189.182 56.847,171.185 Z" stroke-width="5" fill="none"></path>
                                <path d="M114.945,171.297 C114.945,153.3 125.565,138.711 138.666,138.711 C151.766,138.711 162.387,153.3 162.387,171.297 C162.387,189.294 151.766,203.884 138.666,203.884 C125.565,203.884 114.945,189.294 114.945,171.297 Z" stroke-width="5" fill="none"></path>
                                <path d="M62.135,116.792 C89.63,109.613 99.293,124.959 100.322,122.901 C101.871,119.803 98.489,111.446 87.338,110.835 C75.397,110.18 61.066,116.333 61.066,116.333" stroke-width="5" fill="none"></path>
                                <path d="M159.636,119.082 C159.636,119.082 146.353,109.249 133.458,118.055 C126.443,122.846 129.608,111.981 141.671,109.158 C153.733,106.335 159.294,118.568 159.294,118.568" stroke-width="5" fill="none"></path>
                                <path d="M191.016,143.496 C189.086,113.664 172.812,87.001 157.771,71.959" stroke-width="2.5" fill="none"></path>
                                <path d="M113.839,85.91 C112.31,79.284 111.279,67.309 107.849,61.306" stroke-width="2.5" fill="none"></path>
                                <path d="M129.476,79.929 C127.191,73.534 125.047,68.943 121.666,63.309" stroke-width="2.5" fill="none"></path>
                                <path d="M150.053,80.271 C150.053,80.271 150.443,75.153 139.07,62.906" stroke-width="2.5" fill="none"></path>
                                <path d="M89.202,80.122 C89.908,72.358 91.573,66.484 93.21,59.938" stroke-width="2.5" fill="none"></path>
                                <path d="M67.385,79.083 C68.789,71.363 70.482,66.035 74.806,59.789" stroke-width="2.5" fill="none"></path>
                                <path d="M36.859,97.629 C40.693,87.705 51.106,66.049 59.668,60.68" stroke-width="2.5" fill="none"></path>
                                <path d="M35.262,76.734 C20.752,92.115 14.359,136.729 12.771,149.431" stroke-width="2.5" fill="none"></path>
                                <path d="M85.56,217.396 C76.008,212.62 73.283,219.411 73.283,228.257" stroke-width="5" fill="none"></path>
                            </g>
                        </g>
                    </g>
                    <g id="Mask-link" stroke-linecap="round" stroke-linejoin="round" stroke="#262626" stroke-width="5">
                        <polygon id="Mask" points="0.4374 0.301 315.604 0.301 315.604 315.468 0.4374 315.468"></polygon>
                    </g>
                </g>
            </g>
        </g>
        <text font-family="HaveaGreatDay, Have a Great Day" font-size="48" font-weight="normal" fill="#000000">
            <tspan x="130.508563" y="465">LEONIE</tspan>
        </text>
    </g>
</svg>