<?xml version="1.0" encoding="UTF-8"?>
<svg width="410px" height="510px" viewBox="0 0 410 510" version="1.1" xmlns="http://www.w3.org/2000/svg" xmlns:xlink="http://www.w3.org/1999/xlink">
    <!-- Generator: Sketch 47.1 (45422) - http://www.bohemiancoding.com/sketch -->
    <title>Max</title>
    <desc>Created with Sketch.</desc>
    <defs>
        <radialGradient cx="65.1832678%" cy="36.5028321%" fx="65.1832678%" fy="36.5028321%" r="16.7967417%" gradientTransform="translate(0.651833,0.365028),scale(0.999996,1.000000),translate(-0.651833,-0.365028)" id="radialGradient-1">
            <stop stop-color="#262626" stop-opacity="0.653061" offset="0%"></stop>
            <stop stop-color="#262626" offset="100%"></stop>
        </radialGradient>
    </defs>
    <g id="Planungstage-'17-framed" stroke="none" stroke-width="1" fill="none" fill-rule="evenodd">
        <g id="Max">
            <g transform="translate(-7.000000, 1.000000)">
                <g id="Layer-1" fill-rule="nonzero">
                    <path d="M387.758,53.812 L384.631,489.251 C381.68,489.431 376.416,489.765 373.167,489.946 C361.346,490.6 347.777,491.21 332.729,491.821 C283.173,493.835 232.045,494.831 180.843,494.601 C180.03,494.604 179.224,494.666 178.411,494.67 C124.877,494.387 71.301,492.619 19.4381,489.181 C19.3862,482.066 16.2535,55.2358 16.242,54.09 C16.2518,53.9558 11.7424,54.1048 11.74,54.1848 C11.7388,54.2718 9.074,142.775 8.1821,195.484 C7.3623,243.929 6.2379,295.344 4.847,348.204 C3.8136,387.475 0.8621,483.415 0.5392,493.003 C0.4261,496.358 0.1269,504.685 0.1223,504.814 C0.0519,506.808 1.7472,508.449 3.7353,508.289 C9.5794,507.817 15.443,507.39 21.3835,506.968 C125.298,499.584 236.278,499.881 340.858,504.814 C357.077,505.58 371.708,506.357 384.492,507.177 C388.965,507.464 400.093,508.275 400.264,508.289 C402.253,508.444 403.952,506.807 403.877,504.814 C403.873,504.692 402.806,474.059 402.418,462.361 C401.311,428.938 400.186,392.422 399.153,353.971 C397.361,287.29 395.99,221.953 395.192,160.744 C394.696,122.649 393.173,87.386 393.173,54.3036 C393.173,52.0881 387.774,51.5967 387.758,53.812 Z" id="Shape" fill-opacity="0.5" fill="#262626"></path>
                    <path d="M12.9208,53.7843 L391.121,53.7843 L387.969,492.361 C387.969,492.361 202.021,504.967 16.0724,492.361 L12.9208,53.7843 Z" id="Shape" stroke="#262626" stroke-width="5" fill="#FFFFFF" stroke-linecap="round" stroke-linejoin="round"></path>
                    <polygon id="Shape" stroke="#262626" stroke-width="3" fill-opacity="0.0969388" fill="#262626" stroke-linecap="round" stroke-linejoin="round" points="44.4374 85.301 359.604 85.301 359.604 400.468 44.4374 400.468"></polygon>
                    <path d="M166.321,24.7689 C159.914,24.769 154.718,29.9653 154.718,36.3723 C154.718,42.7794 159.914,47.9756 166.321,47.9756 C168.249,47.9756 170.002,47.4178 171.602,46.586 L199.742,73.6142 C200.406,74.2519 201.251,74.5349 202.104,74.5174 C202.957,74.4999 203.759,74.1397 204.397,73.4753 C205.035,72.8108 205.387,71.9662 205.37,71.1129 C205.352,70.2595 204.992,69.3884 204.327,68.7505 L176.327,41.9308 C177.262,40.2582 177.925,38.4247 177.925,36.3723 C177.925,29.9653 172.728,24.7689 166.321,24.7689 Z" id="Shape" fill-opacity="0.5" fill="#262626"></path>
                    <path d="M186.262,23.9025 L202.021,71.1775" id="Shape" stroke="#262626" stroke-width="5" fill="#262626" stroke-linecap="round" stroke-linejoin="round"></path>
                    <path d="M170.504,12.3016 C170.504,5.8945 175.698,0.7007 182.105,0.7007 C188.512,0.7007 193.706,5.8945 193.706,12.3016 C193.706,18.7086 188.512,23.9026 182.105,23.9026 C175.698,23.9026 170.504,18.7086 170.504,12.3016 Z" id="Shape" stroke="#262626" stroke-width="3" fill="url(#radialGradient-1)" stroke-linecap="round" stroke-linejoin="round"></path>
                </g>
                <g id="Layer-3" transform="translate(112.000000, 124.000000)" fill-rule="nonzero">
                    <path d="M123.281,0.312 C141.962,-0.358 162.117,7.048 180.188,22.531 C167.648,17.248 156.174,14.486 145.875,14.031 C143.732,13.937 141.667,13.91 139.688,14 C133.748,14.27 128.569,15.334 124.094,16.969 C122.259,17.639 120.664,18.368 119.344,19.094 C118.532,19.54 117.99,19.903 117.688,20.125 C117.02,20.616 116.853,21.551 117.344,22.219 C117.834,22.886 118.77,23.022 119.438,22.531 C119.475,22.504 119.589,22.447 119.75,22.344 C120.035,22.161 120.372,21.944 120.781,21.719 C121.97,21.065 123.405,20.43 125.094,19.812 C130.694,17.767 137.581,16.639 145.75,17 C156.475,17.473 168.521,20.466 181.906,26.469 C182.141,26.574 182.383,26.517 182.625,26.5 C183.379,28.875 184.079,31.281 184.625,33.781 C187.915,48.841 187.415,64.995 184.625,80.375 C184.206,82.683 183.758,84.691 183.312,86.594 C176.513,73.3 164.284,57.983 148.812,44.594 C131.28,29.421 111.396,17.937 90.5,11.312 C100.25,4.454 111.459,0.737 123.281,0.312 Z" id="Shape" fill-opacity="0.397959" fill="#262626"></path>
                    <path d="M50.5,7.906 C84.924,7.906 118.876,22.672 146.844,46.875 C169.6,66.568 185.228,90.463 186.062,104.781 C185.343,104.889 184.633,105.004 183.969,105.25 C183.293,76.735 146.334,57.125 94.438,57.125 C47.609,57.125 20.237,69.389 14.062,94.375 C12.84,91.201 11.364,87.383 10.562,85.25 C7.304,76.579 4.986,69.573 3.312,62.812 C-0.672,46.72 -0.403,34.127 5.219,24.938 C11.977,13.891 26.526,7.906 50.5,7.906 Z" id="Shape" fill-opacity="0.397959" fill="#262626"></path>
                    <path d="M186.156,28.031 C186.332,28.205 186.512,28.356 186.688,28.531 C195.13,36.95 200.352,46.8 202.75,57.812 C206.011,72.788 203.933,88.891 198.5,104.594 C197.345,107.933 196.111,110.931 194.875,113.688 C193.934,108.973 192.028,105.581 189.062,104.781 C188.849,100.727 187.557,96.045 185.344,90.938 C185.388,90.792 185.432,90.656 185.5,90.406 C185.658,89.824 185.842,89.147 186.031,88.375 C186.569,86.176 187.092,83.67 187.594,80.906 C189.021,73.038 189.85,64.973 189.906,56.938 C189.962,48.902 189.256,40.908 187.562,33.156 C187.179,31.402 186.644,29.73 186.156,28.031 Z" id="Shape" fill-opacity="0.397959" fill="#262626"></path>
                    <path d="M94.438,60.125 C128.214,60.125 155.196,68.559 169.594,82.031 C169.571,82.135 169.469,82.202 169.469,82.312 C169.469,82.806 169.651,83.424 170.125,84.781 C170.281,85.228 171.651,89.111 171.781,89.5 C172.441,91.466 172.811,92.87 172.969,93.906 C170.455,92.924 169.075,92.448 167.812,92.125 C165.5,91.534 163.949,91.622 163.375,93.344 C162.213,96.831 163.145,99.735 165.562,103.531 C165.452,103.656 165.392,103.731 165.219,103.906 C164.845,104.282 162.917,106.094 162.438,106.562 C161.268,107.706 160.382,108.69 159.688,109.656 C158.288,111.604 157.745,113.395 158.5,115.094 C159.672,117.73 162.433,117.668 165.906,116.125 C166.723,115.762 167.564,115.321 168.438,114.812 C168.47,114.793 168.498,114.769 168.531,114.75 C168.186,116.087 167.824,117.44 167.5,118.812 C167.235,119.935 167.004,121.015 166.781,122.062 C165.304,129.008 164.936,132.842 166.375,134.281 C166.877,134.783 167.596,134.874 168.188,134.594 C168.471,134.459 168.658,134.257 168.844,134.031 C169.037,133.796 169.227,133.499 169.438,133.094 C169.756,132.478 170.125,131.617 170.688,130.281 C170.986,129.572 172.19,126.724 172.375,126.281 C173.113,124.511 173.723,123.044 174.344,121.656 C174.788,120.665 175.143,120.275 175.562,119.406 C176.264,119.452 176.937,119.078 177.125,118.375 C177.144,118.304 177.21,118.159 177.281,117.938 C177.403,117.557 177.539,117.117 177.719,116.656 C178.232,115.338 178.883,114.032 179.656,112.812 C181.778,109.464 184.421,107.531 187.656,107.531 C191.914,107.531 194.043,118.855 191.469,131.094 C188.573,144.865 181.399,153.541 171.875,152.562 C172.266,150.482 172.469,148.376 172.469,146.281 C172.469,145.453 171.797,144.781 170.969,144.781 C170.14,144.781 169.469,145.453 169.469,146.281 C169.469,161.504 157.66,177.106 139.938,185.375 C124.875,192.403 110.989,208.917 109.031,222.219 C108.562,222.472 108.187,222.866 108.188,223.438 C108.188,223.938 108.468,224.321 108.844,224.594 C108.821,225.255 108.673,225.956 108.719,226.594 C108.778,227.42 109.517,228.06 110.344,228 C111.17,227.94 111.778,227.201 111.719,226.375 C111.69,225.971 111.809,225.51 111.812,225.094 C127.589,225.87 133.121,234.88 128.062,247.281 C122.775,260.243 108.308,270.781 93.375,270.781 C76.407,270.781 63.343,260.608 60.312,247.594 C57.421,235.179 65.007,225.756 80.688,225.594 C80.674,226.1 80.763,226.579 80.719,227.094 C80.648,227.919 81.237,228.647 82.062,228.719 C82.888,228.79 83.616,228.169 83.688,227.344 C85.073,211.263 73.335,199.139 51,191.031 C41.602,187.62 33.737,181.127 27.656,170.031 C19.853,155.793 15.619,134.882 15.719,106.031 C15.719,75.307 42.266,60.125 94.438,60.125 Z" id="Shape" fill="#FFFFFF"></path>
                    <path d="M174.031,86.812 C178.542,92.563 181.031,99.028 181.031,106.031 C181.031,106.284 181.171,106.478 181.281,106.688 C180.664,107.137 180.059,107.644 179.5,108.219 C179.451,108.245 179.391,108.217 179.344,108.25 C178.43,108.884 177.519,109.831 176.594,111.125 C175.023,113.322 173.396,116.412 171.594,120.438 C170.96,121.852 170.341,123.333 169.594,125.125 C169.537,125.26 169.277,125.87 169.094,126.312 C169.292,125.118 169.411,124.135 169.719,122.688 C169.937,121.663 170.178,120.602 170.438,119.5 C170.871,117.66 171.316,115.818 171.781,114.062 C171.944,113.448 172.376,111.888 172.406,111.781 C172.796,110.4 171.211,109.327 170.062,110.188 C169.9,110.309 169.611,110.523 169.188,110.812 C168.479,111.297 167.712,111.768 166.938,112.219 C166.152,112.676 165.396,113.091 164.688,113.406 C162.586,114.34 161.457,114.341 161.25,113.875 C161.035,113.391 161.283,112.578 162.125,111.406 C162.699,110.608 163.475,109.751 164.531,108.719 C164.973,108.286 166.924,106.454 167.344,106.031 C168.856,104.509 169.314,103.815 168.5,102.594 C166.374,99.404 165.581,97.194 166.125,94.875 C166.383,94.898 166.63,94.921 167.062,95.031 C168.178,95.317 169.481,95.789 171.938,96.75 C172.045,96.792 172.764,97.076 172.969,97.156 C174.084,97.592 175.22,97.316 175.781,96.25 C176.114,95.617 176.148,94.839 176.031,93.875 C175.874,92.576 175.399,90.866 174.625,88.562 C174.576,88.416 174.291,87.561 174.031,86.812 Z" id="Shape" fill-opacity="0.795918" fill="#262626"></path>
                    <path d="M13.031,114.719 C13.546,131.868 15.577,146.324 19.281,157.781 C13.356,154.023 9.305,145.24 8.188,134.594 C7.069,123.936 9.445,115.262 13.031,114.719 Z" id="Shape" fill="#FFFFFF"></path>
                    <path d="M127.219,226.938 C130.047,227.395 131.992,227.697 133.625,228 C148.357,230.738 158.588,234.412 166.375,240.719 C175.659,248.237 180.661,259.282 180.969,274.969 L0.688,274.969 C1.281,244.789 19.804,228.712 63.125,228.156 C58.852,231.802 56.604,236.985 56.719,242.969 C56.751,244.678 56.981,246.456 57.406,248.281 C60.756,262.665 75.024,273.781 93.375,273.781 C109.573,273.781 125.112,262.459 130.844,248.406 C134.514,239.408 133.133,231.688 127.219,226.938 Z" id="Shape" fill-opacity="0.85034" fill="#262626"></path>
                </g>
                <g id="Layer-3_2" transform="translate(44.000000, 85.000000)">
                    <path d="M67.131,315.468 C67.131,286.853 82.153,264.763 135.827,265.491" id="Shape" stroke="#262626" stroke-width="5" stroke-linecap="round" stroke-linejoin="round"></path>
                    <path d="M186.564,263.026 C214.721,267.38 250.525,271.386 250.525,315.468" id="Shape" stroke="#262626" stroke-width="5" stroke-linecap="round" stroke-linejoin="round"></path>
                    <path d="M150.206,266.219 C151.602,250.015 138.69,238.785 118.474,231.446 C102.718,225.727 81.989,208.145 82.206,145.024" id="Shape" stroke="#262626" stroke-width="5" stroke-linecap="round" stroke-linejoin="round"></path>
                    <path d="M238.97,193.026 C263.331,196.71 267.617,145.024 255.649,145.024 C246.879,145.024 243.683,156.991 243.683,156.991" id="Shape" stroke="#262626" stroke-width="5" stroke-linecap="round" stroke-linejoin="round"></path>
                    <path d="M178.221,265.491 C177.235,251.826 193.099,232.945 208.569,225.727 C226.594,217.316 238.97,201.308 238.97,185.287" id="Shape" stroke="#262626" stroke-width="5" stroke-linecap="round" stroke-linejoin="round"></path>
                    <path d="M161.37,311.279 C122.773,311.279 111.824,262.428 149.706,263.032" id="Shape" stroke="#262626" stroke-width="5" stroke-linecap="round" stroke-linejoin="round"></path>
                    <path d="M161.37,311.279 C195.004,311.279 218.544,262.422 177.687,262.428" id="Shape" stroke="#262626" stroke-width="5" stroke-linecap="round" stroke-linejoin="round"></path>
                    <path d="M161.37,167.309 C155.024,181.015 134.566,156.434 127.86,180.759 C123.982,194.825 146.306,211.73 161.37,194.431" id="Shape" stroke="#262626" stroke-width="5" stroke-linecap="round" stroke-linejoin="round"></path>
                    <path d="M125.735,178.3 C118.967,174.393 114.164,164.546 114.164,153.017 C114.164,138.06 122.247,125.935 132.219,125.935 C142.19,125.935 150.273,138.06 150.273,153.017 C150.273,158.296 149.266,163.222 147.525,167.386" id="Shape" stroke="#262626" stroke-width="5" stroke-linecap="round" stroke-linejoin="round"></path>
                    <path d="M135.827,210.55 C142.262,218.568 150.142,225.389 177.235,208.145" id="Shape" stroke="#262626" stroke-width="5" stroke-linecap="round" stroke-linejoin="round"></path>
                    <path d="M161.37,153.532 C161.37,138.575 169.454,126.45 179.425,126.45 C189.396,126.45 197.48,138.575 197.48,153.532 C197.48,168.488 189.396,180.613 179.425,180.613 C169.454,180.613 161.37,168.488 161.37,153.532 Z" id="Shape" stroke="#262626" stroke-width="5" stroke-linecap="round" stroke-linejoin="round"></path>
                    <path d="M201.322,117.734 C184.546,91.79 170.428,111.09 171.913,110.479 C189.612,103.195 201.322,117.734 201.322,117.734" id="Shape" stroke="#262626" stroke-width="5" stroke-linecap="round" stroke-linejoin="round"></path>
                    <path d="M111.824,119.349 C130.421,94.678 142.506,112.076 141.069,111.36 C123.939,102.823 111.824,119.349 111.824,119.349" id="Shape" stroke="#262626" stroke-width="5" stroke-linecap="round" stroke-linejoin="round"></path>
                    <polygon id="Shape" points="0.4374 0.301 315.604 0.301 315.604 315.468 0.4374 315.468"></polygon>
                    <path d="M126.504,161.485 C126.504,158.268 128.119,155.66 130.112,155.66 C132.105,155.66 133.72,158.268 133.72,161.485 C133.72,164.701 132.105,167.309 130.112,167.309 C128.119,167.309 126.504,164.701 126.504,161.485 Z" id="Shape" stroke="#262626" stroke-width="5" fill="#262626" fill-rule="nonzero" stroke-linecap="round" stroke-linejoin="round"></path>
                    <path d="M171.227,161.485 C171.227,158.268 172.842,155.66 174.835,155.66 C176.828,155.66 178.443,158.268 178.443,161.485 C178.443,164.701 176.828,167.309 174.835,167.309 C172.842,167.309 171.227,164.701 171.227,161.485 Z" id="Shape" stroke="#262626" stroke-width="5" fill="#262626" fill-rule="nonzero" stroke-linecap="round" stroke-linejoin="round"></path>
                    <polygon id="Shape" points="0.4374 0.301 315.604 0.301 315.604 315.468 0.4374 315.468"></polygon>
                    <path d="M82.206,145.024 C82.206,112.464 110.928,97.621 162.448,97.621 C213.969,97.621 250.525,117.084 250.525,145.024" id="Shape" stroke="#262626" stroke-width="5" stroke-linecap="round" stroke-linejoin="round"></path>
                    <path d="M82.205,137.915 C69.652,105.11 42.715,45.409 118.508,45.409 C195.03,45.409 255.734,117.084 255.734,145.024" id="Shape" stroke="#262626" stroke-width="5" stroke-linecap="round" stroke-linejoin="round"></path>
                    <path d="M155.719,50.408 C181.844,30.541 222.128,32.962 255.734,66.472 C292.217,102.849 262.079,157.884 262.079,157.884" id="Shape" stroke="#262626" stroke-width="5" stroke-linecap="round" stroke-linejoin="round"></path>
                    <path d="M251.802,64.095 C262.079,95.216 251.851,129.716 251.851,129.716" id="Shape" stroke="#262626" stroke-width="5" stroke-linecap="round" stroke-linejoin="round"></path>
                    <path d="M250.525,64.095 C207.623,44.857 186.564,60.331 186.564,60.331" id="Shape" stroke="#262626" stroke-width="5" stroke-linecap="round" stroke-linejoin="round"></path>
                    <path d="M248.191,148.469 C242.702,152.279 236.299,173.087 235.421,172.209 C233.378,170.166 238.97,150.372 238.97,150.372 C238.97,150.372 229.612,157.387 227.883,153.496 C226.153,149.605 236.001,143.533 235.26,142.422 C233.776,140.196 231.528,136.665 232.808,132.822 C233.269,131.439 237.576,133.211 241.515,134.75 C244.996,136.109 238.97,122.667 238.97,121.323" id="Shape" stroke="#262626" stroke-width="5" stroke-linecap="round" stroke-linejoin="round"></path>
                    <path d="M89.835,199.657 C71.529,193.918 70.613,152.118 81.375,152.118" id="Shape" stroke="#262626" stroke-width="5" stroke-linecap="round" stroke-linejoin="round"></path>
                    <polygon id="Shape" stroke="#262626" stroke-width="5" stroke-linecap="round" stroke-linejoin="round" points="0.4374 0.301 315.604 0.301 315.604 315.468 0.4374 315.468"></polygon>
                </g>
            </g>
            <text id="NICOLE" font-family="HaveaGreatDay, Have a Great Day" font-size="48" font-weight="normal" fill="#000000">
                <tspan x="152.972563" y="465">MAX</tspan>
            </text>
        </g>
    </g>
</svg>