<?xml version="1.0" encoding="UTF-8"?>
<svg width="410px" height="510px" viewBox="0 0 410 510" version="1.1" xmlns="http://www.w3.org/2000/svg" xmlns:xlink="http://www.w3.org/1999/xlink">
    <!-- Generator: Sketch 49.3 (51167) - http://www.bohemiancoding.com/sketch -->
    <title>Monika</title>
    <desc>Created with Sketch.</desc>
    <defs>
        <radialGradient cx="65.1832678%" cy="36.5028321%" fx="65.1832678%" fy="36.5028321%" r="16.7968141%" gradientTransform="translate(0.651833,0.365028),scale(0.999996,1.000000),translate(-0.651833,-0.365028)" id="radialGradient-1">
            <stop stop-color="#262626" stop-opacity="0.653061" offset="0%"></stop>
            <stop stop-color="#262626" offset="100%"></stop>
        </radialGradient>
        <polygon id="path-2" points="0.4374 0.301 315.604 0.301 315.604 315.468 0.4374 315.468"></polygon>
    </defs>
    <g id="Monika" stroke="none" stroke-width="1" fill="none" fill-rule="evenodd">
        <g transform="translate(1.000000, 1.000000)">
            <g id="Layer-1" fill-rule="nonzero">
                <path d="M387.758,53.812 L384.631,489.251 C381.68,489.431 376.416,489.765 373.167,489.946 C361.346,490.6 347.777,491.21 332.729,491.821 C283.173,493.835 232.045,494.831 180.843,494.601 C180.03,494.604 179.224,494.666 178.411,494.67 C124.877,494.387 71.301,492.619 19.4381,489.181 C19.3862,482.066 16.2535,55.2358 16.242,54.09 C16.2518,53.9558 11.7424,54.1048 11.74,54.1848 C11.7388,54.2718 9.074,142.775 8.1821,195.484 C7.3623,243.929 6.2379,295.344 4.847,348.204 C3.8136,387.475 0.8621,483.415 0.5392,493.003 C0.4261,496.358 0.1269,504.685 0.1223,504.814 C0.0519,506.808 1.7472,508.449 3.7353,508.289 C9.5794,507.817 15.443,507.39 21.3835,506.968 C125.298,499.584 236.278,499.881 340.858,504.814 C357.077,505.58 371.708,506.357 384.492,507.177 C388.965,507.464 400.093,508.275 400.264,508.289 C402.253,508.444 403.952,506.807 403.877,504.814 C403.873,504.692 402.806,474.059 402.418,462.361 C401.311,428.938 400.186,392.422 399.153,353.971 C397.361,287.29 395.99,221.953 395.192,160.744 C394.696,122.649 393.173,87.386 393.173,54.3036 C393.173,52.0881 387.774,51.5967 387.758,53.812 Z" id="Shape" fill-opacity="0.5" fill="#262626"></path>
                <path d="M12.9208,53.7843 L391.121,53.7843 L387.969,492.361 C387.969,492.361 202.021,504.967 16.0724,492.361 L12.9208,53.7843 Z" id="Shape" stroke="#262626" stroke-width="5" fill="#FFFFFF" stroke-linecap="round" stroke-linejoin="round"></path>
                <polygon id="Shape" stroke="#262626" stroke-width="3" fill-opacity="0.0969388" fill="#262626" stroke-linecap="round" stroke-linejoin="round" points="44.4374 85.301 359.604 85.301 359.604 400.468 44.4374 400.468"></polygon>
                <path d="M166.321,24.7689 C159.914,24.769 154.718,29.9653 154.718,36.3723 C154.718,42.7794 159.914,47.9756 166.321,47.9756 C168.249,47.9756 170.002,47.4178 171.602,46.586 L199.742,73.6142 C200.406,74.2519 201.251,74.5349 202.104,74.5174 C202.957,74.4999 203.759,74.1397 204.397,73.4753 C205.035,72.8108 205.387,71.9662 205.37,71.1129 C205.352,70.2595 204.992,69.3884 204.327,68.7505 L176.327,41.9308 C177.262,40.2582 177.925,38.4247 177.925,36.3723 C177.925,29.9653 172.728,24.7689 166.321,24.7689 Z" id="Shape" fill-opacity="0.5" fill="#262626"></path>
                <path d="M186.262,23.9025 L202.021,71.1775" id="Shape" stroke="#262626" stroke-width="5" fill="#262626" stroke-linecap="round" stroke-linejoin="round"></path>
                <path d="M170.504,12.3016 C170.504,5.8945 175.698,0.7007 182.105,0.7007 C188.512,0.7007 193.706,5.8945 193.706,12.3016 C193.706,18.7086 188.512,23.9026 182.105,23.9026 C175.698,23.9026 170.504,18.7086 170.504,12.3016 Z" id="Shape" stroke="#262626" stroke-width="3" fill="url(#radialGradient-1)" stroke-linecap="round" stroke-linejoin="round"></path>
            </g>
            <g id="Layer-3" transform="translate(111.000000, 185.000000)" fill-rule="nonzero">
                <path d="M117.5,0.906 C117.59,1.137 117.659,1.242 117.75,1.562 C118.168,3.038 118.478,5.166 118.688,7.75 C118.941,10.869 119.028,14.148 119,16.844 C119,16.846 119,16.873 119,16.875 C118.998,17.013 119.001,17.107 119,17.156 C118.94,20.291 123.527,20.667 123.969,17.562 C123.986,17.445 124.26,15.723 124.375,15.062 C124.704,13.179 125.083,11.309 125.5,9.562 C125.868,8.02 126.242,6.949 126.625,5.844 C126.842,7.033 127.077,8.156 127.219,9.812 C127.377,11.66 127.475,13.658 127.531,15.656 C127.566,16.885 127.563,17.871 127.562,18.469 C127.556,21.539 132.023,21.903 132.531,18.875 C132.544,18.796 132.801,17.574 132.906,17.094 C133.206,15.726 133.562,14.353 133.969,13.094 C134.499,11.45 135.06,10.121 135.625,9.281 C135.717,9.145 135.764,9.128 135.844,9.031 C135.906,9.157 135.968,9.197 136.031,9.375 C136.347,10.261 136.558,11.559 136.656,13.125 C136.76,14.777 136.736,16.589 136.625,18.312 C136.603,18.648 136.536,19.483 136.531,19.531 C136.211,22.612 140.67,23.407 141.438,20.406 C141.473,20.266 142.022,18.219 142.25,17.438 C142.901,15.209 143.619,12.975 144.375,10.906 C145.495,7.839 146.577,5.725 147.531,4.281 C147.647,6.029 147.56,8.418 147.25,11.688 C147.171,12.525 146.696,17.004 146.625,17.688 C146.505,18.836 146.428,19.717 146.375,20.469 C146.154,23.623 146.18,24.492 147.562,25.5 C148.582,26.244 149.846,26.103 150.688,25.406 C151.023,25.129 151.211,24.851 151.375,24.531 C151.507,24.273 151.622,23.986 151.719,23.656 C151.844,23.233 151.954,22.672 152.125,21.875 C152.199,21.53 152.606,19.66 152.906,18.219 C152.925,18.433 152.951,18.527 152.969,18.75 C153.094,20.308 153.468,26.423 153.562,27.312 C153.597,27.633 153.646,27.905 153.688,28.125 C153.721,28.301 153.755,28.457 153.812,28.625 C154.011,29.207 154.241,29.619 154.938,30.031 C156.219,30.79 157.663,30.415 158.5,29.406 C158.864,28.968 159.065,28.477 159.25,27.875 C159.487,27.105 159.681,26.037 159.844,24.688 C160.11,22.479 160.323,19.461 160.469,15.781 C160.502,14.937 160.505,14.001 160.531,13.125 C163.404,22.347 164.766,37.516 164.062,59.406 C161.653,60.027 159.341,62.557 157.375,66.75 C156.789,68 157.344,69.476 158.594,70.062 C159.844,70.649 161.32,70.125 161.906,68.875 C162.621,67.35 163.293,66.35 163.906,65.562 C163.893,65.845 163.889,66.059 163.875,66.344 C163.791,68.011 165.345,69.297 166.969,68.906 L167.25,68.844 C167.592,70.108 167.971,71.361 168.156,72.969 C169.372,83.499 166.388,92.8 161.281,93.188 C160.867,93.219 160.581,93.513 160.25,93.719 C160.259,93.37 160.31,93.039 160.312,92.688 C160.321,91.307 159.224,90.196 157.844,90.188 C156.463,90.179 155.321,91.276 155.312,92.656 C155.212,109.21 147.124,123.25 133.281,133.906 C122.058,142.546 107.643,148.189 97.312,148.812 C86.992,149.435 69.818,141.631 55.125,129.688 C39.459,116.953 30.013,102.461 31,91.25 C31.121,89.875 30.094,88.684 28.719,88.562 C28.4,88.534 28.163,88.73 27.875,88.812 C27.645,88.721 27.478,88.52 27.219,88.5 C22.112,88.112 19.159,78.811 20.375,68.281 C20.709,65.389 21.391,63.276 22.125,61.688 C22.545,61.475 23.329,61.087 23.5,61 C23.782,60.857 23.951,60.604 24.156,60.375 C24.877,61.131 25.698,62.278 26.594,64.188 C27.18,65.438 28.688,65.992 29.938,65.406 C31.188,64.82 31.711,63.313 31.125,62.062 C29.211,57.982 26.965,55.49 24.625,54.781 C23.113,37.17 24.284,26.486 28.562,15.062 C28.674,14.765 28.93,14.174 29.031,13.906 L30.125,28.25 C30.349,31.231 34.671,31.397 35.094,28.438 C35.121,28.249 35.542,25.56 35.719,24.531 C36.222,21.595 36.782,18.636 37.406,15.906 C38.15,12.653 38.948,9.922 39.719,7.906 C39.923,7.372 40.117,7.098 40.312,6.688 C40.74,8.114 41.123,9.941 41.438,12.344 C41.698,14.335 41.912,16.479 42.062,18.625 C42.115,19.377 42.213,21.333 42.219,21.469 C42.339,24.505 46.747,24.757 47.188,21.75 C47.201,21.657 47.426,20.236 47.531,19.688 C47.832,18.126 48.214,16.567 48.625,15.125 C49.098,13.467 49.602,12.083 50.125,11.094 C50.243,10.871 50.327,10.762 50.438,10.594 C50.834,11.279 51.269,12.168 51.656,13.406 C51.986,14.461 52.251,15.634 52.5,16.781 C52.587,17.184 52.801,18.216 52.812,18.281 C53.28,21.048 57.261,21.044 57.75,18.281 C57.769,18.176 58.062,16.628 58.188,16.031 C58.544,14.331 58.942,12.638 59.375,11.062 C59.754,9.685 60.121,8.738 60.5,7.75 C60.739,8.472 60.995,9.13 61.25,10.031 C61.636,11.395 62.022,12.874 62.375,14.344 C62.499,14.859 62.792,16.188 62.812,16.281 C63.449,19.187 67.714,18.755 67.75,15.781 C67.751,15.696 67.791,14.398 67.812,13.906 C67.874,12.505 67.984,11.107 68.125,9.812 C68.216,8.971 68.35,8.536 68.469,7.875 C68.534,7.989 68.589,8.035 68.656,8.156 C69.103,8.968 69.57,9.92 70.062,10.969 C70.715,12.358 71.387,13.846 72,15.344 C72.215,15.869 72.746,17.25 72.781,17.344 C73.857,20.176 78.081,19.016 77.562,16.031 C77.542,15.916 77.518,15.677 77.469,15.344 C77.385,14.78 77.297,14.15 77.219,13.469 C76.991,11.496 76.87,9.505 76.875,7.688 C76.881,5.562 77.074,3.815 77.469,2.625 C77.617,2.176 77.781,1.927 77.938,1.719 C78.062,1.897 78.195,2.024 78.344,2.344 C78.871,3.476 79.334,5.191 79.719,7.281 C80.021,8.923 80.237,10.691 80.406,12.469 C80.466,13.092 80.588,14.705 80.594,14.812 C80.754,17.965 85.412,17.996 85.594,14.844 C85.598,14.777 85.608,14.614 85.625,14.406 C85.654,14.051 85.7,13.648 85.75,13.219 C85.892,11.998 86.084,10.806 86.344,9.688 C86.565,8.734 86.85,8.119 87.125,7.469 C87.319,7.943 87.466,8.28 87.688,8.875 C87.874,9.376 88.082,9.902 88.281,10.469 C88.742,11.781 89.205,13.213 89.656,14.625 C89.814,15.12 90.222,16.409 90.25,16.5 C91.113,19.337 95.309,18.554 95.125,15.594 C95.121,15.537 95.076,14.647 95.062,14.281 C94.98,12.1 94.988,9.79 95.094,7.656 C95.156,6.399 95.329,5.586 95.469,4.625 C95.858,5.663 96.264,6.767 96.688,8.125 C97.225,9.851 97.755,11.705 98.25,13.562 C98.423,14.213 98.846,15.912 98.875,16.031 C99.52,18.677 103.31,18.531 103.75,15.844 C103.764,15.756 104,14.464 104.094,13.969 C104.361,12.556 104.655,11.153 104.969,9.844 C105.184,8.947 105.414,8.3 105.625,7.594 C105.94,8.36 106.253,9.019 106.562,10.062 C106.951,11.372 107.315,12.77 107.625,14.188 C107.734,14.685 107.985,15.977 108,16.062 C108.516,18.935 112.714,18.751 112.969,15.844 C112.979,15.724 112.993,15.5 113.031,15.156 C113.096,14.575 113.18,13.92 113.281,13.219 C113.569,11.221 113.933,9.22 114.406,7.375 C114.988,5.105 115.68,3.255 116.438,1.969 C116.885,1.209 117.183,1.121 117.5,0.906 Z" id="Shape" fill="#FFFFFF"></path>
                <path d="M102.75,153 C102.719,155.457 102.702,157.972 102.75,161.25 C102.773,162.787 102.969,174.167 102.969,176.531 C102.969,177.912 104.088,179.031 105.469,179.031 C106.849,179.031 107.969,177.912 107.969,176.531 C107.969,175.22 107.927,172.777 107.906,171.094 C108.183,171.246 108.383,171.494 108.719,171.531 C121.212,172.925 127.33,176.095 128.812,180.062 C129.539,182.008 129.153,184.257 127.938,186.531 C127.65,187.069 127.337,187.538 127.031,187.969 C126.857,188.215 126.708,188.376 126.656,188.438 C126.037,189.166 126.102,190.073 126.438,190.906 C119.118,198.353 113.191,205.713 108.188,212.969 L80.375,212.969 C78.01,208.884 75.496,204.937 72.688,201.219 C71.848,200.108 71.086,199.35 70.312,198.375 C69.918,195.013 69.125,191.608 67.594,188 C67.312,187.337 65.581,183.52 65.281,182.719 C65.093,182.216 65.004,181.892 64.969,181.656 C66.623,179.678 68.119,177.306 69.531,174.719 C73.44,173.148 78.845,171.995 86.062,171.406 C86.172,171.397 86.239,171.304 86.344,171.281 C86.294,173.055 86.219,174.237 86.219,175.281 C86.219,176.662 87.338,177.781 88.719,177.781 C90.099,177.781 91.219,176.662 91.219,175.281 C91.219,172.178 91.304,169.475 91.562,163.25 C91.563,163.249 91.755,157.423 91.844,153.469 C93.87,153.751 95.823,153.919 97.594,153.812 C99.192,153.716 101.014,153.302 102.75,153 Z" id="Shape" fill="#FFFFFF"></path>
                <path d="M86.562,163.375 C86.557,163.508 86.507,165.571 86.469,166.656 C86.191,166.58 85.958,166.382 85.656,166.406 C80.412,166.834 76.179,167.661 72.406,168.688 C72.532,168.386 72.689,168.151 72.812,167.844 C73.384,166.421 73.869,164.94 74.375,163.469 C78.135,163.278 82.072,163.153 86.562,163.375 Z" id="Shape" fill-opacity="0.75" fill="#262626"></path>
                <path d="M107.781,163.406 C107.924,163.439 108.004,163.587 108.156,163.594 C123.686,164.319 134.941,166.518 140.781,169.625 C145.079,171.912 145.425,173.59 142.625,175.938 C139.502,178.556 136.88,181.145 134.062,183.75 C134.312,181.937 134.175,180.118 133.5,178.312 C131.202,172.162 123.447,168.143 109.281,166.562 C108.747,166.503 108.279,166.725 107.844,166.969 C107.839,166.728 107.849,166.787 107.844,166.531 C107.817,165.147 107.797,164.362 107.781,163.406 Z" id="Shape" fill-opacity="0.75" fill="#262626"></path>
                <path d="M149.406,174.031 C161.755,176.217 177.201,190.635 192.719,212.969 L114.344,212.969 C120.076,205.09 127.179,197.049 135.812,188.906 C136.578,190.072 137.403,191.247 138.25,192.344 C139.13,193.484 140.005,194.479 140.844,195.312 C142.678,197.136 144.338,198.163 146.188,198.062 C148.808,197.92 150.163,195.755 150.562,192.406 C151.044,188.374 150.347,179.209 149.375,174.156 C149.381,174.114 149.401,174.073 149.406,174.031 Z" id="Shape" fill-opacity="0.75" fill="#262626"></path>
                <path d="M36.75,174.688 C35.084,182.035 36.672,190.457 42.781,201.219 C42.773,201.326 42.749,201.479 42.688,201.719 C42.566,202.195 41.756,204.628 41.688,204.844 C40.848,207.495 40.525,210.19 40.469,212.969 L0.562,212.969 C13.327,194.84 25.885,181.386 36.75,174.688 Z" id="Shape" fill-opacity="0.75" fill="#262626"></path>
                <path d="M145.156,180.375 C145.615,184.743 145.912,189.406 145.625,191.812 C145.572,192.258 145.479,192.388 145.406,192.656 C145.084,192.424 144.75,192.154 144.344,191.75 C143.678,191.088 142.975,190.262 142.219,189.281 C141.458,188.295 140.7,187.223 140,186.156 C139.879,185.972 139.744,185.762 139.562,185.469 C141.453,183.765 143.13,182.087 145.156,180.375 Z" id="Shape" fill-opacity="0.75" fill="#262626"></path>
                <path d="M70.188,206.469 C71.707,208.578 73.148,210.747 74.531,212.969 L67.938,212.969 C69.022,210.779 69.739,208.615 70.188,206.469 Z" id="Shape" fill-opacity="0.75" fill="#262626"></path>
            </g>
            <g id="Layer-3_2" transform="translate(44.000000, 85.000000)">
                <g id="Group">
                    <g id="Clipped">
                        <mask id="mask-3" fill="white">
                            <use xlink:href="#path-2"></use>
                        </mask>
                        <g id="Mask"></g>
                        <g id="Group" mask="url(#mask-3)" stroke-linecap="round" stroke-linejoin="round">
                            <g transform="translate(32.000000, 35.000000)" id="Shape">
                                <path d="M129.468,96.764 C129.468,96.764 117.877,89.996 94.987,91.657 C82.401,92.571 66.596,113.839 63.063,119.138 L74.384,112.669 C74.657,139.234 83.439,150.338 100.06,150.474 C116.815,150.611 125.591,135.448 128.969,136.12 C133.29,136.979 137.858,151.968 157.475,150.878 C166.604,150.371 185.37,142.85 186.183,114.488 L199.121,125.203 C199.121,125.202 178.714,92.64 167.162,92.052 C140.686,90.706 129.468,96.764 129.468,96.764 Z M101.07,91.845 C123.162,91.588 127.39,100.502 126.341,123.586 C124.854,156.302 77.54,156.173 77.619,123.99 C77.667,104.752 79.428,92.097 101.07,91.845 Z M157.071,92.25 C177.446,92.541 181.946,101.563 180.926,123.99 C179.44,156.707 131.152,159.293 130.385,123.99 C129.954,104.199 133.018,91.906 157.071,92.25 Z" stroke="#262626" stroke-width="5" fill="#262626" fill-rule="nonzero"></path>
                                <path d="M124.412,216.008 C124.412,223.57 123.717,232.715 123.717,240.278" stroke="#262626" stroke-width="5" fill="none"></path>
                                <path d="M140.234,216.295 C140.07,224.463 140.48,234.582 140.48,241.542" stroke="#262626" stroke-width="5" fill="none"></path>
                                <path d="M187.664,297.032 C193.422,306.352 188.085,331.238 183.865,346.8 C179.4,363.262 189.18,396.82 193.794,443.883 C184.028,455.322 52.738,455.053 58.895,441.097 C69.53,417.013 69.786,354.22 64.204,315.146" stroke="#262626" stroke-width="5" fill="none"></path>
                                <path d="M129.295,136.702 C134.299,146.002 145.949,144.123 145.949,154.089 C145.949,160.677 132.04,171.292 121.792,156.285" stroke="#262626" stroke-width="5" fill="none"></path>
                                <path d="M157.084,174.74 C147.296,186.976 122.944,185.679 115.408,181.911" stroke="#262626" stroke-width="5" fill="none"></path>
                                <path d="M62.041,156.007 C45.966,154.786 53.088,105.136 63.872,128.129" stroke="#262626" stroke-width="5" fill="none"></path>
                                <path d="M192.827,157.686 C192.595,195.883 151.767,215.156 132.45,216.322 C109.676,217.696 61.175,182.517 63.506,156.038" stroke="#262626" stroke-width="5" fill="none"></path>
                                <path d="M165.296,105.97 C170.562,104.906 172.25,114.279 167.694,115.798 C162.003,117.695 161.991,106.634 165.296,105.97 Z" stroke="#262626" stroke-width="5" fill="#262626" fill-rule="nonzero"></path>
                                <path d="M111.567,105.008 C116.833,103.949 118.526,113.318 113.964,114.842 C108.28,116.733 108.268,105.672 111.567,105.008 Z" stroke="#262626" stroke-width="5" fill="#262626" fill-rule="nonzero"></path>
                                <path d="M57.379,123.766 C54.313,93.957 58.865,84.317 65.752,68.218 L67.624,93.068 C67.624,93.068 71.061,69.031 75.253,67.715 C78.932,66.56 79.714,86.378 79.714,86.378 C79.714,86.378 81.614,73.392 85.23,72.527 C88.402,71.769 90.277,82.856 90.277,82.856 C90.277,82.856 92.89,68.097 95.794,67.949 C97.436,67.866 100.254,80.744 100.254,80.744 C100.254,80.744 100.414,67.421 103.072,68.419 C105.516,69.336 110.114,81.448 110.114,81.448 C110.114,81.448 107.18,64.546 112.931,63.959 C117.272,63.516 118.096,79.687 118.096,79.687 C118.096,79.687 118.757,68.241 122.791,68.536 C123.949,68.621 127.643,80.759 127.643,80.759 C127.643,80.759 126.651,64.844 130.127,64.329 C132.291,64.008 136.298,80.438 136.298,80.438 C136.298,80.438 138.29,68.281 140.148,68.073 C143.152,67.736 145.469,80.631 145.469,80.631 C145.469,80.631 147.015,63 152.954,62.876 C156.859,62.795 156.489,82.216 156.489,82.216 C156.489,82.216 158.812,65.902 161.963,65.743 C165.113,65.585 165.077,83.471 165.077,83.471 C165.077,83.471 167.266,70.413 171.304,71.217 C175.342,72.022 174.016,84.777 174.016,84.777 C174.016,84.777 179.038,65.14 183.307,65.341 C187.576,65.542 182.673,87.474 184.04,88.472 C184.608,88.886 186.607,73.186 188.596,74.252 C190.555,75.302 190.762,92.619 191.219,92.89 C193.158,94.037 193.22,68.422 193.22,68.422 C193.22,68.422 204.251,74.55 201.381,131.469 L208.74,129.697 C228.042,9.336 169.061,1.008 129.277,0.512 C89.492,0.015 24.452,4.023 49.602,127.709 L57.379,123.766 Z" stroke="#262626" stroke-width="5" fill="#262626" fill-rule="nonzero"></path>
                                <path d="M84.916,232.322 C51.806,233.426 0.984,324.362 0.422,340.939 C-0.173,358.481 38.296,411.172 38.296,411.172 C38.296,411.172 58.203,397.068 58.586,394.004 C58.898,391.507 31.304,350.355 32.915,344.266 C34.725,337.429 60.665,316.517 69.714,300.229" stroke="#262626" stroke-width="5" fill="none"></path>
                                <path d="M196.477,160.687 C212.552,159.466 205.43,109.816 194.646,132.809" stroke="#262626" stroke-width="5" fill="none"></path>
                                <path d="M139.8,204.179 C139.8,204.179 131.812,200.962 125.044,204.068" stroke="#262626" stroke-width="2.5" fill="none"></path>
                                <path d="M171.186,14.362 C201.045,37.745 200.351,65.345 200.351,65.345" stroke-opacity="0.498299" stroke="#FFFFFF" stroke-width="2.5" fill="none"></path>
                                <path d="M163.889,35.136 C163.889,35.136 170.283,49.65 171.37,70.583" stroke-opacity="0.498299" stroke="#FFFFFF" stroke-width="2.5" fill="none"></path>
                                <path d="M133.438,39.165 C133.438,45.293 133.709,55.463 134.387,63.601 C134.613,66.313 134.884,68.8 135.205,70.837" stroke-opacity="0.498299" stroke="#FFFFFF" stroke-width="2.5" fill="none"></path>
                                <path d="M101.28,25.353 C94.347,38.945 92.912,58.86 92.912,67.8" stroke-opacity="0.498299" stroke="#FFFFFF" stroke-width="2.5" fill="none"></path>
                                <path d="M81.176,35.893 C73.836,41.738 68.865,65.414 68.064,74.225" stroke-opacity="0.498299" stroke="#FFFFFF" stroke-width="2.5" fill="none"></path>
                                <path d="M77.115,20.837 C77.115,20.837 49.931,41.227 51.06,104.334" stroke-opacity="0.498299" stroke="#FFFFFF" stroke-width="2.5" fill="none"></path>
                                <path d="M205.637,94.417 C205.637,96.532 206.469,118.73 204.844,118.73" stroke-opacity="0.498299" stroke="#FFFFFF" stroke-width="2.5" fill="none"></path>
                                <path d="M118.664,26.233 C118.664,26.233 115.538,43.94 114.347,66.703" stroke-opacity="0.498299" stroke="#FFFFFF" stroke-width="2.5" fill="none"></path>
                                <path d="M144.205,21.141 C154.248,39.769 156.654,66.286 156.654,66.286" stroke-opacity="0.498299" stroke="#FFFFFF" stroke-width="2.5" fill="none"></path>
                                <path d="M175.406,31.166 C175.406,31.166 189.865,54.046 188.786,75.09" stroke-opacity="0.498299" stroke="#FFFFFF" stroke-width="2.5" fill="none"></path>
                                <path d="M114.937,155.077 C114.937,155.077 95.159,163.398 95.035,179.045" stroke="#262626" stroke-width="2.5" fill="none"></path>
                                <path d="M146.693,156.692 C146.693,156.692 167.68,162.653 168.052,177.306" stroke="#262626" stroke-width="2.5" fill="none"></path>
                                <path d="M181.83,236.06 C214.94,237.165 260.538,323.422 261.1,339.999 C261.694,357.541 223.086,416.09 223.086,416.09 L205.69,399.222 C205.69,399.222 232.223,360.566 228.708,349.848 C224.843,338.059 192.096,308.809 192.096,308.809" stroke="#262626" stroke-width="5" fill="none"></path>
                                <path d="M121.839,225.877 C99.734,224.76 85.015,228.564 80.756,237.934 C77.406,245.302 117.15,261.378 128.091,319.431 C129.142,325.008 123.853,289.263 179.223,242.846 C187.614,235.811 176.767,227.663 143.274,226.1" stroke="#262626" stroke-width="5" fill="none"></path>
                                <path d="M144.002,234.046 C178.2,237.861 163.575,255.068 163.575,255.068" stroke="#262626" stroke-width="5" fill="none"></path>
                                <path d="M96.467,256.07 C96.467,256.07 82.572,237.024 120.871,233.902" stroke="#262626" stroke-width="5" fill="none"></path>
                                <path d="M181.817,238.701 C182.733,242.863 183.601,252.881 183.096,257.112 C181.851,267.539 171.968,251.043 171.968,251.043" stroke="#262626" stroke-width="5" fill="none"></path>
                                <path d="M69.5,179.312 C69.5,190.859 65.31,210.286 79.458,226.907 C82.39,230.351 64.727,238.282 80.061,265.151 C81.919,268.405 71.879,275.961 83.624,296.747 C86.227,301.352 90.126,304.469 83.225,309.545 C80.914,311.245 85.238,316.627 85.238,316.627 C85.238,316.627 76.911,327.67 78.19,330.95 C79.148,333.407 86.067,322.017 86.067,322.017 C86.067,322.017 85.381,336.001 88.14,335.888 C89.879,335.816 90.914,319.34 91.947,319.379 C93.44,319.434 99.04,340.007 98.845,337.697 C98.63,335.155 96.809,316.1 96.809,316.1 L104.649,325.146 L98.091,307.317 L102.689,311.086 C91.841,303.383 96.974,303.899 99.774,299.344 C106.463,288.462 94.793,286.29 98.729,280.27 C110.401,262.42 95.008,248.638 97.782,245.417 C107.519,234.109 111.117,211.946 111.117,211.946" stroke="#262626" stroke-width="5" fill="#262626" fill-rule="nonzero"></path>
                                <path d="M72.596,192.076 C76.269,213.703 88.919,224.823 88.919,224.823" stroke-opacity="0.498299" stroke="#FFFFFF" stroke-width="2.5" fill="none"></path>
                                <path d="M104.221,218.6 C102.441,225.421 94.19,236.853 88.205,241.043" stroke-opacity="0.498299" stroke="#FFFFFF" stroke-width="2.5" fill="none"></path>
                                <path d="M77.289,242.981 C77.289,242.981 79.125,261.446 89.021,264.812" stroke-opacity="0.498299" stroke="#FFFFFF" stroke-width="2.5" fill="none"></path>
                                <path d="M97.372,266.637 C96.768,271.768 95.765,275.777 90.383,277.245" stroke-opacity="0.498299" stroke="#FFFFFF" stroke-width="2.5" fill="none"></path>
                                <path d="M83.249,275.233 C80.877,287.386 91.116,291.458 91.116,291.458" stroke-opacity="0.498299" stroke="#FFFFFF" stroke-width="2.5" fill="none"></path>
                                <path d="M89.142,300.71 C89.142,300.71 95.804,297.009 96.915,289.854" stroke-opacity="0.498299" stroke="#FFFFFF" stroke-width="2.5" fill="none"></path>
                                <path d="M101.616,304.583 C101.308,301.529 97.698,304.494 92.47,304.697 C87.031,304.91 81.977,302.589 82.123,305.212 C82.252,307.527 87.125,308.967 92.07,308.756 C97.836,308.511 101.777,306.174 101.616,304.583 Z" stroke="#262626" stroke-width="5" fill="none"></path>
                                <path d="M61.647,132.948 C57.3,127.98 58.182,142.126 59.207,144.176" stroke="#262626" stroke-width="2.5" fill="none"></path>
                                <path d="M195.975,138.927 C200.788,132.064 200.823,144.562 198.649,148.909" stroke="#262626" stroke-width="2.5" fill="none"></path>
                            </g>
                        </g>
                    </g>
                    <g id="Mask-link" stroke-linecap="round" stroke-linejoin="round" stroke="#262626" stroke-width="5">
                        <polygon id="Mask" points="0.4374 0.301 315.604 0.301 315.604 315.468 0.4374 315.468"></polygon>
                    </g>
                </g>
            </g>
        </g>
        <text font-family="HaveaGreatDay, Have a Great Day" font-size="48" font-weight="normal" fill="#000000">
            <tspan x="122.228562" y="465">MONIKA</tspan>
        </text>
    </g>
</svg>