<?xml version="1.0" encoding="UTF-8"?>
<svg width="410px" height="510px" viewBox="0 0 410 510" version="1.1" xmlns="http://www.w3.org/2000/svg" xmlns:xlink="http://www.w3.org/1999/xlink">
    <!-- Generator: Sketch 47.1 (45422) - http://www.bohemiancoding.com/sketch -->
    <title>Nicole</title>
    <desc>Created with Sketch.</desc>
    <defs>
        <radialGradient cx="65.1832678%" cy="36.5028321%" fx="65.1832678%" fy="36.5028321%" r="16.7967417%" gradientTransform="translate(0.651833,0.365028),scale(0.999996,1.000000),translate(-0.651833,-0.365028)" id="radialGradient-1">
            <stop stop-color="#262626" stop-opacity="0.653061" offset="0%"></stop>
            <stop stop-color="#262626" offset="100%"></stop>
        </radialGradient>
        <polygon id="path-2" points="0.4374 0.301 315.604 0.301 315.604 315.468 0.4374 315.468"></polygon>
    </defs>
    <g id="Planungstage-'17-framed" stroke="none" stroke-width="1" fill="none" fill-rule="evenodd">
        <g id="Nicole">
            <g transform="translate(-7.000000, 1.000000)">
                <g id="Layer-1" fill-rule="nonzero">
                    <path d="M387.758,53.812 L384.631,489.251 C381.68,489.431 376.416,489.765 373.167,489.946 C361.346,490.6 347.777,491.21 332.729,491.821 C283.173,493.835 232.045,494.831 180.843,494.601 C180.03,494.604 179.224,494.666 178.411,494.67 C124.877,494.387 71.301,492.619 19.4381,489.181 C19.3862,482.066 16.2535,55.2358 16.242,54.09 C16.2518,53.9558 11.7424,54.1048 11.74,54.1848 C11.7388,54.2718 9.074,142.775 8.1821,195.484 C7.3623,243.929 6.2379,295.344 4.847,348.204 C3.8136,387.475 0.8621,483.415 0.5392,493.003 C0.4261,496.358 0.1269,504.685 0.1223,504.814 C0.0519,506.808 1.7472,508.449 3.7353,508.289 C9.5794,507.817 15.443,507.39 21.3835,506.968 C125.298,499.584 236.278,499.881 340.858,504.814 C357.077,505.58 371.708,506.357 384.492,507.177 C388.965,507.464 400.093,508.275 400.264,508.289 C402.253,508.444 403.952,506.807 403.877,504.814 C403.873,504.692 402.806,474.059 402.418,462.361 C401.311,428.938 400.186,392.422 399.153,353.971 C397.361,287.29 395.99,221.953 395.192,160.744 C394.696,122.649 393.173,87.386 393.173,54.3036 C393.173,52.0881 387.774,51.5967 387.758,53.812 Z" id="Shape" fill-opacity="0.5" fill="#262626"></path>
                    <path d="M12.9208,53.7843 L391.121,53.7843 L387.969,492.361 C387.969,492.361 202.021,504.967 16.0724,492.361 L12.9208,53.7843 Z" id="Shape" stroke="#262626" stroke-width="5" fill="#FFFFFF" stroke-linecap="round" stroke-linejoin="round"></path>
                    <polygon id="Shape" stroke="#262626" stroke-width="3" fill-opacity="0.0969388" fill="#262626" stroke-linecap="round" stroke-linejoin="round" points="44.4374 85.301 359.604 85.301 359.604 400.468 44.4374 400.468"></polygon>
                    <path d="M166.321,24.7689 C159.914,24.769 154.718,29.9653 154.718,36.3723 C154.718,42.7794 159.914,47.9756 166.321,47.9756 C168.249,47.9756 170.002,47.4178 171.602,46.586 L199.742,73.6142 C200.406,74.2519 201.251,74.5349 202.104,74.5174 C202.957,74.4999 203.759,74.1397 204.397,73.4753 C205.035,72.8108 205.387,71.9662 205.37,71.1129 C205.352,70.2595 204.992,69.3884 204.327,68.7505 L176.327,41.9308 C177.262,40.2582 177.925,38.4247 177.925,36.3723 C177.925,29.9653 172.728,24.7689 166.321,24.7689 Z" id="Shape" fill-opacity="0.5" fill="#262626"></path>
                    <path d="M186.262,23.9025 L202.021,71.1775" id="Shape" stroke="#262626" stroke-width="5" fill="#262626" stroke-linecap="round" stroke-linejoin="round"></path>
                    <path d="M170.504,12.3016 C170.504,5.8945 175.698,0.7007 182.105,0.7007 C188.512,0.7007 193.706,5.8945 193.706,12.3016 C193.706,18.7086 188.512,23.9026 182.105,23.9026 C175.698,23.9026 170.504,18.7086 170.504,12.3016 Z" id="Shape" stroke="#262626" stroke-width="3" fill="url(#radialGradient-1)" stroke-linecap="round" stroke-linejoin="round"></path>
                </g>
                <g id="Layer-3" transform="translate(107.000000, 99.000000)" fill-rule="nonzero">
                    <path d="M146.812,0.406 C145.284,2.976 144.446,4.406 143.438,6.281 C142.425,8.163 141.553,9.958 140.812,11.656 C138.759,16.363 137.851,20.175 138.5,23.062 C138.669,23.815 139.325,24.35 140.094,24.406 C140.463,24.433 140.723,24.377 141,24.25 C141.218,24.15 141.417,24.025 141.656,23.844 C141.952,23.62 142.297,23.309 142.938,22.75 C145.171,20.802 145.636,20.416 146.844,19.469 C148.414,18.238 149.872,17.255 151.219,16.531 C153.214,15.459 154.672,15.15 155.812,15.438 C155.76,15.46 155.74,15.446 155.688,15.469 C153.51,16.415 151.322,17.626 149.281,19.094 C144.748,22.355 141.651,26.51 140.406,31.562 C133.583,30.76 126.66,31.169 119.812,33.031 C119.357,32.619 118.961,32.245 118.156,31.625 C116.228,30.14 113.941,28.661 111.312,27.281 C106.255,24.628 100.619,22.799 94.531,21.812 C93.154,18.316 90.798,15.488 87.688,13.281 C86.541,12.468 85.308,11.934 84.094,11.344 C85.418,11.24 86.897,11.307 88.562,11.625 C90.844,12.061 93.294,12.842 95.844,13.906 C97.266,14.5 98.621,15.143 99.938,15.812 C100.166,15.929 101.387,16.585 101.469,16.625 C101.545,16.663 101.549,16.64 101.656,16.688 C101.729,16.718 101.734,16.728 101.906,16.781 C102.039,16.817 102.05,16.822 102.375,16.844 C102.62,16.836 102.605,16.826 103.031,16.688 C103.575,16.373 103.59,16.388 103.969,15.688 C104.76,13.313 103.094,10.665 99.719,7.375 C98.715,6.396 97.591,5.37 96.312,4.312 C95.92,3.988 95.463,3.663 95.062,3.344 C98.255,4.768 101.553,7.084 104.906,10.281 C106.908,12.19 108.794,14.231 110.469,16.281 C111.054,16.998 111.554,17.655 112,18.25 C112.265,18.603 112.443,18.875 112.531,19 C113.565,20.475 115.88,19.528 115.594,17.75 C115.584,17.691 115.587,17.562 115.562,17.375 C115.52,17.055 115.478,16.688 115.438,16.281 C115.207,13.935 115.161,11.466 115.438,9.188 C115.909,5.305 117.201,2.819 119.344,2 C119.597,2.469 119.85,3.291 120.156,4.781 C120.209,5.038 120.539,6.814 120.656,7.375 C120.887,8.48 121.12,9.412 121.375,10.312 C122.821,15.408 125.25,18.822 129.531,20.375 C130.711,20.803 131.78,20.309 132.438,19.312 C132.797,18.768 133.038,18.108 133.312,17.094 C133.465,16.529 134.065,14.036 134.219,13.438 C134.629,11.838 135.042,10.516 135.562,9.25 C137.64,4.196 141.164,1.219 146.812,0.406 Z" id="Shape" fill-opacity="0.39966" fill="#262626"></path>
                    <path d="M85.438,24.375 C94.594,24.419 102.699,26.598 109.719,30.281 C112.168,31.567 114.285,32.943 116.062,34.312 C116.679,34.787 117.217,35.235 117.656,35.625 C117.911,35.851 118.086,35.992 118.156,36.062 C118.594,36.503 119.217,36.673 119.812,36.5 C126.91,34.435 134.118,33.989 141.219,35 C141.294,35.022 141.327,35.113 141.406,35.125 C141.499,35.139 141.565,35.063 141.656,35.062 C148.773,36.136 155.777,38.673 162.469,42.5 C173.93,49.054 183.589,59.088 188.125,68.438 C194.168,80.894 197.05,96.507 196.812,111.062 C196.715,117.052 196.055,122.342 195.031,125.906 C194.57,127.511 194.068,128.686 193.594,129.281 C193.51,129.387 193.507,129.401 193.469,129.438 C190.719,128.063 187.934,128.662 185.406,130.844 C183.504,132.486 181.78,134.936 179.938,138.25 C179.231,139.521 177.92,142.075 177.094,143.688 C175.38,134.605 174.097,126.214 173.188,118.219 C172.774,114.586 171.936,105.56 171.781,104.625 C171.712,104.205 171.634,103.896 171.531,103.625 C171.428,103.352 171.289,103.106 171.062,102.875 C170.569,102.372 169.815,102.184 169.094,102.5 C168.203,102.89 168.056,103.236 167.656,104.844 C164.106,119.112 163.251,129.995 165,145.438 C162.074,129.303 161.948,110.986 165.938,91.312 C166.039,90.81 166.062,90.415 165.969,90 C165.721,88.899 164.578,88.247 163.469,88.688 C162.803,88.952 162.324,89.486 161.688,90.469 C160.627,92.106 159.344,94.8 158.125,97.969 C156.544,102.077 155.241,106.567 154.312,111.25 C154.187,109.797 154.067,108.125 153.938,106.75 C152.584,92.395 151.244,84.232 149.25,82.125 C144.293,76.887 138.47,75.295 131.438,76.625 C126.382,77.581 123.278,78.907 112.094,84.312 C104.468,87.998 100.076,89.798 95.25,91 C89.105,92.531 83.629,92.486 78.406,90.562 C78.26,90.509 78.27,90.487 78.156,90.438 C78.595,90.144 79.169,89.803 79.938,89.438 C81.413,88.737 83.345,87.979 86.406,86.844 C87.229,86.539 93.411,84.243 94.688,83.75 C102.462,80.749 107.563,78.191 110.719,75.281 C112.485,73.653 113.236,72.16 111.688,70.812 C110.781,70.024 109.484,69.997 107.375,70.344 C104.27,70.854 99.172,72.352 92.875,74.594 C80.874,78.865 67.132,84.87 57.594,89.969 C57.939,89.267 58.081,88.738 58.625,87.938 C61.436,83.805 65.474,80.603 69.75,79.719 C70.667,79.529 71.252,78.636 71.062,77.719 C71.048,77.649 70.96,77.629 70.938,77.562 C71.023,77.237 71.118,76.9 71,76.562 C70.692,75.678 69.728,75.223 68.844,75.531 C47.543,82.954 30.877,106.776 27.094,130.688 C26.785,132.638 26.837,133.136 28.031,142.062 C28.527,145.766 28.822,148.419 28.969,151.062 C29.144,154.225 29.032,156.935 28.688,159.344 C28.375,156.05 28.115,153.211 27.938,151.656 C27.033,143.734 25.936,138.698 24.188,136.469 C19.95,131.065 15.548,128.509 11.031,130 C9.89,129.591 8.711,129.312 7.406,129.312 C5.904,129.312 4.72,130.02 3.688,131 C3.299,129.316 2.891,127.531 2.531,125.5 C0.303,112.932 -0.188,99.837 2.062,87.625 C4.428,74.79 9.676,64.101 18.375,56.25 C39.137,37.514 58.382,27.647 75.938,25.062 C79.225,24.579 82.385,24.36 85.438,24.375 Z" id="Shape" fill-opacity="0.39966" fill="#262626"></path>
                    <path d="M106.531,74.031 C103.661,76.125 99.639,78.211 93.469,80.594 C92.211,81.079 86.048,83.349 85.219,83.656 C82.068,84.825 80.061,85.619 78.469,86.375 C76.26,87.424 74.976,88.306 74.438,89.469 C73.537,91.415 74.827,92.869 77.219,93.75 C83.133,95.929 89.298,95.998 96.062,94.312 C101.182,93.037 105.736,91.126 113.562,87.344 C124.416,82.098 127.43,80.845 132.062,79.969 C138.011,78.844 142.66,80.114 146.781,84.469 C147.938,85.691 149.357,94.311 150.562,107.094 C150.888,110.55 151.199,114.154 151.531,118.406 C151.642,119.824 152.085,125.944 152.188,127.219 C152.405,129.918 152.518,129.819 152.656,130.281 C152.652,130.337 152.66,130.441 152.656,130.469 C152.658,130.452 152.684,130.424 152.688,130.406 C152.754,130.603 152.788,131.647 152.906,131.812 C153.077,132.041 153.067,132.045 153.5,132.344 C154.182,132.589 154.19,132.595 154.969,132.406 C155.798,131.759 155.808,131.756 155.906,131.438 C155.981,131.245 156.007,131.105 156.031,130.906 C156.056,130.71 156.081,130.419 156.094,130.062 C156.117,129.412 156.125,128.429 156.125,127 C156.125,117.128 158.133,107.371 161.281,99.188 C158.604,117.303 159.062,134.287 162.156,149.219 C163.413,155.281 165.002,160.575 166.594,164.469 C167.225,166.013 167.829,167.22 168.281,167.906 C168.42,168.117 168.541,168.317 168.688,168.469 C169.095,168.892 169.513,169.149 170.25,169.062 C170.867,168.99 171.371,168.618 171.625,168.125 C171.759,167.865 171.797,167.626 171.812,167.375 C171.828,167.129 171.803,166.866 171.75,166.594 C166.986,142.02 166.422,129.151 169.312,113.812 C169.518,115.855 169.661,117.259 169.812,118.594 C170.835,127.579 172.261,136.932 174.312,147.344 C174.638,148.996 175.89,150.195 177.562,149.094 C178.165,148.697 178.608,148.032 179.25,146.875 C179.36,146.678 180.007,145.429 180.438,144.594 C181.274,144.715 182.088,144.276 182.312,143.438 C182.331,143.37 182.368,143.219 182.438,143 C182.558,142.623 182.728,142.207 182.906,141.75 C183.415,140.443 184.047,139.115 184.812,137.906 C186.901,134.609 189.499,132.719 192.656,132.719 C196.722,132.719 198.832,143.936 196.281,156.062 C193.369,169.912 186.13,178.555 176.562,177.344 C177.264,175.219 177.656,173.171 177.656,171.281 C177.656,170.344 176.906,169.594 175.969,169.594 C175.032,169.594 174.281,170.344 174.281,171.281 C174.281,185.134 149.61,209.344 129.469,217.344 C121.136,220.653 116.403,225.409 114.344,231.906 C112.801,236.773 112.753,240.799 113.5,251.094 C113.519,251.35 113.513,251.369 113.531,251.625 C113.599,252.559 114.409,253.255 115.344,253.188 C116.278,253.12 116.974,252.309 116.906,251.375 C116.888,251.118 116.894,251.1 116.875,250.844 C116.855,250.565 116.863,250.488 116.844,250.219 C128.71,250.664 131.267,258.23 125.438,270.25 C119.761,281.955 107.918,293.206 98.531,295.469 C85.343,290.066 74.912,279.041 71.906,268.312 C69.077,258.211 73.614,251.473 85.031,250.844 C85.018,251.018 85.046,251.167 85.031,251.344 C84.951,252.277 85.629,253.107 86.562,253.188 C87.496,253.268 88.326,252.558 88.406,251.625 C89.793,235.528 83.124,226.831 64.25,217.594 C49.698,210.472 34.49,194.597 28.094,179.562 C28.201,179.284 28.336,179.002 28.281,178.688 C28.174,178.069 27.708,177.7 27.156,177.5 C26.326,175.269 25.691,173.08 25.312,170.938 C25.149,170.015 24.297,169.399 23.375,169.562 C22.453,169.726 21.837,170.609 22,171.531 C22.34,173.453 22.953,175.426 23.625,177.406 C15.594,177.035 8.916,168.731 5.469,156.062 C2.153,143.877 3.477,132.719 7.406,132.719 C10.563,132.719 13.161,134.609 15.25,137.906 C16.016,139.115 16.648,140.443 17.156,141.75 C17.334,142.207 17.473,142.623 17.594,143 C17.664,143.219 17.701,143.37 17.719,143.438 C17.961,144.343 18.908,144.867 19.812,144.625 C20.718,144.383 21.242,143.467 21,142.562 C20.885,142.132 20.664,141.404 20.312,140.5 C19.729,139.002 18.987,137.503 18.094,136.094 C17.527,135.199 16.898,134.427 16.25,133.688 C17.924,134.586 19.702,136.23 21.531,138.562 C22.714,140.071 23.746,144.874 24.562,152.031 C24.875,154.77 25.837,165.751 26.062,166.844 C26.141,167.225 26.215,167.472 26.375,167.75 C26.647,168.223 27.033,168.597 27.75,168.656 C28.551,168.723 29.083,168.327 29.406,167.812 C31.966,163.743 32.779,158.175 32.375,150.875 C32.223,148.125 31.912,145.378 31.406,141.594 C30.313,133.423 30.242,132.652 30.469,131.219 C33.106,114.551 42.368,97.959 54.969,87.5 C54.175,88.866 53.54,90.189 53.312,91.219 C52.788,93.589 54.33,95.529 56.781,94.156 C66.068,88.954 81.258,82.317 94,77.781 C99.383,75.865 103.594,74.65 106.531,74.031 Z" id="Shape" fill="#FFFFFF"></path>
                    <path d="M130.406,253.406 C152.418,255.008 168.412,271.383 175.562,299.781 L28.062,299.781 C28.257,299.129 28.36,298.427 28.562,297.781 C36.829,271.439 50.544,255.364 70.688,253.531 C67.625,257.406 66.877,262.869 68.656,269.219 C71.993,281.129 83.379,293.135 97.75,298.844 C97.92,298.911 98.078,298.832 98.25,298.844 C98.412,298.858 98.551,298.973 98.719,298.938 C109.34,296.715 122.305,284.493 128.5,271.719 C132.11,264.276 132.753,257.877 130.406,253.406 Z" id="Shape" fill-opacity="0.702381" fill="#262626"></path>
                </g>
                <g id="Layer-3_2" transform="translate(44.000000, 85.000000)">
                    <g id="Clipped">
                        <mask id="mask-3" fill="white">
                            <use xlink:href="#path-2"></use>
                        </mask>
                        <g id="Mask"></g>
                        <g id="Group" mask="url(#mask-3)">
                            <path d="M132.408,92.048 C121.585,94.288 115.26,108.745 118.948,106.679 C138.761,95.581 181.254,80.018 172.555,88.037 C162.83,97.004 130.783,102.457 140.812,106.152 C167.15,115.854 193.099,78.36 211.023,97.299 C215.423,101.948 217.425,160.141 217.425,140.986 C217.425,117.92 228.203,100.338 227.261,104.982 C217.425,153.485 233.987,185.567 233.087,180.925 C227.261,150.876 227.538,138.411 232.305,119.252 C233.77,113.368 232.671,129.044 238.97,161.011 C240.041,166.445 246.619,139.973 255.892,145.024 C261.481,148.068 266.372,109.965 252.657,81.696 C243.925,63.699 214.533,39.507 182.351,48.87 C182.351,48.87 144.612,10.916 80.254,68.994 C50.605,95.75 65.825,148.707 65.825,148.707" id="Shape" stroke="#262626" stroke-width="5" stroke-linecap="round" stroke-linejoin="round"></path>
                            <path d="M73.914,145.722 C78.322,143.773 82.587,147.36 85.85,151.522 C89.681,156.407 90.125,182.273 90.972,180.925 C97.231,170.976 90.878,150.658 91.783,144.939 C95.041,124.345 109.79,99.018 132.408,91.136" id="Shape" stroke="#262626" stroke-width="5" stroke-linecap="round" stroke-linejoin="round"></path>
                            <path d="M82.206,357.067 C82.206,357.067 82.37,265.491 136.044,266.219" id="Shape" stroke="#262626" stroke-width="5" stroke-linecap="round" stroke-linejoin="round"></path>
                            <path d="M190.39,265.491 C223.455,265.835 245.952,297.529 244.382,357.067" id="Shape" stroke="#262626" stroke-width="5" stroke-linecap="round" stroke-linejoin="round"></path>
                            <path d="M86.655,192.762 C63.486,196.794 58.436,145.024 70.403,145.024 C79.174,145.024 82.37,156.991 82.37,156.991" id="Shape" stroke="#262626" stroke-width="5" stroke-linecap="round" stroke-linejoin="round"></path>
                            <path d="M150.206,266.219 C151.602,250.015 143.566,241.465 126.504,233.115 C110.718,225.389 90.084,204.623 86.655,185.234" id="Shape" stroke="#262626" stroke-width="5" stroke-linecap="round" stroke-linejoin="round"></path>
                            <path d="M238.97,193.026 C263.331,196.71 267.617,145.024 255.649,145.024 C246.879,145.024 243.683,156.991 243.683,156.991" id="Shape" stroke="#262626" stroke-width="5" stroke-linecap="round" stroke-linejoin="round"></path>
                            <path d="M178.221,265.491 C177.235,251.826 176.016,239.699 193.099,232.914 C211.578,225.575 238.97,201.308 238.97,185.287" id="Shape" stroke="#262626" stroke-width="5" stroke-linecap="round" stroke-linejoin="round"></path>
                            <path d="M161.37,311.279 C131.898,299.572 119.811,263.032 149.706,263.032" id="Shape" stroke="#262626" stroke-width="5" stroke-linecap="round" stroke-linejoin="round"></path>
                            <path d="M161.37,311.279 C182.351,306.889 211.023,261.854 178.225,262.439" id="Shape" stroke="#262626" stroke-width="5" stroke-linecap="round" stroke-linejoin="round"></path>
                            <path d="M76.787,185.287 C83.265,189.606 79.771,213.411 73.622,193.426" id="Shape" stroke="#262626" stroke-width="3" stroke-linecap="round" stroke-linejoin="round"></path>
                            <path d="M246.166,185.234 C235.202,207.246 252.966,204.286 250.428,193.627" id="Shape" stroke="#262626" stroke-width="3" stroke-linecap="round" stroke-linejoin="round"></path>
                            <path d="M252.432,176.389 C256.62,165.526 256.62,151.567 253.585,151.324 C251.836,151.184 249.579,155.694 249.579,155.694" id="Shape" stroke="#262626" stroke-width="3" stroke-linecap="round" stroke-linejoin="round"></path>
                            <path d="M72.464,175.945 C68.277,165.081 68.277,151.122 71.311,150.879 C73.06,150.739 75.317,155.249 75.317,155.249" id="Shape" stroke="#262626" stroke-width="3" stroke-linecap="round" stroke-linejoin="round"></path>
                            <path d="M159.867,165.368 C154.666,176.6 137.903,156.457 132.408,176.389 C129.23,187.916 147.523,201.768 159.867,187.592" id="Shape" stroke="#262626" stroke-width="5" stroke-linecap="round" stroke-linejoin="round"></path>
                            <path d="M130.457,174.84 C124.625,171.472 120.486,162.987 120.486,153.053 C120.486,140.164 127.452,129.716 136.044,129.716 C144.636,129.716 151.602,140.164 151.602,153.053 C151.602,157.601 150.734,161.846 149.234,165.435" id="Shape" stroke="#262626" stroke-width="5" stroke-linecap="round" stroke-linejoin="round"></path>
                            <path d="M134.204,208.145 C148.116,223.527 177.235,208.145 177.235,208.145" id="Shape" stroke="#262626" stroke-width="5" stroke-linecap="round" stroke-linejoin="round"></path>
                            <path d="M168.162,153.496 C168.162,140.608 175.128,130.159 183.72,130.159 C192.312,130.159 199.278,140.608 199.278,153.496 C199.278,166.385 192.312,176.833 183.72,176.833 C175.128,176.833 168.162,166.385 168.162,153.496 Z" id="Shape" stroke="#262626" stroke-width="5" stroke-linecap="round" stroke-linejoin="round"></path>
                            <path d="M198.564,115.854 C175.243,95.59 167.04,118.051 168.297,117.052 C183.277,105.139 198.564,115.854 198.564,115.854" id="Shape" stroke="#262626" stroke-width="5" stroke-linecap="round" stroke-linejoin="round"></path>
                            <path d="M121.2,117.084 C144.521,96.82 152.724,116.35 151.467,115.351 C136.487,103.438 121.2,117.084 121.2,117.084" id="Shape" stroke="#262626" stroke-width="5" stroke-linecap="round" stroke-linejoin="round"></path>
                            <polygon id="Shape" points="0.4374 0.301 315.604 0.301 315.604 315.468 0.4374 315.468"></polygon>
                            <path d="M207.198,45.886 C209.204,32.934 222.128,29.986 222.128,29.986 C217.425,21.636 203.371,37.589 203.168,36.688 C201.466,29.118 213.538,12.35 212.841,12.35 C193.099,12.35 196.451,34 193.099,32.784 C183.01,29.125 186.5,12.785 181.977,14.287 C174.473,16.779 176.928,32.014 176.928,32.014 C176.928,32.014 163.752,13.217 150.99,14.117 C150.709,14.137 166.835,24.696 165.353,29.141 C165.314,29.259 149.706,19.938 142.262,25.13 C142.262,25.13 150.99,26.089 154.375,35.174" id="Shape" stroke="#262626" stroke-width="5" stroke-linecap="round" stroke-linejoin="round"></path>
                            <path d="M136.044,160.349 C136.044,157.577 137.436,155.33 139.153,155.33 C140.87,155.33 142.262,157.577 142.262,160.349 C142.262,163.121 140.87,165.368 139.153,165.368 C137.436,165.368 136.044,163.121 136.044,160.349 Z" id="Shape" stroke="#262626" stroke-width="5" fill="#262626" fill-rule="nonzero" stroke-linecap="round" stroke-linejoin="round"></path>
                            <path d="M183.72,160.349 C183.72,157.577 185.112,155.33 186.829,155.33 C188.546,155.33 189.938,157.577 189.938,160.349 C189.938,163.121 188.546,165.368 186.829,165.368 C185.112,165.368 183.72,163.121 183.72,160.349 Z" id="Shape" stroke="#262626" stroke-width="5" fill="#262626" fill-rule="nonzero" stroke-linecap="round" stroke-linejoin="round"></path>
                            <path d="M183.169,192.046 C191.243,192.046 190.869,201.129 188.399,207.551 C188.277,207.87 188.033,209.419 187.652,209.419" id="Shape" stroke="#262626" stroke-width="5" stroke-linecap="round" stroke-linejoin="round"></path>
                            <path d="M77.781,196.391 C77.31,195.795 86.655,230.789 76.938,230.789 C69.162,230.789 79.406,198.447 77.781,196.391 Z" id="Shape" stroke="#262626" stroke-width="3" stroke-linecap="round" stroke-linejoin="round"></path>
                            <path d="M245.987,200.74 C245.515,200.143 254.86,235.138 245.143,235.138 C237.367,235.138 247.611,202.795 245.987,200.74 Z" id="Shape" stroke="#262626" stroke-width="3" stroke-linecap="round" stroke-linejoin="round"></path>
                        </g>
                    </g>
                </g>
            </g>
            <text id="NICOLE" font-family="HaveaGreatDay, Have a Great Day" font-size="48" font-weight="normal" fill="#000000">
                <tspan x="131.180563" y="465">NICOLE</tspan>
            </text>
        </g>
    </g>
</svg>