<?xml version="1.0" encoding="UTF-8"?>
<svg width="410px" height="510px" viewBox="0 0 410 510" version="1.1" xmlns="http://www.w3.org/2000/svg" xmlns:xlink="http://www.w3.org/1999/xlink">
    <!-- Generator: Sketch 49.3 (51167) - http://www.bohemiancoding.com/sketch -->
    <title>Noemi</title>
    <desc>Created with Sketch.</desc>
    <defs>
        <radialGradient cx="65.1832678%" cy="36.5028321%" fx="65.1832678%" fy="36.5028321%" r="16.7968141%" gradientTransform="translate(0.651833,0.365028),scale(0.999996,1.000000),translate(-0.651833,-0.365028)" id="radialGradient-1">
            <stop stop-color="#262626" stop-opacity="0.653061" offset="0%"></stop>
            <stop stop-color="#262626" offset="100%"></stop>
        </radialGradient>
        <polygon id="path-2" points="0.4374 0.301 315.604 0.301 315.604 315.468 0.4374 315.468"></polygon>
    </defs>
    <g id="Noemi" stroke="none" stroke-width="1" fill="none" fill-rule="evenodd">
        <g id="emmental_noemi" transform="translate(6.000000, 1.000000)">
            <g id="Layer-1" fill-rule="nonzero">
                <path d="M387.758,53.812 L384.631,489.251 C381.68,489.431 376.416,489.765 373.167,489.946 C361.346,490.6 347.777,491.21 332.729,491.821 C283.173,493.835 232.045,494.831 180.843,494.601 C180.03,494.604 179.224,494.666 178.411,494.67 C124.877,494.387 71.301,492.619 19.4381,489.181 C19.3862,482.066 16.2535,55.2358 16.242,54.09 C16.2518,53.9558 11.7424,54.1048 11.74,54.1848 C11.7388,54.2718 9.074,142.775 8.1821,195.484 C7.3623,243.929 6.2379,295.344 4.847,348.204 C3.8136,387.475 0.8621,483.415 0.5392,493.003 C0.4261,496.358 0.1269,504.685 0.1223,504.814 C0.0519,506.808 1.7472,508.449 3.7353,508.289 C9.5794,507.817 15.443,507.39 21.3835,506.968 C125.298,499.584 236.278,499.881 340.858,504.814 C357.077,505.58 371.708,506.357 384.492,507.177 C388.965,507.464 400.093,508.275 400.264,508.289 C402.253,508.444 403.952,506.807 403.877,504.814 C403.873,504.692 402.806,474.059 402.418,462.361 C401.311,428.938 400.186,392.422 399.153,353.971 C397.361,287.29 395.99,221.953 395.192,160.744 C394.696,122.649 393.173,87.386 393.173,54.3036 C393.173,52.0881 387.774,51.5967 387.758,53.812 Z" id="Shape" fill-opacity="0.5" fill="#262626"></path>
                <path d="M12.9208,53.7843 L391.121,53.7843 L387.969,492.361 C387.969,492.361 202.021,504.967 16.0724,492.361 L12.9208,53.7843 Z" id="Shape" stroke="#262626" stroke-width="5" fill="#FFFFFF" stroke-linecap="round" stroke-linejoin="round"></path>
                <polygon id="Shape" stroke="#262626" stroke-width="3" fill-opacity="0.0969388" fill="#262626" stroke-linecap="round" stroke-linejoin="round" points="44.4374 85.301 359.604 85.301 359.604 400.468 44.4374 400.468"></polygon>
                <path d="M166.321,24.7689 C159.914,24.769 154.718,29.9653 154.718,36.3723 C154.718,42.7794 159.914,47.9756 166.321,47.9756 C168.249,47.9756 170.002,47.4178 171.602,46.586 L199.742,73.6142 C200.406,74.2519 201.251,74.5349 202.104,74.5174 C202.957,74.4999 203.759,74.1397 204.397,73.4753 C205.035,72.8108 205.387,71.9662 205.37,71.1129 C205.352,70.2595 204.992,69.3884 204.327,68.7505 L176.327,41.9308 C177.262,40.2582 177.925,38.4247 177.925,36.3723 C177.925,29.9653 172.728,24.7689 166.321,24.7689 Z" id="Shape" fill-opacity="0.5" fill="#262626"></path>
                <path d="M186.262,23.9025 L202.021,71.1775" id="Shape" stroke="#262626" stroke-width="5" fill="#262626" stroke-linecap="round" stroke-linejoin="round"></path>
                <path d="M170.504,12.3016 C170.504,5.8945 175.698,0.7007 182.105,0.7007 C188.512,0.7007 193.706,5.8945 193.706,12.3016 C193.706,18.7086 188.512,23.9026 182.105,23.9026 C175.698,23.9026 170.504,18.7086 170.504,12.3016 Z" id="Shape" stroke="#262626" stroke-width="3" fill="url(#radialGradient-1)" stroke-linecap="round" stroke-linejoin="round"></path>
            </g>
            <g id="Layer-3" transform="translate(109.000000, 143.000000)" fill-rule="nonzero">
                <path d="M124.031,1 C131.618,1.471 139.195,3.216 146.531,6.562 C150.125,8.202 153.589,10.228 156.906,12.625 C175.657,26.178 186.282,48.914 189.656,75.781 C190.921,85.854 191.023,95.85 190.156,103.938 C189.79,107.35 189.272,110.193 188.688,112.094 C188.52,112.638 188.363,112.907 188.219,113.219 C186.657,113.094 185.264,113.223 184.031,113.656 C185.264,85.972 176.444,62.998 163.312,54.312 C161.873,53.36 160.175,53.86 159.312,55.156 C158.951,55.7 158.766,56.311 158.594,57.125 C158.376,58.159 158.226,59.499 158.031,61.781 C157.992,62.238 157.592,66.62 157.5,67.5 C157.129,71.043 156.678,73.597 156.031,75.281 C155.746,76.024 155.461,76.465 155.25,76.656 C143.192,72.738 50.725,71.666 30.125,76.281 C30.018,76.106 29.918,75.919 29.781,75.469 C29.358,74.071 29.092,71.883 29.031,69.219 C28.982,67.036 29.067,64.699 29.219,62.375 C29.26,61.738 29.395,60.108 29.406,60 C29.698,57.107 25.654,56.136 24.594,58.844 C24.011,60.332 20.798,68.207 20.562,68.781 C15.841,80.302 13.518,86.735 11.75,94.031 C9.933,101.529 9.285,108.461 9.906,115.125 C9.399,114.807 8.856,114.581 8.312,114.344 C8.31,114.309 8.348,114.285 8.344,114.25 C8.339,114.205 8.25,113.409 8.219,113.062 C8.129,112.067 8.053,110.903 7.969,109.594 C6.904,93.044 7.747,74.338 11.938,56.719 C17.708,32.456 28.964,14.754 46.844,6.125 C48.613,5.271 50.415,4.531 52.281,3.906 C63.171,0.262 74.921,0.551 86.031,3.25 C87.847,3.691 89.479,4.155 90.906,4.625 C91.401,4.788 91.823,4.96 92.188,5.094 C92.398,5.171 92.535,5.195 92.594,5.219 C93.193,5.459 93.87,5.461 94.469,5.219 C94.531,5.193 94.682,5.145 94.906,5.062 C95.294,4.919 95.753,4.768 96.281,4.594 C97.808,4.09 99.567,3.567 101.531,3.094 C108.847,1.33 116.444,0.529 124.031,1 Z" id="Shape" fill-opacity="0.802721" fill="#262626"></path>
                <path d="M163.188,60.688 C167.559,64.654 171.649,70.963 174.562,79.031 C178.604,90.221 180.187,103.79 178.781,118.812 C178.364,119.35 177.912,119.836 177.531,120.438 C177.15,121.04 176.919,121.69 176.594,122.312 C176.206,121.736 150.497,83.594 149.656,82.344 C149.342,81.877 148.879,81.515 148.344,81.344 C145.666,80.486 138.475,80.284 115.625,80.062 C112.256,80.03 99.372,79.871 95.125,79.781 C88.156,79.635 81.227,79.579 74.688,79.594 C55.069,79.637 38.955,80.417 35.688,82.062 C35.356,82.229 35.04,82.489 34.812,82.781 L14.688,108.656 C14.81,104.377 15.448,99.917 16.594,95.188 C18.142,88.796 20.395,82.605 24.281,73 C24.436,74.475 24.638,75.815 24.969,76.906 C25.901,79.986 27.823,81.915 30.75,81.219 C40.364,78.93 66.028,77.925 96.812,78.281 C124.307,78.6 149.339,79.973 153.719,81.406 C156.977,82.473 159.354,80.538 160.688,77.062 C161.533,74.858 162.086,71.951 162.5,68 C162.596,67.082 162.962,62.635 163,62.188 C163.066,61.416 163.13,61.238 163.188,60.688 Z" id="Shape" fill="#FFFFFF"></path>
                <path d="M122.188,87.219 C135.779,87.219 144,95.254 144,110.594 C144,112.69 143.81,114.851 143.562,117 C143.065,120.359 142.447,123.559 141.719,126.531 C137.943,140.639 129.983,152.906 122.188,152.906 C122.177,152.906 122.167,152.906 122.156,152.906 C122.125,152.906 122.094,152.876 122.062,152.875 C121.24,152.869 120.42,152.637 119.594,152.438 C109.359,149.218 98.781,127.86 98.781,110.594 C98.781,95.588 108.14,87.219 122.188,87.219 Z" id="Shape" fill="#FFFFFF"></path>
                <path d="M67.938,88.094 C82.349,88.094 91.531,95.826 91.531,110.594 C91.531,126.725 81.446,147.023 71.5,151.844 C70.536,152.285 69.594,152.56 68.688,152.719 C68.216,152.801 67.747,152.906 67.281,152.906 C56.554,152.906 45.25,129.814 45.25,110.594 C45.25,95.645 53.805,88.094 67.938,88.094 Z" id="Shape" fill="#FFFFFF"></path>
                <path d="M35.656,97.688 C35.749,113.247 38.986,127.64 44.875,138.875 C49.571,147.835 55.563,154.169 61.625,156.688 C62.158,156.92 62.706,157.052 63.25,157.219 C63.606,157.325 63.957,157.483 64.312,157.562 C64.354,157.572 64.396,157.585 64.438,157.594 C65.388,157.796 66.342,157.908 67.281,157.906 C67.827,157.905 68.387,157.884 68.938,157.812 C69.115,157.789 69.291,157.686 69.469,157.656 C70.602,157.458 71.727,157.138 72.844,156.656 C77.493,154.774 82.141,150.771 87.125,144.844 C88.313,143.43 89.506,141.951 90.781,140.281 C91.274,139.636 93.49,136.649 93.719,136.344 C94.36,135.486 94.653,135.132 95.031,134.656 C95.36,135.117 95.617,135.438 96.156,136.25 C96.364,136.563 98.34,139.509 98.781,140.156 C99.926,141.835 101.001,143.328 102.094,144.75 C107.337,151.568 112.591,155.847 118.281,157.25 C119.565,157.626 120.869,157.906 122.188,157.906 C123.147,157.906 124.069,157.793 125,157.594 C134.864,155.747 142.506,144.313 146.625,127.281 C147.328,124.572 147.891,121.858 148.281,119.188 C149.297,112.871 149.783,105.92 149.875,98.594 L172.812,125.656 C173.379,126.324 174.049,126.522 174.719,126.5 C174.667,126.668 174.565,126.967 174.531,127.094 C174.175,128.428 174.979,129.8 176.312,130.156 C177.646,130.513 179.019,129.74 179.375,128.406 C179.39,128.35 179.403,128.206 179.469,128 C179.584,127.639 179.735,127.222 179.906,126.781 C180.397,125.52 181.015,124.254 181.75,123.094 C183.706,120.006 186.071,118.281 188.906,118.281 C191.942,118.281 192.851,129.062 189.125,140.562 C186.425,148.896 182.315,155.087 177.344,158.25 C177.332,158.106 177.288,157.919 177.281,157.781 C177.19,155.887 177.534,155.188 178.219,155.219 C178.908,155.249 179.501,154.69 179.531,154 C179.562,153.31 179.033,152.749 178.344,152.719 C175.727,152.603 174.63,154.747 174.781,157.906 C174.803,158.362 174.961,158.911 175.031,159.406 C173.642,159.996 172.208,160.421 170.719,160.531 C171.175,159.099 171.702,158.506 172.281,158.719 C172.929,158.957 173.637,158.648 173.875,158 C174.113,157.352 173.773,156.613 173.125,156.375 C172.51,156.149 171.956,156.105 171.438,156.188 C169.882,156.435 168.765,157.957 168.156,160.25 C168.144,160.296 168.137,160.36 168.125,160.406 C167.645,160.35 167.175,160.389 166.688,160.281 C166.553,160.252 166.445,160.351 166.312,160.344 C167.586,157.96 168.834,155.446 170.031,152.781 C170.597,151.522 170.009,150.035 168.75,149.469 C168.12,149.186 167.442,149.179 166.844,149.406 C166.246,149.634 165.752,150.089 165.469,150.719 C160.999,160.67 156.032,168.427 150.469,174.625 C146.86,178.646 143.074,181.94 138.688,185.062 C136.973,186.283 135.244,187.443 133.031,188.844 C132.703,189.051 128.715,191.529 127.594,192.25 C120.262,196.966 116.249,200.716 113.25,206.562 C109.68,213.523 108.283,222.916 109,236.375 C109.073,237.754 110.246,238.823 111.625,238.75 C113.004,238.677 114.042,237.504 113.969,236.125 C113.889,234.634 113.931,233.38 113.906,232 C114.11,232.061 114.286,232.118 114.5,232.188 C116.001,232.677 117.493,233.292 118.875,233.969 C122.421,235.704 124.357,237.614 124.312,239.312 C124.273,240.817 121.219,242.947 115.125,245.562 C115.329,245.475 109.243,248.026 107.844,248.688 C106.105,249.509 104.922,250.221 104.125,251.031 C103.378,251.25 102.714,251.709 102.438,252.5 C102.212,253.144 102.031,254.23 101.812,254.969 L93.938,254.969 C93.595,253.981 93.306,252.927 92.938,251.969 C92.638,251.19 91.974,250.792 91.219,250.594 C90.524,249.392 89.119,248.527 86.812,247.438 C85.413,246.776 79.327,244.225 79.531,244.312 C73.437,241.697 70.383,239.567 70.344,238.062 C70.299,236.364 72.235,234.423 75.781,232.688 C77.163,232.011 78.687,231.427 80.188,230.938 C80.451,230.852 80.667,230.792 80.906,230.719 C80.946,232.741 81.045,234.656 80.969,236.906 C80.922,238.286 81.995,239.422 83.375,239.469 C84.755,239.515 85.922,238.443 85.969,237.062 C86.297,227.38 85.433,219.779 83.656,213.469 C83.648,213.4 83.639,213.349 83.625,213.281 C82.493,209.324 81.061,205.771 79.094,202.875 C74.995,196.841 70.219,193.586 60.469,189.031 C59.918,188.774 56.055,186.965 55.281,186.594 C53.325,185.654 51.668,184.816 50.094,183.938 C39.467,178.003 32.21,170.104 26.656,156.219 C26.143,154.937 24.688,154.3 23.406,154.812 C22.124,155.325 21.487,156.781 22,158.062 C22.421,159.114 22.933,159.914 23.375,160.906 C13.035,161.847 5.206,153.616 1.688,140.25 C-1.3,128.9 0.386,118.281 3.656,118.281 C6.491,118.281 8.857,120.006 10.812,123.094 C11.548,124.254 12.165,125.52 12.656,126.781 C12.828,127.222 12.978,127.639 13.094,128 C13.16,128.206 13.204,128.35 13.219,128.406 C13.575,129.74 14.947,130.513 16.281,130.156 C17.615,129.8 18.419,128.428 18.062,127.094 C17.94,126.636 17.676,125.902 17.312,124.969 C16.795,123.639 16.125,122.335 15.375,121.062 C15.539,120.635 15.726,120.203 15.625,119.719 C15.406,118.673 15.332,117.594 15.188,116.531 L35.656,97.688 Z" id="Shape" fill="#FFFFFF"></path>
                <path d="M125.125,200.156 C125.702,203.19 126.341,205.972 127.094,208.281 L126.938,208.219 L126.625,208.094 L126.188,208.031 L125.688,208.031 L124.812,208.312 C123.418,210.044 123.423,210.042 123.469,210.531 C123.469,211.2 123.313,212.26 123.188,213.25 C123.141,213.181 123.111,213.197 123.062,213.125 C122.947,212.951 122.214,211.847 122.062,211.625 C120.759,209.717 119.631,208.533 118.188,208.031 C119.863,205.037 121.997,202.623 125.125,200.156 Z" id="Shape" fill-opacity="0.802721" fill="#262626"></path>
                <path d="M73.719,204.125 C74.134,204.648 74.578,205.112 74.969,205.688 C76.383,207.77 77.449,210.324 78.375,213.125 C77.891,213.683 77.366,214.357 77,214.625 C76.94,214.493 76.87,214.431 76.812,214.25 C76.691,213.869 76.597,213.436 76.531,213 C76.492,212.739 76.474,212.553 76.469,212.469 C76.325,210.351 73.782,209.344 72.25,210.812 C72.145,210.913 71.916,211.136 71.594,211.406 C71.047,211.865 70.446,212.324 69.812,212.75 C68.916,213.352 68.108,213.633 67.312,213.938 C67.906,212.956 68.422,212.148 70.188,209.625 C70.262,209.518 70.238,209.513 70.312,209.406 C72.122,206.818 72.971,205.473 73.719,204.125 Z" id="Shape" fill-opacity="0.802721" fill="#262626"></path>
                <path d="M66.406,234.344 C65.769,235.533 65.307,236.776 65.344,238.188 C65.461,242.651 69.399,245.402 77.562,248.906 C77.464,248.864 83.414,251.336 84.688,251.938 C85.6,252.369 86.23,252.73 86.656,253.031 C86.636,253.198 85.774,254.616 85.625,254.969 L69.375,254.969 C65.191,248.661 62.728,242.847 62.875,238.219 C62.919,236.844 64.24,235.532 66.406,234.344 Z" id="Shape" fill-opacity="0.329932" fill="#262626"></path>
                <path d="M128.562,236.344 C128.828,236.351 129.08,236.394 129.344,236.406 C130.745,237.379 131.747,238.389 131.781,239.469 C131.919,243.786 129.828,249.147 126.156,254.969 L108.406,254.969 C108.384,254.884 108.037,254.31 108.031,254.25 C108.459,253.952 109.104,253.611 110,253.188 C111.274,252.586 117.192,250.114 117.094,250.156 C125.257,246.652 129.195,243.901 129.312,239.438 C129.342,238.312 129.003,237.313 128.562,236.344 Z" id="Shape" fill-opacity="0.329932" fill="#262626"></path>
                <path d="M58.25,236.656 C58.148,237.134 57.891,237.548 57.875,238.062 C57.712,243.19 59.793,248.892 63.438,254.969 L35.344,254.969 C41.481,244.102 49.124,237.802 58.25,236.656 Z" id="Shape" fill-opacity="0.329932" fill="#262626"></path>
                <path d="M136.25,237.344 C146.124,239.564 154.352,245.491 160.625,254.969 L131.906,254.969 C135.078,249.372 136.933,244.077 136.781,239.312 C136.758,238.591 136.44,237.993 136.25,237.344 Z" id="Shape" fill-opacity="0.329932" fill="#262626"></path>
            </g>
            <g id="Layer-3_2" transform="translate(44.000000, 85.000000)">
                <g id="Group">
                    <g id="Clipped">
                        <mask id="mask-3" fill="white">
                            <use xlink:href="#path-2"></use>
                        </mask>
                        <g id="Mask"></g>
                        <g id="Group" mask="url(#mask-3)" stroke-linecap="round" stroke-linejoin="round">
                            <g transform="translate(62.000000, 56.000000)" id="Shape">
                                <path d="M98.067,84.292 C77.486,83.86 44.171,84.099 39.797,86.302 L15.312,117.781 L41.089,94.052 C39.351,131.296 57.064,157.436 70.283,157.409 C83.004,157.383 96.127,133.047 98.1,133.047 C100.345,133.047 110.779,157.436 125.172,157.409 C140.189,157.381 151.507,131.153 150.453,93.908 L177.719,126.031 L150.597,85.728 C146.64,84.461 118.648,84.725 98.067,84.292 Z M125.172,86.714 C139.063,86.714 149.488,94.824 149.488,112.604 C149.488,130.383 139.063,157.409 125.172,157.409 C111.282,157.409 99.283,130.383 99.283,112.604 C99.283,94.824 111.282,86.714 125.172,86.714 Z M70.926,87.608 C84.817,87.608 97.03,94.824 97.03,112.604 C97.03,130.383 84.173,157.409 70.283,157.409 C56.392,157.409 45.752,130.383 45.752,112.604 C45.752,94.824 57.036,87.608 70.926,87.608 Z" stroke="#262626" stroke-width="5" fill="#262626" fill-rule="nonzero"></path>
                                <path d="M16.163,122.216 C11.816,101.447 22.413,80.907 29.916,61.743 C29.916,61.743 27.865,82.041 33.169,80.779 C54.929,75.598 147.786,77.855 157.512,81.038 C164.635,83.369 162.491,56.787 164.925,58.397 C175.859,65.628 187.53,88.183 184.237,121.63 C184.237,121.63 185.631,116.576 192.154,117.782 C197.141,118.703 205.381,44.395 161.37,12.585 C131.275,-9.166 96.522,4.911 96.522,4.911 C96.522,4.911 71.491,-5.105 48.75,5.87 C-0.941,29.852 8.854,116.522 8.854,116.522" stroke="#262626" stroke-width="5" fill="none"></path>
                                <path d="M18.468,329.825 C18.468,329.825 22.667,235.998 64.019,235.789" stroke="#262626" stroke-width="5" fill="none"></path>
                                <path d="M130.774,235.789 C163.839,236.133 182.214,270.286 180.643,329.825" stroke="#262626" stroke-width="5" fill="none"></path>
                                <path d="M27.326,165.39 C0.009,168.849 -5.302,117.782 6.665,117.782 C15.435,117.782 18.632,129.748 18.632,129.748" stroke="#262626" stroke-width="5" fill="none"></path>
                                <path d="M86.467,238.977 C88.542,177.706 47.042,208.434 27.321,159.133" stroke="#262626" stroke-width="5" fill="none"></path>
                                <path d="M169.148,164.722 C194.42,170.299 203.878,117.782 191.911,117.782 C183.141,117.782 179.944,129.748 179.944,129.748" stroke="#262626" stroke-width="5" fill="none"></path>
                                <path d="M114.483,238.249 C111.545,183.096 145.643,209.629 170.741,153.755" stroke="#262626" stroke-width="5" fill="none"></path>
                                <path d="M185.592,147.9 C190.408,140.019 192.881,124.325 189.847,124.082 C188.098,123.942 185.841,128.452 185.841,128.452" stroke="#262626" stroke-width="3" fill="none"></path>
                                <path d="M8.726,148.702 C4.538,137.839 4.538,123.88 7.573,123.637 C9.321,123.497 11.579,128.007 11.579,128.007" stroke="#262626" stroke-width="3" fill="none"></path>
                                <path d="M74.004,172.314 C92.458,180.646 113.672,185.427 128.91,171.981" stroke="#262626" stroke-width="5" fill="none"></path>
                                <path d="M97.036,147.161 C100.163,148.92 106.045,161.526 97.339,163.021" stroke="#262626" stroke-width="5" fill="none"></path>
                                <path d="M72.306,123.284 C72.306,119.22 74.099,115.925 76.311,115.925 C78.523,115.925 80.316,119.22 80.316,123.284 C80.316,127.348 78.523,130.642 76.311,130.642 C74.099,130.642 72.306,127.348 72.306,123.284 Z" stroke="#262626" stroke-width="5" fill="#262626" fill-rule="nonzero"></path>
                                <path d="M110.378,121.729 C110.378,117.665 112.171,114.371 114.383,114.371 C116.594,114.371 118.387,117.665 118.387,121.729 C118.387,125.793 116.594,129.087 114.383,129.087 C112.171,129.087 110.378,125.793 110.378,121.729 Z" stroke="#262626" stroke-width="5" fill="#262626" fill-rule="nonzero"></path>
                                <path d="M132.703,37.614 C137.728,54.003 137.87,72.987 137.87,72.987" stroke-opacity="0.246599" stroke="#FFFFFF" stroke-width="3" fill="none"></path>
                                <path d="M120.352,41.962 C118.036,51.227 118.661,70.495 118.661,70.495" stroke-opacity="0.246599" stroke="#FFFFFF" stroke-width="3" fill="none"></path>
                                <path d="M99.832,36.682 C99.832,36.682 97.189,58.588 98.208,68.445" stroke-opacity="0.246599" stroke="#FFFFFF" stroke-width="3" fill="none"></path>
                                <path d="M86.239,35.322 C79.22,45.462 81.21,66.858 81.21,66.858" stroke-opacity="0.246599" stroke="#FFFFFF" stroke-width="3" fill="none"></path>
                                <path d="M58.518,29.469 C45.877,39.935 43.989,68.437 43.989,68.437" stroke-opacity="0.246599" stroke="#FFFFFF" stroke-width="3" fill="none"></path>
                                <path d="M67.345,32.74 C56.752,46.199 57.558,67.945 57.558,67.945" stroke-opacity="0.246599" stroke="#FFFFFF" stroke-width="3" fill="none"></path>
                                <path d="M145.776,44.701 C150.805,53.129 150.941,71.751 150.941,71.751" stroke-opacity="0.246599" stroke="#FFFFFF" stroke-width="3" fill="none"></path>
                                <path d="M175.267,50.536 C191.25,74.11 189.118,108.916 189.118,108.916" stroke-opacity="0.246599" stroke="#FFFFFF" stroke-width="3" fill="none"></path>
                                <path d="M34.586,31.788 C21.673,47.284 13.925,75.965 12.158,97.578" stroke-opacity="0.246599" stroke="#FFFFFF" stroke-width="3" fill="none"></path>
                                <path d="M18.22,158.268 C24.929,155.807 22.035,186.144 16.541,167.577" stroke="#262626" stroke-width="2.5" fill="none"></path>
                                <path d="M12.635,154.664 C19.774,154.349 7.835,182.388 8.218,163.029" stroke="#262626" stroke-width="2.5" fill="none"></path>
                                <path d="M175.703,159.559 C168.995,157.098 171.888,187.435 177.382,168.868" stroke="#262626" stroke-width="2.5" fill="none"></path>
                                <path d="M181.289,155.955 C174.15,155.639 186.089,183.678 185.706,164.319" stroke="#262626" stroke-width="2.5" fill="none"></path>
                                <path d="M129.888,197.824 C133.139,220.059 140.074,219.608 139.38,219.539 C131.763,218.788 128.978,212.444 128.978,212.518 C128.978,214.516 128.327,220.97 126.767,219.799 C123.847,217.609 122.405,212.365 119.616,212.258" stroke="#262626" stroke-width="5" fill="none"></path>
                                <path d="M75.194,201.217 C78.621,202.409 64.021,217.605 66.926,218.722 C71.054,220.31 76.982,214.625 76.982,214.625 C76.982,214.625 77.652,224.532 84.207,215.743" stroke="#262626" stroke-width="5" fill="none"></path>
                                <path d="M92.235,254.325 C92.728,257.364 84.77,267.708 82.861,273.436 C82.807,273.598 62.93,254.416 63.385,240.127 C63.661,231.478 84.536,229.944 84.536,229.944 C84.536,229.944 70.669,233.334 70.848,240.127 C71.03,247.044 91.689,250.957 92.235,254.325 Z" stroke="#262626" stroke-width="5" fill="none"></path>
                                <path d="M108.427,255.577 C107.934,258.617 115.891,268.961 117.801,274.689 C117.855,274.85 137.732,255.668 137.277,241.38 C137.001,232.73 116.126,231.197 116.126,231.197 C116.126,231.197 129.993,234.586 129.814,241.38 C129.632,248.296 108.973,252.21 108.427,255.577 Z" stroke="#262626" stroke-width="5" fill="none"></path>
                                <path d="M93.6,254.871 C102.883,278.988 101.609,307.018 101.609,307.018" stroke="#262626" stroke-width="5" fill="none"></path>
                                <path d="M107.797,255.326 C102.999,269.034 100.608,304.743 100.608,304.743" stroke="#262626" stroke-width="5" fill="none"></path>
                                <path d="M180.425,139.757 C176.325,139.757 175.73,142.687 178.061,145.536" stroke="#262626" stroke-width="3" fill="none"></path>
                            </g>
                        </g>
                    </g>
                    <g id="Mask-link" stroke-linecap="round" stroke-linejoin="round" stroke="#262626" stroke-width="5">
                        <polygon id="Mask" points="0.4374 0.301 315.604 0.301 315.604 315.468 0.4374 315.468"></polygon>
                    </g>
                </g>
            </g>
        </g>
        <text font-family="HaveaGreatDay, Have a Great Day" font-size="48" font-weight="normal" fill="#000000">
            <tspan x="136.196562" y="465">NOEMI</tspan>
        </text>
    </g>
</svg>