<?xml version="1.0" encoding="UTF-8"?>
<svg width="410px" height="510px" viewBox="0 0 410 510" version="1.1" xmlns="http://www.w3.org/2000/svg" xmlns:xlink="http://www.w3.org/1999/xlink">
    <!-- Generator: Sketch 49.3 (51167) - http://www.bohemiancoding.com/sketch -->
    <title>Remo</title>
    <desc>Created with Sketch.</desc>
    <defs>
        <radialGradient cx="65.1832678%" cy="36.5028321%" fx="65.1832678%" fy="36.5028321%" r="16.7968141%" gradientTransform="translate(0.651833,0.365028),scale(0.999996,1.000000),translate(-0.651833,-0.365028)" id="radialGradient-1">
            <stop stop-color="#262626" stop-opacity="0.653061" offset="0%"></stop>
            <stop stop-color="#262626" offset="100%"></stop>
        </radialGradient>
        <polygon id="path-2" points="0.4374 0.301 315.604 0.301 315.604 315.468 0.4374 315.468"></polygon>
    </defs>
    <g id="Remo" stroke="none" stroke-width="1" fill="none" fill-rule="evenodd">
        <g id="remo" transform="translate(6.000000, 1.000000)">
            <g id="Layer-1" fill-rule="nonzero">
                <path d="M387.758,53.812 L384.631,489.251 C381.68,489.431 376.416,489.765 373.167,489.946 C361.346,490.6 347.777,491.21 332.729,491.821 C283.173,493.835 232.045,494.831 180.843,494.601 C180.03,494.604 179.224,494.666 178.411,494.67 C124.877,494.387 71.301,492.619 19.4381,489.181 C19.3862,482.066 16.2535,55.2358 16.242,54.09 C16.2518,53.9558 11.7424,54.1048 11.74,54.1848 C11.7388,54.2718 9.074,142.775 8.1821,195.484 C7.3623,243.929 6.2379,295.344 4.847,348.204 C3.8136,387.475 0.8621,483.415 0.5392,493.003 C0.4261,496.358 0.1269,504.685 0.1223,504.814 C0.0519,506.808 1.7472,508.449 3.7353,508.289 C9.5794,507.817 15.443,507.39 21.3835,506.968 C125.298,499.584 236.278,499.881 340.858,504.814 C357.077,505.58 371.708,506.357 384.492,507.177 C388.965,507.464 400.093,508.275 400.264,508.289 C402.253,508.444 403.952,506.807 403.877,504.814 C403.873,504.692 402.806,474.059 402.418,462.361 C401.311,428.938 400.186,392.422 399.153,353.971 C397.361,287.29 395.99,221.953 395.192,160.744 C394.696,122.649 393.173,87.386 393.173,54.3036 C393.173,52.0881 387.774,51.5967 387.758,53.812 Z" id="Shape" fill-opacity="0.5" fill="#262626"></path>
                <path d="M12.9208,53.7843 L391.121,53.7843 L387.969,492.361 C387.969,492.361 202.021,504.967 16.0724,492.361 L12.9208,53.7843 Z" id="Shape" stroke="#262626" stroke-width="5" fill="#FFFFFF" stroke-linecap="round" stroke-linejoin="round"></path>
                <polygon id="Shape" stroke="#262626" stroke-width="3" fill-opacity="0.0969388" fill="#262626" stroke-linecap="round" stroke-linejoin="round" points="44.4374 85.301 359.604 85.301 359.604 400.468 44.4374 400.468"></polygon>
                <path d="M166.321,24.7689 C159.914,24.769 154.718,29.9653 154.718,36.3723 C154.718,42.7794 159.914,47.9756 166.321,47.9756 C168.249,47.9756 170.002,47.4178 171.602,46.586 L199.742,73.6142 C200.406,74.2519 201.251,74.5349 202.104,74.5174 C202.957,74.4999 203.759,74.1397 204.397,73.4753 C205.035,72.8108 205.387,71.9662 205.37,71.1129 C205.352,70.2595 204.992,69.3884 204.327,68.7505 L176.327,41.9308 C177.262,40.2582 177.925,38.4247 177.925,36.3723 C177.925,29.9653 172.728,24.7689 166.321,24.7689 Z" id="Shape" fill-opacity="0.5" fill="#262626"></path>
                <path d="M186.262,23.9025 L202.021,71.1775" id="Shape" stroke="#262626" stroke-width="5" fill="#262626" stroke-linecap="round" stroke-linejoin="round"></path>
                <path d="M170.504,12.3016 C170.504,5.8945 175.698,0.7007 182.105,0.7007 C188.512,0.7007 193.706,5.8945 193.706,12.3016 C193.706,18.7086 188.512,23.9026 182.105,23.9026 C175.698,23.9026 170.504,18.7086 170.504,12.3016 Z" id="Shape" stroke="#262626" stroke-width="3" fill="url(#radialGradient-1)" stroke-linecap="round" stroke-linejoin="round"></path>
            </g>
            <g id="Layer-3" transform="translate(95.000000, 142.000000)" fill-rule="nonzero">
                <path d="M98.594,0.875 C99.366,1.297 100.124,1.575 100.906,2.125 C101.946,2.857 102.833,3.58 103.969,4.562 C104.539,5.059 104.78,5.257 105,5.438 C105.19,5.594 105.371,5.736 105.531,5.844 C105.951,6.128 106.288,6.286 106.875,6.344 C107.965,6.45 108.86,6.177 110.344,5.5 C110.643,5.363 111.738,4.828 111.906,4.75 C112.574,4.439 113.157,4.209 113.75,3.969 C115.834,3.125 118.048,2.578 120.438,2.25 C119.54,2.731 118.829,3.211 118.375,3.812 C117.446,5.043 117.458,6.731 118.656,7.875 C119.313,8.502 120.175,8.841 121.344,9.094 C131.954,11.384 140.592,14.733 147.469,18.875 C152.122,21.678 155.672,24.67 158.281,27.625 C159.175,28.638 159.895,29.553 160.438,30.375 C160.743,30.837 160.911,31.163 160.969,31.281 C161.028,31.402 161.109,31.515 161.188,31.625 C161.226,31.679 161.746,32.42 161.969,32.719 C162.603,33.567 163.323,34.484 164.125,35.5 C166.416,38.402 168.889,41.314 171.438,44.031 C174.405,47.195 177.297,49.918 180.062,52.031 C181.553,53.17 182.952,53.988 184.344,54.75 C184.059,54.836 183.596,54.907 183.344,55 C181.112,55.817 179.736,56.959 180.188,59.219 C180.975,63.159 180.595,67.447 178.906,78.281 C178.826,78.798 178.772,79.126 178.719,79.469 C177.591,86.747 177.126,90.782 177.188,94.812 C177.262,99.692 178.303,103.453 180.469,106.25 C180.346,106.943 180.217,107.629 180.125,108.125 C179.716,110.319 179.27,112.522 178.812,114.562 C178.48,116.045 178.19,116.966 177.875,118.125 C176.536,112.893 175.923,106.203 175.312,94.219 C175.225,92.493 175.203,91.911 175.156,91.031 C174.341,75.683 173.138,67.351 169.812,59.844 C165.362,49.796 157.456,44.155 145.25,43.469 C137.475,43.032 129.871,41.854 122.656,40.188 C119.386,39.432 116.42,38.62 113.812,37.812 C112.905,37.531 112.084,37.264 111.406,37.031 C111.007,36.894 110.752,36.797 110.625,36.75 C109.687,36.4 108.628,36.65 107.938,37.375 C106.856,38.51 106.395,39.949 106.719,41.406 C107.37,44.338 110.75,46.365 116.719,48.781 C112.013,48.676 106.736,48.122 100.844,47.062 C94.551,45.932 87.857,44.309 80.969,42.344 C75.964,40.916 71.16,39.405 66.719,37.875 C65.166,37.34 61.752,36.087 61.438,35.969 C61.251,35.899 61.124,35.867 61.062,35.844 C59.671,35.309 58.126,36.088 57.75,37.531 C56.077,43.944 52.874,47.646 45.594,52.844 C44.848,53.376 41.835,55.504 41.094,56.031 C39.251,57.343 37.759,58.455 36.312,59.625 C25.824,68.105 19.016,79.157 15.281,96.812 C15.269,96.767 15.241,96.741 15.219,96.656 C14.465,93.793 14.176,91.974 14,87.594 C13.979,87.066 13.902,86.619 13.688,86.156 C13.186,85.073 12.048,84.366 10.719,84.656 C9.665,84.887 9.198,85.374 8.531,86.375 C8.475,86.46 8.403,86.625 8.344,86.719 C8.898,83.672 9.576,80.201 10.594,75.656 C10.789,74.786 14.953,56.919 15.125,55.781 C16.936,43.827 21.166,33.715 28.469,25.312 C30.53,22.941 28.969,20.666 26.5,20.094 C26.403,20.071 26.193,20.082 26.094,20.062 C28.304,19.103 30.785,18.045 34.438,16.562 C35.866,15.983 37.13,14.516 41.812,8.594 C41.816,8.589 42.063,8.289 42.094,8.25 C42.027,8.511 41.933,8.813 41.906,9.031 C41.837,9.588 41.832,10.053 42.125,10.656 C42.86,12.169 44.507,12.425 45.688,11.781 C52.752,7.928 73.865,6.096 96.906,6.125 C98.727,6.127 100.15,4.561 99.625,2.656 C99.447,2.011 99.121,1.5 98.594,0.875 Z" id="Shape" fill-opacity="0.629252" fill="#262626"></path>
                <path d="M61.656,41.375 C62.712,41.757 63.791,42.156 65.062,42.594 C69.584,44.151 74.497,45.703 79.594,47.156 C86.632,49.164 93.497,50.806 99.969,51.969 C111.136,53.976 120.568,54.458 127.781,53 C128.205,52.914 128.57,52.776 128.969,52.469 C129.823,51.811 130.218,50.683 129.844,49.594 C129.644,49.013 129.331,48.626 128.938,48.312 C128.758,48.169 128.584,48.053 128.375,47.938 C127.881,47.665 127.189,47.377 126.094,46.969 C125.69,46.819 123.165,45.937 122.906,45.844 C121.476,45.327 120.364,44.895 119.281,44.469 C120.071,44.666 120.704,44.871 121.531,45.062 C129.009,46.79 136.89,47.984 144.969,48.438 C155.272,49.016 161.516,53.486 165.219,61.844 C168.214,68.606 169.373,76.538 170.156,91.281 C170.203,92.156 170.225,92.746 170.312,94.469 C171.153,110.964 171.977,117.847 174.781,124.781 C175.702,127.059 178.156,128.02 180.031,126.062 C180.746,125.317 181.279,124.207 181.844,122.562 C182.442,120.819 183.055,118.475 183.688,115.656 C183.935,114.553 184.172,113.355 184.406,112.188 C184.635,112.001 184.936,111.926 185.094,111.656 C185.137,111.582 185.288,111.4 185.5,111.125 C185.874,110.641 186.326,110.14 186.844,109.688 C188.73,108.04 190.932,107.324 193.594,107.938 C197.226,108.774 199.052,120.509 196.469,132.375 C193.548,145.788 186.869,153.246 178.469,150.844 C178.799,148.459 179.123,146.082 179.25,143.469 C179.317,142.09 178.254,140.911 176.875,140.844 C175.496,140.777 174.317,141.84 174.25,143.219 C173.615,156.304 170.284,165.999 164.562,173.188 C159.906,179.039 153.883,183.134 145.594,186.656 C143.702,187.46 141.718,188.235 139.281,189.125 C138.189,189.524 134.078,190.965 133.125,191.312 C125.982,193.919 122,195.874 118.875,198.75 C114.821,202.481 113.147,207.362 113.969,213.75 L113.938,213.438 L113.938,225.406 C113.938,226.787 115.057,227.906 116.438,227.906 C117.818,227.906 118.937,226.787 118.938,225.406 L118.938,223.531 C121.296,225.459 121.577,226.723 120.594,227.812 C118.921,229.666 115.373,231.251 107.594,233.969 C106.551,234.333 106.076,235.352 106.094,236.406 C104.768,239.042 103.165,246.735 101.562,255.969 L99.594,255.969 C98.833,249.365 97.795,242.978 96.25,236.75 C96.226,235.749 95.824,234.791 94.812,234.438 C87.399,231.848 83.704,230.118 82.125,228.25 C81.191,227.145 81.523,225.8 83.969,223.812 L83.969,225.406 C83.969,226.787 85.088,227.906 86.469,227.906 C87.849,227.906 88.969,226.787 88.969,225.406 L88.969,213.438 C89.185,206.462 86.944,201.05 82.344,196.781 C78.762,193.457 74.321,191.102 66.5,187.875 C65.423,187.43 61.326,185.766 60.375,185.375 C57.939,184.373 55.967,183.52 54.094,182.656 C45.716,178.795 39.579,174.672 34.625,169 C28.575,162.074 24.646,153.039 23,141.125 C22.811,139.757 21.524,138.811 20.156,139 C18.789,139.189 17.842,140.445 18.031,141.812 C18.193,142.983 18.484,144.003 18.688,145.125 C12.044,147.057 5.556,140.822 2.25,129.969 C-1.015,119.248 0.544,109.183 5.812,107.125 C8.262,106.168 11.328,108.129 14.531,112.438 C15.528,113.778 16.44,115.207 17.25,116.656 C17.534,117.164 17.788,117.644 18,118.062 C18.124,118.307 18.213,118.483 18.25,118.562 C18.834,119.814 20.311,120.334 21.562,119.75 C22.814,119.166 23.365,117.689 22.781,116.438 C22.565,115.975 22.173,115.198 21.625,114.219 C20.716,112.593 19.7,110.967 18.562,109.438 C18.469,109.312 18.375,109.216 18.281,109.094 C21.104,85.514 27.852,72.892 39.469,63.5 C40.826,62.403 42.234,61.351 44,60.094 C44.719,59.582 47.73,57.487 48.5,56.938 C55.656,51.828 59.44,47.577 61.656,41.375 Z" id="Shape" fill="#FFFFFF"></path>
                <path d="M126.188,226.594 C128.01,228.408 128.75,230.386 128.469,232.469 C128.01,235.868 125.126,239.877 120.594,243.969 C118.788,245.599 116.851,247.119 114.906,248.5 L111.5,237.812 C118.311,235.343 122.07,233.606 124.281,231.156 C125.614,229.68 126.21,228.155 126.188,226.594 Z" id="Shape" fill-opacity="0.295918" fill="#262626"></path>
                <path d="M76.594,226.938 C76.539,228.484 77.065,230.024 78.312,231.5 C80.418,233.992 84.284,235.8 90.688,238.156 L86.656,247.906 C84.841,246.619 83.029,245.185 81.344,243.656 C76.857,239.585 74.139,235.577 74,232.25 C73.922,230.382 74.825,228.62 76.594,226.938 Z" id="Shape" fill-opacity="0.295918" fill="#262626"></path>
                <path d="M133,228.188 C144.459,230.734 153.449,236.032 160.156,244.094 C163.066,247.592 165.479,251.58 167.594,255.969 L106.562,255.969 C107.255,251.902 107.934,247.857 108.562,245.031 L111.156,253.188 C111.525,254.347 112.634,255.031 113.75,254.938 C114.122,254.906 114.498,254.774 114.844,254.562 C115.001,254.466 115.276,254.279 115.656,254.031 C116.28,253.624 116.974,253.183 117.719,252.656 C119.844,251.151 121.944,249.456 123.938,247.656 C129.274,242.839 132.749,238.001 133.406,233.125 C133.64,231.392 133.491,229.743 133,228.188 Z" id="Shape" fill-opacity="0.295918" fill="#262626"></path>
                <path d="M69.656,228.438 C69.213,229.723 68.972,231.054 69.031,232.469 C69.242,237.496 72.575,242.45 77.969,247.344 C79.833,249.036 81.825,250.625 83.812,252.031 C84.509,252.524 85.166,252.964 85.75,253.344 C86.106,253.576 86.383,253.722 86.531,253.812 C87.841,254.608 89.539,254.041 90.125,252.625 L92.906,245.875 C93.523,249.175 94.156,252.523 94.562,255.969 L37.312,255.969 C44.554,243.596 55.421,234.102 69.656,228.438 Z" id="Shape" fill-opacity="0.295918" fill="#262626"></path>
                <path d="M100.031,260.969 L100.688,260.969 C100.539,261.895 100.397,262.55 100.25,263.5 C100.187,262.649 100.104,261.807 100.031,260.969 Z" id="Shape" fill-opacity="0.295918" fill="#262626"></path>
            </g>
            <g id="Layer-3_2" transform="translate(44.000000, 85.000000)">
                <g id="Group">
                    <g id="Clipped">
                        <mask id="mask-3" fill="white">
                            <use xlink:href="#path-2"></use>
                        </mask>
                        <g id="Mask"></g>
                        <g id="Group" mask="url(#mask-3)" stroke="#262626" stroke-linecap="round" stroke-linejoin="round">
                            <g transform="translate(49.000000, 53.000000)" id="Shape">
                                <path d="M17.784,112.872 C24.538,56.257 55.857,66.346 62.163,42.173 C62.163,42.173 106.394,59.172 129.273,54.547 C132.022,53.992 106.88,48.219 111.748,43.108 C111.748,43.108 127.082,48.827 147.107,49.953 C184.582,52.058 169.264,103.477 179.114,127.839 C181.195,132.983 185.108,109.625 185.108,109.625 C176.491,100.914 187.194,75.572 184.625,62.724 C184.072,59.959 202.823,59.67 192.506,58.425 C181.619,57.111 165.21,34.162 165.21,34.162 C165.21,34.162 157.133,17.826 123.865,10.645 C116.398,9.033 136.767,4.519 134.294,4.099 C117.753,1.294 111.715,8.118 109.115,7.865 C108.408,7.796 101.468,-0.314 93.109,0.307 C91.529,0.424 101.062,7.624 98.918,7.621 C83.478,7.602 55.653,8.581 46.497,13.575 C45.474,14.133 50.879,2.486 48.28,3.555 C46.662,4.221 37.34,17.503 35.485,18.256 C29.167,20.819 22.312,23.636 20.601,25.007 C17.712,27.321 30.815,25.121 28.585,27.685 C20.344,37.167 16.348,48.18 14.647,59.411 C14.116,62.92 5.53,96.071 7.005,98.909 C8.533,101.848 13.372,88.091 13.516,91.699 C13.916,101.644 15.347,100.317 16.009,108.255" stroke-width="5" fill="none"></path>
                                <path d="M80.635,380.38 C68.068,380.255 53.448,380.725 49.87,382.514 C37.591,388.653 55.026,338.565 56.45,308.658 C57.408,298.541 58.631,288.35 60.195,278.822 C60.406,277.533 53.004,290.578 53.004,290.578 C53.004,298.073 28.554,280.454 29.021,278.587 C35.017,254.604 51.319,234.736 79.565,227.141" stroke-width="5" fill="none"></path>
                                <path d="M129.273,228.481 C161.842,232.505 173.102,256.189 178.401,277.385 C179.855,283.202 154.418,289.376 154.418,289.376 C154.418,289.376 146.373,272.472 147.13,277.027 C154.418,320.92 147.316,343.508 156.764,380.354 C157.258,382.279 145.097,382.117 131.705,381.856" stroke-width="5" fill="none"></path>
                                <path d="M21.95,151.385 C3.204,157.865 -7.904,114.588 6.907,108.802 C15.093,105.604 22.514,121.497 22.514,121.497" stroke-width="5" fill="none"></path>
                                <path d="M22.514,145.48 C30.472,203.068 89.489,184.268 88.466,217.428 L88.466,229.419" stroke-width="5" fill="none"></path>
                                <path d="M179.68,157.248 C202.624,163.999 207.83,112.199 196.145,109.506 C188.808,107.815 184.95,114.408 184.95,114.408" stroke-width="5" fill="none"></path>
                                <path d="M178.758,147.352 C175.767,208.948 114.503,186.791 118.444,217.428 L118.444,229.419" stroke-width="5" fill="none"></path>
                                <path d="M101.658,124.97 C109.021,133.54 124.635,115.076 129.273,128.253 C134.36,142.705 117.245,164.983 93.262,141" stroke-width="5" fill="none"></path>
                                <path d="M95.979,240.793 L89.814,255.679 C89.814,255.679 54.044,233.949 88.466,223.089 C73.224,232.235 84.528,236.793 95.979,240.793 Z" stroke-width="5" fill="none"></path>
                                <path d="M110.414,240.342 L115.527,256.431 C115.527,256.431 152.866,233.633 118.444,222.773 C133.687,231.919 121.866,236.342 110.414,240.342 Z" stroke-width="5" fill="none"></path>
                                <path d="M77.625,159.094 C77.625,159.094 95.985,168.739 110.969,167.812 C125.952,166.886 137.094,158.625 137.094,158.625 C137.094,158.625 128.391,180.863 109.219,180.219" stroke-width="5" fill="none"></path>
                                <path d="M65.761,107.886 C65.761,95.376 72.522,85.235 80.861,85.235 C89.201,85.235 95.961,95.376 95.961,107.886 C95.961,120.395 89.201,130.535 80.861,130.535 C72.522,130.535 65.761,120.395 65.761,107.886 Z" stroke-width="5" fill="none"></path>
                                <path d="M76.987,114.438 C76.987,112.353 78.677,110.663 80.762,110.663 C82.846,110.663 84.537,112.353 84.537,114.438 C84.537,116.522 82.846,118.213 80.762,118.213 C78.677,118.213 76.987,116.522 76.987,114.438 Z" stroke-width="5" fill="#262626" fill-rule="nonzero"></path>
                                <path d="M61.675,74.86 C81.969,67.109 84.111,73.432 95.927,78.326 C103.715,81.552 85.13,55.688 62.083,74.35" stroke-width="5" fill="#262626" fill-rule="nonzero"></path>
                                <path d="M145.659,80.495 C119.304,59.877 113.629,82.512 111.674,78.351 C109.776,74.309 124.852,55.589 146.416,81.314" stroke-width="5" fill="#262626" fill-rule="nonzero"></path>
                                <path d="M97.145,134.745 C92.506,129.62 82.036,141.643 89.105,145.48" stroke-width="5" fill="none"></path>
                                <path d="M111.275,123.456 C108.76,119.41 107.222,113.982 107.222,108.015 C107.222,95.505 113.982,85.365 122.322,85.365 C130.661,85.365 137.422,95.505 137.422,108.015 C137.422,115.32 135.116,121.817 131.537,125.959" stroke-width="5" fill="none"></path>
                                <path d="M118.447,114.567 C118.447,112.482 120.137,110.792 122.222,110.792 C124.307,110.792 125.997,112.482 125.997,114.567 C125.997,116.651 124.307,118.342 122.222,118.342 C120.137,118.342 118.447,116.651 118.447,114.567 Z" stroke-width="5" fill="#262626" fill-rule="nonzero"></path>
                                <path d="M13.896,119.321 C13.321,117.211 8.851,113.302 6.948,116.473 C3.571,122.102 6.185,133.081 11.375,141.889" stroke-width="2.5" fill="none"></path>
                                <path d="M188.403,119.878 C196.708,110.189 198.041,128.465 192.096,143.152" stroke-width="2.5" fill="none"></path>
                                <path d="M34.867,156.164 C36.221,169.815 51.021,176.238 60.779,181.117" stroke-width="2.5" fill="none"></path>
                                <path d="M161.311,169.745 C155.241,177.164 149.615,182.277 139.995,184.201" stroke-width="2.5" fill="none"></path>
                                <path d="M95.794,241.094 C102.453,267.729 100.189,292.469 100.189,319.735" stroke-width="5" fill="none"></path>
                                <path d="M110.486,240.957 C106.727,246.37 100.716,295.367 99.588,311.164" stroke-width="5" fill="none"></path>
                            </g>
                        </g>
                    </g>
                    <g id="Mask-link" stroke-linecap="round" stroke-linejoin="round" stroke="#262626" stroke-width="5">
                        <polygon id="Mask" points="0.4374 0.301 315.604 0.301 315.604 315.468 0.4374 315.468"></polygon>
                    </g>
                </g>
            </g>
        </g>
        <text font-family="HaveaGreatDay, Have a Great Day" font-size="48" font-weight="normal" fill="#000000">
            <tspan x="138.212562" y="465">REMO</tspan>
        </text>
    </g>
</svg>