<?xml version="1.0" encoding="UTF-8"?>
<svg width="410px" height="510px" viewBox="0 0 410 510" version="1.1" xmlns="http://www.w3.org/2000/svg" xmlns:xlink="http://www.w3.org/1999/xlink">
    <!-- Generator: Sketch 49.3 (51167) - http://www.bohemiancoding.com/sketch -->
    <title>Rosmarie</title>
    <desc>Created with Sketch.</desc>
    <defs>
        <radialGradient cx="65.1832678%" cy="36.5028321%" fx="65.1832678%" fy="36.5028321%" r="16.7968141%" gradientTransform="translate(0.651833,0.365028),scale(0.999996,1.000000),translate(-0.651833,-0.365028)" id="radialGradient-1">
            <stop stop-color="#262626" stop-opacity="0.653061" offset="0%"></stop>
            <stop stop-color="#262626" offset="100%"></stop>
        </radialGradient>
        <polygon id="path-2" points="0.4374 0.301 315.604 0.301 315.604 315.468 0.4374 315.468"></polygon>
    </defs>
    <g id="Rosmarie" stroke="none" stroke-width="1" fill="none" fill-rule="evenodd">
        <g id="rosmarie" transform="translate(6.000000, 1.000000)">
            <g id="Layer-1" fill-rule="nonzero">
                <path d="M387.758,53.812 L384.631,489.251 C381.68,489.431 376.416,489.765 373.167,489.946 C361.346,490.6 347.777,491.21 332.729,491.821 C283.173,493.835 232.045,494.831 180.843,494.601 C180.03,494.604 179.224,494.666 178.411,494.67 C124.877,494.387 71.301,492.619 19.4381,489.181 C19.3862,482.066 16.2535,55.2358 16.242,54.09 C16.2518,53.9558 11.7424,54.1048 11.74,54.1848 C11.7388,54.2718 9.074,142.775 8.1821,195.484 C7.3623,243.929 6.2379,295.344 4.847,348.204 C3.8136,387.475 0.8621,483.415 0.5392,493.003 C0.4261,496.358 0.1269,504.685 0.1223,504.814 C0.0519,506.808 1.7472,508.449 3.7353,508.289 C9.5794,507.817 15.443,507.39 21.3835,506.968 C125.298,499.584 236.278,499.881 340.858,504.814 C357.077,505.58 371.708,506.357 384.492,507.177 C388.965,507.464 400.093,508.275 400.264,508.289 C402.253,508.444 403.952,506.807 403.877,504.814 C403.873,504.692 402.806,474.059 402.418,462.361 C401.311,428.938 400.186,392.422 399.153,353.971 C397.361,287.29 395.99,221.953 395.192,160.744 C394.696,122.649 393.173,87.386 393.173,54.3036 C393.173,52.0881 387.774,51.5967 387.758,53.812 Z" id="Shape" fill-opacity="0.5" fill="#262626"></path>
                <path d="M12.9208,53.7843 L391.121,53.7843 L387.969,492.361 C387.969,492.361 202.021,504.967 16.0724,492.361 L12.9208,53.7843 Z" id="Shape" stroke="#262626" stroke-width="5" fill="#FFFFFF" stroke-linecap="round" stroke-linejoin="round"></path>
                <polygon id="Shape" stroke="#262626" stroke-width="3" fill-opacity="0.0969388" fill="#262626" stroke-linecap="round" stroke-linejoin="round" points="44.4374 85.301 359.604 85.301 359.604 400.468 44.4374 400.468"></polygon>
                <path d="M166.321,24.7689 C159.914,24.769 154.718,29.9653 154.718,36.3723 C154.718,42.7794 159.914,47.9756 166.321,47.9756 C168.249,47.9756 170.002,47.4178 171.602,46.586 L199.742,73.6142 C200.406,74.2519 201.251,74.5349 202.104,74.5174 C202.957,74.4999 203.759,74.1397 204.397,73.4753 C205.035,72.8108 205.387,71.9662 205.37,71.1129 C205.352,70.2595 204.992,69.3884 204.327,68.7505 L176.327,41.9308 C177.262,40.2582 177.925,38.4247 177.925,36.3723 C177.925,29.9653 172.728,24.7689 166.321,24.7689 Z" id="Shape" fill-opacity="0.5" fill="#262626"></path>
                <path d="M186.262,23.9025 L202.021,71.1775" id="Shape" stroke="#262626" stroke-width="5" fill="#262626" stroke-linecap="round" stroke-linejoin="round"></path>
                <path d="M170.504,12.3016 C170.504,5.8945 175.698,0.7007 182.105,0.7007 C188.512,0.7007 193.706,5.8945 193.706,12.3016 C193.706,18.7086 188.512,23.9026 182.105,23.9026 C175.698,23.9026 170.504,18.7086 170.504,12.3016 Z" id="Shape" stroke="#262626" stroke-width="3" fill="url(#radialGradient-1)" stroke-linecap="round" stroke-linejoin="round"></path>
            </g>
            <g id="Layer-3" transform="translate(94.000000, 126.000000)" fill-rule="nonzero">
                <path d="M101.844,0.062 C105.398,0.353 108.842,1.828 113.188,4.562 C113.598,4.821 115.708,6.185 115.906,6.312 C117,7.014 117.817,7.501 118.594,7.938 C120.727,9.137 122.47,9.784 124.25,9.875 C125.416,9.934 126.445,9.548 128.812,8.406 C129.224,8.208 131.021,7.326 131.5,7.094 C132.656,6.534 133.647,6.069 134.656,5.625 C143.526,1.719 151.161,0.52 158.438,3.188 C158.871,3.346 159.323,3.532 159.75,3.719 C164.401,5.754 167.392,8.526 169.062,11.875 C170.718,15.195 170.948,18.796 170.375,22.031 C170.28,22.566 170.203,22.908 170.156,23.062 C169.687,24.599 170.772,26.2 172.375,26.312 C172.57,26.326 172.97,26.344 173.531,26.406 C174.482,26.512 175.542,26.655 176.688,26.844 C179.956,27.382 183.195,28.181 186.219,29.25 C192.095,31.327 196.267,34.186 198.062,37.812 C198.748,39.198 199.259,43.61 199.469,49.625 C199.604,53.494 199.627,57.617 199.562,61.438 C199.554,61.918 199.533,63.11 199.531,63.188 C199.491,64.595 200.623,65.75 202.031,65.75 C202.285,65.75 202.847,65.819 203.625,66 C204.96,66.311 206.289,66.88 207.531,67.75 C210.547,69.861 212.597,73.464 213.219,79.125 C213.622,82.794 212.714,86.089 210.281,91.188 C210.097,91.574 209.203,93.38 208.969,93.875 C208.472,94.923 208.091,95.77 207.781,96.562 C206.951,98.687 206.599,100.461 206.781,102.188 C207.038,104.612 208.488,105.8 211.406,107.125 C211.433,107.137 213.1,107.874 213.562,108.094 C216.565,109.523 217.663,110.883 217.5,113.812 C217.219,118.867 215.074,123.442 211.812,126.906 C210.507,128.293 209.12,129.39 207.906,130.031 C207.413,130.292 206.981,130.439 206.688,130.5 C206.635,130.511 206.639,130.529 206.625,130.531 C203.015,128.887 199.47,129.53 196.344,132.062 C195.334,132.88 194.411,133.966 193.5,135.125 C193.517,135.047 193.619,134.558 193.625,134.531 C194.977,128.138 195.81,123.355 196.375,118.594 C198.49,100.785 195.531,88.245 184.781,81.406 C182.256,79.799 180.775,76.682 179.594,71.156 C179.473,70.593 178.863,67.505 178.844,67.406 C178.048,63.28 177.53,61.253 176.5,59.406 C174.92,56.574 172.359,55.248 169.062,55.875 C166.566,56.35 164.463,54.702 160.156,49.344 C159.916,49.044 159.335,48.307 159.188,48.125 C156.822,45.206 155.268,43.607 153.406,42.406 C150.737,40.685 147.905,40.357 145,41.719 C141.845,43.198 138.763,43.597 135.031,43.188 C133.114,42.977 131.842,42.719 127.75,41.812 C120.153,40.129 115.957,39.695 110.406,40.625 C110.026,40.689 109.794,40.98 109.5,41.188 C109.39,41.132 109.37,40.977 109.25,40.938 C107.388,40.319 105.461,40.115 103.406,40.25 C100.775,40.423 98.566,40.997 94.469,42.375 C86.437,45.076 84.161,45.086 81.594,41.406 C80.152,39.34 78.324,38.393 76.25,38.375 C74.176,38.357 71.862,39.286 69.375,40.969 C66.155,43.147 63.413,45.727 57.031,52.25 C57.015,52.267 57.016,52.264 57,52.281 C48.444,61.027 44.627,64.227 41.812,64.531 C36.267,65.131 32.767,67.897 31.312,72.438 C30.248,75.761 30.293,79.606 31.062,85.25 C31.177,86.091 31.276,86.889 31.469,88.156 C32.612,95.681 32.72,98.38 31.75,99.719 C26.255,107.307 23.834,114.322 23.938,121.156 C23.968,123.198 24.225,125.107 24.656,127.031 C22.873,126.307 20.959,126.309 18.938,127 C18.816,126.888 18.785,126.769 18.656,126.656 C17.629,125.758 16.45,124.912 14.625,123.688 C14.17,123.382 10.77,121.102 10.094,120.625 C3.475,115.953 0.34,111.767 0.281,105.906 C0.223,100.046 3.456,95.403 9.094,91.781 C11.12,90.479 13.311,89.403 15.5,88.562 C16.265,88.269 16.994,88.04 17.625,87.844 C17.992,87.73 18.228,87.654 18.344,87.625 C19.35,87.368 20.102,86.501 20.219,85.469 C20.412,83.762 19.787,82.317 18.469,81.375 C17.661,80.798 16.832,80.519 15.375,80.156 C15.479,80.182 14.484,79.944 14.219,79.875 C13.801,79.767 13.444,79.639 13.125,79.531 C10.187,78.535 8.99,76.562 9.531,70.875 C10.07,65.218 13.166,60.957 18.125,57.781 C20.099,56.517 22.242,55.497 24.375,54.75 C25.12,54.489 25.793,54.289 26.406,54.125 C26.761,54.03 27.018,53.991 27.125,53.969 C28.533,53.68 29.4,52.264 29.031,50.875 C28.983,50.694 28.9,50.307 28.781,49.781 C28.581,48.892 28.376,47.896 28.188,46.812 C27.572,43.269 27.238,39.724 27.344,36.438 C27.509,31.319 28.732,27.508 31.031,25.5 C32.119,24.55 35.298,24.07 39.688,24.219 C41.903,24.294 44.298,24.516 46.719,24.844 C47.783,24.988 48.786,25.127 49.688,25.281 C50.223,25.373 50.586,25.462 50.781,25.5 C52.244,25.788 53.627,24.736 53.75,23.25 C53.76,23.129 53.815,22.84 53.875,22.438 C53.979,21.742 54.11,20.97 54.312,20.125 C54.892,17.71 55.794,15.295 57.031,13.062 C59.375,8.834 62.7,5.775 67.219,4.25 C68.208,3.916 69.876,4.187 72,5.156 C73.435,5.811 74.978,6.73 76.594,7.844 C77.859,8.716 79.085,9.655 80.219,10.594 C80.615,10.922 81.599,11.791 81.656,11.844 C83.025,13.104 85.239,12.477 85.75,10.688 C85.762,10.645 85.802,10.512 85.875,10.312 C86.006,9.953 86.167,9.537 86.375,9.094 C86.977,7.812 87.753,6.536 88.75,5.344 C91.092,2.544 94.189,0.698 98.219,0.156 C99.467,-0.011 100.659,-0.034 101.844,0.062 Z" id="Shape" fill-opacity="0.496599" fill="#262626"></path>
                <path d="M75.594,43.438 C76.432,43.325 77.012,43.626 77.469,44.281 C79.872,47.727 82.982,49.302 86.719,49.281 C89.295,49.267 91.06,48.808 96.062,47.125 C99.759,45.882 101.655,45.386 103.719,45.25 C105.157,45.155 106.441,45.284 107.656,45.688 C108.456,45.953 109.236,45.707 109.875,45.25 C110.305,45.441 110.751,45.646 111.25,45.562 C115.999,44.767 119.643,45.134 126.656,46.688 C130.943,47.637 132.331,47.918 134.5,48.156 C139.091,48.66 143.075,48.149 147.125,46.25 C149.425,45.172 151.367,46.414 155.312,51.281 C155.456,51.458 156.039,52.168 156.281,52.469 C158.796,55.597 160.122,57.095 161.875,58.469 C164.425,60.468 167.094,61.334 170,60.781 C171.88,60.424 172.69,61.905 173.938,68.375 C173.955,68.467 174.591,71.622 174.719,72.219 C176.159,78.96 178.104,83.087 182.094,85.625 C190.786,91.155 193.349,101.899 191.438,118 C190.893,122.582 190.042,127.242 188.719,133.5 C188.634,133.9 187.13,140.946 186.75,142.812 C186.08,146.105 185.671,148.537 185.469,150.594 C185.406,151.233 185.364,151.574 185.469,152.031 C185.575,152.496 185.768,152.922 186.219,153.344 C186.629,153.728 187.122,153.968 187.625,154.031 C188.128,154.094 188.672,153.982 189.125,153.75 C189.734,153.438 189.973,153.143 190.25,152.656 C190.475,152.262 190.585,151.966 191.156,150.469 C192.403,147.204 193.206,145.248 194.375,142.969 C194.684,142.366 195.003,141.977 195.312,141.438 C197.11,139.057 199.154,137.531 201.625,137.531 C204.703,137.531 206.056,148.571 202.938,159.938 C200.209,169.885 195.543,176.066 189.812,176.844 C189.852,176.018 189.897,174.846 189.938,174.156 C191.177,173.648 192.114,172.599 192.219,171.219 C192.373,169.195 190.701,167.535 188.594,167.375 C186.486,167.215 184.591,168.601 184.438,170.625 C184.312,172.272 185.425,173.658 186.969,174.219 C186.929,174.884 186.883,175.968 186.844,176.75 C185.856,176.573 184.847,176.267 183.812,175.781 C183.311,175.546 182.784,175.621 182.281,175.719 C182.9,173.736 183.574,171.989 184.156,169.844 C184.518,168.511 183.739,167.112 182.406,166.75 C181.074,166.388 179.674,167.199 179.312,168.531 C174.084,187.8 167.496,199.781 159.281,207.156 C154.75,211.225 152.804,212.245 142.719,216.812 C135.857,219.92 132.385,222.414 129.625,227.156 C126.332,232.815 125.056,241.054 125.719,253.5 C125.792,254.879 126.965,255.948 128.344,255.875 C129.723,255.802 130.792,254.597 130.719,253.219 C130.655,252.019 130.683,251.048 130.656,249.938 C137.816,252.294 142,255.867 142,259.219 C142,265.216 129.551,271.031 113.844,271.031 C98.136,271.031 85.719,265.216 85.719,259.219 C85.719,255.795 89.989,252.102 97.438,249.75 C97.527,251.217 97.705,252.541 97.719,254.125 C97.73,255.506 98.838,256.605 100.219,256.594 C101.599,256.582 102.73,255.443 102.719,254.062 C102.595,239.395 99.312,229.107 93.031,221.656 C88.273,216.012 83.62,213.117 72.688,207.906 C72.629,207.878 72.621,207.872 72.562,207.844 C62.807,203.194 58.717,200.712 54.625,196.219 C49.257,190.325 46.156,182.195 45.438,170.312 C45.354,168.934 44.191,167.885 42.812,167.969 C41.434,168.052 40.385,169.215 40.469,170.594 C40.595,172.681 40.921,174.507 41.188,176.406 C41.166,176.409 41.147,176.402 41.125,176.406 C39.935,176.613 38.765,176.613 37.625,176.469 C37.607,175.805 37.573,174.821 37.562,174.25 C38.745,173.652 39.594,172.558 39.594,171.188 C39.594,169.158 37.801,167.594 35.688,167.594 C33.574,167.594 31.781,169.158 31.781,171.188 C31.781,172.836 32.986,174.093 34.562,174.531 C34.568,174.827 34.586,175.337 34.594,175.656 C28.728,173.248 23.87,166.188 21.062,156.281 C17.827,144.866 19.014,134.531 22.094,134.531 C24.875,134.531 27.118,136.258 28.906,139.406 C29.584,140.599 30.133,141.92 30.562,143.219 C30.713,143.673 30.839,144.096 30.938,144.469 C30.993,144.682 31.019,144.817 31.031,144.875 C31.161,145.486 31.569,145.936 32.031,146.281 C32.035,146.289 32.028,146.305 32.031,146.312 C32.074,146.409 32.062,146.418 32.156,146.594 C32.227,146.716 32.208,146.713 32.375,146.938 C32.614,147.276 32.644,147.268 33.875,147.812 C34.967,147.865 34.952,147.867 35.938,147.281 C36.526,146.635 36.517,146.632 36.688,146.188 C36.832,145.603 36.844,145.608 36.844,145.375 C36.833,145.077 36.831,145.064 36.812,144.938 C36.797,144.829 36.779,144.732 36.75,144.594 C36.433,143.078 35.886,141.51 35.062,139.625 C34.748,138.906 34.409,138.178 33.938,137.188 C33.935,137.183 33.014,135.248 32.75,134.688 C30.159,129.182 29.004,125.464 28.938,121.094 C28.851,115.39 30.925,109.374 35.812,102.625 C37.965,99.653 37.863,96.789 36.438,87.406 C36.249,86.162 36.11,85.372 36,84.562 C34.601,74.297 35.92,70.226 42.344,69.531 C46.937,69.035 50.769,65.792 60.562,55.781 C60.579,55.764 69.332,47.005 72.156,45.094 C73.66,44.077 74.756,43.55 75.594,43.438 Z" id="Shape" fill="#FFFFFF"></path>
                <path d="M187.219,204.625 C190.23,204.854 192.497,207.622 192.25,210.875 C192.003,214.128 189.324,216.573 186.312,216.344 C183.301,216.115 181.034,213.316 181.281,210.062 C181.529,206.809 184.207,204.396 187.219,204.625 Z" id="Shape" fill="#FFFFFF"></path>
                <path d="M37.125,204.844 C40.145,204.844 42.625,207.456 42.625,210.719 C42.625,213.981 40.145,216.594 37.125,216.594 C34.105,216.594 31.625,213.981 31.625,210.719 C31.625,207.456 34.105,204.844 37.125,204.844 Z" id="Shape" fill="#FFFFFF"></path>
                <path d="M80.781,253.062 C81.524,253.047 82.333,253.089 83.094,253.094 C81.692,254.979 80.719,257.002 80.719,259.219 C80.719,264.528 85.207,268.967 92.125,271.969 L41.75,271.969 C43.239,269.765 44.885,267.723 46.719,265.875 C54.704,257.827 65.885,253.372 80.781,253.062 Z" id="Shape" fill-opacity="0.14966" fill="#262626"></path>
                <path d="M144.969,253.594 C165.352,254.447 177.59,260.357 184.375,271.969 L135.594,271.969 C142.51,268.967 147,264.524 147,259.219 C147,257.196 146.151,255.348 144.969,253.594 Z" id="Shape" fill-opacity="0.14966" fill="#262626"></path>
            </g>
            <g id="Layer-3_2" transform="translate(44.000000, 85.000000)">
                <g id="Group">
                    <g id="Clipped">
                        <mask id="mask-3" fill="white">
                            <use xlink:href="#path-2"></use>
                        </mask>
                        <g id="Mask"></g>
                        <g id="Group" mask="url(#mask-3)" stroke="#262626" stroke-linecap="round" stroke-linejoin="round">
                            <g transform="translate(47.000000, 38.000000)" id="Shape">
                                <path d="M113.829,46.085 C127.889,43.729 137.3,52.487 149.056,46.975 C158.314,42.634 162.905,63.156 172.535,61.324 C181.911,59.541 176.894,80.463 186.428,86.529 C207.39,99.864 192.492,138.101 190.941,153.848 C190.399,159.359 196.925,129.914 208.892,135.898 C211.413,137.158 222.299,129.559 223,116.947 C223.514,107.699 212.696,109.025 212.262,104.921 C211.672,99.34 219.793,91.615 218.719,81.839 C217.006,66.255 205.018,66.255 205.018,66.255 C205.018,66.255 205.637,44.421 203.305,39.71 C197.691,28.367 175.546,26.807 175.546,26.807 C175.546,26.807 180.186,11.624 163.745,4.431 C147.305,-2.761 130.452,10.547 127.382,10.391 C121.132,10.073 113.286,-1.001 100.894,0.664 C89.42,2.205 86.338,12.994 86.338,12.994 C86.338,12.994 75.341,2.868 69.411,4.869 C55.637,9.518 54.273,26.033 54.273,26.033 C54.273,26.033 36.95,22.625 32.374,26.621 C24.122,33.828 29.61,54.507 29.61,54.507 C29.61,54.507 11.505,58.219 10.035,73.651 C8.565,89.083 21.301,83.137 20.727,88.194 C20.727,88.194 0.62,93.321 0.776,108.924 C0.923,123.621 19.06,127.982 22.118,134.041" stroke-width="5" fill="none"></path>
                                <path d="M22.162,132.487 C31.743,128.25 37.905,150.991 37.301,148.105 C35.207,138.101 20.999,125.958 36.775,104.172 C41.754,97.296 27.529,71.928 45.073,70.031 C55.543,68.899 75.42,35.654 82.533,45.848 C89.646,56.043 100.932,42.826 111.458,46.323" stroke-width="5" fill="none"></path>
                                <path d="M35.206,347.941 C35.206,347.941 11.4,249.288 90.542,253.679" stroke-width="5" fill="none"></path>
                                <path d="M141.874,253.905 C199.901,253.55 198.952,288.402 197.382,347.941" stroke-width="5" fill="none"></path>
                                <path d="M44.55,181.856 C21.38,185.888 13.138,135.021 25.105,135.021 C33.875,135.021 36.491,147.347 36.491,147.347" stroke-width="5" fill="none"></path>
                                <path d="M103.206,257.093 C102.706,197.737 49.282,228.478 45.954,173.453" stroke-width="5" fill="none"></path>
                                <path d="M185.749,181.036 C208.904,191.904 216.6,138.024 204.633,138.024 C195.863,138.024 192.666,149.991 192.666,149.991" stroke-width="5" fill="none"></path>
                                <path d="M131.221,256.365 C128.283,201.212 164.99,244.95 184.737,172.176" stroke-width="5" fill="none"></path>
                                <path d="M202.19,167.379 C206.378,156.515 206.378,142.557 203.343,142.314 C201.595,142.174 199.338,146.683 199.338,146.683" stroke-width="3" fill="none"></path>
                                <path d="M27.776,164.921 C23.588,154.057 23.588,140.099 26.623,139.856 C28.372,139.716 30.629,144.226 30.629,144.226" stroke-width="3" fill="none"></path>
                                <path d="M111.615,132.93 C106.415,144.162 77.733,128.392 78.943,149.164 C79.802,163.92 101.08,167.321 114.337,159.576" stroke-width="5" fill="none"></path>
                                <path d="M96.924,186.63 C107.598,191.77 117.878,191.968 125.587,187.816" stroke-width="5" fill="none"></path>
                                <path d="M66.141,90.489 C88.438,72.389 101.902,94.801 98.276,89.177 C86.602,71.077 67.19,88.915 67.19,88.915" stroke-width="5" fill="none"></path>
                                <path d="M170.485,106.535 L191.97,142.195" stroke-width="5" fill="none"></path>
                                <path d="M59.504,105.142 L31.886,138.118" stroke-width="5" fill="none"></path>
                                <path d="M172.429,121.698 L191.97,142.195" stroke-width="5" fill="none"></path>
                                <path d="M55.971,116.564 L31.886,138.118" stroke-width="5" fill="none"></path>
                                <path d="M80.109,127.142 C80.109,123.078 81.902,119.783 84.114,119.783 C86.326,119.783 88.119,123.078 88.119,127.142 C88.119,131.205 86.326,134.5 84.114,134.5 C81.902,134.5 80.109,131.205 80.109,127.142 Z" stroke-width="5" fill="#262626" fill-rule="nonzero"></path>
                                <path d="M132.629,125.777 C132.629,121.713 134.422,118.419 136.634,118.419 C138.846,118.419 140.639,121.713 140.639,125.777 C140.639,129.841 138.846,133.135 136.634,133.135 C134.422,133.135 132.629,129.841 132.629,125.777 Z" stroke-width="5" fill="#262626" fill-rule="nonzero"></path>
                                <path d="M133.858,66.848 C110.961,56.866 104.757,74.427 90.907,62.997" stroke-width="3" fill="none"></path>
                                <path d="M57.122,175.436 C68.201,177.903 61.628,190.309 71.795,193.388" stroke-width="3" fill="none"></path>
                                <path d="M165.526,173.212 C159.061,181.534 169.496,192.286 154.034,195.364" stroke-width="3" fill="none"></path>
                                <path d="M127.022,212.634 C124.524,211.646 114.364,207.755 105.957,212.634" stroke-width="3" fill="none"></path>
                                <path d="M77.655,144.712 C65.366,141.576 56.248,130.041 56.248,116.291 C56.248,100.13 69.224,98.367 84.761,98.367 C100.299,98.367 112.515,100.13 112.515,116.291 C112.515,122.51 110.651,128.275 107.471,133.015" stroke-width="5" fill="none"></path>
                                <path d="M114.806,115.216 C114.806,99.054 128.922,97.264 144.46,97.264 C159.998,97.264 171.073,99.054 171.073,115.216 C171.073,131.377 158.477,144.479 142.939,144.479 C127.402,144.479 114.806,131.377 114.806,115.216 Z" stroke-width="5" fill="none"></path>
                                <path d="M127.846,98.37 C127.846,98.37 109.534,98.889 96.872,98.889" stroke-width="5" fill="none"></path>
                                <path d="M120.876,133.946 C119.715,133.742 113.2,129.305 108.113,133.768" stroke-width="5" fill="none"></path>
                                <path d="M161.36,91.995 C139.062,73.894 125.598,96.307 129.225,90.683 C140.899,72.583 160.311,90.421 160.311,90.421" stroke-width="5" fill="none"></path>
                                <path d="M33.135,213.719 C33.135,209.645 36.27,206.343 40.137,206.343 C44.003,206.343 47.138,209.645 47.138,213.719 C47.138,217.793 44.003,221.096 40.137,221.096 C36.27,221.096 33.135,217.793 33.135,213.719 Z" stroke-width="3" fill="none"></path>
                                <path d="M38.97,174.42 C38.97,182.594 40.303,206.009 40.303,206.009" stroke-width="3" fill="none"></path>
                                <path d="M36.285,174.177 C36.285,173.029 37.364,172.099 38.695,172.099 C40.025,172.099 41.104,173.029 41.104,174.177 C41.104,175.324 40.025,176.255 38.695,176.255 C37.364,176.255 36.285,175.324 36.285,174.177 Z" stroke-width="3" fill="none"></path>
                                <path d="M182.783,212.94 C183.092,208.878 186.468,205.822 190.323,206.116 C194.179,206.409 197.054,209.94 196.745,214.002 C196.436,218.064 193.06,221.119 189.204,220.826 C185.349,220.533 182.473,217.002 182.783,212.94 Z" stroke-width="3" fill="none"></path>
                                <path d="M191.581,174.196 C190.961,182.346 190.515,205.796 190.515,205.796" stroke-width="3" fill="none"></path>
                                <path d="M188.923,173.75 C189.01,172.606 190.156,171.76 191.483,171.861 C192.81,171.962 193.815,172.971 193.727,174.116 C193.64,175.26 192.494,176.106 191.168,176.005 C189.841,175.904 188.836,174.894 188.923,173.75 Z" stroke-width="3" fill="none"></path>
                                <path d="M133.944,250.365 C142.115,252.933 147.489,257.291 147.489,262.234 C147.489,270.131 133.77,276.533 116.847,276.533 C99.923,276.533 86.204,270.131 86.204,262.234 C86.204,257.295 91.569,252.941 99.726,250.372" stroke-width="5" fill="none"></path>
                            </g>
                        </g>
                    </g>
                    <g id="Mask-link" stroke-linecap="round" stroke-linejoin="round" stroke="#262626" stroke-width="5">
                        <polygon id="Mask" points="0.4374 0.301 315.604 0.301 315.604 315.468 0.4374 315.468"></polygon>
                    </g>
                </g>
            </g>
        </g>
        <text font-family="HaveaGreatDay, Have a Great Day" font-size="48" font-weight="normal" fill="#000000">
            <tspan x="94.2685625" y="465">ROSMARIE</tspan>
        </text>
    </g>
</svg>