<?xml version="1.0" encoding="UTF-8"?>
<svg width="410px" height="510px" viewBox="0 0 410 510" version="1.1" xmlns="http://www.w3.org/2000/svg" xmlns:xlink="http://www.w3.org/1999/xlink">
    <!-- Generator: Sketch 49.3 (51167) - http://www.bohemiancoding.com/sketch -->
    <title>Ruedi</title>
    <desc>Created with Sketch.</desc>
    <defs>
        <radialGradient cx="65.1832678%" cy="36.5028321%" fx="65.1832678%" fy="36.5028321%" r="16.7968141%" gradientTransform="translate(0.651833,0.365028),scale(0.999996,1.000000),translate(-0.651833,-0.365028)" id="radialGradient-1">
            <stop stop-color="#262626" stop-opacity="0.653061" offset="0%"></stop>
            <stop stop-color="#262626" offset="100%"></stop>
        </radialGradient>
        <polygon id="path-2" points="0.4374 0.301 315.604 0.301 315.604 315.468 0.4374 315.468"></polygon>
    </defs>
    <g id="Ruedi" stroke="none" stroke-width="1" fill="none" fill-rule="evenodd">
        <g id="ruedi" transform="translate(6.000000, 1.000000)">
            <g id="Layer-1" fill-rule="nonzero">
                <path d="M387.758,53.812 L384.631,489.251 C381.68,489.431 376.416,489.765 373.167,489.946 C361.346,490.6 347.777,491.21 332.729,491.821 C283.173,493.835 232.045,494.831 180.843,494.601 C180.03,494.604 179.224,494.666 178.411,494.67 C124.877,494.387 71.301,492.619 19.4381,489.181 C19.3862,482.066 16.2535,55.2358 16.242,54.09 C16.2518,53.9558 11.7424,54.1048 11.74,54.1848 C11.7388,54.2718 9.074,142.775 8.1821,195.484 C7.3623,243.929 6.2379,295.344 4.847,348.204 C3.8136,387.475 0.8621,483.415 0.5392,493.003 C0.4261,496.358 0.1269,504.685 0.1223,504.814 C0.0519,506.808 1.7472,508.449 3.7353,508.289 C9.5794,507.817 15.443,507.39 21.3835,506.968 C125.298,499.584 236.278,499.881 340.858,504.814 C357.077,505.58 371.708,506.357 384.492,507.177 C388.965,507.464 400.093,508.275 400.264,508.289 C402.253,508.444 403.952,506.807 403.877,504.814 C403.873,504.692 402.806,474.059 402.418,462.361 C401.311,428.938 400.186,392.422 399.153,353.971 C397.361,287.29 395.99,221.953 395.192,160.744 C394.696,122.649 393.173,87.386 393.173,54.3036 C393.173,52.0881 387.774,51.5967 387.758,53.812 Z" id="Shape" fill-opacity="0.5" fill="#262626"></path>
                <path d="M12.9208,53.7843 L391.121,53.7843 L387.969,492.361 C387.969,492.361 202.021,504.967 16.0724,492.361 L12.9208,53.7843 Z" id="Shape" stroke="#262626" stroke-width="5" fill="#FFFFFF" stroke-linecap="round" stroke-linejoin="round"></path>
                <polygon id="Shape" stroke="#262626" stroke-width="3" fill-opacity="0.0969388" fill="#262626" stroke-linecap="round" stroke-linejoin="round" points="44.4374 85.301 359.604 85.301 359.604 400.468 44.4374 400.468"></polygon>
                <path d="M166.321,24.7689 C159.914,24.769 154.718,29.9653 154.718,36.3723 C154.718,42.7794 159.914,47.9756 166.321,47.9756 C168.249,47.9756 170.002,47.4178 171.602,46.586 L199.742,73.6142 C200.406,74.2519 201.251,74.5349 202.104,74.5174 C202.957,74.4999 203.759,74.1397 204.397,73.4753 C205.035,72.8108 205.387,71.9662 205.37,71.1129 C205.352,70.2595 204.992,69.3884 204.327,68.7505 L176.327,41.9308 C177.262,40.2582 177.925,38.4247 177.925,36.3723 C177.925,29.9653 172.728,24.7689 166.321,24.7689 Z" id="Shape" fill-opacity="0.5" fill="#262626"></path>
                <path d="M186.262,23.9025 L202.021,71.1775" id="Shape" stroke="#262626" stroke-width="5" fill="#262626" stroke-linecap="round" stroke-linejoin="round"></path>
                <path d="M170.504,12.3016 C170.504,5.8945 175.698,0.7007 182.105,0.7007 C188.512,0.7007 193.706,5.8945 193.706,12.3016 C193.706,18.7086 188.512,23.9026 182.105,23.9026 C175.698,23.9026 170.504,18.7086 170.504,12.3016 Z" id="Shape" stroke="#262626" stroke-width="3" fill="url(#radialGradient-1)" stroke-linecap="round" stroke-linejoin="round"></path>
            </g>
            <g id="Layer-3" transform="translate(99.000000, 139.000000)" fill-rule="nonzero">
                <path d="M101.062,0.812 C123.918,0.812 141.717,7.24 155.188,19 C165.561,28.056 172.991,40.045 178.156,54.125 C175.427,55.269 173.304,57.585 171.875,60.969 C170.327,64.636 169.523,69.418 169.219,75.344 C169.041,78.808 169.021,81.915 169.125,87.031 C169.186,90.015 169.219,90.447 169.219,91.438 C169.218,92.587 169.224,92.17 168.812,100.281 C168.767,101.179 168.723,101.976 168.688,102.719 C168.487,106.911 168.387,109.867 168.406,112 C168.419,113.384 168.484,114.372 168.625,115.062 C168.684,115.351 168.759,115.613 168.875,115.875 C169.136,116.463 169.523,116.958 170.25,117.281 C171.292,117.744 172.344,117.474 173.062,116.844 C173.38,116.565 173.595,116.287 173.781,115.938 C174.872,113.885 176.179,112.437 177.594,111.219 C177.376,111.518 176.929,111.904 176.781,112.156 C176.084,113.348 176.496,114.865 177.688,115.562 C178.879,116.26 180.396,115.848 181.094,114.656 C181.137,114.582 181.288,114.4 181.5,114.125 C181.874,113.641 182.326,113.14 182.844,112.688 C184.73,111.04 186.932,110.324 189.594,110.938 C190.893,111.237 192.394,114.744 192.969,120.438 C193.583,126.519 193.093,134.054 191.625,140.531 C190.085,147.325 187.64,152.228 184.938,153.969 C182.387,155.612 179.096,154.337 174.719,148.812 C174.781,147.345 174.969,146.009 174.969,144.469 C174.969,143.088 173.849,141.969 172.469,141.969 C171.088,141.969 169.969,143.088 169.969,144.469 C169.969,159.469 166.864,170.504 161.062,178.531 C156.37,185.024 150.115,189.42 141.469,193.094 C139.524,193.92 137.495,194.698 135,195.594 C133.83,196.014 129.6,197.486 128.688,197.812 C122.399,200.064 118.775,201.777 115.812,204.156 C111.953,207.256 109.937,211.247 109.938,216.438 L109.938,228.406 C109.938,229.787 111.057,230.906 112.438,230.906 C113.818,230.906 114.937,229.787 114.938,228.406 L114.938,226.438 C120.28,228.269 123.25,230.731 123.25,232.781 C123.25,235.264 120.285,240.418 115.906,244.656 C110.602,249.79 104.256,252.875 98,252.875 C91.744,252.875 85.398,249.789 80.094,244.656 C75.715,240.418 72.719,235.264 72.719,232.781 C72.719,230.893 75.283,228.611 79.969,226.812 L79.969,228.406 C79.969,229.787 81.088,230.906 82.469,230.906 C83.849,230.906 84.969,229.787 84.969,228.406 L84.969,216.688 L84.969,216.438 C85.388,211.606 84.081,207.824 81.094,204.875 C78.702,202.514 75.568,200.851 70.281,198.781 C69.507,198.478 63.795,196.3 62.031,195.594 C58.71,194.264 55.923,192.987 53.281,191.531 C38.292,183.274 28.982,169.402 25.5,144.125 C25.312,142.757 24.055,141.812 22.688,142 C21.32,142.188 20.343,143.445 20.531,144.812 C20.963,147.945 21.484,150.893 22.094,153.719 C21.448,153.338 20.719,153.165 19.969,153.469 C15.245,155.383 10.987,151.963 7.625,143.688 C4.485,135.957 2.848,125.172 3.375,116.625 C3.78,110.065 5.4,106.375 6.844,106.375 C9.293,106.375 11.241,108.668 12.594,112.938 C13.123,114.608 13.495,116.431 13.75,118.25 C13.84,118.889 13.921,119.472 13.969,120 C13.997,120.308 14.026,120.526 14.031,120.625 C14.103,122.004 15.277,123.072 16.656,123 C18.035,122.928 19.072,121.754 19,120.375 C18.969,119.787 18.894,118.808 18.719,117.562 C18.475,115.826 18.063,114.111 17.594,112.438 C18.307,113.002 19.29,113.253 20.281,112.812 C21.008,112.489 21.396,111.994 21.656,111.406 C21.772,111.144 21.847,110.882 21.906,110.594 C22.048,109.903 22.112,108.915 22.125,107.531 C22.144,105.399 22.044,102.411 21.844,98.219 C21.808,97.476 21.344,88.087 21.344,86.938 C21.343,85.947 21.345,85.515 21.406,82.531 C21.511,77.415 21.49,74.339 21.312,70.875 C21.008,64.949 20.205,60.167 18.656,56.5 C17.744,54.341 16.534,52.663 15.094,51.375 C15.198,51.205 15.406,51.136 15.469,50.938 C20.067,36.433 28.199,24.68 40.531,16.156 C54.957,6.185 74.886,0.813 101.062,0.812 Z" id="Shape" fill="#FFFFFF"></path>
                <path d="M8.5,53.812 C13.222,53.812 15.763,59.816 16.344,71.125 C16.514,74.436 16.508,77.434 16.406,82.438 C16.344,85.471 16.343,85.927 16.344,86.969 C16.344,88.255 16.293,87.669 16.719,96.062 C16.764,96.955 16.809,97.731 16.844,98.469 C16.954,100.781 16.956,101.956 17,103.562 C15.623,102.245 14.131,101.137 12.438,100.281 C10.776,99.442 10.217,99.258 6.625,98.094 C3.883,97.205 2.774,96.606 2.031,95.562 C1.023,94.147 0.661,91.591 1.188,87.25 C1.311,86.229 1.389,84.91 1.5,82.75 C1.531,82.149 1.758,77.816 1.812,76.875 C1.955,74.419 2.11,72.277 2.312,70.25 C3.371,59.676 5.632,53.812 8.5,53.812 Z" id="Shape" fill-opacity="0.253401" fill="#262626"></path>
                <path d="M182.031,58.281 C184.899,58.281 187.16,64.145 188.219,74.719 C188.422,76.746 188.576,78.888 188.719,81.344 C188.773,82.284 189,86.649 189.031,87.25 C189.143,89.41 189.22,90.697 189.344,91.719 C189.87,96.06 189.508,98.615 188.5,100.031 C187.757,101.075 186.648,101.674 183.906,102.562 C180.314,103.727 179.755,103.91 178.094,104.75 C176.4,105.606 174.909,106.745 173.531,108.062 C173.575,106.45 173.576,105.264 173.688,102.938 C173.723,102.2 174.218,92.724 174.219,91.438 C174.219,90.396 174.187,89.94 174.125,86.906 C174.023,81.903 174.049,78.905 174.219,75.594 C174.8,64.285 177.31,58.281 182.031,58.281 Z" id="Shape" fill-opacity="0.253401" fill="#262626"></path>
                <path d="M68.25,230.562 C68.022,231.289 67.719,232.003 67.719,232.781 C67.719,236.9 71.367,243.161 76.625,248.25 C82.789,254.216 90.3,257.875 98,257.875 C105.7,257.875 113.211,254.216 119.375,248.25 C124.633,243.161 128.25,236.9 128.25,232.781 C128.25,232.147 127.965,231.569 127.812,230.969 C139.845,233.397 149.222,238.758 156.156,247.094 C159.066,250.592 161.479,254.58 163.594,258.969 L33.312,258.969 C40.976,245.875 52.773,236.086 68.25,230.562 Z" id="Shape" fill-opacity="0.908163" fill="#262626"></path>
            </g>
            <g id="Layer-3_2" transform="translate(44.000000, 85.000000)">
                <g id="Group">
                    <g id="Clipped">
                        <mask id="mask-3" fill="white">
                            <use xlink:href="#path-2"></use>
                        </mask>
                        <g id="Mask"></g>
                        <g id="Group" mask="url(#mask-3)" stroke="#262626" stroke-linecap="round" stroke-linejoin="round">
                            <g transform="translate(53.000000, 45.000000)" id="Shape">
                                <path d="M183.503,64.79 C174.461,38.272 153.601,7.322 103.078,7.322 C46.552,7.322 23.689,32.078 15.097,59.179" stroke-width="5" fill="none"></path>
                                <path d="M76.635,388.38 C64.068,388.255 49.448,388.725 45.87,390.514 C33.591,396.653 51.026,346.565 52.45,316.658 C53.408,306.541 54.631,296.35 56.195,286.822 C56.406,285.533 49.004,298.578 49.004,298.578 C49.004,306.073 24.554,288.454 25.021,286.587 C31.017,262.604 47.319,242.736 75.565,235.141" stroke-width="5" fill="none"></path>
                                <path d="M125.273,236.481 C157.842,240.505 169.102,264.189 174.401,285.385 C175.855,291.202 150.418,297.376 150.418,297.376 C150.418,297.376 142.373,280.472 143.13,285.027 C150.418,328.92 143.316,351.508 152.764,388.354 C153.258,390.279 141.097,390.117 127.705,389.856" stroke-width="5" fill="none"></path>
                                <path d="M2.888,125.468 C3.336,118.207 5.282,112.884 8.857,112.884 C17.645,112.884 18.514,129.497 18.514,129.497" stroke-width="5" fill="none"></path>
                                <path d="M22.916,164.784 C9.079,170.39 1.833,142.56 2.888,125.468" stroke-width="5" fill="none"></path>
                                <path d="M25.014,153.48 C34.362,221.338 87.004,199.752 84.466,225.428 L84.466,237.419" stroke-width="5" fill="none"></path>
                                <path d="M174.461,159.022 C196.775,187.853 203.83,120.199 192.145,117.506 C184.808,115.815 180.95,122.408 180.95,122.408" stroke-width="5" fill="none"></path>
                                <path d="M174.461,153.48 C174.461,219.857 114.441,198.905 114.444,225.428 L114.444,237.419" stroke-width="5" fill="none"></path>
                                <path d="M97.26,123.35 C102.11,128.361 115.471,128.258 115.531,138.551 C115.59,148.844 97.26,145.276 97.26,145.276" stroke-width="5" fill="none"></path>
                                <path d="M88.301,170.38 C101.531,171.492 119.53,176.455 119.53,176.455" stroke-width="5" fill="none"></path>
                                <path d="M97.142,178.367 C89.262,182.714 72.22,187.853 76.635,178.367" stroke-width="5" fill="none"></path>
                                <path d="M52.437,110.498 C52.437,93.268 61.748,79.301 73.234,79.301 C84.72,79.301 94.032,93.268 94.032,110.498 C94.032,127.727 84.72,141.694 73.234,141.694 C61.748,141.694 52.437,127.727 52.437,110.498 Z" stroke-width="5" fill="none"></path>
                                <path d="M68.648,129.36 C68.648,125.786 71.546,122.888 75.12,122.888 C78.694,122.888 81.592,125.786 81.592,129.36 C81.592,132.934 78.694,135.832 75.12,135.832 C71.546,135.832 68.648,132.934 68.648,129.36 Z" stroke-width="5" fill="#262626" fill-rule="nonzero"></path>
                                <path d="M60.854,61.909 C75.616,62.681 92.455,75.115 92.398,71.375 C92.271,63.124 71.694,61.909 57.887,61.909" stroke-width="5" fill="#262626" fill-rule="nonzero"></path>
                                <path d="M10.498,60.314 C0.703,60.314 1.598,88.571 0.703,95.953 C-1.645,115.316 12.851,104.001 20.97,119.274 C22.517,122.185 20.834,100.425 20.833,95.953 C20.829,86.143 22.965,60.314 10.498,60.314 Z" stroke-width="5" fill="none"></path>
                                <path d="M76.635,52.522 C90.476,58.759 87.733,50.197 97.671,50.308 C107.609,50.42 109.584,60.095 122.949,50.42" stroke-width="5" fill="none"></path>
                                <path d="M106.396,192.129 C106.396,192.129 99.726,182.507 94.067,192.129" stroke-width="5" fill="none"></path>
                                <path d="M140.387,61.909 C125.625,62.681 110.102,76.2 110.159,72.459 C110.286,64.208 126.581,61.909 140.387,61.909" stroke-width="5" fill="#262626" fill-rule="nonzero"></path>
                                <path d="M62.634,165.847 L81.805,180.389" stroke-width="5" fill="none"></path>
                                <path d="M92.863,175.274 C87.97,170.871 69.761,156.419 69.761,156.419" stroke-width="5" fill="none"></path>
                                <path d="M58.926,156.869 C60.563,154.05 63.55,152.728 65.598,153.917 C67.646,155.106 67.98,158.355 66.343,161.175 C64.706,163.994 61.719,165.316 59.671,164.127 C57.623,162.938 57.289,159.688 58.926,156.869 Z" stroke-width="5" fill="none"></path>
                                <path d="M58.706,144.522 C60.431,136.395 53.358,138.116 52.708,136.816 C51.337,134.074 50.059,128.781 45.837,130.558 C43.618,131.492 43.004,135.736 41.925,136.816 C40.556,138.185 31.059,132.447 30.029,136.395 C28.763,141.248 34.442,143.713 37.679,144.522 C38.707,144.779 27.836,156.419 39.208,156.419" stroke-width="2.5" fill="none"></path>
                                <path d="M62.634,33.251 C57.718,38.272 42.368,33.198 57.718,27.721 C91.822,15.552 128.074,21.337 158.908,38.272" stroke-width="5" fill="none"></path>
                                <path d="M51.065,22.684 C75.916,11.32 128.074,11.244 154.45,29.757" stroke-width="5" fill="none"></path>
                                <path d="M45.16,21.337 C36.799,6.187 100.232,-10.844 149.867,11.244" stroke-width="5" fill="none"></path>
                                <path d="M107.982,110.498 C107.982,93.268 117.294,79.301 128.78,79.301 C140.266,79.301 149.577,93.268 149.577,110.498 C149.577,127.727 140.266,141.694 128.78,141.694 C117.294,141.694 107.982,127.727 107.982,110.498 Z" stroke-width="5" fill="none"></path>
                                <path d="M124.194,129.36 C124.194,125.786 127.091,122.888 130.666,122.888 C134.24,122.888 137.137,125.786 137.137,129.36 C137.137,132.934 134.24,135.832 130.666,135.832 C127.091,135.832 124.194,132.934 124.194,129.36 Z" stroke-width="5" fill="#262626" fill-rule="nonzero"></path>
                                <path d="M184.042,64.79 C193.837,64.79 192.942,93.047 193.837,100.429 C196.185,119.792 181.689,108.477 173.57,123.75 C172.023,126.661 173.706,104.901 173.707,100.429 C173.711,90.619 171.575,64.79 184.042,64.79 Z" stroke-width="5" fill="none"></path>
                                <path d="M11.977,122.168 C5.646,112.884 7.727,141.242 11.977,145.493" stroke-width="2.5" fill="none"></path>
                                <path d="M186.578,125.468 C195.508,115.813 190.103,145.493 190.103,145.493" stroke-width="2.5" fill="none"></path>
                                <path d="M55.825,151.07 C53.14,149.207 50.568,147.297 47.782,145.626" stroke-width="2.5" fill="none"></path>
                                <path d="M51.123,155.277 C46.027,151.928 48.193,153.442 44.565,150.823" stroke-width="2.5" fill="none"></path>
                                <path d="M117.138,232.824 C123.609,234.909 127.765,238.148 127.765,241.784 C127.765,248.074 115.331,264.386 99.992,264.386 C84.654,264.386 72.22,248.074 72.22,241.784 C72.22,238.364 75.896,235.296 81.716,233.208" stroke-width="5" fill="none"></path>
                            </g>
                        </g>
                    </g>
                    <g id="Mask-link" stroke-linecap="round" stroke-linejoin="round" stroke="#262626" stroke-width="5">
                        <polygon id="Mask" points="0.4374 0.301 315.604 0.301 315.604 315.468 0.4374 315.468"></polygon>
                    </g>
                </g>
            </g>
        </g>
        <text font-family="HaveaGreatDay, Have a Great Day" font-size="48" font-weight="normal" fill="#000000">
            <tspan x="139.316563" y="465">RUEDI</tspan>
        </text>
    </g>
</svg>