<?xml version="1.0" encoding="UTF-8"?>
<svg width="410px" height="510px" viewBox="0 0 410 510" version="1.1" xmlns="http://www.w3.org/2000/svg" xmlns:xlink="http://www.w3.org/1999/xlink">
    <!-- Generator: Sketch 49.3 (51167) - http://www.bohemiancoding.com/sketch -->
    <title>Simon</title>
    <desc>Created with Sketch.</desc>
    <defs>
        <radialGradient cx="65.1832678%" cy="36.5028321%" fx="65.1832678%" fy="36.5028321%" r="16.7968141%" gradientTransform="translate(0.651833,0.365028),scale(0.999996,1.000000),translate(-0.651833,-0.365028)" id="radialGradient-1">
            <stop stop-color="#262626" stop-opacity="0.653061" offset="0%"></stop>
            <stop stop-color="#262626" offset="100%"></stop>
        </radialGradient>
        <polygon id="path-2" points="0.4374 0.301 315.604 0.301 315.604 315.468 0.4374 315.468"></polygon>
    </defs>
    <g id="Simon" stroke="none" stroke-width="1" fill="none" fill-rule="evenodd">
        <g id="simon" transform="translate(6.000000, 1.000000)">
            <g id="Layer-1" fill-rule="nonzero">
                <path d="M387.758,53.812 L384.631,489.251 C381.68,489.431 376.416,489.765 373.167,489.946 C361.346,490.6 347.777,491.21 332.729,491.821 C283.173,493.835 232.045,494.831 180.843,494.601 C180.03,494.604 179.224,494.666 178.411,494.67 C124.877,494.387 71.301,492.619 19.4381,489.181 C19.3862,482.066 16.2535,55.2358 16.242,54.09 C16.2518,53.9558 11.7424,54.1048 11.74,54.1848 C11.7388,54.2718 9.074,142.775 8.1821,195.484 C7.3623,243.929 6.2379,295.344 4.847,348.204 C3.8136,387.475 0.8621,483.415 0.5392,493.003 C0.4261,496.358 0.1269,504.685 0.1223,504.814 C0.0519,506.808 1.7472,508.449 3.7353,508.289 C9.5794,507.817 15.443,507.39 21.3835,506.968 C125.298,499.584 236.278,499.881 340.858,504.814 C357.077,505.58 371.708,506.357 384.492,507.177 C388.965,507.464 400.093,508.275 400.264,508.289 C402.253,508.444 403.952,506.807 403.877,504.814 C403.873,504.692 402.806,474.059 402.418,462.361 C401.311,428.938 400.186,392.422 399.153,353.971 C397.361,287.29 395.99,221.953 395.192,160.744 C394.696,122.649 393.173,87.386 393.173,54.3036 C393.173,52.0881 387.774,51.5967 387.758,53.812 Z" id="Shape" fill-opacity="0.5" fill="#262626"></path>
                <path d="M12.9208,53.7843 L391.121,53.7843 L387.969,492.361 C387.969,492.361 202.021,504.967 16.0724,492.361 L12.9208,53.7843 Z" id="Shape" stroke="#262626" stroke-width="5" fill="#FFFFFF" stroke-linecap="round" stroke-linejoin="round"></path>
                <polygon id="Shape" stroke="#262626" stroke-width="3" fill-opacity="0.0969388" fill="#262626" stroke-linecap="round" stroke-linejoin="round" points="44.4374 85.301 359.604 85.301 359.604 400.468 44.4374 400.468"></polygon>
                <path d="M166.321,24.7689 C159.914,24.769 154.718,29.9653 154.718,36.3723 C154.718,42.7794 159.914,47.9756 166.321,47.9756 C168.249,47.9756 170.002,47.4178 171.602,46.586 L199.742,73.6142 C200.406,74.2519 201.251,74.5349 202.104,74.5174 C202.957,74.4999 203.759,74.1397 204.397,73.4753 C205.035,72.8108 205.387,71.9662 205.37,71.1129 C205.352,70.2595 204.992,69.3884 204.327,68.7505 L176.327,41.9308 C177.262,40.2582 177.925,38.4247 177.925,36.3723 C177.925,29.9653 172.728,24.7689 166.321,24.7689 Z" id="Shape" fill-opacity="0.5" fill="#262626"></path>
                <path d="M186.262,23.9025 L202.021,71.1775" id="Shape" stroke="#262626" stroke-width="5" fill="#262626" stroke-linecap="round" stroke-linejoin="round"></path>
                <path d="M170.504,12.3016 C170.504,5.8945 175.698,0.7007 182.105,0.7007 C188.512,0.7007 193.706,5.8945 193.706,12.3016 C193.706,18.7086 188.512,23.9026 182.105,23.9026 C175.698,23.9026 170.504,18.7086 170.504,12.3016 Z" id="Shape" stroke="#262626" stroke-width="3" fill="url(#radialGradient-1)" stroke-linecap="round" stroke-linejoin="round"></path>
            </g>
            <g id="Layer-3" transform="translate(109.000000, 142.000000)" fill-rule="nonzero">
                <path d="M84.594,0.875 C85.366,1.297 86.124,1.575 86.906,2.125 C87.946,2.857 88.833,3.58 89.969,4.562 C90.539,5.059 90.78,5.257 91,5.438 C91.19,5.594 91.371,5.736 91.531,5.844 C91.951,6.128 92.288,6.286 92.875,6.344 C93.965,6.45 94.86,6.177 96.344,5.5 C96.643,5.363 97.738,4.828 97.906,4.75 C98.574,4.439 99.157,4.209 99.75,3.969 C101.834,3.125 104.048,2.578 106.438,2.25 C105.54,2.731 104.829,3.211 104.375,3.812 C103.446,5.043 103.458,6.731 104.656,7.875 C105.313,8.502 106.175,8.841 107.344,9.094 C117.954,11.384 126.592,14.733 133.469,18.875 C138.122,21.678 141.672,24.67 144.281,27.625 C145.175,28.638 145.895,29.553 146.438,30.375 C146.743,30.837 146.911,31.163 146.969,31.281 C147.098,31.542 147.258,31.767 147.469,31.969 C147.454,31.955 147.534,32.03 147.656,32.188 C147.914,32.52 148.224,32.977 148.562,33.562 C149.591,35.343 150.627,37.788 151.625,41.062 C155.628,54.197 157.405,75.165 155.656,105.656 C155.546,106.177 155.195,107.777 155.031,108.531 C154.676,110.164 154.302,111.73 153.938,113.312 C153.801,110.599 153.612,109.594 153.469,105.5 C153.065,94.002 152.906,90.29 152.5,84.406 C151.413,68.655 149.334,56.76 145.469,47.531 C140.584,35.867 132.915,29.091 121.969,28.188 C112.632,27.417 107.564,29.136 99.281,34.25 C99.046,34.395 99.047,34.387 98.812,34.531 C92.333,38.531 88.877,39.824 82.688,39.688 C79.921,39.627 76.988,39.058 73.625,38 C70.844,37.125 68.51,36.203 63.5,34.094 C55.169,30.587 51.574,29.303 46.906,28.531 C40.504,27.473 34.819,28.428 29.5,31.844 C22.012,36.653 17.205,47.103 14.406,61.938 C12.337,72.905 11.492,85.539 11.531,98.594 C11.541,101.992 11.636,105.158 11.75,108.062 C11.176,107.179 10.562,106.388 9.875,105.719 C10.231,105.197 10.401,104.544 10.281,103.875 C4.224,70.069 5.939,45.788 14.156,29.688 C20.776,16.716 31.386,9.421 45.312,6.438 C54.091,4.556 62.636,4.471 74.188,5.469 C74.828,5.524 78.234,5.835 79.094,5.906 C80.775,6.045 81.94,6.124 82.906,6.125 C84.727,6.127 86.15,4.561 85.625,2.656 C85.447,2.011 85.121,1.5 84.594,0.875 Z" id="Shape" fill-opacity="0.496599" fill="#262626"></path>
                <path d="M116.125,33.062 C117.764,32.953 119.542,32.989 121.562,33.156 C138.034,34.516 145.254,51.747 147.531,84.75 C147.932,90.556 148.098,94.251 148.5,105.688 C148.875,116.369 149.134,121.357 149.719,126.188 C149.794,126.806 149.916,127.301 150.188,127.781 C150.906,129.051 152.513,129.627 153.906,128.781 C154.766,128.259 155.123,127.582 155.625,126.281 C156.165,124.883 156.808,122.643 157.562,119.656 C157.789,118.762 158.042,117.816 158.281,116.812 C158.578,115.567 158.864,114.218 159.156,112.906 C159.333,112.999 159.422,113.201 159.625,113.25 C160.967,113.576 162.33,112.748 162.656,111.406 C162.665,111.371 162.687,111.224 162.781,111 C162.95,110.599 163.184,110.211 163.469,109.844 C164.507,108.503 166.015,107.913 168.562,108.5 C171.908,109.271 172.816,119.598 169.781,131.375 C166.554,143.899 160.571,152.224 155.438,151.219 C154.964,151.126 154.546,151.311 154.125,151.469 C154.898,148.121 155.475,144.593 155.719,140.719 C155.806,139.341 154.753,138.149 153.375,138.062 C151.997,137.976 150.806,138.997 150.719,140.375 C149.645,157.417 143.157,168.23 131.062,177.312 C130.708,177.579 130.605,177.996 130.438,178.375 C129.298,177.188 128.514,176.323 127.156,174.938 C121.068,168.726 114.009,161.771 109.812,157.875 C109.307,157.405 108.639,157.164 108,157.188 C107.361,157.211 106.751,157.494 106.281,158 C105.87,158.443 105.752,159.003 105.719,159.562 C105.698,159.54 105.549,159.361 105.531,159.344 C104.555,158.367 102.945,158.367 101.969,159.344 C101.481,159.832 101.25,160.454 101.25,161.094 C101.25,161.734 101.481,162.387 101.969,162.875 C102.945,163.851 106.692,168.581 114.156,178.281 C114.179,178.31 117.066,182.006 119.469,185.125 C119.356,185.174 119.233,185.121 119.125,185.188 C111.537,189.901 107.905,192.555 104.812,196.25 C100.737,201.12 99.069,206.759 99.969,213.75 L99.938,213.438 L99.938,225.406 C99.938,226.787 101.057,227.906 102.438,227.906 C103.818,227.906 104.937,226.787 104.938,225.406 L104.938,222.375 C109.03,224.663 111.313,227.559 111.312,230.438 C111.312,236.669 101.11,242.406 88.094,242.406 C75.078,242.406 64.844,236.669 64.844,230.438 C64.844,227.872 66.632,225.276 69.969,223.094 L69.969,225.406 C69.969,226.787 71.088,227.906 72.469,227.906 C73.849,227.906 74.969,226.787 74.969,225.406 L74.969,213.438 C75.199,206.009 72.848,199.911 68.094,194.688 C64.411,190.641 59.909,187.543 51.938,182.969 C51.572,182.759 46.524,179.868 45.031,179 C36.694,174.153 31.406,170.294 27.094,165.375 C21.728,159.254 18.571,151.955 17.75,142.688 C17.628,141.312 16.407,140.316 15.031,140.438 C13.656,140.559 12.659,141.781 12.781,143.156 C12.804,143.409 12.881,143.625 12.906,143.875 C12.766,143.901 12.638,143.824 12.5,143.875 C8.662,145.286 4.305,138.922 2,128.031 C0.937,123.008 0.532,117.803 0.875,113.812 C1.041,111.883 1.385,110.323 1.844,109.281 C2.17,108.54 2.414,108.276 2.531,108.25 C5.079,107.68 7.006,109.185 8.562,112.594 C9.088,113.744 9.525,114.993 9.844,116.25 C9.956,116.691 10.023,117.106 10.094,117.469 C10.135,117.677 10.179,117.816 10.188,117.875 C10.395,119.24 11.666,120.177 13.031,119.969 C14.396,119.761 15.333,118.49 15.125,117.125 C15.057,116.678 14.921,115.951 14.688,115.031 C14.666,114.946 14.616,114.867 14.594,114.781 C14.604,114.781 14.614,114.782 14.625,114.781 C16.002,114.686 17.033,113.471 16.938,112.094 C16.925,111.921 16.794,109.257 16.75,108.156 C16.633,105.243 16.541,102.028 16.531,98.594 C16.439,67.729 21.096,43.174 32.219,36.031 C36.43,33.327 40.851,32.602 46.094,33.469 C50.234,34.153 53.608,35.371 61.562,38.719 C66.717,40.888 69.145,41.844 72.125,42.781 C75.905,43.971 79.304,44.615 82.594,44.688 C89.951,44.849 94.211,43.242 101.438,38.781 C101.673,38.636 101.672,38.645 101.906,38.5 C107.5,35.046 111.208,33.392 116.125,33.062 Z" id="Shape" fill="#FFFFFF"></path>
                <path d="M110.219,165.281 C114.281,169.179 118.896,173.644 123.594,178.438 C126.583,181.487 129.053,184.083 130.781,185.969 C129.936,186.359 129.101,186.767 128.312,187.406 C128.189,187.506 128.039,187.642 127.844,187.812 C126.337,185.919 125.541,184.931 118.188,175.375 C118.158,175.337 113.879,169.921 110.219,165.281 Z" id="Shape" fill="#FFFFFF"></path>
                <path d="M60.531,226.812 C60.121,227.986 59.844,229.185 59.844,230.438 C59.844,240.203 72.683,247.406 88.094,247.406 C103.504,247.406 116.313,240.203 116.312,230.438 C116.312,229.445 116.07,228.506 115.812,227.562 C128.845,229.758 138.837,235.296 146.156,244.094 C149.066,247.592 151.479,251.58 153.594,255.969 L23.312,255.969 C31.347,242.241 43.93,232.163 60.531,226.812 Z" id="Shape" fill-opacity="0.20068" fill="#262626"></path>
            </g>
            <g id="Layer-3_2" transform="translate(44.000000, 85.000000)">
                <g id="Group">
                    <g id="Clipped">
                        <mask id="mask-3" fill="white">
                            <use xlink:href="#path-2"></use>
                        </mask>
                        <g id="Mask"></g>
                        <g id="Group" mask="url(#mask-3)">
                            <g transform="translate(63.000000, 53.000000)" id="Shape">
                                <path d="M16.451,116.274 C16.451,116.274 16.067,110.754 16.043,102.6 C15.984,82.793 18.042,47.447 32.854,37.936 C49.491,27.251 67.19,45.8 84.646,46.184 C102.102,46.568 103.79,33.024 123.778,34.675 C157.562,37.464 150.826,102.005 154.2,129.896 C154.867,135.405 160.164,109.786 160.164,109.786 C163.81,46.212 151.21,34.162 151.21,34.162 C151.21,34.162 143.133,17.826 109.865,10.645 C102.398,9.033 122.767,4.519 120.294,4.099 C103.753,1.294 97.715,8.118 95.115,7.865 C94.408,7.796 87.468,-0.314 79.109,0.307 C77.529,0.424 87.062,7.624 84.918,7.621 C69.478,7.602 -11.841,-12.516 9.81,108.331" stroke="#262626" stroke-width="5" fill="none" stroke-linecap="round" stroke-linejoin="round"></path>
                                <path d="M66.635,380.38 C54.068,380.255 39.448,380.725 35.87,382.514 C23.591,388.653 41.026,338.565 42.45,308.658 C43.408,298.541 44.631,288.35 46.195,278.822 C46.406,277.533 39.004,290.578 39.004,290.578 C39.004,298.073 14.554,280.454 15.021,278.587 C21.017,254.604 37.319,234.736 65.565,227.141" stroke="#262626" stroke-width="5" fill="none" stroke-linecap="round" stroke-linejoin="round"></path>
                                <path d="M115.273,228.481 C147.842,232.505 159.102,256.189 164.401,277.385 C165.855,283.202 140.418,289.376 140.418,289.376 C140.418,289.376 132.373,272.472 133.13,277.027 C140.418,320.92 133.316,343.508 142.764,380.354 C143.258,382.279 131.097,382.117 117.705,381.856" stroke="#262626" stroke-width="5" fill="none" stroke-linecap="round" stroke-linejoin="round"></path>
                                <path d="M15.377,150.21 C2.037,155.115 -4.339,111.661 3.998,109.797 C12.575,107.88 14.65,121.497 14.65,121.497" stroke="#262626" stroke-width="5" fill="none" stroke-linecap="round" stroke-linejoin="round"></path>
                                <path d="M17.266,146.923 C21.175,191.028 75.489,184.268 74.466,217.428 L74.466,229.419" stroke="#262626" stroke-width="5" fill="none" stroke-linecap="round" stroke-linejoin="round"></path>
                                <path d="M156.942,157.664 C172.368,160.684 182.805,112.756 171.12,110.064 C163.782,108.373 162.213,114.824 162.213,114.824" stroke="#262626" stroke-width="5" fill="none" stroke-linecap="round" stroke-linejoin="round"></path>
                                <path d="M122.438,191.301 C111.617,198.022 102.72,204.025 104.444,217.428 L104.444,229.419" stroke="#262626" stroke-width="5" fill="none" stroke-linecap="round" stroke-linejoin="round"></path>
                                <path d="M155.224,144.547 C153.946,164.842 144.783,175.635 134.568,183.306" stroke="#262626" stroke-width="5" fill="none" stroke-linecap="round" stroke-linejoin="round"></path>
                                <path d="M86.75,138.5 C89.975,146.06 103.205,132.273 103.761,142.057 C104.317,151.841 95.423,159.179 82.525,150.841" stroke="#262626" stroke-width="5" fill="none" stroke-linecap="round" stroke-linejoin="round"></path>
                                <path d="M63.216,168.815 C63.216,168.815 79.405,163.728 94.389,162.802 C100.355,162.433 107.206,162.011 114.204,163.042 C122.769,164.304 112.055,176.074 98.345,165.809" stroke="#262626" stroke-width="5" fill="none" stroke-linecap="round" stroke-linejoin="round"></path>
                                <path d="M44.684,113.562 C44.684,97.032 53.617,83.632 64.637,83.632 C75.657,83.632 84.591,97.032 84.591,113.562 C84.591,130.092 75.657,143.492 64.637,143.492 C53.617,143.492 44.684,130.092 44.684,113.562 Z" stroke="#262626" stroke-width="5" fill="none" stroke-linecap="round" stroke-linejoin="round"></path>
                                <path d="M62.753,128.691 C62.753,125.935 64.986,123.702 67.741,123.702 C70.496,123.702 72.729,125.935 72.729,128.691 C72.729,131.445 70.496,133.679 67.741,133.679 C64.986,133.679 62.753,131.445 62.753,128.691 Z" stroke="#262626" stroke-width="5" fill="#262626" fill-rule="nonzero" stroke-linecap="round" stroke-linejoin="round"></path>
                                <path d="M46.711,67.574 C64.934,62.011 71.103,78.686 79.351,74.082 C86.713,69.974 68.54,64.609 46.672,67.102" stroke="#262626" stroke-width="5" fill="#262626" fill-rule="nonzero" stroke-linecap="round" stroke-linejoin="round"></path>
                                <path d="M129.122,58.505 C104.487,44.461 99.366,74.579 97.411,70.418 C95.513,66.375 106.866,37.861 129.506,58.122" stroke="#262626" stroke-width="5" fill="#262626" fill-rule="nonzero" stroke-linecap="round" stroke-linejoin="round"></path>
                                <path d="M9.56,122.688 C8.985,120.578 7.243,114.132 5.332,117.299 C3.086,121.02 4.557,126.709 6.519,135.832" stroke="#262626" stroke-width="2.5" fill="none" stroke-linecap="round" stroke-linejoin="round"></path>
                                <path d="M163.309,117.798 C171.614,108.109 172.946,126.385 167.001,141.072" stroke="#262626" stroke-width="2.5" fill="none" stroke-linecap="round" stroke-linejoin="round"></path>
                                <path d="M110.108,163.696 C118.676,171.652 138.532,191.726 137.26,191.583 C132.123,191.004 130.168,196.266 129.084,194.911 C123.829,188.342 108.058,167.411 105.749,165.102" stroke="#262626" stroke-width="5" fill="none" stroke-linecap="round" stroke-linejoin="round"></path>
                                <path d="M137.477,191.8 C143.495,194.809 131.56,199.356 130.242,196.72" stroke="#262626" stroke-width="5" fill="none" stroke-linecap="round" stroke-linejoin="round"></path>
                                <path d="M97.98,136.279 C93.731,130.79 91.041,122.662 91.041,113.591 C91.041,97.06 99.974,83.66 110.995,83.66 C122.014,83.66 130.948,97.06 130.948,113.591 C130.948,130.12 122.014,143.52 110.995,143.52 C109.718,143.52 108.47,143.341 107.261,142.997" stroke="#262626" stroke-width="5" fill="none" stroke-linecap="round" stroke-linejoin="round"></path>
                                <path d="M101.253,126.177 C101.253,123.422 103.486,121.188 106.241,121.188 C108.996,121.188 111.23,123.422 111.23,126.177 C111.23,128.932 108.996,131.166 106.241,131.166 C103.486,131.166 101.253,128.932 101.253,126.177 Z" stroke="#262626" stroke-width="5" fill="#262626" fill-rule="nonzero" stroke-linecap="round" stroke-linejoin="round"></path>
                                <path d="M83.179,107.361 C83.179,107.361 62.583,94.477 49.135,97.298" stroke="#262626" stroke-width="5" fill="none" stroke-linecap="round" stroke-linejoin="round"></path>
                                <path d="M30.781,154.125 C30.141,154.125 29.488,154.356 29,154.844 C28.512,155.332 28.281,155.985 28.281,156.625 C28.281,157.265 28.512,157.887 29,158.375 C29.488,158.863 30.141,159.125 30.781,159.125 C31.421,159.125 32.043,158.863 32.531,158.375 C33.019,157.887 33.281,157.265 33.281,156.625 C33.281,155.985 33.019,155.332 32.531,154.844 C32.043,154.356 31.421,154.125 30.781,154.125 Z" stroke="none" fill="#262626" fill-rule="nonzero"></path>
                                <path d="M38.531,156.312 C37.891,156.312 37.269,156.543 36.781,157.031 C36.293,157.519 36.031,158.173 36.031,158.812 C36.031,159.452 36.293,160.074 36.781,160.562 C37.269,161.051 37.891,161.312 38.531,161.312 C39.171,161.312 39.824,161.051 40.312,160.562 C40.801,160.074 41.031,159.452 41.031,158.812 C41.031,158.173 40.801,157.519 40.312,157.031 C39.824,156.543 39.171,156.312 38.531,156.312 Z" stroke="none" fill="#262626" fill-rule="nonzero"></path>
                                <path d="M49.438,168.438 C44.582,169.635 44.581,169.629 44.656,169.969 C44.732,170.308 44.725,170.324 44.75,170.438 C44.9,171.111 45.304,171.657 45.844,172 C46.384,172.343 47.045,172.494 47.719,172.344 C48.393,172.194 48.969,171.79 49.312,171.25 C49.656,170.71 49.775,170.018 49.625,169.344 C49.6,169.231 49.463,168.551 49.438,168.438 Z" stroke="none" fill="#262626" fill-rule="nonzero"></path>
                                <path d="M56.125,172.375 C54.745,172.405 53.657,173.526 53.688,174.906 L53.688,175.094 C53.718,176.474 54.87,177.562 56.25,177.531 C57.63,177.501 58.718,176.38 58.688,175 L58.688,174.812 C58.657,173.432 57.505,172.345 56.125,172.375 Z" stroke="none" fill="#262626" fill-rule="nonzero"></path>
                                <path d="M65.969,174.688 C64.654,175.11 63.952,176.529 64.375,177.844 C64.403,177.93 64.482,178.204 64.5,178.25 C64.538,178.35 64.58,178.436 64.625,178.531 C64.676,178.637 64.682,178.639 64.781,178.812 C64.911,179.045 64.923,179.027 65.562,179.594 C66.25,179.997 66.248,179.997 67.656,179.906 C68.869,179.229 68.866,179.243 69.219,178.562 C69.459,177.769 69.446,177.766 69.438,177.5 C69.439,177.305 69.436,177.136 69.406,176.938 C69.343,176.516 69.02,176.257 68.781,175.938 C68.773,175.928 68.759,175.885 68.75,175.875 C68.578,175.658 68.481,175.43 68.25,175.281 C67.613,174.741 66.822,174.413 65.969,174.688 Z M64.781,176.344 C64.587,176.769 64.394,177.19 64.469,177.688 C64.463,177.649 64.437,177.597 64.438,177.469 C64.427,177.245 64.422,177.24 64.656,176.469 C64.686,176.411 64.756,176.392 64.781,176.344 Z" stroke="none" fill="#262626" fill-rule="nonzero"></path>
                                <path d="M81.25,177.25 C80.61,177.25 79.957,177.512 79.469,178 C78.981,178.488 78.75,179.11 78.75,179.75 C78.75,180.39 78.981,181.043 79.469,181.531 C79.957,182.019 80.61,182.25 81.25,182.25 C81.89,182.25 82.543,182.019 83.031,181.531 C83.519,181.043 83.75,180.39 83.75,179.75 C83.75,179.11 83.519,178.488 83.031,178 C82.543,177.512 81.89,177.25 81.25,177.25 Z" stroke="none" fill="#262626" fill-rule="nonzero"></path>
                                <path d="M102.562,177.688 C101.923,177.688 101.269,177.949 100.781,178.438 C100.293,178.926 100.062,179.548 100.062,180.188 C100.062,180.827 100.293,181.481 100.781,181.969 C101.269,182.457 101.923,182.688 102.562,182.688 C103.202,182.688 103.856,182.457 104.344,181.969 C104.832,181.481 105.062,180.827 105.062,180.188 C105.062,179.548 104.832,178.926 104.344,178.438 C103.856,177.949 103.202,177.688 102.562,177.688 Z" stroke="none" fill="#262626" fill-rule="nonzero"></path>
                                <path d="M88.688,191.25 C88.048,191.25 87.394,191.481 86.906,191.969 C86.418,192.457 86.188,193.11 86.188,193.75 C86.188,194.39 86.418,195.012 86.906,195.5 C87.394,195.988 88.048,196.25 88.688,196.25 C89.327,196.25 89.949,195.988 90.438,195.5 C90.926,195.012 91.188,194.39 91.188,193.75 C91.188,193.11 90.926,192.457 90.438,191.969 C89.949,191.481 89.327,191.25 88.688,191.25 Z" stroke="none" fill="#262626" fill-rule="nonzero"></path>
                                <path d="M72.875,189.406 C72.235,189.406 71.582,189.637 71.094,190.125 C70.606,190.613 70.375,191.266 70.375,191.906 C70.375,192.546 70.606,193.168 71.094,193.656 C71.582,194.144 72.235,194.406 72.875,194.406 C73.515,194.406 74.137,194.144 74.625,193.656 C75.113,193.168 75.375,192.546 75.375,191.906 C75.375,191.266 75.113,190.613 74.625,190.125 C74.137,189.637 73.515,189.406 72.875,189.406 Z" stroke="none" fill="#262626" fill-rule="nonzero"></path>
                                <path d="M102.219,194.719 C101.579,194.719 100.926,194.981 100.438,195.469 C99.949,195.957 99.719,196.579 99.719,197.219 C99.719,197.859 99.949,198.512 100.438,199 C100.926,199.488 101.579,199.719 102.219,199.719 C102.859,199.719 103.481,199.488 103.969,199 C104.457,198.512 104.719,197.859 104.719,197.219 C104.719,196.579 104.457,195.957 103.969,195.469 C103.481,194.981 102.859,194.719 102.219,194.719 Z" stroke="none" fill="#262626" fill-rule="nonzero"></path>
                                <path d="M47.719,148.438 C47.079,148.438 46.426,148.699 45.938,149.188 C45.449,149.676 45.219,150.298 45.219,150.938 C45.219,151.577 45.449,152.231 45.938,152.719 C46.426,153.207 47.079,153.438 47.719,153.438 C48.359,153.438 48.981,153.207 49.469,152.719 C49.957,152.231 50.219,151.577 50.219,150.938 C50.219,150.298 49.957,149.676 49.469,149.188 C48.981,148.699 48.359,148.438 47.719,148.438 Z" stroke="none" fill="#262626" fill-rule="nonzero"></path>
                                <path d="M58.438,153.844 C57.798,153.844 57.144,154.074 56.656,154.562 C56.168,155.051 55.938,155.704 55.938,156.344 C55.938,156.984 56.168,157.606 56.656,158.094 C57.144,158.582 57.798,158.844 58.438,158.844 C59.077,158.844 59.699,158.582 60.188,158.094 C60.676,157.606 60.938,156.984 60.938,156.344 C60.938,155.704 60.676,155.051 60.188,154.562 C59.699,154.074 59.077,153.844 58.438,153.844 Z" stroke="none" fill="#262626" fill-rule="nonzero"></path>
                                <path d="M145.748,147.172 C145.456,148.923 145.748,147.172 145.748,147.172" stroke="#262626" stroke-width="5" fill="none" stroke-linecap="round" stroke-linejoin="round"></path>
                                <path d="M137.438,156.719 C136.798,156.719 136.144,156.949 135.656,157.438 C135.168,157.926 134.938,158.579 134.938,159.219 C134.938,159.859 135.168,160.481 135.656,160.969 C136.144,161.457 136.798,161.719 137.438,161.719 C138.077,161.719 138.699,161.457 139.188,160.969 C139.676,160.481 139.938,159.859 139.938,159.219 C139.938,158.579 139.676,157.926 139.188,157.438 C138.699,156.949 138.077,156.719 137.438,156.719 Z" stroke="none" fill="#262626" fill-rule="nonzero"></path>
                                <path d="M125.062,152.656 C124.372,152.656 123.765,152.954 123.312,153.406 C122.86,153.859 122.562,154.466 122.562,155.156 L122.562,155.812 C126.312,155.75 127.266,155.749 127.5,155.5 C127.5,155.497 127.562,155.503 127.562,155.5 C127.562,155.251 127.562,155.239 127.562,155.156 C127.562,153.776 126.443,152.656 125.062,152.656 Z" stroke="none" fill="#262626" fill-rule="nonzero"></path>
                                <path d="M128.25,162.625 C127.61,162.625 126.957,162.856 126.469,163.344 C125.981,163.832 125.75,164.485 125.75,165.125 C125.75,165.765 125.981,166.387 126.469,166.875 C126.957,167.363 127.61,167.625 128.25,167.625 C128.89,167.625 129.512,167.363 130,166.875 C130.488,166.387 130.75,165.765 130.75,165.125 C130.75,164.485 130.488,163.832 130,163.344 C129.512,162.856 128.89,162.625 128.25,162.625 Z" stroke="none" fill="#262626" fill-rule="nonzero"></path>
                                <path d="M113.375,153.656 C112.735,153.656 112.082,153.887 111.594,154.375 C111.106,154.863 110.875,155.516 110.875,156.156 C110.875,156.796 111.106,157.418 111.594,157.906 C112.082,158.394 112.735,158.656 113.375,158.656 C114.015,158.656 114.637,158.394 115.125,157.906 C115.613,157.418 115.875,156.796 115.875,156.156 C115.875,155.516 115.613,154.863 115.125,154.375 C114.637,153.887 114.015,153.656 113.375,153.656 Z" stroke="none" fill="#262626" fill-rule="nonzero"></path>
                                <path d="M107.388,223.705 C112.572,226.354 115.826,230.177 115.826,234.428 C115.826,242.427 104.304,248.911 90.091,248.911 C75.877,248.911 64.355,242.427 64.355,234.428 C64.355,230.747 66.796,227.387 70.816,224.831" stroke="#262626" stroke-width="5" fill="none" stroke-linecap="round" stroke-linejoin="round"></path>
                                <path d="M74.835,89.125 L76.308,101.533" stroke="#262626" stroke-width="5" fill="#262626" fill-rule="nonzero" stroke-linecap="round" stroke-linejoin="round"></path>
                                <path d="M66.959,85.896 L68.772,98.473" stroke="#262626" stroke-width="5" fill="#262626" fill-rule="nonzero" stroke-linecap="round" stroke-linejoin="round"></path>
                                <path d="M61.294,86.009 L62.937,96.434" stroke="#262626" stroke-width="5" fill="#262626" fill-rule="nonzero" stroke-linecap="round" stroke-linejoin="round"></path>
                                <path d="M55.572,88.445 L55.968,95.414" stroke="#262626" stroke-width="5" fill="#262626" fill-rule="nonzero" stroke-linecap="round" stroke-linejoin="round"></path>
                                <path d="M84.645,117.471 C85.332,123.424 79.839,151.697 64.572,151.054 C48.771,150.388 44.117,129.302 44.117,116.708" stroke="#262626" stroke-width="5" fill="none" stroke-linecap="round" stroke-linejoin="round"></path>
                                <path d="M56.278,142.888 C56.955,144.693 57.407,146.568 58.089,148.358" stroke="#262626" stroke-width="5" fill="none" stroke-linecap="round" stroke-linejoin="round"></path>
                                <path d="M63.559,144.622 C63.559,145.946 64.581,147.944 65.215,149.167" stroke="#262626" stroke-width="5" fill="none" stroke-linecap="round" stroke-linejoin="round"></path>
                                <path d="M70.068,144.121 C70.068,145.588 70.785,146.956 71.186,148.358" stroke="#262626" stroke-width="5" fill="none" stroke-linecap="round" stroke-linejoin="round"></path>
                            </g>
                        </g>
                    </g>
                    <g id="Mask-link" stroke-linecap="round" stroke-linejoin="round" stroke="#262626" stroke-width="5">
                        <polygon id="Mask" points="0.4374 0.301 315.604 0.301 315.604 315.468 0.4374 315.468"></polygon>
                    </g>
                </g>
            </g>
        </g>
        <text font-family="HaveaGreatDay, Have a Great Day" font-size="48" font-weight="normal" fill="#000000">
            <tspan x="131.996562" y="465">SIMON</tspan>
        </text>
    </g>
</svg>