<?xml version="1.0" encoding="UTF-8"?>
<svg width="410px" height="510px" viewBox="0 0 410 510" version="1.1" xmlns="http://www.w3.org/2000/svg" xmlns:xlink="http://www.w3.org/1999/xlink">
    <!-- Generator: Sketch 50.2 (55047) - http://www.bohemiancoding.com/sketch -->
    <title>Stephane</title>
    <desc>Created with Sketch.</desc>
    <defs>
        <radialGradient cx="65.1832678%" cy="36.5028321%" fx="65.1832678%" fy="36.5028321%" r="37.3460364%" gradientTransform="translate(0.651833,0.365028),scale(0.999996,1.000000),translate(-0.651833,-0.365028)" id="radialGradient-1">
            <stop stop-color="#262626" stop-opacity="0.653061" offset="0%"></stop>
            <stop stop-color="#262626" offset="100%"></stop>
        </radialGradient>
        <polyline id="path-2" points="0.4374 202.026 0.4374 0.301 315.604 0.301 315.604 315.468 0.4374 315.468 0.4374 202.026"></polyline>
    </defs>
    <g id="Stephane" stroke="none" stroke-width="1" fill="none" fill-rule="evenodd">
        <g id="stephane" transform="translate(3.000000, 1.000000)">
            <g id="Layer-1" fill-rule="nonzero">
                <path d="M387.758,53.812 L384.631,489.251 C381.68,489.431 376.416,489.765 373.167,489.946 C361.346,490.6 347.777,491.21 332.729,491.821 C283.173,493.835 232.045,494.831 180.843,494.601 C180.03,494.604 179.224,494.666 178.411,494.67 C124.877,494.387 71.301,492.619 19.4381,489.181 C19.3862,482.066 16.2535,55.2358 16.242,54.09 C16.2518,53.9558 11.7424,54.1048 11.74,54.1848 C11.7388,54.2718 9.074,142.775 8.1821,195.484 C7.3623,243.929 6.2379,295.344 4.847,348.204 C3.8136,387.475 0.8621,483.415 0.5392,493.003 C0.4261,496.358 0.1269,504.685 0.1223,504.814 C0.0519,506.808 1.7472,508.449 3.7353,508.289 C9.5794,507.817 15.443,507.39 21.3835,506.968 C125.298,499.584 236.278,499.881 340.858,504.814 C357.077,505.58 371.708,506.357 384.492,507.177 C388.965,507.464 400.093,508.275 400.264,508.289 C402.253,508.444 403.952,506.807 403.877,504.814 C403.873,504.692 402.806,474.059 402.418,462.361 C401.311,428.938 400.186,392.422 399.153,353.971 C397.361,287.29 395.99,221.953 395.192,160.744 C394.696,122.649 393.173,87.386 393.173,54.3036 C393.173,52.0881 387.774,51.5967 387.758,53.812 Z" id="Shape" fill-opacity="0.5" fill="#262626"></path>
                <path d="M12.9208,53.7843 L391.121,53.7843 L387.969,492.361 C387.969,492.361 202.021,504.967 16.0724,492.361 L12.9208,53.7843 Z" id="Shape" stroke="#262626" stroke-width="5" fill="#FFFFFF" stroke-linecap="round" stroke-linejoin="round"></path>
                <polygon id="Shape" stroke="#262626" stroke-width="3" fill-opacity="0.0969388" fill="#262626" stroke-linecap="round" stroke-linejoin="round" points="44.4374 85.301 359.604 85.301 359.604 400.468 44.4374 400.468"></polygon>
                <path d="M166.321,24.7689 C159.914,24.769 154.718,29.9653 154.718,36.3723 C154.718,42.7794 159.914,47.9756 166.321,47.9756 C168.249,47.9756 170.002,47.4178 171.602,46.586 L199.742,73.6142 C200.406,74.2519 201.251,74.5349 202.104,74.5174 C202.957,74.4999 203.759,74.1397 204.397,73.4753 C205.035,72.8108 205.387,71.9662 205.37,71.1129 C205.352,70.2595 204.992,69.3884 204.327,68.7505 L176.327,41.9308 C177.262,40.2582 177.925,38.4247 177.925,36.3723 C177.925,29.9653 172.728,24.7689 166.321,24.7689 Z" id="Shape" fill-opacity="0.5" fill="#262626"></path>
                <path d="M186.262,23.9025 L202.021,71.1775" id="Shape" stroke="#262626" stroke-width="5" fill="#262626" stroke-linecap="round" stroke-linejoin="round"></path>
                <path d="M170.504,12.3016 C170.504,5.8945 175.698,0.7007 182.105,0.7007 C188.512,0.7007 193.706,5.8945 193.706,12.3016 C193.706,18.7086 188.512,23.9026 182.105,23.9026 C175.698,23.9026 170.504,18.7086 170.504,12.3016 Z" id="Shape" stroke="#262626" stroke-width="3" fill="url(#radialGradient-1)" stroke-linecap="round" stroke-linejoin="round"></path>
            </g>
            <g id="Layer-3" transform="translate(104.000000, 151.000000)" fill-rule="nonzero">
                <path d="M45.406,0.812 C51.59,0.982 58.069,1.82 65.938,3.375 C69.127,4.005 72.487,4.745 76.875,5.75 C78.223,6.059 86.128,7.898 88.5,8.438 C99.678,10.982 109.112,12.744 118.344,14 C52.315,23.378 11.248,41.125 2.906,65.312 C1.308,57.219 0.184,48.426 0.188,40.438 C0.195,22.614 5.109,10.472 15.656,6.188 C25.574,2.158 35.091,0.529 45.406,0.812 Z" id="Shape" fill-opacity="0.5" fill="#262626"></path>
                <path d="M159.375,14.656 C185.255,13.728 199.378,19.25 203.719,29.188 C207.305,37.398 203.775,49.163 197,57.719 C194.406,60.995 191.844,63.941 189.344,66.719 C186.549,48.237 146.301,34.698 93.406,34.25 C66.265,34.02 42.669,39.644 25.406,49.406 C20.076,52.42 15.583,55.766 11.938,59.25 C27.422,38.222 74.829,22.444 147.562,15.469 C151.746,15.068 155.678,14.789 159.375,14.656 Z" id="Shape" fill-opacity="0.5" fill="#262626"></path>
                <path d="M93.375,39.25 C120.642,39.481 144.119,43.41 160.531,49.25 C160.555,49.379 160.454,49.497 160.5,49.625 C161.375,52.057 161.739,54.943 161.594,58.188 C161.413,62.227 160.483,66.604 159.062,71.031 C158.499,72.788 157.884,74.431 157.281,75.906 C157.072,76.42 156.892,76.891 156.719,77.281 C156.618,77.509 156.533,77.649 156.5,77.719 C155.323,80.205 158.45,82.494 160.469,80.625 C160.546,80.553 164.493,76.959 165.656,75.938 C165.81,75.802 165.975,75.693 166.125,75.562 C166.188,75.507 166.219,75.492 166.281,75.438 C165.869,76.723 165.501,77.936 164.906,79.469 C164.437,80.677 163.93,81.95 163.375,83.25 C162.406,85.521 161.353,87.792 160.312,89.969 C159.948,90.73 159.004,92.682 158.938,92.812 C157.584,95.473 161.192,97.832 163.094,95.531 C163.156,95.456 164.03,94.375 164.375,93.969 C165.359,92.809 166.38,91.673 167.344,90.594 C167.336,90.617 167.352,90.633 167.344,90.656 C167.099,91.366 166.824,92.108 166.531,92.875 C166.038,94.166 165.499,95.453 164.969,96.688 C164.783,97.119 164.314,98.21 164.281,98.281 C164.278,98.29 164.254,98.304 164.25,98.312 C163.589,99.827 164.397,101.081 165.531,101.594 C165.389,102.287 165.161,102.955 165.062,103.656 C164.925,104.638 164.868,105.436 164.844,105.906 C164.772,107.285 165.809,108.459 167.188,108.531 C168.566,108.603 169.772,107.535 169.844,106.156 C169.847,106.086 169.854,105.919 169.875,105.688 C169.911,105.288 169.963,104.86 170.031,104.375 C170.225,102.996 170.507,101.603 170.906,100.344 C171.887,97.248 173.232,95.656 174.812,95.656 C175.229,95.656 176.005,95.855 176.781,96.219 C177.779,96.686 178.638,97.377 179.25,98.25 C180.952,100.678 180.861,104.558 177.938,110.375 C176.84,112.56 175.788,114.987 174.719,117.719 C174.025,119.491 173.356,121.301 172.531,123.625 C172.557,123.554 171.055,127.866 170.656,128.969 C169.438,132.339 168.633,134.066 167.906,135.188 C167.415,134.343 166.844,133.107 166.156,131 C165.896,130.204 165.243,129.764 164.5,129.531 C164.055,129.312 163.594,129.104 163.062,129.188 C161.699,129.402 160.754,130.667 160.969,132.031 C162.432,141.334 160.882,147.856 156.625,152.906 C153.205,156.963 148.784,159.719 139.594,164.156 C139.034,164.427 135.266,166.249 134.5,166.625 C126.646,170.482 121.589,173.624 117.125,177.844 C111.54,183.123 107.83,189.592 106,197.781 C101.941,198.219 97.208,198.531 91.969,198.531 C87.399,198.531 83.264,198.277 79.531,197.938 C79.526,197.903 79.569,197.878 79.562,197.844 C77.87,189.286 74.053,182.673 68.219,177.375 C63.672,173.246 58.52,170.25 50.438,166.594 C49.7,166.26 46.042,164.633 45.531,164.406 C35.773,160.07 31.232,157.405 27.781,153.25 C23.467,148.054 22.135,141.058 24.25,130.844 C24.417,130.039 24.099,129.347 23.594,128.781 C23.325,128.132 22.877,127.579 22.156,127.344 C20.844,126.915 19.428,127.625 19,128.938 C18.311,131.05 17.814,131.791 17.344,132.562 C16.681,131.459 15.996,130.014 14.906,127 C14.524,125.944 13.038,121.807 13.062,121.875 C12.273,119.649 11.633,117.917 10.969,116.219 C9.944,113.6 8.959,111.282 7.906,109.188 C5.124,103.651 5.021,99.976 6.625,97.688 C7.199,96.868 7.999,96.221 8.938,95.781 C9.667,95.44 10.43,95.25 10.812,95.25 C12.266,95.25 13.511,96.732 14.438,99.656 C14.817,100.856 15.097,102.186 15.281,103.5 C15.346,103.962 15.403,104.369 15.438,104.75 C15.457,104.97 15.465,105.122 15.469,105.188 C15.541,106.566 16.715,107.635 18.094,107.562 C19.473,107.49 20.541,106.316 20.469,104.938 C20.445,104.484 20.382,103.724 20.25,102.781 C20.146,102.037 19.909,101.327 19.75,100.594 C21.713,102.297 23.537,103.342 25.219,102.781 C27.153,102.136 27.153,102.676 26.938,100.156 C26.93,100.069 26.921,99.974 26.906,99.875 C26.887,99.746 25.826,93.795 25.531,91.844 C25.12,89.126 24.795,86.526 24.562,84.094 C24.412,82.521 24.492,81.512 24.438,80.156 C24.466,80.252 24.617,80.755 24.625,80.781 C25.793,84.672 26.617,87.263 27.25,88.812 C27.463,89.334 27.645,89.757 27.844,90.094 C28.005,90.367 28.182,90.588 28.406,90.812 C28.989,91.397 29.763,91.771 30.812,91.562 C31.909,91.345 32.491,90.658 32.781,89.844 C32.894,89.527 32.942,89.217 32.969,88.875 C33.004,88.433 32.988,87.889 32.938,87.188 C32.907,86.757 32.897,86.559 32.875,86.094 C32.39,76.042 33.808,63.891 38.781,52.25 C39.167,51.347 39.576,50.471 40,49.594 C40.241,49.095 40.187,48.57 40.094,48.062 C54.914,42.305 73.055,39.078 93.375,39.25 Z" id="Shape" fill="#FFFFFF"></path>
                <path d="M34.094,50.562 C30.569,58.898 28.845,67.33 28.188,75.25 C27.654,73.447 27.177,71.865 27,71.281 C26.681,70.227 26.437,69.448 26.25,68.906 C26.133,68.567 26.034,68.308 25.938,68.094 C25.844,67.885 25.767,67.697 25.625,67.5 C25.423,67.22 25.198,67 24.812,66.781 C23.878,66.25 22.633,66.336 21.781,67.188 C19.131,69.837 18.742,75.645 19.594,84.562 C19.836,87.095 20.17,89.792 20.594,92.594 C20.707,93.345 20.851,94.088 20.969,94.812 C20.589,94.396 20.266,94.157 19.875,93.688 C18.732,92.317 17.64,90.87 16.844,89.625 C16.466,89.035 16.188,88.513 16,88.125 C15.923,87.966 15.869,87.826 15.844,87.75 C15.856,87.788 15.875,87.875 15.875,88.062 C15.875,86.682 14.756,85.563 13.375,85.562 C12.77,85.562 12.245,85.83 11.812,86.188 C8.923,83.852 7.138,81.42 6.906,78.906 C6.226,71.522 13.989,61.603 27.875,53.75 C29.854,52.631 31.938,51.566 34.094,50.562 Z" id="Shape" fill-opacity="0.197279" fill="#262626"></path>
                <path d="M166.031,51.375 C172.518,54.158 177.598,57.254 180.719,60.594 C180.598,60.947 180.386,61.262 180.438,61.656 C180.969,65.723 182.355,69.485 184.125,73.062 C183.981,73.77 184.085,74.471 184.562,75.062 C182.613,75.006 180.941,75.931 180.375,77.906 C179.316,81.6 179.833,85.152 181.344,88.531 C181.018,88.439 180.666,88.23 180.344,88.156 C178.559,87.748 176.876,87.664 175.312,87.938 C174.52,88.076 173.765,88.309 173.031,88.625 C173.664,86.033 173.895,83.937 173,82.594 C172.316,81.567 171.194,81.258 170.188,81.469 C169.876,81.534 169.611,81.673 169.344,81.812 C169.412,81.64 169.496,81.452 169.562,81.281 C171.542,76.18 172.656,72.187 172.656,69.438 C172.656,67.724 171.198,66.679 169.719,66.875 C169.246,66.938 168.881,67.083 168.469,67.312 C168.035,67.553 167.521,67.91 166.875,68.406 C166.239,68.894 165.253,69.757 164.375,70.5 C165.561,66.384 166.419,62.293 166.594,58.406 C166.707,55.888 166.457,53.584 166.031,51.375 Z" id="Shape" fill-opacity="0.197279" fill="#262626"></path>
                <path d="M74.219,197.25 C74.227,197.283 74.242,197.311 74.25,197.344 C74.216,197.337 74.195,197.319 74.156,197.312 C74.185,197.302 74.19,197.262 74.219,197.25 Z" id="Shape" fill-opacity="0.79932" fill="#262626"></path>
                <path d="M68.469,201.156 C69.948,201.67 71.771,202.106 74.25,202.469 C78.955,203.157 85.255,203.531 91.969,203.531 C98.683,203.531 104.983,203.157 109.688,202.469 C111.995,202.131 113.716,201.743 115.156,201.281 C115.769,204.997 115.571,208.886 114.625,213.406 C114.518,213.918 113.994,216.156 113.938,216.406 C113.802,217.004 113.81,217.223 113.75,217.594 C113.612,217.656 113.539,217.703 113.312,217.781 C112.252,218.148 110.596,218.506 108.5,218.812 C104.055,219.462 97.987,219.844 91.5,219.844 C85.013,219.844 78.945,219.462 74.5,218.812 C72.404,218.506 70.779,218.148 69.719,217.781 C69.512,217.71 69.446,217.684 69.312,217.625 C69.269,217.303 69.279,217.141 69.188,216.625 C69.145,216.384 68.768,214.239 68.688,213.75 C68.146,210.467 67.891,207.637 68,204.969 C68.056,203.586 68.207,202.311 68.469,201.156 Z" id="Shape" fill-opacity="0.897959" fill="#262626"></path>
                <path d="M119.281,215.438 C119.687,215.854 120.185,216.198 120.812,216.25 C137.626,217.641 148.618,221.357 155.125,227.062 C160.252,231.558 162.58,237.1 163.375,245 C163.43,245.542 163.43,246.441 163.469,246.969 L22.5,246.969 C22.512,246.868 22.519,246.697 22.531,246.594 C23.543,238.149 25.893,232.325 30.938,227.75 C37.323,221.959 48.001,218.474 64.281,217.656 C64.387,218.241 64.469,218.681 64.469,218.75 C64.469,221.801 67.447,222.855 73.781,223.781 C78.486,224.469 84.786,224.844 91.5,224.844 C98.214,224.844 104.545,224.469 109.25,223.781 C115.584,222.855 118.563,221.801 118.562,218.75 C118.562,218.694 118.64,218.26 118.812,217.5 C118.848,217.341 119.089,216.302 119.281,215.438 Z" id="Shape" fill-opacity="0.897959" fill="#262626"></path>
            </g>
            <g id="Layer-3_2" transform="translate(44.000000, 85.000000)">
                <g id="Group">
                    <g id="Clipped">
                        <mask id="mask-3" fill="white">
                            <use xlink:href="#path-2"></use>
                        </mask>
                        <g id="Mask"></g>
                        <g id="Group" mask="url(#mask-3)" stroke="#262626" stroke-linecap="round" stroke-linejoin="round">
                            <g transform="translate(57.000000, 64.000000)" id="Shape">
                                <path d="M21.021,267.587 C25.367,250.201 14.263,219.809 67.187,217.163" stroke-width="5" fill="none"></path>
                                <path d="M124.011,215.77 C179.582,220.366 166.19,249.54 170.401,266.385" stroke-width="5" fill="none"></path>
                                <path d="M24.377,131.715 C18.704,149.1 16.259,127.417 8.669,112.315 C1.575,98.2 11.159,94.756 13.808,94.756 C20.32,94.756 20.963,107.065 20.963,107.065" stroke-width="5" fill="none"></path>
                                <path d="M166.443,133.654 C173.032,175.545 119.665,161.065 111.283,200.835" stroke-width="5" fill="none"></path>
                                <path d="M95.743,105.103 C94.08,116.347 118.557,110.32 115.575,124.717 C110.909,147.247 75.473,133.612 87.212,121.436" stroke-width="5" fill="none"></path>
                                <path d="M53.105,87.886 C53.105,72.824 61.315,69.124 71.357,69.124 C81.399,69.124 89.469,72.824 89.469,87.886 C89.469,102.949 81.399,111.417 71.357,111.417 C61.315,111.417 53.105,102.949 53.105,87.886 Z" stroke-width="5" fill="none"></path>
                                <path d="M65.461,104.121 C65.461,100.996 67.994,98.463 71.119,98.463 C74.244,98.463 76.777,100.996 76.777,104.121 C76.777,107.245 74.244,109.779 71.119,109.779 C67.994,109.779 65.461,107.245 65.461,104.121 Z" stroke-width="5" fill="#262626" fill-rule="nonzero"></path>
                                <path d="M41.094,53.189 C72.969,38.126 89.879,54.841 89.424,47.285 C89.133,42.446 67.986,36.192 41.688,52.52" stroke-width="5" fill="#262626" fill-rule="nonzero"></path>
                                <path d="M16.619,104.343 C13.943,95.014 7.695,99.977 12.297,110.792 C16.413,120.464 19.605,128.737 19.605,128.737" stroke-width="2.5" fill="none"></path>
                                <path d="M166.767,133.775 C172.693,151.934 175.247,129.286 183.175,113.511 C190.584,98.767 180.574,95.17 177.807,95.17 C171.006,95.17 170.333,108.028 170.333,108.028" stroke-width="5" fill="none"></path>
                                <path d="M174.872,105.184 C177.666,95.439 184.193,100.624 179.386,111.92 C175.086,122.023 171.752,130.665 171.752,130.665" stroke-width="2.5" fill="none"></path>
                                <path d="M100.865,86.863 C100.865,71.801 109.075,68.101 119.117,68.101 C129.159,68.101 137.229,71.801 137.229,86.863 C137.229,101.925 129.159,110.393 119.117,110.393 C109.075,110.393 100.865,101.925 100.865,86.863 Z" stroke-width="5" fill="none"></path>
                                <path d="M110.922,103.353 C110.922,100.228 113.455,97.695 116.579,97.695 C119.704,97.695 122.237,100.228 122.237,103.353 C122.237,106.478 119.704,109.011 116.579,109.011 C113.455,109.011 110.922,106.478 110.922,103.353 Z" stroke-width="5" fill="#262626" fill-rule="nonzero"></path>
                                <path d="M73.572,63.273 C63.728,62.675 53.459,66.44 50.745,72.233" stroke-width="2.5" fill="none"></path>
                                <path d="M49.921,101.042 C52.839,113.158 63.559,116.901 71.298,117.091 C79.037,117.281 87.537,111.065 87.537,111.065" stroke-width="2.5" fill="none"></path>
                                <path d="M140.944,73.077 C136.629,64.446 125.905,61.796 116.384,62.901" stroke-width="2.5" fill="none"></path>
                                <path d="M45.449,104.811 C45.449,104.811 52.968,111.204 59.226,113.641" stroke-width="2.5" fill="none"></path>
                                <path d="M58.672,113.918 C51.528,110.816 45.158,111.702 45.158,111.702" stroke-width="2.5" fill="none"></path>
                                <path d="M58.374,59.273 C55.608,60.129 50.912,61.701 49.448,64.629" stroke-width="2.5" fill="none"></path>
                                <path d="M135.226,61.302 C140.407,63.359 145.127,71.284 145.127,71.284" stroke-width="2.5" fill="none"></path>
                                <path d="M137.945,130.156 C128.131,131.532 132.944,142.784 135.632,142.784 C136.925,142.784 130.194,135.47 137.257,135.282 C146.917,135.026 141.597,147.993 129.339,147.993 C118.921,147.993 114.258,136.222 92.489,135.963 C70.267,135.699 65.243,148.188 54.431,146.847 C40.991,145.18 43.438,133.297 49.225,133.533 C54.4,133.744 49.258,139.378 50.304,140.948 C50.745,141.61 59.654,130.42 49.542,130.365 C39.615,130.311 30.218,154.441 60.754,153.928 C73.843,153.707 75.437,151.606 92.111,151.967 C108.785,152.328 101.124,156.09 127.45,155.371 C148.848,154.787 155.099,127.753 137.945,130.156 Z" stroke-width="2.5" fill="#262626" fill-rule="nonzero"></path>
                                <path d="M93.363,184.308 C93.363,184.308 105.895,166.685 92.482,167.174 C79.158,167.66 93.363,184.308 93.363,184.308 Z" stroke-width="2.5" fill="#262626" fill-rule="nonzero"></path>
                                <path d="M103.757,158.028 C95.673,161.248 79.095,157.686 79.095,157.686" stroke-width="5" fill="none"></path>
                                <path d="M24.796,132.347 C15.477,177.36 72.086,159.769 80.105,200.331" stroke-width="5" fill="none"></path>
                                <path d="M140.846,100.346 C137.928,112.461 127.207,116.204 119.469,116.394" stroke-width="2.5" fill="none"></path>
                                <path d="M145.317,104.114 C145.317,104.114 137.799,110.507 131.541,112.944" stroke-width="2.5" fill="none"></path>
                                <path d="M132.094,113.221 C139.239,110.12 145.608,111.006 145.608,111.006" stroke-width="2.5" fill="none"></path>
                                <path d="M154.019,53.522 C122.144,38.459 105.235,55.175 105.689,47.619 C105.981,42.78 127.127,36.526 153.425,52.854" stroke-width="5" fill="#262626" fill-rule="nonzero"></path>
                                <path d="M14.361,91.186 C10.2,88.245 7.757,84.863 7.413,81.126 C5.898,64.666 38.571,38.251 96.397,38.741 C150.319,39.198 188.528,53.271 190.044,69.732" stroke-width="5" fill="none"></path>
                                <path d="M6.954,80.023 C3.162,47.21 57.509,23.88 150.319,14.979 C226.98,7.626 212.932,47.419 201.966,61.266 C195.144,69.88 189.439,75.52 189.439,75.52" stroke-width="5" fill="none"></path>
                                <path d="M141.865,15.436 C84.683,12.665 56.812,-10.002 17.713,5.881 C-8.449,16.509 2.007,67.162 7.201,82.661" stroke-width="5" fill="none"></path>
                                <path d="M15.136,75.408 C13.517,86.057 15.988,94.662 15.988,94.662" stroke-width="5" fill="none"></path>
                                <path d="M38.119,57.643 C32.49,74.401 33.37,88.251 33.45,89.367 C34.09,98.258 26.957,70.532 26.542,70.947 C21.885,75.604 27.588,102.365 27.438,102.415 C24.936,103.249 16.372,92.062 16.372,90.071" stroke-width="5" fill="none"></path>
                                <path d="M165.866,50.785 C170.23,62.924 161.774,80.792 161.774,80.792 C161.774,80.792 173.163,70.244 173.163,71.449 C173.163,78.233 164.161,95.931 164.161,95.931 C164.161,95.931 173.234,84.956 173.913,85.975 C175.489,88.338 169.548,101.319 169.548,101.319 C169.548,101.319 173.009,93.391 178.755,92.385 C184.501,91.379 192.531,97.295 192.531,97.295 C192.531,97.295 183.12,89.862 185.779,80.587 C186.768,77.138 195.464,83.247 195.464,83.247 C195.464,83.247 187.484,75.336 185.916,63.333" stroke-width="5" fill="none"></path>
                                <path d="M23.037,3.315 C30.537,0.513 24.354,-1.089 19.288,0.883 C12.406,3.562 14.453,5.004 17.969,5.004" stroke-width="5" fill="none"></path>
                                <path d="M114.56,197.276 C117.677,197.878 119.527,198.628 119.527,199.441 C119.527,201.424 108.534,203.032 94.974,203.032 C81.414,203.032 70.421,201.424 70.421,199.441 C70.421,198.547 72.656,197.73 76.353,197.101" stroke-width="5" fill="none"></path>
                                <path d="M119.913,199.48 C122.924,208.745 119.066,218.771 119.066,220.754 C119.066,222.737 108.073,224.344 94.513,224.344 C80.953,224.344 69.96,222.737 69.96,220.754 C69.96,218.771 66.406,206.738 70.267,199.094" stroke-width="5" fill="none"></path>
                                <path d="M115.441,202.064 L114.378,221.565" stroke-width="2.5" fill="none"></path>
                                <path d="M108.566,203.627 C108.566,208.606 107.191,221.628 107.191,221.628" stroke-width="2.5" fill="none"></path>
                                <path d="M99.628,204.627 C99.547,209.238 99.378,221.628 99.378,221.628" stroke-width="2.5" fill="none"></path>
                                <path d="M92.753,203.69 C91.621,209.834 91.628,216.578 91.6279995,222.815" stroke-width="2.5" fill="none"></path>
                                <path d="M84.815,204.44 C84.586,209.847 84.19,215.815 83.627,222.003" stroke-width="2.5" fill="none"></path>
                                <path d="M76.877,204.315 C76.877,209.336 76.127,216.794 76.127,221.815" stroke-width="2.5" fill="none"></path>
                            </g>
                        </g>
                    </g>
                    <g id="Mask-link" stroke-linecap="round" stroke-linejoin="round" stroke="#262626" stroke-width="5">
                        <polyline id="Mask" points="0.4374 202.026 0.4374 0.301 315.604 0.301 315.604 315.468 0.4374 315.468 0.4374 202.026"></polyline>
                    </g>
                </g>
            </g>
        </g>
        <text font-family="HaveaGreatDay, Have a Great Day" font-size="48" font-weight="normal" fill="#000000">
            <tspan x="94.3885625" y="465">STEPHANE</tspan>
        </text>
    </g>
</svg>