<?xml version="1.0" encoding="UTF-8"?>
<svg width="410px" height="510px" viewBox="0 0 410 510" version="1.1" xmlns="http://www.w3.org/2000/svg" xmlns:xlink="http://www.w3.org/1999/xlink">
    <!-- Generator: Sketch 47.1 (45422) - http://www.bohemiancoding.com/sketch -->
    <title>Susi</title>
    <desc>Created with Sketch.</desc>
    <defs>
        <radialGradient cx="65.1832678%" cy="36.5028321%" fx="65.1832678%" fy="36.5028321%" r="16.7967417%" gradientTransform="translate(0.651833,0.365028),scale(0.999996,1.000000),translate(-0.651833,-0.365028)" id="radialGradient-1">
            <stop stop-color="#262626" stop-opacity="0.653061" offset="0%"></stop>
            <stop stop-color="#262626" offset="100%"></stop>
        </radialGradient>
        <polygon id="path-2" points="0.4374 0.301 315.604 0.301 315.604 315.468 0.4374 315.468"></polygon>
    </defs>
    <g id="Planungstage-'17-framed" stroke="none" stroke-width="1" fill="none" fill-rule="evenodd">
        <g id="Susi">
            <g transform="translate(6.000000, 1.000000)">
                <g id="Layer-1" fill-rule="nonzero">
                    <path d="M387.758,53.812 L384.631,489.251 C381.68,489.431 376.416,489.765 373.167,489.946 C361.346,490.6 347.777,491.21 332.729,491.821 C283.173,493.835 232.045,494.831 180.843,494.601 C180.03,494.604 179.224,494.666 178.411,494.67 C124.877,494.387 71.301,492.619 19.4381,489.181 C19.3862,482.066 16.2535,55.2358 16.242,54.09 C16.2518,53.9558 11.7424,54.1048 11.74,54.1848 C11.7388,54.2718 9.074,142.775 8.1821,195.484 C7.3623,243.929 6.2379,295.344 4.847,348.204 C3.8136,387.475 0.8621,483.415 0.5392,493.003 C0.4261,496.358 0.1269,504.685 0.1223,504.814 C0.0519,506.808 1.7472,508.449 3.7353,508.289 C9.5794,507.817 15.443,507.39 21.3835,506.968 C125.298,499.584 236.278,499.881 340.858,504.814 C357.077,505.58 371.708,506.357 384.492,507.177 C388.965,507.464 400.093,508.275 400.264,508.289 C402.253,508.444 403.952,506.807 403.877,504.814 C403.873,504.692 402.806,474.059 402.418,462.361 C401.311,428.938 400.186,392.422 399.153,353.971 C397.361,287.29 395.99,221.953 395.192,160.744 C394.696,122.649 393.173,87.386 393.173,54.3036 C393.173,52.0881 387.774,51.5967 387.758,53.812 Z" id="Shape" fill-opacity="0.5" fill="#262626"></path>
                    <path d="M12.9208,53.7843 L391.121,53.7843 L387.969,492.361 C387.969,492.361 202.021,504.967 16.0724,492.361 L12.9208,53.7843 Z" id="Shape" stroke="#262626" stroke-width="5" fill="#FFFFFF" stroke-linecap="round" stroke-linejoin="round"></path>
                    <polygon id="Shape" stroke="#262626" stroke-width="3" fill-opacity="0.0969388" fill="#262626" stroke-linecap="round" stroke-linejoin="round" points="44.4374 85.301 359.604 85.301 359.604 400.468 44.4374 400.468"></polygon>
                    <path d="M166.321,24.7689 C159.914,24.769 154.718,29.9653 154.718,36.3723 C154.718,42.7794 159.914,47.9756 166.321,47.9756 C168.249,47.9756 170.002,47.4178 171.602,46.586 L199.742,73.6142 C200.406,74.2519 201.251,74.5349 202.104,74.5174 C202.957,74.4999 203.759,74.1397 204.397,73.4753 C205.035,72.8108 205.387,71.9662 205.37,71.1129 C205.352,70.2595 204.992,69.3884 204.327,68.7505 L176.327,41.9308 C177.262,40.2582 177.925,38.4247 177.925,36.3723 C177.925,29.9653 172.728,24.7689 166.321,24.7689 Z" id="Shape" fill-opacity="0.5" fill="#262626"></path>
                    <path d="M186.262,23.9025 L202.021,71.1775" id="Shape" stroke="#262626" stroke-width="5" fill="#262626" stroke-linecap="round" stroke-linejoin="round"></path>
                    <path d="M170.504,12.3016 C170.504,5.8945 175.698,0.7007 182.105,0.7007 C188.512,0.7007 193.706,5.8945 193.706,12.3016 C193.706,18.7086 188.512,23.9026 182.105,23.9026 C175.698,23.9026 170.504,18.7086 170.504,12.3016 Z" id="Shape" stroke="#262626" stroke-width="3" fill="url(#radialGradient-1)" stroke-linecap="round" stroke-linejoin="round"></path>
                </g>
                <g id="Layer-3" transform="translate(110.000000, 134.000000)" fill-rule="nonzero">
                    <path d="M88.938,0.562 C88.938,0.562 114.839,0.896 124.031,2.625 C135.857,4.85 145.971,9.288 155.625,16.969 C174.07,31.645 185.707,56.414 190.469,84.688 C192.296,95.537 192.898,106.092 192.312,114.062 C192.052,117.603 191.569,120.419 190.938,122.156 C190.694,122.826 190.445,123.22 190.25,123.438 C184.181,120.632 179.127,124.772 174.844,133.125 C174.536,133.724 174.272,134.484 174,135.062 C174.552,127.454 175.27,116.661 175.156,109.219 C174.924,94.052 173.038,80.736 169.062,69.688 C158.637,40.716 134.888,30.191 95.188,43.938 C82.309,39.681 71.06,37.832 61.375,38.25 C39.944,39.174 26.15,51.051 19.156,71.562 C15.383,82.629 13.809,95.702 14.031,109.75 C14.129,115.912 14.652,121.803 15.312,127.25 C12.014,121.669 8.227,118.799 3.906,119.875 C3.755,118.803 3.61,117.838 3.469,116.625 C1.428,99.082 1.752,80.119 6.062,62.344 C10.286,44.925 18.035,30.435 29.906,19.844 C43.942,7.321 63.388,0.562 88.938,0.562 Z" id="Shape" fill-opacity="0.102041" fill="#262626"></path>
                    <path d="M127.25,40.938 C146.889,41.332 159.46,51.852 166.25,70.719 C170.097,81.41 171.928,94.417 172.156,109.281 C172.321,120.045 171.704,129.818 170.438,142.688 C170.386,143.208 170.398,143.502 170.469,143.812 C170.534,144.1 170.632,144.369 170.906,144.625 C171.154,144.857 171.477,144.993 171.781,145.031 C172.085,145.069 172.382,145.015 172.656,144.875 C173.031,144.683 173.194,144.474 173.375,144.156 C173.56,143.831 173.683,143.496 174.219,142.094 C175.026,139.979 175.649,138.686 176.312,137.219 C176.444,137.727 176.74,138.168 177.281,138.312 C178.082,138.526 178.911,138.05 179.125,137.25 C179.144,137.179 179.21,137.034 179.281,136.812 C179.403,136.432 179.539,135.992 179.719,135.531 C180.232,134.213 180.883,132.907 181.656,131.688 C183.778,128.339 186.421,126.406 189.656,126.406 C193.848,126.406 195.413,137.677 192.25,149.875 C188.906,162.771 181.994,171.189 173.281,171.438 C175.263,168.282 177.248,165.127 179.25,161.531 C179.653,160.807 179.38,159.903 178.656,159.5 C178.294,159.299 177.869,159.239 177.5,159.344 C177.131,159.449 176.827,159.701 176.625,160.062 C166.226,178.74 156.209,191.129 146.094,199.125 C142.155,202.238 138.325,204.621 134.156,206.656 C132.554,207.438 130.957,208.12 129,208.938 C128.823,209.011 125.347,210.47 124.406,210.875 C113.569,215.535 110.285,222.045 110.719,240.656 C110.65,240.828 110.5,240.96 110.5,241.156 C110.5,241.353 110.65,241.484 110.719,241.656 C110.761,243.029 110.638,243.926 110.719,245.438 C110.763,246.265 111.485,246.919 112.312,246.875 C113.14,246.831 113.763,246.108 113.719,245.281 C113.671,244.383 113.689,243.69 113.656,242.844 C121.813,243.834 124.77,251.926 121.375,262.5 C121.101,263.353 120.742,264.148 120.406,264.969 L71.75,264.969 C71.577,264.405 71.356,263.86 71.219,263.281 C68.762,252.929 73.094,244.529 82.531,242.938 C82.574,244.02 82.709,244.946 82.719,246.094 C82.726,246.922 83.39,247.601 84.219,247.594 C85.047,247.587 85.726,246.922 85.719,246.094 C85.705,244.511 85.544,243.189 85.469,241.719 C85.568,241.498 85.706,241.291 85.688,241.031 C85.671,240.794 85.517,240.628 85.406,240.438 C84.684,229.308 82.215,221.22 77.781,215.531 C73.697,210.291 69.157,207.503 59.688,203.5 C53.313,200.805 53.006,200.693 50.594,199.5 C37.331,192.939 29.055,183.321 23.5,164.156 C23.269,163.361 22.421,162.926 21.625,163.156 C20.829,163.387 20.394,164.204 20.625,165 C21.144,166.791 21.711,168.423 22.281,170.062 C13.62,170.479 6.336,162.232 2.562,149.281 C-0.917,137.339 0.284,126.406 4.406,126.406 C7.642,126.406 10.285,128.339 12.406,131.688 C13.179,132.907 13.831,134.213 14.344,135.531 C14.523,135.992 14.66,136.432 14.781,136.812 C14.852,137.034 14.887,137.179 14.906,137.25 C15.12,138.05 15.95,138.526 16.75,138.312 C16.875,138.279 16.923,138.155 17.031,138.094 C17.054,138.254 17.054,138.259 18.062,138.844 C19.442,138.579 19.426,138.555 19.75,137.844 C19.837,137.492 19.844,137.518 19.844,137.375 C19.837,137.189 19.825,137.181 19.812,137.094 C19.801,137.012 19.806,136.931 19.781,136.812 C15.872,118.136 15.45,91.742 22,72.531 C26.408,59.603 33.711,50.268 44.281,45.312 C56.577,39.548 73.151,39.761 94.469,46.844 C94.677,46.913 94.86,46.804 95.062,46.781 C95.352,46.869 95.662,46.951 95.969,46.844 C107.944,42.676 118.323,40.758 127.25,40.938 Z" id="Shape" fill="#FFFFFF"></path>
                    <path d="M6.219,122.531 C7.479,122.747 8.722,123.711 9.969,125.031 C8.305,124.016 6.479,123.406 4.406,123.406 C4.362,123.138 4.35,123.01 4.312,122.781 C4.948,122.587 5.583,122.423 6.219,122.531 Z" id="Shape" fill="#262626"></path>
                    <path d="M122.812,244.594 C136.962,245.511 149.262,252.669 158.531,264.969 L123.594,264.969 C123.789,264.442 124.046,263.944 124.219,263.406 C125.259,260.166 125.77,257.055 125.75,254.219 C125.723,250.386 124.696,247.101 122.812,244.594 Z" id="Shape" fill-opacity="0.503401" fill="#262626"></path>
                    <path d="M72.312,244.875 C68.011,249.379 66.462,256.303 68.281,263.969 C68.363,264.312 68.501,264.63 68.594,264.969 L43.312,264.969 C51.514,253.376 61.15,246.361 72.312,244.875 Z" id="Shape" fill-opacity="0.503401" fill="#262626"></path>
                </g>
                <g id="Layer-3_2" transform="translate(44.000000, 85.000000)">
                    <g id="Clipped">
                        <mask id="mask-3" fill="white">
                            <use xlink:href="#path-2"></use>
                        </mask>
                        <g id="Mask"></g>
                        <g id="Group" mask="url(#mask-3)">
                            <path d="M161.469,94.415 C248.692,64.055 241.234,158.401 237.941,191.848 C237.399,197.359 243.925,167.914 255.892,173.898 C263.375,177.639 265.04,98.617 222.546,64.807 C201.515,48.072 180.183,48.073 154.931,48.072 C44.41,48.072 69.118,172.041 69.118,172.041" id="Shape" stroke="#262626" stroke-width="5" stroke-linecap="round" stroke-linejoin="round"></path>
                            <path d="M69.162,170.487 C78.743,166.25 84.905,188.991 84.301,186.105 C79.954,165.337 69.162,63.925 160.935,94.415" id="Shape" stroke="#262626" stroke-width="5" stroke-linecap="round" stroke-linejoin="round"></path>
                            <path d="M82.206,385.941 C82.206,385.941 92.084,292.103 139.737,292.103" id="Shape" stroke="#262626" stroke-width="5" stroke-linecap="round" stroke-linejoin="round"></path>
                            <path d="M188.874,291.905 C221.938,292.249 245.952,326.402 244.382,385.941" id="Shape" stroke="#262626" stroke-width="5" stroke-linecap="round" stroke-linejoin="round"></path>
                            <path d="M86.655,221.636 C63.486,225.668 58.436,173.898 70.403,173.898 C79.174,173.898 82.37,185.864 82.37,185.864" id="Shape" stroke="#262626" stroke-width="5" stroke-linecap="round" stroke-linejoin="round"></path>
                            <path d="M150.206,295.093 C149.706,235.737 104.982,271.986 88.053,213.584" id="Shape" stroke="#262626" stroke-width="5" stroke-linecap="round" stroke-linejoin="round"></path>
                            <path d="M238.97,221.899 C263.331,225.584 267.617,173.898 255.649,173.898 C246.879,173.898 243.683,185.864 243.683,185.864" id="Shape" stroke="#262626" stroke-width="5" stroke-linecap="round" stroke-linejoin="round"></path>
                            <path d="M178.221,294.365 C175.283,239.212 201.515,285.974 243.925,209.799" id="Shape" stroke="#262626" stroke-width="5" stroke-linecap="round" stroke-linejoin="round"></path>
                            <path d="M252.432,205.263 C256.62,194.4 256.62,180.441 253.585,180.198 C251.836,180.058 249.579,184.568 249.579,184.568" id="Shape" stroke="#262626" stroke-width="3" stroke-linecap="round" stroke-linejoin="round"></path>
                            <path d="M72.464,204.818 C68.277,193.955 68.277,179.996 71.311,179.753 C73.06,179.613 75.317,184.123 75.317,184.123" id="Shape" stroke="#262626" stroke-width="3" stroke-linecap="round" stroke-linejoin="round"></path>
                            <path d="M161.37,189.662 C156.17,200.894 136.025,183.145 137.941,201.025 C139.203,212.807 147.679,217.544 160.935,209.799" id="Shape" stroke="#262626" stroke-width="5" stroke-linecap="round" stroke-linejoin="round"></path>
                            <path d="M144.054,232.658 C153.005,225.291 164.521,232.719 174.116,231.296" id="Shape" stroke="#262626" stroke-width="5" stroke-linecap="round" stroke-linejoin="round"></path>
                            <path d="M206.151,137.825 C188.874,117.759 175.254,135.184 177.997,130.262 C187.582,113.064 206.328,137.552 206.328,137.552" id="Shape" stroke="#262626" stroke-width="5" stroke-linecap="round" stroke-linejoin="round"></path>
                            <path d="M115.508,140.597 C137.135,112.18 150.304,137.552 147.594,131.434 C138.805,111.595 115.508,140.597 115.508,140.597" id="Shape" stroke="#262626" stroke-width="5" stroke-linecap="round" stroke-linejoin="round"></path>
                            <polygon id="Shape" points="0.4374 0.301 315.604 0.301 315.604 315.468 0.4374 315.468"></polygon>
                            <path d="M180.244,290.144 C203.415,290.144 188.874,333.771 162.277,333.771 C133.035,333.771 122.911,291.905 148.299,290.144" id="Shape" stroke="#262626" stroke-width="5" stroke-linecap="round" stroke-linejoin="round"></path>
                            <path d="M160.935,173.78 C160.935,160.39 171.245,149.534 183.963,149.534 C196.681,149.534 206.991,160.39 206.991,173.78 C206.991,187.171 196.681,198.027 183.963,198.027 C171.245,198.027 160.935,187.171 160.935,173.78 Z" id="Shape" stroke="#262626" stroke-width="5" stroke-linecap="round" stroke-linejoin="round"></path>
                            <path d="M162.399,164.855 C159.867,160.505 154.375,162.922 154.341,164.855" id="Shape" stroke="#262626" stroke-width="5" stroke-linecap="round" stroke-linejoin="round"></path>
                            <path d="M206.991,164.855 L238.97,180.195" id="Shape" stroke="#262626" stroke-width="5" stroke-linecap="round" stroke-linejoin="round"></path>
                            <path d="M110.718,163.636 L78.886,176.118" id="Shape" stroke="#262626" stroke-width="5" stroke-linecap="round" stroke-linejoin="round"></path>
                            <path d="M137.941,150.884 C150.659,150.884 160.968,161.74 160.968,175.131 C160.968,179.667 159.785,183.912 157.727,187.542" id="Shape" stroke="#262626" stroke-width="5" stroke-linecap="round" stroke-linejoin="round"></path>
                            <path d="M190.001,149.534 C202.719,149.534 213.029,160.39 213.029,173.78 C213.029,187.171 202.719,198.027 190.001,198.027" id="Shape" stroke="#262626" stroke-width="5" stroke-linecap="round" stroke-linejoin="round"></path>
                            <path d="M206.991,172.041 L238.97,180.195" id="Shape" stroke="#262626" stroke-width="5" stroke-linecap="round" stroke-linejoin="round"></path>
                            <path d="M108.875,170.487 L78.886,176.118" id="Shape" stroke="#262626" stroke-width="5" stroke-linecap="round" stroke-linejoin="round"></path>
                            <polyline id="Shape" stroke="#262626" stroke-width="1.5" stroke-linecap="round" stroke-linejoin="round" points="110.718 167.139 127.758 167.139 126.504 196.503"></polyline>
                            <polyline id="Shape" stroke="#262626" stroke-width="1.5" stroke-linecap="round" stroke-linejoin="round" points="203.415 167.139 187.582 167.139 187.582 196.503"></polyline>
                            <path d="M136.044,179.4 C136.044,175.336 137.837,172.041 140.049,172.041 C142.261,172.041 144.054,175.336 144.054,179.4 C144.054,183.464 142.261,186.758 140.049,186.758 C137.837,186.758 136.044,183.464 136.044,179.4 Z" id="Shape" stroke="#262626" stroke-width="5" fill="#262626" fill-rule="nonzero" stroke-linecap="round" stroke-linejoin="round"></path>
                            <path d="M174.116,177.845 C174.116,173.781 175.909,170.487 178.121,170.487 C180.333,170.487 182.126,173.781 182.126,177.845 C182.126,181.909 180.333,185.203 178.121,185.203 C175.909,185.203 174.116,181.909 174.116,177.845 Z" id="Shape" stroke="#262626" stroke-width="5" fill="#262626" fill-rule="nonzero" stroke-linecap="round" stroke-linejoin="round"></path>
                            <path d="M188.874,60.812 L201.515,82.217" id="Shape" stroke="#262626" stroke-width="3" stroke-linecap="round" stroke-linejoin="round"></path>
                            <path d="M178.121,59.397 C183.963,67.169 183.963,82.217 183.963,82.217" id="Shape" stroke="#262626" stroke-width="3" stroke-linecap="round" stroke-linejoin="round"></path>
                            <path d="M167.682,59.397 C167.682,59.397 174.116,70.542 174.116,82.217" id="Shape" stroke="#262626" stroke-width="3" stroke-linecap="round" stroke-linejoin="round"></path>
                            <path d="M156.545,58.866 C149.526,69.006 149.454,82.217 149.454,82.217" id="Shape" stroke="#262626" stroke-width="3" stroke-linecap="round" stroke-linejoin="round"></path>
                            <path d="M135.103,59.397 C113.918,69.537 110.718,86.515 110.718,86.515" id="Shape" stroke="#262626" stroke-width="3" stroke-linecap="round" stroke-linejoin="round"></path>
                            <path d="M146.502,58.866 C135.91,72.326 131.903,82.217 131.903,82.217" id="Shape" stroke="#262626" stroke-width="3" stroke-linecap="round" stroke-linejoin="round"></path>
                            <path d="M198.496,60.576 C213.029,70.542 219.494,88.744 219.494,88.744" id="Shape" stroke="#262626" stroke-width="3" stroke-linecap="round" stroke-linejoin="round"></path>
                            <path d="M231.489,88.744 C247.472,112.318 250.525,162.417 250.525,162.417" id="Shape" stroke="#262626" stroke-width="3" stroke-linecap="round" stroke-linejoin="round"></path>
                            <path d="M99.816,82.217 C82.926,91.817 76.289,121.266 76.289,143.912" id="Shape" stroke="#262626" stroke-width="3" stroke-linecap="round" stroke-linejoin="round"></path>
                            <path d="M130.132,48.072 C130.132,48.072 119.902,21.518 158.37,21.518 C206.991,21.518 191.79,48.072 191.79,48.072" id="Shape" stroke="#262626" stroke-width="5" stroke-linecap="round" stroke-linejoin="round"></path>
                            <path d="M200.484,108.232 C188.991,99.166 181.341,104.203 174.68,104.203" id="Shape" stroke="#262626" stroke-width="3" stroke-linecap="round" stroke-linejoin="round"></path>
                            <path d="M152.399,104.478 C135.981,98.386 126.57,110.469 118.731,102.987" id="Shape" stroke="#262626" stroke-width="3" stroke-linecap="round" stroke-linejoin="round"></path>
                            <path d="M183.875,116.915 C160.978,106.933 154.773,124.494 140.924,113.064" id="Shape" stroke="#262626" stroke-width="3" stroke-linecap="round" stroke-linejoin="round"></path>
                            <path d="M111.832,217.785 C122.911,220.252 116.337,232.658 126.504,235.737" id="Shape" stroke="#262626" stroke-width="3" stroke-linecap="round" stroke-linejoin="round"></path>
                            <path d="M206.991,213.584 C200.526,221.906 210.961,232.658 195.498,235.737" id="Shape" stroke="#262626" stroke-width="3" stroke-linecap="round" stroke-linejoin="round"></path>
                            <path d="M173.627,245.297 C171.128,244.309 160.968,240.417 152.562,245.297" id="Shape" stroke="#262626" stroke-width="3" stroke-linecap="round" stroke-linejoin="round"></path>
                            <path d="M142.257,291.905 C142.257,290.933 143.062,290.144 144.054,290.144 C145.046,290.144 145.851,290.933 145.851,291.905 C145.851,292.878 145.046,293.667 144.054,293.667 C143.062,293.667 142.257,292.878 142.257,291.905 Z" id="Shape" stroke="#262626" stroke-width="3" stroke-linecap="round" stroke-linejoin="round"></path>
                            <path d="M139.127,296.854 C139.127,295.882 139.931,295.093 140.924,295.093 C141.916,295.093 142.72,295.882 142.72,296.854 C142.72,297.827 141.916,298.616 140.924,298.616 C139.931,298.616 139.127,297.827 139.127,296.854 Z" id="Shape" stroke="#262626" stroke-width="3" stroke-linecap="round" stroke-linejoin="round"></path>
                            <path d="M137.941,303.359 C137.941,302.386 138.745,301.598 139.737,301.598 C140.73,301.598 141.534,302.386 141.534,303.359 C141.534,304.332 140.73,305.121 139.737,305.121 C138.745,305.121 137.941,304.332 137.941,303.359 Z" id="Shape" stroke="#262626" stroke-width="3" stroke-linecap="round" stroke-linejoin="round"></path>
                            <path d="M139.737,309.729 C139.737,308.756 140.542,307.968 141.534,307.968 C142.526,307.968 143.331,308.756 143.331,309.729 C143.331,310.702 142.526,311.49 141.534,311.49 C140.542,311.49 139.737,310.702 139.737,309.729 Z" id="Shape" stroke="#262626" stroke-width="3" stroke-linecap="round" stroke-linejoin="round"></path>
                            <path d="M144.705,313.755 C144.705,312.782 145.51,311.994 146.502,311.994 C147.495,311.994 148.299,312.782 148.299,313.755 C148.299,314.728 147.495,315.517 146.502,315.517 C145.51,315.517 144.705,314.728 144.705,313.755 Z" id="Shape" stroke="#262626" stroke-width="3" stroke-linecap="round" stroke-linejoin="round"></path>
                            <path d="M150.765,315.517 C150.765,314.544 151.57,313.755 152.562,313.755 C153.554,313.755 154.359,314.544 154.359,315.517 C154.359,316.489 153.554,317.278 152.562,317.278 C151.57,317.278 150.765,316.489 150.765,315.517 Z" id="Shape" stroke="#262626" stroke-width="3" stroke-linecap="round" stroke-linejoin="round"></path>
                            <path d="M157.288,317.229 C157.288,316.256 158.093,315.468 159.085,315.468 C160.077,315.468 160.882,316.256 160.882,317.229 C160.882,318.202 160.077,318.99 159.085,318.99 C158.093,318.99 157.288,318.202 157.288,317.229 Z" id="Shape" stroke="#262626" stroke-width="3" stroke-linecap="round" stroke-linejoin="round"></path>
                            <path d="M164.709,318.785 C163.844,318.339 163.512,317.263 163.967,316.381 C164.422,315.499 165.492,315.146 166.356,315.592 C167.221,316.038 167.553,317.114 167.098,317.996 C166.643,318.878 165.573,319.231 164.709,318.785 Z" id="Shape" stroke="#262626" stroke-width="3" stroke-linecap="round" stroke-linejoin="round"></path>
                            <path d="M170.565,316.216 C169.7,315.77 169.368,314.693 169.823,313.811 C170.278,312.929 171.347,312.576 172.212,313.022 C173.077,313.468 173.409,314.544 172.954,315.426 C172.499,316.308 171.429,316.662 170.565,316.216 Z" id="Shape" stroke="#262626" stroke-width="3" stroke-linecap="round" stroke-linejoin="round"></path>
                            <path d="M174.908,311.638 C174.044,311.192 173.711,310.115 174.166,309.233 C174.621,308.352 175.691,307.998 176.555,308.444 C177.42,308.89 177.752,309.967 177.297,310.848 C176.842,311.73 175.773,312.084 174.908,311.638 Z" id="Shape" stroke="#262626" stroke-width="3" stroke-linecap="round" stroke-linejoin="round"></path>
                            <path d="M179.42,306.626 C178.556,306.18 178.224,305.103 178.679,304.221 C179.134,303.339 180.203,302.986 181.068,303.432 C181.932,303.878 182.264,304.954 181.81,305.836 C181.355,306.718 180.285,307.072 179.42,306.626 Z" id="Shape" stroke="#262626" stroke-width="3" stroke-linecap="round" stroke-linejoin="round"></path>
                            <path d="M185.172,300.472 C184.266,300.828 183.238,300.368 182.875,299.444 C182.512,298.521 182.952,297.483 183.857,297.128 C184.763,296.772 185.791,297.232 186.154,298.156 C186.517,299.079 186.077,300.116 185.172,300.472 Z" id="Shape" stroke="#262626" stroke-width="3" stroke-linecap="round" stroke-linejoin="round"></path>
                            <path d="M184.38,293.775 C183.474,294.131 182.446,293.67 182.083,292.747 C181.72,291.823 182.16,290.786 183.066,290.43 C183.971,290.074 184.999,290.535 185.362,291.458 C185.725,292.382 185.285,293.419 184.38,293.775 Z" id="Shape" stroke="#262626" stroke-width="3" stroke-linecap="round" stroke-linejoin="round"></path>
                            <path d="M134,199.377 C121.282,199.377 110.972,188.521 110.972,175.131 C110.972,161.74 121.282,150.884 134,150.884 C146.718,150.884 157.028,161.74 157.028,175.131 C157.028,181.026 155.029,186.431 151.706,190.633" id="Shape" stroke="#262626" stroke-width="5" stroke-linecap="round" stroke-linejoin="round"></path>
                            <path d="M178.7,29.59 C181.698,33.187 181.717,37.393 181.717,41.843" id="Shape" stroke="#262626" stroke-width="3" stroke-linecap="round" stroke-linejoin="round"></path>
                            <path d="M168.52,29.307 C168.52,33.044 168.332,36.983 168.332,40.618" id="Shape" stroke="#262626" stroke-width="3" stroke-linecap="round" stroke-linejoin="round"></path>
                            <path d="M158.058,29.024 C158.058,32.559 157.492,36.282 157.492,39.864" id="Shape" stroke="#262626" stroke-width="3" stroke-linecap="round" stroke-linejoin="round"></path>
                            <path d="M148.538,28.176 C144.506,32.691 143.825,35.181 143.825,40.901" id="Shape" stroke="#262626" stroke-width="3" stroke-linecap="round" stroke-linejoin="round"></path>
                        </g>
                    </g>
                </g>
            </g>
            <text id="SUSI" font-family="HaveaGreatDay, Have a Great Day" font-size="48" font-weight="normal" fill="#000000">
                <tspan x="159.444563" y="465">SUSI</tspan>
            </text>
        </g>
    </g>
</svg>