<?xml version="1.0" encoding="UTF-8"?>
<svg width="410px" height="510px" viewBox="0 0 410 510" version="1.1" xmlns="http://www.w3.org/2000/svg" xmlns:xlink="http://www.w3.org/1999/xlink">
    <!-- Generator: Sketch 47.1 (45422) - http://www.bohemiancoding.com/sketch -->
    <title>Tina</title>
    <desc>Created with Sketch.</desc>
    <defs>
        <radialGradient cx="65.1832678%" cy="36.5028321%" fx="65.1832678%" fy="36.5028321%" r="16.7967417%" gradientTransform="translate(0.651833,0.365028),scale(0.999996,1.000000),translate(-0.651833,-0.365028)" id="radialGradient-1">
            <stop stop-color="#262626" stop-opacity="0.653061" offset="0%"></stop>
            <stop stop-color="#262626" offset="100%"></stop>
        </radialGradient>
        <polygon id="path-2" points="0.4374 0.301 315.604 0.301 315.604 315.468 0.4374 315.468"></polygon>
    </defs>
    <g id="Planungstage-'17-framed" stroke="none" stroke-width="1" fill="none" fill-rule="evenodd">
        <g id="Tina">
            <g transform="translate(6.000000, 1.000000)">
                <g id="Layer-1" fill-rule="nonzero">
                    <path d="M387.758,53.812 L384.631,489.251 C381.68,489.431 376.416,489.765 373.167,489.946 C361.346,490.6 347.777,491.21 332.729,491.821 C283.173,493.835 232.045,494.831 180.843,494.601 C180.03,494.604 179.224,494.666 178.411,494.67 C124.877,494.387 71.301,492.619 19.4381,489.181 C19.3862,482.066 16.2535,55.2358 16.242,54.09 C16.2518,53.9558 11.7424,54.1048 11.74,54.1848 C11.7388,54.2718 9.074,142.775 8.1821,195.484 C7.3623,243.929 6.2379,295.344 4.847,348.204 C3.8136,387.475 0.8621,483.415 0.5392,493.003 C0.4261,496.358 0.1269,504.685 0.1223,504.814 C0.0519,506.808 1.7472,508.449 3.7353,508.289 C9.5794,507.817 15.443,507.39 21.3835,506.968 C125.298,499.584 236.278,499.881 340.858,504.814 C357.077,505.58 371.708,506.357 384.492,507.177 C388.965,507.464 400.093,508.275 400.264,508.289 C402.253,508.444 403.952,506.807 403.877,504.814 C403.873,504.692 402.806,474.059 402.418,462.361 C401.311,428.938 400.186,392.422 399.153,353.971 C397.361,287.29 395.99,221.953 395.192,160.744 C394.696,122.649 393.173,87.386 393.173,54.3036 C393.173,52.0881 387.774,51.5967 387.758,53.812 Z" id="Shape" fill-opacity="0.5" fill="#262626"></path>
                    <path d="M12.9208,53.7843 L391.121,53.7843 L387.969,492.361 C387.969,492.361 202.021,504.967 16.0724,492.361 L12.9208,53.7843 Z" id="Shape" stroke="#262626" stroke-width="5" fill="#FFFFFF" stroke-linecap="round" stroke-linejoin="round"></path>
                    <polygon id="Shape" stroke="#262626" stroke-width="3" fill-opacity="0.0969388" fill="#262626" stroke-linecap="round" stroke-linejoin="round" points="44.4374 85.301 359.604 85.301 359.604 400.468 44.4374 400.468"></polygon>
                    <path d="M166.321,24.7689 C159.914,24.769 154.718,29.9653 154.718,36.3723 C154.718,42.7794 159.914,47.9756 166.321,47.9756 C168.249,47.9756 170.002,47.4178 171.602,46.586 L199.742,73.6142 C200.406,74.2519 201.251,74.5349 202.104,74.5174 C202.957,74.4999 203.759,74.1397 204.397,73.4753 C205.035,72.8108 205.387,71.9662 205.37,71.1129 C205.352,70.2595 204.992,69.3884 204.327,68.7505 L176.327,41.9308 C177.262,40.2582 177.925,38.4247 177.925,36.3723 C177.925,29.9653 172.728,24.7689 166.321,24.7689 Z" id="Shape" fill-opacity="0.5" fill="#262626"></path>
                    <path d="M186.262,23.9025 L202.021,71.1775" id="Shape" stroke="#262626" stroke-width="5" fill="#262626" stroke-linecap="round" stroke-linejoin="round"></path>
                    <path d="M170.504,12.3016 C170.504,5.8945 175.698,0.7007 182.105,0.7007 C188.512,0.7007 193.706,5.8945 193.706,12.3016 C193.706,18.7086 188.512,23.9026 182.105,23.9026 C175.698,23.9026 170.504,18.7086 170.504,12.3016 Z" id="Shape" stroke="#262626" stroke-width="3" fill="url(#radialGradient-1)" stroke-linecap="round" stroke-linejoin="round"></path>
                </g>
                <g id="Layer-3" transform="translate(110.000000, 135.000000)" fill-rule="nonzero">
                    <path d="M88.938,0.562 C99.516,0.563 107.667,2.89 113.719,6.719 C115.795,8.032 117.457,9.432 118.75,10.812 C119.19,11.282 119.529,11.718 119.812,12.094 C119.966,12.298 120.071,12.401 120.094,12.438 C120.935,13.806 122.823,14.063 123.969,12.938 C124.051,12.857 124.263,12.65 124.625,12.375 C125.265,11.888 126.053,11.401 126.938,10.938 C134.359,7.043 143.707,7.764 155,16.75 C173.222,31.248 184.776,55.791 189.5,83.844 C191.314,94.617 191.892,105.113 191.312,113 C191.059,116.457 190.594,119.177 190,120.812 C189.904,121.077 189.86,121.086 189.781,121.25 C186.464,120.067 183.225,120.728 180.344,123.062 C178.422,124.619 176.727,126.967 175.125,129.719 C176.09,95.486 168.736,54.009 158.375,47.156 C156.825,46.131 154.735,46.707 154.156,48.625 C153.967,49.251 153.972,49.857 154.062,50.719 C154.118,51.245 154.221,51.874 154.375,52.781 C154.4,52.93 154.688,54.659 154.781,55.219 C155.091,57.081 155.295,58.578 155.406,60 C155.791,64.917 154.976,67.436 153,67.844 C141.855,70.145 122.404,70.57 93.188,69.656 C87.174,69.468 81.159,69.215 72.781,68.875 C41.977,67.624 36.101,67.472 29.094,67.812 C29.007,67.648 28.899,67.451 28.812,67 C28.557,65.672 28.573,63.641 28.812,61.188 C28.96,59.681 29.18,58.066 29.469,56.406 C29.656,55.329 29.862,54.32 30.062,53.375 C30.132,53.046 30.301,52.236 30.312,52.188 C30.379,51.908 30.214,51.676 30.188,51.406 C30.154,51.082 30.183,50.786 30.031,50.5 C29.879,50.203 29.604,50.059 29.344,49.844 C29.136,49.668 29.047,49.385 28.781,49.281 C28.718,49.257 28.658,49.301 28.594,49.281 C28.54,49.265 28.524,49.201 28.469,49.188 C28.237,49.132 28.041,49.303 27.812,49.312 C27.42,49.325 27.057,49.283 26.719,49.469 C26.45,49.609 26.328,49.867 26.125,50.094 C25.942,50.304 25.671,50.411 25.562,50.688 C25.525,50.784 25.475,50.903 25.438,51 C25.435,51.009 25.44,51.022 25.438,51.031 C25.437,51.034 25.439,51.087 25.438,51.094 C18.704,68.575 13.897,101.121 14.594,123.344 C11.763,119.415 8.556,117.241 4.938,117.562 C4.756,116.351 4.573,115.196 4.406,113.781 C2.382,96.608 2.716,78.038 7,60.656 C11.182,43.686 18.858,29.598 30.562,19.312 C44.412,7.142 63.617,0.562 88.938,0.562 Z" id="Shape" fill-opacity="0.248299" fill="#262626"></path>
                    <path d="M160.219,58.469 C167.342,74.642 172.234,113.505 169.469,141.594 C169.406,142.233 169.364,142.574 169.469,143.031 C169.575,143.496 169.768,143.922 170.219,144.344 C170.629,144.728 171.122,144.968 171.625,145.031 C172.128,145.094 172.672,144.982 173.125,144.75 C173.734,144.438 173.973,144.143 174.25,143.656 C174.475,143.262 174.585,142.966 175.156,141.469 C175.733,139.957 176.189,139.113 176.656,138 C176.803,138.073 176.866,138.237 177.031,138.281 C178.365,138.638 179.737,137.834 180.094,136.5 C180.109,136.444 180.153,136.331 180.219,136.125 C180.334,135.764 180.485,135.347 180.656,134.906 C181.147,133.645 181.765,132.379 182.5,131.219 C184.456,128.131 186.821,126.406 189.656,126.406 C192.933,126.406 194.953,137.116 192.5,148.781 C189.806,161.592 183.381,169.655 175,169.469 C176.693,166.719 178.386,164.068 180.094,161 C180.765,159.794 180.363,158.297 179.156,157.625 C178.553,157.289 177.865,157.231 177.25,157.406 C176.635,157.581 176.086,157.991 175.75,158.594 C165.412,177.163 155.504,189.436 145.5,197.344 C141.62,200.41 137.825,202.745 133.719,204.75 C132.137,205.522 130.566,206.22 128.625,207.031 C128.455,207.102 124.949,208.529 124,208.938 C111.743,214.208 108.477,221.189 109.719,244.5 C109.792,245.879 110.965,246.948 112.344,246.875 C113.723,246.802 114.792,245.598 114.719,244.219 C114.618,242.32 114.594,240.727 114.562,239.062 C114.83,239.308 115.032,239.607 115.406,239.719 C122.122,241.732 126,244.918 126,247.125 C126,252.686 123.915,258.342 120.438,263.969 L68.531,263.969 C65.759,258.73 64.25,253.117 64.25,247.125 C64.25,242.641 69.729,239.768 80.812,238.469 C81.195,238.424 81.441,238.131 81.75,237.938 C81.783,240.151 81.807,242.397 81.719,245 C81.672,246.38 82.745,247.547 84.125,247.594 C85.505,247.64 86.672,246.568 86.719,245.188 C87.201,230.94 85.952,222.075 82.719,216.344 C79.882,211.315 76.193,209.009 68.719,206.438 C68.228,206.269 64.82,205.112 63.781,204.75 C61.815,204.064 60.151,203.429 58.5,202.719 C54.351,200.933 50.56,198.776 46.75,195.875 C37.081,188.512 27.83,176.725 18.594,158.656 C18.28,158.042 17.734,157.603 17.125,157.406 C16.516,157.209 15.833,157.248 15.219,157.562 C13.989,158.191 13.528,159.708 14.156,160.938 C15.698,163.953 17.231,166.557 18.781,169.25 C10.837,169.623 4.556,161.568 1.812,148.75 C-0.693,137.046 1.18,126.406 4.406,126.406 C7.241,126.406 9.607,128.131 11.562,131.219 C12.298,132.379 12.915,133.645 13.406,134.906 C13.578,135.347 13.728,135.764 13.844,136.125 C13.91,136.331 13.954,136.444 13.969,136.5 C14.325,137.834 15.666,138.638 17,138.281 C17.18,138.402 17.149,138.491 17.875,138.812 C18.967,138.865 18.952,138.866 19.938,138.281 C20.526,137.635 20.517,137.632 20.688,137.188 C20.832,136.603 20.844,136.608 20.844,136.375 C20.833,136.077 20.831,136.064 20.812,135.938 C20.797,135.829 20.779,135.732 20.75,135.594 C17.744,121.234 20.165,92.598 25,70.688 C25.864,72.046 27.13,72.904 28.938,72.812 C35.86,72.462 41.568,72.616 72.562,73.875 C80.954,74.216 87,74.468 93.031,74.656 C122.668,75.583 142.325,75.16 154,72.75 C159.368,71.642 160.936,66.764 160.375,59.594 C160.348,59.248 160.255,58.821 160.219,58.469 Z" id="Shape" fill="#FFFFFF"></path>
                    <path d="M21.406,173.906 C28.628,185.584 36.007,193.972 43.719,199.844 C47.867,203.003 52.021,205.372 56.531,207.312 C58.302,208.074 60.056,208.746 62.125,209.469 C63.198,209.843 66.632,210.997 67.094,211.156 C73.515,213.366 76.254,215.109 78.344,218.812 C80.162,222.035 81.208,226.951 81.594,233.875 C81.174,233.668 80.749,233.442 80.25,233.5 C71.906,234.478 65.819,236.398 62.406,239.656 C62.174,239.585 62.006,239.405 61.75,239.406 C48.189,239.475 37.849,248.492 30.062,263.969 L17.219,263.969 C17.227,263.878 17.473,261.129 17.562,260.031 C17.821,256.873 18.071,253.316 18.312,249.469 C19.158,235.978 19.601,222.324 19.375,209.562 C19.123,195.341 18.039,183.418 16.031,174.156 C17.648,174.366 19.327,174.401 21.094,174.094 C21.223,174.071 21.286,173.947 21.406,173.906 Z" id="Shape" fill-opacity="0.248299" fill="#262626"></path>
                    <path d="M172.188,174.125 C172.343,174.182 172.423,174.349 172.594,174.375 C173.34,174.488 174.03,174.411 174.75,174.438 C174.684,175.545 174.615,176.721 174.562,177.594 C174.339,181.32 174.115,185.458 173.906,189.906 C173.347,201.846 173.008,213.725 172.969,224.844 C172.91,241.368 173.539,254.74 175.031,263.969 L167.688,263.969 C158.772,248.214 145.574,239.583 128.531,239.406 C127.951,239.4 127.46,239.674 127.031,240 C124.572,237.946 121.078,236.207 116.844,234.938 C115.951,234.67 115.155,235.053 114.531,235.656 C114.607,228.826 115.368,224.148 116.844,221 C118.46,217.554 120.75,215.776 125.969,213.531 C126.875,213.141 130.36,211.741 130.562,211.656 C132.586,210.811 134.225,210.071 135.906,209.25 C140.323,207.094 144.421,204.549 148.594,201.25 C156.525,194.981 164.294,186.205 172.188,174.125 Z" id="Shape" fill-opacity="0.248299" fill="#262626"></path>
                    <path d="M130.312,244.531 C143.537,245.225 154.196,251.895 161.875,263.969 L126.406,263.969 C129.377,258.452 131,252.821 131,247.125 C131,246.238 130.642,245.38 130.312,244.531 Z" id="Shape" fill-opacity="0.845238" fill="#262626"></path>
                    <path d="M59.531,244.719 C59.363,245.482 59.25,246.272 59.25,247.125 C59.25,253.116 60.626,258.709 63.031,263.969 L35.625,263.969 C41.967,252.394 49.937,245.699 59.531,244.719 Z" id="Shape" fill-opacity="0.845238" fill="#262626"></path>
                </g>
                <g id="Layer-3_2" transform="translate(44.000000, 85.000000)">
                    <g id="Clipped">
                        <mask id="mask-3" fill="white">
                            <use xlink:href="#path-2"></use>
                        </mask>
                        <g id="Mask"></g>
                        <g id="Group" mask="url(#mask-3)">
                            <path d="M93.881,101.608 C93.881,101.608 89.357,120.582 94.802,120.306 C116.961,119.183 192.011,125.979 219.494,120.306 C228.678,118.41 220.547,97.64 222.981,99.249 C233.915,106.481 241.234,158.401 237.941,191.848 C237.399,197.359 243.925,167.914 255.892,173.898 C263.375,177.639 265.04,98.617 222.546,64.807 C201.515,48.072 188.214,61.141 188.214,61.141 C188.214,61.141 180.183,48.073 154.931,48.072 C44.41,48.072 69.118,172.041 69.118,172.041" id="Shape" stroke="#262626" stroke-width="5" stroke-linecap="round" stroke-linejoin="round"></path>
                            <path d="M69.162,170.487 C78.743,166.25 84.905,188.991 84.301,186.105 C79.954,165.337 86.378,120.771 93.881,101.608" id="Shape" stroke="#262626" stroke-width="5" stroke-linecap="round" stroke-linejoin="round"></path>
                            <path d="M82.206,385.941 C82.206,385.941 86.405,292.114 127.758,291.905" id="Shape" stroke="#262626" stroke-width="5" stroke-linecap="round" stroke-linejoin="round"></path>
                            <path d="M194.513,291.905 C227.577,292.249 245.952,326.402 244.382,385.941" id="Shape" stroke="#262626" stroke-width="5" stroke-linecap="round" stroke-linejoin="round"></path>
                            <path d="M86.655,221.636 C63.486,225.668 58.436,173.898 70.403,173.898 C79.174,173.898 82.37,185.864 82.37,185.864" id="Shape" stroke="#262626" stroke-width="5" stroke-linecap="round" stroke-linejoin="round"></path>
                            <path d="M150.206,295.093 C152.28,233.822 121.311,285.974 82.37,209.799" id="Shape" stroke="#262626" stroke-width="5" stroke-linecap="round" stroke-linejoin="round"></path>
                            <path d="M238.97,221.899 C263.331,225.584 267.617,173.898 255.649,173.898 C246.879,173.898 243.683,185.864 243.683,185.864" id="Shape" stroke="#262626" stroke-width="5" stroke-linecap="round" stroke-linejoin="round"></path>
                            <path d="M178.221,294.365 C175.283,239.212 201.515,285.974 243.925,209.799" id="Shape" stroke="#262626" stroke-width="5" stroke-linecap="round" stroke-linejoin="round"></path>
                            <path d="M252.432,205.263 C256.62,194.4 256.62,180.441 253.585,180.198 C251.836,180.058 249.579,184.568 249.579,184.568" id="Shape" stroke="#262626" stroke-width="3" stroke-linecap="round" stroke-linejoin="round"></path>
                            <path d="M72.464,204.818 C68.277,193.955 68.277,179.996 71.311,179.753 C73.06,179.613 75.317,184.123 75.317,184.123" id="Shape" stroke="#262626" stroke-width="3" stroke-linecap="round" stroke-linejoin="round"></path>
                            <path d="M161.37,189.662 C156.17,200.894 128.816,181.426 127.758,199.377 C126.504,220.629 147.679,224.074 160.935,216.329" id="Shape" stroke="#262626" stroke-width="5" stroke-linecap="round" stroke-linejoin="round"></path>
                            <path d="M147.594,232.658 C156.545,238.301 183.917,243.456 196.2,216.84" id="Shape" stroke="#262626" stroke-width="5" stroke-linecap="round" stroke-linejoin="round"></path>
                            <path d="M163.752,209.783 C166.879,211.542 166.955,212.822 166.955,216.329" id="Shape" stroke="#262626" stroke-width="5" stroke-linecap="round" stroke-linejoin="round"></path>
                            <path d="M206.151,137.825 C182.83,117.561 175.468,135.424 176.724,134.425 C191.705,122.512 206.991,138.351 206.991,138.351" id="Shape" stroke="#262626" stroke-width="5" stroke-linecap="round" stroke-linejoin="round"></path>
                            <path d="M120.742,139.078 C144.064,118.813 151.426,136.676 150.169,135.677 C135.189,123.764 119.902,139.604 119.902,139.604" id="Shape" stroke="#262626" stroke-width="5" stroke-linecap="round" stroke-linejoin="round"></path>
                            <polygon id="Shape" points="0.4374 0.301 315.604 0.301 315.604 315.468 0.4374 315.468"></polygon>
                            <path d="M182.131,287.333 C190.122,289.728 194.513,293.677 194.513,297.131 C194.513,321.331 161.37,341.536 161.37,341.536 C161.37,341.536 127.758,326.224 127.758,297.131 C127.758,290.229 135.828,287.229 146.533,285.974" id="Shape" stroke="#262626" stroke-width="5" stroke-linecap="round" stroke-linejoin="round"></path>
                            <path d="M125.193,198.331 C115.748,195.307 108.875,186.064 108.875,175.131 C108.875,161.74 119.185,150.884 131.903,150.884 C144.621,150.884 154.931,161.74 154.931,175.131 C154.931,180.466 153.295,185.398 150.521,189.402" id="Shape" stroke="#262626" stroke-width="5" stroke-linecap="round" stroke-linejoin="round"></path>
                            <path d="M160.935,173.78 C160.935,160.39 171.245,149.534 183.963,149.534 C196.681,149.534 206.991,160.39 206.991,173.78 C206.991,187.171 196.681,198.027 183.963,198.027 C171.245,198.027 160.935,187.171 160.935,173.78 Z" id="Shape" stroke="#262626" stroke-width="5" stroke-linecap="round" stroke-linejoin="round"></path>
                            <path d="M162.399,164.855 C159.867,160.505 154.375,162.922 154.341,164.855" id="Shape" stroke="#262626" stroke-width="5" stroke-linecap="round" stroke-linejoin="round"></path>
                            <path d="M206.991,164.855 L238.97,180.195" id="Shape" stroke="#262626" stroke-width="5" stroke-linecap="round" stroke-linejoin="round"></path>
                            <path d="M110.718,163.636 L78.886,176.118" id="Shape" stroke="#262626" stroke-width="5" stroke-linecap="round" stroke-linejoin="round"></path>
                            <path d="M137.941,150.884 C150.659,150.884 160.968,161.74 160.968,175.131 C160.968,179.667 159.785,183.912 157.727,187.542" id="Shape" stroke="#262626" stroke-width="5" stroke-linecap="round" stroke-linejoin="round"></path>
                            <path d="M190.001,149.534 C202.719,149.534 213.029,160.39 213.029,173.78 C213.029,187.171 202.719,198.027 190.001,198.027" id="Shape" stroke="#262626" stroke-width="5" stroke-linecap="round" stroke-linejoin="round"></path>
                            <path d="M206.991,172.041 L238.97,180.195" id="Shape" stroke="#262626" stroke-width="5" stroke-linecap="round" stroke-linejoin="round"></path>
                            <path d="M108.875,170.487 L78.886,176.118" id="Shape" stroke="#262626" stroke-width="5" stroke-linecap="round" stroke-linejoin="round"></path>
                            <path d="M131.903,150.884 L181.187,149.534" id="Shape" stroke="#262626" stroke-width="5" stroke-linecap="round" stroke-linejoin="round"></path>
                            <polyline id="Shape" stroke="#262626" stroke-width="1.5" stroke-linecap="round" stroke-linejoin="round" points="110.718 167.139 127.758 167.139 126.504 196.503"></polyline>
                            <polyline id="Shape" stroke="#262626" stroke-width="1.5" stroke-linecap="round" stroke-linejoin="round" points="203.415 167.139 187.582 167.139 187.582 196.503"></polyline>
                            <path d="M136.044,179.4 C136.044,175.336 137.837,172.041 140.049,172.041 C142.261,172.041 144.054,175.336 144.054,179.4 C144.054,183.464 142.261,186.758 140.049,186.758 C137.837,186.758 136.044,183.464 136.044,179.4 Z" id="Shape" stroke="#262626" stroke-width="5" fill="#262626" fill-rule="nonzero" stroke-linecap="round" stroke-linejoin="round"></path>
                            <path d="M174.116,177.845 C174.116,173.781 175.909,170.487 178.121,170.487 C180.333,170.487 182.126,173.781 182.126,177.845 C182.126,181.909 180.333,185.203 178.121,185.203 C175.909,185.203 174.116,181.909 174.116,177.845 Z" id="Shape" stroke="#262626" stroke-width="5" fill="#262626" fill-rule="nonzero" stroke-linecap="round" stroke-linejoin="round"></path>
                            <path d="M195.498,78.498 C200.523,94.887 200.665,113.87 200.665,113.87" id="Shape" stroke="#262626" stroke-width="3" stroke-linecap="round" stroke-linejoin="round"></path>
                            <path d="M183.963,86.515 C181.647,95.781 182.272,115.049 182.272,115.049" id="Shape" stroke="#262626" stroke-width="3" stroke-linecap="round" stroke-linejoin="round"></path>
                            <path d="M169.142,78.498 C169.142,78.498 164.334,102.598 165.353,112.455" id="Shape" stroke="#262626" stroke-width="3" stroke-linecap="round" stroke-linejoin="round"></path>
                            <path d="M157.275,76.375 C150.256,86.515 149.454,112.455 149.454,112.455" id="Shape" stroke="#262626" stroke-width="3" stroke-linecap="round" stroke-linejoin="round"></path>
                            <path d="M131.903,76.375 C110.718,86.515 110.718,112.455 110.718,112.455" id="Shape" stroke="#262626" stroke-width="3" stroke-linecap="round" stroke-linejoin="round"></path>
                            <path d="M144.809,77.437 C134.217,90.896 131.903,112.455 131.903,112.455" id="Shape" stroke="#262626" stroke-width="3" stroke-linecap="round" stroke-linejoin="round"></path>
                            <path d="M206.991,86.515 C208.501,93 213.029,112.455 213.029,112.455" id="Shape" stroke="#262626" stroke-width="3" stroke-linecap="round" stroke-linejoin="round"></path>
                            <path d="M79.038,222.087 C86.655,252.446 80.731,313.755 80.731,313.755" id="Shape" stroke="#262626" stroke-width="5" stroke-linecap="round" stroke-linejoin="round"></path>
                            <path d="M243.351,223.05 C243.351,223.05 238.97,285.974 243.516,313.755" id="Shape" stroke="#262626" stroke-width="5" stroke-linecap="round" stroke-linejoin="round"></path>
                            <path d="M96.076,247.219 C96.076,264.088 95.292,281.026 95.292,297.792" id="Shape" stroke="#262626" stroke-width="3" stroke-linecap="round" stroke-linejoin="round"></path>
                            <path d="M109.797,258.588 C109.797,265.625 109.988,272.561 109.405,279.562" id="Shape" stroke="#262626" stroke-width="3" stroke-linecap="round" stroke-linejoin="round"></path>
                            <path d="M125.479,271.525 C125.479,272.505 125.479,273.486 125.479,274.466" id="Shape" stroke="#262626" stroke-width="3" stroke-linecap="round" stroke-linejoin="round"></path>
                            <path d="M227.409,246.827 C225.381,262.467 227.017,276.712 227.017,292.107" id="Shape" stroke="#262626" stroke-width="3" stroke-linecap="round" stroke-linejoin="round"></path>
                            <path d="M212.511,258.784 C212.061,263.956 210.01,272.995 212.511,285.974" id="Shape" stroke="#262626" stroke-width="3" stroke-linecap="round" stroke-linejoin="round"></path>
                            <path d="M196.242,264.861 L196.046,274.466" id="Shape" stroke="#262626" stroke-width="3" stroke-linecap="round" stroke-linejoin="round"></path>
                            <path d="M236.674,104.037 C252.657,127.611 250.525,162.417 250.525,162.417" id="Shape" stroke="#262626" stroke-width="3" stroke-linecap="round" stroke-linejoin="round"></path>
                            <path d="M90.762,85.134 C79.594,105.076 76.289,121.266 76.289,143.912" id="Shape" stroke="#262626" stroke-width="3" stroke-linecap="round" stroke-linejoin="round"></path>
                        </g>
                    </g>
                </g>
            </g>
            <text id="TINA" font-family="HaveaGreatDay, Have a Great Day" font-size="48" font-weight="normal" fill="#000000">
                <tspan x="164.604562" y="465">TINA</tspan>
            </text>
        </g>
    </g>
</svg>