<?xml version="1.0" encoding="UTF-8"?>
<svg width="410px" height="510px" viewBox="0 0 410 510" version="1.1" xmlns="http://www.w3.org/2000/svg" xmlns:xlink="http://www.w3.org/1999/xlink">
    <!-- Generator: Sketch 47.1 (45422) - http://www.bohemiancoding.com/sketch -->
    <title>Tom</title>
    <desc>Created with Sketch.</desc>
    <defs>
        <radialGradient cx="65.1832678%" cy="36.5028321%" fx="65.1832678%" fy="36.5028321%" r="16.7967417%" gradientTransform="translate(0.651833,0.365028),scale(0.999996,1.000000),translate(-0.651833,-0.365028)" id="radialGradient-1">
            <stop stop-color="#262626" stop-opacity="0.653061" offset="0%"></stop>
            <stop stop-color="#262626" offset="100%"></stop>
        </radialGradient>
        <polygon id="path-2" points="0.4374 0.301 315.604 0.301 315.604 315.468 0.4374 315.468"></polygon>
    </defs>
    <g id="Planungstage-'17-framed" stroke="none" stroke-width="1" fill="none" fill-rule="evenodd">
        <g id="Tom">
            <g transform="translate(6.000000, 1.000000)">
                <g id="Layer-1" fill-rule="nonzero">
                    <path d="M387.758,53.812 L384.631,489.251 C381.68,489.431 376.416,489.765 373.167,489.946 C361.346,490.6 347.777,491.21 332.729,491.821 C283.173,493.835 232.045,494.831 180.843,494.601 C180.03,494.604 179.224,494.666 178.411,494.67 C124.877,494.387 71.301,492.619 19.4381,489.181 C19.3862,482.066 16.2535,55.2358 16.242,54.09 C16.2518,53.9558 11.7424,54.1048 11.74,54.1848 C11.7388,54.2718 9.074,142.775 8.1821,195.484 C7.3623,243.929 6.2379,295.344 4.847,348.204 C3.8136,387.475 0.8621,483.415 0.5392,493.003 C0.4261,496.358 0.1269,504.685 0.1223,504.814 C0.0519,506.808 1.7472,508.449 3.7353,508.289 C9.5794,507.817 15.443,507.39 21.3835,506.968 C125.298,499.584 236.278,499.881 340.858,504.814 C357.077,505.58 371.708,506.357 384.492,507.177 C388.965,507.464 400.093,508.275 400.264,508.289 C402.253,508.444 403.952,506.807 403.877,504.814 C403.873,504.692 402.806,474.059 402.418,462.361 C401.311,428.938 400.186,392.422 399.153,353.971 C397.361,287.29 395.99,221.953 395.192,160.744 C394.696,122.649 393.173,87.386 393.173,54.3036 C393.173,52.0881 387.774,51.5967 387.758,53.812 Z" id="Shape" fill-opacity="0.5" fill="#262626"></path>
                    <path d="M12.9208,53.7843 L391.121,53.7843 L387.969,492.361 C387.969,492.361 202.021,504.967 16.0724,492.361 L12.9208,53.7843 Z" id="Shape" stroke="#262626" stroke-width="5" fill="#FFFFFF" stroke-linecap="round" stroke-linejoin="round"></path>
                    <polygon id="Shape" stroke="#262626" stroke-width="3" fill-opacity="0.0969388" fill="#262626" stroke-linecap="round" stroke-linejoin="round" points="44.4374 85.301 359.604 85.301 359.604 400.468 44.4374 400.468"></polygon>
                    <path d="M166.321,24.7689 C159.914,24.769 154.718,29.9653 154.718,36.3723 C154.718,42.7794 159.914,47.9756 166.321,47.9756 C168.249,47.9756 170.002,47.4178 171.602,46.586 L199.742,73.6142 C200.406,74.2519 201.251,74.5349 202.104,74.5174 C202.957,74.4999 203.759,74.1397 204.397,73.4753 C205.035,72.8108 205.387,71.9662 205.37,71.1129 C205.352,70.2595 204.992,69.3884 204.327,68.7505 L176.327,41.9308 C177.262,40.2582 177.925,38.4247 177.925,36.3723 C177.925,29.9653 172.728,24.7689 166.321,24.7689 Z" id="Shape" fill-opacity="0.5" fill="#262626"></path>
                    <path d="M186.262,23.9025 L202.021,71.1775" id="Shape" stroke="#262626" stroke-width="5" fill="#262626" stroke-linecap="round" stroke-linejoin="round"></path>
                    <path d="M170.504,12.3016 C170.504,5.8945 175.698,0.7007 182.105,0.7007 C188.512,0.7007 193.706,5.8945 193.706,12.3016 C193.706,18.7086 188.512,23.9026 182.105,23.9026 C175.698,23.9026 170.504,18.7086 170.504,12.3016 Z" id="Shape" stroke="#262626" stroke-width="3" fill="url(#radialGradient-1)" stroke-linecap="round" stroke-linejoin="round"></path>
                </g>
                <g id="Layer-3" transform="translate(99.000000, 128.000000)" fill-rule="nonzero">
                    <path d="M66.656,0.406 C76.704,0.475 84.401,2.203 90.688,5.406 C91.771,5.958 92.782,6.521 93.875,7.188 C94.298,7.446 96.216,8.684 96.469,8.844 C98.569,10.169 99.67,10.689 100.938,10.812 C101.79,10.896 102.553,10.666 103.875,10.062 C104.167,9.929 105.295,9.393 105.469,9.312 C106.151,8.995 106.734,8.747 107.344,8.5 C111.138,6.964 115.257,6.182 120.281,6.406 C120.185,6.439 119.892,6.546 119.844,6.562 C118.613,6.985 117.592,7.363 116.719,7.719 C114.861,8.476 113.715,9.094 113.125,9.875 C112.486,10.721 112.504,11.821 113.312,12.594 C113.802,13.062 114.497,13.346 115.5,13.562 C127.941,16.248 139.005,22.093 148.656,30.156 C153.434,34.148 157.55,38.444 161,42.719 C162.205,44.212 163.263,45.573 164.125,46.812 C164.425,47.244 164.662,47.642 164.875,47.969 C165,48.161 165.088,48.283 165.125,48.344 C165.398,48.789 165.884,49.062 166.406,49.062 C166.46,49.062 166.597,49.056 166.781,49.062 C167.099,49.074 167.454,49.092 167.875,49.125 C169.09,49.221 170.441,49.416 171.906,49.688 C176.093,50.463 180.293,51.836 184.188,54 C188.538,56.417 192.254,59.676 195.156,63.844 C195.328,64.09 196.434,65.782 196.812,66.344 C197.775,67.771 198.757,69.105 199.844,70.531 C201.298,72.439 202.827,74.32 204.5,76.156 C203.829,75.861 203.304,75.677 202.812,75.656 C201.59,75.604 200.652,76.57 200.906,77.844 C202.192,84.274 201.948,95.115 200.219,103.812 C198.3,113.46 194.986,118.786 191.25,118.125 C191.018,118.084 190.852,118.158 190.625,118.125 C190.566,118.109 190.528,118.045 190.469,118.031 C189.461,117.799 188.497,117.704 187.562,117.719 C187.062,117.726 186.634,117.927 186.156,118 C185.406,118.099 184.673,118.218 184,118.438 C183.846,118.495 183.682,118.529 183.531,118.594 C182.408,119.016 181.444,119.714 180.531,120.469 C180.431,120.552 180.317,120.601 180.219,120.688 C179.69,121.15 179.513,121.497 179.125,121.938 C178.653,122.484 178.126,122.943 177.719,123.594 C177.708,123.612 177.666,123.639 177.656,123.656 C177.639,123.685 177.671,123.72 177.656,123.75 C176.837,125.087 176.109,126.576 175.531,128.312 C175.126,129.531 174.793,130.777 174.438,132.312 C174.405,132.453 173.832,134.961 173.688,135.531 C173.618,135.805 173.592,135.799 173.531,136 C168.358,130.102 164.934,117.495 163.156,100.188 C161.85,87.474 161.543,74.071 161.812,62.375 C161.83,61.599 161.901,59.746 161.906,59.625 C161.958,58.362 160.512,57.585 159.5,58.344 C159.459,58.374 158.769,58.884 158.469,59.094 C157.606,59.698 156.599,60.367 155.469,61.094 C152.233,63.174 148.634,65.246 144.75,67.188 C133.698,72.713 122.66,76.031 112.438,76.031 C104.292,76.031 99.337,74.649 91.906,71.125 C91.765,71.058 90.067,70.238 89.562,70 C78.31,64.703 69.796,64.193 52,70.125 C34.749,75.875 20.964,95.007 11.188,120.375 C9.258,118.898 7.064,118 4.531,118 C3.374,118 2.37,118.377 1.5,119.031 C-0.116,101.824 0.628,85.654 4.844,70.969 C10.603,50.906 22.334,35.207 41.219,24.906 C56.548,16.545 65.766,12.817 74.875,12.219 C76.686,12.1 77.962,11.805 78.781,11.25 C79.984,10.434 80.168,9.079 79.438,7.875 C78.646,6.57 76.679,5.2 73.562,3.562 C72.361,2.931 71.008,2.302 69.531,1.625 C68.62,1.207 67.611,0.818 66.656,0.406 Z" id="Shape" fill-opacity="0.753401" fill="#262626"></path>
                    <path d="M158.812,62.469 C158.546,74.244 158.872,87.695 160.188,100.5 C162.11,119.215 165.854,132.698 172.062,138.906 C172.592,139.435 173.182,139.722 173.781,139.75 C174.381,139.778 174.983,139.531 175.469,138.969 C175.967,138.392 176.256,137.615 176.594,136.281 C176.75,135.662 177.32,133.102 177.344,133 C177.68,131.548 178.004,130.397 178.375,129.281 C178.905,127.688 179.523,126.311 180.25,125.156 C180.254,125.15 180.277,125.132 180.281,125.125 C180.892,124.161 181.622,123.457 182.406,122.812 C182.981,122.334 183.646,122.1 184.281,121.781 C185.866,121.077 187.717,120.761 190,121.062 C194.274,122.39 196.089,134.414 193.438,146.594 C190.63,159.487 184.306,167.149 176.125,166.125 C177.958,162.993 179.232,159.574 179.875,155.719 C180.011,154.902 179.473,154.136 178.656,154 C177.839,153.864 177.042,154.402 176.906,155.219 C175.71,162.398 172.266,167.987 166.469,172.812 C161.937,176.585 157.225,179.22 147.156,184.094 C147.326,184.012 145.492,184.918 145,185.156 C144.525,185.387 144.332,185.526 143.875,185.75 C143.944,182.665 143.94,178.683 143.938,173.469 C143.937,172.76 143.926,172.857 144.781,168.812 C145.069,167.451 145.257,166.405 145.406,165.375 C146.355,158.847 144.871,154.73 139.344,154.281 C137.86,154.161 136.128,154.331 134.156,154.812 C133.854,154.886 133.525,154.991 133.219,155.094 C131.818,155.567 130.424,156.308 128.719,157.438 C127.725,158.096 123.981,160.792 124.219,160.625 C119.658,163.828 116.305,165.442 112.25,165.969 C108.131,166.504 105.968,165.763 102.594,163.344 C102.541,163.306 101.956,162.874 101.781,162.75 C99.054,160.805 97.186,160 94.406,160 C75.009,160 69.613,160.116 64.969,160.781 C59.279,161.596 56.967,163.484 56.969,167.469 C56.978,184.361 56.974,187.349 57.594,189.25 C55.122,187.925 53.156,186.732 49.906,185.156 C49.415,184.918 47.58,184.012 47.75,184.094 C37.682,179.22 33.001,176.585 28.469,172.812 C22.672,167.987 19.197,162.398 18,155.219 C17.864,154.402 17.098,153.864 16.281,154 C15.464,154.136 14.895,154.902 15.031,155.719 C15.652,159.441 16.895,162.736 18.625,165.781 C11.709,167.051 5.533,159.085 2.281,145.781 C-0.87,132.889 0.473,121 4.531,121 C7.775,121 10.405,122.957 12.531,126.312 C13.306,127.535 13.955,128.836 14.469,130.156 C14.649,130.618 14.816,131.056 14.938,131.438 C15.008,131.66 15.044,131.804 15.062,131.875 C15.276,132.675 16.106,133.151 16.906,132.938 C17.707,132.724 18.183,131.925 17.969,131.125 C17.855,130.7 17.631,129.992 17.281,129.094 C16.701,127.604 15.981,126.088 15.094,124.688 C14.606,123.917 14.049,123.279 13.5,122.625 C23.009,97.431 36.55,78.442 52.969,72.969 C70.032,67.281 77.725,67.75 88.281,72.719 C88.778,72.952 90.478,73.774 90.625,73.844 C98.424,77.542 103.784,79.031 112.438,79.031 C123.2,79.031 134.662,75.591 146.094,69.875 C150.079,67.882 153.772,65.761 157.094,63.625 C157.743,63.208 158.246,62.85 158.812,62.469 Z" id="Shape" fill="#FFFFFF"></path>
                    <path d="M139.094,157.281 C137.955,157.189 136.522,157.34 134.844,157.75 C134.627,157.803 134.413,157.861 134.188,157.938 C133.075,158.313 131.882,158.939 130.375,159.938 C129.435,160.56 125.742,163.2 125.938,163.062 C121.014,166.52 117.265,168.366 112.625,168.969 C107.639,169.617 104.781,168.604 100.844,165.781 C100.786,165.74 100.199,165.307 100.031,165.188 C97.766,163.572 96.427,163 94.406,163 C63.195,163 59.967,163.463 59.969,167.469 C59.98,187.834 59.973,187.31 61,189.594 C61.308,190.278 62.269,191.299 63,192.156 C67.021,194.599 70.265,196.964 73.156,199.844 C76.808,203.48 79.5,207.61 81.312,212.312 C91.045,219.871 101.566,220.783 112.844,214.969 C114.594,209.173 117.48,204.127 121.781,199.844 C126.357,195.287 132.056,191.841 140.656,187.469 C140.827,184.363 140.942,181.111 140.938,173.469 C140.937,172.843 141.052,172.095 141.25,171.062 C141.325,170.672 141.772,168.528 141.844,168.188 C142.119,166.883 142.299,165.892 142.438,164.938 C143.17,159.892 142.312,157.543 139.094,157.281 Z M131.156,167.125 C132.099,167.163 132.912,168.104 132.5,169.156 C132.425,169.349 132.274,169.72 132.062,170.188 C131.715,170.955 131.303,171.803 130.812,172.719 C129.414,175.333 127.697,177.93 125.688,180.375 C119.674,187.692 112.177,192.022 103.156,191.719 C94.47,191.427 86.529,187.334 79.469,180.75 C76.923,178.376 74.686,175.854 72.75,173.312 C72.071,172.421 71.471,171.59 70.969,170.844 C70.663,170.39 70.456,170.06 70.344,169.875 C69.555,168.575 70.967,167.074 72.312,167.781 C72.432,167.844 72.678,167.95 73.031,168.125 C73.625,168.419 74.322,168.74 75.094,169.094 C77.303,170.107 79.728,171.116 82.312,172.062 C87.723,174.043 93.049,175.465 98,176.062 C100.434,176.356 102.734,176.445 104.875,176.312 C110.898,175.94 116.736,174.352 122.188,171.906 C124.389,170.919 126.361,169.836 128.094,168.781 C128.697,168.414 129.24,168.085 129.688,167.781 C129.95,167.603 130.106,167.466 130.188,167.406 C130.49,167.182 130.842,167.112 131.156,167.125 Z" id="Shape" fill="#262626"></path>
                    <path d="M140.594,190.875 C140.274,193.88 139.664,194.694 138.5,195.469 C138.299,195.602 135.976,196.987 135.031,197.625 C133.213,198.854 131.404,200.344 129.406,202.344 C125.079,206.675 120.864,209.953 116.719,212.594 C118.379,208.622 120.737,205.094 123.875,201.969 C127.91,197.95 133.178,194.728 140.594,190.875 Z" id="Shape" fill="#262626"></path>
                    <path d="M82.688,217.125 C87.761,220.306 93.034,221.945 98.5,221.906 C102.829,221.876 107.288,220.597 111.812,218.594 C111.27,221.365 110.938,224.276 110.938,227.438 L110.938,239.406 C110.938,240.235 111.609,240.906 112.438,240.906 C113.266,240.906 113.938,240.235 113.938,239.406 L113.938,235.656 C116.882,237.931 117.313,239.747 115.781,241.531 C113.958,243.655 109.947,245.682 103.562,248.031 C102.651,248.367 98.575,249.791 97.625,250.125 C97.596,250.113 97.593,250.073 97.562,250.062 C97.255,249.955 92.666,248.4 91.281,247.906 C84.781,245.589 80.896,243.683 79.094,241.656 C77.596,239.972 78.019,238.224 80.969,235.969 L80.969,239.406 C80.969,240.235 81.64,240.906 82.469,240.906 C83.297,240.906 83.969,240.235 83.969,239.406 L83.969,227.438 C83.969,223.69 83.444,220.33 82.688,217.125 Z" id="Shape" fill="#FFFFFF"></path>
                    <path d="M119.344,237.5 C123.741,240.201 125.282,243.338 124.219,246.969 C123.148,250.626 119.721,254.736 114.688,258.906 C112.455,260.756 110.055,262.49 107.656,264.062 C107.011,264.486 106.439,264.839 105.875,265.188 L99.781,252.562 C101.406,251.994 103.845,251.151 104.594,250.875 C111.469,248.345 115.783,246.124 118.062,243.469 C119.723,241.535 120.153,239.524 119.344,237.5 Z" id="Shape" fill-opacity="0.10034" fill="#262626"></path>
                    <path d="M75.562,237.781 C74.749,239.778 75.17,241.743 76.844,243.625 C79.11,246.173 83.281,248.223 90.281,250.719 C91.317,251.088 93.405,251.827 94.906,252.344 L88.188,264.656 C87.631,264.318 87.077,263.976 86.438,263.562 C84.125,262.067 81.808,260.421 79.656,258.656 C74.582,254.495 71.201,250.377 70.344,246.75 C69.543,243.359 71.22,240.385 75.562,237.781 Z" id="Shape" fill-opacity="0.10034" fill="#262626"></path>
                    <path d="M68.469,240.438 C67.65,241.877 67.122,243.38 67.125,245 C67.126,245.8 67.239,246.596 67.438,247.438 C68.099,250.238 69.924,253.077 72.5,255.938 C73.436,260.271 74.227,265.441 74.969,270.969 L68.25,270.969 C65.622,258.287 62.617,249.036 59.094,244.438 C62.052,242.922 65.182,241.583 68.469,240.438 Z" id="Shape" fill="#FFFFFF"></path>
                    <path d="M126.688,240.719 C128.465,241.039 130.244,241.363 131.906,241.812 C128.382,246.479 125.664,256.812 123.469,270.969 L99.969,270.969 C99.812,266.531 99.682,262.741 99.531,258.938 L103.875,268 C104.251,268.784 105.213,269.087 105.969,268.656 C106.015,268.63 106.651,268.249 106.906,268.094 C107.633,267.653 108.443,267.133 109.312,266.562 C111.798,264.932 114.299,263.146 116.625,261.219 C122.082,256.698 125.812,252.19 127.094,247.812 C127.84,245.262 127.692,242.886 126.688,240.719 Z" id="Shape" fill-opacity="0.10034" fill="#262626"></path>
                    <path d="M135.031,242.75 C137.057,243.427 138.997,244.212 140.844,245.094 C137.571,249.882 134.688,258.854 132.125,270.969 L126.5,270.969 C128.797,256.308 131.616,246.113 135.031,242.75 Z" id="Shape" fill="#FFFFFF"></path>
                    <path d="M56.406,245.75 C59.705,249.682 62.622,258.568 65.219,270.969 L31.5,270.969 C37.323,260.399 45.686,251.834 56.406,245.75 Z" id="Shape" fill-opacity="0.10034" fill="#262626"></path>
                    <path d="M143.531,246.438 C148.673,249.299 153.149,252.921 156.906,257.438 C160.202,261.399 162.943,265.899 165.25,270.969 L135.188,270.969 C137.713,259.184 140.478,250.648 143.531,246.438 Z" id="Shape" fill-opacity="0.10034" fill="#262626"></path>
                    <path d="M96.406,255.844 C96.447,256.724 96.477,257.284 96.5,257.844 C96.665,261.787 96.811,266.338 96.969,270.969 L78,270.969 C77.454,266.856 76.839,263.089 76.188,259.594 C76.713,260.056 77.186,260.506 77.75,260.969 C79.997,262.811 82.38,264.541 84.781,266.094 C85.622,266.637 86.423,267.112 87.125,267.531 C87.372,267.679 87.986,268.037 88.031,268.062 C88.76,268.471 89.663,268.202 90.062,267.469 L96.406,255.844 Z" id="Shape" fill-opacity="0.10034" fill="#262626"></path>
                </g>
                <g id="Layer-3_2" transform="translate(44.000000, 85.000000)">
                    <g id="Clipped">
                        <mask id="mask-3" fill="white">
                            <use xlink:href="#path-2"></use>
                        </mask>
                        <g id="Mask"></g>
                        <g id="Group" mask="url(#mask-3)" stroke-linecap="round" stroke="#262626" stroke-width="5" stroke-linejoin="round">
                            <g transform="translate(54.000000, 41.000000)" id="Shape">
                                <path d="M12.784,124.872 C20.015,105.439 33.463,80.216 53.488,73.541 C89.462,61.549 86.85,79.536 113.444,79.536 C137.427,79.536 161.41,61.549 161.41,61.549 C161.41,61.549 158.828,124.552 174.114,139.839 C178.038,143.763 174.258,118.466 191.993,121.602 C202.782,123.51 205.949,92.385 203.38,79.536 C202.827,76.771 219.989,89.706 212.265,82.755 C203.375,74.754 198.811,67.026 197.383,64.975 C186.648,49.558 167.405,49.558 167.405,49.558 C167.405,49.558 150.096,21.283 116.828,14.102 C109.361,12.49 129.729,7.976 127.256,7.556 C110.715,4.751 104.677,11.575 102.078,11.322 C97.296,10.855 90.272,-0.994 60.425,1.025 C60.425,1.025 89.263,11.839 75.783,12.725 C64.995,13.433 53.736,18.899 41.497,25.575 C-0.486,48.475 -2.018,95.006 1.266,124.521" fill="none"></path>
                                <path d="M75.635,392.38 C63.068,392.255 48.448,392.725 44.87,394.514 C32.591,400.653 50.026,350.565 51.45,320.658 C52.408,310.541 53.631,300.35 55.195,290.822 C55.406,289.533 48.004,302.578 48.004,302.578 C48.004,310.073 23.554,292.454 24.021,290.587 C30.017,266.604 46.319,246.736 74.565,239.141" fill="none"></path>
                                <path d="M96.658,393.084 C103.757,356.301 98.726,253.696 98.726,253.696" fill="none"></path>
                                <path d="M124.273,240.481 C156.842,244.505 168.102,268.189 173.401,289.385 C174.855,295.202 149.418,301.376 149.418,301.376 C149.418,301.376 141.373,284.472 142.13,289.027 C149.418,332.92 142.316,355.508 151.764,392.354 C152.258,394.279 140.097,394.117 126.705,393.856" fill="none"></path>
                                <path d="M135.651,242.912 C120.914,254.316 119.393,360.071 119.662,385.533" fill="none"></path>
                                <path d="M21.916,168.784 C2.202,176.771 -6.469,121.506 5.523,121.506 C14.311,121.506 17.514,133.497 17.514,133.497" fill="none"></path>
                                <path d="M17.514,157.48 C23.509,193.454 83.466,183.474 83.466,229.428 L83.466,241.419" fill="none"></path>
                                <path d="M174.68,169.248 C197.624,175.999 202.83,124.199 191.145,121.506 C183.808,119.815 179.95,126.408 179.95,126.408" fill="none"></path>
                                <path d="M179.397,157.48 C173.401,193.454 113.444,183.474 113.444,229.428 L113.444,241.419" fill="none"></path>
                                <path d="M99.063,129.889 C114.748,147.92 123.386,124.835 134.216,139.238 C143.423,151.484 119.44,181.463 95.458,157.48" fill="none"></path>
                                <path d="M144.103,246.394 C129.659,263.044 123.956,360.24 122.933,385.384" fill="none"></path>
                                <path d="M98.066,253.489 L89.752,268.742 C89.752,268.742 49.044,245.949 83.466,235.089 C68.224,244.235 86.614,249.489 98.066,253.489 Z" fill="none"></path>
                                <path d="M98.726,253.696 L106.236,269.344 C106.236,269.344 147.866,245.633 113.444,234.773 C128.687,243.919 110.177,249.696 98.726,253.696 Z" fill="none"></path>
                                <path d="M140.219,157.781 C138.964,157.679 137.398,157.817 135.5,158.281 C129.39,159.774 123.465,168.166 113.438,169.469 C103.41,170.772 102.429,163.5 95.406,163.5 C65.428,163.5 59.466,163.531 59.469,169.469 C59.485,199.505 58.527,188.12 71.469,205.406 C89.456,229.431 110.28,226.613 131.469,205.406 C143.407,193.457 143.453,205.505 143.438,175.469 C143.435,171.534 148.999,158.495 140.219,157.781 Z M132.094,170.625 C132.094,170.625 123.391,192.863 104.219,192.219 C85.046,191.574 72.625,171.094 72.625,171.094 C72.625,171.094 90.985,180.739 105.969,179.812 C120.952,178.886 132.094,170.625 132.094,170.625 Z" fill="#262626" fill-rule="nonzero"></path>
                                <path d="M64.658,117.932 C64.658,107.051 70.538,98.23 77.792,98.23 C85.046,98.23 90.927,107.051 90.927,117.932 C90.927,128.813 85.046,137.633 77.792,137.633 C70.538,137.633 64.658,128.813 64.658,117.932 Z" fill="none"></path>
                                <path d="M109.866,136.97 C107.098,133.357 105.396,126.09 105.396,120.155 C105.396,109.274 111.276,100.453 118.53,100.453 C125.784,100.453 131.665,109.274 131.665,120.155 C131.665,123.689 130.392,127.254 128.127,134.524" fill="none"></path>
                                <path d="M74.422,123.631 C74.422,121.817 75.892,120.347 77.705,120.347 C79.519,120.347 80.989,121.817 80.989,123.631 C80.989,125.444 79.519,126.915 77.705,126.915 C75.892,126.915 74.422,125.444 74.422,123.631 Z" fill="#262626" fill-rule="nonzero"></path>
                                <path d="M60.641,93.284 C80.638,75.199 86.396,95.272 90.927,90.326 C96.621,84.11 75.103,69.029 59.659,93.284" fill="#262626" fill-rule="nonzero"></path>
                                <path d="M136.59,92.15 C115.844,76.874 109.262,98.273 105.396,92.15 C100.894,85.023 127.162,75.514 136.59,91.124" fill="#262626" fill-rule="nonzero"></path>
                                <path d="M115.505,123.792 C115.505,121.979 116.975,120.509 118.789,120.509 C120.602,120.509 122.073,121.979 122.073,123.792 C122.073,125.606 120.602,127.076 118.789,127.076 C116.975,127.076 115.505,125.606 115.505,123.792 Z" fill="#262626" fill-rule="nonzero"></path>
                                <path d="M74.904,257.352 C82.314,291.31 82.449,363.088 82.242,383.08" fill="none"></path>
                                <path d="M58.405,246.59 C72.89,263.287 77.651,358.398 78.655,383.217" fill="none"></path>
                            </g>
                        </g>
                    </g>
                </g>
            </g>
            <text id="TOM" font-family="HaveaGreatDay, Have a Great Day" font-size="48" font-weight="normal" fill="#000000">
                <tspan x="164.052562" y="465">TOM</tspan>
            </text>
        </g>
    </g>
</svg>