<?xml version="1.0" encoding="UTF-8"?>
<svg width="410px" height="510px" viewBox="0 0 410 510" version="1.1" xmlns="http://www.w3.org/2000/svg" xmlns:xlink="http://www.w3.org/1999/xlink">
    <!-- Generator: Sketch 50.2 (55047) - http://www.bohemiancoding.com/sketch -->
    <title>Walter</title>
    <desc>Created with Sketch.</desc>
    <defs>
        <radialGradient cx="65.1832678%" cy="36.5028321%" fx="65.1832678%" fy="36.5028321%" r="37.3460364%" gradientTransform="translate(0.651833,0.365028),scale(0.999996,1.000000),translate(-0.651833,-0.365028)" id="radialGradient-1">
            <stop stop-color="#262626" stop-opacity="0.653061" offset="0%"></stop>
            <stop stop-color="#262626" offset="100%"></stop>
        </radialGradient>
        <polygon id="path-2" points="0.4374 0.301 315.604 0.301 315.604 315.468 0.4374 315.468"></polygon>
    </defs>
    <g id="Walter" stroke="none" stroke-width="1" fill="none" fill-rule="evenodd">
        <g transform="translate(6.000000, 1.000000)">
            <g id="Layer-1" fill-rule="nonzero">
                <path d="M387.758,53.812 L384.631,489.251 C381.68,489.431 376.416,489.765 373.167,489.946 C361.346,490.6 347.777,491.21 332.729,491.821 C283.173,493.835 232.045,494.831 180.843,494.601 C180.03,494.604 179.224,494.666 178.411,494.67 C124.877,494.387 71.301,492.619 19.4381,489.181 C19.3862,482.066 16.2535,55.2358 16.242,54.09 C16.2518,53.9558 11.7424,54.1048 11.74,54.1848 C11.7388,54.2718 9.074,142.775 8.1821,195.484 C7.3623,243.929 6.2379,295.344 4.847,348.204 C3.8136,387.475 0.8621,483.415 0.5392,493.003 C0.4261,496.358 0.1269,504.685 0.1223,504.814 C0.0519,506.808 1.7472,508.449 3.7353,508.289 C9.5794,507.817 15.443,507.39 21.3835,506.968 C125.298,499.584 236.278,499.881 340.858,504.814 C357.077,505.58 371.708,506.357 384.492,507.177 C388.965,507.464 400.093,508.275 400.264,508.289 C402.253,508.444 403.952,506.807 403.877,504.814 C403.873,504.692 402.806,474.059 402.418,462.361 C401.311,428.938 400.186,392.422 399.153,353.971 C397.361,287.29 395.99,221.953 395.192,160.744 C394.696,122.649 393.173,87.386 393.173,54.3036 C393.173,52.0881 387.774,51.5967 387.758,53.812 Z" id="Shape" fill-opacity="0.5" fill="#262626"></path>
                <path d="M12.9208,53.7843 L391.121,53.7843 L387.969,492.361 C387.969,492.361 202.021,504.967 16.0724,492.361 L12.9208,53.7843 Z" id="Shape" stroke="#262626" stroke-width="5" fill="#FFFFFF" stroke-linecap="round" stroke-linejoin="round"></path>
                <polygon id="Shape" stroke="#262626" stroke-width="3" fill-opacity="0.0969388" fill="#262626" stroke-linecap="round" stroke-linejoin="round" points="44.4374 85.301 359.604 85.301 359.604 400.468 44.4374 400.468"></polygon>
                <path d="M166.321,24.7689 C159.914,24.769 154.718,29.9653 154.718,36.3723 C154.718,42.7794 159.914,47.9756 166.321,47.9756 C168.249,47.9756 170.002,47.4178 171.602,46.586 L199.742,73.6142 C200.406,74.2519 201.251,74.5349 202.104,74.5174 C202.957,74.4999 203.759,74.1397 204.397,73.4753 C205.035,72.8108 205.387,71.9662 205.37,71.1129 C205.352,70.2595 204.992,69.3884 204.327,68.7505 L176.327,41.9308 C177.262,40.2582 177.925,38.4247 177.925,36.3723 C177.925,29.9653 172.728,24.7689 166.321,24.7689 Z" id="Shape" fill-opacity="0.5" fill="#262626"></path>
                <path d="M186.262,23.9025 L202.021,71.1775" id="Shape" stroke="#262626" stroke-width="5" fill="#262626" stroke-linecap="round" stroke-linejoin="round"></path>
                <path d="M170.504,12.3016 C170.504,5.8945 175.698,0.7007 182.105,0.7007 C188.512,0.7007 193.706,5.8945 193.706,12.3016 C193.706,18.7086 188.512,23.9026 182.105,23.9026 C175.698,23.9026 170.504,18.7086 170.504,12.3016 Z" id="Shape" stroke="#262626" stroke-width="3" fill="url(#radialGradient-1)" stroke-linecap="round" stroke-linejoin="round"></path>
            </g>
            <g id="Layer-3" transform="translate(100.000000, 116.000000)" fill="#FFFFFF" fill-rule="nonzero">
                <path d="M101.594,0.594 C109.475,0.649 116.362,1.702 126.406,3.875 C126.922,3.987 131.542,4.993 132.781,5.25 C161.889,11.283 178.701,29.739 185.875,56.969 C190.049,72.813 190.518,89.723 188.812,105.219 C188.645,106.744 188.43,108.057 188.25,109.281 C187.815,109.244 187.361,109.118 186.938,109.125 C186.382,109.134 185.907,109.354 185.375,109.438 C182.236,109.521 179.446,110.037 177.344,111.312 C178.731,82.544 171.734,43.997 161.812,33.031 C158.46,29.326 155.431,27.65 152.094,27.812 C149.732,27.927 147.611,28.841 144.469,30.844 C143.659,31.36 140.623,33.408 140.531,33.469 C138.829,34.586 137.38,35.46 135.875,36.312 C126.515,41.618 115.882,44.434 100.875,44.188 C83.663,43.904 72.453,40.868 64.25,35.688 C61.585,34.005 54.854,28.381 53.406,27.594 C49.928,25.704 46.516,26.079 42.031,28.906 C33.472,34.302 26.237,47.154 21.219,64.125 C16.704,79.395 14.536,96.515 15.469,109.125 C15.571,110.502 16.748,111.539 18.125,111.438 C19.502,111.336 20.539,110.127 20.438,108.75 C18.454,81.934 30.168,42.279 44.688,33.125 C47.749,31.195 49.292,31.024 51.031,31.969 C51.933,32.459 58.493,37.948 61.594,39.906 C70.615,45.603 82.725,48.89 100.812,49.188 C116.725,49.449 128.219,46.395 138.344,40.656 C139.956,39.743 141.464,38.797 143.25,37.625 C143.379,37.54 146.395,35.548 147.156,35.062 C149.615,33.495 151.09,32.842 152.344,32.781 C153.936,32.704 155.682,33.675 158.125,36.375 C167.741,47.003 174.962,90.482 171.906,118.281 C171.829,118.582 171.694,118.913 171.656,119.188 C171.607,119.541 171.61,119.849 171.656,120.188 C171.692,120.434 171.681,120.447 171.844,120.906 C172.173,121.634 172.179,121.626 173.781,122.375 C175.516,122.132 175.509,122.145 176.031,121.562 C176.321,121.181 176.329,121.158 176.438,120.938 C176.587,120.626 176.638,120.118 176.719,119.656 C176.759,119.461 176.946,119.149 177.031,118.906 C177.058,118.923 177.067,118.953 177.094,118.969 C178.285,119.666 179.803,119.254 180.5,118.062 C180.543,117.989 180.663,117.806 180.875,117.531 C181.249,117.047 181.701,116.546 182.219,116.094 C184.008,114.531 186.113,113.89 188.594,114.344 C188.746,114.363 188.875,114.353 189.031,114.375 C192.7,115.348 194.995,127.245 192.938,139.281 C190.604,152.933 184.337,160.494 175.969,158.031 C175.816,157.986 175.684,158.108 175.531,158.094 C176.428,155.304 177.215,152.397 177.719,149.25 C177.937,147.887 177.02,146.593 175.656,146.375 C174.293,146.157 173,147.105 172.781,148.469 C170.229,164.4 162.187,174.936 149.344,182.688 C146.28,184.536 143.067,186.145 139.156,187.906 C138.224,188.326 131.921,191.08 130.375,191.812 C112.064,200.486 110.051,203.372 111.375,220.875 L112,231.125 C112.085,232.503 113.278,233.554 114.656,233.469 C116.034,233.384 117.085,232.19 117,230.812 L116.906,229.312 C131.225,231.176 143.252,237.877 152.688,248.469 C160.689,257.451 166.452,268.885 169.312,280.219 C169.224,280.511 168.197,281.25 167.125,281.969 L145.656,281.969 C144.85,280.48 144.028,278.98 143.5,278.188 C142.748,277.06 142.362,276.583 141.406,276.281 C139.64,275.724 138.275,276.92 138.031,278.375 C137.953,278.842 137.972,279.299 138.062,279.844 C138.188,280.6 138.258,281.234 138.375,281.969 L56,281.969 C56.018,281.859 56.045,281.734 56.062,281.625 C56.163,281.012 56.156,280.509 55.719,279.812 C54.819,278.83 54.798,278.822 53.5,278.625 C52.621,278.773 52.627,278.779 52.25,279 C51.848,279.242 51.632,279.472 51.344,279.844 C51.103,280.154 50.8,280.6 50.406,281.219 C50.294,281.395 50.094,281.766 49.969,281.969 L26.656,281.969 C26.113,281.494 25.496,280.975 25.156,280.625 C32.187,253.806 51.039,232.515 76.094,228.656 L75.906,232.438 C75.843,233.817 76.902,234.999 78.281,235.062 C79.661,235.126 80.843,234.067 80.906,232.688 L81.531,218.906 C82.256,211.295 80.785,205.582 77.25,201.25 C74.546,197.936 71.32,195.887 65.531,193.188 C65.273,193.067 63.206,192.094 62.938,191.969 C54.422,187.981 50.386,185.983 45.094,182.75 C29.26,173.077 20.7,162.224 21.781,149.406 C21.897,148.03 20.876,146.835 19.5,146.719 C18.124,146.603 16.897,147.624 16.781,149 C16.607,151.067 16.682,153.07 16.906,155.031 C10.415,156.961 4.617,149.785 1.812,137 C-0.778,125.192 0.815,114.406 3.906,114.406 C6.749,114.406 9.133,116.155 11.094,119.25 C11.831,120.413 12.445,121.673 12.938,122.938 C13.11,123.379 13.259,123.794 13.375,124.156 C13.441,124.363 13.485,124.475 13.5,124.531 C13.856,125.865 15.229,126.669 16.562,126.312 C17.896,125.956 18.669,124.584 18.312,123.25 C18.19,122.791 17.958,122.06 17.594,121.125 C16.992,119.579 16.237,118.022 15.312,116.562 C13.114,113.092 10.281,110.692 6.812,109.812 C4.68,89.551 7.095,66.597 16.25,47.375 C29.207,20.17 53.962,3.418 93.219,0.875 C96.217,0.681 98.967,0.575 101.594,0.594 Z" id="Shape"></path>
            </g>
            <g id="Layer-3_2" transform="translate(106.000000, 116.000000)" fill="#262626" fill-rule="nonzero">
                <path d="M95.594,0.594 C103.475,0.649 110.362,1.702 120.406,3.875 C120.922,3.987 125.542,4.993 126.781,5.25 C155.889,11.283 172.701,29.739 179.875,56.969 C184.049,72.813 184.518,89.723 182.812,105.219 C182.645,106.744 182.43,108.057 182.25,109.281 C181.815,109.244 181.361,109.118 180.938,109.125 C180.382,109.134 179.907,109.354 179.375,109.438 C179.072,109.446 178.763,109.449 178.469,109.469 C178.467,109.46 178.471,109.446 178.469,109.438 C178.398,109.146 178.201,108.969 178.031,108.719 C177.877,108.484 177.862,108.179 177.625,108 L171.438,103.312 C171.376,75.796 164.847,43.017 155.812,33.031 C152.46,29.326 149.431,27.65 146.094,27.812 C143.732,27.927 141.611,28.841 138.469,30.844 C137.659,31.36 134.623,33.408 134.531,33.469 C132.829,34.586 131.38,35.46 129.875,36.312 C120.515,41.618 109.882,44.434 94.875,44.188 C77.663,43.904 66.453,40.868 58.25,35.688 C55.585,34.005 48.854,28.381 47.406,27.594 C43.928,25.704 40.516,26.079 36.031,28.906 C27.472,34.302 20.237,47.154 15.219,64.125 C11.384,77.095 9.362,91.226 9.375,102.969 L2.062,108.844 C1.859,109.007 1.856,109.264 1.719,109.469 C1.609,109.628 1.414,109.727 1.344,109.906 C1.176,109.855 0.983,109.856 0.812,109.812 C-1.32,89.551 1.095,66.597 10.25,47.375 C23.207,20.17 47.962,3.418 87.219,0.875 C90.217,0.681 92.967,0.575 95.594,0.594 Z" id="Shape" fill-opacity="0.954082"></path>
                <path d="M123.625,232.594 C132.44,235.905 140.212,241.199 146.688,248.469 C154.689,257.451 160.452,268.885 163.312,280.219 C163.224,280.511 162.197,281.25 161.125,281.969 L139.656,281.969 C138.85,280.48 138.028,278.98 137.5,278.188 C136.748,277.06 136.362,276.583 135.406,276.281 C133.64,275.724 132.275,276.92 132.031,278.375 C131.953,278.842 131.972,279.299 132.062,279.844 C132.188,280.6 132.258,281.234 132.375,281.969 L96.656,281.969 L94.344,264.594 C95.936,262.587 96.937,259.772 96.938,256.656 C96.938,256.283 96.808,255.959 96.781,255.594 L100.125,262.531 C100.752,263.838 102.334,264.342 103.594,263.625 C103.776,263.521 104.115,263.334 104.562,263.062 C105.299,262.616 106.12,262.077 107,261.5 C109.515,259.851 112.018,258.047 114.375,256.094 C119.973,251.456 123.836,246.805 125.188,242.188 C126.227,238.635 125.664,235.421 123.625,232.594 Z" id="Shape" fill-opacity="0.69898"></path>
                <path d="M54.812,233.406 C53.458,235.263 52.552,237.249 52.562,239.438 C52.566,240.308 52.658,241.208 52.875,242.125 C53.987,246.832 57.832,251.514 63.531,256.188 C65.81,258.056 68.257,259.772 70.688,261.344 C71.538,261.894 72.319,262.387 73.031,262.812 C73.464,263.071 73.792,263.276 73.969,263.375 C75.183,264.055 76.709,263.597 77.375,262.375 L81.094,255.562 C81.066,255.938 80.938,256.272 80.938,256.656 C80.938,260.118 82.2,263.15 84.125,265.156 C83.774,265.475 83.404,265.785 83.281,266.281 L79.406,281.969 L50,281.969 C50.018,281.859 50.045,281.734 50.062,281.625 C50.163,281.012 50.156,280.509 49.719,279.812 C48.819,278.83 48.798,278.822 47.5,278.625 C46.621,278.773 46.627,278.779 46.25,279 C45.848,279.242 45.632,279.472 45.344,279.844 C45.103,280.154 44.8,280.6 44.406,281.219 C44.294,281.395 44.094,281.766 43.969,281.969 L20.656,281.969 C20.113,281.494 19.496,280.975 19.156,280.625 C24.673,259.582 37.468,241.931 54.812,233.406 Z" id="Shape" fill-opacity="0.69898"></path>
                <path d="M117.844,233.75 C120.316,235.863 121.166,238.185 120.406,240.781 C119.406,244.199 116.08,248.166 111.188,252.219 C108.986,254.042 106.619,255.758 104.25,257.312 C103.953,257.507 103.718,257.665 103.438,257.844 L98.344,247.219 C99.94,246.659 101.509,246.121 102.094,245.906 C109.133,243.316 113.538,241.051 115.969,238.219 C117.222,236.759 117.806,235.266 117.844,233.75 Z" id="Shape" fill-opacity="0.69898"></path>
                <path d="M60.625,234.312 C60.66,235.813 61.256,237.316 62.531,238.75 C64.952,241.472 69.208,243.539 76.375,246.094 C77.162,246.374 78.407,246.807 79.875,247.312 L74.219,257.656 C73.941,257.482 73.701,257.347 73.406,257.156 C71.124,255.68 68.839,254.051 66.719,252.312 C61.801,248.279 58.543,244.326 57.75,240.969 C57.181,238.562 58.139,236.34 60.625,234.312 Z" id="Shape" fill-opacity="0.69898"></path>
                <path d="M88.938,250.781 C90.315,250.781 91.937,253.247 91.938,256.656 C91.938,260.066 90.315,262.5 88.938,262.5 C87.56,262.5 85.937,260.066 85.938,256.656 C85.938,253.247 87.56,250.781 88.938,250.781 Z" id="Shape" fill-opacity="0.954082"></path>
                <path d="M88.125,267.281 C88.409,267.32 88.642,267.5 88.938,267.5 C89.212,267.5 89.423,267.315 89.688,267.281 L91.625,281.969 L84.531,281.969 L88.156,267.5 C88.175,267.423 88.113,267.358 88.125,267.281 Z" id="Shape" fill-opacity="0.954082"></path>
            </g>
            <g id="Layer-3_3" transform="translate(44.000000, 85.000000)">
                <g id="Clipped">
                    <mask id="mask-3" fill="white">
                        <use xlink:href="#path-2"></use>
                    </mask>
                    <g id="Mask"></g>
                    <g id="Group" mask="url(#mask-3)" stroke="#262626" stroke-linecap="round" stroke-linejoin="round" stroke-width="5">
                        <g transform="translate(54.000000, 29.000000)" id="Shape">
                            <path d="M19.948,110.937 C18.142,86.519 28.421,43.701 45.368,33.017 C59.987,23.8 53.468,47.862 102.842,48.674 C147.605,49.411 148.51,21.821 161.973,36.701 C172.473,48.306 179.473,93.069 176.394,120.701 C175.779,126.216 174.652,110.864 192.387,114 C192.387,114 209.983,20.289 135.302,4.811 C123.228,2.308 112.698,-0.76 95.052,0.383 C5.6,6.177 3.238,84.878 6.354,112.883" fill="none"></path>
                            <path d="M76.03,384.778 C63.462,384.654 48.843,385.123 45.264,386.912 C32.986,393.051 50.42,342.963 51.845,313.056 C52.802,302.939 54.026,292.747 55.589,283.22 C55.8,281.931 48.398,294.976 48.398,294.976 C48.398,302.471 23.948,284.852 24.415,282.984 C30.411,259.002 48.671,231.38 79.664,227.771" fill="none"></path>
                            <path d="M116.731,386.114 C111.126,385.872 102.294,385.779 97.053,385.482 C94.748,385.413 89.525,385.132 86.399,385.042" fill="none"></path>
                            <path d="M118.83,228.726 C151.398,232.75 168.497,260.587 173.796,281.783 C175.25,287.599 149.813,293.774 149.813,293.774 C149.813,293.774 141.768,276.87 142.524,281.425 C149.813,325.318 142.711,347.906 152.159,384.752 C152.652,386.677 140.492,386.515 127.1,386.254" fill="none"></path>
                            <path d="M20.589,159.191 C0.874,167.178 -6.074,113.904 5.917,113.904 C14.705,113.904 17.908,125.895 17.908,125.895" fill="none"></path>
                            <path d="M21.277,151.206 C19.213,175.667 50.018,189.761 63.863,196.245 C72.609,200.342 82.632,203.974 81.044,220.659 L80.407,234.564" fill="none"></path>
                            <path d="M177.266,162.442 C200.21,169.194 203.225,116.596 191.54,113.904 C184.202,112.213 180.345,118.806 180.345,118.806" fill="none"></path>
                            <path d="M177.251,150.855 C172.168,182.576 145.729,190.248 133.438,196.07 C116.789,203.956 114.568,205.617 115.858,222.676 L116.495,232.972" fill="none"></path>
                            <path d="M98.826,115.432 C107.577,128.655 129.529,118.86 127.615,132.387 C125.826,145.031 103.996,153.978 95.288,137.874" fill="none"></path>
                            <path d="M91.493,247.926 L83.179,263.18 C83.179,263.18 42.471,240.386 76.893,229.526 C61.651,238.672 80.041,243.926 91.493,247.926 Z" fill="none"></path>
                            <path d="M102.859,247.794 L110.369,263.441 C110.369,263.441 151.999,239.73 117.578,228.87 C132.82,238.016 114.31,243.794 102.859,247.794 Z" fill="none"></path>
                            <path d="M48.732,68.304 C72.203,54.512 84.888,72.655 84.891,69.745 C84.896,66.184 66.638,55.419 48.369,68.365" fill="#262626" fill-rule="nonzero"></path>
                            <path d="M74.997,161.985 C97.143,177.652 124.59,158.569 124.59,158.569 C124.59,158.569 111.17,175.026 98.212,176.792" fill="none"></path>
                            <path d="M146.412,69.299 C122.941,55.507 109.928,73.152 110.253,70.74 C110.731,67.191 128.506,56.414 146.775,69.36" fill="#262626" fill-rule="nonzero"></path>
                            <path d="M64.405,116.4 C64.405,113.141 65.66,110.5 67.209,110.5 C68.758,110.5 70.013,113.141 70.013,116.4 C70.013,119.658 68.758,122.3 67.209,122.3 C65.66,122.3 64.405,119.658 64.405,116.4 Z" fill="#262626" fill-rule="nonzero"></path>
                            <path d="M117.991,116.641 C117.991,113.383 119.247,110.741 120.795,110.741 C122.344,110.741 123.599,113.383 123.599,116.641 C123.599,119.9 122.344,122.542 120.795,122.542 C119.247,122.542 117.991,119.9 117.991,116.641 Z" fill="#262626" fill-rule="nonzero"></path>
                            <path d="M91.437,258.643 C91.437,254.019 93.897,250.271 96.93,250.271 C99.964,250.271 102.423,254.019 102.423,258.643 C102.423,263.266 99.964,267.015 96.93,267.015 C93.897,267.015 91.437,263.266 91.437,258.643 Z" fill="none"></path>
                            <path d="M42.348,106.797 C42.348,91.688 53.788,79.439 67.9,79.439 C82.012,79.439 93.452,91.688 93.452,106.797 C93.452,121.906 82.012,134.154 67.9,134.154 C53.788,134.154 42.348,121.906 42.348,106.797 Z" fill="none"></path>
                            <path d="M102.566,118.175 C101.085,114.711 100.259,110.858 100.259,106.799 C100.259,91.69 111.699,79.442 125.811,79.442 C139.923,79.442 151.363,91.69 151.363,106.799 C151.363,120.73 141.637,132.229 129.059,133.938" fill="none"></path>
                            <polyline fill="none" points="150.527 113.046 154.554 96.798 184.119 111.999"></polyline>
                            <polyline fill="none" points="11.636 112.794 41.653 97.353 42.487 111.24"></polyline>
                            <path d="M138.487,82.773 C144.945,84.187 149.993,86.039 152.829,88.321 L184.119,111.999" fill="none"></path>
                            <path d="M76.168,80.453 C90.324,79.111 106.105,79.019 119.833,80.15" fill="none"></path>
                            <path d="M11.636,112.794 L42.14,88.321 C44.971,86.787 48.633,85.452 52.899,84.315" fill="none"></path>
                            <path d="M102.886,92.226 C98.112,89.462 94.813,90.1 90.389,92.312" fill="none"></path>
                            <path d="M96.964,132.888 C91.974,131.034 87.741,132.121 87.741,138.392" fill="none"></path>
                            <path d="M91.568,184.851 C91.568,185.36 91.568,184.342 91.568,184.851" fill="none"></path>
                            <path d="M93.72,268.887 L89.391,286.314" fill="none"></path>
                            <path d="M99.871,266.837 L102.49,286.542" fill="none"></path>
                        </g>
                    </g>
                </g>
            </g>
        </g>
        <text font-family="HaveaGreatDay, Have a Great Day" font-size="48" font-weight="normal" fill="#000000">
            <tspan x="117.332562" y="465">WALTER</tspan>
        </text>
    </g>
</svg>