<?xml version="1.0" encoding="UTF-8"?>
<svg width="298px" height="215px" viewBox="0 0 298 215" version="1.1" xmlns="http://www.w3.org/2000/svg" xmlns:xlink="http://www.w3.org/1999/xlink">
    <!-- Generator: Sketch 55.2 (78181) - https://sketchapp.com -->
    <title>Business Analysis</title>
    <desc>Created with Sketch.</desc>
    <g id="website-2.0" stroke="none" stroke-width="1" fill="none" fill-rule="evenodd">
        <g id="00_Webseite-2.0" transform="translate(-472.000000, -245.000000)">
            <g id="Business-Analysis" transform="translate(473.000000, 246.000000)">
                <g id="whiteboard" stroke-linecap="round" stroke-linejoin="round">
                    <path d="M40.537,64.412 C40.784,64.166 58.78,64.166 59.026,64.412 C59.273,64.659 59.273,72.794 59.026,73.04 C58.78,73.287 40.784,73.287 40.537,73.04 C40.291,72.794 40.291,64.659 40.537,64.412 Z" id="Path" stroke="#262626" stroke-width="2"></path>
                    <path d="M72.585,80.436 C72.832,80.19 85.898,80.19 86.144,80.436 C86.391,80.683 86.391,88.818 86.144,89.065 C85.898,89.311 72.832,89.311 72.585,89.065 C72.339,88.818 72.339,80.683 72.585,80.436 Z" id="Path" stroke="#262626" stroke-width="2"></path>
                    <path d="M49.35,112.299 C49.597,112.053 62.663,112.053 62.909,112.299 C63.156,112.546 63.156,120.681 62.909,120.928 C62.663,121.174 49.597,121.174 49.35,120.928 C49.104,120.681 49.104,112.546 49.35,112.299 Z" id="Path" stroke="#262626" stroke-width="2"></path>
                    <path d="M117.032,109.663 C117.279,109.416 127.807,109.533 128.053,109.779 C128.3,110.026 128.3,116.928 128.053,117.175 C127.807,117.421 117.076,117.345 116.829,117.099 C116.583,116.852 116.785,109.909 117.032,109.663 Z" id="Path" stroke="#262626" stroke-width="2"></path>
                    <path d="M76.468,121.298 C76.715,121.051 90.828,120.866 91.075,121.113 C91.321,121.359 91.321,131.96 91.075,132.206 C90.828,132.453 76.53,132.453 76.283,132.206 C76.037,131.96 76.222,121.544 76.468,121.298 Z" id="Path" stroke="#262626" stroke-width="2"></path>
                    <path d="M50.152,88.818 C49.905,88.818 46.454,85.367 46.454,85.12 C46.454,84.874 49.905,81.422 50.152,81.422 C50.398,81.422 53.85,84.874 53.85,85.12 C53.85,85.367 50.398,88.818 50.152,88.818 Z" id="Path" stroke="#262626" stroke-width="2"></path>
                    <path d="M58.04,103.856 C57.794,103.856 54.343,100.405 54.343,100.158 C54.343,99.912 57.794,96.46 58.04,96.46 C58.287,96.46 61.738,99.912 61.738,100.158 C61.738,100.405 58.287,103.856 58.04,103.856 Z" id="Path" stroke="#262626" stroke-width="2"></path>
                    <path d="M72.832,109.773 C72.585,109.773 69.134,106.321 69.134,106.075 C69.134,105.828 72.585,102.377 72.832,102.377 C73.078,102.377 76.53,105.828 76.53,106.075 C76.53,106.321 73.078,109.773 72.832,109.773 Z" id="Path" stroke="#262626" stroke-width="2"></path>
                    <path d="M84.912,109.526 C84.665,109.526 81.214,106.075 81.214,105.828 C81.214,105.582 84.665,102.13 84.912,102.13 C85.158,102.13 88.609,105.582 88.609,105.828 C88.609,106.075 85.158,109.526 84.912,109.526 Z" id="Path" stroke="#262626" stroke-width="2"></path>
                    <path d="M50.398,74.273 L50.398,80.436 C50.152,80.436 48.426,78.957 48.673,78.71 C48.919,78.464 51.631,78.464 51.877,78.71 C52.132,78.965 50.891,79.943 50.891,79.943" id="Path" stroke="#262626"></path>
                    <path d="M33.142,68.366 L39.305,68.4 C39.303,68.646 37.815,70.364 37.569,70.116 C37.324,69.868 37.339,67.156 37.587,66.911 C37.843,66.658 38.814,67.904 38.814,67.904" id="Path" stroke="#262626"></path>
                    <path d="M56.561,84.839 L71.353,84.956 C71.351,85.288 69.342,87.605 69.012,87.271 C68.681,86.937 68.701,83.278 69.036,82.947 C69.381,82.606 70.691,84.287 70.691,84.287" id="Path" stroke="#262626"></path>
                    <path d="M50.314,89.875 C50.314,89.875 50.152,99.912 50.398,100.158 C50.645,100.405 53.51,100.049 53.51,100.049 C53.508,100.296 52.02,102.013 51.775,101.765 C51.529,101.517 51.544,98.806 51.792,98.561 C52.048,98.308 53.019,99.553 53.019,99.553" id="Path" stroke="#262626"></path>
                    <path d="M58.04,104.596 L58.064,111.498 C57.818,111.498 56.092,110.019 56.339,109.773 C56.585,109.526 59.297,109.526 59.544,109.773 C59.798,110.027 58.557,111.005 58.557,111.005" id="Path" stroke="#262626"></path>
                    <path d="M62.478,100.158 C62.478,100.158 66.669,99.846 66.558,100.408 C66.518,100.609 66.585,105.944 66.672,106.032 C66.828,106.188 68.641,105.963 68.641,105.963 C68.64,106.119 67.698,107.206 67.543,107.049 C67.388,106.892 67.397,105.176 67.554,105.021 C67.716,104.861 68.331,105.649 68.331,105.649" id="Path" stroke="#262626"></path>
                    <path d="M79.207,90.051 L79.207,96.214 C78.961,96.214 77.235,94.735 77.481,94.488 C77.728,94.242 80.44,94.242 80.686,94.488 C80.941,94.742 79.7,95.721 79.7,95.721" id="Path" stroke="#262626"></path>
                    <path d="M71.353,97.693 C71.599,97.446 88.363,97.446 88.609,97.693 C88.856,97.939 88.856,98.063 88.609,98.309 C88.363,98.556 71.599,98.556 71.353,98.309 C71.106,98.063 71.106,97.939 71.353,97.693 Z" id="Path" stroke="#262626" fill="#262626" fill-rule="nonzero"></path>
                    <path d="M72.832,98.925 L72.806,102.007 C72.641,102.007 71.486,101.018 71.651,100.853 C71.816,100.688 73.63,100.688 73.795,100.853 C73.965,101.023 73.135,101.677 73.135,101.677" id="Path" stroke="#262626"></path>
                    <path d="M84.912,99.215 L84.991,101.79 C84.826,101.79 83.671,100.8 83.836,100.635 C84.001,100.47 85.815,100.47 85.98,100.635 C86.15,100.805 85.32,101.46 85.32,101.46" id="Path" stroke="#262626"></path>
                    <path d="M84.912,110.024 L85.053,120.298 C84.758,120.298 82.695,118.529 82.99,118.235 C83.284,117.94 86.526,117.94 86.821,118.235 C87.125,118.539 85.642,119.708 85.642,119.708" id="Path" stroke="#262626"></path>
                    <path d="M72.832,110.176 C72.832,110.176 72.67,113.892 72.916,114.139 C73.163,114.385 116.267,113.71 116.267,113.71 C116.265,113.957 114.777,115.674 114.532,115.426 C114.286,115.178 114.301,112.467 114.549,112.222 C114.805,111.969 115.776,113.214 115.776,113.214" id="Path" stroke="#262626"></path>
                    <path d="M48.648,116.269 C48.648,116.269 40.537,116.429 40.291,116.182 C40.044,115.936 40.143,85.312 40.352,85.103 C40.572,84.883 45.601,85.064 45.601,85.064 C45.6,84.845 44.275,83.316 44.056,83.537 C43.838,83.757 43.851,86.171 44.072,86.39 C44.3,86.615 45.164,85.506 45.164,85.506" id="Path" stroke="#262626"></path>
                    <path d="M89.103,105.777 C89.103,105.777 97.214,105.937 97.46,105.691 C97.707,105.444 97.766,68.358 97.556,68.148 C97.337,67.929 60.259,68.11 60.259,68.11 C60.26,67.891 61.585,66.362 61.804,66.582 C62.022,66.803 62.009,69.217 61.788,69.435 C61.56,69.66 60.696,68.551 60.696,68.551" id="Path" stroke="#262626"></path>
                    <path d="M121.89,98.925 C121.644,98.925 118.192,95.474 118.192,95.228 C118.192,94.981 121.644,91.53 121.89,91.53 C122.137,91.53 125.588,94.981 125.588,95.228 C125.588,95.474 122.137,98.925 121.89,98.925 Z" id="Path" stroke="#262626" stroke-width="2"></path>
                    <path d="M112.029,68.726 C112.276,68.48 142.413,68.295 142.66,68.541 C142.906,68.788 142.906,68.911 142.66,69.158 C142.413,69.404 112.276,69.589 112.029,69.343 C111.783,69.096 111.783,68.973 112.029,68.726 Z" id="Path" stroke="#262626" fill="#262626" fill-rule="nonzero"></path>
                    <path d="M121.89,108.786 L121.609,100.158 C121.363,100.158 119.637,101.637 119.884,101.884 C120.13,102.13 122.842,102.13 123.088,101.884 C123.343,101.629 122.102,100.651 122.102,100.651" id="Path" stroke="#262626"></path>
                    <path d="M121.89,90.79 L121.609,70.575 C121.363,70.575 119.637,72.054 119.884,72.301 C120.13,72.547 122.842,72.547 123.088,72.301 C123.343,72.047 122.102,71.068 122.102,71.068" id="Path" stroke="#262626"></path>
                    <path d="M142.845,106.321 C142.598,106.321 139.147,102.87 139.147,102.623 C139.147,102.377 142.598,98.925 142.845,98.925 C143.091,98.925 146.543,102.377 146.543,102.623 C146.543,102.87 143.091,106.321 142.845,106.321 Z" id="Path" stroke="#262626" stroke-width="2"></path>
                    <path d="M91.971,126.112 L130.519,125.989 C130.517,126.268 128.829,128.216 128.55,127.935 C128.272,127.654 128.289,124.578 128.57,124.3 C128.861,124.013 129.962,125.426 129.962,125.426" id="Path" stroke="#262626"></path>
                    <path d="M132.052,121.113 C132.299,120.866 153.692,120.866 153.938,121.113 C154.185,121.359 154.185,131.96 153.938,132.206 C153.692,132.453 132.114,132.268 131.868,132.021 C131.621,131.775 131.806,121.359 132.052,121.113 Z" id="Path" stroke="#262626" stroke-width="2"></path>
                    <path d="M142.845,119.88 L142.564,107.554 C142.317,107.554 140.592,109.033 140.838,109.28 C141.085,109.526 143.796,109.526 144.043,109.28 C144.297,109.025 143.057,108.047 143.057,108.047" id="Path" stroke="#262626"></path>
                    <path d="M142.845,98.432 C142.845,98.432 143.091,83.148 142.845,82.901 C142.598,82.655 135.696,83.148 135.449,82.901 C135.202,82.655 135.449,70.575 135.449,70.575 C135.202,70.575 133.477,72.054 133.723,72.301 C133.97,72.547 136.682,72.547 136.928,72.301 C137.183,72.047 135.942,71.068 135.942,71.068" id="Path" stroke="#262626"></path>
                    <path d="M126.081,95.228 C126.081,95.228 136.527,94.89 136.407,95.498 C136.364,95.715 136.431,102.561 136.526,102.656 C136.695,102.824 138.654,102.581 138.654,102.581 C138.653,102.75 137.635,103.924 137.467,103.755 C137.3,103.585 137.31,101.731 137.479,101.563 C137.654,101.39 138.319,102.242 138.319,102.242" id="Path" stroke="#262626"></path>
                    <path d="M166.449,106.37 C163.939,106.362 155.286,106.436 155.171,106.321 C154.924,106.075 154.924,99.172 155.171,98.925 C155.417,98.679 166.018,98.679 166.265,98.925 C166.511,99.172 166.449,106.37 166.449,106.37" id="Path" stroke="#262626" stroke-width="2"></path>
                    <path d="M147.159,102.623 L154.411,102.727 C154.41,102.887 153.444,104.001 153.285,103.84 C153.126,103.679 153.136,101.921 153.297,101.762 C153.462,101.597 154.093,102.405 154.093,102.405" id="Path" stroke="#262626"></path>
                    <path d="M160.718,64.412 C160.471,64.412 157.02,60.961 157.02,60.714 C157.02,60.468 160.471,57.016 160.718,57.016 C160.964,57.016 164.416,60.468 164.416,60.714 C164.416,60.961 160.964,64.412 160.718,64.412 Z" id="Path" stroke="#262626" stroke-width="2"></path>
                    <path d="M155.675,77.491 C155.921,77.245 166.449,77.361 166.696,77.608 C166.942,77.854 166.942,84.757 166.696,85.003 C166.449,85.25 155.718,85.174 155.472,84.928 C155.225,84.681 155.428,77.738 155.675,77.491 Z" id="Path" stroke="#262626" stroke-width="2"></path>
                    <path d="M160.718,65.028 L161.001,76.7380202 C160.841,76.743 159.694,75.818 159.849,75.653 C160.003,75.489 161.762,75.435 161.926,75.59 C162.096,75.75 161.311,76.409 161.311,76.409" id="Path" stroke="#262626"></path>
                    <path d="M160.718,85.983 L160.973,98.2450308 C160.705,98.253 158.778,96.7 159.038,96.424 C159.298,96.147 162.25,96.058 162.526,96.318 C162.811,96.587 161.494,97.692 161.494,97.692" id="Path" stroke="#262626"></path>
                    <path d="M125.588,67.863 C125.588,67.863 125.342,60.961 125.588,60.722 C125.843,60.476 156.495002,60.769 156.495002,60.769 C156.497,60.981 155.24,62.472 155.026,62.262 C154.813,62.052 154.794,59.725 155.004,59.512 C155.22,59.292 156.069,60.349 156.069,60.349" id="Path" stroke="#262626"></path>
                    <path d="M160.841,56.523 C160.841,56.523 161.088,53.072 160.841,52.826 C160.594,52.579 50.645,52.332 50.398,52.579 C50.152,52.826 50.368,63.6210234 50.368,63.6210234 C50.17,63.627 48.744,62.478 48.937,62.274 C49.129,62.069 51.312,62.003 51.517,62.196 C51.728,62.394 50.753,63.212 50.753,63.212" id="Path" stroke="#262626"></path>
                    <path d="M184.754,106.321 C184.507,106.321 181.056,102.87 181.056,102.623 C181.056,102.377 184.507,98.925 184.754,98.925 C185,98.925 188.452,102.377 188.452,102.623 C188.452,102.87 185,106.321 184.754,106.321 Z" id="Path" stroke="#262626" stroke-width="2"></path>
                    <path d="M167.497,102.623 L180.44,102.727 C180.439,102.887 179.473,104.001 179.314,103.84 C179.155,103.679 179.165,101.921 179.326,101.762 C179.492,101.597 180.122,102.405 180.122,102.405" id="Path" stroke="#262626"></path>
                    <path d="M181.056,87.293 C181.056,87.293 181.302,81.686 181.056,81.44 C180.809,81.193 168.113,81.772 168.113,81.772 C168.114,81.932 169.08,83.046 169.239,82.886 C169.398,82.725 169.388,80.966 169.227,80.807 C169.062,80.643 168.431,81.451 168.431,81.451" id="Path" stroke="#262626"></path>
                    <path d="M177.817,130.605 L177.817,126.625 L155.171,126.628 C155.172,126.807 156.253,128.054 156.431,127.874 C156.609,127.694 156.598,125.725 156.418,125.547 C156.232,125.364 155.527,126.268 155.527,126.268" id="Path" stroke="#262626"></path>
                    <path d="M225.476,82.769 C226.491,81.726 228.981,79.071 229.128,79.071 C229.375,79.071 232.826,82.522 232.826,82.769 C232.826,83.015 229.375,86.467 229.128,86.467 C228.978,86.467 226.501,83.828 225.476,82.769" id="Path" stroke="#262626" stroke-width="2"></path>
                    <path d="M229.128,102.491 L229.078,112.352022 C228.862,112.358 227.311,111.108 227.52,110.885 C227.73,110.663 230.106,110.591 230.328,110.8 C230.558,111.017 229.497,111.907 229.497,111.907" id="Path" stroke="#262626"></path>
                    <path d="M229.128,87.41 L229.223,93.2460255 C229.042,93.252 227.736,92.199 227.912,92.012 C228.088,91.824 230.089,91.764 230.276,91.94 C230.469,92.122 229.576,92.871 229.576,92.871" id="Path" stroke="#262626"></path>
                    <path d="M249.068,70.14 C249.45,69.759 253.646,69.759 254.027,70.14 C254.409,70.522 253.188,85.88 252.806,86.262 L250.136,86.262 C249.754,85.88 248.687,70.522 249.068,70.14 Z" id="Path" stroke="#262626" stroke-width="2" fill="#262626" fill-rule="nonzero"></path>
                    <polygon id="Path" stroke="#262626" stroke-width="2" fill="#262626" fill-rule="nonzero" points="250.136 91.021 252.806 91.021 252.806 89.249 250.136 89.249"></polygon>
                    <path d="M233.935,82.769 L246.878,82.873 C246.877,83.033 245.911,84.146 245.752,83.986 C245.594,83.825 245.603,82.066 245.764,81.907 C245.93,81.743 246.56,82.551 246.56,82.551" id="Path" stroke="#262626"></path>
                    <path d="M225.927,116.32 C225.927,114.661 227.272,113.316 228.931,113.316 C230.59,113.316 231.935,114.661 231.935,116.32 C231.935,117.979 230.59,119.324 228.931,119.324 C227.272,119.324 225.927,117.979 225.927,116.32 Z" id="Path" stroke="#262626"></path>
                    <path d="M171.344,66.199 C170.862,65.718 178.085,54.162 178.566,54.162 C179.048,54.162 186.271,65.718 185.789,66.199 C185.307,66.681 171.825,66.681 171.344,66.199 Z" id="Path" stroke="#262626" stroke-width="2"></path>
                    <path d="M177.429,57.971 C177.842,57.558 179.08,57.558 179.492,57.971 C179.905,58.384 179.08,63.336 179.08,63.336 L177.842,63.336 C177.842,63.336 177.016,58.384 177.429,57.971 Z" id="Path" stroke="#262626" fill="#262626" fill-rule="nonzero"></path>
                    <polygon id="Path" stroke="#262626" fill="#262626" fill-rule="nonzero" points="177.842 64.574 179.08 64.574 179.08 65.4 177.842 65.4"></polygon>
                    <path d="M165.525,60.714 L171.935001,60.769 C171.936,60.981 170.679,62.472 170.466,62.262 C170.252,62.052 170.233,59.725 170.443,59.512 C170.66,59.292 171.508,60.349 171.508,60.349" id="Path" stroke="#262626"></path>
                    <path d="M22.673,55.511 C22.673,55.511 33.467,56.03 33.142,63.104 C32.873,68.936 28.211,68.942 28.211,68.942 L28.211,73.451 L25.746,73.451 L25.746,66.056 C25.746,66.056 30.099,66.91 29.983,63.453 C29.851,59.479 22.673,61.296 22.673,61.296 L22.673,55.511 Z" id="Path" stroke="#262626" stroke-width="2" fill="#262626" fill-rule="nonzero"></path>
                    <polygon id="Path" stroke="#262626" stroke-width="2" fill="#262626" fill-rule="nonzero" points="25.746 77.149 28.211 77.149 28.211 78.382 25.746 78.382"></polygon>
                    <path d="M4.161,159.71 C4.161,159.71 2.414,6.914 3.407,5.922 C6.071,3.257 270.742,3.257 273.407,5.922 C276.071,8.586 272.985,162.794 272.985,162.794 L4.401,162.716" id="Path" stroke="#262626" stroke-width="2"></path>
                    <path d="M114.756,63.621 L148.969,108.047" id="Path" stroke="#527A98" stroke-width="2"></path>
                    <path d="M150.785,63.104 L114.756,107.554" id="Path" stroke="#527A98" stroke-width="2"></path>
                    <path d="M72.119,79.42 L86.059,89.875" id="Path" stroke="#527A98" stroke-width="2"></path>
                    <path d="M86.059,79.42 L72.119,89.875" id="Path" stroke="#527A98" stroke-width="2"></path>
                    <path d="M59.578,81.255 L66.719,88.296" id="Path" stroke="#527A98" stroke-width="2"></path>
                    <path d="M66.719,81.44 L59.578,88.307" id="Path" stroke="#527A98" stroke-width="2"></path>
                    <path d="M98.608,48.458 L105.749,55.5" id="Path" stroke="#527A98" stroke-width="2"></path>
                    <path d="M105.749,48.643 L98.608,55.511" id="Path" stroke="#527A98" stroke-width="2"></path>
                    <path d="M56.509,121.918 C56.509,121.918 56.399,135.75 56.646,135.996 C56.892,136.243 130.349,135.567 130.349,135.567 C130.348,135.814 128.859,137.531 128.614,137.283 C128.369,137.036 128.384,134.324 128.632,134.079 C128.888,133.826 129.859,135.072 129.859,135.072" id="Path" stroke="#527A98" stroke-width="2"></path>
                    <path d="M272.985,162.794 C272.985,162.794 276.629,162.23 276.901,159.792 C276.901,159.792 279.987,5.585 277.323,2.92 C274.658,0.256 9.987,0.256 7.323,2.92 C7.153,3.09 3.407,5.922 3.407,5.922" id="Path" stroke="#262626" stroke-width="2"></path>
                    <path d="M4.401,162.716 C0.89,162.646 0.134,159.711 0.134,159.711 L268.231,159.592 C268.231,159.592 269.266,162.767 272.544,162.801" id="Path" stroke="#262626" stroke-width="2"></path>
                    <path d="M221.229,94.411 C221.475,94.165 235.045,94.064 235.291,94.311 C235.538,94.557 235.538,101.46 235.291,101.707 C235.045,101.953 221.026,101.848 221.026,101.848 C220.914,102.385 220.982,94.658 221.229,94.411 Z" id="Path" stroke="#262626" stroke-width="2"></path>
                    <path d="M174.27,139.949 C174.516,139.702 195.909,139.702 196.156,139.949 C196.402,140.195 196.402,150.796 196.156,151.042 C195.909,151.289 174.331,151.104 174.085,150.857 C173.838,150.611 174.023,140.195 174.27,139.949 Z" id="Path" stroke="#262626" stroke-width="2"></path>
                    <path d="M173.129,130.782 C180.883,130.752 197.1,130.504 197.248,130.652 C197.495,130.899 197.248,131.269 197.248,131.269 C197.248,131.269 180.041,131.787 172.15,131.748" id="Path" stroke="#262626" fill="#262626" fill-rule="nonzero"></path>
                    <path d="M184.754,130.605 L184.683,107.246 C184.843,107.247 185.957,108.212 185.796,108.371 C185.635,108.53 183.877,108.521 183.718,108.36 C183.554,108.194 184.362,107.564 184.362,107.564" id="Path" stroke="#262626"></path>
                    <path d="M184.754,139.764 L184.683,132.795 C184.843,132.796 185.957,133.761 185.796,133.92 C185.635,134.079 183.877,134.07 183.718,133.909 C183.554,133.743 184.362,133.113 184.362,133.113" id="Path" stroke="#262626"></path>
                    <path d="M188.452,102.377 L205.682,102.623 L205.681,145.754 L197.291,145.779 C197.292,145.619 198.258,144.505 198.417,144.666 C198.576,144.827 198.566,146.586 198.405,146.745 C198.239,146.909 197.609,146.101 197.609,146.101" id="Path" stroke="#262626"></path>
                    <path d="M176.355,88.579 C184.109,88.549 193.798,88.608 193.947,88.756 C194.193,89.003 194.193,89.126 193.947,89.373 C193.792,89.527 183.267,89.585 175.376,89.546" id="Path" stroke="#262626" fill="#262626" fill-rule="nonzero"></path>
                    <path d="M188.452,87.41 L188.452,82.769 L224.166,82.873 C224.165,83.033 223.199,84.147 223.04,83.986 C222.881,83.825 222.891,82.066 223.052,81.907 C223.218,81.743 223.848,82.551 223.848,82.551" id="Path" stroke="#262626"></path>
                    <path d="M184.754,98.245 L184.683,91.276 C184.843,91.277 185.957,92.242 185.796,92.401 C185.635,92.56 183.877,92.551 183.718,92.39 C183.554,92.224 184.362,91.594 184.362,91.594" id="Path" stroke="#262626"></path>
                    <path d="M227.286,116.32 C227.286,115.411 228.022,114.675 228.931,114.675 C229.839,114.675 230.576,115.411 230.576,116.32 C230.576,117.228 229.839,117.965 228.931,117.965 C228.022,117.965 227.286,117.228 227.286,116.32 Z" id="Path" stroke="#262626" fill="#262626" fill-rule="nonzero"></path>
                </g>
                <g id="whiteboard_thisismyworld" transform="translate(57.000000, 10.000000)" fill="#527A98" fill-rule="nonzero" stroke="#FFFFFF" stroke-linecap="round" stroke-linejoin="round" stroke-width="0.5">
                    <path d="M139.208,0.849 C130.556,0.871 119.723,1.973 105.11,4.109 C101.947,4.571 85.474,7.154 86.181,7.042 C82.866,7.564 80.463,7.937 78.183,8.281 C72.412,9.152 68.031,9.739 64.404,10.107 C60.26,10.527 57.18,10.632 55.103,10.433 C54.922,10.415 54.875,10.368 54.712,10.346 C54.794,10.098 54.886,9.857 54.886,9.585 C54.886,5.82 50.43,5.82 50.43,9.585 C50.43,10.091 50.603,10.497 50.843,10.867 C50.504,10.995 50.302,11.142 49.865,11.259 C47.798,11.81 44.953,12.106 41.976,12.106 C39,12.106 36.155,11.81 34.088,11.259 C33.695,11.154 33.511,11.025 33.197,10.911 C33.387,10.546 33.523,10.121 33.523,9.585 C33.523,5.854 29.167,5.833 29.089,9.498 C28.517,9.34 27.809,9.139 27.611,9.085 C21.784,7.507 17.427,7.723 12.877,11.128 C12.871,11.132 12.86,11.124 12.855,11.128 C12.844,11.136 12.844,11.142 12.833,11.15 C11.957,11.797 10.582,12.207 9.073,12.476 C8.437,11.654 7.635,10.906 6.531,10.368 C3.677,8.976 0.576,9.261 0.576,11.954 C0.576,14.217 4.207,14.992 7.922,14.671 C8.052,15.184 8.077,15.707 7.813,16.235 C7.555,16.751 7.754,17.39 8.269,17.648 C8.785,17.906 9.403,17.685 9.66,17.17 C10.127,16.236 10.141,15.342 9.986,14.475 C10.772,14.306 11.528,14.074 12.225,13.801 C12.119,14.754 12.019,15.732 11.92,16.779 C11.771,18.372 11.642,19.923 11.551,21.386 C11.437,23.215 11.366,24.808 11.355,26.145 C11.322,30.157 11.847,31.991 13.485,31.991 C14.484,31.991 15.62,30.67 16.81,28.536 C16.895,30.113 17.116,31.297 17.506,31.687 C17.807,31.988 18.248,32.083 18.657,31.905 C18.878,31.808 19.029,31.691 19.136,31.535 C19.211,31.425 19.243,31.312 19.288,31.187 C19.335,31.055 19.384,30.893 19.44,30.666 C19.525,30.317 19.638,29.864 19.809,29.036 C19.84,28.889 20.207,27.09 20.287,26.71 C20.493,25.742 20.68,24.896 20.874,24.081 C21.351,22.079 21.808,20.477 22.265,19.321 C22.457,18.834 22.635,18.523 22.808,18.235 C22.869,18.482 22.94,18.68 22.982,19.061 C23.1,20.119 23.134,21.215 23.134,23.842 C23.134,26.557 23.157,27.673 23.286,28.84 C23.51,30.85 23.989,31.991 25.351,31.991 C26.571,31.991 27.246,30.961 27.872,29.058 C28.271,27.845 28.632,26.354 29.089,24.037 C29.174,23.604 29.775,20.484 29.893,19.952 C29.935,19.764 29.962,19.706 30.002,19.539 C30.05,20.374 30.072,21.157 30.024,23.211 C30.016,23.511 30.006,23.651 30.002,23.82 C29.947,26.277 29.97,27.649 30.132,28.862 C30.391,30.802 31.04,31.991 32.479,31.991 C33.267,31.991 34.039,31.287 34.805,30.209 C34.951,31.296 35.787,31.991 37.217,31.991 C39.089,31.991 39.83,30.627 39.608,28.623 C39.541,28.019 39.123,26.853 38.912,26.08 C39.021,25.932 39.12,25.801 39.238,25.646 C39.523,25.269 40.881,23.569 41.042,23.364 C41.965,22.184 42.085,22.02 42.085,21.516 C42.085,20.94 41.618,20.473 41.042,20.473 C40.466,20.473 39.999,20.94 39.999,21.516 C39.999,21.325 40.025,21.241 40.064,21.169 C40.048,21.199 40.009,21.265 39.955,21.342 C39.838,21.511 39.655,21.744 39.39,22.081 C39.29,22.21 38.73,22.931 38.238,23.559 C38.227,23.524 38.229,23.53 38.217,23.494 C38.065,23.038 38.119,23.039 37.999,22.668 C38.363,21.379 38.739,20.035 38.847,19.061 C39.073,17.03 38.751,15.67 37.217,15.67 C35.345,15.67 34.625,17.056 34.848,19.061 C34.945,19.931 35.408,21.301 35.848,22.712 C35.759,23.003 35.751,23.197 35.652,23.494 C35.059,25.273 34.34,26.995 33.653,28.232 C33.306,28.856 32.979,29.333 32.697,29.644 C32.627,29.721 32.578,29.748 32.523,29.796 C32.398,29.552 32.273,29.17 32.197,28.601 C32.054,27.533 32.035,26.211 32.088,23.863 C32.092,23.695 32.103,23.553 32.11,23.255 C32.171,20.693 32.163,19.692 32.066,18.626 C31.897,16.764 31.446,15.67 30.111,15.67 C28.864,15.67 28.488,16.615 27.85,19.495 C27.728,20.047 27.109,23.196 27.024,23.624 C26.584,25.86 26.258,27.299 25.894,28.406 C25.758,28.821 25.633,29.051 25.503,29.318 C25.453,29.089 25.387,28.949 25.351,28.623 C25.233,27.564 25.221,26.469 25.221,23.842 C25.221,21.127 25.177,19.988 25.047,18.822 C24.824,16.812 24.344,15.67 22.982,15.67 C22.367,15.67 21.866,16.053 21.396,16.627 C21.513,16.176 21.769,15.546 21.852,15.149 C22.06,14.151 22.146,13.329 22.113,12.715 C22.058,11.694 21.636,10.911 20.613,10.911 C18.591,10.911 17.691,14.575 17.093,20.951 C17.019,21.735 17.055,22.277 17.006,23.016 C16.34,24.623 15.644,26.315 15.006,27.493 C14.537,28.359 14.107,29.043 13.746,29.492 C13.65,29.088 13.573,28.632 13.529,27.927 C13.43,26.348 13.473,24.148 13.637,21.516 C13.727,20.077 13.837,18.547 13.985,16.974 C14.096,15.786 14.411,13.024 14.463,12.584 C18.268,9.884 21.95,9.72 27.068,11.106 C27.332,11.178 28.814,11.593 29.198,11.693 C29.824,11.856 30.249,11.909 30.676,11.954 C32.801,13.427 36.897,14.192 41.976,14.192 C46.789,14.192 50.665,13.491 52.886,12.171 C55.152,12.819 58.99,12.742 64.622,12.171 C68.289,11.8 72.685,11.221 78.487,10.346 C80.772,10.001 102.259,6.634 105.414,6.173 C119.936,4.051 130.68,2.957 139.208,2.935 C149.349,2.909 155.551,4.505 157.398,7.738 C159.622,11.63 159.524,16.996 157.529,22.168 C155.912,26.359 153.34,29.405 151.552,29.775 C151.402,29.344 151.239,28.685 151.117,27.841 C150.98,26.886 150.97,25.485 150.9,24.233 C151.139,23.409 151.387,22.632 151.617,21.712 C152.242,19.213 152.663,16.813 152.813,15.018 C153.031,12.402 152.769,10.911 151.183,10.911 C149.738,10.911 149.064,13.01 148.792,16.496 C147.911,15.268 146.802,15.173 145.771,16.844 C145.494,17.293 145.174,18.112 144.858,18.887 C144.214,19.976 143.604,21.383 143.055,23.581 C143.048,23.608 143.061,23.641 143.055,23.668 C141.636,27.486 140.447,29.523 139.534,29.796 C139.519,29.766 139.506,29.767 139.49,29.731 C139.312,29.316 139.153,28.66 139.012,27.819 C138.83,26.726 138.797,25.129 138.73,23.646 C138.959,23.014 139.212,22.461 139.425,21.777 C140.178,19.368 140.708,16.916 140.903,15.04 C141.172,12.461 140.918,10.911 139.317,10.911 C137.195,10.911 136.491,15.125 136.491,21.451 C136.491,22.206 136.535,22.825 136.557,23.516 C135.241,26.919 133.762,29.234 132.601,29.688 C132.583,29.503 132.549,29.382 132.558,29.101 C132.587,28.173 132.75,26.917 133.079,25.059 C133.12,24.83 133.18,24.605 133.232,24.32 C133.768,21.368 133.841,20.886 133.905,20.017 C133.961,19.261 133.927,18.78 133.666,18.365 C133.068,17.414 132.141,17.651 131.449,18.343 C130.592,19.201 130.027,19.461 129.776,19.387 C129.756,19.381 129.732,19.293 129.711,19.278 C129.728,19.263 129.759,19.249 129.776,19.234 C131.024,18.151 131.566,16.982 130.558,15.975 C129.531,14.947 128.233,15.087 127.603,16.257 C127.303,16.814 127.228,17.58 127.277,18.343 C126.722,18.697 126.223,19.069 125.582,19.343 C125.058,19.567 124.816,19.549 124.408,19.647 C124.29,19.122 124.158,18.675 123.952,18.387 C123.77,18.133 123.552,17.969 123.321,17.887 C123.873,17.583 124.04,16.959 123.8,16.453 C123.714,16.272 123.591,16.135 123.43,15.975 C122.481,15.025 121.37,14.788 120.214,15.192 C119.465,15.454 118.948,15.822 117.78,16.757 C116.564,17.73 116.036,18.039 115.585,18.039 C115.507,18.039 115.425,18.002 115.346,17.996 C114.93,16.581 114.228,15.67 113.194,15.67 C111.144,15.67 110.565,17.324 111.847,18.626 C112.273,19.059 112.846,19.446 113.498,19.713 C113.671,20.896 113.772,22.297 113.65,23.755 C113.353,27.321 112.24,29.676 110.956,29.84 C110.845,29.639 110.749,29.333 110.651,28.884 C110.455,27.976 110.327,26.746 110.238,24.972 C110.215,24.506 110.204,24.466 110.152,23.211 C110.086,21.629 110.042,20.878 109.956,20.191 C109.772,18.718 109.538,18.039 108.456,18.039 C107.321,18.039 107.066,18.785 106.74,20.777 C106.628,21.46 106.509,22.587 106.392,23.711 C106.3,21.506 106.175,19.967 105.957,18.756 C105.605,16.797 105.016,15.67 103.697,15.67 C102.033,15.67 101.085,16.925 100.611,18.822 C100.466,19.401 100.379,20.017 100.328,20.625 C100.298,20.99 100.285,21.276 100.285,21.451 C100.285,22.027 100.752,22.494 101.328,22.494 C101.904,22.494 102.371,22.027 102.371,21.451 C102.371,21.33 102.39,21.102 102.415,20.799 C102.457,20.295 102.517,19.802 102.632,19.343 C102.864,18.413 103.194,17.984 103.545,17.865 C103.673,18.135 103.788,18.547 103.893,19.126 C104.092,20.236 104.217,21.708 104.305,23.885 C104.325,24.376 104.326,24.433 104.371,25.711 C104.548,30.772 104.607,31.381 105.609,31.883 C106.51,32.333 107.114,31.8 107.435,31.013 C107.581,30.655 107.695,30.177 107.804,29.536 C107.945,28.713 108.071,27.571 108.239,25.885 C108.327,27.245 108.424,28.467 108.608,29.318 C108.969,30.983 109.575,31.991 110.825,31.991 C113.736,31.991 115.323,28.629 115.715,23.929 C115.83,22.549 115.804,21.27 115.693,20.104 C116.322,20.086 116.902,19.841 117.541,19.452 C117.145,20.615 116.91,22.041 116.91,23.842 C116.91,25.189 116.922,25.918 116.997,26.819 C117.264,30.016 118.143,31.991 120.322,31.991 C123.229,31.991 124.547,28.825 124.734,24.276 C124.77,23.399 124.639,22.679 124.582,21.864 C125.151,21.736 125.755,21.556 126.407,21.277 C126.959,21.042 127.37,20.684 127.885,20.386 C128.206,20.858 128.632,21.222 129.189,21.386 C129.965,21.614 130.817,21.295 131.689,20.734 C131.621,21.335 131.572,21.722 131.167,23.95 C131.115,24.238 131.078,24.479 131.037,24.711 C130.69,26.665 130.505,27.976 130.471,29.036 C130.415,30.85 130.778,31.991 132.188,31.991 C133.91,31.991 135.504,30.322 136.926,27.732 C137.331,30.335 138.037,31.991 139.317,31.991 C140.862,31.991 142.016,30.826 143.185,28.579 C143.713,30.49 144.78,31.991 146.445,31.991 C147.408,31.991 148.311,30.906 149.183,29.058 C149.575,30.94 150.203,31.991 151.183,31.991 C154.106,31.991 157.482,28.098 159.484,22.907 C160.586,20.054 161.155,17.145 161.136461,14.366 C161.117,11.588 160.512,8.95 159.224,6.695 C156.857,2.553 150.082,0.821 139.208,0.849 Z M31.284,8.846 C31.356,8.846 31.436,9.094 31.436,9.585 C31.436,9.772 31.431,9.845 31.414,9.889 C31.347,9.79 31.154,9.673 31.154,9.585 C31.154,9.094 31.212,8.846 31.284,8.846 Z M52.669,8.846 C52.741,8.846 52.799,9.094 52.799,9.585 C52.799,9.628 52.685,9.691 52.669,9.737 C52.631,9.691 52.517,9.632 52.517,9.585 C52.517,9.094 52.597,8.846 52.669,8.846 Z M3.162,11.65 C3.803,11.587 4.737,11.807 5.618,12.237 C5.942,12.394 6.179,12.575 6.444,12.758 C6.384,12.758 6.33,12.781 6.27,12.78 C5.095,12.767 4.041,12.608 3.336,12.345 C2.815,12.151 2.662,11.986 2.662,11.954 C2.662,11.76 2.737,11.691 3.162,11.65 Z M93.787,15.496 C93.391,15.527 93.011,15.742 92.744,16.148 C92.489,16.536 92.343,17.092 92.222,17.865 C92.051,18.963 91.959,20.334 91.831,23.168 C91.825,23.301 91.775,24.546 91.722,25.646 C91.328,26.651 90.938,27.729 90.527,28.449 C90.213,28.999 89.916,29.42 89.658,29.688 C89.595,29.753 89.556,29.778 89.506,29.818 C89.382,29.573 89.277,29.169 89.201,28.601 C89.06,27.533 89.043,26.22 89.093,23.863 C89.096,23.703 89.086,23.562 89.093,23.277 C89.15,20.709 89.148,19.697 89.049,18.626 C88.877,16.758 88.43,15.67 87.093,15.67 C85.843,15.67 85.219,16.71 84.681,18.648 C84.358,19.81 84.133,20.956 83.681,23.668 C83.681,23.668 83.042,27.386 82.747,28.449 C82.651,28.794 82.559,28.968 82.464,29.21 C82.424,29.003 82.364,28.898 82.334,28.623 C82.216,27.564 82.203,26.469 82.203,23.842 C82.203,21.127 82.159,19.988 82.03,18.822 C81.806,16.812 81.327,15.67 79.965,15.67 C78.661,15.67 77.974,16.922 77.509,19.234 C77.492,19.119 77.485,18.889 77.466,18.778 C77.124,16.81 76.54,15.67 75.206,15.67 C73.895,15.67 73.343,16.795 72.989,18.756 C72.918,19.15 72.89,19.892 72.837,20.365 C72.783,19.893 72.777,19.15 72.706,18.756 C72.352,16.795 71.778,15.67 70.468,15.67 C68.804,15.67 67.856,16.925 67.382,18.822 C67.237,19.401 67.15,20.017 67.099,20.625 C67.069,20.99 67.056,21.276 67.056,21.451 C67.056,22.027 67.523,22.494 68.099,22.494 C68.675,22.494 69.142,22.027 69.142,21.451 C69.142,21.33 69.139,21.102 69.164,20.799 C69.206,20.295 69.288,19.802 69.403,19.343 C69.632,18.427 69.95,17.993 70.294,17.865 C70.422,18.136 70.537,18.547 70.642,19.126 C70.843,20.24 70.965,21.736 71.055,23.885 C71.078,24.446 71.089,24.465 71.142,25.972 C71.207,27.859 71.253,28.769 71.337,29.579 C71.393,30.116 71.457,30.539 71.555,30.861 C71.757,31.535 72.083,31.991 72.837,31.991 C73.591,31.991 73.938,31.535 74.141,30.861 C74.238,30.539 74.302,30.116 74.358,29.579 C74.442,28.769 74.488,27.859 74.554,25.972 C74.606,24.465 74.595,24.446 74.619,23.885 C74.708,21.736 74.83,20.24 75.032,19.126 C75.089,18.806 75.161,18.659 75.227,18.43 C75.293,18.659 75.367,18.804 75.423,19.126 C75.615,20.231 75.708,21.674 75.792,23.929 C75.806,24.282 75.807,24.372 75.836,25.233 C75.992,29.825 76.113,30.943 76.857,31.687 C77.199,31.969 77.188,31.965 77.879,31.948 C78.352,31.694 78.36,31.696 78.487,31.492 C78.603,31.249 78.6,31.256 78.618,31.166 C78.633,31.097 78.632,31.044 78.639,30.97 C78.648,30.883 78.654,30.755 78.661,30.601 C78.672,30.349 78.746,28.546 78.77,27.927 C78.825,26.466 78.89,25.146 78.987,23.907 C79.142,21.937 79.361,20.345 79.639,19.191 C79.708,18.906 79.783,18.776 79.856,18.561 C79.889,18.743 79.939,18.83 79.965,19.061 C80.083,20.119 80.117,21.215 80.117,23.842 C80.117,26.557 80.14,27.673 80.269,28.84 C80.493,30.85 80.972,31.991 82.334,31.991 C83.584,31.991 84.208,30.951 84.746,29.014 C85.069,27.851 85.294,26.706 85.746,23.994 C85.746,23.994 86.385,20.276 86.68,19.213 C86.764,18.91 86.858,18.784 86.941,18.561 C86.955,18.668 86.973,18.699 86.985,18.822 C87.073,19.78 87.062,20.759 87.006,23.233 C87,23.519 87.01,23.658 87.006,23.82 C86.954,26.285 86.976,27.651 87.137,28.862 C87.394,30.804 88.027,31.991 89.462,31.991 C89.743,31.991 90.014,31.802 90.288,31.665 C88.974,33.326 88.033,34.739 87.593,35.838 C86.871,37.643 87.474,39.12 89.462,39.12 C91.19,39.12 92.178,37.581 92.809,34.947 C93.02,34.065 93.102,32.525 93.244,31.361 C94.133,30.324 95.092,29.262 96.047,28.253 C96.381,27.901 97.268,27.011 97.329,26.949 C97.533,26.746 97.634,26.478 97.634,26.211 C97.634,25.944 97.533,25.675 97.329,25.472 C96.922,25.064 96.259,25.064 95.852,25.472 C95.784,25.539 94.889,26.458 94.548,26.819 C94.249,27.135 93.975,27.475 93.678,27.797 C93.69,27.614 93.711,27.551 93.722,27.362 C93.731,27.2 93.745,26.727 93.765,26.319 C93.958,25.81 94.169,25.356 94.352,24.798 C95.713,20.653 96.142,17.178 94.939,15.975 C94.597,15.633 94.182,15.466 93.787,15.496 Z M51.474,15.67 C49.809,15.67 48.862,16.925 48.388,18.822 C48.243,19.401 48.156,20.017 48.105,20.625 C48.075,20.99 48.062,21.276 48.062,21.451 C48.062,22.027 48.529,22.494 49.105,22.494 C49.681,22.494 50.148,22.027 50.148,21.451 C50.148,21.33 50.145,21.102 50.17,20.799 C50.212,20.295 50.294,19.802 50.409,19.343 C50.623,18.487 50.916,18.075 51.235,17.909 C51.327,18.176 51.415,18.53 51.474,19.061 C51.591,20.119 51.626,21.215 51.626,23.842 C51.626,26.557 51.648,27.673 51.778,28.84 C52.001,30.85 52.481,31.991 53.842,31.991 C54.583,31.991 55.315,31.345 56.037,30.383 C56.264,31.402 57.209,31.991 58.602,31.991 C60.474,31.991 61.193,30.627 60.971,28.623 C60.922,28.185 60.588,27.273 60.471,26.776 C61.632,25.734 62.817,24.885 63.34,24.885 C63.916,24.885 64.383,24.418 64.383,23.842 C64.383,23.266 63.916,22.799 63.34,22.799 C62.407,22.799 61.137,23.56 59.862,24.559 C59.719,24.112 59.77,24.065 59.58,23.494 C59.428,23.038 59.482,23.039 59.363,22.668 C59.726,21.379 60.123,20.036 60.232,19.061 C60.457,17.03 60.135,15.67 58.602,15.67 C56.73,15.67 56.01,17.056 56.233,19.061 C56.329,19.926 56.777,21.295 57.211,22.69 C57.12,22.988 57.117,23.189 57.015,23.494 C56.422,25.273 55.703,26.995 55.016,28.232 C54.669,28.856 54.342,29.333 54.06,29.644 C53.979,29.379 53.896,29.102 53.842,28.623 C53.725,27.564 53.712,26.469 53.712,23.842 C53.712,21.127 53.668,19.988 53.538,18.822 C53.315,16.812 52.835,15.67 51.474,15.67 Z M122.322,18.039 C122.449,18.045 122.454,18.038 122.496,18.039 C122.216,18.168 121.92,18.299 121.757,18.626 C121.004,20.131 121.289,21.377 122.517,21.821 C122.58,22.602 122.684,23.317 122.648,24.189 C122.504,27.682 121.578,29.905 120.322,29.905 C119.746,29.905 119.264,28.806 119.084,26.645 C119.015,25.82 118.997,25.133 118.997,23.842 C118.997,20.44 119.74,18.799 120.866,18.256 C121.284,18.055 121.676,18.01 122.322,18.039 Z M147.227,18.995 C147.354,18.904 147.396,18.915 147.618,19.169 C147.746,19.315 147.841,19.485 147.879,19.56 C148.057,19.915 148.356,20.042 148.662,20.082 C148.657,20.564 148.636,20.959 148.64,21.473 C148.646,22.381 148.675,23.12 148.705,23.929 C148.315,25.201 147.954,26.618 147.553,27.58 C147.196,28.437 146.851,29.119 146.554,29.557 C146.465,29.688 146.404,29.744 146.336,29.818 C145.329,29.585 144.571,26.535 145.054,24.276 C145.069,24.235 145.082,24.21 145.097,24.168 C145.282,23.664 146.184,21.114 146.423,20.473 C146.554,20.123 146.635,20.04 146.749,19.756 C146.912,19.512 147.079,19.103 147.227,18.995 Z M58.819,28.558 C58.827,28.619 58.878,28.78 58.884,28.84 C58.988,29.774 58.934,29.905 58.602,29.905 C58.299,29.905 58.168,29.875 58.08,29.84 C58.112,29.579 58.47,29.059 58.819,28.558 Z M37.456,28.579 C37.464,28.636 37.515,28.784 37.521,28.84 C37.625,29.774 37.55,29.905 37.217,29.905 C36.716,29.905 36.805,30.004 36.869,29.688 C36.918,29.448 37.29,28.922 37.456,28.579 Z M90.614,34.969 C90.227,36.296 89.797,37.033 89.462,37.033 C89.437,37.033 89.44,37.034 89.419,37.033 C89.433,36.952 89.424,36.879 89.527,36.62 C89.683,36.232 90.275,35.502 90.614,34.969 Z" id="Shape"></path>
                    <path d="M172.97,26.331 C172.64,28.086 169.411,26.988 169.479,25.495 C169.723,20.188 171.106,4.974 171.364,3.664 C171.648,2.227 176.343,-0.675 177.066,1.066 C177.519,2.156 173.544,22.885 172.97,26.331" id="Path"></path>
                    <path d="M168.885,29.868 C169.297,27.521 172.569,27.373 171.808,30.962 C171.452,32.645 168.576,31.627 168.885,29.868 Z" id="Path"></path>
                </g>
                <g id="avatar_color" transform="translate(226.000000, 72.000000)" fill-rule="nonzero">
                    <path d="M50.625,0.656 C51.469,0.589 52.329,0.627 53.188,0.75 C56.771,1.265 59.811,3.043 61,5.312 C62.306,7.804 61.375,10.803 57.688,14.031 C57.638,14.074 57.632,14.138 57.594,14.188 C57.086,14.162 56.765,14.141 55.75,14.125 C54.184,14.101 53.574,14.077 52.719,14.031 C52.249,14.006 51.789,13.977 51.375,13.938 C50.398,13.843 49.411,13.694 48.156,13.438 C47.853,13.376 46.704,13.117 46.438,13.062 C45.87,12.947 45.484,12.888 45.125,12.844 C42.386,9.005 42.303,5.769 44.344,3.469 C45.748,1.886 48.094,0.857 50.625,0.656 Z" id="Path" fill="#527A98"></path>
                    <path d="M41.688,10.719 C42.032,11.585 42.568,12.476 43.156,13.375 C42.941,13.612 42.686,13.829 42.688,14.281 C42.697,16.496 45.332,17.218 51.188,17.781 C55.956,18.24 60.341,17.75 60.688,16 C60.84,15.229 60.436,14.852 59.844,14.594 C60.82,13.621 61.614,12.664 62.188,11.688 C62.218,11.713 62.216,11.759 62.25,11.781 C66.993,14.822 68.365,20.221 68.3442366,30.75 C68.342,31.529 68.313,35.778 68.312,36.625 C68.303,36.75 68.245,37.113 68.188,37.625 C68.091,38.486 67.969,39.464 67.781,40.5 C67.246,43.459 66.441,46.406 65.281,49.156 C61.831,57.341 56.191,61.955 47.781,61.406 C37.146,60.712 34.77,57.793 33.75,44.25 C34.023,44.3 34.275,44.504 34.562,44.438 C35.565,44.204 36.288,43.316 36.875,41.938 C37.646,40.128 38.247,37.186 38.312,35.562 C38.405,33.255 37.005,31.872 35.125,31.594 C34.498,31.501 33.823,31.534 33.125,31.688 C33.069,29.91 32.977,26.936 32.969,26.688 C32.968,26.662 32.94,26.65 32.938,26.625 C32.971,18.71 36.004,13.437 41.531,10.875 C41.603,10.842 41.628,10.766 41.688,10.719 Z" id="Path" fill="#527A98"></path>
                    <path d="M33.531,33.656 C35.19,33.292 36.374,33.923 36.312,35.469 C36.257,36.865 35.699,39.589 35.031,41.156 C34.673,41.996 34.32,42.454 34.125,42.5 C34,42.529 33.603,42.085 33.156,41.438 C33.686,39.659 33.713,38.2 33,36 C33.03,35.665 32.977,35.34 32.688,35.125 C32.16,34.733 32.104,34.556 32.188,34.406 C32.343,34.128 32.851,33.806 33.531,33.656 Z" id="Path" fill="#FFFFFF"></path>
                    <path d="M3.094,45.781 L3.281,46.031 C3.16,45.994 3.073,46.051 2.969,46.062 L3.094,45.781 Z" id="Path" fill="#262626"></path>
                    <path d="M2.969,47.562 C2.969,47.828 2.99,47.97 2.906,48.906 C2.879,49.216 2.859,49.418 2.844,49.625 C2.764,50.74 2.823,51.482 3.031,52.094 C3.02,52.15 2.928,52.157 2.938,52.219 C2.972,52.436 3.231,53.932 3.469,55.406 C3.286,55.421 3.094,55.415 2.938,55.531 L2.156,56.094 C1.118,55.443 0.198,54.392 0.188,53.875 C0.189,53.938 0.263,53.883 0.438,53.781 C0.512,53.738 0.927,53.526 1,53.469 C1.376,53.177 1.483,52.912 1.5,52.5 C1.503,52.42 1.475,52.433 1.469,52.438 C1.495,52.417 1.569,52.403 1.688,52.375 C1.72,52.367 1.741,52.359 1.812,52.344 C2.369,52.22 2.643,52.079 2.656,51.562 C2.658,51.468 2.68,50.682 2.688,50.406 C2.699,49.986 2.727,49.608 2.75,49.25 C2.796,48.525 2.869,47.987 2.969,47.562 Z" id="Path" fill="#FFFFFF"></path>
                    <path d="M3.875,49 C3.928,49.271 4.002,49.626 4.031,49.812 C4.043,49.889 4.147,49.875 4.188,49.938 C4.18,50.203 4.167,50.457 4.25,50.812 C4.271,50.901 4.453,51.653 4.469,51.781 C4.469,51.781 4.505,51.657 4.719,51.594 C4.454,51.672 4.297,51.954 4.375,52.219 C4.386,52.255 4.451,52.218 4.469,52.25 C4.458,52.307 4.366,52.314 4.375,52.375 C4.388,52.457 5.088,56.685 5.219,57.375 C5.163,57.395 5.11,57.395 5.031,57.406 C4.933,57.42 4.853,57.415 4.781,57.406 C4.723,57.107 4.583,56.234 4.312,54.531 C4.307,54.499 3.998,52.443 3.938,52.062 C3.935,52.046 3.911,52.047 3.906,52.031 C3.906,51.969 3.993,51.936 3.969,51.875 C3.794,51.43 3.77,50.76 3.844,49.719 C3.858,49.519 3.848,49.305 3.875,49 Z" id="Path" fill="#262626"></path>
                    <path d="M5.156,49.812 C5.117,49.827 5.162,49.859 5.281,50.219 C5.429,50.665 5.534,51.346 5.625,52.219 C5.659,52.548 5.804,54.481 5.812,54.562 C5.814,54.579 5.84,54.578 5.844,54.594 C5.808,54.675 5.794,54.759 5.781,54.844 C5.612,53.84 5.492,53.154 5.375,52.406 C5.361,52.316 5.357,52.333 5.344,52.25 C5.335,52.19 5.246,52.208 5.219,52.156 C5.309,51.993 5.498,51.895 5.469,51.656 C5.445,51.463 5.419,51.382 5.281,50.844 C5.253,50.733 5.237,50.642 5.219,50.562 C5.093,50.023 5.122,49.825 5.156,49.812 Z" id="Path" fill="#FFFFFF"></path>
                    <path d="M5.875,55.406 C5.947,55.542 5.988,55.686 6.125,55.781 C6.238,55.859 6.474,56.027 6.781,56.25 C7.296,56.624 7.849,57.052 8.469,57.531 C10.238,58.9 12.008,60.389 13.656,61.938 C16.07,64.206 18.026,66.393 19.312,68.438 C19.533,68.788 19.727,69.163 19.906,69.5 C20.528,70.671 22.265,69.74 21.656,68.562 L21.656,68.531 C21.569,68.367 21.471,68.198 21.375,68.031 C22.877,67.842 24.652,67.894 27.062,68.344 C27.895,68.499 28.745,68.677 29.906,68.938 C36.107,70.329 37.147,70.464 38.5,69.562 C39.099,69.163 39.902,68.868 41,68.594 C41.379,68.499 41.774,68.415 42.281,68.312 C42.281,68.313 42.464,68.264 42.531,68.25 C42.675,68.357 42.729,68.513 42.906,68.594 C43.906,69.05 45.806,69.316 48,69.344 C50.136,69.37 52.121,69.165 53.156,68.781 C53.212,68.761 53.228,68.711 53.281,68.688 C54.487,69.019 55.351,69.274 56.25,69.594 C57.429,70.013 58.377,70.439 59.031,70.875 C60.505,71.857 62.315,82.648 63.688,95.062 C63.888,96.874 63.659,99.83 63.031,103.844 C62.878,104.821 62.702,105.853 62.5,107 C62.351,107.847 61.9,110.22 61.688,111.406 C61.66,111.401 61.654,111.412 61.625,111.406 C61.141,111.312 60.504,111.137 59.781,110.906 C59.738,110.892 59.7,110.914 59.656,110.906 C59.654,108.729 59.786,106.095 59.719,104.281 C59.716,104.209 59.673,104.161 59.656,104.094 C59.808,103.942 59.947,103.765 59.969,103.531 C60.355,99.348 60.583,95.689 60.625,92.281 C60.667,88.874 60.507,85.703 60.125,82.469 C60.06,81.92 59.58,81.529 59.031,81.594 C58.483,81.659 58.091,82.17 58.156,82.719 C58.859,88.667 58.687,94.559 58.031,102.125 C52.473,103.805 43.277,103.539 34.969,101.969 C34.951,101.49 34.935,101.153 34.906,100.406 C34.879,99.716 34.632,93.443 34.594,92.125 C34.5,88.912 34.507,86.358 34.594,84.438 C34.617,83.92 34.695,83.224 34.844,82.375 C34.906,82.023 34.985,81.663 35.062,81.281 C35.146,80.871 35.321,80.064 35.438,79.562 C35.666,79.412 35.833,79.201 35.875,78.906 C35.953,78.36 35.578,77.828 35.031,77.75 C34.873,77.727 32.661,77.368 31.812,77.219 C29.39,76.791 26.975,76.299 24.719,75.75 C20.236,74.66 16.961,73.491 15.594,72.344 C14.459,71.391 12.491,69.133 9.969,65.969 C9.691,65.62 9.413,65.273 9.125,64.906 C7.728,63.128 6.267,61.22 4.844,59.312 C4.501,58.853 4.006,58.164 3.562,57.562 L3.781,57.406 C3.792,57.47 3.84,57.795 3.844,57.812 C3.964,58.369 4.525,58.494 5.156,58.406 C5.815,58.315 6.359,58.02 6.219,57.406 C6.193,57.292 6.003,56.157 5.875,55.406 Z" id="Path" fill-opacity="0.945578" fill="#262626"></path>
                    <path d="M46.781,63.312 C47.088,63.338 47.337,63.385 47.656,63.406 C48.406,63.455 49.102,63.399 49.812,63.375 C49.812,65.151 49.812,65.381 49.812,67.156 C49.265,67.237 48.802,67.353 48.031,67.344 C47.472,67.337 47.207,67.24 46.781,67.188 C46.781,65.914 46.781,64.211 46.781,63.312 Z" id="Path" fill="#FFFFFF"></path>
                    <path d="M35.094,104 C39.299,104.769 43.689,105.269 47.781,105.312 C51.555,105.353 54.934,104.974 57.75,104.25 C57.748,104.284 57.717,104.308 57.719,104.344 C57.919,109.742 57.809,117.285 57.5,124.156 C57.358,127.305 57.189,130.063 57,132.031 C56.905,133.02 56.811,133.769 56.719,134.281 C56.716,134.295 56.721,134.299 56.719,134.312 C55.554,134.313 49.041,134.317 47.656,134.312 C47.631,134.104 47.581,133.937 47.562,133.625 C47.505,132.636 47.494,131.223 47.531,129.562 C47.608,126.102 47.888,122.067 48.281,118.75 C48.361,118.703 48.411,118.663 48.469,118.625 C48.688,118.483 48.876,118.323 49.062,118.125 C49.486,117.674 49.813,117.062 50.031,116.25 C50.174,115.717 49.846,115.174 49.312,115.031 C48.779,114.888 48.237,115.216 48.094,115.75 C47.958,116.257 47.811,116.552 47.625,116.75 C47.557,116.822 47.466,116.878 47.375,116.938 C47.322,116.972 47.088,117.12 47.031,117.156 C46.632,117.41 46.374,117.716 46.312,118.219 C45.894,121.651 45.612,125.885 45.531,129.5 C45.48,131.821 45.519,133.081 45.625,134.125 C44.895,134.178 43.819,134.249 43.219,134.281 C42.184,134.337 41.166,134.373 40.219,134.406 C38.51,134.467 37.097,134.475 36.062,134.438 C35.624,134.422 35.331,134.408 35.062,134.375 C34.92,132.505 34.812,127.968 34.812,123.875 C34.812,122.845 34.808,122.598 34.719,118.969 C34.659,116.527 34.63,114.9 34.625,113.219 C34.614,109.274 34.763,106.231 35.125,104.094 C35.131,104.057 35.092,104.036 35.094,104 Z" id="Path" fill="#AAAAAA"></path>
                    <path d="M59.625,112.938 C60.068,113.072 60.475,113.196 60.844,113.281 C60.892,114.645 60.88,115.588 60.688,116.406 C60.615,116.716 60.255,117.993 60.188,118.25 C60.008,118.937 59.772,119.498 59.531,120.031 C59.61,117.517 59.608,115.345 59.625,112.938 Z" id="Path" fill="#FFFFFF"></path>
                    <path d="M43.312,136.25 C43.336,136.249 43.381,136.251 43.406,136.25 C43.421,136.27 43.421,136.293 43.438,136.312 C43.731,136.662 44.031,137.614 44.031,138.219 C44.031,139.329 36.281,139.329 36.281,138.219 C36.281,137.463 36.365,136.793 36.5,136.594 C36.545,136.528 36.504,136.446 36.531,136.375 C37.585,136.401 38.38,136.475 40.312,136.406 C41.272,136.372 42.267,136.306 43.312,136.25 Z" id="Path" fill-opacity="0.945578" fill="#262626"></path>
                    <path d="M48.562,136.312 L55.844,136.312 C55.856,136.355 55.825,136.396 55.844,136.438 C55.91,136.588 56,137.411 56,137.969 C56,139.079 48.219,139.079 48.219,137.969 C48.219,137.498 48.373,136.741 48.531,136.469 C48.56,136.419 48.543,136.365 48.562,136.312 Z" id="Path" fill-opacity="0.945578" fill="#262626"></path>
                </g>
                <g id="avatar_outline" transform="translate(225.000000, 71.000000)" stroke="#262626" stroke-linecap="round" stroke-linejoin="round">
                    <g id="Group">
                        <path d="M32.959,27.708 C33.032,29.853 33.098,31.871 33.164,33.77" id="Path" stroke-width="2"></path>
                        <path d="M46.766,63.953 C46.766,65.412 46.766,66.871 46.766,68.331" id="Path" stroke-width="2"></path>
                        <path d="M51.816,64.251 C51.816,65.594 51.816,66.936 51.816,68.278" id="Path" stroke-width="2"></path>
                        <path d="M52.594,67.275 C60.869,70.082 37.089,70.083 45.711,66.892" id="Path" stroke-width="2"></path>
                        <path d="M35.371,103.885 C42.079,105.19 53.138,106.216 59.857,103.976" id="Path" stroke-width="2"></path>
                        <path d="M50.067,117.004 C49.506,119.094 48.383,118.759 48.31,119.353 C47.433,126.554 47.253,136.306 47.897,136.322 C48.677,136.34 58.408,136.322 58.408,136.322 C59.178,136.322 60.143,116.966 59.711,105.304" id="Path" stroke-width="2"></path>
                        <path d="M35.13,104.942 C34.213,110.362 34.807,120.39 34.807,124.869 C34.807,128.037 34.878,134.124 35.069,136.07 C35.155,136.952 47.468,136.07 47.468,136.07" id="Path" stroke-width="2"></path>
                        <path d="M57.759,137.042 C57.93,137.428 57.99,138.472 57.99,138.953 C57.99,141.397 48.214,141.397 48.214,138.953 C48.214,138.346 48.411,137.418 48.675,136.962" id="Path" stroke-width="2"></path>
                        <path d="M57.935,138.148 C55.82,139.305 50.238,139.23 48.182,138.247" id="Path"></path>
                        <path d="M42.109,10.953 C36.454,13.574 32.954,19.019 32.946,27.708" id="Path" stroke-width="2"></path>
                        <path d="M63.776,11.928 C71.3,16.752 70.3,27.992 70.3,37.636 C70.3,37.636 68.659,64.718 48.719,63.417 C37.317,62.673 34.713,59.226 33.689,44.91" id="Path" stroke-width="2"></path>
                        <path d="M59.339,15.781 C67.984,8.212 61.802,1.846 54.32,0.772 C46.924,-0.29 38.828,5.338 45.31,14.422" id="Path" stroke-width="2"></path>
                        <path d="M56.91,15.267 C59.055,13.326 60.989,7.735 59.758,2.925" id="Path"></path>
                        <path d="M48.059,14.334 C46.274,10.809 46.059,3.06 49.043,1.036" id="Path"></path>
                        <path d="M51.988,14.334 C51.988,14.334 49.534,5.167 53.062,1.137" id="Path"></path>
                        <path d="M54.417,14.791 C55.442,11.812 57.934,6.316 56.118,1.634" id="Path"></path>
                        <path d="M54.199,68.622 C55.725,69.038 58.83,69.881 60.578,71.046 C62.968,72.64 65.04,90.007 65.696,95.943 C66.149,100.04 64.346,108.734 63.548,113.312 C63.474,113.735 61.713,113.251 60.483,112.859" id="Path" stroke-width="2"></path>
                        <path d="M60.143,83.587 C61.049,91.264 60.473,98.957 59.968,104.426" id="Path" stroke-width="2"></path>
                        <path d="M45.055,67.903 C43.529,68.319 40.678,68.578 38.93,69.744 C36.54,71.337 26.446,66.562 20.843,68.197 L21.783,70.016 C18.164,63.198 7.697,55.973 7.697,55.973" id="Path" stroke-width="2"></path>
                        <path d="M35.582,79.827 C35.582,79.827 34.673,83.474 34.586,85.404 C34.328,91.091 34.995,101.245 34.995,104.092" id="Path" stroke-width="2"></path>
                        <path d="M45.201,136.662 C45.659,137.207 46.042,138.398 46.042,139.218 C46.042,141.662 36.267,141.662 36.267,139.218 C36.267,138.525 36.338,137.538 36.675,137.042" id="Path" stroke-width="2"></path>
                        <path d="M46.06,138.447 C43.945,139.604 38.363,139.529 36.307,138.547" id="Path"></path>
                        <path d="M60.068,121.818 C60.236,121.495 60.395,121.129 60.541,120.714" id="Path" stroke-width="2"></path>
                        <path d="M62.859,113.777 C63.026,116.956 62.689,117.436 62.147,119.508 C61.628,121.49 60.864,122.782 60.093,123.601" id="Path" stroke-width="2"></path>
                        <path d="M34.942,106.556 C41.65,107.861 52.709,108.887 59.428,106.647" id="Path" stroke-width="2"></path>
                        <path d="M37.787,105.304 C37.733,105.54 37.666,105.771 37.666,106.014" id="Path"></path>
                        <path d="M42.505,105.936 C42.505,106.184 42.432,106.412 42.401,106.654" id="Path"></path>
                        <path d="M56.526,105.559 C56.526,105.855 56.526,106.151 56.526,106.447" id="Path"></path>
                        <path d="M51.334,106.126 C51.323,106.461 51.425,106.999 51.294,107.304" id="Path"></path>
                        <path d="M52.287,17.798 C56.297,18.184 60.537,17.738 60.72,16.811 C60.916,15.822 56.297,16.319 52.287,15.933 C48.277,15.547 44.675,14.03 44.6799948,15.267 C44.686,16.796 48.277,17.412 52.287,17.798 Z" id="Path" stroke-width="2"></path>
                        <path d="M38.422,33.729 C40.96,24.378 45.208,18.439 46.588,17.059" id="Path"></path>
                        <path d="M36.904,56.041 C36.421,52.107 36.348,48.405 36.567,44.966" id="Path"></path>
                        <path d="M41.942,61.237 C40.348,38.188 50.067,19.949 50.067,18.943" id="Path"></path>
                        <path d="M49.043,62.436 C47.421,46.118 51.645,23.533 53.062,18.146" id="Path"></path>
                        <path d="M55.322,61.237 C58.579,46.715 56.517,20 56.517,18.001" id="Path"></path>
                        <path d="M61.173,59.241 C66.032,43.428 60.473,19.647 58.973,18.146" id="Path"></path>
                        <path d="M70.344,35.139 C70.199,31.512 64.835,19.936 61.049,17.493" id="Path"></path>
                        <path d="M68.658,19.701 C66.434,16.923 61.57,15.131 60.647,15.824" id="Path"></path>
                        <path d="M33.686,24.053 C35.617,21.478 43.384,17.293 45.055,16.624" id="Path"></path>
                        <path d="M35.632,17.595 C38.748,16.022 42.329,15.032 44.631,15.319" id="Path"></path>
                        <path d="M33.086,36.913 C29.234,34.048 38.509,31.265 38.299,36.513 C38.217,38.565 36.549,48.504 33.086,42.718 C33.599,41.239 33.96,39.894 33.015,37.105" id="Path" stroke-width="2"></path>
                        <path d="M34.372,35.335 C36.41,34.302 37.259,35.154 36.409,39.109" id="Path"></path>
                        <path d="M35.358,42.616 C36.117,43.783 36.236,44.916 35.643,46.102" id="Path"></path>
                        <path d="M34.13,43.12 C34.486,44.246 34.68,45.243 34.13,46.344" id="Path"></path>
                        <path d="M40.648,124.219 C41.484,124.219 42.314,124.342 43.151,124.342" id="Path"></path>
                        <path d="M52.606,124.312 C53.624,124.312 54.649,124.279 55.665,124.342" id="Path"></path>
                        <path d="M44.864,111.83 C44.586,113.776 44.264,116.089 41.961,116.129 C39.495,116.172 39.58,111.826 39.58,111.826 C40.834,112.366 44.864,111.83 44.864,111.83 Z" id="Path" stroke-width="2"></path>
                        <path d="M5.859,53.078 C6.373,52.927 5.041,50.689 5.977,50.339 C7.081,49.925 7.174,54.022 7.325,55.498" id="Path"></path>
                        <path d="M2.929,57.543 C1.875,56.894 0.699,55.712 0.682,54.899 C0.674,54.495 1.554,54.17 1.68,54.071 C2.211,53.658 1.803,53.347 2.159,53.063 C2.496,52.793 3.151,52.92 3.161,52.539 C3.194,51.227 3.178,47.084 4.181,47.506 C4.995,47.848 3.861,51.434 4.501,53.061" id="Path"></path>
                        <path d="M3.514,47.532 L3.408,47.068 L3.868,46.078 C3.868,46.078 3.628,45.003 3.879,44.987 C4.142,44.97 4.204,46.085 4.204,46.085 L4.786,46.85 C4.786,46.85 5.331,49.574 5.512,50.744" id="Path"></path>
                        <path d="M5.86,53.312 C5.868,53.367 5.878,53.426 5.887,53.487 C6.119,54.965 6.657,58.187 6.729,58.502 C6.825,58.922 5.423,59.115 5.333,58.698 C5.237,58.257 4.692,54.761 4.433,53.14" id="Path"></path>
                        <path d="M4.881,47.504 C4.528,47.794 4.079,47.711 3.701,47.535" id="Path"></path>
                        <path d="M4.545,57.337 L3.169,58.361 C3.169,58.361 12.511,71.219 15.96,74.112 C19.954,77.463 35.896,79.75 35.896,79.75" id="Path" stroke-width="2"></path>
                    </g>
                </g>
            </g>
        </g>
    </g>
</svg>