<?xml version="1.0" encoding="UTF-8"?>
<svg width="1184px" height="138px" viewBox="0 0 1184 138" version="1.1" xmlns="http://www.w3.org/2000/svg" xmlns:xlink="http://www.w3.org/1999/xlink">
    <!-- Generator: Sketch 55.2 (78181) - https://sketchapp.com -->
    <title>Clouds</title>
    <desc>Created with Sketch.</desc>
    <g id="website-2.0" stroke="none" stroke-width="1" fill="none" fill-rule="evenodd">
        <g id="00_Webseite-2.0" transform="translate(1.000000, -422.000000)">
            <g id="Clouds" transform="translate(0.000000, 422.000000)">
                <g id="clouds_shadw">
                    <path d="M447.611,1.033 C427.619,0.258 410.86,3.512 397.08,10.064 C392.023,12.468 387.531,15.28 383.486,18.377 C383.023,18.251 382.502,18.118 381.893,17.97 C380.056,17.525 377.951,17.072 375.58,16.658 C367.892,15.315 359.898,14.628 351.736,14.72 C338.133,14.874 324.087,17.245 310.299,22.627 C310.284,22.632 310.282,22.652 310.268,22.658 C304.06,22.909 297.645,25.214 291.424,29.814 C290.824,28.789 290.124,27.78 289.236,26.814 C284.295,21.434 275.754,18.158 262.861,17.908 C251.062,17.678 242.454,21.803 236.6425,28.783 C234.6641,31.159 233.146,33.706 232.0488,36.252 C231.731,36.989 231.6522,37.341 231.455,37.908 C227.5675,35.838 222.5454,34.656 216.1425,34.783 C208.1742,34.94 201.2066,38.554 195.2988,44.439 C193.2022,46.528 191.391,48.735 189.8613,50.97 C189.3245,51.755 188.8764,52.5 188.4863,53.158 C188.4203,53.269 188.417,53.312 188.3613,53.408 C180.1809,54.166 172.6856,56.448 166.4863,60.095 C165.4144,58.768 164.4354,57.408 163.1738,56.158 C157.1986,50.236 150.4175,46.658 142.98627,46.658 C137.91323,46.658 133.44732,48.021 129.5175,50.345 C118.2762,39.707 106.7086,34.312 95.705,33.658 C89.0066,33.259 82.5175,34.603 76.4238,37.533 C69.6544,40.787 64.0742,45.937 60.6738,51.22 C60.6751,50.483 60.1755,49.824 59.4238,49.72 C56.5943,49.328 53.8353,49.285 51.2363,49.533 C36.942,50.897 26.703,61.266 26.736,73.22 C26.744,75.882 27.417,78.612 28.518,81.345 C22.722,81.971 17.314,83.806 12.674,86.877 C4.344,92.389 -0.527,101.023 0.111,109.345 C0.812,118.488 7.889,125.902 20.455,129.564 C25.85,131.136 32.165,132.037 39.393,132.189 C48.9247,132.39 60.1001,131.272 72.7363,128.845 C87.9154,133.668 106.2303,136.345 125.4863,136.345 C157.4393,136.345 185.4743,129.08 201.33,118.002 C211.8918,119.609 225.2809,120.626 237.1738,120.627 C266.423,120.627 311.718,117.623 324.643,113.595 C338.644,116.201 351.074,117.312 360.58,116.814 C363.084,121.599 368.114,125.419 375.58,127.595 C384.894,130.31 397.696,130.433 413.549,127.845 C424.591,131.374 442.451,133.158 461.486,133.158 C487.84,133.158 515.652,127.101 528.736,118.377 C533.733,122.3 541.066,125.362 550.58,127.283 C568.317,130.864 592.93,130.407 624.08,125.314 C635.647,127.66 646.823,129.064 657.236,129.064 C679.693,129.064 698.467,126.822 712.299,121.908 C719.187,119.461 724.726,116.339 728.924,112.564 C740.949,122.667 767.951,129.064 797.236,129.064 C816.829,129.064 834.945,127.362 845.861,123.877 C861.421,126.357 873.983,126.18 883.174,123.502 C890.102,121.482 894.791,117.993 897.455,113.689 C910.849,116.406 924.835,115.316 939.424,109.47 C953.09,113.829 967.938,115.47 989.924,115.47 C992.16,115.47 994.614,115.377 997.518,115.158 C998.978,115.047 1004.562,114.523 1005.143,114.47 C1005.496,114.438 1005.739,114.405 1006.049,114.377 C1006.056,114.616 1005.968,114.856 1005.986,115.095 C1006.569,122.691 1012.427,128.854 1022.799,131.877 C1031.796,134.499 1043.975,134.732 1059.08,132.408 C1069.83,135.822 1088.216,137.408 1108.705,137.408 C1149.19,137.408 1182.17,123.24 1182.17,105.002 C1182.17,98.121 1178.03,90.219 1171.05,85.002 C1164.66,80.23 1156.4,77.872 1146.58,78.47 C1146.24,78.491 1145.86,78.599 1145.52,78.627 C1145.47,78.549 1145.45,78.527 1145.39,78.439 C1145.06,77.909 1144.66,77.321 1144.21,76.689 C1142.91,74.887 1141.41,73.093 1139.705,71.408 C1134.775,66.522 1129.174,63.564 1123.018,63.564 C1118.9,63.564 1115.226,64.644 1112.018,66.502 C1102.84,57.878 1093.391,53.471 1084.393,52.939 C1079.44,52.646 1074.644,53.577 1070.08,55.502 C1062.409,47.735 1051.534,43.545 1038.08,43.97 C1037.008,44.004 1035.872,44.161 1034.768,44.252 C1034.686,44.112 1034.638,44.036 1034.518,43.845 C1034.11,43.202 1033.63,42.488 1033.08,41.72 C1031.511,39.53 1029.678,37.331 1027.611,35.283 C1021.636,29.361 1014.886,25.783 1007.455,25.783 C1002.372,25.783 997.89,27.161 993.955,29.502 C982.715,18.864 971.177,13.468 960.174,12.814 C953.475,12.416 946.986,13.759 940.893,16.689 C934.777,19.629 929.634,24.14 926.174,28.877 C922.908,28.229 919.783,27.846 916.893,27.814 C907.375,27.708 899.982,30.828 895.393,36.627 C894.766,37.419 894.205,38.261 893.705,39.127 C881.692,30.309 863.593,25.686 844.174,26.47 C832.373,26.947 820.105,29.442 808.486,34.158 C803.328,28.87 795.566,23.985 786.236,20.877 C778.241,18.213 769.58,16.848 760.455,16.908 C745.501,17.006 729.273,20.964 712.549,29.189 C704.283,25.557 695.348,23.439 685.83,23.439 C682.275,23.439 678.427,23.889 674.33,24.72 C668.175,25.969 661.632,28.054 654.955,30.752 C651.02,32.341 647.258,34.048 643.83,35.752 C642.629,36.348 641.548,36.909 640.611,37.408 C640.454,37.491 640.282,37.563 640.049,37.689 C634.895,35.983 629.589,35.305 624.268,35.564 C617.882,35.875 611.484,37.554 605.268,40.439 C603.237,41.381 601.423,42.551 599.58,43.689 C596.29,38.447 590.3,33.627 583.143,30.908 C578.787,29.253 574.21,28.403 569.549,28.439 C565.062,28.473 560.493,29.385 555.986,31.127 C550.68,24.004 543.954,18.112 536.049,14.22 C528.351,10.431 519.801,8.554 510.549,8.752 C501.584,8.943 491.925,11.129 481.736,15.345 C473.582,6.802 462.387,1.605 447.611,1.033 Z" id="Path" fill="#FFFFFF" fill-rule="nonzero"></path>
                    <path d="M895.146,52.769 C895.645,56.263 897.808,58.204 897.808,58.204 C897.808,58.204 905.699,59.165 906.957,59.479" id="Path" stroke-opacity="0.3" stroke="#527A98" stroke-width="10" stroke-linecap="round" stroke-linejoin="round"></path>
                    <path d="M920.099,34.082 C917.992,36.522 918.547,39.96 918.547,39.96" id="Path" stroke-opacity="0.3" stroke="#527A98" stroke-width="10" stroke-linecap="round" stroke-linejoin="round"></path>
                    <path d="M985.886,32.89 C984.433,29.984 974.245,21.249 962.85,18.247" id="Path" stroke-opacity="0.3" stroke="#527A98" stroke-width="10" stroke-linecap="round" stroke-linejoin="round"></path>
                    <path d="M1025.77,42.325 C1025.77,42.325 1018.785,35.034 1013.578,32.277" id="Path" stroke-opacity="0.3" stroke="#527A98" stroke-width="10" stroke-linecap="round" stroke-linejoin="round"></path>
                    <path d="M1061.61,55.936 C1059.308,57.251 1054.705,62.841 1054.705,62.841 C1054.705,62.841 1017.855,55.143 1022.683,89.742 C1016.402,90.23 1002.5,99.071 1002.317,108.339 C974.548,112.01 944.05,102.597 944.05,102.597 C924.513,111.72 903.396,107.937 903.396,107.937 C904.996,86.757 881.524,81.327 881.524,81.327 C881.524,81.327 882.323,75.552 879.553,70.623" id="Path" stroke-opacity="0.5" stroke="#527A98" stroke-width="10" stroke-linecap="round" stroke-linejoin="round"></path>
                    <path d="M888.506,42.582 C884.249,47.282 887.804,60.045 887.804,60.045 L874.946,63.994 C874.946,63.994 866.776,53.307 850.609,54.535 C850.609,54.535 836.376,38.498 816.326,42.578 L814.478,37.767" id="Path" stroke-opacity="0.5" stroke="#527A98" stroke-width="10" stroke-linecap="round" stroke-linejoin="round"></path>
                    <path d="M808.322,44.333 C796.951,47.538 792.992,54.933 792.992,54.933 C771.316,44.897 758.774,67.782 758.774,67.782 C740.928,63.906 732.707,73.794 732.707,73.794 C716.875,58.692 697.526,59.734 697.526,59.734 C680.782,30.562 654.437,40.757 654.437,40.757 L648.409,38.673" id="Path" stroke-opacity="0.5" stroke="#527A98" stroke-width="10" stroke-linecap="round" stroke-linejoin="round"></path>
                    <path d="M720.223,31.467 C720.223,31.467 726.656,33.874 731.099,37.9" id="Path" stroke-opacity="0.3" stroke="#527A98" stroke-width="10" stroke-linecap="round" stroke-linejoin="round"></path>
                    <path d="M767.901,69.039 C767.901,69.039 772.972,70.495 773.213,70.656" id="Path" stroke-opacity="0.3" stroke="#527A98" stroke-width="10" stroke-linecap="round" stroke-linejoin="round"></path>
                    <path d="M799.577,59.494 C799.577,59.494 801.966,61.903 802.366,62.437" id="Path" stroke-opacity="0.3" stroke="#527A98" stroke-width="10" stroke-linecap="round" stroke-linejoin="round"></path>
                    <path d="M864.888,81.671 C867.189,80.855 873.217,80.273 873.217,80.273 C868.906,65.082 855.207,63.821 855.207,63.821" id="Path" stroke-opacity="0.3" stroke="#527A98" stroke-width="10" stroke-linecap="round" stroke-linejoin="round"></path>
                    <path d="M1050.921,73.227 C1046.875,72.957 1029.973,70.35 1031.322,88.151 C1031.322,88.151 1040.092,88.138 1043.099,89.14" id="Path" stroke-opacity="0.3" stroke="#527A98" stroke-width="10" stroke-linecap="round" stroke-linejoin="round"></path>
                    <path d="M1011.535,114.104 C1017.198,130.325 1048.046,127.77 1058.278,125.91 C1058.278,125.91 1077.763,129.941 1109.821,129.749" id="Path" stroke-opacity="0.5" stroke="#527A98" stroke-width="10" stroke-linecap="round" stroke-linejoin="round"></path>
                    <path d="M893.332,102.095 C892.21,126.03 843.641,115.784 843.641,115.784 C843.641,115.784 790.817,133.835 735.528,109.07 C735.528,109.07 745.557,102.512 738.679,80.879" id="Path" stroke-opacity="0.5" stroke="#527A98" stroke-width="10" stroke-linecap="round" stroke-linejoin="round"></path>
                    <path d="M688.221,58.911 C688.221,58.911 676.503,60.304 670.439,62.23" id="Path" stroke-opacity="0.3" stroke="#527A98" stroke-width="10" stroke-linecap="round" stroke-linejoin="round"></path>
                    <path d="M646.948,46.283 C645.199,48.615 642.31,52.635 642.31,55.804" id="Path" stroke-opacity="0.3" stroke="#527A98" stroke-width="10" stroke-linecap="round" stroke-linejoin="round"></path>
                    <path d="M581.547,61.331 C581.547,61.331 550.45,55.326 551.026,80.088" id="Path" stroke-opacity="0.3" stroke="#527A98" stroke-width="10" stroke-linecap="round" stroke-linejoin="round"></path>
                    <path d="M732.46,94.863 C712.745,136.977 622.081,118.515 615.444,119.924 C566.419,130.334 528.446,118.804 526.267,105.005" id="Path" stroke-opacity="0.5" stroke="#527A98" stroke-width="10" stroke-linecap="round" stroke-linejoin="round"></path>
                    <path d="M590.73,43.714 L582.109,51.215 C582.109,51.215 561.845,45.169 548.075,57.82 C534.305,70.471 540.126,80.211 540.126,80.211 L530.932,84.187 C521.873,69.76 499.125,71.244 499.125,71.244 C487.858,48.45 465.739,57 465.739,57 C435.485,29.414 409.309,56.576 409.309,56.576 C392.043,53.244 381.612,68.821 381.612,68.821 C379.753,68.1 370.828,63.745 370.828,63.745 C369.702,60.78 372.995,29.86 335.402,31.571 C333.35,31.665 328.956,24.441 323.993,23.357" id="Path" stroke-opacity="0.5" stroke="#527A98" stroke-width="10" stroke-linecap="round" stroke-linejoin="round"></path>
                    <path d="M490.253,73.945 C482.232,60.933 472.084,64.697 472.084,64.697" id="Path" stroke-opacity="0.3" stroke="#527A98" stroke-width="10" stroke-linecap="round" stroke-linejoin="round"></path>
                    <path d="M459.644,63.06 C459.644,63.06 445.567,50.948 426.334,55.367" id="Path" stroke-opacity="0.3" stroke="#527A98" stroke-width="10" stroke-linecap="round" stroke-linejoin="round"></path>
                    <path d="M405.051,65.677 C394.579,68.899 386.585,75.144 386.117,85.897" id="Path" stroke-opacity="0.3" stroke="#527A98" stroke-width="10" stroke-linecap="round" stroke-linejoin="round"></path>
                    <path d="M524.832,88.523 C517.742,93.578 512.194,106.34 520.578,115.71 C470.617,135.93 415.564,121.127 415.564,121.127 C415.564,121.127 362.535,134.278 364.023,108.706" id="Path" stroke-opacity="0.5" stroke="#527A98" stroke-width="10" stroke-linecap="round" stroke-linejoin="round"></path>
                    <path d="M488.398,19.248 C489.67,16.706 500.862,36.702 499.409,45.42" id="Path" stroke-opacity="0.3" stroke="#527A98" stroke-width="10" stroke-linecap="round" stroke-linejoin="round"></path>
                    <path d="M561.487,36.005 L564.359,39.994" id="Path" stroke-opacity="0.3" stroke="#527A98" stroke-width="10" stroke-linecap="round" stroke-linejoin="round"></path>
                    <path d="M375.503,22.596 C375.503,22.596 373.034,23.747 371.295,25.775" id="Path" stroke-opacity="0.3" stroke="#527A98" stroke-width="10" stroke-linecap="round" stroke-linejoin="round"></path>
                    <path d="M377.505,76.279 C374.222,81.126 377.192,85.973 377.192,85.973 C377.192,85.973 356.788,84.488 355.615,111.303 C355.615,111.303 331.386,111.487 318.76,106.715 C318.76,106.715 289.057,116.556 209.5996,112.968 C209.5996,112.968 218.0457,109.179 218.4524,96.029 C219.0308,77.326 203.6539,62.287 171.8698,62.554" id="Path" stroke-opacity="0.5" stroke="#527A98" stroke-width="10" stroke-linecap="round" stroke-linejoin="round"></path>
                    <path d="M207.3036,102.636 C199.9852,114.26 152.631,139.515 89.2049,126.313" id="Path" stroke-opacity="0.5" stroke="#527A98" stroke-width="10" stroke-linecap="round" stroke-linejoin="round"></path>
                    <path d="M339.212,40.649 C361.531,42.157 361.531,62.214 361.531,62.214 L351.427,62.968" id="Path" stroke-opacity="0.3" stroke="#527A98" stroke-width="10" stroke-linecap="round" stroke-linejoin="round"></path>
                    <path d="M302.415,30.394 L294.272,35.522" id="Path" stroke-opacity="0.3" stroke="#527A98" stroke-width="10" stroke-linecap="round" stroke-linejoin="round"></path>
                    <path d="M236.2386,39.151 C238.0358,39.151 239.3959,42.649 240.078,44.014" id="Path" stroke-opacity="0.3" stroke="#527A98" stroke-width="10" stroke-linecap="round" stroke-linejoin="round"></path>
                    <path d="M195.3654,50.6699909 C200.3479,50.6699909 205.9534,50.646 210.2982,53.059" id="Path" stroke-opacity="0.3" stroke="#527A98" stroke-width="10" stroke-linecap="round" stroke-linejoin="round"></path>
                </g>
                <g id="clouds_outline" transform="translate(1.000000, 2.000000)" stroke="#262626" stroke-linecap="round" stroke-linejoin="round" stroke-width="3">
                    <path d="M984.898,36.432 C984.898,36.432 991.866,25.353 1005.895,25.353 C1021.834,25.353 1032.169,43.494 1032.169,43.494" id="Path"></path>
                    <path d="M922.104,41.41 C916.701,28.757 951.917,-9.345 991.866,29.044" id="Path"></path>
                    <path d="M893.434,59.735 C885.354,43.494 895.165,22.095 925.241,28.548" id="Path"></path>
                    <path d="M1005.938,110.828 C1000.555,111.27 994.064,112.042 988.382,112.042 C968.472,112.042 952.587,110.775 937.837,105.991" id="Path"></path>
                    <path d="M1022.5,45.504 C1044.463,40.202 1059.175,46.117 1067.611,54.75" id="Path"></path>
                    <path d="M873.203,68.143 C881.139,62.311 894.793,57.591 908.063,61.644" id="Path"></path>
                    <path d="M945.544,102.421 C925.638,112.78 908.464,112.958 895.358,110.135" id="Path"></path>
                    <path d="M798.544,63.825 C798.544,63.825 792.849,54.771 781.384,54.771 C768.358,54.771 759.913,69.596 759.913,69.596" id="Path"></path>
                    <path d="M849.861,67.893 C854.276,57.553 825.497,26.415 792.849,57.788" id="Path"></path>
                    <path d="M874.233,82.994 C880.836,69.721 865.243,54.769 847.217,57.267" id="Path"></path>
                    <path d="M727.305,108.706 C738.748,119.261 766.791,125.616 795.697,125.616 C811.968,125.616 832.06,124.347 844.114,120.437" id="Path"></path>
                    <path d="M767.814,71.239 C750.902,67.156 737.651,71.057 730.595,77.442" id="Path"></path>
                    <path d="M830.705,117.753 C925.322,139.924 902.463,71.869 861.336,84.429" id="Path"></path>
                    <path d="M645.554,56.018 C645.554,56.018 645.554,41.748 667.186,41.748 C682.989,41.748 695.428,62.05 695.428,62.05" id="Path"></path>
                    <path d="M584.157,62.184 C579.741,51.843 619.638,18.672 652.428,45.154" id="Path"></path>
                    <path d="M545.736,82.148 C538.961,61.371 560.148,49.302 585.075,55.951" id="Path"></path>
                    <path d="M670.589,64.128 C701.301,56.713 735,67.893 735,90.494 C735,118.504 695.432,125.616 655.69,125.616 C638.69,125.616 620.975,122.048 606.612,118.114" id="Path"></path>
                    <path d="M622.388,121.893 C489.414,143.664 508.831,75.03 558.895,82.868" id="Path"></path>
                    <path d="M382.52,73.115 C374.592,67.472 361.251,62.789 348.193,66.777" id="Path"></path>
                    <path d="M310.713,107.554 C330.491,112.189 347.869,114.152 359.862,113.385" id="Path"></path>
                    <path d="M235.621,43.401 C235.621,43.401 231.9856,33.987 214.6237,34.33 C197.2617,34.673 187.7639,52.776 187.7639,52.776" id="Path"></path>
                    <path d="M334.152,46.543 C339.555,33.89 315.038,9.431 289.344,30.032" id="Path"></path>
                    <path d="M364.064,65.722 C372.144,49.482 353.993,30.786 331.936,33.843" id="Path"></path>
                    <path d="M199.4698,114.527 C209.8008,116.131 223.3776,117.175 235.621,117.175 C255.531,117.175 308.221,114.925 322.97,110.141" id="Path"></path>
                    <path d="M208.4459,54.503 C190.198,50.097 174.5057,53.839 164.6979,59.965" id="Path"></path>
                    <path d="M290.495,34.33 C290.495,34.33 290.306,18.046 261.273,17.481 C235.621,16.983 230.7523,38.124 230.7523,38.124" id="Path"></path>
                    <path d="M457.085,67.922 C457.085,67.922 462.78,58.868 474.244,58.868 C487.271,58.868 495.716,73.693 495.716,73.693" id="Path"></path>
                    <path d="M405.768,71.99 C401.352,61.65 432.06,29.842 464.708,61.215" id="Path"></path>
                    <path d="M382.338,86.966 C375.735,73.693 392.665,56.333 410.691,58.831" id="Path"></path>
                    <path d="M527.331,114.611 C514.749,123.603 486.142,129.713 459.932,129.713 C443.661,129.713 424.259,128.329 412.205,124.419" id="Path"></path>
                    <path d="M487.814,75.336 C509.48,70.106 523.527,78.813 529.325,88.08" id="Path"></path>
                    <path d="M424.924,121.85 C330.307,144.021 353.166,75.966 394.293,88.526" id="Path"></path>
                    <path d="M120.4488,57.287 C120.4488,57.287 127.4175,46.208 141.44616,46.208 C157.3855,46.208 167.7197,64.349 167.7197,64.349" id="Path"></path>
                    <path d="M57.6554,62.265 C52.2521,49.612 87.4679,11.51 127.4175,49.899" id="Path"></path>
                    <path d="M28.985,80.59 C20.905,64.349 35.598,46.208 57.6554,49.265" id="Path"></path>
                    <path d="M158.051,66.359 C195.6326,57.287 211.9856,81.056 211.9856,95.092 C211.9856,115.971 172.5631,132.897 123.9331,132.897 C104.023,132.897 85.6564,130.06 70.9067,125.276" id="Path"></path>
                    <path d="M81.0948,123.276 C-34.682,150.406 -6.711,67.13 43.6143,82.499" id="Path"></path>
                    <path d="M1104.318,72.181 C1104.318,72.181 1110.013,63.127 1121.477,63.127 C1134.503,63.127 1142.95,77.952 1142.95,77.952" id="Path"></path>
                    <path d="M1053.001,76.249 C1048.585,65.909 1077.365,34.771 1110.013,66.144" id="Path"></path>
                    <path d="M1027.153,91.52 C1020.55,78.248 1030.339,59.726 1055.253,66.212" id="Path"></path>
                    <path d="M1135.047,79.595 C1165.76,72.181 1179.12,91.606 1179.12,103.076 C1179.12,120.139 1146.91,133.972 1107.165,133.972 C1090.894,133.972 1069.721,132.875 1057.667,128.965" id="Path"></path>
                    <path d="M1072.156,126.109 C977.54,148.28 1000.398,80.225 1041.526,92.785" id="Path"></path>
                    <path d="M729.639,41.056 C729.639,41.056 711.624,23.007 684.266,23.007 C664.279,23.007 638.639,37.403 638.639,37.403" id="Path"></path>
                    <path d="M812.095,45.685 C813.051,30.299 770.54,-0.89 710.826,28.969" id="Path"></path>
                    <path d="M892.696,39.401 C876.266,26.343 840.878,19.626 806.589,33.944" id="Path"></path>
                    <path d="M492.968,43.995 C492.968,43.995 488.96,2.26 445.99,0.596 C403.019,-1.069 381.114,16.467 370.971,29.143" id="Path"></path>
                    <path d="M561.69,45.566 C552.115,19.849 524.251,-3.751 479.82,15.151" id="Path"></path>
                    <path d="M597.285,43.276 C591.674,33.412 573.89,22.929 554.471,30.737" id="Path"></path>
                    <path d="M382.219,18.071 C382.219,18.071 346.818,7.429 309.28,22.081" id="Path"></path>
                </g>
            </g>
        </g>
    </g>
</svg>