<?xml version="1.0" encoding="UTF-8"?>
<svg width="367px" height="244px" viewBox="0 0 367 244" version="1.1" xmlns="http://www.w3.org/2000/svg" xmlns:xlink="http://www.w3.org/1999/xlink">
    <!-- Generator: Sketch 55.2 (78181) - https://sketchapp.com -->
    <title>Stage</title>
    <desc>Created with Sketch.</desc>
    <g id="website-2.0" stroke="none" stroke-width="1" fill="none" fill-rule="evenodd">
        <g id="00_Webseite-2.0" transform="translate(-439.000000, -164.000000)">
            <g id="Stage" transform="translate(440.000000, 165.000000)">
                <g id="stage_color" transform="translate(0.000000, 1.000000)" fill-rule="nonzero">
                    <path d="M182.781,0.031 C227.654,0.124 271.935,0.48 305.156,1.031 C322.325,1.316 336.179,1.64 345.906,2 C350.947,2.187 354.877,2.394 357.594,2.594 C359.842,2.759 361.56,2.997 361.5,2.938 C363.687,5.124 363.908,12.848 362.719,26.906 C362.609,28.209 362.506,29.524 362.344,31.312 C361.417,41.506 361.219,43.938 361.219,47.219 C361.219,48.128 360.777,48.438 359.438,48.438 C358.165,48.438 356.803,48.185 353.562,47.375 C350.726,46.666 349.584,46.498 348.312,46.406 C348.175,46.335 348.041,46.249 347.875,46.25 C347.815,46.25 347.776,46.302 347.719,46.312 C347.6,46.309 347.338,46.219 347.219,46.219 C345.648,46.219 344.187,46.609 342.062,47.406 C339.336,48.429 339.27,48.438 338.719,48.438 C338.35,48.438 338.219,48.287 338.219,47.219 C338.219,45.156 337.381,44 335.75,44 C334.82,44 334.887,43.988 331.688,45.188 C329.772,45.906 328.487,46.219 327.219,46.219 C325.648,46.219 324.187,46.609 322.062,47.406 C319.336,48.429 319.27,48.438 318.719,48.438 C318.35,48.438 318.219,48.287 318.219,47.219 C318.219,45.156 317.381,44 315.75,44 C314.82,44 314.887,43.988 311.688,45.188 C309.772,45.906 308.487,46.219 307.219,46.219 C305.95,46.219 304.666,45.906 302.75,45.188 C299.55,43.988 299.649,44 298.719,44 C297.088,44 296.219,45.156 296.219,47.219 C296.219,48.287 296.119,48.437 295.75,48.438 C295.199,48.438 295.101,48.429 292.375,47.406 C290.25,46.609 288.79,46.219 287.219,46.219 C285.648,46.219 284.187,46.609 282.062,47.406 C279.336,48.429 279.27,48.438 278.719,48.438 C278.35,48.438 278.219,48.287 278.219,47.219 C278.219,45.156 277.381,44 275.75,44 C274.82,44 274.887,43.988 271.688,45.188 C269.772,45.906 268.487,46.219 267.219,46.219 C265.648,46.219 264.187,46.609 262.062,47.406 C259.336,48.429 259.27,48.438 258.719,48.438 C258.35,48.438 258.219,48.287 258.219,47.219 C258.219,45.156 257.381,44 255.75,44 C254.82,44 254.887,43.988 251.688,45.188 C249.772,45.906 248.487,46.219 247.219,46.219 C245.648,46.219 244.187,46.609 242.062,47.406 C239.336,48.429 239.27,48.438 238.719,48.438 C238.35,48.438 238.219,48.287 238.219,47.219 C238.219,45.156 237.381,44 235.75,44 C234.82,44 234.887,43.988 231.688,45.188 C229.772,45.906 228.487,46.219 227.219,46.219 C225.95,46.219 224.666,45.906 222.75,45.188 C219.55,43.988 219.649,44 218.719,44 C217.088,44 216.219,45.156 216.219,47.219 C216.219,48.287 216.119,48.437 215.75,48.438 C215.199,48.438 215.101,48.429 212.375,47.406 C210.25,46.609 208.79,46.219 207.219,46.219 C205.95,46.219 204.666,45.906 202.75,45.188 C199.55,43.988 199.649,44 198.719,44 C197.088,44 196.219,45.156 196.219,47.219 C196.219,48.287 196.119,48.437 195.75,48.438 C195.199,48.438 195.102,48.429 192.375,47.406 C190.25,46.609 188.79,46.219 187.219,46.219 C185.864,46.219 184.524,45.9 182.625,45.188 C182.464,45.127 180.849,44.504 180.562,44.406 C179.782,44.141 179.203,44 178.656,44 C177.05,44 176.219,45.157 176.219,47.219 C176.219,48.287 176.119,48.437 175.75,48.438 C175.199,48.438 175.102,48.429 172.375,47.406 C170.25,46.609 168.79,46.219 167.219,46.219 C165.648,46.219 164.187,46.609 162.062,47.406 C159.336,48.429 159.27,48.438 158.719,48.438 C158.35,48.438 158.219,48.287 158.219,47.219 C158.219,45.156 157.381,44 155.75,44 C154.82,44 154.887,43.988 151.688,45.188 C149.772,45.906 148.487,46.219 147.219,46.219 C145.648,46.219 144.187,46.609 142.062,47.406 C139.336,48.429 139.27,48.438 138.719,48.438 C138.35,48.438 138.219,48.287 138.219,47.219 C138.219,45.156 137.381,44 135.75,44 C134.82,44 134.887,43.988 131.688,45.188 C129.772,45.906 128.487,46.219 127.219,46.219 C125.648,46.219 124.187,46.609 122.062,47.406 C119.336,48.429 119.27,48.438 118.719,48.438 C118.35,48.438 118.219,48.287 118.219,47.219 C118.219,45.156 117.381,44 115.75,44 C114.82,44 114.887,43.988 111.688,45.188 C109.772,45.906 108.487,46.219 107.219,46.219 C105.95,46.219 104.666,45.906 102.75,45.188 C99.55,43.988 99.649,44 98.719,44 C97.088,44 96.219,45.156 96.219,47.219 C96.219,48.287 96.119,48.437 95.75,48.438 C95.199,48.438 95.102,48.429 92.375,47.406 C90.25,46.609 88.79,46.219 87.219,46.219 C85.95,46.219 84.666,45.906 82.75,45.188 C79.55,43.988 79.649,44 78.719,44 C77.088,44 76.219,45.156 76.219,47.219 C76.219,47.743 76.251,47.729 75.812,47.656 C75.173,47.55 74.422,47.227 72.656,46.344 C70.672,45.352 69.861,44.998 68.938,44.844 C67.313,44.573 66.219,45.422 66.219,47.219 C66.219,48.287 66.119,48.437 65.75,48.438 C65.199,48.438 65.102,48.429 62.375,47.406 C60.25,46.609 58.79,46.219 57.219,46.219 C55.95,46.219 54.666,45.906 52.75,45.188 C49.55,43.988 49.649,44 48.719,44 C47.088,44 46.219,45.156 46.219,47.219 C46.219,48.287 46.119,48.437 45.75,48.438 C45.199,48.438 45.102,48.429 42.375,47.406 C40.25,46.609 38.79,46.219 37.219,46.219 C35.95,46.219 34.666,45.906 32.75,45.188 C29.55,43.988 29.649,44 28.719,44 C27.088,44 26.219,45.156 26.219,47.219 C26.219,48.128 25.777,48.438 24.438,48.438 C23.165,48.438 21.803,48.185 18.562,47.375 C15.136,46.518 13.724,46.219 12.219,46.219 C10.648,46.219 9.187,46.609 7.062,47.406 C4.336,48.429 4.27,48.438 3.719,48.438 C3.35,48.438 3.219,48.287 3.219,47.219 C3.219,44.486 3.141,43.645 2.094,32.125 C1.87,29.667 1.708,27.762 1.562,25.906 C0.535,12.801 0.858,5.017 2.938,2.938 C3.797,2.078 25.582,1.148 60.094,0.625 C92.39,0.136 136.095,-0.065 182.781,0.031 Z" id="Path" fill="#527A98"></path>
                    <path d="M28.719,46 C29.27,46 29.336,46.04 32.062,47.062 C34.187,47.859 35.648,48.219 37.219,48.219 C37.706,48.219 38.41,48.522 38.938,48.625 C36.373,93.067 31.585,135.5 25.969,142.312 C25.859,142.446 25.851,142.618 25.812,142.781 C25.777,142.796 25.755,142.763 25.719,142.781 C23.967,143.657 21.912,144.151 19.594,144.344 C16.849,144.573 13.896,144.293 10.969,143.75 C10.972,143.716 11,143.692 11,143.656 L11,48.5 C11.36,48.448 11.873,48.219 12.219,48.219 C13.491,48.219 14.853,48.502 18.094,49.312 C21.52,50.169 22.932,50.437 24.438,50.438 C26.765,50.438 28.219,49.405 28.219,47.219 C28.219,46.15 28.35,46 28.719,46 Z" id="Path" fill="#527A98"></path>
                    <path d="M48.719,45.9995127 C49.27,45.9995127 49.336,46.04 52.062,47.062 C54.187,47.859 55.647,48.219 57.219,48.219 C58.487,48.219 59.772,48.563 61.688,49.281 C64.887,50.481 64.82,50.437 65.75,50.438 C67.381,50.438 68.219,49.281 68.219,47.219 C68.219,46.694 68.187,46.739 68.625,46.812 C69.264,46.919 70.015,47.242 71.781,48.125 C73.765,49.117 74.577,49.471 75.5,49.625 C77.124,49.896 78.219,49.016 78.219,47.219 C78.219,46.15 78.35,45.9995127 78.719,45.9995127 C79.27,45.9995127 79.336,46.04 82.062,47.062 C84.187,47.859 85.647,48.219 87.219,48.219 C88.487,48.219 89.772,48.563 91.688,49.281 C94.887,50.481 94.82,50.437 95.75,50.438 C97.381,50.438 98.219,49.281 98.219,47.219 C98.219,46.15 98.35,45.9995127 98.719,45.9995127 C99.27,45.9995127 99.336,46.04 102.062,47.062 C104.187,47.859 105.647,48.219 107.219,48.219 C108.79,48.219 110.25,47.859 112.375,47.062 C115.101,46.04 115.199,45.9995127 115.75,45.9995127 C116.119,45.9995127 116.219,46.15 116.219,47.219 C116.219,49.282 117.088,50.437 118.719,50.438 C119.649,50.438 119.55,50.481 122.75,49.281 C124.666,48.563 125.95,48.219 127.219,48.219 C128.79,48.219 130.25,47.859 132.375,47.062 C135.101,46.04 135.199,45.9995127 135.75,45.9995127 C136.119,45.9995127 136.219,46.15 136.219,47.219 C136.219,49.282 137.088,50.437 138.719,50.438 C139.649,50.438 139.55,50.481 142.75,49.281 C144.666,48.563 145.95,48.219 147.219,48.219 C148.79,48.219 150.25,47.859 152.375,47.062 C155.101,46.04 155.199,45.9995127 155.75,45.9995127 C156.119,45.9995127 156.219,46.15 156.219,47.219 C156.219,49.282 157.088,50.437 158.719,50.438 C159.649,50.438 159.55,50.481 162.75,49.281 C164.666,48.563 165.95,48.219 167.219,48.219 C168.487,48.219 169.772,48.563 171.688,49.281 C174.887,50.481 174.82,50.437 175.75,50.438 C177.381,50.438 178.219,49.281 178.219,47.219 C178.219,46.141 178.339,45.9995127 178.656,45.9995127 C179.172,45.9995127 178.953,45.943 181.938,47.062 C184.044,47.852 185.566,48.219 187.219,48.219 C188.487,48.219 189.772,48.563 191.688,49.281 C194.887,50.481 194.82,50.437 195.75,50.438 C197.381,50.438 198.219,49.281 198.219,47.219 C198.219,46.15 198.35,45.9995127 198.719,45.9995127 C199.27,45.9995127 199.336,46.04 202.062,47.062 C204.187,47.859 205.647,48.219 207.219,48.219 C208.487,48.219 209.772,48.563 211.688,49.281 C214.887,50.481 214.82,50.437 215.75,50.438 C217.381,50.438 218.219,49.281 218.219,47.219 C218.219,46.15 218.35,45.9995127 218.719,45.9995127 C219.27,45.9995127 219.336,46.04 222.062,47.062 C224.187,47.859 225.648,48.219 227.219,48.219 C228.79,48.219 230.25,47.859 232.375,47.062 C235.101,46.04 235.199,45.9995127 235.75,45.9995127 C236.119,45.9995127 236.219,46.15 236.219,47.219 C236.219,49.282 237.088,50.437 238.719,50.438 C239.649,50.438 239.55,50.481 242.75,49.281 C244.666,48.563 245.95,48.219 247.219,48.219 C248.79,48.219 250.25,47.859 252.375,47.062 C255.101,46.04 255.199,45.9995127 255.75,45.9995127 C256.119,45.9995127 256.219,46.15 256.219,47.219 C256.219,49.282 257.088,50.437 258.719,50.438 C259.649,50.438 259.55,50.481 262.75,49.281 C264.666,48.563 265.95,48.219 267.219,48.219 C268.79,48.219 270.25,47.859 272.375,47.062 C275.101,46.04 275.199,45.9995127 275.75,45.9995127 C276.119,45.9995127 276.219,46.15 276.219,47.219 C276.219,49.282 277.088,50.437 278.719,50.438 C279.649,50.438 279.55,50.481 282.75,49.281 C284.666,48.563 285.95,48.219 287.219,48.219 C288.487,48.219 289.772,48.563 291.688,49.281 C294.887,50.481 294.82,50.437 295.75,50.438 C297.381,50.438 298.219,49.281 298.219,47.219 C298.219,46.15 298.35,45.9995127 298.719,45.9995127 C299.27,45.9995127 299.336,46.04 302.062,47.062 C304.187,47.859 305.648,48.219 307.219,48.219 C308.79,48.219 310.25,47.859 312.375,47.062 C315.101,46.04 315.199,45.9995127 315.75,45.9995127 C316.119,45.9995127 316.219,46.15 316.219,47.219 C316.219,48.537 316.599,49.425 317.281,49.938 C319.742,92.712 324.673,135.182 330.594,143.906 C330.531,144.025 330.419,144.082 330.375,144.219 C330.208,144.739 330.161,145.442 330.188,146.219 C330.228,147.413 330.485,148.346 330.875,149.062 C325.341,156.445 318.792,192.329 317.469,223.625 C268.077,224.794 87.246,224.781 40.938,223.594 C40.849,223.591 40.8,223.668 40.719,223.688 C39.394,192.034 32.498,155.732 26.812,149.281 C27.551,148.696 27.946,147.423 28,145.812 C28.026,145.036 27.948,144.333 27.781,143.812 C27.737,143.676 27.625,143.619 27.562,143.5 C33.578,135.996 38.318,94.288 40.938,49.094 C41.227,49.194 41.365,49.16 41.688,49.281 C44.887,50.481 44.82,50.437 45.75,50.438 C47.381,50.438 48.219,49.281 48.219,47.219 C48.219,46.15 48.35,45.9995127 48.719,45.9995127 Z" id="Path" fill="#FFFFFF"></path>
                    <path d="M335.75,46 C336.119,46 336.219,46.15 336.219,47.219 C336.219,49.282 337.088,50.437 338.719,50.438 C339.649,50.438 339.55,50.481 342.75,49.281 C344.517,48.619 345.699,48.362 346.875,48.312 L347.219,144.156 C344.287,144.703 341.348,144.98 338.594,144.75 C336.275,144.557 334.189,144.063 332.438,143.188 C326.839,135.983 321.768,92.647 319.312,50.281 C319.929,50.269 320.019,50.305 322.75,49.281 C324.666,48.563 325.95,48.219 327.219,48.219 C328.79,48.219 330.25,47.859 332.375,47.062 C335.101,46.04 335.199,46 335.75,46 Z" id="Path" fill="#527A98"></path>
                    <path d="M25.906,144.812 C25.949,145.083 26.014,145.345 26,145.75 C25.981,146.326 25.901,146.921 25.781,147.375 C25.734,147.554 25.672,147.68 25.625,147.781 C23.744,148.556 21.287,148.964 18.344,149 C15.684,149.032 12.824,148.779 9.969,148.344 C9.028,148.2 8.154,148.06 7.375,147.906 C7.286,147.889 7.266,147.891 7.188,147.875 C7.188,147.042 7.188,146.066 7.188,145 C7.866,145.184 8.573,145.359 9.375,145.531 C12.866,146.279 16.41,146.622 19.75,146.344 C22.023,146.154 24.069,145.618 25.906,144.812 Z" id="Path" fill="#527A98"></path>
                    <path d="M332.25,145.219 C334.094,146.032 336.122,146.56 338.406,146.75 C341.558,147.013 344.917,146.693 348.219,146.031 C348.229,146.031 348.24,146.032 348.25,146.031 C348.438,145.993 348.625,145.978 348.812,145.938 C349.614,145.766 350.322,145.591 351,145.406 C351,146.46 351,147.411 351,148.25 C350.921,148.266 350.902,148.264 350.812,148.281 C350.033,148.435 349.16,148.606 348.219,148.75 C345.363,149.186 342.503,149.439 339.844,149.406 C336.888,149.37 334.415,148.969 332.531,148.188 C332.484,148.086 332.454,147.96 332.406,147.781 C332.286,147.327 332.207,146.732 332.188,146.156 C332.174,145.752 332.208,145.49 332.25,145.219 Z" id="Path" fill="#527A98"></path>
                    <path d="M25.125,150 C25.15,150.198 25.169,150.402 25.312,150.562 C31.181,157.104 39,200.913 39,234 C39,238.451 33.78,241.343 30.719,238.281 C28.17,235.733 26.501,236.062 24.281,238.281 C22.751,239.812 22.337,239.899 20.719,238.281 C18.2,235.763 15.646,236.101 12.562,238.156 C11.477,238.914 11.262,239.024 11,239.156 C10.996,239.078 11,239.101 11,239 L11,150.406 C13.502,150.738 16.021,151.029 18.375,151 C20.993,150.968 23.193,150.597 25.125,150 Z" id="Path" fill="#527A98"></path>
                    <path d="M332.469,150.25 C334.514,150.97 336.943,151.371 339.812,151.406 C342.146,151.435 344.645,151.17 347.125,150.844 L347.188,239.406 C347.188,239.509 347.16,239.483 347.156,239.562 C346.892,239.428 346.667,239.312 345.594,238.562 C342.511,236.507 339.987,236.169 337.469,238.688 C335.851,240.306 335.406,240.218 333.875,238.688 C331.656,236.468 330.017,236.139 327.469,238.688 C324.407,241.749 319.188,238.857 319.188,234.406 C319.188,201.595 326.709,157.749 332.469,150.25 Z" id="Path" fill="#527A98"></path>
                    <path d="M40.781,225.531 C40.83,225.54 40.855,225.592 40.906,225.594 C64.093,226.188 120.946,226.493 178.188,226.5 C235.289,226.507 292.667,226.209 317.406,225.625 C317.377,226.446 317.365,227.25 317.344,228.062 C264.331,229.182 86.886,229.147 40.844,228 C40.823,227.178 40.81,226.362 40.781,225.531 Z" id="Path" fill="#527A98"></path>
                    <path d="M175,74 C144.624,74 120,98.624 120,129 C120,159.376 144.624,184 175,184 C205.376,184 230,159.376 230,129 C230,98.624 205.376,74 175,74 Z M160,99 L190,99 L190,109 L175,119 C175,119 195,119 195,139 C195,139 195,159 175,159 C155,159 155,139 155,139 L165,139 C165,139 165,149 175,149 C185,149 185,139 185,139 C185,124 165,124 165,124 C165,124 165.195,121.535 165,119 L180,109 L160,109 L160,99 Z" id="Shape" stroke="#262626" stroke-width="2" fill="#AAAAAA" stroke-linecap="round" stroke-linejoin="round"></path>
                </g>
                <g id="stage_outline" stroke="#262626" stroke-linecap="round" stroke-linejoin="round">
                    <path d="M317.663,225.632 C268.542,226.801 87.411,226.789 40.922,225.597" id="Path" stroke-width="2"></path>
                    <path d="M2.222,3.224 C7.222,-1.776 358.687,-0.311 362.222,3.224 C367.222,8.224 362.222,36.366 362.222,48.224 C362.222,53.224 352.222,48.224 347.222,48.224 C342.222,48.224 337.222,53.224 337.222,48.224 C337.222,43.224 332.222,48.224 327.222,48.224 C322.222,48.224 317.222,53.224 317.222,48.224 C317.222,43.224 312.222,48.224 307.222,48.224 C302.222,48.224 297.222,43.224 297.222,48.224 C297.222,53.224 292.222,48.224 287.222,48.224 C282.222,48.224 277.222,53.224 277.222,48.224 C277.222,43.224 272.222,48.224 267.222,48.224 C262.222,48.224 257.222,53.224 257.222,48.224 C257.222,43.224 252.222,48.224 247.222,48.224 C242.222,48.224 237.222,53.224 237.222,48.224 C237.222,43.224 232.222,48.224 227.222,48.224 C222.222,48.224 217.222,43.224 217.222,48.224 C217.222,53.224 212.222,48.224 207.222,48.224 C202.222,48.224 197.222,43.224 197.222,48.224 C197.222,53.224 192.222,48.224 187.222,48.224 C181.939,48.224 177.222,43.224 177.222,48.224 C177.222,53.224 172.222,48.224 167.222,48.224 C162.222,48.224 157.222,53.224 157.222,48.224 C157.222,43.224 152.222,48.224 147.222,48.224 C142.222,48.224 137.222,53.224 137.222,48.224 C137.222,43.224 132.222,48.224 127.222,48.224 C122.222,48.224 117.222,53.224 117.222,48.224 C117.222,43.224 112.222,48.224 107.222,48.224 C102.222,48.224 97.222,43.224 97.222,48.224 C97.222,53.224 92.222,48.224 87.222,48.224 C82.222,48.224 77.222,43.224 77.222,48.224 C77.222,53.224 67.222,43.224 67.222,48.224 C67.222,53.224 62.222,48.224 57.222,48.224 C52.222,48.224 47.222,43.224 47.222,48.224 C47.222,53.224 42.222,48.224 37.222,48.224 C32.222,48.224 27.222,43.224 27.222,48.224 C27.222,53.224 17.222,48.224 12.222,48.224 C7.222,48.224 2.222,53.224 2.222,48.224 C2.222,38.224 -2.778,8.224 2.222,3.224 Z" id="Path" stroke-width="2"></path>
                    <path d="M27.222,45.724 C27.222,45.724 27.235,28.063 27.237,14.869" id="Path"></path>
                    <path d="M47.207,45.724 C47.207,45.724 47.236,7.457 47.214,1.5" id="Path"></path>
                    <path d="M67.207,45.724 C67.207,45.724 67.214,37.431 67.218,27.966" id="Path"></path>
                    <path d="M77.222,45.724 C77.222,45.724 77.247,12.624 77.233,3.2" id="Path"></path>
                    <path d="M97.207,45.724 C97.207,45.724 97.225,21.97 97.222,8.979" id="Path"></path>
                    <path d="M117.207,45.724 C117.207,45.724 117.216,34.152 117.22,22.745" id="Path"></path>
                    <path d="M137.207,45.724 C137.207,45.724 137.23,15.552 137.22,4.62" id="Path"></path>
                    <path d="M157.222,45.724 C157.222,45.724 157.233,30.54 157.236,17.812" id="Path"></path>
                    <path d="M177.222,45.724 C177.222,45.724 177.226,40.775 177.23,34.159" id="Path"></path>
                    <path d="M197.207,45.724 C197.207,45.724 197.226,20.268 197.221,7.648" id="Path"></path>
                    <path d="M217.207,45.724 C217.207,45.724 217.218,32.106 217.221,19.853" id="Path"></path>
                    <path d="M237.222,45.724 C237.222,45.724 237.246,14.09 237.234,3.868" id="Path"></path>
                    <path d="M257.222,45.724 C257.222,45.724 257.229,36.033 257.234,25.645" id="Path"></path>
                    <path d="M277.222,45.724 C277.222,45.724 277.242,19.565 277.236,7.136" id="Path"></path>
                    <path d="M297.207,45.724 C297.207,45.724 297.225,21.776 297.222,8.821" id="Path"></path>
                    <path d="M317.222,45.724 C317.222,45.724 317.229,36.417 317.233,26.268" id="Path"></path>
                    <path d="M337.207,45.724 C337.207,45.724 337.217,32.97 337.221,21.042" id="Path"></path>
                    <path d="M40,49 C38.709,71.59 34.062,135.064 26.728,143.959" id="Path" stroke-width="2"></path>
                    <path d="M10,144.656 L10,48.68" id="Path" stroke-width="2"></path>
                    <path d="M26.048,150.898 C31.47,156.942 40,198.657 40,235 C40,240 33.924,243.924 30,240 C25,235 25,245 20,240 C15,235 10,245 10,240 L10,151.411" id="Path" stroke-width="2"></path>
                    <path d="M6.176,144.667 C6.176,144.667 18.176,148.667 26.176,144.667 C27.441,144.034 27.095,149.273 26.176,149.667 C19.176,152.667 6.176,149.667 6.176,149.667 L6.176,144.667 Z" id="Path" stroke-width="2"></path>
                    <path d="M318.176,49.401 C319.467,71.991 324.114,135.464 331.448,144.36" id="Path" stroke-width="2"></path>
                    <path d="M348.176,145.057 L348.176,49.081" id="Path" stroke-width="2"></path>
                    <path d="M332.127,151.299 C326.706,157.342 318.176,199.058 318.176,235.401 C318.176,240.401 324.252,244.325 328.176,240.401 C333.176,235.401 333.176,245.401 338.176,240.401 C343.176,235.401 348.176,245.401 348.176,240.401 L348.176,151.811" id="Path" stroke-width="2"></path>
                    <path d="M352,145.067 C352,145.067 340,149.067 332,145.067 C330.735,144.435 331.081,149.673 332,150.067 C339,153.067 352,150.067 352,150.067 L352,145.067 Z" id="Path" stroke-width="2"></path>
                    <path d="M317.535,230.055 C265.004,231.169 85.744,231.173 40,230" id="Path" stroke-width="2"></path>
                    <path d="M32.858,55.917 C32.858,55.917 31.839,99.208 23.385,139.749" id="Path"></path>
                    <path d="M24.913,61.213 C25.422,96.661 21.246,122.942 21.246,122.942" id="Path"></path>
                    <path d="M14.828,55.917 C14.828,73.709 13.198,142.092 13.198,142.092" id="Path"></path>
                    <path d="M25.876,164.241 C25.876,164.241 31.286,186.799 34.129,228.982" id="Path"></path>
                    <path d="M13.955,163.324 L13.955,232.925" id="Path"></path>
                    <path d="M21.933,177.446 C21.933,177.446 26.059,206.332 24.867,232.65" id="Path"></path>
                    <path d="M325.224,55.783 C326.773,97.821 334.546,140.005 334.619,139.859378" id="Path"></path>
                    <path d="M342.562,56.946 L343.143,140.731" id="Path"></path>
                    <path d="M333.069,60.336 C333.069,60.336 333.457,104.795 335.2,121.843" id="Path"></path>
                    <path d="M342.018,170.191 C339.47,181.475 341.745,218.692 341.745,228.07" id="Path"></path>
                    <path d="M336.376,160.908 C328.003,182.294 323.999,234.244 323.999,233.985" id="Path"></path>
                    <path d="M175,75 C144.624,75 120,99.624 120,130 C120,160.376 144.624,185 175,185 C205.376,185 230,160.376 230,130 C230,99.624 205.376,75 175,75 Z M160,100 L190,100 L190,110 L175,120 C175,120 195,120 195,140 C195,140 195,160 175,160 C155,160 155,140 155,140 L165,140 C165,140 165,150 175,150 C185,150 185,140 185,140 C185,125 165,125 165,125 C165,125 165.195,122.535 165,120 L180,110 L160,110 L160,100 Z" id="Shape" stroke-width="2"></path>
                </g>
                <g id="avatar_color" transform="translate(260.000000, 103.000000)" fill-rule="nonzero">
                    <path d="M37.344,0.438 C44.047,0.438 47.477,3.483 45.312,7.812 C45.287,7.864 45.329,7.916 45.312,7.969 C42.996,7.535 40.387,7.281 37.344,7.281 C34.391,7.281 31.814,7.546 29.438,7.938 C29.434,7.927 29.442,7.917 29.438,7.906 C27.315,2.6 30.035,0.438 37.344,0.438 Z" id="Path" fill="#527A98"></path>
                    <path d="M37.344,9.281 C54.47,9.281 58.338,15.436 54.062,36.812 C53.954,37.354 54.302,37.892 54.844,38 C54.531,38.101 54.244,38.123 53.906,38.312 C54.312,35.223 54.6,32.296 54.625,29.75 C54.711,21.164 52.711,15.619 49,12.969 C47.075,11.594 44.728,11.168 42.5,11.438 C40.481,11.682 38.624,12.566 37.156,13.844 C36.851,13.773 36.56,13.707 36.062,13.625 C33.561,13.21 30.938,13.159 28.438,13.719 C20.102,15.584 16.67,23.308 20.594,38.188 C20.324,38.059 20.095,38.037 19.844,37.969 C20.123,37.702 20.3,37.353 20.156,36.969 C12.655,16.921 18.419,9.281 37.344,9.281 Z" id="Path" fill="#527A98"></path>
                    <path d="M42.719,13.406 C44.494,13.186 46.35,13.527 47.844,14.594 C52.036,17.588 53.775,25.572 51.844,39.094 C51.808,39.346 51.902,39.586 52.031,39.781 C51.934,39.873 51.848,39.902 51.75,40 C51.359,40.391 51.359,41.016 51.75,41.406 C52.141,41.797 52.766,41.797 53.156,41.406 C55.358,39.205 56.089,39.259 56.344,40.531 C56.674,42.181 55.946,44.804 54.75,46 C54.648,46.102 54.497,46.154 54.25,46.156 C53.983,46.159 53.669,46.111 53.344,46 C53.145,45.932 52.976,45.848 52.906,45.812 C52.322,45.513 51.609,45.859 51.469,46.5 C51.444,46.615 51.398,46.833 51.312,47.156 C51.168,47.702 50.997,48.312 50.781,48.969 C50.166,50.845 49.391,52.725 48.438,54.469 C45.495,59.852 41.623,62.752 36.688,62.094 C31.707,61.43 23.473,51.896 23.688,46.406 C23.732,45.277 22.157,44.946 21.75,46 C21.72,46.077 21.621,46.253 21.5,46.406 C21.162,46.835 20.934,46.862 20.156,46.031 C18.98,44.777 18.245,42.102 18.562,40.469 C18.804,39.227 19.514,39.202 21.719,41.406 C22.109,41.797 22.734,41.797 23.125,41.406 C23.516,41.016 23.516,40.391 23.125,40 C22.995,39.87 22.878,39.837 22.75,39.719 C22.874,39.492 22.92,39.203 22.844,38.938 C18.621,24.158 21.544,17.297 28.875,15.656 C31.088,15.161 33.481,15.218 35.75,15.594 C36.125,15.656 36.456,15.715 36.75,15.781 C36.922,15.82 37.04,15.86 37.094,15.875 C37.44,15.969 37.809,15.848 38.062,15.594 C39.249,14.408 40.943,13.626 42.719,13.406 Z" id="Path" fill="#FFFFFF"></path>
                    <path d="M3.5,42.5 C3.663,43.081 3.809,43.743 3.875,43.875 C4.116,44.357 4.548,44.444 4.938,44.375 C4.432,45.073 4.026,45.709 3.844,46.344 C3.738,46.714 3.916,47.049 3.938,47.406 C3.65,47.729 3.539,48.177 3.781,48.562 C4.685,50.003 5.856,52.053 7.219,54.562 C7.337,54.78 8.611,57.18 9.656,59.156 C8.95,59.298 8.247,59.4 7.406,59.844 C7.19,59.958 7.043,60.147 6.844,60.281 C5.141,56.09 3.518,51.595 2.906,49.031 C2.871,48.882 2.745,48.801 2.656,48.688 C2.656,48.589 2.718,48.505 2.688,48.406 C2.483,47.738 1.729,46.657 0.594,45.156 C0.942,45.04 1.225,44.835 1.281,44.406 C1.316,44.143 1.114,43.703 0.969,43.312 C1.226,43.487 1.5,43.56 1.844,43.469 C2.391,43.032 2.339,42.931 2.375,42.75 C2.492,42.828 2.358,42.772 2.562,42.906 C3.198,42.831 3.231,42.808 3.5,42.5 Z" id="Path" fill="#FFFFFF"></path>
                    <path d="M10.562,60.906 C10.838,61.433 11.08,61.857 11.281,62.25 C11.684,63.036 12.707,65.101 12.781,65.25 C12.889,65.466 13.089,65.627 13.312,65.719 C19.27,68.171 24.71,70.049 26.156,69.812 C26.842,69.7 27.894,69.428 29.281,69.031 C29.315,69.022 29.751,68.878 29.969,68.812 C29.945,68.995 29.869,69.15 29.875,69.344 C29.898,70.077 30.134,70.866 30.594,71.719 C32.068,74.449 35.404,76.875 38.031,76.875 C40.765,76.875 44.169,74.404 45.594,71.625 C46.04,70.755 46.257,69.928 46.25,69.188 C46.249,69.063 46.17,68.964 46.156,68.844 C46.471,68.94 46.801,69.025 47.094,69.125 C48.054,69.453 48.806,69.766 49.25,70.062 C51.914,71.839 55.793,74.767 58.938,77.594 C63.478,81.675 65.679,84.94 64.812,86.375 C64.67,86.61 64.51,86.849 64.344,87.094 C63.74,87.98 62.814,88.948 61.938,89.906 C61.723,89.702 61.553,89.54 61.438,89.438 C61.33,89.343 61.226,89.242 61.125,89.156 C60.711,88.805 60.441,88.686 60.125,88.5 C60.37,88.224 60.868,87.669 60.906,87.625 C61.49,86.944 60.924,85.889 60.031,85.969 C59.478,86.018 58.416,85.59 57.094,84.75 C56.568,84.416 56.043,84.026 55.469,83.594 C54.737,83.044 53.997,82.467 53.312,81.875 C53.082,81.676 52.546,81.195 52.469,81.125 C52.432,80.979 52.482,80.867 52.438,80.719 C52.28,80.189 51.717,79.874 51.188,80.031 C50.658,80.189 50.374,80.752 50.531,81.281 C51.186,83.485 50.754,85.247 49.75,86.375 C49.566,86.581 49.485,86.838 49.5,87.094 C49.515,87.349 49.606,87.598 49.812,87.781 C49.984,87.934 50.195,87.985 50.406,88 C50.593,89.499 50.823,91.251 50.844,91.406 C51.021,92.772 51.169,93.838 51.281,94.5 C51.285,94.525 51.307,94.539 51.312,94.562 C51.298,94.64 51.245,94.699 51.25,94.781 C51.252,94.807 51.278,94.819 51.281,94.844 C50.858,95.099 50.589,95.349 50.469,95.781 C50.395,96.047 50.52,96.232 50.531,96.469 C50.241,96.672 49.904,96.869 49.406,97 C49.18,97.06 48.95,97.102 48.656,97.156 C48.506,97.184 47.998,97.264 47.906,97.281 C47.296,97.393 46.961,97.51 46.656,97.719 C46.297,97.965 46.115,98.274 46.094,98.625 C46.086,98.753 46.213,98.871 46.25,99 C46.215,99.029 46.095,99.028 46.062,99.062 C46.015,99.114 46.063,99.167 46.031,99.219 C39.664,99.807 31.316,99.547 26.562,98.781 C26.605,97.511 26.728,95.817 27,93.281 C27.063,92.693 27.895,85.863 27.906,85.781 C27.912,85.736 27.875,85.701 27.875,85.656 C27.943,85.612 28.037,85.624 28.094,85.562 C28.281,85.359 28.355,85.099 28.344,84.844 C28.333,84.588 28.235,84.343 28.031,84.156 C26.92,83.135 26.319,81.414 26.75,79.156 C26.757,79.121 26.716,79.097 26.719,79.062 C26.91,78.935 27.086,78.772 27.156,78.531 C27.311,78.001 26.999,77.436 26.469,77.281 C26.352,77.247 24.697,76.742 24.062,76.531 C22.251,75.93 20.436,75.257 18.75,74.562 C15.628,73.275 13.312,72.015 12.188,70.906 C11.139,69.873 9.358,66.249 7.625,62.188 C7.862,62 8.057,61.776 8.344,61.625 C8.873,61.346 9.454,61.133 10.031,61 C10.275,60.944 10.415,60.925 10.562,60.906 Z" id="Path" fill-opacity="0.947279" fill="#262626"></path>
                    <path d="M39,63.969 C39.005,64.827 39.031,67.294 39.031,67.75 C39.031,68.302 39.479,68.75 40.031,68.75 C40.584,68.75 41.031,68.302 41.031,67.75 C41.031,67.723 41.031,67.572 41.031,67.531 C41.599,67.561 42.19,67.589 42.594,67.688 C43.933,68.08 44.167,68.991 43.531,70.312 C42.581,72.287 40.132,74.031 38.062,74.031 C36.073,74.031 33.587,72.314 32.594,70.375 C31.858,68.94 32.246,68.077 34,67.781 C34.301,67.739 34.595,67.668 34.969,67.656 C35.007,68.174 35.41,68.594 35.938,68.594 C36.49,68.594 36.938,68.146 36.938,67.594 C36.938,66.698 36.938,65.078 36.938,64.031 C37.656,64.096 38.322,64.026 39,63.969 Z" id="Path" fill="#FFFFFF"></path>
                    <path d="M58.812,89.938 C58.862,89.962 58.883,90.016 58.938,90.031 C59.015,90.053 59.362,90.306 59.812,90.688 C59.878,90.743 60.282,91.099 60.625,91.406 C59.552,92.472 58.425,93.508 57.281,94.469 C56.85,94.831 56.452,95.153 56.094,95.438 C55.923,95.573 55.834,95.654 55.75,95.719 C55.723,95.741 55.682,95.724 55.656,95.75 C54.83,96.587 54.628,96.769 54.156,97.188 C54.148,97.195 53.694,97.646 53.188,98.188 C53.081,98.301 52.98,98.334 52.875,98.438 C52.748,98.309 52.569,98.294 52.406,98.25 C52.343,98.105 52.319,97.949 52.188,97.844 C52.16,97.822 52.123,97.831 52.094,97.812 C52.174,97.731 52.202,97.63 52.25,97.531 C52.308,97.472 52.394,97.449 52.438,97.375 C52.606,97.088 52.562,96.783 52.438,96.5 C52.56,96.433 52.692,96.345 52.906,96.25 C52.899,96.253 53.452,96.035 53.594,95.969 C53.997,95.78 54.19,95.663 54.375,95.406 C54.553,95.159 54.616,94.869 54.562,94.594 C54.515,94.346 54.35,94.131 54.125,93.969 C54.235,93.946 54.236,93.935 54.406,93.906 C55.117,93.787 56.075,92.912 57.844,91.031 C57.897,90.975 58.422,90.371 58.812,89.938 Z" id="Path" fill="#FFFFFF"></path>
                    <path d="M53.062,92.906 C53.071,92.911 53.084,92.899 53.094,92.906 C53.125,92.931 53.128,93.001 53.156,93.031 C53.115,92.997 53.095,92.945 53.062,92.906 Z" id="Path" fill="#FFFFFF"></path>
                    <path d="M52.062,96.031 C52.166,96.092 52.257,96.165 52.312,96.25 C52.375,96.346 52.385,96.388 52.406,96.312 C52.392,96.363 52.361,96.369 52.344,96.406 C52.261,96.27 52.21,96.118 52.062,96.031 Z" id="Path" fill="#262626"></path>
                    <path d="M26.094,100.75 C31.014,101.563 39.609,101.826 46.188,101.219 C46.291,101.209 46.346,101.101 46.438,101.062 C46.64,101.248 46.899,101.454 47.312,101.688 C40.678,102.405 31.263,102.213 26.062,101.25 C26.08,101.124 26.074,100.868 26.094,100.75 Z" id="Path" fill="#AAAAAA"></path>
                    <path d="M52.375,102.75 C52.449,103.529 52.528,104.335 52.594,105.438 C52.775,108.497 52.901,112.273 52.938,115.844 C52.98,119.931 52.899,123.505 52.688,126.094 C52.573,127.502 52.434,128.617 52.25,129.344 C52.185,129.599 52.122,129.743 52.062,129.875 L51,129.875 C50.986,129.875 50.983,129.906 50.969,129.906 C49.926,129.052 48.478,128.594 47,128.594 C45.538,128.594 44.126,129.039 43.094,129.875 C43.059,129.871 43.035,129.844 43,129.844 L41.969,129.844 C41.958,129.814 41.949,129.819 41.938,129.781 C41.822,129.392 41.745,128.772 41.688,127.938 C41.592,126.55 41.587,125.129 41.625,121.719 C41.626,121.645 41.641,116.591 41.531,115.094 C41.343,112.535 40.955,111.292 39.562,111.281 C37.771,111.267 36.642,116.201 36.594,120.969 C36.59,121.342 36.595,122.646 36.594,123.125 C36.587,126.084 36.573,127.3 36.469,128.469 C36.408,129.143 36.321,129.63 36.219,129.938 L35.188,129.938 C35.163,129.938 35.149,129.967 35.125,129.969 C34.083,128.894 32.502,128.281 30.844,128.281 C29.236,128.281 27.694,128.832 26.656,129.844 C26.54,129.821 26.437,129.76 26.312,129.781 C26.315,129.781 26.305,129.779 26.281,129.781 C26.248,129.785 26.221,129.78 26.188,129.781 C26.131,128.978 26.151,126.991 26.219,123.656 C26.23,123.086 26.346,117.235 26.344,116.969 C26.341,116.621 26.081,113.031 26.062,112.75 C25.937,110.834 25.852,109.092 25.812,107.469 C25.768,105.673 25.917,104.564 26,103.25 C33.004,104.486 46.326,104.377 52.375,102.75 Z" id="Path" fill="#AAAAAA"></path>
                    <path d="M30.844,130.281 C32.555,130.281 34.281,131.049 34.281,132.594 C34.281,133.471 27.438,133.471 27.438,132.594 C27.438,131.049 29.133,130.281 30.844,130.281 Z" id="Path" fill="#262626"></path>
                    <path d="M47,130.594 C48.711,130.594 50.438,131.362 50.438,132.906 C50.438,133.784 43.594,133.784 43.594,132.906 C43.594,131.362 45.289,130.594 47,130.594 Z" id="Path" fill="#262626"></path>
                </g>
                <g id="avatar_outline" transform="translate(249.000000, 102.000000)" stroke="#262626" stroke-linecap="round" stroke-linejoin="round">
                    <path d="M48.444,44.703 C45.442,47.705 42.44,50.707 48.444,50.707" id="Path" stroke-width="2"></path>
                    <path d="M54.383,50.975 C52.808,55.109 44.379,55.816 40.956,52.194 C40.388,51.593 49.612,64.909 54.383,50.975" id="Path" stroke-width="2"></path>
                    <path d="M33.433,41.701 C27.428,35.696 27.527,44.607 30.43,47.705 C32.642,50.065 33.68,47.375 33.68,47.375 C33.433,53.71 42.398,63.395 47.554,64.082 C59.531,65.679 63.456,47.705 63.456,47.705 C63.456,47.705 65.44,48.723 66.458,47.705 C69.46,44.703 69.46,35.696 63.456,41.701" id="Path" stroke-width="2"></path>
                    <path d="M32.176,47.421 C33.504,47.326 32.499,51.812 31.685,49.18" id="Path"></path>
                    <path d="M30.01,46.668 C31.105,45.778 30.836,49.694 29.987,48.283" id="Path"></path>
                    <path d="M64.827,46.64 C65.366,47.18 65.87,50.254 64.748,50.254" id="Path"></path>
                    <path d="M66.647,46.377 C66.79,46.662 67.228,49.04 66.858,49.04" id="Path"></path>
                    <path d="M67.491,45.216 C67.87,45.879 68.071,46.69 68.071,47.458" id="Path"></path>
                    <path d="M28.326,40.87 C26.248,39.113 29.75,37.625 29.788,40.267" id="Path"></path>
                    <path d="M46.927,64.641 C46.927,65.961 46.927,67.281 46.927,68.601" id="Path" stroke-width="2"></path>
                    <path d="M50.987,64.584 C50.987,65.799 51.016,67.526 51.016,68.74" id="Path" stroke-width="2"></path>
                    <path d="M51.352,67.4729713 C61.213,67.454 53.873,76.884 49.03,76.884 C44.398,76.884 37.064,67.617 46.356,67.611" id="Path" stroke-width="2"></path>
                    <path d="M36.302,100.671 C40.737,101.534 50.011,101.868 57.11,101.212" id="Path" stroke-width="2"></path>
                    <path d="M62,131.864 L63.433,131.864 C65.967,131.864 64.725,101.997 64.05,101.321" id="Path" stroke-width="2"></path>
                    <path d="M46.19,131.951 L47.566,131.949 C48.756,131.949 48.557,126.716 48.605,121.969 C48.647,117.895 49.72,113.267 50.557,113.273992 C52.864,113.292 50.396,131.838 52.607,131.838 L53.996,131.838" id="Path" stroke-width="2"></path>
                    <path d="M36.11,101.525 C35.28,106.429 36.331,116.608 36.343,117.965 C36.355,119.322 36.021,129.475 36.196,131.217 C36.271,131.97 37.475,131.763 37.475,131.763" id="Path" stroke-width="2"></path>
                    <path d="M53.592,133.918 C53.592,129.496 62.436,129.496 62.436,133.918 C62.436,136.129 53.592,136.129 53.592,133.918 Z" id="Path" stroke-width="2"></path>
                    <path d="M62.632,133.1 C60.719,134.147 55.669,134.079 53.808,133.19" id="Path"></path>
                    <path d="M59.052,132.517 C58.557,131.913 57.405,132 56.767,132.493" id="Path"></path>
                    <path d="M43.55,35.106 C41.94,34.781 41.424,37.646 42.817,38.11 C44.555,38.69 44.559,35.309 43.55,35.106 Z" id="Path" stroke-width="2" fill="#262626" fill-rule="nonzero"></path>
                    <path d="M56.052,35.253 C54.442,34.928 53.926,37.793 55.32,38.257 C57.058,38.836 57.061,35.456 56.052,35.253 Z" id="Path" stroke-width="2" fill="#262626" fill-rule="nonzero"></path>
                    <path d="M54.67,19.247 C52.18,19.541 50.844,22.325 50.844,22.325 C55.35,17.536 59.315,22.826 59.315,22.826 C59.315,22.826 57.159,18.954 54.67,19.247 Z" id="Path" stroke-width="2" fill="#262626" fill-rule="nonzero"></path>
                    <path d="M63.834,40.222 C68.256,9.267 52.779,11.479 48.357,15.901 C48.357,15.901 24.036,9.267 32.88,40.222" id="Path" stroke-width="2"></path>
                    <path d="M66.045,38.011 C70.467,15.901 66.045,9.267 48.357,9.267 C30.669,9.267 21.825,15.901 30.212,38.315" id="Path" stroke-width="2"></path>
                    <path d="M57.201,9.267 C59.937,3.796 55.196,0.423 48.357,0.423 C41.597,0.423 36.778,2.429 39.513,9.267" id="Path" stroke-width="2"></path>
                    <path d="M53.263,8.819 C54.934,6.804 55.192,5.332 53.471,1.183" id="Path"></path>
                    <path d="M43.724,9.443 C41.672,6.515 41.22,3.066 43.632,0.869" id="Path"></path>
                    <path d="M46.949,8.875 C46.949,8.875 44.603,4.506 47.244,0.443" id="Path"></path>
                    <path d="M50.215,8.64 C50.75,5.84 52.273,4.454 50.045,0.495" id="Path"></path>
                    <path d="M60.157,104.062 C60.157,106.302 61.955,109.091 64.67,109.091" id="Path" stroke-width="2"></path>
                    <path d="M37.202,79.251 C37.202,79.251 25.852,75.941 22.492,72.629 C19.592,69.77 13.918,54.341 12.942,50.254" id="Path" stroke-width="2"></path>
                    <path d="M43.724,67.955 C43.724,67.955 38.803,69.538 36.983,69.835 C35.62,70.058 28.728,67.473 24.68,65.807 C24.68,65.807 18.871,54.204 15.632,49.04" id="Path" stroke-width="2"></path>
                    <path d="M36.76,79.983 C36.176,83.042 37.349,84.975 38.346,85.891" id="Path" stroke-width="2"></path>
                    <path d="M40.055,103.885 C40.055,106.126 38.778,108.431 36.063,108.431" id="Path" stroke-width="2"></path>
                    <path d="M62.181,87.032 C62.181,87.032 62.893,93.182 63.258,95.328" id="Path" stroke-width="2"></path>
                    <path d="M37.904,86.641 C37.904,86.641 36.501,97.179 36.501,100.628" id="Path" stroke-width="2"></path>
                    <path d="M31.363,41.502 C30.244,40.606 28.65,40.777 30.204,44.795" id="Path"></path>
                    <path d="M32.847,43.872 C32.847,43.872 31.993,44.119 32.774,44.966" id="Path"></path>
                    <path d="M65.386,41.618 C66.505,40.722 68.099,40.894 66.545,44.911" id="Path"></path>
                    <path d="M63.93,44.387 L63.956,44.46" id="Path"></path>
                    <path d="M63.711,43.851 C64.757,43.687 64.789,45.015 63.867,45.03" id="Path"></path>
                    <path d="M51.712,67.481 C59.908,67.493 54.333,76.029 49.066,76.029 C44,76.029 38.098,67.639 46.356,67.611" id="Path" stroke-width="2"></path>
                    <path d="M21.688,60.887 C21.688,60.887 18.934,61.111 17.288,62.969" id="Path" stroke-width="2"></path>
                    <path d="M37.424,133.604 C37.424,129.182 46.268,129.182 46.268,133.604 C46.268,135.815 37.424,135.815 37.424,133.604 Z" id="Path" stroke-width="2"></path>
                    <path d="M46.359,132.943 C44.446,133.99 39.395,133.922 37.535,133.033" id="Path"></path>
                    <path d="M42.831,132.517 C42.336,131.913 41.184,132 40.546,132.493" id="Path"></path>
                    <path d="M67.362,97.464 C65.458,99.392 66.18,98.512 64.905,99.875 C61.607,103.401 59.025,102.316 58.997,101.864 C58.964,101.305 60.685,102.393 63.174,100.134" id="Path" stroke-width="2"></path>
                    <path d="M58.913,101.875 C56.11,100.308 60.875,101.703 62.552,99.612" id="Path" stroke-width="2"></path>
                    <path d="M58.072,101.277 C55.617,99.471 60.385,100.78 62.29,99.094" id="Path"></path>
                    <path d="M58.25,100.016 C57.368,98.987 60.762,99.563 62.394,98.133" id="Path" stroke-width="2"></path>
                    <path d="M62.571,97.883 C62.571,97.883 62.26,97.7 62.442,97.045 C62.624,96.391 66.589,95.515 63.236,95.715" id="Path" stroke-width="2"></path>
                    <path d="M55.35,68.295 C55.35,68.295 59.214,69.182 60.796,70.236 C62.958,71.678 79.514,83.183 76.673,87.886 C73.833,92.59 67.246,97.579 67.246,97.579" id="Path" stroke-width="2"></path>
                    <path d="M62.754,82.819 C62.754,82.819 68.522,88.21 71.133,87.977 C71.133,87.977 66.174,93.757 65.254,93.912 C62.634,94.351 63.558,94.749 63.558,94.749" id="Path" stroke-width="2"></path>
                    <path d="M62.476,81.993 C63.363,84.979 62.389,87.019 61.489,88.03" id="Path" stroke-width="2"></path>
                    <path d="M70.203,90.062 C70.962,90.278 72.935,92.305 73.018,92.305" id="Path" stroke-width="2"></path>
                    <path d="M36.604,103.195 C42.673,104.376 57.993,104.629 64.072,102.603" id="Path" stroke-width="2"></path>
                    <path d="M49.831,105.182 C49.831,106.384 49.343,108.449 51.012,108.449" id="Path" stroke-width="2"></path>
                    <path d="M44.026,118.25 C43.204,118.273 42.381,118.296 41.559,118.32" id="Path"></path>
                    <path d="M59.702,118.076 C58.636,118.076 57.57,118.076 56.504,118.076" id="Path"></path>
                    <path d="M48.541,102.429 C48.559,102.821 48.559,103.224 48.615,103.615" id="Path"></path>
                    <path d="M51.822,102.336 C51.822,102.744 51.822,103.152 51.822,103.56" id="Path"></path>
                    <path d="M41.329,102.488 C41.329,102.658 41.329,102.829 41.329,102.999" id="Path"></path>
                    <path d="M57.404,102.13 C57.404,102.541 57.404,102.952 57.404,103.363" id="Path"></path>
                    <path d="M48.44,27.1219739 C43.19,27.125 36.458,27.462 35.357,28.166 C34.267,28.864 31.445,39.601 31.504,39.619 C32.081,38.537 34.692,30.776 34.44,32.316 C33.604,37.43 36.996,45.489 41.781,45.457095 C46.381,45.426 46.506,40.142 48.098,40.142 C49.853,40.142 49.859,45.356 54.857,45.264 C59.946,45.17 62.393,35.477 61.668,32.352 C61.292,30.728 64.845,39.715 64.845,39.715 C64.845,39.715 62.106,29.617 60.607,28.25 C59.866,27.575 53.69,27.118 48.44,27.1219739 Z M46.711,28.248 C48.235,28.93 48.098,45.009 41.87,44.883 C35.801,44.761 33.521,30.909 35.772,29.226 C37.869,27.659 45.26,27.598 46.711,28.248 Z M60.301,29.069 C62.234,30.957 60.52,44.453 54.83,44.622 C47.939,44.827 47.234,29.112 48.576,28.294 C50.972,26.832 59.298,28.09 60.301,29.069 Z" id="Shape" stroke-width="2" fill="#262626" fill-rule="nonzero"></path>
                    <path d="M41.675,19.67 C44.164,19.963 45.5,22.748 45.5,22.748 C40.995,17.958 37.03,23.249 37.03,23.249 C37.03,23.249 39.185,19.376 41.675,19.67 Z" id="Path" stroke-width="2" fill="#262626" fill-rule="nonzero"></path>
                    <path d="M15.908,49.089 C14.799,47.002 18.576,44.359 18.184,43.625 C17.499,42.34 15.85,44.572 15.781,44.435 C15.376,43.624 13.929,36.83 13.505,36.618 C12.364,36.048 13.843,43.261 13.698,42.898 C12.989,41.126 11.436,35.975 10.627,36.633 C9.827,37.283 12.215,43.6 12.594,43.499 C12.709,43.468 8.815,37.161 8.648,37.453 C8.006,38.576 11.38,44.688 11.304,45.269 C11.254,45.653 8.015,41.627 7.914,42.487 C7.815,43.329 12.265,48.128 12.746,49.696" id="Path" stroke-width="2"></path>
                    <path d="M4.436,34.85 C3.214,36.26 2.728,38.542 2.728,40.372" id="Path"></path>
                    <path d="M2.43,34.355 C1.401,35.01 1.001,36.408 0.722,37.524" id="Path"></path>
                    <path d="M16.719,33.067 C18.108,34.895 18.878,36.022 19.74,38.02" id="Path"></path>
                    <path d="M18.774,32.2 C20.166,33.663 21.053,34.782 21.77,36.658" id="Path"></path>
                    <path d="M54.869,47.783 C54.869,47.783 57.318,48.686 57.619,52.119" id="Path"></path>
                </g>
            </g>
        </g>
    </g>
</svg>