<?xml version="1.0" encoding="UTF-8"?>
<svg width="279px" height="218px" viewBox="0 0 279 218" version="1.1" xmlns="http://www.w3.org/2000/svg" xmlns:xlink="http://www.w3.org/1999/xlink">
    <!-- Generator: Sketch 55.2 (78181) - https://sketchapp.com -->
    <title>Workshop</title>
    <desc>Created with Sketch.</desc>
    <g id="website-2.0" stroke="none" stroke-width="1" fill="none" fill-rule="evenodd">
        <g id="00_Webseite-2.0" transform="translate(-488.000000, -275.000000)">
            <g id="Workshop" transform="translate(489.000000, 276.000000)">
                <g id="audience_color" transform="translate(188.000000, 56.000000)" fill="#FFFFFF" fill-rule="nonzero">
                    <path d="M11.5,0.25 C11.185,0.372 11.012,0.559 10.969,0.781 C10.926,1.004 10.998,1.27 11.125,1.469 C11.202,1.588 11.327,1.679 11.469,1.812 C11.682,2.013 11.978,2.27 12.406,2.594 C13.035,3.069 13.993,3.75 15.031,4.469 C14.474,5.075 14.162,5.809 14.406,6.75 C14.585,7.438 14.771,7.877 14.969,8.344 C13.832,8.519 12.692,8.733 11.625,9.125 C11.216,9.275 10.817,9.442 10.438,9.625 C7.921,10.84 6.278,12.721 5.375,15.062 C4.574,17.141 4.418,19.318 4.656,21.281 C4.671,21.401 4.701,21.439 4.719,21.531 C4.613,21.592 4.339,21.587 4.25,21.656 C4.067,21.798 3.969,22.019 3.969,22.25 L3.969,23.281 C3.799,26.912 4.722,29.497 6.438,30.938 C6.336,31.072 6.118,31.1 6.125,31.281 C6.217,33.57 7.182,34.785 9.625,36.562 C9.823,36.706 9.922,36.787 10,36.844 C12.128,38.394 12.909,39.646 13.094,41.531 C11.949,41.72 10.869,42.148 10.594,42.875 C10.412,42.867 10.243,42.719 10.094,42.844 C10.021,42.905 9.895,43.11 9.812,43.188 C9.803,43.188 9.791,43.186 9.781,43.188 C6.066,43.625 3.925,54.387 4.344,64.812 C4.421,66.728 4.836,68.054 5.531,68.906 C5.903,69.361 6.266,69.435 6.625,69.562 C6.635,69.919 6.563,70.995 6.594,71.312 C6.608,71.459 6.773,71.559 6.844,71.688 C6.833,71.712 6.789,71.693 6.781,71.719 C6.734,71.868 6.089,73.941 5.844,74.75 C5.143,77.063 4.435,79.461 3.781,81.781 C3.579,82.5 3.375,83.19 3.188,83.875 C1.632,89.565 0.764,93.598 0.78075491,95.375 C0.796,96.891 1.912,98.957 3.875,101.562 C4.434,102.305 5.047,103.079 5.719,103.875 C6.771,105.121 7.905,106.351 9.031,107.531 C9.425,107.944 10.454,109.018 10.531,109.094 C10.698,109.258 10.934,109.183 11.156,109.156 L11.062,109.281 C10.964,109.417 10.932,109.583 10.938,109.75 C10.955,110.259 10.506,111.659 9.906,112.969 C9.602,113.633 9.278,114.235 9,114.625 C8.869,114.808 8.772,114.929 8.688,115 C8.684,115.003 8.74,114.981 8.875,115 C8.815,114.992 8.808,115.089 8.75,115.094 C7.645,114.752 6.503,114.796 5.656,115.438 C5.095,115.862 4.759,116.425 4.688,117 C4.616,117.575 4.808,118.168 5.344,118.625 C6.737,119.812 13.146,120.414 13.938,118.781 C15.052,116.481 16.192,112.278 16.594,109.438 C16.714,112.932 16.84,114.903 17.156,115.219 C17.212,115.274 17.423,115.263 17.5,115.312 L17.531,115.781 C17.374,115.803 17.216,115.662 17.094,115.781 C16.887,115.982 16.917,116.195 16.844,116.406 C16.762,116.483 16.605,116.416 16.562,116.531 C16.512,116.668 16.416,116.898 16.344,117.156 C16.293,117.338 16.252,117.516 16.219,117.688 C16.126,118.162 16.11,118.54 16.219,118.875 C16.842,120.801 17.68,122.402 18.812,123.438 C18.821,123.446 18.835,123.43 18.844,123.438 C19.38,124.521 21.011,125.074 23.094,125.125 C25.62,125.187 27.726,124.541 27.75,123.062 C27.754,122.789 27.623,122.574 27.531,122.344 C27.529,122.327 27.565,122.329 27.562,122.312 C27.544,122.206 27.442,122.053 27.406,121.938 C27.398,121.926 27.383,121.918 27.375,121.906 C27.088,121.024 26.385,119.941 24.844,118.875 C24.514,118.647 24.168,118.427 23.781,118.219 C23.163,117.886 22.731,117.536 22.469,117.188 C22.312,116.98 22.251,116.809 22.25,116.781 C22.249,116.721 22.14,116.743 22.125,116.688 C22.171,116.319 21.962,115.929 21.5,115.625 C21.458,115.597 21.42,115.674 21.375,115.656 C21.376,115.646 21.374,115.634 21.375,115.625 C21.798,115.45 22.103,115.198 22.156,114.812 C23.084,108.049 23.247,103.861 23,99.875 C22.866,97.708 22.872,97.699 22.969,97.312 C23.34,95.828 24.019,91.333 24.375,87.219 C24.641,84.149 24.757,81.262 24.688,78.656 C24.623,76.239 24.367,74.128 23.969,72.25 C24.285,71.986 24.302,71.576 24.25,70.812 C24.352,70.768 24.404,70.745 24.531,70.688 C25.07,70.445 25.619,70.189 26.125,69.906 C27.11,69.356 27.845,68.814 28.281,68.25 C28.47,68.006 28.62,67.734 28.688,67.469 C29.735,63.34 29.079,50.873 27.562,46.656 C26.848,44.669 23.488,42.807 21.031,42.688 C20.998,42.686 21.002,42.747 20.969,42.75 C20.729,42.058 20.028,41.578 19.062,41.375 C19.582,40.008 20.952,38.854 23.438,37.406 C23.544,37.344 24.725,36.669 25.062,36.469 C27.111,35.256 28.147,34.35 28.594,33.125 C28.609,33.084 28.523,33.073 28.531,33.031 C30.547,31.806 31.604,28.905 30.625,27.062 C30.634,27.05 30.648,27.044 30.656,27.031 C30.736,26.91 30.813,26.784 30.875,26.594 C30.978,26.274 31.065,25.789 31.156,25.25 C31.377,23.944 31.488,22.406 31.438,20.844 C31.295,16.423 29.962,12.743 27.031,10.625 C26.841,10.488 26.638,10.373 26.438,10.25 C26.866,9.794 27.292,9.22 27.688,8.406 C28.185,7.383 27.917,6.502 27.344,5.719 C27.765,5.482 28.178,5.237 28.625,5 C28.87,4.87 30.807,3.868 31,3.75 C31.148,3.66 31.254,3.59 31.344,3.5 C31.516,3.327 31.636,3.082 31.625,2.844 C31.614,2.605 31.477,2.374 31.156,2.219 C30.446,1.876 28.32,2.784 25.688,4.375 C24.619,3.815 23.342,3.357 21.781,3.156 C20.853,3.037 19.929,2.992 19.062,3.031 C18.255,3.068 17.521,3.164 16.875,3.344 C16.817,3.298 16.748,3.265 16.688,3.219 C13.502,0.805 12.241,-0.037 11.5,0.25 Z M62.469,4.844 C61.381,4.728 60.234,4.73 59.031,4.875 C57.634,5.044 56.155,5.495 54.625,6.031 C54.398,6.111 54.199,6.1 53.969,6.188 C53.831,6.24 53.895,6.421 53.812,6.531 C53.388,6.892 53.158,7.347 53.5,7.938 C54.212,9.167 54.723,10.714 55.094,12.281 C48.945,13.688 46.688,18.069 46.688,24.5 C46.687,24.789 46.774,25 46.781,25.281 C45.921,25.653 45.594,27.068 45.844,28.781 C46.123,30.696 47.01,32.235 48.312,32.781 C49.631,35.811 51.614,38.007 54.031,39.156 C55.15,39.688 55.52,40.96 55.562,42.719 C55.06,42.943 54.564,43.173 54.25,43.438 C54.041,43.48 53.625,43.573 53.406,43.625 C52.641,43.807 51.877,44.042 51.156,44.312 C49.955,44.763 49.012,45.288 48.375,45.938 C46.597,47.751 45.422,51.274 45.4058332,54.688 C45.401,55.825 45.508,56.954 45.781,58 C45.846,58.247 46.173,58.386 46.406,58.562 C45.585,61.749 46.157,67.348 47.438,68.344 C47.572,68.448 47.882,68.475 48.062,68.562 C48.071,68.87 48.097,68.661 47.812,72.25 C47.776,72.714 47.747,73.115 47.719,73.5 C47.379,78.129 47.369,79.461 48.219,79.875 C48.231,79.881 48.452,79.869 48.469,79.875 C47.878,88.067 48.18,99.586 49.156,100.25 C49.249,100.313 49.906,100.268 50.125,100.312 C50.454,101.862 50.779,102.959 51.938,106.344 C52.311,107.436 52.525,108.133 52.75,108.844 C53.614,111.579 54,113.624 54,115.469 C53.837,115.624 53.669,115.769 53.594,115.938 C53.557,115.989 53.461,115.939 53.438,116 C53.335,116.264 53.209,116.484 53.094,116.688 C52.884,117.059 52.697,117.314 52.5,117.469 C52.412,117.538 52.358,117.567 52.375,117.562 C52.348,117.57 52.369,117.615 52.344,117.625 C50.347,118.02 48.625,119.246 48.625,121.406 C48.625,122.977 51.171,123.75 53.688,123.75 C55.725,123.75 57.673,123.214 58.375,122.188 C58.407,122.152 58.474,122.2 58.5,122.156 C58.669,121.87 58.919,121.378 59.156,120.719 C59.48,119.816 59.684,118.844 59.75,117.844 C59.759,117.713 59.757,117.576 59.75,117.438 C59.732,117.105 59.683,116.781 59.594,116.438 C59.548,116.262 59.512,116.147 59.469,116.031 C59.461,115.999 59.449,115.97 59.438,115.938 C59.431,115.921 59.412,115.889 59.406,115.875 C59.392,115.838 59.331,115.877 59.312,115.844 C59.215,115.655 58.97,115.505 58.75,115.344 C58.089,112.529 57.973,110.259 58.188,106.156 C58.35,103.05 58.291,101.772 58.031,100.188 C58.181,100.157 58.662,100.157 58.75,100.125 C59.281,99.931 59.492,98.947 59.625,97.375 C60.025,99.351 60.385,100.427 61.031,100.438 C61.555,100.446 62.176,100.41 62.75,100.406 C62.816,102.229 63.143,103.843 63.875,105.812 C64.058,106.305 64.732,108.033 64.719,108 C65.836,110.892 66.326,113.357 66.5,116.406 C66.164,116.699 65.803,116.975 65.75,117.281 C65.708,117.413 65.671,117.54 65.625,117.719 C65.601,117.81 65.583,117.914 65.562,118 C65.473,118.383 65.425,118.67 65.438,118.906 C65.452,119.183 65.591,119.802 65.812,120.781 C65.834,120.878 66.225,122.556 66.25,122.656 C66.257,122.683 66.303,122.662 66.312,122.688 C66.561,124.067 68.828,124.781 71.156,124.781 C73.618,124.781 76.062,124.012 76.062,122.469 C76.062,120.97 75.2,119.973 74.031,119.344 C73.986,119.317 74.021,119.235 73.969,119.219 C73.904,119.198 73.768,119.17 73.594,119.094 C73.3,118.964 72.989,118.779 72.719,118.594 C72.076,118.151 71.751,117.629 71.688,117.062 C71.634,116.787 71.262,116.578 70.969,116.344 C70.94,114.747 70.973,112.976 71.062,110.469 C71.086,109.805 71.117,109.143 71.156,108.188 C71.39,102.432 71.387,100.974 71.188,99.812 C71.323,99.775 71.846,99.759 71.906,99.719 C72.231,99.502 72.363,99.179 72.375,98.562 C72.387,97.946 72.256,97.015 72.031,95.594 C71.825,94.289 70.721,88.113 70.75,88.281 C70.48,86.732 70.26,85.381 70.062,84.094 C69.819,82.5 69.646,81.084 69.5,79.75 C69.82,79.656 70.588,79.631 70.688,79.5 C70.992,79.1 70.904,78.217 70.375,73.75 C70.348,73.52 69.749,68.888 69.719,68.656 C71.061,66.503 71.961,62.835 71.75,58.281 C71.873,58.205 72.242,58.175 72.312,58.094 C72.643,57.716 72.789,56.925 72.781,55.906 C72.759,52.849 71.43,47.778 70.062,45.969 C69.34,45.013 67.963,44.31 66.094,43.781 C65.197,43.528 64.235,43.339 63.281,43.188 C62.948,43.135 62.654,43.097 62.375,43.062 C62.206,43.042 62.068,43.007 62,43 C61.983,42.998 61.986,43.032 61.969,43.031 C61.633,42.841 61.224,42.668 60.75,42.531 C60.644,40.677 60.858,39.749 61.625,39.312 C61.751,39.241 62.807,38.724 63.125,38.562 C64.034,38.102 64.848,37.633 65.625,37.094 C67.537,35.768 68.717,34.136 69.406,32.312 C71.192,32.442 72.46,30.958 72.938,28.688 C73.217,27.361 73.146,26.124 72.781,25.312 C72.816,25.254 72.919,25.288 72.938,25.219 C74.523,19.305 73.598,13.166 70.438,9.188 C68.447,6.682 65.731,5.192 62.469,4.844 Z M13.125,84.156 C13.317,84.164 13.574,84.204 13.906,84.281 C14.078,84.322 14.279,84.383 14.469,84.438 C14.595,84.473 14.767,84.528 14.969,84.594 C14.899,87.817 15.076,90.456 15.594,93.219 C15.657,93.558 15.966,94.986 16.031,95.344 C16.163,96.066 16.214,96.597 16.25,97.125 C16.26,97.277 16.278,97.447 16.281,97.594 C16.287,97.846 16.426,104.411 16.469,106.062 C16.489,106.865 16.512,107.045 16.531,107.719 C16.372,107.406 16.128,107.142 15.812,106.938 C15.503,106.737 15.198,106.61 14.969,106.562 C14.926,106.553 14.917,106.626 14.875,106.625 C14.773,106.591 14.709,106.498 14.594,106.5 C14.337,106.504 14.071,106.613 13.719,106.781 C13.642,106.71 13.518,106.576 13.5,106.562 C13.533,106.289 13.576,106.018 13.469,105.75 C11.982,102.034 10.468,99.208 8.969,97.156 C8.263,96.191 7.808,95.774 7.375,95.375 C7.608,95.013 7.885,94.598 8.062,94.312 C8.797,93.136 9.532,91.906 10.219,90.688 C10.563,90.077 10.856,89.48 11.156,88.906 C12.179,86.95 12.807,85.404 13.125,84.156 Z" id="Shape"></path>
                </g>
                <g id="workshop-color" transform="translate(2.000000, 11.000000)" fill-rule="nonzero">
                    <path d="M61.969,0.0295030967 C83.382,0.001 105.017,0.421 107.719,1.375 C107.74,1.446 107.758,1.475 107.781,1.562 C107.94,2.148 108.106,3.016 108.312,4.156 C108.721,6.411 109.227,9.672 109.781,13.875 C110.823,21.773 112.092,32.905 113.531,46.562 C113.595,47.164 114.054,47.543 114.594,47.719 C110.202,51.843 107.821,57.999 107.812,65.969 C107.812,65.994 107.843,66.006 107.844,66.031 C107.856,66.386 108.034,71.43 108.094,73.156 C107.779,73.434 107.413,73.682 107.219,74.031 C107.008,74.408 106.884,74.801 106.844,75.188 C106.729,76.297 107.335,77.412 108.469,78.312 C108.831,80.368 108.751,81.388 108.062,83.375 C108.004,83.544 108.091,83.706 108.094,83.875 C107.966,84.276 107.985,84.704 108.219,85.094 C108.483,85.535 108.786,85.717 109.062,86.062 C108.835,86.344 108.691,86.705 108.719,87.094 C109.939,104.155 113.439,109.369 125.75,110.781 C125.75,111.464 125.75,112.364 125.75,113.312 C125.391,113.45 125.138,113.61 124.844,113.75 C124.51,113.565 124.118,113.516 123.719,113.625 C123.497,113.686 123.22,113.74 122.875,113.812 C122.584,113.874 121.419,114.091 121.406,114.094 C120.751,114.226 120.228,114.342 119.719,114.469 C118.102,114.872 116.822,115.369 115.781,116.062 C115.142,116.489 113.438,116.253 107.438,114.906 C105.99,114.581 104.931,114.353 103.875,114.156 C100.172,113.466 97.374,113.372 95,113.875 C94.946,113.802 94.93,113.729 94.875,113.656 C93.141,111.358 90.859,108.943 88.156,106.469 C87.809,106.151 87.417,105.877 87.062,105.562 C87.233,105.402 87.5,105.31 87.469,105.062 C86.849,100.112 85.956,94.911 84.875,89.594 C84.099,85.778 83.269,82.136 82.438,78.781 C82.146,77.607 81.358,74.552 81.344,74.5 C81.258,74.193 80.988,74.013 80.719,73.969 C80.45,73.924 80.18,74.018 80,74.281 C78.176,76.957 75.455,78.579 72.062,79.375 C69.224,80.041 66.277,80.077 63.156,79.719 C62.89,79.688 61.411,79.506 61.312,79.5 C61.224,79.494 61.143,79.49 61.062,79.5 C60.955,79.513 60.958,79.507 60.719,79.625 C60.369,80.005 60.388,80.017 60.469,80.562 C65.637,92.62 68.313,105.1 66.5,119.938 C66.462,120.252 67.623,124.504 68.031,126.406 C70.618,138.457 70.223,151.303 64.781,164.906 C64.501,165.607 64.979,166.009 65.594,166.156 C65.882,166.225 66.255,166.253 66.75,166.25 C67.552,166.245 68.669,166.182 70,166.031 C70.49,165.976 71.003,165.913 71.531,165.844 C72.241,165.75 74.303,165.433 74.469,165.406 C74.878,165.34 75.16,164.94 75.094,164.531 C75.027,164.122 74.628,163.84 74.219,163.906 C74.058,163.932 72.043,164.252 71.344,164.344 C70.824,164.412 70.324,164.477 69.844,164.531 C68.561,164.676 67.487,164.745 66.75,164.75 C66.588,164.751 66.529,164.756 66.406,164.75 C71.708,151.098 72.1,138.208 69.5,126.094 C69.01,123.811 68.003,120.067 68,120.094 C69.794,105.416 67.198,93.054 62.25,81.125 C62.502,81.158 62.726,81.191 62.969,81.219 C66.246,81.595 69.37,81.556 72.406,80.844 C75.611,80.092 78.254,78.586 80.25,76.281 C80.511,77.277 80.805,78.339 81,79.125 C81.827,82.46 82.635,86.112 83.406,89.906 C84.43,94.941 85.235,99.83 85.844,104.531 C84.335,103.233 82.836,101.91 81.281,100.719 C80.461,100.09 79.685,99.527 79,99.031 C78.759,98.857 78.168,98.436 78.125,98.406 C78.039,98.347 77.936,98.381 77.844,98.344 C77.731,97.792 77.623,97.242 77.5,96.719 C77.254,95.666 77.026,94.807 76.781,94.25 C76.561,93.749 76.253,93.516 75.875,93.469 C75.651,92.069 75.302,89.941 75.281,89.812 C75.258,89.668 75.193,89.546 75.094,89.438 L74.531,88.812 C74.514,88.629 74.468,88.457 74.438,88.281 C74.394,88.029 74.357,87.808 74.281,87.625 C74.11,87.212 73.819,86.905 73.312,86.938 C72.756,86.973 72.559,87.384 72.5,87.844 C72.476,88.033 72.474,88.222 72.5,88.469 C72.513,88.597 72.54,88.739 72.562,88.875 C72.571,88.927 72.585,88.954 72.594,89 L72.188,89.656 C72.11,89.795 72.106,89.936 72.125,90.094 C72.126,90.104 72.146,90.339 72.156,90.438 C72.085,90.497 71.987,90.515 71.938,90.594 C71.851,90.729 71.811,90.861 71.781,91.031 C71.745,91.231 71.726,91.49 71.719,91.844 C71.708,92.372 71.715,92.987 71.75,94.156 C71.752,94.229 71.793,96.102 71.781,96.562 C71.776,96.766 71.652,96.913 70.875,97.188 C70.053,97.478 69.159,98.44 69.125,99.062 C69.061,100.239 69.81,101.243 71.688,103.062 C71.678,103.099 71.631,103.119 71.625,103.156 C71.565,103.535 71.663,103.946 71.906,104.281 C71.936,104.322 73.606,106.586 74.219,107.406 C75.969,109.751 77.747,112.09 79.469,114.281 C79.824,114.734 80.188,115.194 80.531,115.625 C83.729,119.637 86.205,122.459 87.781,123.781 C89.888,125.548 94.112,127.1 100,128.531 C102.817,129.216 105.833,129.812 108.844,130.344 C109.497,130.459 110.382,130.596 111.344,130.75 C111.332,130.779 111.325,130.782 111.312,130.812 C111.112,131.298 110.907,131.829 110.719,132.375 C110.472,133.092 110.247,133.798 110.094,134.469 C109.938,135.152 109.839,135.787 109.812,136.375 C109.702,138.802 109.728,141.951 109.844,145.938 C109.891,147.559 110.186,155.256 110.219,156.094 C110.278,157.628 110.313,158.609 110.312,159.25 C110.312,159.507 110.48,159.695 110.594,159.906 C110.579,159.959 110.509,159.976 110.5,160.031 C110.026,162.832 109.861,166.664 109.875,171.625 C109.881,173.702 109.895,175.687 109.969,178.688 C110.042,181.67 110.05,181.933 110.062,182.719 C109.82,182.52 109.556,182.358 109.219,182.344 C108.004,182.294 104.232,182.292 86.125,182.375 C84.292,182.383 55.03,182.481 54,182.375 C53.937,182.211 53.872,181.996 53.781,181.531 C53.765,181.45 53.601,180.643 53.562,180.469 C53.462,180.009 53.353,179.616 53.219,179.219 C52.549,177.24 51.303,175.753 49.188,174.875 C47.553,174.197 45.572,173.968 42.969,174 C42.172,174.01 41.471,174.03 40.219,174.094 C37.975,174.207 37.237,174.226 36.469,174.156 C36.171,174.129 36.022,174.076 35.875,174.031 C35.192,171.056 29.687,125.104 25.438,86.094 C22.875,62.568 20.794,42.211 19.5,27.281 C18.778,18.95 18.302,12.398 18.094,7.812 C18.003,5.816 17.985,4.432 18,3.219 C18.016,3.089 18.244,1.393 18.25,1.344 C21.331,0.51 41.341,0.06 61.969,0.0295030967 Z" id="Path" fill="#FFFFFF"></path>
                    <path d="M64.719,6.281 C51.229,6.333 37.649,7.709 35.75,10.406 C34.226,12.572 34.779,13.908 36.969,15.844 C37.017,15.887 37.014,15.864 37.062,15.906 C38.328,17.026 38.66,17.55 38.438,18.281 C38.319,18.669 37.912,19.269 37.625,19.781 C37.507,19.772 37.349,19.765 37.094,19.75 C35.067,19.632 32.793,19.7 30.625,20.156 C29.462,20.401 28.379,20.736 27.438,21.188 C25.179,22.271 24.125,23.132 24.062,24.125 C24.003,25.065 24.604,25.542 26,26.219 C26.121,26.277 26.586,26.495 26.531,26.469 C27.922,27.133 28.272,27.452 28.094,27.844 C28.032,27.98 27.837,28.265 27.5,28.719 C27.357,28.912 26.047,30.646 25.906,30.844 C25.146,31.91 24.666,32.735 24.469,33.406 C24.132,34.552 24.691,35.421 25.969,35.4061913 C27.217,35.392 27.827,35.25 30.625,34.5 C34.652,33.421 37.135,33.283 40.562,34.469 C41.084,34.649 41.592,34.595 41.844,34.031 C41.88,33.95 41.798,33.862 41.812,33.781 C41.915,33.635 42.145,33.591 42.125,33.406 L41.281,25.812 C52.408,23.673 73.287,23.566 86.562,25.594 L85.719,33.188 C85.699,33.372 85.929,33.416 86.031,33.562 C86.046,33.643 85.964,33.731 86,33.812 C86.251,34.376 86.76,34.43 87.281,34.25 C90.709,33.065 93.192,33.202 97.219,34.281 C100.017,35.031 100.626,35.173 101.875,35.188 C103.153,35.203 103.712,34.333 103.375,33.188 C103.178,32.516 102.697,31.691 101.938,30.625 C101.797,30.427 100.487,28.693 100.344,28.5 C100.006,28.046 99.812,27.761 99.75,27.625 C99.572,27.234 99.922,26.914 101.312,26.25 C101.258,26.276 101.723,26.059 101.844,26 C103.239,25.324 103.841,24.847 103.781,23.906 C103.719,22.913 102.665,22.052 100.406,20.969 C99.465,20.517 98.382,20.182 97.219,19.938 C95.051,19.482 92.777,19.413 90.75,19.531 C90.675,19.536 90.656,19.528 90.594,19.531 C90.539,19.396 90.422,19.227 90.375,19.094 C90.136,18.416 90.015,17.8 90,17.25 C89.97,16.142 90.424,15.347 91.5,14.281 C91.625,14.158 92.056,13.724 92.094,13.688 C92.332,13.454 92.499,13.274 92.656,13.094 C93.493,12.129 93.71,11.2 93.094,10.125 C91.602,7.525 78.209,6.23 64.719,6.281 Z" id="Path" fill="#527A98"></path>
                    <path d="M15.969,19.906 C16.18,22.625 16.248,24.297 16.531,27.562 C17.827,42.518 19.873,62.861 22.438,86.406 C25.97,118.83 29.724,150.169 31.562,164 C30.648,164.039 28.718,164.125 27.75,164.156 C25.742,164.222 23.778,164.251 21.938,164.281 C16.81,164.366 13.176,164.27 12.25,164 C12.22,163.991 12.151,163.895 11.938,163.188 C11.894,163.041 11.784,162.667 11.75,162.562 C11.306,161.214 10.68,160.285 9.5,159.656 C8.247,158.988 6.723,158.981 3.844,159.312 C3.659,159.334 3.487,159.343 3.219,159.375 C1.333,159.601 0.799,159.582 0.312,159.531 C0.311,159.352 0.309,159.257 0.312,159.031 C0.331,157.869 0.429,156.14 0.594,153.906 C0.908,149.642 1.472,143.512 2.281,135.688 C3.708,121.895 5.866,103.151 8.531,80.688 C8.735,78.969 13.285,41.814 15.969,19.906 Z" id="Path" fill="#FFFFFF"></path>
                    <path d="M132.156,34.469 C133.162,34.39 134.193,34.415 135.219,34.562 C139.513,35.179 143.126,37.287 144.531,39.969 C146.059,42.884 144.977,46.417 140.562,50.281 C140.517,50.321 140.539,50.394 140.5,50.438 C139.898,50.41 139.561,50.361 138.406,50.344 C136.497,50.315 135.727,50.274 134.688,50.219 C134.118,50.188 133.596,50.173 133.094,50.125 C131.912,50.011 130.711,49.811 129.188,49.5 C128.819,49.425 127.421,49.129 127.094,49.062 C126.459,48.934 126.018,48.87 125.594,48.812 C122.365,44.253 122.299,40.474 124.688,37.781 C126.353,35.904 129.138,34.704 132.156,34.469 Z" id="Path" fill="#527A98"></path>
                    <path d="M121.125,46.875 C121.485,47.734 122.01,48.615 122.562,49.5 C122.317,49.819 122.154,50.203 122.156,50.781 C122.168,53.732 125.413,54.666 132.781,55.375 C134.284,55.52 135.763,55.576 137.125,55.562 C141.211,55.523 144.367,54.748 144.719,52.969 C144.875,52.178 144.477,51.577 143.906,51.156 C144.888,50.15 145.704,49.138 146.344,48.125 C149.666,50.337 151.641,53.607 152.625,58.219 C153.414,61.917 153.553,65.27 153.469,73.094 C153.466,73.313 153.438,75.869 153.438,76.812 C153.438,77.066 153.577,77.26 153.688,77.469 C153.597,77.647 153.45,77.788 153.438,78 C153.434,78.05 153.353,78.918 153.312,79.281 C153.195,80.327 153.04,81.522 152.812,82.781 C152.162,86.376 151.157,89.943 149.75,93.281 C145.579,103.177 138.821,108.755 128.688,108.094 C120.771,107.577 116.66,106.066 114.375,101.156 C114.665,101.03 114.947,100.832 114.906,100.5 C114.346,95.933 114.223,91.446 114.5,87.094 C114.508,86.973 114.327,86.977 114.281,86.875 C114.784,86.325 115.211,85.585 115.594,84.688 C116.55,82.444 117.263,78.796 117.344,76.781 C117.463,73.804 115.665,72.052 113.25,71.688 C112.553,71.582 111.796,71.646 111.031,71.781 C110.957,69.577 110.854,66.23 110.844,65.938 C110.843,65.913 110.815,65.9 110.812,65.875 C110.848,56.301 114.474,49.958 121.125,46.875 Z" id="Path" fill="#527A98"></path>
                    <path d="M111.312,74.719 C113.18,74.308 114.411,75.013 114.344,76.688 C114.277,78.361 113.645,81.652 112.844,83.531 C112.785,83.668 112.776,83.632 112.719,83.75 C112.467,83.538 112.13,83.376 111.844,83.562 C111.739,83.631 111.839,83.774 111.781,83.875 C111.589,83.663 111.399,83.511 111.125,83.438 C111.381,82.594 111.661,81.768 111.719,81 C111.799,79.938 111.667,78.802 111.375,77.312 C111.282,76.839 110.96,76.537 110.562,76.344 C110.483,76.245 110.482,76.111 110.375,76.031 C109.834,75.629 109.818,75.547 109.844,75.5 C109.988,75.241 110.553,74.886 111.312,74.719 Z" id="Path" fill="#FFFFFF"></path>
                    <path d="M112.969,88.875 C112.86,91.725 112.92,94.625 113.156,97.562 C112.632,95.44 112.319,92.497 112.031,89.438 C112.043,89.416 112.083,89.428 112.094,89.406 C112.174,89.246 112.155,89.094 112.219,88.938 C112.271,88.988 112.214,89.091 112.281,89.125 C112.538,89.253 112.752,89.032 112.969,88.875 Z" id="Path" fill="#FFFFFF"></path>
                    <path d="M73.75,91.062 C73.801,91.064 73.856,91.096 73.906,91.094 C73.929,91.093 73.946,91.064 73.969,91.062 C74.148,92.218 74.502,94.55 74.562,94.938 C74.578,95.04 74.728,95.011 74.781,95.094 C74.757,95.762 74.871,96.7 75.031,97.688 C75.037,97.722 75.057,97.776 75.062,97.812 C75.109,98.088 75.065,98.244 75.125,98.531 C75.131,98.558 75.179,98.537 75.188,98.562 C75.499,100.467 75.985,103.307 76.125,104.031 C76.078,104.043 76.056,104.055 76,104.062 C75.927,104.073 75.876,104.063 75.812,104.062 C75.736,103.664 75.532,102.577 75.188,100.406 C75.181,100.365 74.766,97.712 74.688,97.219 C74.678,97.158 74.585,97.179 74.562,97.125 C74.63,95.488 74.272,93.457 73.75,91.969 C73.755,91.911 73.853,91.903 73.844,91.844 C73.84,91.823 73.793,91.394 73.75,91.062 Z" id="Path" fill="#262626"></path>
                    <path d="M73.094,97.094 C73.097,97.221 73.257,97.236 73.312,97.344 C73.308,97.402 73.209,97.409 73.219,97.469 C73.271,97.799 73.675,100.282 74,102.312 C73.79,102.146 73.592,101.946 73.344,101.906 C73.138,101.874 72.949,102.004 72.75,102.062 C71.215,100.57 70.649,99.785 70.656,99.188 C70.697,99.133 70.754,99.092 70.812,99.031 C71.003,98.831 71.203,98.655 71.375,98.594 C72.415,98.227 72.889,97.735 73.094,97.094 Z" id="Path" fill="#FFFFFF"></path>
                    <path d="M77.188,101.406 C77.22,101.43 77.216,101.444 77.25,101.469 C77.913,101.949 78.671,102.483 79.469,103.094 C81.748,104.84 84.003,106.745 86.125,108.688 C88.703,111.047 90.89,113.336 92.5,115.469 C93.209,116.408 93.782,117.273 94.25,118.125 L94.344,118.344 L94.375,118.344 C95.308,120.101 97.945,118.736 97.031,116.969 L96.875,116.656 C98.606,116.507 100.621,116.592 103.312,117.094 C104.325,117.283 105.366,117.495 106.781,117.812 C114.514,119.548 115.713,119.733 117.469,118.562 C118.168,118.096 119.157,117.734 120.469,117.406 C120.927,117.292 121.385,117.187 122,117.062 C121.999,117.063 122.385,116.969 122.688,116.906 C122.9,117.42 123.326,117.889 123.906,118.188 C125.095,118.799 127.323,119.123 129.75,119.125 C132.341,119.127 134.415,118.805 135.375,118 C135.51,117.887 135.559,117.749 135.656,117.625 C136.889,117.961 137.925,118.245 138.906,118.594 C140.327,119.099 141.442,119.639 142.219,120.156 C143.901,121.278 146.165,134.564 147.812,149.469 C148.053,151.648 147.763,155.248 147,160.125 C146.814,161.317 146.59,162.57 146.344,163.969 C146.171,164.949 145.715,167.522 145.438,169.062 C144.878,168.944 144.204,168.786 143.406,168.531 C143.399,165.963 143.579,162.833 143.5,160.688 C143.499,160.652 143.473,160.629 143.469,160.594 C143.601,160.418 143.644,160.246 143.688,160.031 C143.711,159.946 143.804,159.904 143.812,159.812 C144.285,154.695 144.574,150.233 144.625,146.062 C144.676,141.892 144.499,137.992 144.031,134.031 C143.934,133.209 143.166,132.622 142.344,132.719 C141.521,132.816 140.934,133.584 141.031,134.406 C141.902,141.786 141.714,149.045 140.875,158.531 C134.124,160.455 123.208,160.149 113.281,158.281 C113.268,157.644 113.262,157.077 113.219,155.969 C113.186,155.126 112.891,147.483 112.844,145.875 C112.73,141.957 112.707,138.836 112.812,136.5 C112.83,136.109 112.913,135.646 113.031,135.125 C113.158,134.569 113.317,133.965 113.531,133.344 C113.698,132.859 113.883,132.401 114.062,131.969 C114.169,131.712 114.27,131.531 114.312,131.438 C114.499,131.032 114.451,130.6 114.281,130.219 C114.375,130.059 114.534,129.947 114.562,129.75 C114.68,128.93 114.133,128.149 113.312,128.031 C113.267,128.025 110.409,127.589 109.375,127.406 C106.422,126.885 103.467,126.262 100.719,125.594 C95.287,124.273 91.344,122.863 89.719,121.5 C88.352,120.353 85.943,117.599 82.875,113.75 C82.536,113.325 82.195,112.885 81.844,112.438 C80.139,110.268 78.361,107.952 76.625,105.625 C76.582,105.568 76.52,105.475 76.469,105.406 C77.21,105.227 77.8,104.862 77.625,104.094 C77.589,103.937 77.361,102.447 77.188,101.406 Z" id="Path" fill-opacity="0.952381" fill="#262626"></path>
                    <path d="M128.75,111.094 C128.997,111.107 129.225,111.087 129.469,111.094 C129.469,112.94 129.469,113.337 129.469,115.562 C129.469,115.78 129.604,115.938 129.688,116.125 C129.269,116.121 129.027,116.047 128.719,116 C128.721,115.965 128.75,115.942 128.75,115.906 C128.75,114.703 128.75,112.513 128.75,111.094 Z" id="Path" fill="#FFFFFF"></path>
                    <path d="M113.312,163.312 C118.354,164.211 123.608,164.793 128.5,164.844 C133.027,164.891 137.054,164.411 140.469,163.562 C140.612,169.879 140.584,177.52 140.25,184.938 C140.077,188.778 139.856,192.165 139.625,194.562 C139.518,195.681 139.416,196.511 139.312,197.125 C137.605,197.126 130.574,197.13 128.719,197.125 C128.698,196.918 128.672,196.804 128.656,196.531 C128.586,195.332 128.58,193.583 128.625,191.562 C128.718,187.385 129.06,182.551 129.531,178.531 C129.584,178.499 129.619,178.493 129.656,178.469 C129.941,178.284 130.194,178.072 130.438,177.812 C130.988,177.226 131.41,176.439 131.688,175.406 C131.902,174.606 131.425,173.777 130.625,173.562 C129.825,173.348 128.996,173.825 128.781,174.625 C128.626,175.202 128.444,175.543 128.25,175.75 C128.184,175.82 128.125,175.877 128.031,175.938 C127.974,175.974 127.669,176.139 127.594,176.188 C127.043,176.537 126.681,177.006 126.594,177.719 C126.082,181.92 125.723,187.077 125.625,191.5 C125.578,193.594 125.612,195.395 125.688,196.688 C125.692,196.766 125.714,196.8 125.719,196.875 C124.793,196.928 123.728,196.996 123.062,197.031 C121.801,197.099 120.592,197.178 119.438,197.219 C117.357,197.292 115.631,197.295 114.375,197.25 C113.934,197.234 113.671,197.187 113.375,197.156 C113.208,194.781 113.094,189.507 113.094,184.625 C113.094,183.363 113.078,183.06 112.969,178.625 C112.895,175.645 112.881,173.675 112.875,171.625 C112.865,168.027 113.081,165.67 113.312,163.312 Z" id="Path" fill="#AAAAAA"></path>
                    <path d="M143.375,171.656 C143.703,171.75 144.019,171.835 144.312,171.906 C144.352,173.387 144.341,174.551 144.125,175.469 C144.038,175.84 143.615,177.368 143.531,177.688 C143.488,177.854 143.422,177.966 143.375,178.125 C143.354,178.12 143.334,178.129 143.312,178.125 C143.371,175.834 143.359,173.862 143.375,171.656 Z" id="Path" fill="#FFFFFF"></path>
                    <path d="M123.594,200 C123.609,200.02 123.609,200.043 123.625,200.062 C123.953,200.453 124.096,200.929 124.125,201.469 C123.965,201.592 123.72,201.718 123.344,201.844 C122.424,202.15 121.108,202.313 119.719,202.312005 C118.33,202.312005 117.013,202.15 116.094,201.844 C115.716,201.718 115.441,201.592 115.281,201.469 C115.304,201.012 115.391,200.595 115.625,200.25 C116.787,200.265 117.944,200.275 119.531,200.219 C120.705,200.177 121.94,200.1 123.219,200.031 C123.312,200.026 123.469,200.007 123.594,200 Z" id="Path" fill-opacity="0.945578" fill="#262626"></path>
                    <path d="M129.688,200.125 L138.156,200.125 C138.171,200.167 138.138,200.209 138.156,200.25 C138.269,200.505 138.298,200.814 138.312,201.125 C138.153,201.248 137.877,201.374 137.5,201.5 C136.581,201.806 135.264,201.969 133.875,201.969 C132.486,201.969 131.169,201.806 130.25,201.5 C129.861,201.37 129.594,201.251 129.438,201.125 C129.455,200.761 129.539,200.42 129.688,200.125 Z" id="Path" fill-opacity="0.945578" fill="#262626"></path>
                </g>
                <g id="workshop_outline" stroke-linecap="round" stroke-linejoin="round">
                    <path d="M34.505,176.464 C34.505,176.464 16.654,177.278 13.825,176.452 C12.081,175.943 12.909,173.1 10.796,171.973 C8.682,170.846 2.809,172.706 1.006,171.955 C-1.323,170.985 18.88,11.085 18.88,11.085" id="Path" stroke="#000000" stroke-width="3"></path>
                    <g id="Group" transform="translate(52.000000, 55.000000)" stroke="#FCFBB8" stroke-width="1.5">
                        <path d="M13.969,9.481 C17.693,8.704 21.342,11.092 22.12,14.816 C22.488,16.58 22.146,18.327 21.289,19.76" id="Path"></path>
                        <path d="M3.487,18.638 L0.521,19.258" id="Path"></path>
                        <path d="M32.157,12.653 L29.191,13.272" id="Path"></path>
                        <path d="M13.037,0.137 L13.656,3.103" id="Path"></path>
                        <path d="M5.129,9.121 L2.542,7.544" id="Path"></path>
                        <path d="M23.603,5.018 L25.279,2.494" id="Path"></path>
                        <path d="M27.315,8.751 L29.848,7.088" id="Path"></path>
                        <path d="M18.592,3.024 L19.114,0.039" id="Path"></path>
                        <path d="M8.712,5.268 L6.952,2.802" id="Path"></path>
                        <path d="M3.394,13.761 L0.407,13.255" id="Path"></path>
                        <path d="M5.373,23.176 L2.843,24.842" id="Path"></path>
                        <path d="M29.271,18.222 L32.256,18.745" id="Path"></path>
                    </g>
                    <path d="M249.049,37.853 C227.706,40.006 212.362,37.984 208.453,37.663 C207.093,37.551 207.049,44.345 206.046,46.466" id="Path" stroke="#527A98" stroke-width="8"></path>
                    <path d="M271.722,15.496 C271.722,15.496 273.393,19.207 273.559,20.626 C274.694,30.356 269.245,34.697 259.086,36.995 C257.874,37.269 256.332,41.645 255.129,44.819" id="Path" stroke="#527A98" stroke-width="8"></path>
                    <path d="M117.018,57.398 C114.273,31.359 111.82,11.615 110.757,11.085 C106.213,8.819 22.756,9.158 18.88,11.085 C15.467,12.782 35.252,180.958 36.437,185.695 C37.024,188.039 45.867,185.298 50.62,187.27 C55.373,189.243 53.457,194.463 55.478,194.839 C57.195,195.16 107.856,194.705 111.158,194.839" id="Path" stroke="#000000" stroke-width="3"></path>
                    <path d="M41.186,193.239 C41.186,190.635 43.297,188.523 45.902,188.523 C48.506,188.523 50.617,190.635 50.617,193.239 C50.617,195.843 48.506,197.954 45.902,197.954 C43.297,197.954 41.186,195.843 41.186,193.239 Z" id="Path" stroke="#262626" stroke-width="3" fill="#262626" fill-rule="nonzero"></path>
                    <path d="M2.85,177.324 C2.85,175.39 4.418,173.822 6.352,173.822 C8.287,173.822 9.855,175.39 9.855,177.324 C9.855,179.259 8.287,180.827 6.352,180.827 C4.418,180.827 2.85,179.259 2.85,177.324 Z" id="Path" stroke="#262626" stroke-width="3" fill="#262626" fill-rule="nonzero"></path>
                    <path d="M39.617,31.529 C39.617,31.529 33.825,30.936 29.776,32.878 C22.041,36.589 32.096,36.234 30.763,39.165 C30.205,40.393 25.168,45.682 27.966,45.649 C31.886,45.603 36.063,42.423 42.812,44.758 C44.432,45.318 40.44,40.383 36.688,37.815" id="Path" stroke="#262626" stroke-width="1.5"></path>
                    <path d="M42.481,36.367 L43.37,44.497" id="Path" stroke="#262626" stroke-width="1.5"></path>
                    <path d="M92.228,31.309 C92.228,31.309 98.021,30.717 102.069,32.659 C109.805,36.369 99.75,36.015 101.082,38.945 C101.64,40.174 106.677,45.462 103.88,45.43 C99.96,45.383 95.783,42.204 89.033,44.538 C87.414,45.098 91.405,40.163 95.157,37.596" id="Path" stroke="#262626" stroke-width="1.5"></path>
                    <path d="M89.365,36.148 L88.476,44.278" id="Path" stroke="#262626" stroke-width="1.5"></path>
                    <path d="M61.594,71.246 C60.816,67.522 63.205,63.872 66.929,63.095 C70.653,62.317 74.302,64.706 75.08,68.43 C75.857,72.154 73.468,75.803 69.744,76.581 C66.02,77.358 62.371,74.97 61.594,71.246 Z" id="Path" stroke="#262626" stroke-width="1.5"></path>
                    <path d="M72.975,75.203 C73.327,76.888 73.961,79.923 73.961,79.923 C74.458,82.307 67.715,83.714 67.218,81.33 C67.218,81.33 66.584,78.296 66.232,76.61" id="Path" stroke="#262626" stroke-width="1.5"></path>
                    <path d="M68.396,76.862 C68.396,76.862 66.59,69.499 65.682,69.688 C65.008,69.829 67.061,72.919 67.735,72.778 C68.409,72.637 69.054,68.984 68.38,69.125 C67.705,69.266 69.758,72.356 70.432,72.215 C71.106,72.074 71.985,68.372 71.077,68.562 C70.403,68.703 71.093,76.299 71.093,76.299" id="Path" stroke="#262626" stroke-width="1.5"></path>
                    <path d="M65.918,78.474 C65.918,78.474 73.868,76.111 74.009,76.785 C74.15,77.459 66.34,80.497 66.481,81.172 C66.621,81.846 74.572,79.482 74.572,79.482" id="Path" stroke="#262626" stroke-width="1.5"></path>
                    <path d="M55.487,73.638 L52.521,74.258" id="Path" stroke="#262626" stroke-width="1.5"></path>
                    <path d="M84.157,67.653 L81.191,68.272" id="Path" stroke="#262626" stroke-width="1.5"></path>
                    <path d="M65.037,55.137 L65.656,58.103" id="Path" stroke="#262626" stroke-width="1.5"></path>
                    <path d="M57.129,64.121 L54.542,62.544" id="Path" stroke="#262626" stroke-width="1.5"></path>
                    <path d="M75.603,60.018 L77.279,57.494" id="Path" stroke="#262626" stroke-width="1.5"></path>
                    <path d="M79.315,63.751 L81.848,62.088" id="Path" stroke="#262626" stroke-width="1.5"></path>
                    <path d="M70.592,58.024 L71.114,55.039" id="Path" stroke="#262626" stroke-width="1.5"></path>
                    <path d="M60.712,60.268 L58.952,57.802" id="Path" stroke="#262626" stroke-width="1.5"></path>
                    <path d="M55.394,68.761 L52.407,68.255" id="Path" stroke="#262626" stroke-width="1.5"></path>
                    <path d="M57.373,78.176 L54.843,79.842" id="Path" stroke="#262626" stroke-width="1.5"></path>
                    <path d="M81.271,73.222 L84.256,73.745" id="Path" stroke="#262626" stroke-width="1.5"></path>
                    <path d="M69.251,131.017 C69.109,132.18 77.213,151.87 67.493,176.17 C67.096,177.163 76.35,175.662 76.35,175.662" id="Path" stroke="#262626" stroke-width="1.5"></path>
                    <path d="M89.674,130.938 C89.959,112.109 82.608,85.696 82.608,85.696 C76.65,94.435 63.017,90.962 63.144,91.257 C65.848,97.568 71.532,112.349 69.251,131.017" id="Path" stroke="#262626" stroke-width="1.5"></path>
                    <path d="M62.755,91.727 C62.755,91.727 56.056,107.636 53.056,108.892 C51.132,109.697 47.467,100.986 40.569,91.208 C40.19,90.671 31.126,93.807 30.908,90.716 C30.615,86.561 40.487,90.971 40.487,90.971 C40.487,90.971 39.428,89.638 40.471,86.857" id="Path" stroke="#262626" stroke-width="1.5"></path>
                    <path d="M82.578,85.824 C82.578,85.824 94.442,95.791 96.776,97.1 C103.771,101.024 99.679,86.207 103.573,77.594 C103.729,77.249 109.96,79.069 109.96,77.08 C109.96,73.603 103.617,77.417 103.617,77.417 C103.617,77.417 104.452,75.962 103.297,74.217" id="Path" stroke="#262626" stroke-width="1.5"></path>
                    <path d="M248.098,99.074 C252.484,100.011 249.645,102.069 246.306,102.058 C242.789,102.045 240.547,100.536 244.322,99.16" id="Path" stroke="#262626" stroke-width="1.5"></path>
                    <path d="M237.23,135.398 C236.56,143.969 237.047,155.26 237.576,155.62 C238.321,156.126 245.702,155.719 246.487,155.433 C247.272,155.146 247.039,143.549 247.035,143.899 C247.015,146.073 248.555,155.69 249.038,155.698 C252.676,155.755 258.962,155.429 259.477,155.086 C260.231,154.583 257.581,143.899 256.7,135.469" id="Path" stroke="#262626" stroke-width="1.5"></path>
                    <path d="M263.319,178.463 C263.319,174.289 254.971,174.289 254.971,178.463 C254.971,180.55 263.319,180.55 263.319,178.463 Z" id="Path" stroke="#262626" stroke-width="1.5"></path>
                    <path d="M254.851,177.956 C256.657,178.944 259.647,179.578 263.27,177.927" id="Path" stroke="#262626"></path>
                    <path d="M258.787,177.78 C259.255,177.209 260.342,177.292 260.945,177.757" id="Path" stroke="#262626"></path>
                    <path d="M253.878,114.482 C253.836,115.277 253.589,118.189 253.729,121.188" id="Path" stroke="#262626" stroke-width="1.5"></path>
                    <path d="M249.933,99.758 C249.933,99.758 255.892,100.333 257.465,102.413 C259.027,104.48 260.823,112.373 259.758,113.59 C259.261,114.158 254.952,114.996 253.241,114.311 C252.48,114.007 253.154,112.1 253.154,112.1" id="Path" stroke="#262626" stroke-width="1.5"></path>
                    <path d="M256.983,124.65 C256.983,124.65 258.314,134.752 258.088,135.05 C257.461,135.871 237.309,135.574 236.548,135.203 C235.785,134.832 236.878,125.774 236.843,124.145" id="Path" stroke="#262626" stroke-width="1.5"></path>
                    <path d="M235.175,114.37 C234.2,117.494 235.017,123.053 235.911,123.748 C236.999,124.595 242.898,125.245 247.178,122.73" id="Path" stroke="#262626" stroke-width="1.5"></path>
                    <path d="M242.577,100.153 C242.577,100.153 238.494,100.846 236.907,102.465 C234.937,104.473 233.405,109.553 234.517,113.808 C234.858,115.113 239.837,114.524 240.345,114.137 C240.716,113.854 240.333,113.762 240.237,112.142" id="Path" stroke="#262626" stroke-width="1.5"></path>
                    <path d="M254.971,178.463 C254.971,178.463 254.223,175.4 254.196,174.871 C254.175,174.467 254.53,173.327 254.53,173.327" id="Path" stroke="#262626" stroke-width="1.5"></path>
                    <path d="M255.649,176.244 C255.649,176.244 255.124,175.706 255.101,173.898" id="Path" stroke="#262626"></path>
                    <path d="M251.435981,155.823 C251.426,162.142 255.328,164.324 255.414,173.956" id="Path" stroke="#262626" stroke-width="1.5"></path>
                    <path d="M258.451,155.454 C258.926,157.755 258.056,167.13 258.234,173.029" id="Path" stroke="#262626" stroke-width="1.5"></path>
                    <path d="M245.262,155.7 C246.182,160.494 244.363,165.303 246.105,172.101" id="Path" stroke="#262626" stroke-width="1.5"></path>
                    <path d="M238.788,156.005 C239.817,160.936 243.012,166.938 242.793,172.027" id="Path" stroke="#262626" stroke-width="1.5"></path>
                    <path d="M255.374,172.57 C251.626,174.678 261.557,174.036 258.224,172.611" id="Path" stroke="#262626" stroke-width="1.5"></path>
                    <path d="M261.728,175.942 C261.728,175.942 258.997,175.078 258.88,173.053" id="Path" stroke="#262626" stroke-width="1.5"></path>
                    <path d="M237.389,177.394 C237.389,173.111 245.957,173.111 245.957,177.394 C245.957,179.536 237.389,179.536 237.389,177.394 Z" id="Path" stroke="#262626" stroke-width="1.5"></path>
                    <path d="M245.944,177.109 C244.09,178.122 239.197,178.057 237.395,177.195" id="Path" stroke="#262626" stroke-width="1.5"></path>
                    <path d="M241.253,176.303 C240.773,175.718 239.658,175.802 239.039,176.28" id="Path" stroke="#262626"></path>
                    <path d="M245.861,177.771 C245.861,177.771 246.863,176.074 247.013,173.798 C247.063,173.034 246.72,172.129 246.72,172.129" id="Path" stroke="#262626" stroke-width="1.5"></path>
                    <path d="M245.547,175.923 C245.547,175.923 246.702,174.85 246.308,172.486" id="Path" stroke="#262626"></path>
                    <path d="M246.012,171.62 C249.343,172.934 239.684,173.322 242.737,171.694" id="Path" stroke="#262626" stroke-width="1.5"></path>
                    <path d="M240.58,174.276 C240.58,174.276 241.449,174.026 242.132,172.266" id="Path" stroke="#262626" stroke-width="1.5"></path>
                    <path d="M248.922,120.003 C248.304,119.676 244.588,119.022 243.2,118.715 C242.579,118.578 242.103,117.461 240.23,119.672" id="Path" stroke="#262626" stroke-width="1.5"></path>
                    <path d="M243.421,120.185 C242.696,120.115 240.781,120.809 239.442,120.497" id="Path" stroke="#262626" stroke-width="1.5"></path>
                    <path d="M259.016,113.961 C259.495,122.026 256.786,125.93 255.204,125.955 C251.945,126.007 243.499,119.86 242.693,119.782" id="Path" stroke="#262626" stroke-width="1.5"></path>
                    <path d="M239.712,114.348 C239.712,114.348 239.953,117.26 240.227,120.578" id="Path" stroke="#262626" stroke-width="1.5"></path>
                    <path d="M253.384,121.314 C252.988,121.795 251.407,120.142 251.868,119.677 C252.326,119.214 254.009,120.555 253.384,121.314 Z" id="Path" stroke="#262626" stroke-width="1.5"></path>
                    <path d="M252.847,121.291 C252.654,123.504 249.302,119.616 251.815,120.09" id="Path" stroke="#262626" stroke-width="1.5"></path>
                    <path d="M251.85,121.918 C251.874,123.381 249.048,120.071 250.648,120.379" id="Path" stroke="#262626" stroke-width="1.5"></path>
                    <path d="M251.236,122.131 C250.482,122.918 248.932,119.775 250.159,120.656" id="Path" stroke="#262626" stroke-width="1.5"></path>
                    <path d="M191.321,21.661 C191.482,2.894 203.895,0.777 223.022,0.603 C252.565,0.334 273.614,5.195 275.474,21.134 C276.609,30.865 270.476,35.594 260.317,37.892 C258.555,38.291 255.71,50.992 254.958,49.133 C252.229,42.378 250.971,39.317 248.996,39.47 C247.429,39.592 237.951,40.818 228.276,40.829 C219.68,40.839 210.746,39.647 209.815,39.571 C208.239,39.441 208.232,50.391 206.713,50.213 C204.876,49.999 201.556,38.542 199.799,38.366 C193.508,37.733 191.256,29.316 191.321,21.661 Z" id="Path" stroke="#262626" stroke-width="3"></path>
                    <path d="M202.277,15.236 C207.984,21.571 212.094,12.293 213.782,15.291 C218.166,23.079 223.371,14.076 225.23,15.717 C231.018,20.824 237.556,13.672 239.402,16.866 C241.703,20.847 258.418,16.679 258.418,16.679" id="Path" stroke="#262626" stroke-width="3"></path>
                    <path d="M112.227,97.988 C113.478,115.469 116.657,119.678 130.581,120.587 C154.93,122.176 156.934,89.106 156.934,89.106" id="Path" stroke="#262626" stroke-width="3"></path>
                    <path d="M111.917,88.615 C112.531,91.747 112.117,93.072 111.491,94.879" id="Path" stroke="#262626" stroke-width="3"></path>
                    <path d="M111.336,76.982 C111.425,79.602 111.506,82.066 111.587,84.384" id="Path" stroke="#262626" stroke-width="3"></path>
                    <path d="M129.251,121.564 C129.251,123.346 129.251,125.128 129.251,126.909" id="Path" stroke="#262626" stroke-width="3"></path>
                    <path d="M132.957,121.635 C132.957,123.274 132.957,124.914 132.957,126.553" id="Path" stroke="#262626" stroke-width="3"></path>
                    <path d="M132.957,125.472 C146.3,129.727 117.922,129.534 128.45,125.636" id="Path" stroke="#262626" stroke-width="3"></path>
                    <path d="M114.418,170.664 C122.608,172.258 136.113,173.511 144.317,170.776" id="Path" stroke="#262626" stroke-width="3"></path>
                    <path d="M132.227,186.024 C131.542,188.575 130.17,188.168 130.082,188.892 C129.011,197.686 128.791,209.594 129.577,209.613 C130.53,209.635 142.413,209.613 142.413,209.613 C143.353,209.613 144.53,185.977 144.003,171.736" id="Path" stroke="#262626" stroke-width="3"></path>
                    <path d="M113.987,171.294 C112.867,177.913 113.593,190.159 113.593,195.628 C113.593,199.496 113.679,206.929 113.912,209.305 C114.018,210.382 129.054,209.305 129.054,209.305" id="Path" stroke="#262626" stroke-width="3"></path>
                    <path d="M141.528,210.651 C141.737,211.123 141.853,211.653 141.853,212.241 C141.853,215.226 129.916,215.226 129.916,212.241 C129.916,211.5 130.1,210.851 130.422,210.294" id="Path" stroke="#262626" stroke-width="3"></path>
                    <path d="M141.835,211.843 C139.252,213.256 132.436,213.164 129.924,211.964" id="Path" stroke="#262626" stroke-width="1.5"></path>
                    <path d="M122.509,56.522 C115.604,59.723 111.33,66.372 111.319,76.982" id="Path" stroke="#262626" stroke-width="3"></path>
                    <path d="M156.934,87.827 C156.934,76.05 158.155,63.603 148.967,57.713" id="Path" stroke="#262626" stroke-width="3"></path>
                    <path d="M143.549,62.418 C154.106,53.176 146.557,45.401 137.42,44.089 C128.389,42.792 118.503,49.665 126.418,60.759" id="Path" stroke="#262626" stroke-width="3"></path>
                    <path d="M140.583,61.79 C143.202,59.419 145.564,52.593 144.061,46.719" id="Path" stroke="#262626" stroke-width="1.5"></path>
                    <path d="M129.775,60.651 C127.596,56.346 127.332,46.884 130.976,44.412" id="Path" stroke="#262626" stroke-width="1.5"></path>
                    <path d="M134.572,60.651 C134.572,60.651 131.576,49.457 135.884,44.535" id="Path" stroke="#262626" stroke-width="1.5"></path>
                    <path d="M137.539,61.208 C138.79,57.571 141.834,50.86 139.616,45.143" id="Path" stroke="#262626" stroke-width="1.5"></path>
                    <path d="M137.273,126.944 C139.136,127.452 142.928,128.48 145.062,129.904 C147.981,131.849 150.511,153.057 151.312,160.306 C151.865,165.309 149.663,175.925 148.689,181.516 C148.599,182.032 146.448,181.441 144.946,180.962" id="Path" stroke="#262626" stroke-width="3"></path>
                    <path d="M144.53,145.218 C145.637,154.592 144.933,163.986 144.317,170.664" id="Path" stroke="#262626" stroke-width="3"></path>
                    <path d="M115.086,140.522 C115.086,140.522 95.618,137.729 90.741,133.636 C86.53,130.103 75.121,114.402 75.121,114.402" id="Path" stroke="#262626" stroke-width="3"></path>
                    <path d="M126.106,126.065 C124.243,126.573 120.762,126.89 118.627,128.313 C115.709,130.259 103.382,124.428 96.54,126.424 L97.689,128.645 C93.269,120.32 79.284,110.649 79.284,110.649" id="Path" stroke="#262626" stroke-width="3"></path>
                    <path d="M114.938,141.8 C114.938,141.8 113.429,145.08 113.323,147.436 C113.007,154.381 113.822,166.78 113.822,170.256" id="Path" stroke="#262626" stroke-width="3"></path>
                    <path d="M126.782,210.089 C127.342,210.754 127.678,211.587 127.678,212.589 C127.678,215.573 115.741,215.573 115.741,212.589 C115.741,211.743 115.981,211.017 116.393,210.41" id="Path" stroke="#262626" stroke-width="3"></path>
                    <path d="M127.651,211.843 C125.069,213.256 118.252,213.164 115.741,211.964" id="Path" stroke="#262626" stroke-width="1.5"></path>
                    <path d="M144.44,191.902 C144.645,191.507 144.839,191.061 145.017,190.555" id="Path" stroke="#262626" stroke-width="3"></path>
                    <path d="M147.848,182.083 C148.051,185.965 147.64,186.551 146.978,189.081 C146.345,191.501 145.412,193.079 144.47,194.08" id="Path" stroke="#262626" stroke-width="3"></path>
                    <path d="M114.104,172.623 C122.295,174.217 135.799,175.469 144.003,172.734" id="Path" stroke="#262626" stroke-width="3"></path>
                    <path d="M116.468,171.812 C116.451,171.988 116.434,172.163 116.418,172.339" id="Path" stroke="#262626" stroke-width="3"></path>
                    <path d="M117.231,171.736 C117.166,172.025 117.083,172.307 117.083,172.603" id="Path" stroke="#262626" stroke-width="3"></path>
                    <path d="M122.39,172.392 C122.38,172.703 122.306,173.013 122.306,173.322" id="Path" stroke="#262626" stroke-width="3"></path>
                    <path d="M122.993,172.508 C122.993,172.811 122.903,173.09 122.866,173.386" id="Path" stroke="#262626" stroke-width="3"></path>
                    <path d="M140.748,171.915 C140.748,172.252 140.801,172.963 140.514,173.249" id="Path" stroke="#262626" stroke-width="3"></path>
                    <path d="M140.114,172.048 C140.114,172.41 140.114,172.771 140.114,173.133" id="Path" stroke="#262626" stroke-width="3"></path>
                    <path d="M135.795,172.799 C135.781,173.208 135.754,173.543 135.594,173.916" id="Path" stroke="#262626" stroke-width="3"></path>
                    <path d="M135.278,172.799 C135.258,173.199 135.14,173.5 135.044,173.883" id="Path" stroke="#262626" stroke-width="3"></path>
                    <path d="M134.938,64.881 C139.835,65.353 145.012,64.807 145.236,63.675 C145.475,62.468 139.835,63.075 134.938,62.604 C130.041,62.132 125.642,60.28 125.647994,61.79 C125.656,63.657 130.041,64.41 134.938,64.881 Z" id="Path" stroke="#262626" stroke-width="3"></path>
                    <path d="M118.007,84.334 C121.106,72.916 126.293,65.664 127.978,63.978" id="Path" stroke="#262626" stroke-width="1.5"></path>
                    <path d="M116.153,111.58 C115.563,106.776 115.474,102.256 115.742,98.057" id="Path" stroke="#262626" stroke-width="1.5"></path>
                    <path d="M122.306,117.925 C120.359,89.78 132.227,67.508 132.227,66.279" id="Path" stroke="#262626" stroke-width="1.5"></path>
                    <path d="M130.976,119.389 C128.995,99.463 134.153,71.884 135.884,65.306" id="Path" stroke="#262626" stroke-width="1.5"></path>
                    <path d="M138.643,117.925 C142.621,100.192 140.104,67.569 140.104,65.129" id="Path" stroke="#262626" stroke-width="1.5"></path>
                    <path d="M145.788,115.488 C151.722,96.178 144.934,67.138 143.102,65.306" id="Path" stroke="#262626" stroke-width="1.5"></path>
                    <path d="M156.987,86.056 C156.81,81.628 150.26,67.491 145.637,64.509" id="Path" stroke="#262626" stroke-width="1.5"></path>
                    <path d="M154.928,67.204 C152.213,63.812 146.274,61.625 145.146,62.47" id="Path" stroke="#262626" stroke-width="1.5"></path>
                    <path d="M112.223,72.519 C114.582,69.375 124.065,64.263 126.106,63.447" id="Path" stroke="#262626" stroke-width="1.5"></path>
                    <path d="M114.6,64.633 C118.405,62.711 122.778,61.503 125.589,61.854" id="Path" stroke="#262626" stroke-width="1.5"></path>
                    <path d="M111.491,88.222 C106.787,84.724 118.113,81.325 117.857,87.734 C117.757,90.24 115.72,102.376 111.491,95.312" id="Path" stroke="#262626" stroke-width="3"></path>
                    <path d="M114.266,95.186 C115.192,96.612 115.338,97.996 114.614,99.444" id="Path" stroke="#262626" stroke-width="1.5"></path>
                    <path d="M112.766,95.802 C113.2,97.177 113.438,98.395 112.766,99.738" id="Path" stroke="#262626" stroke-width="3"></path>
                    <path d="M120.725,194.834 C121.747,194.834 122.76,194.985 123.781,194.985" id="Path" stroke="#262626" stroke-width="1.5"></path>
                    <path d="M135.328,194.947 C136.57,194.947 137.822,194.908 139.063,194.985" id="Path" stroke="#262626" stroke-width="1.5"></path>
                    <path d="M125.873,179.706 C125.533,182.083 125.141,184.906 122.328,184.955 C119.317,185.008 119.42,179.7 119.42,179.7 C120.952,180.361 125.873,179.706 125.873,179.706 Z" id="Path" stroke="#262626" stroke-width="1.5"></path>
                    <path d="M77.866,109.364 C77.206,106.226 77.481,104.189 78.087,105.565 C78.734,107.038 79.358,110.772 79.358,110.772" id="Path" stroke="#262626" stroke-width="1.5"></path>
                    <path d="M74.778,114.135 C72.49,112.001 71.809,111.141 71.866,110.094 C71.878,109.883 72.477,109.127 73.131,108.896 C74.281,108.491 74.532,108.087 74.544,107.596 C74.586,105.903 74.276,101.714 74.645,101.959 C75.425,102.476 75.891,106.531 75.827,108.088" id="Path" stroke="#262626" stroke-width="1.5"></path>
                    <path d="M75.1,102.964 C75.076,102.807 74.856,101.012 74.856,101.012 L75.36,100.108 C75.36,100.108 75.049,98.722 75.374,98.701 C75.712,98.679 75.793,100.117 75.793,100.117 L76.542,100.935 C76.542,100.935 77.082,104.304 77.316,105.813" id="Path" stroke="#262626" stroke-width="1.5"></path>
                    <path d="M77.787,108.571 C78.061,110.35 78.81,114.841 78.907,115.265 C79.031,115.806 77.223,116.055 77.106,115.517 C76.984,114.949 76.28,110.441 75.947,108.349" id="Path" stroke="#262626" stroke-width="1.5"></path>
                    <path d="M76.524,101.081 C76.069,101.455 75.489,101.347 75.002,101.12" id="Path" stroke="#262626" stroke-width="1.5"></path>
                    <path d="M202.647,77.373 C199.757,77.313 194.053,77.193 192.713,78.236 L192.713,79.278 C192.469,84.508 194.312,87.866 198.368,87.437 C200.8,87.179 202.375,84.22 202.652,84.22 C202.967,84.22 204.376,87.437 206.454,87.641 C209.772,87.968 212.777,84.123 212.629,78.892 L216.23,82.035 L212.629,78.045 C212.074,77.867 205.537,77.434 202.647,77.373 Z M206.454,77.714 C212.213,78.278 212.24,77.656 212.24,80.901 C212.24,83.398 210.586,87.633 206.454,87.6410049 C204.376,87.646 202.818,83.846 202.818,81.349 C202.818,78.852 202.586,77.335 206.454,77.714 Z M199.029,77.335 C203.185,77.335 202.502,78.852 202.502,81.349 C202.502,83.846 201.08,87.317 197.787,87.3160002 C194.051,87.315 192.713,83.003 192.713,79.844 C192.713,77.335 197.079,77.336 199.029,77.335 Z" id="Shape" stroke="#262626" stroke-width="1.5" fill="#262626" fill-rule="nonzero"></path>
                    <path d="M193.937,72.45 C193.937,72.45 192.955,76.555 194.153,76.251 C198.561,75.131 211.92,75.538 213.969,76.665 C214.892,77.172 214.703,73.391 214.879,73.761 C215.597,75.273 216.415,77.848 215.929,82.577 C215.929,82.577 217.328,81.282 217.957,82.647 C218.256,83.293 220.761,71.701 214.58,67.233 C210.354,64.179 205.63,64.818 205.63,64.818 C205.63,64.818 201.959,64.749 198.765,66.29 C191.787,69.658 193.505,77.784 193.505,77.784" id="Path" stroke="#262626" stroke-width="1.5"></path>
                    <path d="M195.151,125.111 C195.151,125.111 193.25,124.974 193.081,120.771 C192.733,112.09 194.475,100.337 197.87,99.938" id="Path" stroke="#262626" stroke-width="1.5"></path>
                    <path d="M208.983,99.45 C210.918,99.544 214.221,101.097 214.872,102.907 C216.367,107.064 216.937,119.389 215.947,123.29 C215.592,124.69 211.532,126.297 211.532,126.297" id="Path" stroke="#262626" stroke-width="1.5"></path>
                    <path d="M202.04,98.389 C202.18,91.847 195.079,92.512 194.869,87.264" id="Path" stroke="#262626" stroke-width="1.5"></path>
                    <path d="M214.109,88.839 C217.678,89.468 219.487,83.926 217.258,82.612 C215.893,81.807 215.194,84.466 215.194,84.466" id="Path" stroke="#262626" stroke-width="1.5"></path>
                    <path d="M206.063,98.774 C206.028,93.421 214.669,92.232 215.893,88.874" id="Path" stroke="#262626" stroke-width="1.5"></path>
                    <path d="M216.132,87.321 C217.258,86.215 217.643,83.626 216.908,83.696 C216.176,83.766 216.173,84.816 216.173,84.816" id="Path" stroke="#262626"></path>
                    <path d="M199.026,90.24 C200.851,91.72 205.254,91.154 207.455,90.24 C207.99,90.018 205.716,92.12 202.644,92.524" id="Path" stroke="#262626" stroke-width="1.5"></path>
                    <path d="M202.378,84.214 C202.534,86.218 200.086,86.686 200.588,87.808 C200.95,88.619 203.413,88.946 203.937,87.882" id="Path" stroke="#262626" stroke-width="1.5"></path>
                    <path d="M195.006,83.059 C195.006,82.488 195.258,82.026 195.569,82.026 C195.88,82.026 196.131,82.488 196.131,83.059 C196.131,83.63 195.88,84.092 195.569,84.092 C195.258,84.092 195.006,83.63 195.006,83.059 Z" id="Path" stroke="#262626" stroke-width="2" fill="#262626" fill-rule="nonzero"></path>
                    <path d="M204.901,82.911 C204.901,82.34 205.152,81.877 205.463,81.877 C205.774,81.877 206.026,82.34 206.026,82.911 C206.026,83.481 205.774,83.944 205.463,83.944 C205.152,83.944 204.901,83.481 204.901,82.911 Z" id="Path" stroke="#262626" stroke-width="2" fill="#262626" fill-rule="nonzero"></path>
                    <path d="M214.494,87.908 C213.552,87.563 213.958,91.823 214.73,89.216" id="Path" stroke="#262626"></path>
                    <path d="M215.297,85.757 C214.722,85.757 214.638,86.169 214.965,86.569" id="Path" stroke="#262626"></path>
                    <path d="M202.519,87.8 C202.694,87.286 203.52,87.42 203.722,88.349 C203.873,89.049 203.021,89.621 202.577,88.734" id="Path" stroke="#262626"></path>
                    <path d="M207.49,88.942 C208.586,88.843 208.963,89.876 208.963,90.538" id="Path" stroke="#262626"></path>
                    <path d="M210.022,66.643 C211.49,67.482 217.013,69.668 217.293,77.539" id="Path" stroke="#262626"></path>
                    <path d="M209.037,67.639 C209.807,68.059 212.36,70.753 212.15,74.146" id="Path" stroke="#262626"></path>
                    <path d="M206.805,66.713 C206.805,66.713 204.804,69.283 204.664,73.761" id="Path" stroke="#262626"></path>
                    <path d="M205.161,66.538 C205.161,66.538 202.18,70.123 202.005,73.551" id="Path" stroke="#262626"></path>
                    <path d="M203.343,66.538 C199.697,69.703 198.262,74.321 198.262,74.321" id="Path" stroke="#262626"></path>
                    <path d="M201.001,66.783 C201.001,66.783 196.023,68.898 195.149,74.951" id="Path" stroke="#262626"></path>
                    <path d="M196.443,90.938 C196.443,90.938 197.115,94.001 197.103,94.236 C197.09,94.502 196.479,95.231 196.479,95.231 C196.479,95.231 195.809,94.518 195.829,94.236 C195.845,94.017 196.443,90.938 196.443,90.938 Z" id="Path" stroke="#262626"></path>
                    <path d="M214.287,89.866 C214.287,89.866 215.08,94.802 215.068,95.037 C215.055,95.303 214.443,96.032 214.443,96.032 C214.443,96.032 213.774,95.319 213.794,95.037 C213.81,94.818 214.287,89.866 214.287,89.866 Z" id="Path" stroke="#262626"></path>
                    <path d="M203.888,64.657 C203.618,64.161 203.374,63.486 203.134,62.562 C202.468,59.997 206.402,59.463 209.682,59.885 C212.962,60.306 216.088,61.873 215.012,64.09 C214.62,64.894 214.245,65.462 213.857,65.855" id="Path" stroke="#262626" stroke-width="1.5"></path>
                    <path d="M213.353,62.267 C213.641,62.64 213.233,64.485 212.91,64.856" id="Path" stroke="#262626"></path>
                    <path d="M211.585,61.523 C212.075,62.338 211.515,64.379 211.515,64.379" id="Path" stroke="#262626"></path>
                    <path d="M209.843,61.189 C210.215,62.067 210.042,63.172 209.652,64.015" id="Path" stroke="#262626"></path>
                    <path d="M206.341,61.021 C205.91,62.061 206.399,63.737 206.399,63.737" id="Path" stroke="#262626"></path>
                    <path d="M204.658,61.572 C204.343,62.189 204.523,62.744 204.967,63.913" id="Path" stroke="#262626"></path>
                    <path d="M208.163,61.099 C207.988,61.707 207.822,62.902 207.988,63.926" id="Path" stroke="#262626"></path>
                    <path d="M208.749,63.362 C208.749,63.362 200.526,56.651 199.763,56.947 C199.177,57.173 208.718,63.354 208.718,63.354" id="Path" stroke="#262626" stroke-width="1.5"></path>
                    <path d="M213.959,61.084 C216.558,59.5 218.505,58.727 218.821,58.88 C219.06,58.995 217.068,59.835 214.445,61.341" id="Path" stroke="#262626" stroke-width="1.5"></path>
                    <path d="M206.311,97.914 C207.612,97.886 208.47,98.636 208.47,99.132 C208.47,100.106 205.773,100.793 203.57,100.793 C201.366,100.793 199.223,100.189 199.223,99.215 C199.223,98.722 200.663,98.108 201.825,98.08" id="Path" stroke="#262626" stroke-width="1.5"></path>
                    <path d="M201.448,100.648 C200.002,105.308 200.163,108.039 200.163,108.039 C200.163,108.039 203.84,108.41 203.858,108.039 C204.072,103.648 204.554,102.255 205.143,100.755" id="Path" stroke="#262626" stroke-width="1.5"></path>
                    <path d="M202.185,106.635 L202.158,106.608" id="Path" stroke="#262626" stroke-width="1.5"></path>
                    <path d="M206.2,98.385 C207.242,98.362 207.723,99.631 203.099,99.492 C200.35,99.41 200.867,98.379 201.798,98.357" id="Path" stroke="#262626"></path>
                    <path d="M211.087,108.439 C209.573,116.59 211.999,127.244 211.496,127.664 C209.749,129.119 195.518,129.031 195.343,127.226 C195.018,123.872 196.136,115.017 195.366,109.079 C194.551,102.791 198.568,99.414 198.568,99.414" id="Path" stroke="#262626" stroke-width="1.5"></path>
                    <path d="M211.22,109.056 C211.22,109.056 213.022,120.503 211.035,121.579" id="Path" stroke="#262626" stroke-width="1.5"></path>
                    <path d="M212.184,108.073 C212.194,108.078 210.925,108.68 210.215,107.792" id="Path" stroke="#262626" stroke-width="1.5"></path>
                    <path d="M207.793,68.024 C207.793,68.024 208.419,70.958 208.202,73.557" id="Path" stroke="#262626"></path>
                    <path d="M203.72,139.091 C203.311,147.411 204.961,150.348 205.033,153.568 C205.076,155.505 205.291,170.314 205.679,170.702 C206.102,171.124 209.317,171.48 209.424,170.702 C211.189,157.83 209.809,154.821 210.231,153.129 C210.654,151.438 213.191,136.638 211.162,127.927" id="Path" stroke="#262626" stroke-width="1.5"></path>
                    <path d="M195.491,127.948 C195.491,127.948 189.481,147.046 189.524,151.358 C189.562,155.244 199.049,164.545 199.049,164.545 C199.049,164.545 201.231,163.129 200.786,162.015 C197.44,153.651 194.439,151.434 194.439,151.434 C194.439,151.434 199.738,143.408 200.556,139.619 C200.698,138.962 203.612,140.007 203.612,140.007" id="Path" stroke="#262626" stroke-width="1.5"></path>
                    <path d="M215.006,179.047 C215.045,176.578 207.479,176.716 207.369,178.571 C207.228,180.948 214.977,180.85 215.006,179.047 Z" id="Path" stroke="#262626" stroke-width="1.5"></path>
                    <path d="M207.688,178.321 C209.15,180.13 213.402,179.782 214.552,178.716" id="Path" stroke="#262626"></path>
                    <path d="M205.22,173.709 C205.891,175.673 206.071,176.212 207.221,177.901" id="Path" stroke="#262626"></path>
                    <path d="M210.575,179.483 C210.575,178.836 212.552,178.405 212.54,179.399" id="Path" stroke="#262626"></path>
                    <path d="M207.314,178.884 C206.123,177.795 205.37,175.975 204.94,174.646 C204.77,174.12 205.256,172.798 205.256,172.798" id="Path" stroke="#262626" stroke-width="1.5"></path>
                    <path d="M214.814,178.435 C214.814,178.435 214.475,176.525 211.425,174.882 C209.85,174.034 209.503,173.102 209.497,172.798" id="Path" stroke="#262626" stroke-width="1.5"></path>
                    <path d="M211.084,175.67 C210.187,175.548 209.117,175.778 208.044,176.296" id="Path" stroke="#262626"></path>
                    <path d="M210.248,175.036 C209,174.888 208.515,175.338 207.988,175.553" id="Path" stroke="#262626"></path>
                    <path d="M205.628,172.307 C203.998,173.888 210.743,173.337 209.102,172.259" id="Path" stroke="#262626" stroke-width="1.5"></path>
                    <path d="M206.011,171.133 L206.047,172.882" id="Path" stroke="#262626"></path>
                    <path d="M208.946,171.241 C208.952,171.383 208.646,172.702 208.646,172.702" id="Path" stroke="#262626"></path>
                    <path d="M202.83,164.165 C203.124,167.145 200.765,173.117 200.438,173.602 C200.115,174.08 196.653,174.183 193.747,173.111" id="Path" stroke="#262626"></path>
                    <path d="M197.393,171.05 C198.205,171.053 199.063,171.6 199.063,171.6" id="Path" stroke="#262626"></path>
                    <path d="M198.306,170.114 C199.432,170.136 199.664,170.47 199.664,170.47" id="Path" stroke="#262626"></path>
                    <path d="M196.757,171.741 C197.697,171.87 199.721,167.098 199.674,165.726 L200.05,165.209" id="Path" stroke="#262626" stroke-width="1.5"></path>
                    <path d="M202.818,163.309 C202.818,163.309 204.107,163.579 203.977,164.742 C203.692,167.284 202.48,171.931 201.264,174.441 C200.679,175.648 194.721,174.809 193.84,174.058 C192.442,172.868 194.858,170.581 197.207,171.967" id="Path" stroke="#262626" stroke-width="1.5"></path>
                    <path d="M194.207,171.979 C195.222,171.931 194.887,173.364 194.887,173.364" id="Path" stroke="#262626"></path>
                    <path d="M202.009,163.461 C204.32,162.346 200.812,166.207 199.792,165.925" id="Path" stroke="#262626" stroke-width="1.5"></path>
                    <path d="M201.045,163.16 C201.15,163.241 201.936,164.003 201.936,164.003" id="Path" stroke="#262626" stroke-width="1.5"></path>
                    <path d="M199.568,164.491 C199.674,164.582 200.05,164.975 200.331,165.256" id="Path" stroke="#262626" stroke-width="1.5"></path>
                    <path d="M198.935,168.91 C200.061,168.932 200.294,169.266 200.294,169.266" id="Path" stroke="#262626"></path>
                    <path d="M211.152,129.65 C211.152,129.65 202.329,131.608 195.208,129.225" id="Path" stroke="#262626" stroke-width="1.5"></path>
                    <path d="M257.274,87.86 C260.807,88.394 261.428,80.898 259.693,80.898 C258.421,80.898 257.957,82.634 257.957,82.634" id="Path" stroke="#262626"></path>
                    <path d="M248.089,99.85 C247.946,97.868 247.633,95.571 249.26,94.645 C250.396,93.999 256.56,91.715 257.274,86.737" id="Path" stroke="#262626" stroke-width="1.5"></path>
                    <path d="M245.122,83.997 C244.202,85.984 242.7,84.124 241.999,85.59 C241.297,87.056 243.316,88.501 245.632,87.205" id="Path" stroke="#262626" stroke-width="1.5"></path>
                    <path d="M240.852,85.724 C239.87,85.157 239.173,83.729 239.173,82.057 C239.173,79.888 240.346,78.13 241.792,78.13 C243.238,78.13 244.41,79.888 244.41,82.057 C244.41,82.823 244.264,83.537 244.012,84.141" id="Path" stroke="#262626" stroke-width="1.5"></path>
                    <path d="M242.315,90.401 C242.315,90.401 245.186,91.221 248.32,90.052" id="Path" stroke="#262626" stroke-width="1.5"></path>
                    <path d="M246.02,82.132 C246.02,79.963 247.192,78.204 248.638,78.204 C250.084,78.204 251.256,79.963 251.256,82.132 C251.256,84.301 250.084,86.059 248.638,86.059 C247.192,86.059 246.02,84.301 246.02,82.132 Z" id="Path" stroke="#262626" stroke-width="1.5"></path>
                    <path d="M252.485,76.78 C250.052,73.018 247.333,75.977 247.549,75.888 C250.115,74.832 252.47,76.827 252.47,76.827" id="Path" stroke="#262626"></path>
                    <path d="M238.514,76.623 C241.211,73.045 243.284,76.12 243.075,76.016 C240.591,74.778 238.79,76.517 238.79,76.517" id="Path" stroke="#262626"></path>
                    <path d="M240.963,83.285 C240.963,82.819 241.197,82.441 241.486,82.441 C241.775,82.441 242.01,82.819 242.01,83.285 C242.01,83.752 241.775,84.13 241.486,84.13 C241.197,84.13 240.963,83.752 240.963,83.285 Z" id="Path" stroke="#262626" stroke-width="1.5"></path>
                    <path d="M247.449,83.285 C247.449,82.819 247.683,82.441 247.972,82.441 C248.261,82.441 248.496,82.819 248.496,83.285 C248.496,83.752 248.261,84.13 247.972,84.13 C247.683,84.13 247.449,83.752 247.449,83.285 Z" id="Path" stroke="#262626" stroke-width="1.5"></path>
                    <path d="M252.141,69.355 C258.478,71.499 258.949,77.596 258.949,80.898" id="Path" stroke="#262626" stroke-width="1.5"></path>
                    <path d="M243.629,68.886 C236.367,70.34 235.438,76.334 235.438,80.498 C235.407,89.652 239.956,93.338 242.363,94.482 C244.348,95.426 244.615,97.663 244.413,100.013" id="Path" stroke="#262626" stroke-width="1.5"></path>
                    <path d="M236.665,88.45 C234.01,87.617 233.619,81.612 235.18,81.612" id="Path" stroke="#262626"></path>
                    <path d="M244.333,71.565 C244.333,68.809 243.343,65.626 242.142,63.552 C241.338,62.163 248.866,62.024 248.167,63.661 C247.324,65.639 246.497,69.378 246.497,71.753" id="Path" stroke="#262626" stroke-width="1.5"></path>
                    <path d="M248.298,63.102 C263.148,62.514 260.48,79.426 260.214,81.02" id="Path" stroke="#262626" stroke-width="1.5"></path>
                    <path d="M242.22,62.877 C256.912,57.31 263.231,69.767 260.214,81.02" id="Path" stroke="#262626" stroke-width="1.5"></path>
                    <path d="M244.333,71.565 C244.56,71.501 246.304,71.881 246.497,71.753 C248.213,70.612 250.131,68.462 252.609,69.365" id="Path" stroke="#262626" stroke-width="1.5"></path>
                    <path d="M251.472,75.58 C252.766,73.505 254.606,76.952 251.768,76.827" id="Path" stroke="#262626"></path>
                    <path d="M247.544,70.986 C247.544,69.397 248.767,65.3 249.373,63.09" id="Path" stroke="#262626"></path>
                    <path d="M249.074,69.905 C249.074,68.734 250.317,63.747 250.702,63.169" id="Path" stroke="#262626"></path>
                    <path d="M250.194,69.366 C250.256,68.841 251.296,63.564 251.779,63.323" id="Path" stroke="#262626"></path>
                    <path d="M251.463,69.149 C251.594,67.844 252.493,64.632 253.325,63.714" id="Path" stroke="#262626"></path>
                    <path d="M252.517,69.333 C252.746,68.074 253.965,65.811 254.8,64.331" id="Path" stroke="#262626"></path>
                    <path d="M253.26,69.801 C253.397,68.982 255.306,66 256.194,65.216" id="Path" stroke="#262626"></path>
                    <path d="M253.907,70.13 C254.481,69.197 256.289,66.711 257.258,66.178" id="Path" stroke="#262626"></path>
                    <path d="M254.849,70.728 C255.47,70.056 257.289,67.832 258.206,67.359" id="Path" stroke="#262626"></path>
                    <path d="M255.541,71.284 C256.053,70.772 258.184,68.941 259.045,68.821" id="Path" stroke="#262626"></path>
                    <path d="M256.287,72.033 C256.935,71.673 258.926,70.401 259.607,70.2" id="Path" stroke="#262626"></path>
                    <path d="M256.932,72.858 C256.932,72.858 259.391,71.53 259.998,71.53" id="Path" stroke="#262626"></path>
                    <path d="M257.49,73.776 C257.897,73.651 259.793,72.649 260.233,72.649" id="Path" stroke="#262626"></path>
                    <path d="M257.976,74.829 L260.444,74.165" id="Path" stroke="#262626"></path>
                    <path d="M258.367,75.988 C258.628,75.988 260.368,75.601 260.552,75.785" id="Path" stroke="#262626"></path>
                    <path d="M258.68,77.373 C258.961,77.373 260.586,77.339 260.868,77.339" id="Path" stroke="#262626"></path>
                    <path d="M259.618,79.007 C259.679,79.007 259.739,79.007 259.8,79.007" id="Path" stroke="#262626"></path>
                    <path d="M244.959,71.615 C244.959,70.25 244.378,64.445 243.368,62.473" id="Path" stroke="#262626"></path>
                    <path d="M245.552,71.7 C245.552,69.646 246.481,63.505 247.355,62.741" id="Path" stroke="#262626"></path>
                    <path d="M245.551,62.479 C245.551,63.658 245.313,70.411 245.552,71.61" id="Path" stroke="#262626"></path>
                    <path d="M259.729,82.134 C259.758,81.512 259.693,80.898 260.179,80.802 C261.335,80.575 261.874,81.98 260.58,82.292" id="Path" stroke="#262626"></path>
                    <path d="M258.299,86.859 C258.631,87.286 259.278,89.161 258.285,89.326 C257.696,89.424 257.794,88.078 257.794,88.078" id="Path" stroke="#262626"></path>
                    <path d="M259.42,85.961 C260.194,85.555 260.764,86.824 260.316,87.358 C259.768,88.011 259.602,87.586 259.502,87.406" id="Path" stroke="#262626"></path>
                    <path d="M258.698,82.788 C258.698,82.509 259.373,81.904 259.616,82.245 C260.239,83.116 259.572,85.501 258.88,86.193" id="Path" stroke="#262626"></path>
                    <path d="M251.868,119.677 C251.868,119.677 250.932,119.096 249.606,119.655 C248.828,119.984 249.749,120.905 249.749,120.905" id="Path" stroke="#262626" stroke-width="1.5"></path>
                    <path d="M247.882,143.334 C247.882,143.334 247.177,144.11 245.801,143.405" id="Path" stroke="#262626" stroke-width="1.5"></path>
                    <path d="M38.354,21.853 C41.932,16.771 91.811,16.904 94.442,21.491 C95.796,23.851 91.151,24.636 91.248,28.259 C91.358,32.344 96.803,37.576 94.442,36.963 C80.507,33.346 48.299,33.543 38.354,37.326 C33.537,39.158 40.066,33.05 41.149,29.492 C42.088,26.407 35.678,25.656 38.354,21.853 Z" id="Path" stroke="#262626" stroke-width="1.5"></path>
                </g>
            </g>
        </g>
    </g>
</svg>