<?xml version="1.0" encoding="UTF-8" standalone="no"?>
<svg width="500px" height="500px" viewBox="0 0 500 500" version="1.1" xmlns="http://www.w3.org/2000/svg" xmlns:xlink="http://www.w3.org/1999/xlink">
    <!-- Generator: Sketch 3.6.1 (26313) - http://www.bohemiancoding.com/sketch -->
    <title>brain</title>
    <desc>Created with Sketch.</desc>
    <defs>
        <circle id="path-1" cx="250" cy="250" r="200"></circle>
        <filter x="-50%" y="-50%" width="200%" height="200%" filterUnits="objectBoundingBox" id="filter-3">
            <feOffset dx="0" dy="10" in="SourceAlpha" result="shadowOffsetOuter1"></feOffset>
            <feGaussianBlur stdDeviation="2" in="shadowOffsetOuter1" result="shadowBlurOuter1"></feGaussianBlur>
            <feColorMatrix values="0 0 0 0 0   0 0 0 0 0   0 0 0 0 0  0 0 0 0.35 0" in="shadowBlurOuter1" type="matrix" result="shadowMatrixOuter1"></feColorMatrix>
            <feMerge>
                <feMergeNode in="shadowMatrixOuter1"></feMergeNode>
                <feMergeNode in="SourceGraphic"></feMergeNode>
            </feMerge>
        </filter>
        <filter x="-50%" y="-50%" width="200%" height="200%" filterUnits="objectBoundingBox" id="filter-4">
            <feOffset dx="0" dy="0" in="SourceAlpha" result="shadowOffsetOuter1"></feOffset>
            <feGaussianBlur stdDeviation="2" in="shadowOffsetOuter1" result="shadowBlurOuter1"></feGaussianBlur>
            <feColorMatrix values="0 0 0 0 0   0 0 0 0 0   0 0 0 0 0  0 0 0 0.35 0" in="shadowBlurOuter1" type="matrix" result="shadowMatrixOuter1"></feColorMatrix>
            <feMorphology radius="3" in="SourceAlpha" operator="dilate" result="shadowSpreadInner1"></feMorphology>
            <feOffset dx="0" dy="0" in="shadowSpreadInner1" result="shadowOffsetInner1"></feOffset>
            <feGaussianBlur stdDeviation="10" in="shadowOffsetInner1" result="shadowBlurInner1"></feGaussianBlur>
            <feComposite in="shadowBlurInner1" in2="SourceAlpha" operator="arithmetic" k2="-1" k3="1" result="shadowInnerInner1"></feComposite>
            <feColorMatrix values="0 0 0 0 0.149019608   0 0 0 0 0.149019608   0 0 0 0 0.149019608  0 0 0 0.35 0" in="shadowInnerInner1" type="matrix" result="shadowMatrixInner1"></feColorMatrix>
            <feMerge>
                <feMergeNode in="shadowMatrixOuter1"></feMergeNode>
                <feMergeNode in="SourceGraphic"></feMergeNode>
                <feMergeNode in="shadowMatrixInner1"></feMergeNode>
            </feMerge>
        </filter>
    </defs>
    <g id="website" stroke="none" stroke-width="1" fill="none" fill-rule="evenodd">
        <g id="brain">
            <mask id="mask-2" fill="white">
                <use xlink:href="#path-1"></use>
            </mask>
            <use id="Oval-1" stroke="#F5EED6" stroke-width="2.5" fill="#527A98" xlink:href="#path-1"></use>
            <g filter="url(#filter-3)" mask="url(#mask-2)">
                <g transform="translate(109.000000, 128.000000)">
                    <path d="M124.001147,1.8431713 C99.6109077,1.48869259 90.2723619,1.62752593 81.1450441,5.03329815 C55.1644631,14.7278574 54.7474583,21.9264565 52.8818387,23.4508102 C51.4068772,24.6561648 49.5285385,22.9734231 42.9450409,28.1579861 C41.2029783,29.5301222 39.1397584,31.3856796 36.6568082,33.900287 C13.6615818,57.1866296 20.4540361,55.1136574 19.2670714,57.2374444 C18.1259863,59.2795648 5.70896387,62.9155463 1.86370705,93.3776667 C-0.48296711,111.966815 10.3037391,110.993167 13.0070024,118.444796 C17.2406461,130.115417 25.2187022,132.819037 26.7054743,137.78437 C31.3057006,153.143148 36.0871741,163.534324 49.5176364,169.146185 C59.4330843,173.289407 54.9827616,166.650815 54.9827616,166.650815 C69.6015513,192.635787 83.0111671,170.861641 86.7945963,166.537389 C90.5780255,162.213137 97.6826011,161.858796 97.6826011,161.858796 C101.291646,183.477324 118.251659,192.186167 118.251659,192.186167 L117.641596,191.292824 C120.203132,193.139398 123.502376,194.647963 127.734657,195.659722 L128.188911,196.609778 C128.188911,196.609778 143.653521,205.562259 153.710696,217.514176 C163.768325,229.466546 168.418519,244.418806 168.418519,244.418806 L176.325258,243.071759 C177.822478,230.287296 177.357322,222.863796 173.798699,214.389065 C186.27432,224.527074 195.548816,210.930935 196.454598,208.462787 C198.187121,211.852861 231.243156,227.670787 251.005006,183.054926 C251.005006,183.054926 250.87736,182.851213 254.144807,184.458685 C261.68042,188.167259 263.337083,171.930111 266.153909,169.798611 C282.49432,157.432009 274.052017,138.866907 277.836858,129.745194 C285.657742,110.896074 279.859195,90.6372963 270.100465,77.0302685 C265.666081,70.8472937 266.77707,77.9136091 255.511146,60.3492674 C244.245223,42.7849257 232.528662,30.6249993 199.632166,18.9154404 C194.093603,16.9439806 189.398351,12.5700837 182.940553,10.3359148 C164.471055,3.9461787 148.19424,1.233575 133.867081,1.29024259 C130.454728,1.30371759 127.195458,1.52839167 124.001147,1.8431713 Z" id="Shape" fill="#FAF5EA" filter="url(#filter-4)"></path>
                    <g id="Layer_3" stroke-width="1" fill="none">
                        <path d="M134.446623,0.155983333 C129.486628,0.15062963 124.676991,0.479247222 120.024071,1.1201037 C103.423827,3.40622593 91.1171884,10.2456278 77.7280632,22.616812 C67.7794549,31.8092574 57.038174,38.6269722 49.714243,51.1691574 C46.7357021,56.2692407 43.355601,59.2319259 41.0134693,64.6214722 C38.7312992,69.8721852 37.4716539,77.5447685 35.7600263,82.9284167 C32.6833666,92.6050093 31.1825127,101.31113 31.1039268,109.087611 C31.0248867,116.863639 35.8676844,124.485407 37.5456973,130.762398 C41.3428032,144.968315 44.5330263,144.218343 50.8921226,147.723204 C54.9454276,149.956787 59.7146363,151.197213 65.5136379,151.735759 C69.9094501,152.143639 73.8541884,152.154074 81.7532045,151.919963 C82.0602799,151.910889 82.0561916,151.914972 82.3632671,151.905444 C90.7933056,151.654546 94.455044,151.64638 98.7877149,152.047454 C104.156538,152.544259 108.494206,153.713907 112.116879,155.705667 C112.056463,155.971537 111.982874,156.250565 111.833424,156.75463 C111.721678,157.130296 111.239715,158.700111 111.180208,158.895657 C110.874041,159.906509 110.62829,160.768546 110.385264,161.660074 C108.960725,166.883565 108.250272,171.570324 108.52555,176.09375 C108.906214,182.350778 111.207917,187.569731 115.850389,191.392185 C121.275994,195.858898 128.510437,200.061102 140.296047,200.041139 C154.990697,200.016185 171.189835,195.891565 177.260026,188.312898 C179.332331,185.725426 181.171604,183.54538 182.378556,179.548704 C183.044946,177.341435 186.499999,171.249556 185.436591,172.909204 C184.372729,174.569306 190.824039,169.195185 195.131726,168.238778 C198.994245,167.381731 207.888076,169.757778 217.243429,172.244528 C221.827757,173.46363 226.263543,170.41837 232.590842,174.600157 C235.219607,176.337389 242.672546,181.201546 250.850928,185.225898 C253.37567,186.468139 258.425607,186.179583 260.260792,184.203704 C261.58903,182.773176 263.299294,181.937907 264.471269,178.883574 C264.388595,179.099537 265.404306,175.184981 265.828578,174.235833 C266.228776,173.341583 266.59445,170.872528 266.832933,170.691954 C272.930379,166.077333 276.126962,160.389704 277.323466,153.337787 C277.909908,149.880565 277.998033,147.068056 277.891283,141.300574 C277.772723,134.895185 277.922172,132.505074 278.88519,130.184833 C286.163696,112.641926 282.368861,92.201213 271.020697,76.3782963 C269.924583,74.8502222 257.354023,61.3511759 256.165241,59.6969722 C246.058099,45.6285278 246.843957,44.4783889 236.355241,36.2255185 C229.038578,30.4683361 217.126686,22.9006037 205.920704,20.2757463 C197.257179,18.2465111 193.069415,12.4977676 182.912758,8.98387778 C165.195505,2.85438611 149.326155,0.171953704 134.446623,0.155983333 L134.446623,0.155983333 Z M134.474787,2.42450185 C149.081312,2.44478241 165.09466,5.36795 182.568888,11.4134611 C188.084436,13.3216481 193.671301,18.2375278 198.482755,20.2262019 C213.763847,26.5425741 225.234659,30.3532315 234.950235,37.9976852 C245.239079,46.0935741 242.923294,48.1334259 252.91642,62.0439815 C254.100659,63.692287 268.075317,76.162787 269.175065,77.6967593 C280.095776,92.923963 282.720453,109.320361 275.767193,126.077907 C274.634739,128.807843 273.993333,134.504546 274.118707,141.265185 C274.222731,146.895194 273.574965,150.983065 273.019413,154.256991 C271.915123,160.764463 270.375203,163.21038 264.762445,167.458407 C264.130578,167.936157 262.885469,170.882963 262.338548,172.105694 C261.877026,173.138324 259.754753,178.738843 259.8665,178.448019 C257.611131,184.325296 254.960107,183.238676 252.111028,181.836731 C244.837973,178.257917 240.433076,171.826213 233.789163,170.970528 C229.511456,170.419731 223.579813,169.399806 218.209627,169.735093 C214.498375,169.966481 198.937917,165.057861 194.635227,166.012907 C186.124786,167.90213 181.468686,171.163806 179.918773,176.295648 C178.790861,180.031444 174.713935,185.749019 172.872391,188.047481 C167.288705,195.019093 159.150298,195.725509 145.085697,195.749102 C133.786139,195.768157 122.265359,193.723315 117.29855,189.634083 C113.182103,186.244917 111.14205,181.620315 110.796818,175.951741 C110.539256,171.719139 111.2061,167.261046 112.571132,162.255787 C112.808253,161.387398 113.06536,160.53988 113.366076,159.54763 C113.423312,159.36025 113.904367,157.779546 114.019293,157.392537 C114.230975,156.680676 114.347264,156.206556 114.416765,155.833157 C114.464461,155.575907 114.497168,155.357222 114.487628,155.152602 C114.467187,154.702074 114.310015,154.302815 113.848948,154.032407 C113.848948,154.032407 104.952391,150.34425 99.0007599,149.793 C94.5431692,149.380583 90.8314629,149.383306 82.3069396,149.636926 C81.9994099,149.646454 81.9889621,149.64237 81.6818867,149.651444 C73.8746298,149.882833 70.0003008,149.877843 65.7266828,149.481306 C60.2147695,148.969528 55.7317406,147.788537 51.9855111,145.724185 C46.0416026,142.447991 43.1566379,135.9505 39.6693329,127.869583 C34.7497663,116.46937 31.9215833,102.467167 37.917731,83.6089722 C41.3387149,72.8493889 45.8839766,62.2172963 51.6729846,52.3034167 C58.861548,39.9935278 70.2369669,31.966375 80.6366491,23.7688111 C92.7293345,14.2367231 104.145182,5.59008333 120.336143,3.36022037 C124.896395,2.73224907 129.606097,2.4176963 134.474787,2.42450185 L134.474787,2.42450185 Z" id="Shape" stroke="#262626" stroke-width="0.5" fill="#262626"></path>
                        <path d="M124.0394,0.354433333 C95.7493933,0.354433333 89.1908796,0.817846296 80.7435795,3.96990741 C69.7351974,8.07760463 62.4294366,12.0243731 57.8319358,15.9079861 C56.130756,17.3450472 54.8888266,18.7031185 53.8717528,20.1047454 C53.4647416,20.6655231 52.4612953,22.2340222 52.295947,22.4299769 C52.2396196,22.4965806 52.1923772,22.5405444 52.1537657,22.5717593 C51.9661589,22.7253833 51.7590193,22.7969778 51.160313,22.8978815 C48.075931,23.4176898 46.1162809,24.2162537 42.2455859,27.2647796 C40.3508941,28.7569657 38.2299839,30.6893352 35.8433355,33.1063056 C27.5650177,41.4893889 22.5609599,47.1575093 20.0866404,50.7866852 C19.7068844,51.3433796 16.2786324,54.2861019 17.039053,57.9152778 C17.3052456,59.1856481 11.2564045,62.6396944 9.08507223,66.2833889 C5.28660353,72.6574722 2.24310433,81.3159537 0.738162119,93.2361111 C0.0399743178,98.7663056 0.419730337,102.970778 1.77431461,106.280093 C2.84907865,108.904769 8.1315939,114.040694 8.19064687,114.092417 C10.3220048,115.947611 15.2974446,125.999417 17.7867544,128.937148 C19.1663226,130.565037 23.5684944,134.892463 24.2171685,135.685537 C24.9321637,136.559824 25.375061,137.330667 25.6085474,138.11013 C28.3109021,147.132935 30.6584848,152.928093 33.8418941,157.747333 C37.5704077,163.3905 41.3797785,168.106296 48.0450417,170.891583 C51.1053483,172.170574 54.8924607,172.127472 54.8924607,172.127472 C54.8924607,172.127472 57.2023403,180.367639 66.5245329,181.438833 C72.9617608,182.17837 75.8058427,180.820889 81.5394318,176.082861 C87.2730209,171.344833 89.6242376,163.557917 92.3465795,163.269815 C98.6275441,162.604231 103.886438,159.093472 108.566613,156.088139 C109.094002,155.749676 109.246631,155.041444 108.907303,154.514241 C108.567976,153.987491 107.873422,153.8355 107.345579,154.173963 C102.727637,157.13937 99.3084703,157.707407 96.0591942,159.355713 C94.8299839,159.979556 92.5818828,159.812593 91.3154238,160.38562 C91.1782392,160.447778 84.5329631,166.850444 83.270138,168.168 C83.2092681,168.231519 75.8471798,178.266083 69.4122231,178.513352 C60.6719294,178.849093 60.6046998,174.331565 55.9726758,166.098204 C55.9613194,166.080509 55.940878,166.043306 55.9299759,166.027426 C55.120496,164.817398 54.844764,169.28638 54.8229599,169.358972 C54.8279567,169.342185 54.8629342,169.314056 54.8084238,169.330843 C54.1647464,169.526389 51.9252761,168.14713 49.3237657,167.060056 C43.0764157,164.449444 39.2252536,161.768509 35.7443082,156.499648 C32.7108026,151.908167 30.438626,146.285417 27.79487,137.458157 C27.4655361,136.358833 18.3454864,122.433759 17.0036212,118.734259 C16.2236677,116.584611 7.29258748,107.537759 6.37454093,105.294194 C5.18076244,102.379148 2.34304013,98.6878148 2.99534831,93.5196759 C4.46077047,81.9107593 8.61809952,74.529 12.009557,68.3273241 C13.9678443,64.7462407 17.0690337,63.055287 18.6362087,61.3421019 C21.1627673,58.5808611 21.1268812,53.2847778 21.9604366,52.0625 C24.3393628,48.5730648 29.2721027,42.9879722 37.4618411,34.6942685 C39.7853483,32.3409981 41.8349406,30.481312 43.6510465,29.0511926 C47.2042183,26.2527935 51.8280658,27.4888639 54.278764,25.9282139 C58.5155875,23.2307639 58.2652937,20.2071009 59.8242921,18.8900444 C64.1996629,15.194038 81.0474751,4.81651852 92.5559904,4.69882778 C107.018063,4.55092037 124.0394,2.62295185 124.0394,2.62295185 C124.666724,2.62295185 125.175488,2.11516667 125.175034,1.48869259 C125.175034,0.862263889 124.666724,0.354433333 124.0394,0.354433333 L124.0394,0.354433333 Z" id="Shape" stroke="#262626" stroke-width="0.5" fill="#262626"></path>
                        <path d="M249.835852,185.039426 C228.637653,232.898361 193.444809,208.925111 196.534642,207.973241 C197.564435,207.655648 187.566313,225.620046 173.76518,214.372278" id="Shape" stroke="#262626" stroke-width="2.268"></path>
                        <path d="M162.439274,194.564935 C176.066883,215.476139 178.792404,221.910565 176.314451,243.069944" id="Shape" stroke="#262626" stroke-width="2.268"></path>
                        <path d="M168.50992,244.183333 C160.209343,225.251639 152.830448,212.573343 128.178104,196.60887" id="Shape" stroke="#262626" stroke-width="2.268"></path>
                        <path d="M234.378965,176.879111 C191.651416,186.91413 194.632228,181.731472 194.632228,181.731472 C194.632228,181.731472 201.477376,189.560583 162.945313,193.640741" id="Shape" stroke="#262626" stroke-width="2.268"></path>
                        <path d="M242.29388,184.687806 C242.29388,184.687806 217.651984,190.780139 205.102774,184.788074 C203.467461,184.00725 201.864854,185.418722 204.152929,186.184574 C218.470549,190.976593 242.29388,184.687806 242.29388,184.687806 L242.29388,184.687806 Z" id="Shape" stroke="#262626" stroke-width="0.9072" fill="#262626"></path>
                        <path d="M241.887777,188.801991 C242.125352,188.453093 210.665109,195.887481 197.241006,187.209037 C195.719257,186.225861 194.199778,187.403222 196.291162,188.605537 C210.665109,196.871111 241.650657,189.150889 241.887777,188.801991 L241.887777,188.801991 Z" id="Shape" stroke="#262626" stroke-width="0.9072" fill="#262626"></path>
                        <path d="M236.041079,195.118 C236.39903,194.894324 203.802246,200.71625 195.06286,191.095463 C193.845006,189.754769 192.500416,190.762444 194.266554,192.404852 C204.517695,201.939435 235.666319,195.352111 236.041079,195.118 L236.041079,195.118 Z" id="Shape" stroke="#262626" stroke-width="0.9072" fill="#262626"></path>
                        <path d="M230.98251,202.227537 C231.340917,202.003861 198.430697,206.910667 188.650162,191.952509 C187.659435,190.436685 186.1713,192.325454 186.1713,192.325454 C199.076191,208.233667 230.608205,202.461194 230.98251,202.227537 L230.98251,202.227537 Z" id="Shape" stroke="#262626" stroke-width="0.9072" fill="#262626"></path>
                        <path d="M220.49652,210.209546 C220.854926,209.98587 191.005467,208.713231 185.995958,195.113463 L184.444682,196.153806 C190.50488,211.607861 220.121761,210.443657 220.49652,210.209546 L220.49652,210.209546 Z" id="Shape" stroke="#262626" stroke-width="0.9072" fill="#262626"></path>
                        <path d="M193.07323,211.212231 C193.431181,210.988556 183.583872,206.721926 181.659199,196.313963 L179.843093,196.308519 C182.853432,209.352954 192.69847,211.445889 193.07323,211.212231 L193.07323,211.212231 Z" id="Shape" stroke="#262626" stroke-width="0.9072" fill="#262626"></path>
                        <path d="M185.328205,215.32188 C185.74521,215.252009 177.976565,207.693759 176.73509,195.108019 L174.918984,195.102574 C176.261303,209.855657 181.938565,215.893093 185.328205,215.32188 L185.328205,215.32188 Z" id="Shape" stroke="#262626" stroke-width="0.9072" fill="#262626"></path>
                        <path d="M175.491343,215.053741 C175.851112,214.832333 171.045563,204.5015 171.698326,196.607509 L169.88222,196.602065 C170.470024,206.329472 174.811326,215.471602 175.491343,215.053741 L175.491343,215.053741 Z" id="Shape" stroke="#262626" stroke-width="0.9072" fill="#262626"></path>
                        <path d="M97.9870465,162.206333 C101.283565,183.470519 118.247212,192.182083 118.247212,192.182083" id="Shape" stroke="#262626" stroke-width="2.268"></path>
                        <path d="M99.426122,160.785333 C101.211793,172.303963 107.007615,180.139426 111.945352,184.901954" id="Shape" stroke="#262626" stroke-width="0.9072"></path>
                        <path d="M100.865197,159.775843 C102.290645,168.972417 106.272632,175.821074 110.333205,180.632602" id="Shape" stroke="#262626" stroke-width="0.9072"></path>
                        <path d="M102.303819,158.766806 C103.473976,166.313259 106.3653,172.279009 109.608671,176.835102" id="Shape" stroke="#262626" stroke-width="0.9072"></path>
                        <path d="M103.742894,157.688806 C104.724082,164.016611 106.915401,169.233296 109.509644,173.43913" id="Shape" stroke="#262626" stroke-width="0.9072"></path>
                        <path d="M105.18197,156.816787 C106.00644,162.135102 107.685815,166.668509 109.741313,170.476898" id="Shape" stroke="#262626" stroke-width="0.9072"></path>
                        <path d="M106.621045,156.287315 C107.266085,160.448685 108.434425,164.12913 109.896668,167.357685" id="Shape" stroke="#262626" stroke-width="0.9072"></path>
                        <path d="M108.059666,155.415296 C108.596594,158.876148 109.494653,162.004435 110.623474,164.816491" id="Shape" stroke="#262626" stroke-width="0.9072"></path>
                        <path d="M109.498742,154.337296 C109.92892,157.111694 110.591676,159.672398 111.418872,162.028028" id="Shape" stroke="#262626" stroke-width="0.9072"></path>
                        <path d="M110.937817,153.876787 C111.229448,155.757389 111.627828,157.539991 112.112063,159.226861" id="Shape" stroke="#262626" stroke-width="0.9072"></path>
                        <path d="M146.842022,199.043898 C145.1363,199.8955 142.229531,202.846843 140.620565,205.418435" id="Shape" stroke="#262626" stroke-width="0.9072"></path>
                        <path d="M150.037242,198.548454 C148.331974,199.400056 143.394238,203.654889 141.785271,206.226028" id="Shape" stroke="#262626" stroke-width="0.9072"></path>
                        <path d="M149.257743,201.117778 C147.552021,201.96938 144.645252,204.920722 143.036286,207.492315" id="Shape" stroke="#262626" stroke-width="0.9072"></path>
                        <path d="M152.452963,200.622333 C150.747241,201.473935 145.809958,205.728769 144.200992,208.299907" id="Shape" stroke="#262626" stroke-width="0.9072"></path>
                        <path d="M153.202482,201.737991 C151.497213,202.589593 147.173628,206.8535 145.564661,209.425093" id="Shape" stroke="#262626" stroke-width="0.9072"></path>
                        <path d="M154.981339,202.555111 C153.276071,203.406713 148.338334,207.661546 146.729368,210.232685" id="Shape" stroke="#262626" stroke-width="0.9072"></path>
                        <path d="M155.955713,203.725667 C154.250445,204.577269 149.312708,208.832102 147.703742,211.403241" id="Shape" stroke="#262626" stroke-width="0.9072"></path>
                        <path d="M157.199459,204.713833 C155.493737,205.565435 150.556,209.819815 148.947034,212.391407" id="Shape" stroke="#262626" stroke-width="0.9072"></path>
                        <path d="M158.173379,205.884389 C156.468111,206.735991 151.530374,210.990824 149.921408,213.561963" id="Shape" stroke="#262626" stroke-width="0.9072"></path>
                        <path d="M158.951515,206.943333 C157.245793,207.795389 152.308056,212.049769 150.69909,214.621361" id="Shape" stroke="#262626" stroke-width="0.9072"></path>
                        <path d="M159.925435,208.114343 C158.220167,208.965944 153.28243,213.220324 151.673464,215.791917" id="Shape" stroke="#262626" stroke-width="0.9072"></path>
                        <path d="M161.169181,209.102056 C159.463459,209.953657 154.526177,214.208491 152.916756,216.77963" id="Shape" stroke="#262626" stroke-width="0.9072"></path>
                        <path d="M162.143555,210.272611 C160.437833,211.124667 155.500096,215.379046 153.89113,217.950185" id="Shape" stroke="#262626" stroke-width="0.9072"></path>
                        <path d="M162.582364,211.755315 C160.876642,212.606917 155.938905,216.86175 154.329939,219.432889" id="Shape" stroke="#262626" stroke-width="0.9072"></path>
                        <path d="M163.556284,212.92587 C161.851016,213.777926 156.913279,218.032306 155.304313,220.603444" id="Shape" stroke="#262626" stroke-width="0.9072"></path>
                        <path d="M164.062323,214.355491 C161.963217,215.756981 157.964876,219.327176 156.547605,221.591611" id="Shape" stroke="#262626" stroke-width="0.9072"></path>
                        <path d="M164.863172,215.644009 C162.724091,217.119 158.900639,220.558528 157.521979,222.762167" id="Shape" stroke="#262626" stroke-width="0.9072"></path>
                        <path d="M165.348315,217.421167 C163.464071,218.682009 160.061711,221.676907 158.358714,223.912759" id="Shape" stroke="#262626" stroke-width="0.9072"></path>
                        <path d="M165.862075,218.912491 C163.881075,220.340296 160.76853,223.141917 159.229064,225.221241" id="Shape" stroke="#262626" stroke-width="0.9072"></path>
                        <path d="M166.348581,220.469602 C164.179066,222.162824 161.23414,224.934046 160.060348,226.809657" id="Shape" stroke="#262626" stroke-width="0.9072"></path>
                        <path d="M166.723795,222.119269 C164.640587,223.822019 162.103127,226.272472 161.034722,227.980667" id="Shape" stroke="#262626" stroke-width="0.9072"></path>
                        <path d="M167.208029,223.878278 C165.486862,225.121426 162.923963,227.389944 161.274114,229.323176" id="Shape" stroke="#262626" stroke-width="0.9072"></path>
                        <path d="M167.624125,225.465333 C165.921128,226.772454 163.673936,228.808676 162.194432,230.556796" id="Shape" stroke="#262626" stroke-width="0.9072"></path>
                        <path d="M168.02296,227.124981 C166.255005,228.576833 164.176795,230.551352 162.948493,232.14975" id="Shape" stroke="#262626" stroke-width="0.9072"></path>
                        <path d="M168.558979,228.660769 C166.810557,230.138935 164.861809,232.03587 163.755701,233.54262" id="Shape" stroke="#262626" stroke-width="0.9072"></path>
                        <path d="M168.823355,230.193833 C167.27435,231.424278 165.388743,233.148806 164.032796,234.695028" id="Shape" stroke="#262626" stroke-width="0.9072"></path>
                        <path d="M169.024589,231.995944 C167.595507,233.195537 166.016067,234.689583 164.864989,236.02937" id="Shape" stroke="#262626" stroke-width="0.9072"></path>
                        <path d="M169.548798,233.602056 C168.117899,234.858361 166.634761,236.325185 165.641308,237.583306" id="Shape" stroke="#262626" stroke-width="0.9072"></path>
                        <path d="M169.827255,235.396454 C168.484936,236.626444 167.173506,237.981657 166.337225,239.117731" id="Shape" stroke="#262626" stroke-width="0.9072"></path>
                        <path d="M169.873135,237.208093 C168.832894,238.082833 167.714522,239.111833 166.741056,240.123139" id="Shape" stroke="#262626" stroke-width="0.9072"></path>
                        <path d="M170.223364,238.914019 C169.275791,239.742481 168.300963,240.66713 167.45696,241.565009" id="Shape" stroke="#262626" stroke-width="0.9072"></path>
                        <path d="M170.511361,240.761954 C169.616482,241.591778 168.744769,242.470148 168.028865,243.294528" id="Shape" stroke="#262626" stroke-width="0.9072"></path>
                        <path d="M170.517721,242.859426 C169.927645,243.443343 169.371639,244.032704 168.891947,244.593935" id="Shape" stroke="#262626" stroke-width="0.9072"></path>
                        <path d="M145.780886,197.721806 C144.075164,198.573861 141.168395,201.525204 139.559429,204.096343" id="Shape" stroke="#262626" stroke-width="0.9072"></path>
                        <path d="M143.860302,197.183713 C142.131867,198.308898 139.638469,200.926315 138.193034,203.236574" id="Shape" stroke="#262626" stroke-width="0.9072"></path>
                        <path d="M141.504543,197.189611 C139.932371,198.509435 138.098095,200.560176 136.938385,202.413556" id="Shape" stroke="#262626" stroke-width="0.9072"></path>
                        <path d="M139.402257,197.100231 C138.099912,198.356083 136.754413,199.951759 135.834095,201.422667" id="Shape" stroke="#262626" stroke-width="0.9072"></path>
                        <path d="M137.609318,197.099324 C136.529103,198.224963 135.473872,199.530269 134.710726,200.74937" id="Shape" stroke="#262626" stroke-width="0.9072"></path>
                        <path d="M135.658299,197.118833 C134.86608,198.021704 134.125193,198.989454 133.550108,199.908204" id="Shape" stroke="#262626" stroke-width="0.9072"></path>
                        <path d="M134.179249,196.856593 C133.51513,197.643769 132.900979,198.466787 132.408114,199.253963" id="Shape" stroke="#262626" stroke-width="0.9072"></path>
                        <path d="M132.617979,196.717759 C132.151915,197.308028 131.722645,197.90737 131.359697,198.487204" id="Shape" stroke="#262626" stroke-width="0.9072"></path>
                        <path d="M131.145289,196.468676 C130.863652,196.851602 130.602002,197.234074 130.367607,197.60838" id="Shape" stroke="#262626" stroke-width="0.9072"></path>
                    </g>
                    <g id="Layer_4" stroke-width="1" fill="none" transform="translate(1.817014, 2.722222)">
                        <path d="M201.31339,18.0582241 C211.811645,24.606212 206.832117,29.9409509 206.51096,30.127287 C204.019833,31.5723333 202.425857,33.7759722 200.866404,36.0708056 C200.866404,36.0708056 197.629393,35.9814259 196.488762,38.5067407 C191.290738,50.0153889 196.518743,60.6356852 196.389735,61.0440185 C194.970193,65.5461204 193.161355,72.6279815 191.888536,77.9131759 C191.768159,78.4131574 183.326764,69.482 182.919299,66.3006296 C182.420074,62.4064907 182.256088,61.2359352 182.256088,61.2359352 C180.187872,56.3100741 176.873183,54.2715833 173.674783,54.2870093 C172.065817,54.2947222 171.764193,54.6336389 172.670883,54.9707407 C179.127644,57.3694722 179.4647,60.6284259 179.776772,61.781287 C179.776772,61.781287 172.024934,58.6316759 171.130509,60.4188148 C170.946082,60.7867685 174.854934,59.6584074 179.127644,64.0361944 C179.164892,64.0743056 180.790212,67.6971296 182.070299,69.5813611 C185.893297,75.2086481 189.242509,78.8627778 189.821682,79.9040278 C190.928698,81.8948796 191.357514,98.9604907 191.309817,103.458509 C191.303457,104.075546 189.092605,98.7994259 183.151876,96.8943241 C182.684904,96.7446019 192.198791,103.155435 188.929528,110.861593 C187.884745,113.325657 187.215629,115.680833 185.274604,117.309176 C184.722231,117.772861 177.295185,118.718833 177.168902,118.613574 C174.327546,116.254769 169.829072,115.483472 163.370949,116.699852 C158.593109,117.599546 152.361204,121.17337 146.519502,125.651426 C145.863106,126.154583 148.397387,120.363963 145.476536,115.373676 C145.476536,115.373676 152.024148,115.290648 156.238258,109.123907 C161.027909,102.115093 165.624047,87.1256296 158.433666,81.1939074 C158.191095,80.9933704 171.168666,73.7354722 166.674281,57.1716574 C166.674281,57.1716574 169.397986,51.6419167 171.517079,51.3220556 C181.890414,49.7581389 183.885042,45.5441389 183.39899,44.8540556 C183.302689,44.717037 189.361523,43.345037 188.248148,38.2045741 C187.923811,36.7078056 185.711141,44.4579722 183.793737,43.1045741 C182.04804,41.8718611 181.956735,42.3990648 180.543552,44.4570648 C177.323348,49.1465463 173.618456,47.6003241 171.90592,48.8157963 C171.90592,48.8157963 164.484778,41.0601852 163.633507,33.2678241 C162.824027,25.8571639 157.854947,19.6731824 158.396417,17.1821676 C158.6349,16.0861556 155.095356,17.245187 155.580953,18.7007593 C156.758379,22.2288046 161.802865,31.2524722 161.381318,36.4174352 C161.381318,36.4174352 148.277918,25.0102806 146.961037,27.3007583 C146.277385,28.4905056 155.408337,32.1022593 160.536406,37.9922407 C164.948571,43.0601111 169.085913,50.0480556 168.419978,51.6033519 C168.097003,52.3583148 166.24592,53.1867778 164.928584,54.0783056 C163.12656,55.2978611 164.852724,61.5757593 163.292817,64.0457222 C163.292817,64.0457222 152.305785,52.2625833 142.338098,51.7685 C142.338098,51.7685 131.781698,41.5279537 127.310934,42.6440648 C125.978608,42.9766296 132.897799,42.6077685 139.407254,51.4477315 C139.407254,51.4477315 130.733281,53.018 131.624072,55.2166481 C131.740815,55.5042963 132.936411,53.0311574 137.347668,52.8927778 C144.137851,52.6804444 155.923461,54.6331852 163.003912,68.1190741 C163.81748,69.6684722 160.093509,79.3455185 151.244194,81.0727685 C141.499546,82.9751481 138.504197,84.4614815 133.115841,84.7604722 C130.016469,84.9324259 127.062003,86.8534074 127.062003,86.8534074 C124.237454,87.2721759 106.261276,90.250287 105.616236,78.2393889 C105.487682,75.8374815 103.81512,84.0812778 108.855518,86.7572222 C113.895462,89.432713 125.777828,88.9422593 125.777828,88.9422593 C125.777828,88.9422593 124.52318,91.5651204 121.415177,94.9919444 C118.153636,98.588 114.638167,96.4728333 111.84269,97.6996481 C111.84269,97.6996481 105.354132,97.4859537 101.837754,86.54625 C100.3369,81.8780926 98.6184591,85.2182593 99.8081493,88.1541759 C102.912064,95.8126944 110.016591,99.3116574 110.016591,99.3116574 C110.504005,101.672278 109.823079,101.790694 108.434425,102.123713 C108.434425,102.123713 101.410302,103.176306 91.6184109,101.508037 C87.4651701,100.800713 82.3639021,95.8925463 79.0946388,92.4071944 C75.7458812,88.8374537 70.5292327,89.1913426 67.7278507,85.7182407 C67.7278507,85.7182407 69.9459711,79.9307963 72.32626,78.8165 C76.6939085,76.7712037 80.3947127,74.7563056 81.0679165,70.1920463 C82.2076388,62.4641111 86.4499133,59.486 86.6039053,59.5222963 C86.7578973,59.5585926 88.8015843,56.4307593 92.098557,55.9716111 C96.4675682,55.3627407 98.1133291,58.0119167 100.972401,61.1275 C101.507966,61.710963 98.4485682,54.4716667 92.356573,54.7615833 C89.4170979,54.9013241 86.8605586,57.6988611 86.8605586,57.6988611 C86.8605586,57.6988611 83.7748138,58.8063519 81.2518892,50.4758981 C81.0606485,49.8443426 82.6659807,58.694287 85.5613933,58.7559907 C85.5613933,58.7559907 82.7818154,61.0680648 79.68426,65.0370648 C77.4438812,67.9071944 77.5092937,71.84625 77.5092937,71.84625 C77.5092937,71.84625 71.9010787,69.9633796 67.3635393,69.0940833 C63.6195811,68.3772315 59.4845104,70.5913056 55.253138,70.1643704 C49.8893114,69.6231019 45.7092697,68.2987407 44.3783066,68.8763056 C44.2315827,68.9402778 46.6981798,70.4533796 52.2341685,71.4919074 C56.286565,72.2518611 62.3794687,70.8140741 66.2756019,71.5227593 C71.0702488,72.3947778 76.1510754,74.4790926 76.1510754,74.4790926 C76.1510754,74.4790926 70.943512,77.121463 68.0371974,79.926713 C65.3107673,82.5586481 63.9575457,85.6674259 63.9575457,85.6674259 C50.8741332,95.3031852 67.2236292,114.982583 67.2236292,114.982583 C67.2236292,114.982583 69.6820498,115.61187 68.8321413,114.357833 C54.0134799,92.4861389 64.5285425,87.7009259 64.5285425,87.7009259 C64.5285425,87.7009259 66.1797544,89.8324259 72.3353451,92.0850648 C77.7954735,94.0827222 79.7782905,100.136491 86.7338218,103.100991 C93.6898074,106.065944 105.39774,104.668083 105.39774,104.668083 C105.197868,115.868667 113.233161,120.035481 122.643024,122.127509 C128.211265,123.365213 128.412499,122.8675 126.498274,122.369787 C103.519856,116.397231 107.326955,104.470722 107.326955,104.470722 C107.326955,104.470722 111.094989,104.964352 112.175658,100.928204 C112.808888,98.5635 121.870793,99.5652778 124.194754,96.0395463 C129.081615,88.6237593 132.680666,86.7123056 132.914607,87.3125556 C133.504682,88.8274722 155.411517,82.6035648 155.411517,82.6035648 C155.411517,82.6035648 161.93687,87.102037 156.357727,103.390907 C151.898774,116.410389 143.045371,113.62238 143.045371,113.62238 C142.491181,109.497306 141.256974,107.548194 139.975979,106.376731 C139.546709,105.984278 136.577708,105.144472 137.137803,105.668954 C138.675451,107.109009 140.686886,113.339269 140.686886,113.339269 C137.966815,116.273824 142.907732,117.203917 142.991769,117.462981 C145.622806,125.586546 141.851592,128.195796 140.725043,128.200787 C137.066939,128.215759 132.36178,127.637287 127.868303,129.360907 C119.700369,132.493731 116.171273,138.037083 107.611318,135.230472 C105.295987,134.471426 96.1432311,129.827769 92.6800016,121.147963 C92.6800016,121.147963 96.2572488,115.258889 95.3210321,112.879213 C95.0194077,112.112 93.5126485,112.709074 93.5126485,112.709074 C93.2042103,118.345889 91.7892103,119.487861 91.7892103,119.487861 C91.7892103,119.487861 91.1432616,117.485667 90.087122,116.53425 C89.5529197,116.052417 86.4776228,115.532472 85.0449069,115.599167 C75.5764446,116.040167 77.7046228,115.556519 76.0879342,113.920463 C75.0163499,112.836111 73.9892825,114.544306 74.6411364,115.19537 C75.3643082,115.917667 74.9604767,117.46888 86.0061075,117.139037 C86.9818443,117.11 90.0076276,116.220287 93.391817,124.968602 C94.7950064,128.595963 100.633074,137.42912 110.706148,138.009407 C116.132207,138.322463 127.371804,130.878093 129.685318,130.40987 C135.446162,129.244759 140.858594,129.531954 140.047751,130.055528 C127.52943,138.14325 119.82438,150.166852 111.543337,150.982611 L112.239254,152.130935 C122.468136,150.771185 129.387327,140.08238 142.617464,130.707954 C147.824573,127.017981 150.307069,125.741713 153.221106,123.363398 C161.342706,116.734333 170.70987,113.475833 178.247754,124.230426 C178.808758,125.031213 175.00938,129.840926 174.017745,133.025472 C172.308388,138.515287 177.722637,146.989111 176.286287,150.615111 C175.518599,152.553787 174.60464,153.936676 171.235441,154.016981 C171.235441,154.016981 164.80321,145.510944 164.174069,145.46875 C163.558555,145.427917 162.064515,145.546333 161.809679,145.99187 C161.641605,146.285417 167.737689,153.96662 167.714976,153.960269 C167.4933,153.898111 165.727616,153.818259 165.727616,153.818259 C163.897883,152.194 161.63252,150.260769 160.986117,150.075204 C160.300194,149.878296 158.628087,150.55613 158.587204,150.755759 C158.5227,151.07063 162.738173,154.263343 163.271467,154.683019 C163.379125,154.767861 163.087949,155.682981 163.413648,155.760565 C163.950576,155.888963 165.364213,155.896676 166.011525,156.016 C166.673827,156.138046 163.015268,161.704083 163.413648,161.942278 C163.888343,162.227204 164.917682,162.155972 165.45779,162.112417 C165.878429,162.078843 167.382462,157.770019 168.152422,155.900759 C168.152422,155.900759 174.381148,156.195667 176.528859,153.621352 C176.528859,153.621352 178.891432,160.003148 182.265173,162.098352 C182.804827,162.433639 183.241364,161.626954 183.696981,160.700491 C183.854607,160.379722 178.649769,156.866241 178.631144,152.9535 C178.627056,152.120046 180.426809,150.787065 179.794942,147.806685 C178.280461,140.661306 175.930152,136.558917 177.017181,131.565907 C177.627698,128.761111 183.08283,125.81975 181.924483,122.3285 C181.864522,122.147926 192.357326,123.788065 199.660361,128.235722 C205.491615,131.786861 211.018518,139.317889 210.438437,142.10363 C209.421817,146.988657 209.405918,157.439722 204.14021,163.799741 L206.695387,164.055176 C211.650839,156.032333 211.649477,143.439787 211.649477,143.439787 C222.077777,146.429694 224.374029,152.781546 226.228292,153.166287 C226.529462,153.228444 230.38017,156.260546 234.064167,156.667972 C236.800591,156.970593 256.675095,154.978833 257.529091,153.506565 C257.759398,153.10912 234.424844,158.30312 228.952451,152.117778 C221.139743,143.287796 214.269612,141.268361 214.269612,141.268361 C213.303868,137.487648 210.020523,133.548593 206.007193,129.649009 C199.090273,122.927389 183.760576,120.609417 183.046035,119.847194 C183.046035,119.847194 185.521717,119.334963 190.037453,117.38313 C198.895852,113.554778 210.909952,101.841509 220.490615,96.9592037 C220.490615,96.9592037 225.628223,100.378315 229.7533,99.7626389 C229.7533,99.7626389 237.6346,108.910667 223.547287,109.45012 C223.547287,109.45012 236.906432,111.432352 232.123596,99.3579352 C232.123596,99.3579352 238.637592,97.1656389 241.300427,94.4134722 C242.154878,93.5305648 255.722979,90.2961111 258.468942,103.169954 C258.840522,104.911722 258.482116,108.528648 252.789864,113.365583 C250.458634,115.346454 244.321668,119.33088 245.519535,134.1375 C245.922003,139.112815 240.131178,141.823241 234.767806,140.840519 C226.799743,139.380954 237.021812,143.257852 241.555717,141.761537 C243.443141,141.138148 246.37444,138.434074 246.37444,138.434074 C250.675767,138.993037 266.529218,137.235843 260.882392,158.229167 C255.161976,179.496074 225.332958,170.0545 225.332958,170.0545 L232.645533,173.010833 C232.645533,173.010833 257.032592,179.385824 263.579295,158.627065 C270.71244,136.009028 246.984502,136.969972 246.984502,136.969972 C248.185549,134.816241 246.56886,124.602917 248.816507,120.7115 C250.623982,117.581852 259.294321,110.225046 259.294321,110.225046 C270.383106,118.00788 269.197958,125.875102 269.634042,125.192278 C272.921929,120.040019 260.795629,108.027306 260.795629,108.027306 C268.0437,83.9401759 260.335925,65.4499352 260.335925,65.4499352 L258.37582,63.9980833 C261.55287,81.8631204 259.125793,97.8498241 259.125793,97.8498241 C254.690006,90.6046296 242.927563,91.7071296 242.927563,91.7071296 C244.014592,85.3788704 250.873822,70.0895093 250.873822,70.0895093 C256.326228,68.9343796 255.234202,62.2626667 253.94821,58.8499074 C253.749247,58.32225 252.604528,57.3535926 252.604528,57.3535926 C252.604982,57.9915 254.980729,66.3110648 251.369413,68.6839352 C250.936055,68.9684074 249.20444,68.6798519 248.512612,68.8109722 C248.512612,68.8109722 248.287756,65.8169815 247.293849,65.6672593 C245.981965,65.4689907 245.250162,65.333787 245.765286,66.5392778 C248.740193,73.5022685 243.181491,78.8428148 243.181491,78.8428148 C241.415807,74.5811759 238.796581,71.2115185 235.557753,68.8835648 C233.911992,67.701213 232.536058,68.6480926 232.536058,68.6480926 C232.536058,68.6480926 247.859395,78.0275093 239.516573,91.7779074 C233.424578,101.818824 221.335526,93.8481574 221.335526,93.8481574 C221.335526,93.8481574 218.062175,85.1266111 222.423918,78.0706111 C222.423918,78.0706111 219.719746,77.047963 218.4333,80.2601852 C216.062551,86.1792037 218.557311,96.2741111 218.557311,96.2741111 C216.346459,97.3276111 205.949957,103.791981 198.417069,110.028593 C193.869536,113.79388 190.230965,115.143194 190.230965,115.143194 C192.132016,112.506722 193.665576,107.240583 194.003995,99.5276204 C194.011717,99.3570278 201.263422,99.817537 199.967891,99.5153704 C199.282876,99.3556667 194.179791,98.5317407 194.160258,98.3225833 C193.748705,93.8635833 193.331246,83.2419259 192.80204,81.6058704 C192.777965,81.5310093 193.568366,81.7333611 193.890886,80.2461204 C195.136449,74.5072222 198.041401,59.5173056 201.51417,56.1726019 C203.095427,54.6495185 208.28164,53.181787 208.903059,51.7712222 C210.199499,48.8280463 210.194048,40.7652778 203.700039,38.0244537 C203.700039,38.0244537 202.025205,29.4605694 223.54547,27.8245593 C223.54547,27.8245593 221.166998,26.3646315 220.920339,26.3569185 C220.784063,26.3526083 213.541443,27.0472287 208.530571,29.393512 C208.254385,29.5229083 210.9204,25.6782685 202.714762,18.0252852 C202.714762,18.0252852 201.067639,17.9050083 201.31339,18.0582241 L201.31339,18.0582241 Z M201.138502,38.0902407 C207.918692,39.8211204 208.685472,46.790463 207.463984,50.6501204 C207.235494,51.3724167 201.405149,53.2988426 200.165491,53.9830278 C198.645559,54.8219259 197.728875,58.2088241 197.55535,58.0355093 C197.051583,57.5328056 194.285632,45.2333519 197.246003,40.8895926 C197.246003,40.8895926 198.769116,40.5021296 199.687162,40.0915278 C200.414422,39.7662222 201.138502,38.0902407 201.138502,38.0902407 L201.138502,38.0902407 Z" id="Shape" stroke="#262626" stroke-width="0.5" fill="#262626"></path>
                        <path d="M230.409697,32.5977037 C230.364271,32.6122222 228.105268,39.5130556 232.760005,42.83825 C234.414396,44.0201481 229.563422,46.251463 226.557626,45.9610926 C226.557626,45.9610926 225.57235,40.8673611 220.349342,37.3656759 C219.88782,37.05625 216.122966,35.2772778 216.122966,35.2772778 C216.301488,35.7763519 223.027167,38.4314259 224.821014,45.5477685 C224.821014,45.5477685 219.359523,42.7320833 215.663262,41.6173333 C211.966546,40.503037 208.47061,40.258037 209.080673,40.4027685 C220.622803,43.1372407 228.21974,46.9057037 228.684896,54.2661389 C228.947454,58.427963 225.925305,63.3043704 225.784486,63.6682407 C225.784486,63.6682407 211.252913,65.1704537 207.27456,61.7422685 C205.565204,60.2695463 205.104136,61.9564167 211.265178,64.1214907 C214.916014,65.4045648 222.411199,64.2571481 225.203496,67.5900556 C227.568795,70.4139074 224.769684,80.1599167 226.3573,84.1611296 C228.400987,89.3124815 233.597648,88.6632315 233.281942,86.6043241 C233.227432,86.2495278 227.844526,86.6846296 228.716239,78.7057963 C229.909109,67.7915 227.859517,65.8401204 227.861334,65.8011019 C227.867239,65.6699815 233.62127,56.2669722 227.64738,47.7273611 C227.64738,47.7273611 240.461875,46.9642315 235.872096,36.6656111 C235.744451,36.3793241 230.686337,32.5087778 230.409697,32.5977037 L230.409697,32.5977037 Z" id="Shape" stroke="#262626" stroke-width="0.5" fill="#262626"></path>
                        <path d="M123.20221,34.2546296 C122.601233,34.2732315 121.913947,34.3449167 121.170334,34.4715 C120.82601,34.5304815 117.378225,20.6628917 102.204791,20.4710657 C100.033459,20.4436167 100.380963,22.5598269 103.029716,22.8872194 C114.135762,24.2600815 117.238769,35.5254537 116.749083,35.7178241 C111.826791,37.6515093 106.786848,41.5746852 107.276533,47.9551204 C107.541363,51.4064444 111.958525,58.6021852 111.822249,59.1792963 C107.733966,65.7335 112.876117,70.4828704 115.289112,71.4674074 C116.183992,71.8326389 114.711302,81.5491574 116.814042,81.5532407 C117.441366,81.5546019 117.579005,71.4057037 116.743178,70.3948519 C109.239363,61.3176019 114.949331,59.4846389 114.244783,58.3862222 C106.48386,46.2795926 111.522896,41.3650741 114.842581,39.102 C127.585303,30.4144815 138.272074,40.5883333 140.752753,39.1314907 C143.233432,37.6746481 128.360714,34.0949259 123.20221,34.2546296 L123.20221,34.2546296 Z" id="Shape" stroke="#262626" stroke-width="0.5" fill="#262626"></path>
                        <path d="M91.9668234,17.8383139 C88.1996982,23.2840741 93.3645618,28.2409231 92.6513836,29.8463991 C90.4069165,34.90025 70.3089197,42.6495093 66.1793002,50.0067685 C61.8588941,57.7024907 73.637236,64.9005 74.0292568,64.4118611 C74.4212777,63.9227685 63.049947,57.9842407 67.9408957,50.8433981 C72.6337897,43.9915648 93.1433403,33.7464815 94.1722247,32.9928796 C98.6248186,29.7324287 90.4450738,25.0203528 95.5636035,17.2265852 C95.7357657,16.964662 93.4127127,15.7482824 91.9668234,17.8383139 L91.9668234,17.8383139 Z" id="Shape" stroke="#262626" stroke-width="0.5" fill="#262626"></path>
                        <path d="M158.733928,124.268537 C158.030743,124.628324 165.67674,121.457389 167.026327,131.394861 C167.338854,133.695139 158.085708,133.835333 155.133059,138.922259 C155.133059,138.922259 153.089827,136.954546 150.876703,136.12563 C149.527116,135.620204 154.459856,138.430444 154.269069,139.495287 C154.046939,140.737074 147.146372,148.368824 146.367782,156.079972 C146.367782,156.079972 137.513016,153.965259 133.551016,157.922463 C132.636604,158.835769 135.955835,156.755991 139.43678,156.389852 C142.917726,156.023713 146.24695,158.074 146.24695,158.074 C146.126119,161.669602 149.54256,168.755546 149.54256,168.755546 C143.335185,164.841898 137.023331,161.447287 128.874021,162.486269 C121.179873,163.46763 114.639984,170.919713 117.395032,169.067694 C118.98492,167.998315 122.169238,165.319648 126.259337,164.576481 C140.761384,161.943185 153.286064,172.345704 152.428888,177.810111 C151.355486,184.656954 141.288772,188.162269 144.656608,187.150509 C151.966912,184.95413 154.3204,179.888981 154.793278,176.353269 C154.793278,176.353269 171.721493,185.545759 167.625942,182.417926 C167.451055,182.284537 155.353372,175.076093 155.047205,173.887843 C153.447324,167.68662 147.111849,165.606389 148.320164,155.462481 C149.270917,147.480926 153.893401,139.978935 158.579936,136.858361 C162.199883,134.447833 165.322422,133.796315 165.322422,133.796315 C168.668454,134.61888 168.605767,130.638083 168.325039,130.077759 C168.184674,129.797824 165.850719,120.628019 158.733928,124.268537 L158.733928,124.268537 Z" id="Shape" stroke="#262626" stroke-width="0.5" fill="#262626"></path>
                        <path d="M47.7556822,117.954796 C47.7361493,118.244259 52.2173612,118.139454 54.4790899,120.09038 C54.619,120.211065 52.8342376,121.076278 53.4097769,121.48688 C56.7608058,123.877444 66.8366051,126.469454 73.0944029,127.475769 C75.4433483,127.85325 98.5889326,133.481444 98.9328026,135.911481 C99.9575987,143.147148 102.244311,144.825852 105.859262,149.182315 C106.059133,149.423685 112.291039,151.904083 112.107066,151.650009 C107.892047,145.838065 104.199419,142.183935 100.685313,135.36613 C98.2877624,130.714306 75.4914992,125.433648 74.1114767,125.211787 C65.2271846,123.783074 61.4032777,119.019639 55.8486645,116.264296 C52.8265152,114.765259 47.7752151,117.66488 47.7556822,117.954796 L47.7556822,117.954796 Z" id="Shape" stroke="#262626" stroke-width="0.5" fill="#262626"></path>
                        <path d="M127.372258,173.623787 C130.637433,175.899111 133.385213,176.772491 129.419579,179.737444 C126.599119,181.846259 126.37926,188.794278 135.660116,193.523231 L143.530059,193.699269 C143.530059,193.699269 139.696159,192.130361 135.799571,189.744787 C131.902984,187.359213 129.766175,183.718694 132.657045,178.46662 C132.669764,178.443481 133.349782,175.054315 129.014385,173.166454 C127.927811,172.693694 127.115151,173.444574 127.372258,173.623787 L127.372258,173.623787 Z" id="Shape" stroke="#262626" stroke-width="0.5" fill="#262626"></path>
                        <path d="M5.99569342,69.9034907 C5.99569342,69.9034907 19.2221958,82.9624444 16.0487801,73.5803056 C15.8484543,72.9882222 32.8793307,85.8783981 32.9061316,85.9038056 C33.1332584,86.1193148 33.870512,81.8971481 33.870512,81.8971481 C33.8409856,81.8690185 17.8262745,71.939713 15.6426774,70.84175 C11.8092311,68.9148704 16.3535843,81.5931667 7.03638844,67.3681944 L5.99569342,69.9034907 L5.99569342,69.9034907 Z" id="Shape" stroke="#262626" stroke-width="0.5" fill="#262626"></path>
                        <path d="M11.4040369,114.503472 L13.1869823,118.620833 C13.1869823,118.620833 29.9852809,120.853509 29.7817753,140.151796 C29.6482247,152.841889 52.4095104,147.541269 52.4095104,146.914704 C52.4095104,146.288593 31.5492761,153.506565 31.6274077,138.833333 C31.7373371,118.203426 11.4040369,114.503472 11.4040369,114.503472 L11.4040369,114.503472 Z" id="Shape" stroke="#262626" stroke-width="0.5" fill="#262626"></path>
                        <path d="M73.1134815,148.716815 C72.4866116,148.716815 69.8696565,148.275361 69.8696565,148.901926 C69.8696565,150.087 71.7021156,154.249278 70.9198909,159.393824 C70.0241027,165.287889 65.1395136,166.521963 63.8757801,167.170306 C61.0112568,168.640306 71.0434478,166.213444 72.7736998,159.548083 C74.3163451,153.605472 73.7408058,148.716815 73.1134815,148.716815 L73.1134815,148.716815 Z" id="Shape" stroke="#262626" stroke-width="0.5" fill="#262626"></path>
                        <path d="M17.1539791,51.8828333 C17.0862953,52.5057685 21.2186404,56.7161389 20.9492681,58.29775 C20.2483547,62.4087593 23.1096982,63.0212593 24.2317047,60.0876111 C26.8777319,53.1690833 37.7684623,59.221037 36.6550867,58.0640926 C31.5465506,52.7575741 25.6199037,55.3817963 23.8392295,55.9648056 C21.2617945,56.8091481 17.2216629,51.2598981 17.1539791,51.8828333 L17.1539791,51.8828333 Z" id="Shape" stroke="#262626" stroke-width="0.5" fill="#262626"></path>
                        <path d="M48.5342729,30.4689259 C48.5342729,30.4689259 54.4809069,30.5419722 56.9216116,35.7659167 L58.611435,33.7033796 C54.1856421,27.9164343 48.5342729,30.4689259 48.5342729,30.4689259 L48.5342729,30.4689259 Z" id="Shape" stroke="#262626" stroke-width="0.5" fill="#262626"></path>
                        <path d="M26.8195875,39.3038981 C26.1977143,39.3851111 25.527236,41.7774907 25.6280803,41.748 C41.502427,37.1147778 43.5847255,43.9094444 43.9490369,43.3994815 C44.3138026,42.8899722 42.8856292,37.1996204 26.8195875,39.3038981 L26.8195875,39.3038981 Z" id="Shape" stroke="#262626" stroke-width="0.5" fill="#262626"></path>
                        <path d="M132.775151,2.79281852 C132.101493,2.77081389 132.907793,7.69000556 144.282303,6.23407037 C150.773587,5.40315741 158.024838,13.8245787 163.231947,13.2489194 C164.353953,13.1248769 160.458274,11.9993287 156.737483,9.41430648 C152.648292,6.57303241 148.868902,4.58617315 145.982575,4.88843056 C145.480624,4.94106019 145.003204,4.98556852 144.549404,5.02254537 C144.247326,5.04709074 149.489867,0.469719444 148.193427,0.336557407 C147.090953,0.223358333 142.542512,5.14826667 142.037836,5.16010833 C134.638045,5.33351389 135.713717,2.88873148 132.775151,2.79281852 L132.775151,2.79281852 Z" id="Shape" stroke="#262626" stroke-width="0.5" fill="#262626"></path>
                        <path d="M36.8595008,78.2457407 C36.8313371,78.3550833 40.9173483,77.9295093 43.9799262,79.2388981 C47.2273852,80.6276852 49.462313,83.757787 49.4250642,83.9519722 C49.1002729,85.6542685 48.6323917,88.6713981 48.8145474,91.0506204 C49.1075409,94.8789722 50.9440883,100.660519 53.0813515,98.3112407 C53.5201605,97.8285 49.7993692,94.7777963 51.4646629,84.6084815 C52.6429968,77.415463 62.8587063,77.4091111 62.7505939,76.0389259 C62.6756421,75.0834259 52.8801172,77.1668333 50.1932071,81.6076852 C50.055114,81.8354444 47.7197961,79.0914444 44.4205522,78.0864907 C41.1735474,77.0974167 36.9617079,77.8460278 36.8595008,78.2457407 L36.8595008,78.2457407 Z" id="Shape" stroke="#262626" stroke-width="0.5" fill="#262626"></path>
                        <path d="M45.6674783,53.2761574 C45.1446324,52.6890648 43.0855008,50.8311481 42.5776453,50.4827037 C34.6740867,45.0577685 42.8379326,51.0021944 44.4641605,55.9398519" id="Shape" stroke="#262626" stroke-width="0.5" fill="#262626"></path>
                        <path d="M0.334784912,98.6215741 C0.983459069,97.7577222 2.08411557,97.3679907 3.02351204,97.0553889 C3.27017175,96.9732685 4.49756501,92.9008241 4.93319422,90.3709722 C6.98369502,78.4676019 12.7536244,83.1802222 12.6564141,83.4061667 C10.8498475,87.616537 6.67661958,84.468287 6.30912841,94.8921296 C6.13696629,99.7753426 9.46755377,96.66475 12.2830177,98.4723056 C12.6291589,98.6946204 15.5213917,101.740787 15.3451413,101.828806 C13.7820546,102.609176 10.4941669,99.9123611 8.77345425,99.7404074 C6.41860353,99.5053889 4.17095666,95.1589074 1.28372071,102.34013" id="Shape" stroke="#262626" stroke-width="0.5" fill="#262626"></path>
                    </g>
                </g>
            </g>
            <g id="deliverable-(1)" mask="url(#mask-2)">
                <g transform="translate(483.000000, -133.000000)" id="Group">
                    <g>
                        <g id="Layer" transform="translate(0.000000, 71.000000)" stroke="#000000" stroke-width="0.109287">
                            <path d="M0.8,28.8 L284.3,28.8 L284.3,312.3 L0.8,312.3 L0.8,28.8 L0.8,28.8 Z" id="Shape"></path>
                            <path d="M0.8,28.8 L43.325,0.45 L312.65,0.45 L312.65,254.962 L284.3,312.3" id="Shape"></path>
                            <path d="M0.8,170.55 L284.3,170.55 L312.65,128.025" id="Shape"></path>
                        </g>
                    </g>
                </g>
            </g>
        </g>
    </g>
</svg>