<?xml version="1.0" encoding="UTF-8" standalone="no"?>
<svg width="500px" height="500px" viewBox="0 0 500 500" version="1.1" xmlns="http://www.w3.org/2000/svg" xmlns:xlink="http://www.w3.org/1999/xlink">
    <!-- Generator: Sketch 3.6.1 (26313) - http://www.bohemiancoding.com/sketch -->
    <title>deliverable</title>
    <desc>Created with Sketch.</desc>
    <defs>
        <circle id="path-1" cx="250" cy="250" r="200"></circle>
        <filter x="-50%" y="-50%" width="200%" height="200%" filterUnits="objectBoundingBox" id="filter-3">
            <feOffset dx="0" dy="15" in="SourceAlpha" result="shadowOffsetOuter1"></feOffset>
            <feGaussianBlur stdDeviation="2" in="shadowOffsetOuter1" result="shadowBlurOuter1"></feGaussianBlur>
            <feColorMatrix values="0 0 0 0 0   0 0 0 0 0   0 0 0 0 0  0 0 0 0.35 0" in="shadowBlurOuter1" type="matrix" result="shadowMatrixOuter1"></feColorMatrix>
            <feMerge>
                <feMergeNode in="shadowMatrixOuter1"></feMergeNode>
                <feMergeNode in="SourceGraphic"></feMergeNode>
            </feMerge>
        </filter>
        <filter x="-50%" y="-50%" width="200%" height="200%" filterUnits="objectBoundingBox" id="filter-4">
            <feOffset dx="0" dy="0" in="SourceAlpha" result="shadowOffsetOuter1"></feOffset>
            <feGaussianBlur stdDeviation="1.5" in="shadowOffsetOuter1" result="shadowBlurOuter1"></feGaussianBlur>
            <feColorMatrix values="0 0 0 0 0   0 0 0 0 0   0 0 0 0 0  0 0 0 0.35 0" in="shadowBlurOuter1" type="matrix" result="shadowMatrixOuter1"></feColorMatrix>
            <feMerge>
                <feMergeNode in="shadowMatrixOuter1"></feMergeNode>
                <feMergeNode in="SourceGraphic"></feMergeNode>
            </feMerge>
        </filter>
        <filter x="-50%" y="-50%" width="200%" height="200%" filterUnits="objectBoundingBox" id="filter-5">
            <feOffset dx="0" dy="0" in="SourceAlpha" result="shadowOffsetOuter1"></feOffset>
            <feGaussianBlur stdDeviation="1.5" in="shadowOffsetOuter1" result="shadowBlurOuter1"></feGaussianBlur>
            <feColorMatrix values="0 0 0 0 0   0 0 0 0 0   0 0 0 0 0  0 0 0 0.35 0" in="shadowBlurOuter1" type="matrix" result="shadowMatrixOuter1"></feColorMatrix>
            <feMerge>
                <feMergeNode in="shadowMatrixOuter1"></feMergeNode>
                <feMergeNode in="SourceGraphic"></feMergeNode>
            </feMerge>
        </filter>
        <filter x="-50%" y="-50%" width="200%" height="200%" filterUnits="objectBoundingBox" id="filter-6">
            <feOffset dx="0" dy="0" in="SourceAlpha" result="shadowOffsetOuter1"></feOffset>
            <feGaussianBlur stdDeviation="1.5" in="shadowOffsetOuter1" result="shadowBlurOuter1"></feGaussianBlur>
            <feColorMatrix values="0 0 0 0 0   0 0 0 0 0   0 0 0 0 0  0 0 0 0.35 0" in="shadowBlurOuter1" type="matrix" result="shadowMatrixOuter1"></feColorMatrix>
            <feMerge>
                <feMergeNode in="shadowMatrixOuter1"></feMergeNode>
                <feMergeNode in="SourceGraphic"></feMergeNode>
            </feMerge>
        </filter>
        <filter x="-50%" y="-50%" width="200%" height="200%" filterUnits="objectBoundingBox" id="filter-7">
            <feOffset dx="0" dy="0" in="SourceAlpha" result="shadowOffsetOuter1"></feOffset>
            <feGaussianBlur stdDeviation="2" in="shadowOffsetOuter1" result="shadowBlurOuter1"></feGaussianBlur>
            <feColorMatrix values="0 0 0 0 0   0 0 0 0 0   0 0 0 0 0  0 0 0 0.35 0" in="shadowBlurOuter1" type="matrix" result="shadowMatrixOuter1"></feColorMatrix>
            <feMerge>
                <feMergeNode in="shadowMatrixOuter1"></feMergeNode>
                <feMergeNode in="SourceGraphic"></feMergeNode>
            </feMerge>
        </filter>
        <filter x="-50%" y="-50%" width="200%" height="200%" filterUnits="objectBoundingBox" id="filter-8">
            <feOffset dx="0" dy="1" in="SourceAlpha" result="shadowOffsetOuter1"></feOffset>
            <feGaussianBlur stdDeviation="2" in="shadowOffsetOuter1" result="shadowBlurOuter1"></feGaussianBlur>
            <feColorMatrix values="0 0 0 0 0   0 0 0 0 0   0 0 0 0 0  0 0 0 0.35 0" in="shadowBlurOuter1" type="matrix" result="shadowMatrixOuter1"></feColorMatrix>
            <feMerge>
                <feMergeNode in="shadowMatrixOuter1"></feMergeNode>
                <feMergeNode in="SourceGraphic"></feMergeNode>
            </feMerge>
        </filter>
        <filter x="-50%" y="-50%" width="200%" height="200%" filterUnits="objectBoundingBox" id="filter-9">
            <feOffset dx="0" dy="1" in="SourceAlpha" result="shadowOffsetOuter1"></feOffset>
            <feGaussianBlur stdDeviation="2" in="shadowOffsetOuter1" result="shadowBlurOuter1"></feGaussianBlur>
            <feColorMatrix values="0 0 0 0 0   0 0 0 0 0   0 0 0 0 0  0 0 0 0.35 0" in="shadowBlurOuter1" type="matrix" result="shadowMatrixOuter1"></feColorMatrix>
            <feOffset dx="0" dy="0" in="SourceAlpha" result="shadowOffsetInner1"></feOffset>
            <feGaussianBlur stdDeviation="2.5" in="shadowOffsetInner1" result="shadowBlurInner1"></feGaussianBlur>
            <feComposite in="shadowBlurInner1" in2="SourceAlpha" operator="arithmetic" k2="-1" k3="1" result="shadowInnerInner1"></feComposite>
            <feColorMatrix values="0 0 0 0 1   0 0 0 0 1   0 0 0 0 1  0 0 0 0.35 0" in="shadowInnerInner1" type="matrix" result="shadowMatrixInner1"></feColorMatrix>
            <feMerge>
                <feMergeNode in="shadowMatrixOuter1"></feMergeNode>
                <feMergeNode in="SourceGraphic"></feMergeNode>
                <feMergeNode in="shadowMatrixInner1"></feMergeNode>
            </feMerge>
        </filter>
        <filter x="-50%" y="-50%" width="200%" height="200%" filterUnits="objectBoundingBox" id="filter-10">
            <feOffset dx="0" dy="0" in="SourceAlpha" result="shadowOffsetInner1"></feOffset>
            <feGaussianBlur stdDeviation="2.5" in="shadowOffsetInner1" result="shadowBlurInner1"></feGaussianBlur>
            <feComposite in="shadowBlurInner1" in2="SourceAlpha" operator="arithmetic" k2="-1" k3="1" result="shadowInnerInner1"></feComposite>
            <feColorMatrix values="0 0 0 0 1   0 0 0 0 1   0 0 0 0 1  0 0 0 0.35 0" in="shadowInnerInner1" type="matrix" result="shadowMatrixInner1"></feColorMatrix>
            <feMerge>
                <feMergeNode in="SourceGraphic"></feMergeNode>
                <feMergeNode in="shadowMatrixInner1"></feMergeNode>
            </feMerge>
        </filter>
    </defs>
    <g id="website" stroke="none" stroke-width="1" fill="none" fill-rule="evenodd">
        <g id="deliverable">
            <mask id="mask-2" fill="white">
                <use xlink:href="#path-1"></use>
            </mask>
            <use id="Oval-1" fill="#F5EED6" xlink:href="#path-1"></use>
            <g id="deliverable-(3)" filter="url(#filter-3)" mask="url(#mask-2)">
                <g transform="translate(130.000000, 122.000000)">
                    <path d="M33.708662,12 L1,33.8349718 L1,252 L219.186016,252 L241,207.872179 L241,12 L33.708662,12 L33.708662,12 Z" id="Shape" fill="#E8AF30"></path>
                    <g id="Layer_2" stroke-width="1" fill="none">
                        <path d="M0.615974441,34.7098765 L218.901917,34.7098765 L218.901917,253.459877 L0.615974441,253.459877 L0.615974441,34.7098765 L0.615974441,34.7098765 Z" id="Shape" stroke="#262626" stroke-width="2"></path>
                        <path d="M0.615974441,34.7098765 L33.3588658,12.8348765 L240.730511,12.8348765 L240.730511,209.217593 L218.901917,253.459877" id="Shape" stroke="#262626" stroke-width="2"></path>
                        <path d="M218.901917,34.7098765 L240.730511,12.8348765" id="Shape" stroke="#262626" stroke-width="2"></path>
                        <path d="M240.745141,109.45679 C235.94978,118.57716 218.82338,142.337191 218.82338,142.337191 C158.793591,150.51466 58.2811917,144.771605 0.625214058,142.165123 L0.625214058,146.023148 C55.1974696,146.987654 158.896767,153.811728 218.911157,146.023148 C218.911157,146.023148 232.467214,124.27392 240.685853,114.871914 L240.745141,109.45679 L240.745141,109.45679 Z" id="Shape" fill="#F5EED6" filter="url(#filter-4)"></path>
                        <path d="M129.276866,12.8256173 C129.276866,12.8256173 119.392016,25.1936728 107.843265,34.7191358 C107.843265,34.7191358 106.211703,54.3294753 106.384176,71.2692901 C106.816898,113.816358 109.276176,185.794753 108.827284,227.89429 C108.739508,236.109568 107.843265,253.469136 107.843265,253.469136 L111.693105,253.469136 C111.693105,253.469136 110.934687,243.415895 110.934687,188.921296 C110.934687,158.240741 108.130463,102.103395 108.341435,68.8364198 C108.504668,43.0146605 111.998013,34.7878086 111.998013,34.7878086 C121.423192,26.279321 132.501492,12.8657407 132.501492,12.8657407 L129.276866,12.8256173 L129.276866,12.8256173 Z" id="Shape" fill="#F5EED6" filter="url(#filter-5)"></path>
                        <path d="M13.7557078,25.0408951 C47.5958036,23.6450618 122.868422,25.7268519 145.108179,25.0408951 C171.307882,24.2330247 204.208617,23.6851852 229.355003,24.1697531 C229.355003,24.1697531 228.847594,52.4799383 228.981569,57.5354938 C230.663949,120.723765 228.404093,234.287809 228.404093,234.287809 L231.239115,228.489969 C231.239115,228.489969 232.550371,141.611883 231.276073,93.337963 C230.40293,60.2276235 230.513805,23.0447531 230.513805,23.0447531 C167.193942,23.5979938 70.7602116,24.9634728 18.1575342,22.1718061 L13.7557078,25.0408951 Z" id="Shape" fill="#F5EED6" filter="url(#filter-6)"></path>
                        <path d="M102.567394,1.73625049 C85.6120141,12.1115934 121.296309,24.6992986 121.653802,24.6799484 C121.862727,24.7389202 147.643075,30.1514215 143.562084,18.6215222 C139.042816,5.84953031 122.612069,23.3890199 122.042866,24.0856237 C121.278667,21.6336888 117.302603,-7.27997781 102.567394,1.73625049 L102.567394,1.73625049 Z M102.65282,3.72378287 C111.28465,-1.6721326 121.797728,24.3657396 121.797728,24.3657396 C121.797728,24.3657396 89.0513748,12.2267726 102.65282,3.72378287 L102.65282,3.72378287 Z M141.317771,18.5026572 C145.233479,27.3069558 122.472786,24.373111 122.252719,24.3233536 C122.970491,23.4046843 138.953675,13.1859851 141.317771,18.5026572 L141.317771,18.5026572 Z" id="Shape" stroke="#262626" fill="#F5EED6" filter="url(#filter-7)"></path>
                    </g>
                    <g id="Layer_3" filter="url(#filter-8)" stroke-width="1" fill="none" transform="translate(122.948882, 48.629630)">
                        <path d="M51.4398115,27.3072593 C51.4398115,27.3072593 41.695361,79.9299228 34.6922588,90.8994877 C27.6898562,101.868352 31.6682396,76.3336543 23.4288019,71.1841173 C15.1893642,66.0352809 -5.26789457,81.2730062 1.73450799,70.3034414 C8.73761022,59.3338765 51.4398115,27.3072593 51.4398115,27.3072593" id="Shape" stroke="#F5EED6" fill="#527A98" filter="url(#filter-9)"></path>
                        <path d="M49.0608978,30.8516821 C49.0608978,30.8516821 40.5184984,76.9838272 34.3802013,86.5997994 C28.2412045,96.2157716 31.7284121,73.8303488 24.5056102,69.3169722 C17.2821086,64.8028951 -0.651402556,78.1608642 5.48759425,68.5441914 C11.6265911,58.9282191 49.0608978,30.8516821 49.0608978,30.8516821" id="Shape"></path>
                        <path d="M30.7789457,27.3065586 C30.7789457,25.4022809 24.0851022,23.5435432 24.4524345,21.7478611 C24.8190671,19.952179 31.7060224,20.9043179 32.4029042,19.2543642 C33.0997859,17.6044105 27.6072939,13.3523642 28.5973419,11.884571 C29.5873898,10.4174784 35.5843514,13.9268704 36.8304824,12.6783704 C38.0766134,11.430571 34.5719137,5.42558025 36.0377444,4.43420679 C37.5028754,3.44283333 41.7492364,8.94337963 43.396984,8.2448642 C45.0447316,7.54704938 44.0938658,0.651574074 45.887147,0.284450617 C47.6804281,-0.0833734568 49.5373802,6.6194321 51.4391118,6.6194321 C53.3401438,6.6194321 55.1970958,-0.0833734568 56.990377,0.284450617 C58.7836581,0.651574074 57.8327923,7.54704938 59.4805399,8.2448642 C61.1282875,8.94337963 65.3746486,3.44283333 66.8397796,4.43420679 C68.3056102,5.42558025 64.8009105,11.430571 66.0470415,12.6783704 C67.2938722,13.9268704 73.2901342,10.4174784 74.2801821,11.884571 C75.27023,13.3523642 69.777738,17.6044105 70.4746198,19.2543642 C71.1715016,20.9043179 78.0584569,19.952179 78.4250895,21.7478611 C78.7924217,23.5435432 72.0985783,25.4022809 72.0985783,27.3065586 C72.0985783,29.2108364 78.7924217,31.0702747 78.4250895,32.8659568 C78.0584569,34.6616389 71.1715016,33.7095 70.4746198,35.3594537 C69.777738,37.0094074 75.27023,41.2614537 74.2801821,42.7285463 C73.2901342,44.1963395 67.2938722,40.6869475 66.0470415,41.9347469 C64.8009105,43.1825463 68.3056102,49.187537 66.8397796,50.1789105 C65.3746486,51.170284 61.1282875,45.6704383 59.4805399,46.3682531 C57.8327923,47.0660679 58.7836581,53.9622438 56.990377,54.3293673 C55.1970958,54.6971914 53.3401438,47.9943858 51.4391118,47.9943858 C49.5373802,47.9943858 47.6804281,54.6971914 45.887147,54.3293673 C44.0938658,53.9622438 45.0447316,47.0660679 43.396984,46.3682531 C41.7492364,45.6704383 37.5028754,51.170284 36.0377444,50.1789105 C34.5719137,49.187537 38.0766134,43.1825463 36.8304824,41.9347469 C35.5843514,40.6869475 29.5873898,44.1963395 28.5973419,42.7285463 C27.6072939,41.2614537 33.0997859,37.0094074 32.4029042,35.3594537 C31.7060224,33.7095 24.8190671,34.6616389 24.4524345,32.8659568 C24.0851022,31.0702747 30.7789457,29.2108364 30.7789457,27.3065586 L30.7789457,27.3065586 Z" id="Shape" stroke="#F5EED6" fill="#527A98" filter="url(#filter-10)"></path>
                        <path d="M51.4314153,10.4553117 C50.269246,10.4553117 49.1420607,10.5653086 48.0456613,10.7902068 C46.9499617,11.0144043 45.8948435,11.3514012 44.8880032,11.7780772 C43.8811629,12.2047531 42.9142045,12.7232099 42.0186134,13.3285432 C41.1230224,13.9345772 40.2904026,14.6183796 39.5291502,15.3813519 C38.7671981,16.1436235 38.0843099,16.977358 37.4790863,17.8741481 C36.8745623,18.7709383 36.3567987,19.7391914 35.9306933,20.7473796 C35.5045879,21.7562685 35.1680415,22.8120988 34.9441438,23.909966 C34.7195463,25.0071327 34.6096965,26.1358272 34.6096965,27.2995525 C34.6096965,28.4632778 34.7195463,29.6073858 34.9441438,30.7052531 C35.1680415,31.8024198 35.5045879,32.8589506 35.9306933,33.8671389 C36.3567987,34.8753272 36.8745623,35.8281667 37.4790863,36.7249568 C38.0843099,37.6217469 38.7671981,38.4708951 39.5291502,39.2338673 C40.2904026,39.9961389 41.1230224,40.6799414 42.0186134,41.2859753 C42.9142045,41.8920093 43.8811629,42.4097654 44.8880032,42.8364414 C45.8948435,43.2631173 46.9499617,43.6001142 48.0456613,43.8243117 C49.1420607,44.0492099 50.269246,44.1592068 51.4314153,44.1592068 C52.5935847,44.1592068 53.7361629,44.0492099 54.8325623,43.8243117 C55.928262,43.6001142 56.9833802,43.2631173 57.9902204,42.8364414 C58.9970607,42.4097654 59.9486262,41.8920093 60.8442173,41.2859753 C61.7398083,40.6799414 62.5878211,39.9961389 63.3490735,39.2338673 C64.1110256,38.4708951 64.7939137,37.6217469 65.3991374,36.7249568 C66.0036613,35.8281667 66.5214249,34.8753272 66.9475304,33.8671389 C67.3736358,32.8589506 67.7101821,31.8024198 67.9340799,30.7052531 C68.1586773,29.6073858 68.2685272,28.4632778 68.2685272,27.2995525 C68.2685272,26.1358272 68.1586773,25.0071327 67.9340799,23.909966 C67.7101821,22.8120988 67.3736358,21.7562685 66.9475304,20.7473796 C66.5214249,19.7391914 66.004361,18.7709383 65.3991374,17.8741481 C64.7939137,16.977358 64.1110256,16.1436235 63.3490735,15.3813519 C62.5878211,14.6183796 61.7398083,13.9345772 60.8442173,13.3285432 C59.9486262,12.7232099 58.9970607,12.2047531 57.9902204,11.7780772 C56.9833802,11.3514012 55.928262,11.0144043 54.8325623,10.7902068 C53.7361629,10.5653086 52.5935847,10.4553117 51.4314153,10.4553117 L51.4314153,10.4553117 Z M51.4314153,13.5114043 C59.0383419,13.5114043 65.2165208,19.683142 65.2165208,27.2995525 C65.2165208,34.9166636 59.0383419,41.1031142 51.4314153,41.1031142 C43.8251885,41.1031142 37.6617029,34.9166636 37.6617029,27.2995525 C37.6617029,19.683142 43.8244888,13.5114043 51.4314153,13.5114043 L51.4314153,13.5114043 Z" id="Shape" fill="#F5EED6"></path>
                    </g>
                </g>
            </g>
        </g>
    </g>
</svg>