<?xml version="1.0" encoding="UTF-8" standalone="no"?>
<svg width="500px" height="500px" viewBox="0 0 500 500" version="1.1" xmlns="http://www.w3.org/2000/svg" xmlns:xlink="http://www.w3.org/1999/xlink">
    <!-- Generator: Sketch 3.6.1 (26313) - http://www.bohemiancoding.com/sketch -->
    <title>gears</title>
    <desc>Created with Sketch.</desc>
    <defs>
        <circle id="path-1" cx="249" cy="248" r="200"></circle>
        <filter x="-50%" y="-50%" width="200%" height="200%" filterUnits="objectBoundingBox" id="filter-3">
            <feOffset dx="0" dy="10" in="SourceAlpha" result="shadowOffsetOuter1"></feOffset>
            <feGaussianBlur stdDeviation="2" in="shadowOffsetOuter1" result="shadowBlurOuter1"></feGaussianBlur>
            <feColorMatrix values="0 0 0 0 0   0 0 0 0 0   0 0 0 0 0  0 0 0 0.35 0" in="shadowBlurOuter1" type="matrix" result="shadowMatrixOuter1"></feColorMatrix>
            <feMorphology radius="7" in="SourceAlpha" operator="dilate" result="shadowSpreadInner1"></feMorphology>
            <feOffset dx="0" dy="0" in="shadowSpreadInner1" result="shadowOffsetInner1"></feOffset>
            <feGaussianBlur stdDeviation="2.5" in="shadowOffsetInner1" result="shadowBlurInner1"></feGaussianBlur>
            <feComposite in="shadowBlurInner1" in2="SourceAlpha" operator="arithmetic" k2="-1" k3="1" result="shadowInnerInner1"></feComposite>
            <feColorMatrix values="0 0 0 0 1   0 0 0 0 1   0 0 0 0 1  0 0 0 0.35 0" in="shadowInnerInner1" type="matrix" result="shadowMatrixInner1"></feColorMatrix>
            <feMerge>
                <feMergeNode in="shadowMatrixOuter1"></feMergeNode>
                <feMergeNode in="SourceGraphic"></feMergeNode>
                <feMergeNode in="shadowMatrixInner1"></feMergeNode>
            </feMerge>
        </filter>
        <filter x="-50%" y="-50%" width="200%" height="200%" filterUnits="objectBoundingBox" id="filter-4">
            <feOffset dx="0" dy="4" in="SourceAlpha" result="shadowOffsetOuter1"></feOffset>
            <feGaussianBlur stdDeviation="2" in="shadowOffsetOuter1" result="shadowBlurOuter1"></feGaussianBlur>
            <feColorMatrix values="0 0 0 0 0   0 0 0 0 0   0 0 0 0 0  0 0 0 0.35 0" in="shadowBlurOuter1" type="matrix" result="shadowMatrixOuter1"></feColorMatrix>
            <feMorphology radius="5" in="SourceAlpha" operator="dilate" result="shadowSpreadInner1"></feMorphology>
            <feOffset dx="0" dy="0" in="shadowSpreadInner1" result="shadowOffsetInner1"></feOffset>
            <feGaussianBlur stdDeviation="2.5" in="shadowOffsetInner1" result="shadowBlurInner1"></feGaussianBlur>
            <feComposite in="shadowBlurInner1" in2="SourceAlpha" operator="arithmetic" k2="-1" k3="1" result="shadowInnerInner1"></feComposite>
            <feColorMatrix values="0 0 0 0 1   0 0 0 0 1   0 0 0 0 1  0 0 0 0.35 0" in="shadowInnerInner1" type="matrix" result="shadowMatrixInner1"></feColorMatrix>
            <feMerge>
                <feMergeNode in="shadowMatrixOuter1"></feMergeNode>
                <feMergeNode in="SourceGraphic"></feMergeNode>
                <feMergeNode in="shadowMatrixInner1"></feMergeNode>
            </feMerge>
        </filter>
        <filter x="-50%" y="-50%" width="200%" height="200%" filterUnits="objectBoundingBox" id="filter-5">
            <feOffset dx="0" dy="4" in="SourceAlpha" result="shadowOffsetOuter1"></feOffset>
            <feGaussianBlur stdDeviation="2" in="shadowOffsetOuter1" result="shadowBlurOuter1"></feGaussianBlur>
            <feColorMatrix values="0 0 0 0 0   0 0 0 0 0   0 0 0 0 0  0 0 0 0.35 0" in="shadowBlurOuter1" type="matrix" result="shadowMatrixOuter1"></feColorMatrix>
            <feMorphology radius="5" in="SourceAlpha" operator="dilate" result="shadowSpreadInner1"></feMorphology>
            <feOffset dx="0" dy="0" in="shadowSpreadInner1" result="shadowOffsetInner1"></feOffset>
            <feGaussianBlur stdDeviation="1.5" in="shadowOffsetInner1" result="shadowBlurInner1"></feGaussianBlur>
            <feComposite in="shadowBlurInner1" in2="SourceAlpha" operator="arithmetic" k2="-1" k3="1" result="shadowInnerInner1"></feComposite>
            <feColorMatrix values="0 0 0 0 1   0 0 0 0 1   0 0 0 0 1  0 0 0 0.35 0" in="shadowInnerInner1" type="matrix" result="shadowMatrixInner1"></feColorMatrix>
            <feMerge>
                <feMergeNode in="shadowMatrixOuter1"></feMergeNode>
                <feMergeNode in="SourceGraphic"></feMergeNode>
                <feMergeNode in="shadowMatrixInner1"></feMergeNode>
            </feMerge>
        </filter>
    </defs>
    <g id="website" stroke="none" stroke-width="1" fill="none" fill-rule="evenodd">
        <g id="gears">
            <mask id="mask-2" fill="white">
                <use xlink:href="#path-1"></use>
            </mask>
            <use id="Oval-1" stroke="#F5EED6" stroke-width="2.5" fill="#E8AF30" xlink:href="#path-1"></use>
            <path d="M136.00002,245.391775 C136.024828,244.419365 136.061638,243.450153 136.110453,242.484141 C136.160067,241.518128 136.220885,240.555314 136.293707,239.595698 C136.367328,238.636083 136.452153,237.680466 136.548982,236.727248 C136.64581,235.77483 136.753842,234.82561 136.874677,233.880389 C136.994713,232.934368 137.126751,231.992346 137.269993,231.054322 C137.413235,230.116298 137.568481,229.182272 137.73493,228.251445 C137.901379,227.321418 160.608047,230.065118 160.608047,230.065118 C160.85372,229.039929 161.069783,228.13869 161.265841,227.330214 C161.462698,226.521738 161.63955,225.806025 161.805999,225.150288 C161.973248,224.494551 162.130094,223.899589 162.28694,223.334216 C162.443787,222.768043 162.599832,222.231458 162.766281,221.691674 C162.93273,221.151891 163.108782,220.609708 163.304039,220.032339 C163.499297,219.454971 163.71456,218.843216 163.958631,218.165887 L164.904509,215.606913 L165.851187,213.048738 C165.851187,213.048738 145.604441,202.504964 145.983752,201.6677 C146.362264,200.831235 146.750378,199.999568 147.148895,199.1735 C147.547412,198.347431 147.955532,197.526959 148.372454,196.712086 C148.790177,195.898012 149.217502,195.088737 149.65363,194.285858 C150.090559,193.48298 150.536289,192.6857 150.991623,191.894017 C151.446957,191.103134 151.911893,190.317849 152.385633,189.538961 C152.858571,188.760073 153.341913,187.986783 153.833258,187.22069 C154.325402,186.453798 174.171231,197.630918 174.171231,197.630918 L175.766099,195.50377 L177.361768,193.376623 C177.785892,192.819246 178.170805,192.320246 178.537313,191.855633 C178.90302,191.390219 179.250322,190.958392 179.600025,190.534562 C179.949728,190.110732 180.301031,189.694899 180.676341,189.262272 C181.050851,188.828846 181.449368,188.378626 181.891098,187.885224 L183.56679,186.045961 L185.241682,184.206698 C185.241682,184.206698 170.477346,166.888839 171.134339,166.26349 C171.790532,165.638141 172.454727,165.019988 173.126124,164.409833 C173.798321,163.800477 174.47692,163.198318 175.162722,162.604956 C175.848523,162.010794 176.542327,161.424629 177.242533,160.847261 C177.942738,160.269892 178.650146,159.70052 179.363956,159.139945 C180.078566,158.57857 180.799577,158.025991 181.527791,157.482209 C182.255205,156.938427 182.989821,156.402642 183.731638,155.876453 C184.472656,155.349464 198.620811,173.063964 198.620811,173.063964 L200.971902,171.675721 L203.322992,170.288277 C203.959179,169.918825 204.537749,169.587758 205.08511,169.279881 C205.63167,168.972804 206.147022,168.688918 206.655971,168.416227 C207.16412,168.143536 207.666668,167.880442 208.188421,167.614948 C208.709374,167.349455 209.250333,167.080762 209.834505,166.794477 L211.956728,165.782883 L214.078151,164.770488 C214.078151,164.770488 206.944856,143.163948 207.803508,142.825684 C208.66216,142.487419 209.525614,142.158751 210.394669,141.841278 C211.262924,141.523006 212.136781,141.215929 213.015439,140.918448 C213.893297,140.621767 214.776756,140.334682 215.665017,140.058793 C216.552477,139.782903 217.44554,139.51741 218.342603,139.263112 C219.239667,139.008014 220.141532,138.764112 221.047398,138.531405 C221.954064,138.298698 222.863931,138.076387 223.7794,137.865272 C224.694069,137.654157 231.117555,159.522192 231.117555,159.522192 C232.215477,159.347862 233.202968,159.191924 234.106433,159.05358 C235.009898,158.914435 235.829339,158.792084 236.589562,158.683328 C237.348985,158.574572 238.049991,158.480209 238.718187,158.396243 C239.385583,158.312277 240.019369,158.238706 240.645153,158.173932 C241.270937,158.109158 241.888718,158.053181 242.524105,158.002001 C243.158691,157.950022 243.811683,157.90444 244.507087,157.861258 C245.201691,157.818075 245.940308,157.778091 246.746945,157.737307 C247.553582,157.696524 248.428239,157.65574 249.396523,157.612557 C249.396523,157.612557 251.351497,134.97523 252.324583,135.00002 C253.296869,135.02481 254.266754,135.061596 255.233438,135.110376 C256.200121,135.159157 257.163604,135.219932 258.123886,135.293503 C259.084168,135.366274 260.04125,135.45104 260.994329,135.547801 C261.947409,135.644562 262.897288,135.753318 263.843966,135.87327 C264.789844,135.994022 265.732521,136.125169 266.671197,136.269112 C267.609872,136.412254 268.545347,136.567392 269.47602,136.732926 C270.406694,136.899259 267.681093,159.497402 267.681093,159.497402 C268.723799,159.760496 269.67848,160.004399 270.56274,160.233907 C271.446999,160.464214 272.260038,160.679328 273.020261,160.886445 C273.780485,161.093562 274.487892,161.291083 275.158489,161.485405 C275.829886,161.679727 276.465273,161.870051 277.081454,162.061974 C277.698435,162.253897 278.297011,162.447419 278.894787,162.647339 C279.491762,162.847259 280.088737,163.053576 280.701717,163.272689 C281.314697,163.491001 281.943682,163.720509 282.607077,163.96761 C283.271272,164.214711 283.968277,164.478605 284.717297,164.764891 C284.717297,164.764891 295.241187,144.597774 296.078233,144.976022 C296.916079,145.35427 297.748324,145.742915 298.574166,146.140355 C299.400809,146.538596 300.22185,146.946432 301.037289,147.363865 C301.852729,147.781298 302.661767,148.207527 303.465203,148.644152 C304.269439,149.079977 305.067273,149.526198 305.858705,149.981216 C306.650138,150.436233 307.435969,150.900048 308.215398,151.373458 C308.995627,151.846868 309.768654,152.329075 310.536079,152.820878 C311.302704,153.311881 300.099414,173.172721 300.099414,173.172721 C300.952465,173.79887 301.711888,174.357846 302.397689,174.865642 C303.08349,175.374238 303.69567,175.831655 304.257435,176.257084 C304.8184,176.681714 305.32815,177.074357 305.808291,177.452605 C306.287631,177.830854 306.738164,178.194708 307.179893,178.561761 C307.621623,178.928814 308.055351,179.299865 308.502682,179.691708 C308.950013,180.083551 309.410148,180.496985 309.906294,180.949604 C310.40164,181.403022 310.932996,181.894825 311.520368,182.444205 C312.107741,182.994384 312.75193,183.600541 313.475342,184.283467 C313.475342,184.283467 330.881254,169.453411 331.507038,170.109149 C332.133622,170.765685 332.751403,171.429419 333.361983,172.10035 C333.972562,172.771282 334.574339,173.44941 335.168913,174.135535 C335.762688,174.82086 336.34926,175.513383 336.92703,176.213102 C337.504799,176.912822 338.074567,177.619738 338.636332,178.333852 C339.197297,179.047166 339.750259,179.768477 340.294419,180.495386 C340.839379,181.223094 341.374736,181.9572 341.902091,182.697703 C342.429446,183.438206 324.763458,197.535756 324.763458,197.535756 L325.987017,199.626118 L327.211376,201.71728 C327.543474,202.295448 327.848364,202.831233 328.137248,203.350225 C328.426133,203.868418 328.699814,204.369817 328.971893,204.880012 C329.243973,205.389408 329.514453,205.9076 329.796936,206.459379 C330.078619,207.011158 330.372305,207.596524 330.691599,208.241065 L331.85274,210.629708 L333.013881,213.01835 L354.961926,206.752862 C355.300426,207.610918 355.628522,208.473772 355.947016,209.342224 C356.264709,210.210676 356.572799,211.083126 356.869687,211.961174 C357.167374,212.839222 357.453858,213.722068 357.729939,214.608913 C358.00602,215.496557 358.271698,216.3882 358.526973,217.28544 C358.781448,218.181881 359.02552,219.08312 359.258388,219.988357 C359.492057,220.893594 359.924984,222.717663 359.924984,222.717663 L338.22181,230.057121 C338.397862,231.128692 338.551507,232.067516 338.687547,232.909578 C338.823587,233.751641 338.941221,234.496942 339.044452,235.179868 C339.147682,235.862794 339.235708,236.484145 339.313331,237.077508 C339.390953,237.671669 339.456573,238.238642 339.51579,238.812812 C339.574207,239.386982 339.625422,239.969948 339.672636,240.594498 C339.72065,241.219847 339.763863,241.88758 339.806275,242.632881 L339.947117,245.474942 L340.087958,248.317003 C340.087958,248.317003 362.817033,250.27062 362.793026,251.24303 C362.768219,252.21544 362.731408,253.184652 362.682594,254.150665 C362.632979,255.116677 362.572161,256.079491 362.49934,257.039107 C362.425718,257.998722 362.340893,258.954339 362.244065,259.907557 C362.147237,260.859975 362.038405,261.809195 361.918369,262.754416 C361.798334,263.700437 361.666295,264.64166 361.523053,265.580483 C361.379011,266.518508 361.224566,267.452533 361.058117,268.38336 C360.891668,269.313387 338.350648,266.604073 338.350648,266.604073 L337.670448,269.163048 L336.990248,271.721222 C336.806194,272.394552 336.636544,272.99831 336.471696,273.567682 C336.306848,274.137054 336.146,274.67204 335.978751,275.203826 C335.811502,275.736413 335.637851,276.2666 335.448195,276.827975 C335.25854,277.39015 335.052079,277.982713 334.818411,278.63925 L333.914145,281.127052 L333.01068,283.614855 C333.01068,283.614855 353.187805,294.129841 352.809294,294.967105 C352.430783,295.80357 352.042669,296.635237 351.644152,297.461306 C351.245635,298.287375 350.837515,299.107846 350.420593,299.921919 C350.00287,300.736793 349.575544,301.546068 349.138616,302.348947 C348.702488,303.151825 348.256757,303.949105 347.801423,304.739988 C347.34609,305.531671 346.881153,306.316956 346.407414,307.095844 C345.933675,307.874732 345.451133,308.648022 344.958989,309.414115 C344.467644,310.181008 324.735449,299.080657 324.735449,299.080657 L323.141381,301.146229 L321.547313,303.211801 C321.117587,303.76278 320.725472,304.260181 320.350962,304.727993 C319.977252,305.196605 319.621147,305.63483 319.263442,306.068256 C318.905737,306.501682 318.546432,306.929511 318.16632,307.374932 C317.786208,307.821153 317.385291,308.284967 316.943561,308.791165 L315.295077,310.657616 L313.647393,312.523269 C313.647393,312.523269 328.315701,329.745166 327.658708,330.371315 C327.001715,330.996665 326.33832,331.614817 325.666123,332.224173 C324.994725,332.834328 324.316126,333.436487 323.630325,334.029849 C322.943723,334.624011 322.25072,335.209376 321.550514,335.787544 C320.850308,336.364913 320.142901,336.934285 319.429091,337.49486 C318.714481,338.056235 317.993469,338.608014 317.265255,339.152596 C316.537842,339.696378 315.803226,340.232163 315.061408,340.758352 C314.320391,341.285341 300.102615,323.466883 300.102615,323.466883 C299.225557,324.010665 298.438926,324.49687 297.718715,324.938293 C296.999304,325.379716 296.346312,325.777157 295.738133,326.14181 C295.129955,326.506464 294.566589,326.838331 294.02483,327.151006 C293.483071,327.462881 292.962918,327.755564 292.442765,328.041049 C291.922613,328.325735 291.40246,328.604024 290.8583,328.88631 C290.31414,329.169397 289.747574,329.457282 289.134594,329.762759 C288.522414,330.067437 287.863821,330.390508 287.138007,330.743166 C286.411394,331.095825 285.616761,331.478072 284.731701,331.903501 C284.731701,331.903501 291.848191,353.470857 290.989539,353.809121 C290.130886,354.147386 289.267433,354.476054 288.398378,354.793527 C287.530123,355.111799 286.656266,355.418876 285.777608,355.716357 C284.89975,356.013038 284.016291,356.299323 283.12803,356.576012 C282.239769,356.851902 281.347507,357.117395 280.450443,357.371693 C279.55338,357.625991 278.651515,357.869894 277.744849,358.1034 C276.838983,358.336107 275.928315,358.558418 275.013647,358.769533 C274.098978,358.979849 267.673091,337.102217 267.673091,337.102217 L265.187561,337.499658 L262.701231,337.896299 C262.036235,337.997059 261.429657,338.083424 260.845486,338.160193 C260.262114,338.236963 259.70195,338.304136 259.128181,338.364911 C258.555213,338.424887 257.970241,338.480065 257.337255,338.532044 C256.704269,338.584024 256.023269,338.634403 255.259045,338.685583 L252.327784,338.862312 L249.396523,339.039041 C249.396523,339.039041 247.441549,361.659575 246.468463,361.634785 C245.495378,361.609995 244.526293,361.573209 243.559609,361.524429 C242.592925,361.475649 241.628642,361.414073 240.66916,361.341302 C239.708878,361.268532 238.751797,361.183766 237.798717,361.087004 C236.845637,360.990243 235.895758,360.881487 234.94908,360.761535 C234.003203,360.640783 233.060526,360.508836 232.12185,360.365693 C231.183174,360.222551 230.2477,360.067413 229.317026,359.90108 C228.385553,359.735546 231.078344,337.302137 231.078344,337.302137 L228.704046,336.651198 L226.328949,336.000259 C225.674356,335.816333 225.068579,335.642003 224.486007,335.470072 C223.902636,335.29894 223.342472,335.129408 222.778306,334.952679 C222.21334,334.77675 221.643573,334.593623 221.042596,334.396102 C220.440819,334.197782 219.807834,333.985067 219.11483,333.747562 L216.573284,332.861517 L214.031737,331.974673 C214.031737,331.974673 203.551859,352.037032 202.714814,351.658783 C201.876968,351.280535 201.044723,350.891891 200.21808,350.49365 C199.392238,350.096209 198.571197,349.688373 197.755757,349.27094 C196.940318,348.853508 196.13128,348.426479 195.327044,347.990653 C194.523608,347.554028 193.725774,347.108607 192.934341,346.653589 C192.142109,346.198572 191.357078,345.734758 190.576849,345.261347 C189.79742,344.787937 189.024393,344.30573 188.256968,343.813927 C187.490342,343.322125 198.673627,323.492472 198.673627,323.492472 L196.666637,321.997072 L194.660448,320.502471 C194.132293,320.102631 193.658554,319.737177 193.211222,319.385318 C192.763891,319.033459 192.343768,318.695195 191.925245,318.348134 C191.505922,318.001073 191.088199,317.646016 190.644869,317.26057 C190.201539,316.875125 189.733401,316.459291 189.214049,315.992278 L187.24387,314.193799 L185.273691,312.39612 C185.273691,312.39612 167.911792,327.181394 167.286009,326.524857 C166.659425,325.86912 166.041643,325.205386 165.431064,324.534455 C164.820485,323.863524 164.218708,323.185395 163.624133,322.49927 C163.029559,321.813945 162.443787,321.121423 161.866017,320.421703 C161.288247,319.721184 160.71848,319.015067 160.156715,318.300953 C159.59575,317.586839 159.042788,316.866328 158.498628,316.139419 C157.953668,315.411711 157.418311,314.677605 156.890956,313.937102 C156.363601,313.195799 174.23525,298.960705 174.23525,298.960705 C173.738304,298.181017 173.292573,297.481298 172.886854,296.835956 C172.481134,296.191415 172.114627,295.60285 171.774527,295.047073 C171.434427,294.490496 171.120735,293.967506 170.821447,293.454112 C170.522159,292.939918 170.237275,292.43612 169.953992,291.919527 C169.669909,291.402134 169.388226,290.871947 169.09534,290.304974 C168.801654,289.738001 168.497564,289.135043 168.170268,288.472108 C167.842172,287.809174 167.490869,287.087863 167.102755,286.283386 C166.715441,285.478908 166.291317,284.592064 165.819178,283.599661 C165.819178,283.599661 144.16962,290.7392 143.83112,289.881943 C143.492621,289.023887 143.164524,288.160233 142.846031,287.292581 C142.528338,286.424129 142.220247,285.551679 141.92336,284.673631 C141.625673,283.795583 141.339188,282.912737 141.063107,282.025892 C140.787026,281.138248 140.521348,280.245806 140.266073,279.349365 C140.011599,278.452924 139.767527,277.551685 139.534658,276.646448 C139.30099,275.741211 139.079325,274.831176 138.868063,273.917142 C138.656801,273.003108 160.557633,266.580083 160.557633,266.580083 C160.335968,265.438141 160.147912,264.443339 159.986265,263.557294 C159.825418,262.67125 159.690978,261.894761 159.578945,261.190243 C159.466112,260.485725 159.374885,259.853979 159.298863,259.256618 C159.223641,258.660057 159.163623,258.097883 159.113208,257.534908 C159.062794,256.971134 159.021982,256.405761 158.985171,255.802003 C158.94916,255.197445 158.916351,254.554503 158.88114,253.836391 L158.7435,251.076697 L158.605059,248.317003 C158.605059,248.317003 135.975213,246.364185 136.00002,245.391775 Z M249.396523,180.414618 L249.396523,225.646089 C249.396523,225.646089 256.794696,226.014741 262.021831,229.479753 C267.248966,232.943964 270.305064,239.503735 270.305064,239.503735 L312.203769,221.80283 C312.203769,221.80283 308.889996,208.230669 287.514118,191.824445 C270.491519,178.760081 249.396523,180.414618 249.396523,180.414618 Z M317.363684,248.334596 L272.100791,248.29941 C272.100791,248.29941 271.726281,255.691647 268.254862,260.912754 C264.784242,266.133862 258.216714,269.18224 258.216714,269.18224 L275.897106,311.066253 C275.897106,311.066253 289.481896,307.765176 305.916322,286.416932 C319.002566,269.416546 317.363684,248.334596 317.363684,248.334596 Z M249.446138,316.268168 L249.417329,271.035897 C249.417329,271.035897 242.018356,270.672043 236.789621,267.21103 C231.560085,263.750017 228.499986,257.191846 228.499986,257.191846 L186.611684,274.919141 C186.611684,274.919141 189.93426,288.489701 211.321341,304.882331 C228.351943,317.9355 249.446138,316.268168 249.446138,316.268168 Z M181.278118,248.528918 L226.541011,248.340193 C226.541011,248.340193 226.87951,240.945557 230.324522,235.708456 C233.769534,230.470556 240.321058,227.389391 240.321058,227.389391 L222.434205,185.593342 C222.434205,185.593342 208.86622,188.960793 192.537425,210.390604 C179.535206,227.454964 181.278118,248.528918 181.278118,248.528918 Z M238.053192,248.317003 C238.053192,242.057112 243.131483,236.981546 249.396523,236.981546 C255.661563,236.981546 260.739855,242.057112 260.739855,248.317003 C260.739855,254.577693 255.661563,259.652459 249.396523,259.652459 C243.131483,259.652459 238.053192,254.577693 238.053192,248.317003 Z" id="Combined-Shape" fill="#F5EED6" filter="url(#filter-3)" mask="url(#mask-2)"></path>
            <path d="M364.904671,226.627692 C365.933773,214.610909 365.896962,214.800433 369.66767,202.099923 L356.964739,191.698492 C358.025851,189.745675 359.178989,187.850434 360.417753,186.018369 C361.656517,184.185503 362.980906,182.415813 364.386119,180.714894 L379.012014,188.687699 C388.202713,180.942003 388.610833,180.674111 398.909058,175.185111 L397.082121,158.742101 C399.241155,158.07117 401.445002,157.503397 403.689662,157.044381 C405.933521,156.585365 408.216591,156.235106 410.534072,156 L415.494729,171.94241 C427.731922,172.963601 429.340395,173.301865 439.531388,177.089947 L450.443392,163.95921 C452.396766,165.019585 454.293323,166.171923 456.127462,167.409827 C457.9608,168.64853 459.73172,169.972 461.43462,171.376237 L453.369852,186.075946 C461.554656,195.704087 461.472231,196.299048 467.020261,205.738465 L483.422678,204.049542 C484.094075,206.207077 484.662242,208.409394 485.121577,210.651696 C485.580112,212.893997 485.930615,215.176282 486.165884,217.492154 L470.188391,222.469359 C469.608221,232.245441 468.944826,235.858393 465.254142,246.766821 L478.201145,257.37297 C477.140033,259.325787 475.986894,261.221027 474.74813,263.053093 C473.509367,264.885958 472.184177,266.655649 470.779765,268.356567 L456.260301,260.358173 C446.65588,268.331777 446.697492,268.304588 436.213613,273.796787 L438.082962,290.329361 C435.924729,291.000292 433.720081,291.568064 431.476222,292.02708 C429.232363,292.486096 426.949293,292.835556 424.631812,293.071462 L419.683159,277.129051 C407.70124,276.15904 406.875397,276.578872 395.336008,272.146248 L384.722491,285.112252 C382.769118,284.051877 380.872561,282.899538 379.038422,281.661635 C377.204283,280.422931 375.433363,279.099462 373.731263,277.695224 L381.793631,263.002713 C374.547503,254.744423 373.68565,253.480929 368.314472,243.173861 L351.743206,245.02192 C351.071808,242.864385 350.503642,240.662067 350.044307,238.419766 C349.584972,236.177465 349.235269,233.895179 349,231.579308 L364.904671,226.627692 Z M425.708128,216.382998 L441.92169,200.020756 C441.92169,200.020756 435.075679,193.444992 424.360532,190.985978 C413.756618,188.553353 404.575522,192.62612 404.575522,192.62612 L413.242067,213.894396 C413.242067,213.894396 416.579047,212.622106 419.695962,213.244256 C422.812078,213.866407 425.708128,216.382998 425.708128,216.382998 Z M425.790552,232.67167 L442.208974,248.829194 C442.208974,248.829194 448.770101,241.969543 451.201215,231.255438 C453.607522,220.652487 449.506317,211.48896 449.506317,211.48896 L428.247274,220.207865 C428.247274,220.207865 429.52925,223.53933 428.91467,226.654881 C428.30089,229.770433 425.790552,232.67167 425.790552,232.67167 Z M409.483363,232.683665 L393.2634,249.041109 C393.2634,249.041109 400.10781,255.618473 410.822156,258.080686 C421.42447,260.518109 430.607967,256.44774 430.607967,256.44774 L421.947824,235.177066 C421.947824,235.177066 418.610043,236.447756 415.493928,235.824806 C412.377813,235.201056 409.483363,232.683665 409.483363,232.683665 Z M409.571389,216.664486 L393.36823,200.291848 C393.36823,200.291848 386.716677,207.064333 384.144722,217.744853 C381.598374,228.315816 385.578743,237.532921 385.578743,237.532921 L406.950619,229.094704 C406.950619,229.094704 405.712656,225.747245 406.368048,222.639691 C407.023441,219.532136 409.571389,216.664486 409.571389,216.664486 Z" id="Combined-Shape" fill="#F5EED6" filter="url(#filter-4)" mask="url(#mask-2)"></path>
            <path d="M99.5059064,383.833055 C99.5435174,374.772687 100.400569,374.502395 103.085358,366.196124 L85.0336561,351.414049 C86.0811637,349.486821 87.2198981,347.615571 88.4426573,345.806696 C89.6654164,343.997821 90.9738006,342.250522 92.3606079,340.570395 L112.72819,351.704333 C119.177284,346.282506 119.645421,346.14656 127.213244,342.044204 L124.640488,318.878289 C126.771514,318.215355 128.947353,317.655579 131.162403,317.202161 C133.378254,316.749543 135.632516,316.404081 137.920388,316.171374 L144.879232,338.53761 C153.673014,339.345286 154.316403,339.476434 162.534017,342.069794 L177.320759,324.029025 C179.249326,325.076605 181.121876,326.213749 182.932007,327.43566 C184.742139,328.658369 186.490653,329.965046 188.171146,331.35089 L176.975858,351.758711 C183.184882,359.523599 183.104058,359.394051 186.660302,366.195325 L209.879121,363.608361 C210.541716,365.737908 211.102681,367.912236 211.556414,370.126549 C212.009347,372.340062 212.355049,374.592759 212.587917,376.879043 L190.266962,383.833055 C189.453923,392.325652 189.185044,393.640325 186.702715,401.489179 L204.724808,416.252062 C203.6765,418.179289 202.538566,420.050539 201.315806,421.859414 C200.092247,423.669089 198.784663,425.416389 197.397056,427.095716 L176.836617,415.768256 C170.790042,421.055736 170.00341,421.591522 162.481201,425.472366 L165.117976,448.787821 C162.98695,449.450756 160.811111,450.011331 158.59526,450.46395 C156.38021,450.917368 154.125948,451.262829 151.838076,451.494736 L144.879232,429.076522 C134.869092,428.065727 136.42875,428.386398 127.244453,425.549136 L112.437704,443.637086 C110.509138,442.590305 108.636588,441.452361 106.826456,440.230451 C105.015524,439.007741 103.267011,437.701065 101.586517,436.31522 L112.787407,415.902602 C106.493559,408.015363 107.160154,409.040552 103.104563,401.468387 L79.8785421,404.057749 C79.2159475,401.928203 78.6549828,399.753874 78.2020497,397.540361 C77.7483165,395.326049 77.402615,393.073352 77.1705468,390.787068 L99.5059064,383.833055 Z M152.900788,375.784281 L168.907889,359.630756 C168.907889,359.630756 162.148304,353.138958 151.570797,350.711131 C141.102123,348.308894 132.03706,352.330482 132.03706,352.330482 L140.593973,373.326866 C140.593973,373.326866 143.888541,372.071369 146.964644,372.685523 C150.041548,373.299677 152.900788,375.784281 152.900788,375.784281 Z M152.982412,391.865036 L169.191172,407.817043 C169.191172,407.817043 175.668274,401.045357 178.068979,390.467196 C180.444077,379.999392 176.394888,370.952618 176.394888,370.952618 L155.407124,379.560368 C155.407124,379.560368 156.673096,382.84945 156.066517,385.925017 C155.46074,389.001384 152.982412,391.865036 152.982412,391.865036 Z M136.882483,391.877031 L120.869781,408.026559 C120.869781,408.026559 127.626965,414.519956 138.204472,416.950982 C148.672346,419.356418 157.738208,415.338028 157.738208,415.338028 L149.188497,394.338445 C149.188497,394.338445 145.89313,395.593142 142.817026,394.978188 C139.740123,394.362435 136.882483,391.877031 136.882483,391.877031 Z M136.969709,376.06257 L120.973011,359.897849 C120.973011,359.897849 114.406282,366.583969 111.867137,377.129342 C109.353599,387.56436 113.282752,396.664712 113.282752,396.664712 L134.382549,388.333652 C134.382549,388.333652 133.15979,385.028576 133.80718,381.961006 C134.45377,378.893435 136.969709,376.06257 136.969709,376.06257 Z" id="Combined-Shape" fill="#F5EED6" filter="url(#filter-5)" mask="url(#mask-2)">
                <g transform="translate(144.879232, 383.833055) rotate(1.000000) translate(-144.879232, -383.833055) "></g>
            </path>
        </g>
    </g>
</svg>