<?xml version="1.0" encoding="UTF-8"?>
<svg width="1530px" height="500px" viewBox="0 0 1530 500" version="1.1" xmlns="http://www.w3.org/2000/svg" xmlns:xlink="http://www.w3.org/1999/xlink">
    <!-- Generator: Sketch 55.2 (78181) - https://sketchapp.com -->
    <title>Group@1x</title>
    <desc>Created with Sketch.</desc>
    <g id="logos-b/w" stroke="none" stroke-width="1" fill="none" fill-rule="evenodd">
        <g id="logo-landscape---light-copy" transform="translate(-231.000000, -280.000000)" stroke="#262626">
            <g id="Group" transform="translate(231.000000, 280.000000)">
                <g id="box">
                    <path d="M495,5.5 L422.5,77.5" id="Line" stroke-width="5" stroke-linecap="square"></path>
                    <polyline id="Line" stroke-width="5" stroke-linecap="square" points="4.5 77.5 422.5 77.5 422.5 495"></polyline>
                    <path d="M497.5,2.5 L113.008341,2.5 L2.5,76.3363081 L2.5,497.5 L423.623629,497.5 L497.5,380.775334 L497.5,2.5 Z" id="Rectangle-2" stroke-width="5"></path>
                    <path d="M345.184962,0.5 L293.202614,45.0562986 L320.604563,77.4404203 L230.545936,240.046274 L265.629014,340.283638 L129.945827,395.561973 L0.5,310.924316 L0.5,314.740695 L119.021206,398.275802 L100.482211,405.351142 L95.5270078,499.5 L99.5270068,499.5 L104.519998,409.626155 L264.850863,359.52276 L264.993141,359.500047 C265.063241,359.499085 265.063241,359.499085 265.390469,359.494764 C265.711982,359.490564 266.080769,359.485884 266.49116,359.480844 C267.663663,359.466445 268.934559,359.452046 270.258507,359.438607 C272.122251,359.419688 273.937181,359.404253 275.645475,359.393526 C282.046528,359.35333 285.831671,359.38003 286.371268,359.514929 C300.017061,362.926377 318.26473,368.071796 339.985266,374.555311 C342.895954,375.424143 345.857411,376.313605 348.865583,377.222276 C365.016377,382.100906 381.843615,387.327888 398.352956,392.554857 C404.1312,394.384288 409.457005,396.083053 414.206061,397.607602 C415.868279,398.141209 417.339689,398.61493 418.604754,399.023321 C419.047556,399.166267 419.432944,399.290839 419.758976,399.396357 C420.087003,399.502572 420.087003,399.502572 420.154291,399.524401 L420.268587,399.56148 L425.353553,404.646447 L425.468165,404.824438 L440.485071,444.878732 L445.192305,463.707667 L447.4718,459.908508 L444.481531,444.957089 L499.5,299.908358 L499.5,297.362975 C499.020601,298.445013 498.481555,299.661618 497.887042,301.003341 C495.842469,305.61762 493.563904,310.759244 491.109653,316.296377 C484.097507,332.116761 477.082305,347.937147 470.530499,362.702854 C470.493711,362.785762 470.493711,362.785762 470.456923,362.868669 C462.039588,381.838589 455.021426,397.637984 449.868124,409.213904 C446.940569,415.790103 444.653887,420.91552 443.06623,424.458667 C442.228157,426.328981 441.586697,427.754303 441.149,428.718462 C440.924182,429.213691 440.753087,429.587331 440.636359,429.837887 C440.576421,429.966542 440.530523,430.063386 440.498201,430.129302 C440.474511,430.177237 440.474511,430.177237 440.453452,430.217213 C440.442272,430.237741 440.442272,430.237741 440.421829,430.270576 C440.406907,430.293534 440.406907,430.293534 440.362032,430.345705 C440.283443,430.49301 440.283443,430.49301 439.621588,430.32681 C438.167875,428.643563 435.814352,424.075971 432.769257,417.293831 C432.334468,416.325453 431.888922,415.318969 431.433924,414.278098 C429.846912,410.647583 428.213461,406.758583 426.624426,402.869697 C426.068299,401.508673 425.557428,400.244833 425.103187,399.110537 C424.944173,398.713456 424.803584,398.360905 424.682844,398.056927 C424.653175,397.982232 424.627319,397.917057 424.605358,397.861644 L419.809842,395.462429 L285.867207,340.383214 L244.448813,239.974986 L329.393705,77.5803389 L299.289171,44.967078 L348.697021,0.5 L345.184962,0.5 Z M439.574299,429.74056 C439.574228,429.740702 439.574272,429.740667 439.574327,429.740622 C439.574455,429.74038 439.57458,429.740142 439.574704,429.739908 Z" id="Path-31" fill="#262626"></path>
                </g>
                <g id="sockel" transform="translate(530.000000, 0.000000)" fill="#262626">
                    <rect id="Rectangle-2" x="0.5" y="0.5" width="999" height="49"></rect>
                    <path d="M10.5,80.5 L10.5,229.5 L111.381503,229.5 C119.31685,229.5 126.596289,227.845882 133.226239,224.538059 C139.846869,221.234885 145.05836,216.608458 148.869172,210.653458 C152.676466,204.703954 154.580427,197.85731 154.580427,190.101744 C154.580427,169.691077 145.196447,157.396707 126.346246,153.08918 L125.957632,153.000376 L125.957632,151.352726 L126.319995,151.248968 C142.852431,146.515113 151.084513,135.086489 151.084513,116.84593 C151.084513,109.96577 149.255334,103.738505 145.594687,98.1519457 C141.929743,92.5588303 136.97277,88.2218755 130.715612,85.135929 C124.449312,82.0454737 117.569692,80.5 110.070536,80.5 L10.5,80.5 Z M99.838314,135.392844 C97.6306546,137.747665 94.8398771,138.930233 91.4984929,138.930233 L57.7873108,138.930233 L57.7873108,112.421512 L91.4984929,112.421512 C94.6936878,112.421512 97.4447705,113.60345 99.7232248,115.952774 C101.999135,118.299475 103.141719,121.14977 103.141719,124.476744 L103.141719,126.656977 C103.141719,130.124362 102.039311,133.04513 99.838314,135.392844 Z M103.334228,192.07889 C101.126568,194.433711 98.3357911,195.616279 94.9944068,195.616279 L57.7873108,195.616279 L57.7873108,168.889535 L94.9944068,168.889535 C98.3357911,168.889535 101.126568,170.072103 103.334228,172.426924 C105.535224,174.774637 106.637632,177.695406 106.637632,181.162791 L106.637632,183.343023 C106.637632,186.810408 105.535224,189.731177 103.334228,192.07889 Z M326.203046,229.5 L292.895289,166.938302 L293.433158,166.740133 C302.805235,163.287139 309.929438,157.901658 314.821235,150.579793 C319.718474,143.249781 322.1658,135.061744 322.1658,126.002907 C322.1658,117.80126 320.256588,110.216833 316.437136,103.241595 C312.624266,96.2783785 306.940914,90.750859 299.37647,86.6533052 C291.806736,82.5528866 282.675101,80.5 271.975048,80.5 L180.488814,80.5 L180.488814,229.5 L227.776125,229.5 L227.776125,174.776163 L246.505294,174.776163 L273.161637,229.5 L326.203046,229.5 Z M227.776125,142.418605 L227.776125,113.729651 L259.957844,113.729651 C263.876707,113.729651 267.208502,115.089718 269.924779,117.800135 C272.642299,120.511792 274.004511,123.909975 274.004511,127.965116 C274.004511,132.01841 272.643739,135.450719 269.929594,138.234239 C267.213317,141.019944 263.879582,142.418605 259.957844,142.418605 L227.776125,142.418605 Z M479.481926,115.473837 L479.481926,80.5 L350.477627,80.5 L350.477627,229.5 L481.011388,229.5 L481.011388,194.526163 L397.764938,194.526163 L397.764938,170.633721 L467.683216,170.633721 L467.683216,137.186047 L397.764938,137.186047 L397.764938,115.473837 L479.481926,115.473837 Z M608.828914,229.5 L658.869325,229.5 L604.39279,80.5 L548.9388,80.5 L494.462265,229.5 L542.754718,229.5 L549.091062,208.351744 L602.49257,208.351744 L608.828914,229.5 Z M575.091561,121.360465 L576.71203,121.360465 L592.738155,175.776163 L558.84285,175.776163 L575.091561,121.360465 Z M838.303957,80.5 L779.771912,80.5 L725.506867,145.477574 L725.506867,80.5 L678.219556,80.5 L678.219556,229.5 L725.506867,229.5 L725.506867,196.186877 L752.368625,174.2971 L783.761805,229.5 L839.597019,229.5 L784.81693,141.6505 L838.303957,80.5 Z" id="BREAK"></path>
                    <path d="M69.5,419.5 L69.5,349.5 L99.5,349.5 L99.5,330.5 L10.5,330.5 L10.5,349.5 L40.5,349.5 L40.5,419.5 L69.5,419.5 Z M170.5,419.5 L199.5,419.5 L199.5,330.5 L170.5,330.5 L170.5,366.5 L139.5,366.5 L139.5,330.5 L110.5,330.5 L110.5,419.5 L139.5,419.5 L139.5,385.5 L170.5,385.5 L170.5,419.5 Z M299.5,330.5 L220.5,330.5 L220.5,419.5 L299.5,419.5 L299.5,400.5 L249.527174,400.5 L249.527174,383.5 L289.5,383.5 L289.5,366.5 L249.527174,366.5 L249.527174,349.5 L299.5,349.5 L299.5,330.5 Z" id="THE"></path>
                    <path d="M340.5,270.5 L340.5,419.5 L440.19569,419.5 C448.036503,419.5 455.229135,417.846264 461.780199,414.539116 C468.322431,411.236427 473.47243,406.610481 477.238526,400.655706 C481.00156,394.705773 482.883488,387.858269 482.883488,380.101744 C482.883488,359.68975 473.609521,347.395716 454.982843,343.088892 L454.59548,342.999327 L454.59548,341.353952 L454.956339,341.249401 C471.292767,336.516309 479.428464,325.087824 479.428464,306.84593 C479.428464,299.964775 477.620433,293.73666 474.002337,288.149691 C470.380419,282.55682 465.481976,278.220352 459.298972,275.134888 C453.107301,272.045099 446.309798,270.5 438.900056,270.5 L340.5,270.5 Z M420.822726,329.008721 L387.5,329.008721 L387.5,302.5 L420.822726,302.5 C423.983413,302.5 426.704624,303.682941 428.957495,306.033378 C431.206733,308.380024 432.335614,311.229468 432.335614,314.555233 L432.335614,316.735465 C432.335614,320.201688 431.246433,323.121565 429.071267,325.469186 C426.888384,327.825135 424.127875,329.008721 420.822726,329.008721 Z M424.27775,385.226744 L387.5,385.226744 L387.5,358.5 L424.27775,358.5 C427.582899,358.5 430.343408,359.683586 432.526291,362.039535 C434.701457,364.387156 435.790638,367.307033 435.790638,370.773256 L435.790638,372.953488 C435.790638,376.419712 434.701457,379.339588 432.526291,381.687209 C430.343408,384.043158 427.582899,385.226744 424.27775,385.226744 Z M663.942668,345 C663.942668,320.693299 657.01131,302.218801 643.159003,289.540182 C629.29575,276.851543 609.621854,270.5 584.113364,270.5 C558.604737,270.5 538.966748,276.816601 525.175632,289.434902 C511.395737,302.042937 504.5,320.552582 504.5,345 C504.5,369.447418 511.395737,387.957063 525.175632,400.565098 C538.966748,413.183399 558.604737,419.5 584.113364,419.5 C609.621854,419.5 629.29575,413.148457 643.159003,400.459818 C657.01131,387.781199 663.942668,369.306701 663.942668,345 Z M552.040513,338.258427 C552.040513,327.890748 554.742267,319.6269 560.155265,313.489495 C565.583844,307.334423 573.49544,304.261236 583.851666,304.261236 C594.206986,304.261236 602.153533,307.333775 607.653824,313.487003 C613.140127,319.624584 615.878758,327.889537 615.878758,338.258427 L615.878758,351.741573 C615.878758,362.110463 613.140127,370.375416 607.653824,376.512997 C602.153533,382.666225 594.206986,385.738764 583.851666,385.738764 C573.49544,385.738764 565.583844,382.665577 560.155265,376.510505 C554.742267,370.3731 552.040513,362.109252 552.040513,351.741573 L552.040513,338.258427 Z M781.551212,419.5 L838.198985,419.5 L785.412432,340.855821 L833.225848,270.5 L781.11857,270.5 L758.444976,308.872093 L757.009192,308.872093 L734.551538,270.5 L678.126118,270.5 L725.723952,340.637613 L672.936356,419.5 L725.266785,419.5 L752.691036,372.843023 L754.12696,372.843023 L781.551212,419.5 Z" id="BOX"></path>
                    <rect id="Rectangle-3" x="10.5" y="270.5" width="289" height="29"></rect>
                    <path d="M937.045308,132.837203 L937.045308,153.340448 C941.427543,153.233013 945.147547,151.704945 948.229461,148.749311 C951.457708,145.653342 953.905559,141.465228 955.57002,136.176975 C955.743495,135.625817 956.440142,133.447047 956.607969,132.915004 C958.584779,126.648139 959.470705,122.523262 959.470705,118 C959.470705,106.937736 956.235898,97.6356945 950.543086,90.2359665 C945.549115,83.7446167 938.226091,80.5 928.525151,80.5 C918.69956,80.5 911.339636,83.3655466 906.405111,89.0863056 C901.965398,94.2334123 900.476549,101.617714 900.476549,115 C900.476549,127.300438 901.708526,134.142104 905.633062,139.705744 L906.003809,140.231336 L900.476549,142.344157 L900.476549,153.346542 L931.402059,153.346545 L931.402059,116.964915 L920.58288,116.964915 L920.58288,132.854654 L920.08288,132.854654 C917.633098,132.854654 915.63344,131.454967 914.116232,128.72711 C912.637127,126.067762 911.900414,122.860907 911.900414,119.113205 C911.900414,113.706626 913.101518,109.586147 915.524847,106.768042 C917.960768,103.935294 921.407188,102.519751 925.823624,102.519751 L931.226677,102.519751 C935.643114,102.519751 939.089534,103.935294 941.525454,106.768042 C943.948783,109.586147 945.149888,113.706626 945.149888,119.113205 C945.149888,122.863711 944.383629,126.073307 942.845577,128.734288 C941.371627,131.284366 939.427387,132.6689 937.045308,132.837203 Z M900.476549,200.340328 L900.476549,219.664944 L942.739079,237.038721 L938.900286,236.524103 C938.718259,236.499701 931.052095,236.492892 919.474589,236.502902 C916.460183,236.505509 913.261662,236.509106 909.972919,236.513444 C907.470512,236.516744 905.06012,236.520281 902.830237,236.523817 C901.58168,236.525821 901.58168,236.525821 900.73486,236.527235 C900.633317,236.527408 900.548302,236.527553 900.476549,236.527675 L900.476549,253.52574 L959.470701,253.52574 L959.470701,224.339191 L923.314575,209.954405 L959.470701,195.660019 L959.470701,166.539397 L900.476549,166.539397 L900.476549,183.537433 C900.555062,183.537561 900.649541,183.537716 900.764358,183.537904 C901.644182,183.539319 901.644182,183.539319 902.941375,183.541323 C905.258108,183.544859 907.762293,183.548396 910.361962,183.551697 C913.775589,183.556031 917.095521,183.559626 920.224405,183.562232 C932.254333,183.572252 940.218074,183.565446 940.400139,183.541039 L944.470949,182.995317 L900.476549,200.340328 Z M959.470701,253.52574 L959.970701,253.52574 L959.470701,254.02574 L959.470701,253.52574 Z M959.470705,264.524196 L900.476549,264.524196 L900.476549,310.017063 C900.476549,315.224905 900.827829,318.755545 901.887368,321.312245 C903.149508,324.357827 904.912065,326.748138 907.175879,328.492238 C909.4234,330.223786 912.003369,331.087539 914.933095,331.087539 C922.673456,331.087539 927.317021,326.820494 928.962571,318.150993 L929.039778,317.744233 L930.186519,317.744233 L930.277923,318.12854 C932.083698,325.720964 936.39289,329.457823 943.299125,329.457823 C945.887233,329.457823 948.226634,328.630531 950.334223,326.967906 C952.459085,325.291654 954.110331,323.019497 955.288792,320.142768 C955.503296,319.619145 955.777514,319.052773 956.146116,318.356241 C956.290421,318.083553 956.443896,317.800427 956.650706,317.423777 C956.660879,317.40525 957.059001,316.682072 957.174803,316.470225 C958.088989,314.797834 958.614301,313.706927 958.991544,312.591795 C959.307634,311.657432 959.470705,310.806981 959.470705,310.017063 L959.470705,264.524196 Z M939.753259,308.732028 L939.636036,308.800853 L939.500103,308.800853 C938.168721,308.800853 937.050245,308.128148 935.941087,306.876268 C935.864947,306.790331 935.480813,306.363209 935.368928,306.237371 C935.105882,305.94152 934.882454,305.682474 934.667785,305.421381 C934.240598,304.901812 933.886688,304.419467 933.605356,303.957086 C933.153839,303.214998 932.904201,302.549839 932.904201,301.947064 L932.904201,283.214607 L945.318734,283.214607 L945.318734,301.947064 C945.318734,303.267214 944.330904,304.75243 942.517341,306.869938 C942.114016,307.340859 941.600142,307.688824 940.566937,308.270279 C940.421405,308.352015 940.421405,308.352015 940.276472,308.433279 C940.050864,308.559925 939.901574,308.644947 939.753259,308.732028 Z M918.831095,309.271503 C918.530545,309.271503 918.271152,309.328256 917.856007,309.465156 C916.992586,309.749882 916.76278,309.794286 916.289844,309.623757 C916.026718,309.52888 915.78749,309.356239 915.563192,309.103079 C913.988855,307.326164 912.491372,304.966197 912.491372,303.576781 L912.491373,283.214607 L925.170817,283.214607 L925.170817,303.576782 C925.170817,304.969233 923.666768,307.373004 922.133932,309.103079 C921.944788,309.316561 921.744097,309.472751 921.526095,309.573585 C921.013306,309.81077 920.741178,309.765813 919.817414,309.465868 C919.393443,309.328204 919.13205,309.271503 918.831095,309.271503 Z M900.476549,369.507753 L924.474211,369.507753 L924.474211,400.503103 L900.476549,400.503103 L900.476549,419.500002 L959.470703,419.500002 L959.470703,400.503103 L938.472749,400.503103 L938.472749,369.507753 L959.470703,369.507753 L959.470703,350.948702 L900.476549,350.948702 L900.476549,369.507753 Z" id="GMBH"></path>
                    <rect id="Rectangle" x="870.5" y="80.5" width="9" height="339"></rect>
                    <path d="M0.5,450.5 L0.5,499.5 L999.5,499.5 L999.5,450.5 L0.5,450.5 Z" id="Rectangle-2"></path>
                    <rect id="Rectangle-8371" x="980.5" y="80.5" width="9" height="339"></rect>
                </g>
            </g>
        </g>
    </g>
</svg>