<?xml version="1.0" encoding="UTF-8"?>
<svg width="1530px" height="500px" viewBox="0 0 1530 500" version="1.1" xmlns="http://www.w3.org/2000/svg" xmlns:xlink="http://www.w3.org/1999/xlink">
    <!-- Generator: Sketch 47.1 (45422) - http://www.bohemiancoding.com/sketch -->
    <title>Group</title>
    <desc>Created with Sketch.</desc>
    <defs>
        <path d="M345,0 L292.5,45 L320,77.5 L230,240 L265,340 L129.999999,395 L0,310 L0,315 L117.965585,398.143499 L100,405 L95,500 L100,500 L104.999999,410 L265,360 C265,360 285.144455,359.723614 286.25,360 C331.811121,371.39028 420,400 420,400 L425,405 L440,445 L445,465 L448,460 L445.000015,445 L500,300 L500,295 C500,295 440.129472,430.149915 440,430 C435.98134,425.346815 425,397.5 425,397.5 L420,395 L286.25,340 L245,240 L330,77.5 L300.000015,45 L350,0 L345,0 Z" id="path-1"></path>
        <rect id="path-2" x="0" y="0" width="1000" height="50"></rect>
        <path d="M151.584513,116.84593 C151.584513,135.305325 143.20897,146.933116 126.457632,151.729651 L126.457632,152.601744 C145.539591,156.962231 155.080427,169.462106 155.080427,190.101744 C155.080427,197.950621 153.150411,204.890958 149.29032,210.922965 C145.430229,216.954972 140.149995,221.642425 133.44946,224.985465 C126.748925,228.328505 119.393013,230 111.381503,230 L10,230 L10,80 L110.070536,80 C117.645054,80 124.600396,81.5624844 130.936772,84.6875 C137.273147,87.8125156 142.298473,92.209274 146.0129,97.877907 C149.727328,103.54654 151.584513,109.869151 151.584513,116.84593 Z M99.4735465,135.050872 C101.585672,132.797954 102.641719,130.000017 102.641719,126.656977 L102.641719,124.476744 C102.641719,121.279054 101.549256,118.55379 99.3642992,116.300872 C97.1793421,114.047954 94.5574329,112.921512 91.4984929,112.921512 L58.2873108,112.921512 L58.2873108,138.430233 L91.4984929,138.430233 C94.7030967,138.430233 97.3614213,137.30379 99.4735465,135.050872 Z M102.96946,191.736919 C105.081586,189.484 106.137632,186.686063 106.137632,183.343023 L106.137632,181.162791 C106.137632,177.819751 105.081586,175.021814 102.96946,172.768895 C100.857335,170.515977 98.1990106,169.389535 94.9944068,169.389535 L58.2873108,169.389535 L58.2873108,195.116279 L94.9944068,195.116279 C98.1990106,195.116279 100.857335,193.989837 102.96946,191.736919 Z M327.035692,230 L272.849027,230 L246.192683,175.276163 L228.276125,175.276163 L228.276125,230 L179.988814,230 L179.988814,80 L271.975048,80 C282.75417,80 291.967268,82.0712002 299.614618,86.2136628 C307.261968,90.3561254 313.015602,95.9519996 316.875693,103.001453 C320.735783,110.050907 322.6658,117.717982 322.6658,126.002907 C322.6658,135.15993 320.189552,143.44473 315.236983,150.857558 C310.284413,158.270386 303.074163,163.720913 293.606016,167.209302 L327.035692,230 Z M228.276125,114.229651 L228.276125,141.918605 L259.957844,141.918605 C263.745103,141.918605 266.949659,140.574141 269.571608,137.885174 C272.193556,135.196207 273.504511,131.889555 273.504511,127.965116 C273.504511,124.040678 272.193556,120.770362 269.571608,118.15407 C266.949659,115.537778 263.745103,114.229651 259.957844,114.229651 L228.276125,114.229651 Z M479.981926,115.973837 L398.264938,115.973837 L398.264938,136.686047 L468.183216,136.686047 L468.183216,171.133721 L398.264938,171.133721 L398.264938,194.026163 L481.511388,194.026163 L481.511388,230 L349.977627,230 L349.977627,80 L479.981926,80 L479.981926,115.973837 Z M549.463215,208.851744 L543.126871,230 L493.747087,230 L548.589236,80 L604.742353,80 L659.584503,230 L608.456762,230 L602.120418,208.851744 L549.463215,208.851744 Z M576.338053,121.860465 L575.464074,121.860465 L559.513967,175.276163 L592.069665,175.276163 L576.338053,121.860465 Z M785.437403,141.700581 L840.498047,230 L783.470952,230 L752.226221,175.05814 L726.006867,196.424419 L726.006867,230 L677.719556,230 L677.719556,80 L726.006867,80 L726.006867,144.098837 L779.538049,80 L839.405574,80 L785.437403,141.700581 Z" id="path-3"></path>
        <path d="M70,420 L40,420 L40,350 L10,350 L10,330 L100,330 L100,350 L70,350 L70,420 Z M170,386 L140,386 L140,420 L110,420 L110,330 L140,330 L140,366 L170,366 L170,330 L200,330 L200,420 L170,420 L170,386 Z M300,330 L300,350 L250.027174,350 L250.027174,366 L290,366 L290,384 L250.027174,384 L250.027174,400 L300,400 L300,420 L220,420 L220,330 L300,330 Z" id="path-4"></path>
        <path d="M474.42202,287.877907 C478.093001,293.54654 479.928464,299.869151 479.928464,306.84593 C479.928464,325.305325 471.650885,336.933116 455.09548,341.729651 L455.09548,342.601744 C473.954246,346.962231 483.383488,359.462106 483.383488,380.101744 C483.383488,387.950621 481.476046,394.890958 477.661104,400.922965 C473.846163,406.954972 468.62769,411.642425 462.005528,414.985465 C455.383366,418.328505 448.113493,420 440.19569,420 L340,420 L340,270 L438.900056,270 C446.385979,270 453.259968,271.562484 459.522229,274.6875 C465.784491,277.812516 470.751038,282.209274 474.42202,287.877907 Z M420.822726,328.508721 C423.989847,328.508721 426.617078,327.382279 428.704499,325.12936 C430.79192,322.876442 431.835614,320.078505 431.835614,316.735465 L431.835614,314.555233 C431.835614,311.357542 430.75593,308.632279 428.59653,306.37936 C426.437129,304.126442 423.845887,303 420.822726,303 L388,303 L388,328.508721 L420.822726,328.508721 Z M424.27775,384.726744 C427.444871,384.726744 430.072102,383.600302 432.159523,381.347384 C434.246944,379.094465 435.290638,376.296528 435.290638,372.953488 L435.290638,370.773256 C435.290638,367.430216 434.246944,364.632279 432.159523,362.37936 C430.072102,360.126442 427.444871,359 424.27775,359 L388,359 L388,384.726744 L424.27775,384.726744 Z M664.442668,345 C664.442668,369.438324 657.46071,388.047689 643.496586,400.828652 C629.532461,413.609614 609.738252,420 584.113364,420 C558.488476,420 538.730257,413.644726 524.838112,400.933989 C510.945968,388.223251 504,369.578775 504,345 C504,320.421225 510.945968,301.776749 524.838112,289.066011 C538.730257,276.355274 558.488476,270 584.113364,270 C609.738252,270 629.532461,276.390386 643.496586,289.171348 C657.46071,301.952311 664.442668,320.561676 664.442668,345 Z M552.540513,338.258427 L552.540513,351.741573 C552.540513,361.994433 555.203734,370.140419 560.530255,376.179775 C565.856777,382.219131 573.630503,385.238764 583.851666,385.238764 C594.072829,385.238764 601.882544,382.219131 607.281046,376.179775 C612.679548,370.140419 615.378758,361.994433 615.378758,351.741573 L615.378758,338.258427 C615.378758,328.005567 612.679548,319.859581 607.281046,313.820225 C601.882544,307.780869 594.072829,304.761236 583.851666,304.761236 C573.630503,304.761236 565.856777,307.780869 560.530255,313.820225 C555.203734,319.859581 552.540513,328.005567 552.540513,338.258427 Z M781.265128,420 L753.840876,373.343023 L752.97712,373.343023 L725.552869,420 L672,420 L725.120991,340.639535 L677.182536,270 L734.838245,270 L757.2959,308.372093 L758.159656,308.372093 L780.83325,270 L834.170179,270 L786.015785,340.857558 L839.136776,420 L781.265128,420 Z" id="path-5"></path>
        <rect id="path-6" x="10" y="270" width="290" height="30"></rect>
        <path d="M936.545308,132.354654 C938.965438,132.354654 940.921211,131.064474 942.412686,128.484076 C943.904162,125.903679 944.649888,122.780086 944.649888,119.113205 C944.649888,113.816598 943.482052,109.810251 941.146346,107.094043 C938.810639,104.377834 935.504116,103.019751 931.226677,103.019751 L925.823624,103.019751 C921.546186,103.019751 918.239663,104.377834 915.903956,107.094043 C913.568249,109.810251 912.400414,113.816598 912.400414,119.113205 C912.400414,122.780086 913.117999,125.903679 914.553193,128.484076 C915.988386,131.064474 917.831597,132.354654 920.08288,132.354654 L920.08288,116.464915 L931.902059,116.464915 L931.902059,153.846545 L899.976549,153.846542 L899.976549,142 L905.224483,139.993952 C900.721916,133.610862 899.976549,125.321592 899.976549,115 C899.976549,103.388209 900.989252,94.599576 906.026499,88.7597281 C911.063746,82.9198802 918.563221,80 928.525151,80 C938.374516,80 945.845851,83.3103293 950.93938,89.9310871 C956.032909,96.5518449 959.970705,105.777062 959.970705,118 C959.970705,124.722616 957.735416,130.962577 956.046954,136.327089 C954.358491,141.6916 951.868046,145.952588 948.575544,149.11018 C945.283042,152.267773 941.273003,153.846542 936.545308,153.846542 L936.545308,132.354654 Z M899.976549,199.999999 L940.466574,184.036606 C939.960035,184.104511 899.976549,184.036607 899.976549,184.036607 L899.976549,166.039397 L959.970701,166.039397 L959.970701,196.000001 L924.670817,209.95587 L959.970701,223.999999 L959.970701,254.02574 L899.976549,254.02574 L899.976549,236.028533 C899.976549,236.028533 938.460181,235.960631 938.96672,236.028536 L899.976549,219.999999 L899.976549,199.999999 Z M929.453801,318.244233 C927.765338,327.139815 922.925151,331.587539 914.933095,331.587539 C911.893862,331.587539 909.206433,330.687809 906.870726,328.888321 C904.53502,327.088833 902.719949,324.627306 901.425461,321.503666 C900.130973,318.380027 899.976549,313.751849 899.976549,310.017063 L899.976549,264.024196 L959.970705,264.024196 L959.970705,310.017063 C959.970705,313.548134 956.961539,317.378431 955.751474,320.332307 C954.541409,323.286184 952.838902,325.628879 950.6439,327.360461 C948.448899,329.092044 946.000665,329.957823 943.299125,329.957823 C936.1513,329.957823 931.6488,326.053332 929.791491,318.244233 L929.453801,318.244233 Z M939.500103,308.300853 C940.476969,307.727306 941.567058,307.210836 942.137585,306.544692 C943.009957,305.526114 944.818734,303.373074 944.818734,301.947064 L944.818734,283.714607 L933.404201,283.714607 L933.404201,301.947064 C933.404201,303.440979 935.442957,305.560067 936.315329,306.544692 C937.187701,307.529318 938.205615,308.300853 939.500103,308.300853 Z M918.831095,308.771503 C920.125583,308.771503 920.887317,309.756128 921.75969,308.771503 C922.632062,307.786877 924.670817,305.070696 924.670817,303.576782 L924.670817,283.714607 L912.991373,283.714607 L912.991372,303.576781 C912.991372,305.070696 915.065061,307.786877 915.937434,308.771503 C916.809806,309.756128 917.536607,308.771503 918.831095,308.771503 Z M899.976549,370.007753 L899.976549,350.448702 L959.970703,350.448702 L959.970703,370.007753 L938.972749,370.007753 L938.972749,400.003103 L959.970703,400.003103 L959.970703,420.000002 L899.976549,420.000002 L899.976549,400.003103 L923.974211,400.003103 L923.974211,370.007753 L899.976549,370.007753 Z" id="path-7"></path>
        <rect id="path-8" x="870" y="80" width="10" height="340"></rect>
        <polygon id="path-9" points="0 450 1000 450 1000 500 0 500"></polygon>
        <rect id="path-10" x="980" y="80" width="10" height="340"></rect>
    </defs>
    <g id="logos-b/w" stroke="none" stroke-width="1" fill="none" fill-rule="evenodd">
        <g id="logo-landscape---light" transform="translate(-231.000000, -280.000000)">
            <g id="Group" transform="translate(231.000000, 280.000000)">
                <g id="box">
                    <path d="M495,5.5 L422.5,77.5" id="Line" stroke="#262626" stroke-width="5" stroke-linecap="square"></path>
                    <polyline id="Line" stroke="#262626" stroke-width="5" stroke-linecap="square" points="4.5 77.5 422.5 77.5 422.5 495"></polyline>
                    <path d="M497.5,2.5 L113.008341,2.5 L2.5,76.3363081 L2.5,497.5 L423.623629,497.5 L497.5,380.775334 L497.5,2.5 Z" id="Rectangle-2" stroke="#262626" stroke-width="5"></path>
                    <g id="Path-31">
                        <use fill="#262626" fill-rule="evenodd" xlink:href="#path-1"></use>
                        <path stroke="#262626" stroke-width="1" d="M345.184962,0.5 L293.202614,45.0562986 L320.604563,77.4404203 L230.545936,240.046274 L265.629014,340.283638 L129.945827,395.561973 L0.5,310.924316 L0.5,314.740695 L119.021206,398.275802 L100.482211,405.351142 L95.5270078,499.5 L99.5270068,499.5 L104.519998,409.626155 L264.850863,359.52276 L264.993141,359.500047 C265.063241,359.499085 265.063241,359.499085 265.390469,359.494764 C265.711982,359.490564 266.080769,359.485884 266.49116,359.480844 C267.663663,359.466445 268.934559,359.452046 270.258507,359.438607 C272.122251,359.419688 273.937181,359.404253 275.645475,359.393526 C282.046528,359.35333 285.831671,359.38003 286.371268,359.514929 C300.017061,362.926377 318.26473,368.071796 339.985266,374.555311 C342.895954,375.424143 345.857411,376.313605 348.865583,377.222276 C365.016377,382.100906 381.843615,387.327888 398.352956,392.554857 C404.1312,394.384288 409.457005,396.083053 414.206061,397.607602 C415.868279,398.141209 417.339689,398.61493 418.604754,399.023321 C419.047556,399.166267 419.432944,399.290839 419.758976,399.396357 C420.087003,399.502572 420.087003,399.502572 420.154291,399.524401 L420.268587,399.56148 L425.353553,404.646447 L425.468165,404.824438 L440.485071,444.878732 L445.192305,463.707667 L447.4718,459.908508 L444.481531,444.957089 L499.5,299.908358 L499.5,297.362975 C499.020601,298.445013 498.481555,299.661618 497.887042,301.003341 C495.842469,305.61762 493.563904,310.759244 491.109653,316.296377 C484.097507,332.116761 477.082305,347.937147 470.530499,362.702854 L470.456923,362.868669 C462.039588,381.838589 455.021426,397.637984 449.868124,409.213904 C446.940569,415.790103 444.653887,420.91552 443.06623,424.458667 C442.228157,426.328981 441.586697,427.754303 441.149,428.718462 C440.924182,429.213691 440.753087,429.587331 440.636359,429.837887 C440.576421,429.966542 440.530523,430.063386 440.498201,430.129302 C440.474511,430.177237 440.474511,430.177237 440.453452,430.217213 C440.442272,430.237741 440.442272,430.237741 440.421829,430.270576 C440.406907,430.293534 440.406907,430.293534 440.362032,430.345705 C440.283443,430.49301 440.283443,430.49301 439.621588,430.32681 C438.167875,428.643563 435.814352,424.075971 432.769257,417.293831 C432.334468,416.325453 431.888922,415.318969 431.433924,414.278098 C429.846912,410.647583 428.213461,406.758583 426.624426,402.869697 C426.068299,401.508673 425.557428,400.244833 425.103187,399.110537 C424.944173,398.713456 424.803584,398.360905 424.682844,398.056927 C424.653175,397.982232 424.627319,397.917057 424.605358,397.861644 L419.809842,395.462429 L285.867207,340.383214 L244.448813,239.974986 L329.393705,77.5803389 L299.289171,44.967078 L348.697021,0.5 L345.184962,0.5 Z"></path>
                    </g>
                </g>
                <g id="sockel" transform="translate(530.000000, 0.000000)">
                    <g id="Rectangle-2">
                        <use fill="#262626" fill-rule="evenodd" xlink:href="#path-2"></use>
                        <rect stroke="#262626" stroke-width="1" x="0.5" y="0.5" width="999" height="49"></rect>
                    </g>
                    <g id="BREAK">
                        <use fill="#262626" fill-rule="evenodd" xlink:href="#path-3"></use>
                        <use fill="black" fill-opacity="1" xlink:href="#path-3"></use>
                    </g>
                    <g id="THE">
                        <use fill="#262626" fill-rule="evenodd" xlink:href="#path-4"></use>
                        <use fill="black" fill-opacity="1" xlink:href="#path-4"></use>
                    </g>
                    <g id="BOX">
                        <use fill="#262626" fill-rule="evenodd" xlink:href="#path-5"></use>
                        <use fill="black" fill-opacity="1" xlink:href="#path-5"></use>
                    </g>
                    <g id="Rectangle-3">
                        <use fill="#262626" fill-rule="evenodd" xlink:href="#path-6"></use>
                        <rect stroke="#262626" stroke-width="1" x="10.5" y="270.5" width="289" height="29"></rect>
                    </g>
                    <g id="GMBH">
                        <use fill="#262626" fill-rule="evenodd" xlink:href="#path-7"></use>
                        <use fill="black" fill-opacity="1" xlink:href="#path-7"></use>
                    </g>
                    <g id="Rectangle">
                        <use fill="#262626" fill-rule="evenodd" xlink:href="#path-8"></use>
                        <use fill="black" fill-opacity="1" xlink:href="#path-8"></use>
                    </g>
                    <g id="Rectangle-2">
                        <use fill="#262626" fill-rule="evenodd" xlink:href="#path-9"></use>
                        <path stroke="#262626" stroke-width="1" d="M0.5,450.5 L0.5,499.5 L999.5,499.5 L999.5,450.5 L0.5,450.5 Z"></path>
                    </g>
                    <g id="Rectangle-8371">
                        <use fill="#262626" fill-rule="evenodd" xlink:href="#path-10"></use>
                        <rect stroke="#262626" stroke-width="1" x="980.5" y="80.5" width="9" height="339"></rect>
                    </g>
                </g>
            </g>
        </g>
    </g>
</svg>