<?xml version="1.0" encoding="UTF-8"?>
<svg width="597px" height="597px" viewBox="0 0 597 597" version="1.1" xmlns="http://www.w3.org/2000/svg" xmlns:xlink="http://www.w3.org/1999/xlink">
    <!-- Generator: Sketch 41 (35326) - http://www.bohemiancoding.com/sketch -->
    <title>proto_web_font</title>
    <desc>Created with Sketch.</desc>
    <defs></defs>
    <g id="web" stroke="none" stroke-width="1" fill="none" fill-rule="evenodd">
        <g id="proto_web" transform="translate(-2.000000, -2.000000)">
            <g id="proto_web_font" transform="translate(2.000000, 2.000000)">
                <g id="font" transform="translate(97.000000, 485.000000)" fill="#F5EED6">
                    <path d="M25.088,25.887 C26.225,26.834 27.335,27.517 28.417,27.937 C29.499,28.356 30.541,28.534 31.544,28.471 C32.546,28.408 33.502,28.111 34.413,27.581 C35.323,27.051 36.168,26.317 36.949,25.379 C37.691,24.488 38.225,23.566 38.55,22.613 C38.874,21.66 38.971,20.7 38.84,19.732 C38.71,18.764 38.333,17.794 37.712,16.821 C37.091,15.848 36.204,14.882 35.051,13.922 L30.417,10.063 L20.454,22.028 L25.088,25.887 Z M39.044,9.127 C41.273,10.982 42.984,12.85 44.178,14.729 C45.372,16.608 46.109,18.458 46.388,20.279 C46.668,22.099 46.522,23.877 45.949,25.612 C45.376,27.347 44.443,28.991 43.15,30.543 C41.806,32.157 40.306,33.412 38.648,34.309 C36.99,35.206 35.22,35.691 33.338,35.763 C31.456,35.835 29.48,35.465 27.411,34.653 C25.341,33.841 23.223,32.532 21.056,30.728 L16.422,26.869 L6.651,38.603 L0.45,33.439 L28.209,0.104 L39.044,9.127 Z" id="Shape"></path>
                    <path d="M52.663,44.665 C53.944,45.483 55.163,46.037 56.32,46.325 C57.477,46.613 58.543,46.672 59.519,46.5 C60.495,46.329 61.382,45.952 62.181,45.371 C62.98,44.79 63.675,44.035 64.267,43.109 C65.452,41.255 65.751,39.44 65.165,37.665 C64.578,35.89 63.03,34.2 60.518,32.596 L56.17,29.817 L48.416,41.951 L52.663,44.665 Z M57.912,75.005 L51.769,71.08 C50.606,70.337 50.054,69.343 50.113,68.099 L49.908,51.484 C49.901,50.863 49.785,50.349 49.558,49.943 C49.331,49.537 48.88,49.119 48.206,48.688 L45.299,46.83 L36.172,61.113 L29.372,56.767 L52.73,20.214 L63.879,27.337 C66.356,28.92 68.319,30.537 69.769,32.187 C71.218,33.838 72.216,35.49 72.761,37.143 C73.306,38.797 73.437,40.441 73.152,42.075 C72.867,43.709 72.23,45.301 71.239,46.851 C70.453,48.082 69.529,49.129 68.466,49.993 C67.404,50.857 66.246,51.517 64.993,51.974 C63.739,52.431 62.396,52.676 60.963,52.71 C59.529,52.743 58.048,52.544 56.519,52.113 C56.796,52.646 57.009,53.204 57.159,53.786 C57.309,54.369 57.385,54.993 57.387,55.658 L57.912,75.005 Z" id="Shape"></path>
                    <path d="M113.411,76.042 C112.156,78.963 110.511,81.462 108.477,83.538 C106.443,85.613 104.153,87.182 101.607,88.244 C99.062,89.305 96.33,89.813 93.411,89.767 C90.492,89.722 87.516,89.048 84.484,87.745 C81.47,86.451 78.942,84.761 76.899,82.676 C74.857,80.59 73.339,78.257 72.347,75.676 C71.355,73.095 70.907,70.35 71.003,67.442 C71.098,64.534 71.773,61.619 73.028,58.697 C74.283,55.775 75.933,53.278 77.976,51.206 C80.02,49.135 82.319,47.57 84.873,46.512 C87.428,45.455 90.165,44.949 93.084,44.994 C96.003,45.04 98.969,45.71 101.983,47.004 C104.004,47.873 105.806,48.924 107.387,50.158 C108.968,51.392 110.32,52.756 111.441,54.25 C112.563,55.744 113.453,57.357 114.114,59.088 C114.774,60.819 115.194,62.615 115.374,64.478 C115.554,66.34 115.481,68.245 115.155,70.195 C114.829,72.145 114.248,74.094 113.411,76.042 Z M105.831,72.786 C106.77,70.599 107.319,68.511 107.476,66.522 C107.634,64.532 107.431,62.699 106.868,61.02 C106.305,59.341 105.385,57.847 104.108,56.537 C102.832,55.227 101.22,54.154 99.272,53.317 C97.324,52.48 95.435,52.05 93.606,52.026 C91.777,52.002 90.055,52.362 88.441,53.105 C86.827,53.849 85.353,54.962 84.019,56.446 C82.685,57.93 81.548,59.766 80.609,61.952 C79.67,64.139 79.121,66.227 78.963,68.216 C78.805,70.206 79.015,72.037 79.591,73.71 C80.167,75.383 81.094,76.875 82.37,78.185 C83.647,79.495 85.259,80.569 87.207,81.406 C89.155,82.242 91.044,82.672 92.873,82.696 C94.702,82.72 96.417,82.363 98.018,81.625 C99.619,80.887 101.087,79.776 102.421,78.292 C103.755,76.808 104.891,74.972 105.831,72.786 Z" id="Shape"></path>
                    <polygon id="Shape" points="153.119 70.478 140.455 67.204 131.255 102.784 123.442 100.763 132.642 65.184 119.979 61.909 121.638 55.49 154.779 64.059"></polygon>
                    <path d="M197.21,90.252 C196.906,93.418 196.102,96.299 194.797,98.896 C193.493,101.493 191.79,103.685 189.69,105.473 C187.589,107.26 185.142,108.577 182.348,109.423 C179.554,110.27 176.515,110.536 173.23,110.22 C169.965,109.906 167.042,109.068 164.46,107.704 C161.879,106.341 159.722,104.582 157.991,102.426 C156.259,100.271 154.995,97.793 154.199,94.994 C153.403,92.195 153.158,89.213 153.462,86.048 C153.766,82.882 154.575,80.002 155.89,77.405 C157.204,74.809 158.917,72.618 161.027,70.832 C163.138,69.046 165.59,67.729 168.384,66.882 C171.178,66.036 174.207,65.769 177.472,66.083 C179.662,66.294 181.698,66.746 183.58,67.439 C185.463,68.132 187.165,69.019 188.689,70.1 C190.213,71.18 191.553,72.444 192.71,73.892 C193.867,75.339 194.815,76.922 195.553,78.641 C196.292,80.359 196.804,82.197 197.088,84.153 C197.372,86.109 197.413,88.142 197.21,90.252 Z M188.998,89.463 C189.226,87.094 189.111,84.938 188.655,82.996 C188.199,81.053 187.447,79.368 186.398,77.942 C185.35,76.515 184.018,75.372 182.403,74.514 C180.788,73.655 178.925,73.125 176.815,72.922 C174.704,72.719 172.775,72.885 171.025,73.42 C169.276,73.955 167.746,74.823 166.435,76.023 C165.125,77.223 164.06,78.733 163.242,80.553 C162.424,82.373 161.902,84.468 161.674,86.837 C161.446,89.206 161.561,91.362 162.017,93.305 C162.473,95.247 163.231,96.927 164.29,98.345 C165.349,99.763 166.687,100.901 168.302,101.76 C169.917,102.618 171.78,103.149 173.89,103.352 C176,103.554 177.93,103.388 179.679,102.853 C181.429,102.318 182.953,101.455 184.253,100.264 C185.553,99.073 186.612,97.567 187.43,95.747 C188.248,93.927 188.77,91.832 188.998,89.463 Z" id="Shape"></path>
                    <polygon id="Shape" points="233.518 72.905 220.458 73.646 222.539 110.337 214.482 110.793 212.401 74.102 199.342 74.843 198.967 68.224 233.142 66.286"></polygon>
                    <path d="M261.045,87.932 L264.359,104.402 L256.477,105.988 L253.163,89.518 L232.42,66.579 L239.39,65.177 C240.076,65.039 240.654,65.096 241.123,65.348 C241.592,65.601 242.015,65.954 242.392,66.409 L253.015,79.051 C253.636,79.804 254.193,80.518 254.686,81.194 C255.179,81.87 255.637,82.553 256.062,83.243 C256.167,82.446 256.311,81.642 256.494,80.83 C256.678,80.018 256.9,79.147 257.162,78.217 L262.038,62.455 C262.167,61.981 262.41,61.513 262.766,61.054 C263.123,60.595 263.634,60.298 264.301,60.164 L271.301,58.755 L261.045,87.932 Z" id="Shape"></path>
                    <path d="M294.568,73.363 C295.962,72.866 297.114,72.258 298.026,71.539 C298.938,70.821 299.621,70.014 300.077,69.119 C300.532,68.224 300.763,67.25 300.769,66.196 C300.775,65.143 300.573,64.042 300.163,62.893 C299.773,61.8 299.25,60.872 298.595,60.107 C297.94,59.343 297.163,58.771 296.263,58.392 C295.363,58.012 294.336,57.843 293.182,57.883 C292.029,57.923 290.745,58.196 289.333,58.7 L283.654,60.727 L288.889,75.391 L294.568,73.363 Z M287.235,52.823 C289.966,51.848 292.444,51.324 294.669,51.252 C296.895,51.18 298.862,51.486 300.572,52.171 C302.282,52.856 303.738,53.886 304.941,55.262 C306.143,56.638 307.084,58.277 307.763,60.179 C308.469,62.157 308.787,64.088 308.716,65.971 C308.645,67.854 308.162,69.625 307.268,71.282 C306.373,72.94 305.049,74.453 303.298,75.821 C301.546,77.19 299.342,78.348 296.686,79.297 L291.007,81.324 L296.141,95.705 L288.541,98.418 L273.956,57.564 L287.235,52.823 Z" id="Shape"></path>
                    <polygon id="Shape" points="330.539 81.673 323.196 85.093 304.885 45.767 312.228 42.348"></polygon>
                    <path d="M348.328,21.743 L370.765,58.87 L367.222,61.011 C366.674,61.342 366.162,61.529 365.685,61.572 C365.208,61.614 364.67,61.525 364.069,61.304 L329.726,48.267 C330.511,49.335 331.194,50.348 331.773,51.307 L345.551,74.107 L339.466,77.784 L317.03,40.657 L320.65,38.469 C320.941,38.293 321.201,38.154 321.431,38.05 C321.66,37.946 321.879,37.884 322.089,37.863 C322.298,37.842 322.523,37.857 322.765,37.909 C323.007,37.962 323.295,38.051 323.628,38.177 L358.11,51.27 C357.696,50.702 357.297,50.137 356.911,49.576 C356.525,49.014 356.182,48.486 355.882,47.989 L342.243,25.42 L348.328,21.743 Z" id="Shape"></path>
                    <path d="M392.198,13.558 L403.423,27.049 C402.768,29.701 401.723,32.112 400.289,34.281 C398.855,36.45 397.046,38.443 394.863,40.259 C392.141,42.524 389.326,44.151 386.416,45.141 C383.507,46.131 380.645,46.522 377.831,46.314 C375.016,46.105 372.317,45.307 369.731,43.92 C367.146,42.533 364.824,40.602 362.764,38.126 C360.679,35.62 359.174,32.983 358.249,30.214 C357.324,27.445 356.985,24.684 357.23,21.93 C357.475,19.176 358.321,16.495 359.767,13.887 C361.214,11.278 363.266,8.868 365.926,6.655 C367.279,5.529 368.633,4.584 369.988,3.821 C371.344,3.058 372.681,2.445 374.002,1.984 C375.322,1.523 376.621,1.216 377.899,1.063 C379.177,0.911 380.431,0.869 381.66,0.94 L382.225,5.23 C382.319,5.907 382.185,6.48 381.822,6.951 C381.46,7.422 380.883,7.713 380.091,7.825 C379.341,7.955 378.591,8.086 377.84,8.216 C377.09,8.346 376.314,8.562 375.512,8.865 C374.71,9.168 373.864,9.573 372.972,10.081 C372.081,10.588 371.127,11.264 370.113,12.108 C368.468,13.477 367.21,14.992 366.341,16.651 C365.472,18.311 364.997,20.047 364.916,21.857 C364.835,23.667 365.142,25.506 365.838,27.374 C366.533,29.241 367.622,31.066 369.106,32.85 C370.692,34.756 372.382,36.232 374.175,37.276 C375.968,38.321 377.792,38.95 379.647,39.163 C381.502,39.375 383.356,39.173 385.209,38.554 C387.063,37.936 388.85,36.911 390.572,35.478 C391.802,34.454 392.792,33.409 393.544,32.342 C394.295,31.275 394.946,30.134 395.497,28.921 L390.47,22.879 L386.273,26.371 C385.873,26.704 385.469,26.851 385.061,26.814 C384.652,26.776 384.314,26.596 384.045,26.273 L381.129,22.768 L392.198,13.558 Z" id="Shape"></path>
                </g>
                <g id="outline" stroke="#547A97" stroke-width="0.109287">
                    <path d="M0.7,298.375 C0.7,133.974 133.974,0.7 298.375,0.7 C462.776,0.7 596.05,133.974 596.05,298.375 C596.05,462.776 462.776,596.05 298.375,596.05 C133.974,596.05 0.7,462.776 0.7,298.375 Z" id="Shape"></path>
                </g>
            </g>
        </g>
    </g>
</svg>