<?xml version="1.0" encoding="UTF-8" standalone="no"?>
<svg width="605px" height="604px" viewBox="0 0 605 604" version="1.1" xmlns="http://www.w3.org/2000/svg" xmlns:xlink="http://www.w3.org/1999/xlink">
    <!-- Generator: Sketch 39.1 (31720) - http://www.bohemiancoding.com/sketch -->
    <title>prototyping</title>
    <desc>Created with Sketch.</desc>
    <defs>
        <circle id="path-1" cx="300.5" cy="300" r="300"></circle>
        <filter x="-50%" y="-50%" width="200%" height="200%" filterUnits="objectBoundingBox" id="filter-3">
            <feOffset dx="8" dy="15" in="SourceAlpha" result="shadowOffsetOuter1"></feOffset>
            <feGaussianBlur stdDeviation="3" in="shadowOffsetOuter1" result="shadowBlurOuter1"></feGaussianBlur>
            <feColorMatrix values="0 0 0 0 0   0 0 0 0 0   0 0 0 0 0  0 0 0 0.5 0" type="matrix" in="shadowBlurOuter1" result="shadowMatrixOuter1"></feColorMatrix>
            <feMerge>
                <feMergeNode in="shadowMatrixOuter1"></feMergeNode>
                <feMergeNode in="SourceGraphic"></feMergeNode>
            </feMerge>
        </filter>
    </defs>
    <g id="website" stroke="none" stroke-width="1" fill="none" fill-rule="evenodd">
        <g id="prototyping" transform="translate(-71.000000, -70.000000)">
            <g transform="translate(73.000000, 72.000000)">
                <mask id="mask-2" fill="white">
                    <use xlink:href="#path-1"></use>
                </mask>
                <use id="Oval-1" stroke="#1B344D" stroke-width="3.75" fill="#F5EED6" xlink:href="#path-1"></use>
                <g filter="url(#filter-3)" mask="url(#mask-2)">
                    <g transform="translate(113.000000, 183.000000)">
                        <polygon id="Shape" stroke="#000000" stroke-width="1.14048" fill="#FFFFFF" fill-rule="evenodd" points="22.4346272 0.270933349 376.922642 0.270933349 376.922642 485.910809 354.766209 507.985193 0.279341209 507.985193 0.279341209 22.3453174"></polygon>
                        <polygon id="Shape" stroke="none" fill="#1B344D" fill-rule="evenodd" points="22.1732078 66.4940854 332.610924 66.4940854 332.610924 463.836425 22.1732078 463.836425"></polygon>
                        <polyline id="Shape" stroke="#000000" stroke-width="1.14048" fill="none" points="0.279341209 22.3453174 22.4346272 0.270933349 376.922642 0.270933349 376.922642 485.910809 354.766209 507.985193"></polyline>
                        <polygon id="Shape" stroke="#000000" stroke-width="1.14048" fill="none" points="0.279341209 66.4940854 22.4346272 66.4940854 22.4346272 110.643996 0.279341209 110.643996"></polygon>
                        <polygon id="Shape" stroke="#000000" stroke-width="1.14048" fill="none" points="0.279341209 110.643996 22.4346272 110.643996 22.4346272 154.792764 0.279341209 154.792764"></polygon>
                        <polygon id="Shape" stroke="#000000" stroke-width="1.14048" fill="none" points="0.279341209 198.941532 22.4346272 198.941532 22.4346272 243.091442 0.279341209 243.091442"></polygon>
                        <polygon id="Shape" stroke="#000000" stroke-width="1.14048" fill="none" points="0.279341209 243.091442 22.4346272 243.091442 22.4346272 287.24021 0.279341209 287.24021"></polygon>
                        <polygon id="Shape" stroke="#000000" stroke-width="1.14048" fill="none" points="0.279341209 287.24021 22.4346272 287.24021 22.4346272 331.388979 0.279341209 331.388979"></polygon>
                        <polygon id="Shape" stroke="#000000" stroke-width="1.14048" fill="none" points="0.279341209 154.792764 22.4346272 154.792764 22.4346272 198.941532 0.279341209 198.941532"></polygon>
                        <polygon id="Shape" stroke="#000000" stroke-width="1.14048" fill="none" points="0.279341209 22.3453174 66.745199 22.3453174 66.745199 66.4940854 0.279341209 66.4940854"></polygon>
                        <polygon id="Shape" stroke="#000000" stroke-width="1.14048" fill="none" points="66.745199 22.3453174 111.056918 22.3453174 111.056918 66.4940854 66.745199 66.4940854"></polygon>
                        <polygon id="Shape" stroke="#000000" stroke-width="1.14048" fill="none" points="177.522775 22.3453174 243.98978 22.3453174 243.98978 66.4940854 177.522775 66.4940854"></polygon>
                        <polygon id="Shape" stroke="#000000" stroke-width="1.14048" fill="none" points="243.98978 22.3453174 288.300352 22.3453174 288.300352 66.4940854 243.98978 66.4940854"></polygon>
                        <polygon id="Shape" stroke="#000000" stroke-width="1.14048" fill="none" points="288.300352 22.3453174 354.767356 22.3453174 354.767356 66.4940854 288.300352 66.4940854"></polygon>
                        <polygon id="Shape" stroke="#000000" stroke-width="1.14048" fill="none" points="111.056918 22.3453174 177.522775 22.3453174 177.522775 66.4940854 111.056918 66.4940854"></polygon>
                        <polygon id="Shape" stroke="#000000" stroke-width="1.14048" fill="none" points="0.279341209 375.538889 22.4346272 375.538889 22.4346272 419.687657 0.279341209 419.687657"></polygon>
                        <polygon id="Shape" stroke="#000000" stroke-width="1.14048" fill="none" points="0.279341209 331.388979 22.4346272 331.388979 22.4346272 375.538889 0.279341209 375.538889"></polygon>
                        <polygon id="Shape" stroke="#000000" stroke-width="1.14048" fill="none" points="332.610924 110.643996 354.766209 110.643996 354.766209 154.792764 332.610924 154.792764"></polygon>
                        <polygon id="Shape" stroke="#000000" stroke-width="1.14048" fill="none" points="332.610924 154.792764 354.766209 154.792764 354.766209 198.941532 332.610924 198.941532"></polygon>
                        <polygon id="Shape" stroke="#000000" stroke-width="1.14048" fill="none" points="332.610924 198.941532 354.766209 198.941532 354.766209 243.091442 332.610924 243.091442"></polygon>
                        <polygon id="Shape" stroke="#000000" stroke-width="1.14048" fill="none" points="332.610924 287.24021 354.766209 287.24021 354.766209 331.388979 332.610924 331.388979"></polygon>
                        <polygon id="Shape" stroke="#000000" stroke-width="1.14048" fill="none" points="332.610924 243.091442 354.766209 243.091442 354.766209 287.24021 332.610924 287.24021"></polygon>
                        <polygon id="Shape" stroke="#000000" stroke-width="1.14048" fill="none" points="332.610924 66.4940854 354.766209 66.4940854 354.766209 110.643996 332.610924 110.643996"></polygon>
                        <polygon id="Shape" stroke="#000000" stroke-width="1.14048" fill="none" points="332.610924 375.538889 354.766209 375.538889 354.766209 419.687657 332.610924 419.687657"></polygon>
                        <polygon id="Shape" stroke="#000000" stroke-width="1.14048" fill="none" points="332.610924 331.388979 354.766209 331.388979 354.766209 375.538889 332.610924 375.538889"></polygon>
                        <path d="M66.745199,22.3453174 L88.9016316,0.270933349" id="Shape" stroke="#000000" stroke-width="1.14048" fill="none"></path>
                        <path d="M111.056918,22.3453174 L133.212203,0.270933349" id="Shape" stroke="#000000" stroke-width="1.14048" fill="none"></path>
                        <path d="M177.522775,22.3453174 L199.678061,0.270933349" id="Shape" stroke="#000000" stroke-width="1.14048" fill="none"></path>
                        <path d="M243.98978,22.3453174 L266.145066,0.270933349" id="Shape" stroke="#000000" stroke-width="1.14048" fill="none"></path>
                        <path d="M288.300352,22.3453174 L310.455638,0.270933349" id="Shape" stroke="#000000" stroke-width="1.14048" fill="none"></path>
                        <path d="M354.766209,22.3453174 L376.922642,0.270933349" id="Shape" stroke="#000000" stroke-width="1.14048" fill="none"></path>
                        <path d="M354.766209,66.4940854 L376.922642,44.4197014" id="Shape" stroke="#000000" stroke-width="1.14048" fill="none"></path>
                        <path d="M354.766209,110.643996 L376.922642,88.5696118" id="Shape" stroke="#000000" stroke-width="1.14048" fill="none"></path>
                        <path d="M354.766209,154.792764 L376.922642,132.71838" id="Shape" stroke="#000000" stroke-width="1.14048" fill="none"></path>
                        <path d="M354.766209,198.941532 L376.922642,176.867148" id="Shape" stroke="#000000" stroke-width="1.14048" fill="none"></path>
                        <path d="M354.766209,243.091442 L376.922642,221.017058" id="Shape" stroke="#000000" stroke-width="1.14048" fill="none"></path>
                        <path d="M354.766209,287.24021 L376.922642,265.165826" id="Shape" stroke="#000000" stroke-width="1.14048" fill="none"></path>
                        <path d="M354.766209,331.388979 L376.922642,309.314594" id="Shape" stroke="#000000" stroke-width="1.14048" fill="none"></path>
                        <path d="M354.766209,375.538889 L376.922642,353.463363" id="Shape" stroke="#000000" stroke-width="1.14048" fill="none"></path>
                        <path d="M354.766209,419.687657 L376.922642,397.613273" id="Shape" stroke="#000000" stroke-width="1.14048" fill="none"></path>
                        <g id="Group" stroke="none" stroke-width="1" fill="none" fill-rule="evenodd" transform="translate(101.860232, 10.552435)">
                            <path d="M9.19668522,2.96335725 L9.19668522,5.17045294 C9.19668522,6.38938208 7.21310893,7.37869101 4.7651694,7.37869101 C2.31837645,7.37869101 0.33480016,6.38938208 0.33480016,5.17045294 L0.33480016,2.96335725" id="Shape" stroke="#000000" stroke-width="1.14048"></path>
                            <path d="M0.33480016,2.96335725 C0.33480016,1.74442811 2.31837645,0.756261565 4.7651694,0.756261565 C7.21310893,0.756261565 9.19668522,1.74442811 9.19668522,2.96335725 C9.19668522,4.18228639 7.21310893,5.17045294 4.7651694,5.17045294 C2.31837645,5.17045294 0.33480016,4.18228639 0.33480016,2.96335725 L0.33480016,2.96335725 Z" id="Shape" stroke="#000000" stroke-width="1.14048"></path>
                        </g>
                        <g id="Group" stroke="none" stroke-width="1" fill="none" fill-rule="evenodd" transform="translate(78.928714, 1.413322)">
                            <g transform="translate(0.000000, 9.139113)" id="Shape" stroke="#000000" stroke-width="1.14048">
                                <path d="M9.9729171,2.96335725 L9.9729171,5.17045294 C9.9729171,6.38938208 7.98819423,7.37869101 5.54140128,7.37869101 C3.09460833,7.37869101 1.10988546,6.38938208 1.10988546,5.17045294 L1.10988546,2.96335725"></path>
                                <path d="M1.10988546,2.96335725 C1.10988546,1.74442811 3.09460833,0.756261565 5.54140128,0.756261565 C7.98819423,0.756261565 9.9729171,1.74442811 9.9729171,2.96335725 C9.9729171,4.18228639 7.98819423,5.17045294 5.54140128,5.17045294 C3.09460833,5.17045294 1.10988546,4.18228639 1.10988546,2.96335725 L1.10988546,2.96335725 Z"></path>
                            </g>
                            <g transform="translate(9.172607, 0.000000)" id="Shape" stroke="#000000" stroke-width="1.14048">
                                <path d="M9.66219503,3.27294469 L9.66219503,5.48004038 C9.66219503,6.69896951 7.67861874,7.68713606 5.23067922,7.68713606 C2.78388626,7.68713606 0.800309972,6.69896951 0.800309972,5.48004038 L0.800309972,3.27294469"></path>
                                <path d="M0.800309972,3.27294469 C0.800309972,2.05287316 2.78388626,1.06470661 5.23067922,1.06470661 C7.67861874,1.06470661 9.66219503,2.05287316 9.66219503,3.27294469 C9.66219503,4.49187383 7.67861874,5.48004038 5.23067922,5.48004038 C2.78388626,5.48004038 0.800309972,4.49187383 0.800309972,3.27294469 L0.800309972,3.27294469 Z"></path>
                            </g>
                        </g>
                        <g id="Group" stroke="none" stroke-width="1" fill="none" fill-rule="evenodd" transform="translate(111.032839, 1.413322)">
                            <path d="M8.88596316,3.27294469 L8.88596316,5.48004038 C8.88596316,6.69896951 6.90238686,7.68713606 4.45444734,7.68713606 C2.00765439,7.68713606 0.0240780937,6.69896951 0.0240780937,5.48004038 L0.0240780937,3.27294469" id="Shape" stroke="#000000" stroke-width="1.14048"></path>
                            <path d="M0.0240780937,3.27294469 C0.0240780937,2.05287316 2.00765439,1.06470661 4.45444734,1.06470661 C6.90238686,1.06470661 8.88596316,2.05287316 8.88596316,3.27294469 C8.88596316,4.49187383 6.90238686,5.48004038 4.45444734,5.48004038 C2.00765439,5.48004038 0.0240780937,4.49187383 0.0240780937,3.27294469 L0.0240780937,3.27294469 Z" id="Shape" stroke="#000000" stroke-width="1.14048"></path>
                        </g>
                        <g id="Group" stroke="none" stroke-width="1" fill="none" fill-rule="evenodd" transform="translate(12.427313, 1.413322)">
                            <g transform="translate(0.000000, 9.139113)" id="Shape" stroke="#000000" stroke-width="1.14048">
                                <path d="M10.0073144,2.96335725 L10.0073144,5.17045294 C10.0073144,6.38938208 8.02373809,7.37869101 5.57694513,7.37869101 C3.12900561,7.37869101 1.14542932,6.38938208 1.14542932,5.17045294 L1.14542932,2.96335725"></path>
                                <path d="M1.14542932,2.96335725 C1.14542932,1.74442811 3.12900561,0.756261565 5.57694513,0.756261565 C8.02373809,0.756261565 10.0073144,1.74442811 10.0073144,2.96335725 C10.0073144,4.18228639 8.02373809,5.17045294 5.57694513,5.17045294 C3.12900561,5.17045294 1.14542932,4.18228639 1.14542932,2.96335725 L1.14542932,2.96335725 Z"></path>
                            </g>
                            <g transform="translate(9.172607, 0.000000)" id="Shape" stroke="#000000" stroke-width="1.14048">
                                <path d="M9.69773889,3.27294469 L9.69773889,5.48004038 C9.69773889,6.69896951 7.71301602,7.68713606 5.26622307,7.68713606 C2.81828354,7.68713606 0.834707249,6.69896951 0.834707249,5.48004038 L0.834707249,3.27294469"></path>
                                <path d="M0.834707249,3.27294469 C0.834707249,2.05287316 2.81828354,1.06470661 5.26622307,1.06470661 C7.71301602,1.06470661 9.69773889,2.05287316 9.69773889,3.27294469 C9.69773889,4.49187383 7.71301602,5.48004038 5.26622307,5.48004038 C2.81828354,5.48004038 0.834707249,4.49187383 0.834707249,3.27294469 L0.834707249,3.27294469 Z"></path>
                            </g>
                        </g>
                        <g id="Group" stroke="none" stroke-width="1" fill="none" fill-rule="evenodd" transform="translate(57.143773, 1.413322)">
                            <g transform="translate(0.000000, 9.139113)" id="Shape" stroke="#000000" stroke-width="1.14048">
                                <path d="M9.60257309,2.96335725 L9.60257309,5.17045294 C9.60257309,6.38938208 7.61785022,7.37869101 5.17105727,7.37869101 C2.72426432,7.37869101 0.73954145,6.38938208 0.73954145,5.17045294 L0.73954145,2.96335725"></path>
                                <path d="M0.73954145,2.96335725 C0.73954145,1.74442811 2.72426432,0.756261565 5.17105727,0.756261565 C7.61785022,0.756261565 9.60257309,1.74442811 9.60257309,2.96335725 C9.60257309,4.18228639 7.61785022,5.17045294 5.17105727,5.17045294 C2.72426432,5.17045294 0.73954145,4.18228639 0.73954145,2.96335725 L0.73954145,2.96335725 Z"></path>
                            </g>
                            <g transform="translate(9.172607, 0.000000)" id="Shape" stroke="#000000" stroke-width="1.14048">
                                <path d="M9.29185102,3.27294469 L9.29185102,5.48004038 C9.29185102,6.69896951 7.30827473,7.68713606 4.8603352,7.68713606 C2.41354225,7.68713606 0.429965959,6.69896951 0.429965959,5.48004038 L0.429965959,3.27294469"></path>
                                <path d="M0.429965959,3.27294469 C0.429965959,2.05287316 2.41354225,1.06470661 4.8603352,1.06470661 C7.30827473,1.06470661 9.29185102,2.05287316 9.29185102,3.27294469 C9.29185102,4.49187383 7.30827473,5.48004038 4.8603352,5.48004038 C2.41354225,5.48004038 0.429965959,4.49187383 0.429965959,3.27294469 L0.429965959,3.27294469 Z"></path>
                            </g>
                        </g>
                        <g id="Group" stroke="none" stroke-width="1" fill="none" fill-rule="evenodd" transform="translate(35.358831, 1.413322)">
                            <g transform="translate(0.000000, 9.139113)" id="Shape" stroke="#000000" stroke-width="1.14048">
                                <path d="M9.2310825,2.96335725 L9.2310825,5.17045294 C9.2310825,6.38938208 7.24750621,7.37869101 4.80071326,7.37869101 C2.35277373,7.37869101 0.369197437,6.38938208 0.369197437,5.17045294 L0.369197437,2.96335725"></path>
                                <path d="M0.369197437,2.96335725 C0.369197437,1.74442811 2.35277373,0.756261565 4.80071326,0.756261565 C7.24750621,0.756261565 9.2310825,1.74442811 9.2310825,2.96335725 C9.2310825,4.18228639 7.24750621,5.17045294 4.80071326,5.17045294 C2.35277373,5.17045294 0.369197437,4.18228639 0.369197437,2.96335725 L0.369197437,2.96335725 Z"></path>
                            </g>
                            <g transform="translate(9.172607, 0.000000)" id="Shape" stroke="#000000" stroke-width="1.14048">
                                <path d="M8.92150701,3.27294469 L8.92150701,5.48004038 C8.92150701,6.69896951 6.93678414,7.68713606 4.48999119,7.68713606 C2.04319824,7.68713606 0.0584753704,6.69896951 0.0584753704,5.48004038 L0.0584753704,3.27294469"></path>
                                <path d="M0.0584753704,3.27294469 C0.0584753704,2.05287316 2.04319824,1.06470661 4.48999119,1.06470661 C6.93678414,1.06470661 8.92150701,2.05287316 8.92150701,3.27294469 C8.92150701,4.49187383 6.93678414,5.48004038 4.48999119,5.48004038 C2.04319824,5.48004038 0.0584753704,4.49187383 0.0584753704,3.27294469 L0.0584753704,3.27294469 Z"></path>
                            </g>
                        </g>
                        <g id="Group" stroke="none" stroke-width="1" fill="none" fill-rule="evenodd" transform="translate(123.645174, 1.413322)">
                            <g transform="translate(0.000000, 9.139113)" id="Shape" stroke="#000000" stroke-width="1.14048">
                                <path d="M9.56702924,2.96335725 L9.56702924,5.17045294 C9.56702924,6.38938208 7.58345294,7.37869101 5.13551342,7.37869101 C2.68872046,7.37869101 0.705144173,6.38938208 0.705144173,5.17045294 L0.705144173,2.96335725"></path>
                                <path d="M0.705144173,2.96335725 C0.705144173,1.74442811 2.68872046,0.756261565 5.13551342,0.756261565 C7.58345294,0.756261565 9.56702924,1.74442811 9.56702924,2.96335725 C9.56702924,4.18228639 7.58345294,5.17045294 5.13551342,5.17045294 C2.68872046,5.17045294 0.705144173,4.18228639 0.705144173,2.96335725 L0.705144173,2.96335725 Z"></path>
                            </g>
                            <g transform="translate(9.172607, 0.000000)" id="Shape" stroke="#000000" stroke-width="1.14048">
                                <path d="M9.25630717,3.27294469 L9.25630717,5.48004038 C9.25630717,6.69896951 7.27273088,7.68713606 4.82593793,7.68713606 C2.3779984,7.68713606 0.394422107,6.69896951 0.394422107,5.48004038 L0.394422107,3.27294469"></path>
                                <path d="M0.394422107,3.27294469 C0.394422107,2.05287316 2.3779984,1.06470661 4.82593793,1.06470661 C7.27273088,1.06470661 9.25630717,2.05287316 9.25630717,3.27294469 C9.25630717,4.49187383 7.27273088,5.48004038 4.82593793,5.48004038 C2.3779984,5.48004038 0.394422107,4.49187383 0.394422107,3.27294469 L0.394422107,3.27294469 Z"></path>
                            </g>
                        </g>
                        <g id="Group" stroke="none" stroke-width="1" fill="none" fill-rule="evenodd" transform="translate(168.361634, 1.413322)">
                            <g transform="translate(0.000000, 9.139113)" id="Shape" stroke="#000000" stroke-width="1.14048">
                                <path d="M9.16114137,2.96335725 L9.16114137,5.17045294 C9.16114137,6.38938208 7.17756508,7.37869101 4.73077213,7.37869101 C2.2828326,7.37869101 0.299256308,6.38938208 0.299256308,5.17045294 L0.299256308,2.96335725"></path>
                                <path d="M0.299256308,2.96335725 C0.299256308,1.74442811 2.2828326,0.756261565 4.73077213,0.756261565 C7.17756508,0.756261565 9.16114137,1.74442811 9.16114137,2.96335725 C9.16114137,4.18228639 7.17756508,5.17045294 4.73077213,5.17045294 C2.2828326,5.17045294 0.299256308,4.18228639 0.299256308,2.96335725 L0.299256308,2.96335725 Z"></path>
                            </g>
                            <g transform="translate(8.026031, 0.000000)" id="Shape" stroke="#000000" stroke-width="1.14048">
                                <path d="M9.99814177,3.27294469 L9.99814177,5.48004038 C9.99814177,6.69896951 8.0134189,7.68713606 5.56662595,7.68713606 C3.119833,7.68713606 1.13511013,6.69896951 1.13511013,5.48004038 L1.13511013,3.27294469"></path>
                                <path d="M1.13511013,3.27294469 C1.13511013,2.05287316 3.119833,1.06470661 5.56662595,1.06470661 C8.0134189,1.06470661 9.99814177,2.05287316 9.99814177,3.27294469 C9.99814177,4.49187383 8.0134189,5.48004038 5.56662595,5.48004038 C3.119833,5.48004038 1.13511013,4.49187383 1.13511013,3.27294469 L1.13511013,3.27294469 Z"></path>
                            </g>
                        </g>
                        <g id="Group" stroke="none" stroke-width="1" fill="none" fill-rule="evenodd" transform="translate(145.430116, 1.413322)">
                            <g transform="translate(0.000000, 9.139113)" id="Shape" stroke="#000000" stroke-width="1.14048">
                                <path d="M9.93737325,2.96335725 L9.93737325,5.17045294 C9.93737325,6.38938208 7.95379696,7.37869101 5.50585743,7.37869101 C3.05906448,7.37869101 1.07548819,6.38938208 1.07548819,5.17045294 L1.07548819,2.96335725"></path>
                                <path d="M1.07548819,2.96335725 C1.07548819,1.74442811 3.05906448,0.756261565 5.50585743,0.756261565 C7.95379696,0.756261565 9.93737325,1.74442811 9.93737325,2.96335725 C9.93737325,4.18228639 7.95379696,5.17045294 5.50585743,5.17045294 C3.05906448,5.17045294 1.07548819,4.18228639 1.07548819,2.96335725 L1.07548819,2.96335725 Z"></path>
                            </g>
                            <g transform="translate(9.172607, 0.000000)" id="Shape" stroke="#000000" stroke-width="1.14048">
                                <path d="M9.62665118,3.27294469 L9.62665118,5.48004038 C9.62665118,6.69896951 7.64307489,7.68713606 5.19628194,7.68713606 C2.74834241,7.68713606 0.764766119,6.69896951 0.764766119,5.48004038 L0.764766119,3.27294469"></path>
                                <path d="M0.764766119,3.27294469 C0.764766119,2.05287316 2.74834241,1.06470661 5.19628194,1.06470661 C7.64307489,1.06470661 9.62665118,2.05287316 9.62665118,3.27294469 C9.62665118,4.49187383 7.64307489,5.48004038 5.19628194,5.48004038 C2.74834241,5.48004038 0.764766119,4.49187383 0.764766119,3.27294469 L0.764766119,3.27294469 Z"></path>
                            </g>
                        </g>
                        <g id="Group" stroke="none" stroke-width="1" fill="none" fill-rule="evenodd" transform="translate(190.146576, 1.413322)">
                            <g transform="translate(0.000000, 9.139113)" id="Shape" stroke="#000000" stroke-width="1.14048">
                                <path d="M9.53148538,2.96335725 L9.53148538,5.17045294 C9.53148538,6.38938208 7.54790909,7.37869101 5.10111614,7.37869101 C2.65317661,7.37869101 0.66960032,6.38938208 0.66960032,5.17045294 L0.66960032,2.96335725"></path>
                                <path d="M0.66960032,2.96335725 C0.66960032,1.74442811 2.65317661,0.756261565 5.10111614,0.756261565 C7.54790909,0.756261565 9.53148538,1.74442811 9.53148538,2.96335725 C9.53148538,4.18228639 7.54790909,5.17045294 5.10111614,5.17045294 C2.65317661,5.17045294 0.66960032,4.18228639 0.66960032,2.96335725 L0.66960032,2.96335725 Z"></path>
                            </g>
                            <g transform="translate(9.172607, 0.000000)" id="Shape" stroke="#000000" stroke-width="1.14048">
                                <path d="M9.22190989,3.27294469 L9.22190989,5.48004038 C9.22190989,6.69896951 7.23718702,7.68713606 4.79039407,7.68713606 C2.34360112,7.68713606 0.358878254,6.69896951 0.358878254,5.48004038 L0.358878254,3.27294469"></path>
                                <path d="M0.358878254,3.27294469 C0.358878254,2.05287316 2.34360112,1.06470661 4.79039407,1.06470661 C7.23718702,1.06470661 9.22190989,2.05287316 9.22190989,3.27294469 C9.22190989,4.49187383 7.23718702,5.48004038 4.79039407,5.48004038 C2.34360112,5.48004038 0.358878254,4.49187383 0.358878254,3.27294469 L0.358878254,3.27294469 Z"></path>
                            </g>
                        </g>
                        <g id="Group" stroke="none" stroke-width="1" fill="none" fill-rule="evenodd" transform="translate(234.863036, 1.413322)">
                            <g transform="translate(0.000000, 9.139113)" id="Shape" stroke="#000000" stroke-width="1.14048">
                                <path d="M9.12674409,2.96335725 L9.12674409,5.17045294 C9.12674409,6.38938208 7.14202123,7.37869101 4.69522827,7.37869101 C2.24843532,7.37869101 0.263712455,6.38938208 0.263712455,5.17045294 L0.263712455,2.96335725"></path>
                                <path d="M0.263712455,2.96335725 C0.263712455,1.74442811 2.24843532,0.756261565 4.69522827,0.756261565 C7.1431678,0.756261565 9.12674409,1.74442811 9.12674409,2.96335725 C9.12674409,4.18228639 7.1431678,5.17045294 4.69522827,5.17045294 C2.24843532,5.17045294 0.263712455,4.18228639 0.263712455,2.96335725 L0.263712455,2.96335725 Z"></path>
                            </g>
                            <g transform="translate(8.026031, 0.000000)" id="Shape" stroke="#000000" stroke-width="1.14048">
                                <path d="M9.96259792,3.27294469 L9.96259792,5.48004038 C9.96259792,6.69896951 7.97902163,7.68713606 5.5310821,7.68713606 C3.08428915,7.68713606 1.10071286,6.69896951 1.10071286,5.48004038 L1.10071286,3.27294469"></path>
                                <path d="M1.10071286,3.27294469 C1.10071286,2.05287316 3.08428915,1.06470661 5.5310821,1.06470661 C7.97902163,1.06470661 9.96259792,2.05287316 9.96259792,3.27294469 C9.96259792,4.49187383 7.97902163,5.48004038 5.5310821,5.48004038 C3.08428915,5.48004038 1.10071286,4.49187383 1.10071286,3.27294469 L1.10071286,3.27294469 Z"></path>
                            </g>
                        </g>
                        <g id="Group" stroke="none" stroke-width="1" fill="none" fill-rule="evenodd" transform="translate(211.931518, 1.413322)">
                            <g transform="translate(0.000000, 9.139113)" id="Shape" stroke="#000000" stroke-width="1.14048">
                                <path d="M9.90297597,2.96335725 L9.90297597,5.17045294 C9.90297597,6.38938208 7.9182531,7.37869101 5.47146015,7.37869101 C3.0246672,7.37869101 1.03994433,6.38938208 1.03994433,5.17045294 L1.03994433,2.96335725"></path>
                                <path d="M1.03994433,2.96335725 C1.03994433,1.74442811 3.0246672,0.756261565 5.47146015,0.756261565 C7.9182531,0.756261565 9.90297597,1.74442811 9.90297597,2.96335725 C9.90297597,4.18228639 7.9182531,5.17045294 5.47146015,5.17045294 C3.0246672,5.17045294 1.03994433,4.18228639 1.03994433,2.96335725 L1.03994433,2.96335725 Z"></path>
                            </g>
                            <g transform="translate(9.172607, 0.000000)" id="Shape" stroke="#000000" stroke-width="1.14048">
                                <path d="M9.5922539,3.27294469 L9.5922539,5.48004038 C9.5922539,6.69896951 7.60867761,7.68713606 5.16073809,7.68713606 C2.71394513,7.68713606 0.730368843,6.69896951 0.730368843,5.48004038 L0.730368843,3.27294469"></path>
                                <path d="M0.730368843,3.27294469 C0.730368843,2.05287316 2.71394513,1.06470661 5.16073809,1.06470661 C7.60867761,1.06470661 9.5922539,2.05287316 9.5922539,3.27294469 C9.5922539,4.49187383 7.60867761,5.48004038 5.16073809,5.48004038 C2.71394513,5.48004038 0.730368843,4.49187383 0.730368843,3.27294469 L0.730368843,3.27294469 Z"></path>
                            </g>
                        </g>
                        <g id="Group" stroke="none" stroke-width="1" fill="none" fill-rule="evenodd" transform="translate(278.432920, 1.413322)">
                            <g transform="translate(0.000000, 9.139113)" id="Shape" stroke="#000000" stroke-width="1.14048">
                                <path d="M9.86743212,2.96335725 L9.86743212,5.17045294 C9.86743212,6.38938208 7.88385583,7.37869101 5.4359163,7.37869101 C2.98912335,7.37869101 1.00554706,6.38938208 1.00554706,5.17045294 L1.00554706,2.96335725"></path>
                                <path d="M1.00554706,2.96335725 C1.00554706,1.74442811 2.98912335,0.756261565 5.4359163,0.756261565 C7.88385583,0.756261565 9.86743212,1.74442811 9.86743212,2.96335725 C9.86743212,4.18228639 7.88385583,5.17045294 5.4359163,5.17045294 C2.98912335,5.17045294 1.00554706,4.18228639 1.00554706,2.96335725 L1.00554706,2.96335725 Z"></path>
                            </g>
                            <g transform="translate(9.172607, 0.000000)" id="Shape" stroke="#000000" stroke-width="1.14048">
                                <path d="M9.55671005,3.27294469 L9.55671005,5.48004038 C9.55671005,6.69896951 7.57313376,7.68713606 5.12634081,7.68713606 C2.67840128,7.68713606 0.69482499,6.69896951 0.69482499,5.48004038 L0.69482499,3.27294469"></path>
                                <path d="M0.69482499,3.27294469 C0.69482499,2.05287316 2.67840128,1.06470661 5.12634081,1.06470661 C7.57313376,1.06470661 9.55671005,2.05287316 9.55671005,3.27294469 C9.55671005,4.49187383 7.57313376,5.48004038 5.12634081,5.48004038 C2.67840128,5.48004038 0.69482499,4.49187383 0.69482499,3.27294469 L0.69482499,3.27294469 Z"></path>
                            </g>
                        </g>
                        <g id="Group" stroke="none" stroke-width="1" fill="none" fill-rule="evenodd" transform="translate(256.647978, 1.413322)">
                            <g transform="translate(0.000000, 9.139113)" id="Shape" stroke="#000000" stroke-width="1.14048">
                                <path d="M9.49708811,2.96335725 L9.49708811,5.17045294 C9.49708811,6.38938208 7.51351181,7.37869101 5.06557229,7.37869101 C2.61877934,7.37869101 0.635203044,6.38938208 0.635203044,5.17045294 L0.635203044,2.96335725"></path>
                                <path d="M0.635203044,2.96335725 C0.635203044,1.74442811 2.61877934,0.756261565 5.06557229,0.756261565 C7.51351181,0.756261565 9.49708811,1.74442811 9.49708811,2.96335725 C9.49708811,4.18228639 7.51351181,5.17045294 5.06557229,5.17045294 C2.61877934,5.17045294 0.635203044,4.18228639 0.635203044,2.96335725 L0.635203044,2.96335725 Z"></path>
                            </g>
                            <g transform="translate(9.172607, 0.000000)" id="Shape" stroke="#000000" stroke-width="1.14048">
                                <path d="M9.18636604,3.27294469 L9.18636604,5.48004038 C9.18636604,6.69896951 7.20278975,7.68713606 4.7559968,7.68713606 C2.30805727,7.68713606 0.324480977,6.69896951 0.324480977,5.48004038 L0.324480977,3.27294469"></path>
                                <path d="M0.324480977,3.27294469 C0.324480977,2.05287316 2.30805727,1.06470661 4.7559968,1.06470661 C7.20278975,1.06470661 9.18636604,2.05287316 9.18636604,3.27294469 C9.18636604,4.49187383 7.20278975,5.48004038 4.7559968,5.48004038 C2.30805727,5.48004038 0.324480977,4.49187383 0.324480977,3.27294469 L0.324480977,3.27294469 Z"></path>
                            </g>
                        </g>
                        <g id="Group" stroke="none" stroke-width="1" fill="none" fill-rule="evenodd" transform="translate(301.364437, 1.413322)">
                            <g transform="translate(0.000000, 9.139113)" id="Shape" stroke="#000000" stroke-width="1.14048">
                                <path d="M9.09120024,2.96335725 L9.09120024,5.17045294 C9.09120024,6.38938208 7.10762395,7.37869101 4.660831,7.37869101 C2.21289147,7.37869101 0.229315178,6.38938208 0.229315178,5.17045294 L0.229315178,2.96335725"></path>
                                <path d="M0.229315178,2.96335725 C0.229315178,1.74442811 2.21289147,0.756261565 4.660831,0.756261565 C7.10762395,0.756261565 9.09120024,1.74442811 9.09120024,2.96335725 C9.09120024,4.18228639 7.10762395,5.17045294 4.660831,5.17045294 C2.21289147,5.17045294 0.229315178,4.18228639 0.229315178,2.96335725 L0.229315178,2.96335725 Z"></path>
                            </g>
                            <g transform="translate(8.026031, 0.000000)" id="Shape" stroke="#000000" stroke-width="1.14048">
                                <path d="M9.92820064,3.27294469 L9.92820064,5.48004038 C9.92820064,6.69896951 7.94347777,7.68713606 5.49668482,7.68713606 C3.04989187,7.68713606 1.065169,6.69896951 1.065169,5.48004038 L1.065169,3.27294469"></path>
                                <path d="M1.065169,3.27294469 C1.065169,2.05287316 3.04989187,1.06470661 5.49668482,1.06470661 C7.94347777,1.06470661 9.92820064,2.05287316 9.92820064,3.27294469 C9.92820064,4.49187383 7.94347777,5.48004038 5.49668482,5.48004038 C3.04989187,5.48004038 1.065169,4.49187383 1.065169,3.27294469 L1.065169,3.27294469 Z"></path>
                            </g>
                        </g>
                        <g id="Group" stroke="none" stroke-width="1" fill="none" fill-rule="evenodd" transform="translate(344.934321, 1.413322)">
                            <g transform="translate(0.000000, 9.139113)" id="Shape" stroke="#000000" stroke-width="1.14048">
                                <path d="M9.83303484,2.96335725 L9.83303484,5.17045294 C9.83303484,6.38938208 7.84831197,7.37869101 5.40151902,7.37869101 C2.95472607,7.37869101 0.970003204,6.38938208 0.970003204,5.17045294 L0.970003204,2.96335725"></path>
                                <path d="M0.970003204,2.96335725 C0.970003204,1.74442811 2.95472607,0.756261565 5.40151902,0.756261565 C7.84831197,0.756261565 9.83303484,1.74442811 9.83303484,2.96335725 C9.83303484,4.18228639 7.84831197,5.17045294 5.40151902,5.17045294 C2.95472607,5.17045294 0.970003204,4.18228639 0.970003204,2.96335725 L0.970003204,2.96335725 Z"></path>
                            </g>
                            <g transform="translate(9.172607, 0.000000)" id="Shape" stroke="#000000" stroke-width="1.14048">
                                <path d="M9.52231278,3.27294469 L9.52231278,5.48004038 C9.52231278,6.69896951 7.53873648,7.68713606 5.09079696,7.68713606 C2.644004,7.68713606 0.660427713,6.69896951 0.660427713,5.48004038 L0.660427713,3.27294469"></path>
                                <path d="M0.660427713,3.27294469 C0.660427713,2.05287316 2.644004,1.06470661 5.09079696,1.06470661 C7.53873648,1.06470661 9.52231278,2.05287316 9.52231278,3.27294469 C9.52231278,4.49187383 7.53873648,5.48004038 5.09079696,5.48004038 C2.644004,5.48004038 0.660427713,4.49187383 0.660427713,3.27294469 L0.660427713,3.27294469 Z"></path>
                            </g>
                        </g>
                        <g id="Group" stroke="none" stroke-width="1" fill="none" fill-rule="evenodd" transform="translate(323.149379, 1.413322)">
                            <g transform="translate(0.000000, 9.139113)" id="Shape" stroke="#000000" stroke-width="1.14048">
                                <path d="M9.46154425,2.96335725 L9.46154425,5.17045294 C9.46154425,6.38938208 7.47796796,7.37869101 5.03117501,7.37869101 C2.58323548,7.37869101 0.599659191,6.38938208 0.599659191,5.17045294 L0.599659191,2.96335725"></path>
                                <path d="M0.599659191,2.96335725 C0.599659191,1.74442811 2.58323548,0.756261565 5.03117501,0.756261565 C7.47796796,0.756261565 9.46154425,1.74442811 9.46154425,2.96335725 C9.46154425,4.18228639 7.47796796,5.17045294 5.03117501,5.17045294 C2.58323548,5.17045294 0.599659191,4.18228639 0.599659191,2.96335725 L0.599659191,2.96335725 Z"></path>
                            </g>
                            <g transform="translate(9.172607, 0.000000)" id="Shape" stroke="#000000" stroke-width="1.14048">
                                <path d="M9.15196876,3.27294469 L9.15196876,5.48004038 C9.15196876,6.69896951 7.1672459,7.68713606 4.72045294,7.68713606 C2.27365999,7.68713606 0.288937125,6.69896951 0.288937125,5.48004038 L0.288937125,3.27294469"></path>
                                <path d="M0.288937125,3.27294469 C0.288937125,2.05287316 2.27365999,1.06470661 4.72045294,1.06470661 C7.1672459,1.06470661 9.15196876,2.05287316 9.15196876,3.27294469 C9.15196876,4.49187383 7.1672459,5.48004038 4.72045294,5.48004038 C2.27365999,5.48004038 0.288937125,4.49187383 0.288937125,3.27294469 L0.288937125,3.27294469 Z"></path>
                            </g>
                        </g>
                        <polygon id="Shape" stroke="#000000" stroke-width="1.14048" fill="#FFFFFF" fill-rule="evenodd" points="66.745199 88.5696118 111.056918 88.5696118 111.056918 132.71838 66.745199 132.71838"></polygon>
                        <polyline id="Shape" stroke="#000000" stroke-width="1.14048" fill="none" points="66.7463456 88.5696118 71.1767149 86.3613738 113.272102 86.3613738 113.272102 130.511284 111.056918 132.71838"></polyline>
                        <path d="M113.272102,86.3613738 L111.056918,88.5696118" id="Shape" stroke="#000000" stroke-width="1.14048" fill="none"></path>
                        <polygon id="Shape" stroke="#000000" stroke-width="1.14048" fill="#000000" fill-rule="evenodd" points="155.367489 88.5696118 199.678061 88.5696118 199.678061 132.71838 155.367489 132.71838"></polygon>
                        <polyline id="Shape" stroke="#000000" stroke-width="1.14048" fill="none" points="155.367489 88.5696118 159.799005 86.3613738 201.894392 86.3613738 201.894392 130.511284 199.678061 132.71838"></polyline>
                        <path d="M201.894392,86.3613738 L199.678061,88.5696118" id="Shape" stroke="#000000" stroke-width="1.14048" fill="none"></path>
                        <polygon id="Shape" stroke="#000000" stroke-width="1.14048" fill="#FFFFFF" fill-rule="evenodd" points="243.98978 88.5696118 288.300352 88.5696118 288.300352 132.71838 243.98978 132.71838"></polygon>
                        <polyline id="Shape" stroke="#000000" stroke-width="1.14048" fill="none" points="243.98978 88.5696118 248.420149 86.3613738 290.515536 86.3613738 290.515536 130.511284 288.300352 132.71838"></polyline>
                        <path d="M290.515536,86.3613738 L288.300352,88.5696118" id="Shape" stroke="#000000" stroke-width="1.14048" fill="none"></path>
                        <polygon id="Shape" stroke="#000000" stroke-width="1.14048" fill="#FFFFFF" fill-rule="evenodd" points="66.745199 176.867148 111.056918 176.867148 111.056918 221.017058 66.745199 221.017058"></polygon>
                        <polyline id="Shape" stroke="#000000" stroke-width="1.14048" fill="none" points="66.7463456 176.867148 71.1767149 174.660052 113.272102 174.660052 113.272102 218.80882 111.056918 221.017058"></polyline>
                        <path d="M113.272102,174.660052 L111.056918,176.867148" id="Shape" stroke="#000000" stroke-width="1.14048" fill="none"></path>
                        <polygon id="Shape" stroke="#000000" stroke-width="1.14048" fill="#1061A3" fill-rule="evenodd" points="155.367489 176.867148 199.678061 176.867148 199.678061 221.017058 155.367489 221.017058"></polygon>
                        <polyline id="Shape" stroke="#000000" stroke-width="1.14048" fill="none" points="155.367489 176.867148 159.799005 174.660052 201.894392 174.660052 201.894392 218.80882 199.678061 221.017058"></polyline>
                        <path d="M201.894392,174.660052 L199.678061,176.867148" id="Shape" stroke="#000000" stroke-width="1.14048" fill="none"></path>
                        <polygon id="Shape" stroke="#000000" stroke-width="1.14048" fill="#AAAAAA" fill-rule="evenodd" points="243.98978 176.867148 288.300352 176.867148 288.300352 221.017058 243.98978 221.017058"></polygon>
                        <polyline id="Shape" stroke="#000000" stroke-width="1.14048" fill="none" points="243.98978 176.867148 248.420149 174.660052 290.515536 174.660052 290.515536 218.80882 288.300352 221.017058"></polyline>
                        <path d="M290.515536,174.660052 L288.300352,176.867148" id="Shape" stroke="#000000" stroke-width="1.14048" fill="none"></path>
                        <polygon id="Shape" stroke="#000000" stroke-width="1.14048" fill="#74B587" fill-rule="evenodd" points="66.745199 265.165826 111.056918 265.165826 111.056918 309.314594 66.745199 309.314594"></polygon>
                        <path d="M99.9787012,143.628069 L77.8234153,143.628069" id="Shape" stroke="#FFFFFF" stroke-width="5.7024" fill-opacity="0.246781" fill="#AAAAAA" fill-rule="evenodd"></path>
                        <path d="M188.600992,143.628069 L166.445706,143.628069" id="Shape" stroke="#FFFFFF" stroke-width="5.7024" fill-opacity="0.246781" fill="#AAAAAA" fill-rule="evenodd"></path>
                        <path d="M277.223282,143.628069 L255.066849,143.628069" id="Shape" stroke="#FFFFFF" stroke-width="5.7024" fill-opacity="0.246781" fill="#AAAAAA" fill-rule="evenodd"></path>
                        <path d="M99.9787012,231.926747 L77.8234153,231.926747" id="Shape" stroke="#FFFFFF" stroke-width="5.7024" fill-opacity="0.246781" fill="#AAAAAA" fill-rule="evenodd"></path>
                        <path d="M188.600992,231.926747 L166.445706,231.926747" id="Shape" stroke="#FFFFFF" stroke-width="5.7024" fill-opacity="0.246781" fill="#AAAAAA" fill-rule="evenodd"></path>
                        <path d="M277.222135,231.926747 L255.066849,231.926747" id="Shape" stroke="#FFFFFF" stroke-width="5.7024" fill-opacity="0.246781" fill="#AAAAAA" fill-rule="evenodd"></path>
                        <path d="M99.9787012,320.225426 L77.8234153,320.225426" id="Shape" stroke="#FFFFFF" stroke-width="5.7024" fill-opacity="0.246781" fill="#AAAAAA" fill-rule="evenodd"></path>
                        <path d="M102.195032,92.9838032 L75.6082307,92.9838032" id="Shape" stroke="#F56356" stroke-width="2.28096" fill="#F56356" fill-rule="evenodd"></path>
                        <path d="M81.8077665,102.638133 C81.195495,103.401249 80.4811782,104.036417 79.6900408,104.569913 C78.9241282,105.079419 78.0825414,105.460977 77.2145835,105.714587 L77.2145835,106.757588 C79.0009487,106.249225 80.4811782,105.282764 81.6804966,103.909612 L81.6804966,120.79298 L82.6757245,120.79298 L82.6757245,102.638133 L81.8077665,102.638133 L81.8077665,102.638133 Z" id="Shape" stroke="none" fill="#000000" fill-rule="evenodd"></path>
                        <path d="M93.8032435,102.281708 C92.1189235,102.281708 90.7407393,102.816346 89.7191402,103.934745 C88.621867,105.079419 88.0864161,106.681048 88.0864161,108.715643 L89.0564193,108.715643 C89.0564193,106.934659 89.5150497,105.536374 90.4346035,104.569913 C91.2509656,103.65486 92.3734634,103.197904 93.8032435,103.197904 C95.1298318,103.197904 96.2271049,103.553187 97.043467,104.316303 C97.8862002,105.053144 98.3196059,106.071012 98.3196059,107.342491 C98.3196059,108.664236 97.7589303,109.910582 96.6616572,111.054114 C96.2018803,111.512212 95.0793825,112.377 93.3434666,113.622204 C91.6591466,114.792011 90.4346035,115.809879 89.6686908,116.673525 C88.4430012,117.996412 87.8559543,119.369564 87.8559543,120.79298 L99.341205,120.79298 L99.341205,119.852794 L89.0300481,119.852794 C89.2857345,118.250022 90.8427845,116.47018 93.7264229,114.512125 C95.7168787,113.140116 96.967793,112.173655 97.5032439,111.613884 C98.7025623,110.367538 99.3148338,108.944121 99.3148338,107.342491 C99.3148338,105.791127 98.7793829,104.569913 97.7589303,103.65486 C96.7121065,102.739806 95.3855182,102.281708 93.8032435,102.281708 L93.8032435,102.281708 Z" id="Shape" stroke="none" fill="#000000" fill-rule="evenodd"></path>
                        <path d="M159.799005,110.643996 C159.799005,100.890278 167.734457,92.9838032 177.522775,92.9838032 C187.31224,92.9838032 195.247692,100.890278 195.247692,110.643996 C195.247692,120.396571 187.31224,128.303046 177.522775,128.303046 C167.734457,128.303046 159.799005,120.396571 159.799005,110.643996 L159.799005,110.643996 Z" id="Shape" stroke="none" fill="#FFFFFF" fill-rule="evenodd"></path>
                        <polyline id="Shape" stroke="#000000" stroke-width="1.14048" fill="#FFFFFF" fill-rule="evenodd" points="177.522775 97.399137 177.522775 110.643996 168.66089 115.058187"></polyline>
                        <path d="M199.678061,132.71838 C199.678061,110.643996 155.367489,110.643996 155.367489,132.71838" id="Shape" stroke="none" fill-opacity="0.246781" fill="#AAAAAA" fill-rule="evenodd"></path>
                        <path d="M111.056918,132.71838 C111.056918,110.643996 66.745199,110.643996 66.745199,132.71838" id="Shape" stroke="none" fill-opacity="0.246781" fill="#AAAAAA" fill-rule="evenodd"></path>
                        <polygon id="Shape" stroke="none" fill="#D9AC32" fill-rule="evenodd" points="244.145714 88.6861355 287.909369 88.6861355 287.909369 101.143888 244.145714 101.143888"></polygon>
                        <polygon id="Shape" stroke="#000000" stroke-width="1.14048" fill="none" points="243.98978 88.5696118 288.300352 88.5696118 288.300352 132.71838 243.98978 132.71838"></polygon>
                        <path d="M280.094308,107.373336 L251.960775,107.373336" id="Shape" stroke="#AAAAAA" stroke-width="1.14048" fill="#FFFFFF" fill-rule="evenodd"></path>
                        <path d="M280.094308,113.602784 L251.960775,113.602784" id="Shape" stroke="#AAAAAA" stroke-width="1.14048" fill="#FFFFFF" fill-rule="evenodd"></path>
                        <path d="M280.094308,119.832231 L251.960775,119.832231" id="Shape" stroke="#AAAAAA" stroke-width="1.14048" fill="#FFFFFF" fill-rule="evenodd"></path>
                        <path d="M288.300352,132.71838 C288.300352,110.643996 243.98978,110.643996 243.98978,132.71838" id="Shape" stroke="none" fill-opacity="0.246781" fill="#AAAAAA" fill-rule="evenodd"></path>
                        <path d="M100.087626,187.764397 L82.3638558,187.764397" id="Shape" stroke="#AAAAAA" stroke-width="1.14048" fill="#FFFFFF" fill-rule="evenodd"></path>
                        <path d="M100.087626,193.993845 L82.3638558,193.993845" id="Shape" stroke="#AAAAAA" stroke-width="1.14048" fill="#FFFFFF" fill-rule="evenodd"></path>
                        <path d="M100.087626,200.223293 L82.3638558,200.223293" id="Shape" stroke="#AAAAAA" stroke-width="1.14048" fill="#FFFFFF" fill-rule="evenodd"></path>
                        <path d="M100.087626,206.451598 L82.3638558,206.451598" id="Shape" stroke="#AAAAAA" stroke-width="1.14048" fill="#FFFFFF" fill-rule="evenodd"></path>
                        <path d="M73.7794421,187.826086 C73.7794421,187.257177 74.2426588,186.795651 74.8148002,186.795651 C75.385795,186.795651 75.8490116,187.257177 75.8490116,187.826086 C75.8490116,188.396138 75.385795,188.857664 74.8148002,188.857664 C74.2426588,188.857664 73.7794421,188.396138 73.7794421,187.826086 L73.7794421,187.826086 Z" id="Shape" stroke="#D9AC32" stroke-width="1.14048" fill="#D9AC32" fill-rule="evenodd"></path>
                        <path d="M73.7794421,200.20273 C73.7794421,199.632677 74.2426588,199.171152 74.8148002,199.171152 C75.385795,199.171152 75.8490116,199.632677 75.8490116,200.20273 C75.8490116,200.771639 75.385795,201.233164 74.8148002,201.233164 C74.2426588,201.233164 73.7794421,200.771639 73.7794421,200.20273 L73.7794421,200.20273 Z" id="Shape" stroke="#74B587" stroke-width="1.14048" fill="#74B587" fill-rule="evenodd"></path>
                        <path d="M73.7794421,206.389909 C73.7794421,205.820999 74.2426588,205.359474 74.8148002,205.359474 C75.385795,205.359474 75.8490116,205.820999 75.8490116,206.389909 C75.8490116,206.959961 75.385795,207.421486 74.8148002,207.421486 C74.2426588,207.421486 73.7794421,206.959961 73.7794421,206.389909 L73.7794421,206.389909 Z" id="Shape" stroke="#825E6F" stroke-width="1.14048" fill="#825E6F" fill-rule="evenodd"></path>
                        <path d="M73.7794421,194.014408 C73.7794421,193.444356 74.2426588,192.982831 74.8148002,192.982831 C75.385795,192.982831 75.8490116,193.444356 75.8490116,194.014408 C75.8490116,194.58446 75.385795,195.045985 74.8148002,195.045985 C74.2426588,195.045985 73.7794421,194.58446 73.7794421,194.014408 L73.7794421,194.014408 Z" id="Shape" stroke="#1061A3" stroke-width="1.14048" fill="#1061A3" fill-rule="evenodd"></path>
                        <path d="M111.056918,221.017058 C111.056918,198.941532 66.745199,198.941532 66.745199,221.017058" id="Shape" stroke="none" fill-opacity="0.246781" fill="#AAAAAA" fill-rule="evenodd"></path>
                        <path d="M160.243877,198.225254 C160.243877,188.472679 168.179328,180.566204 177.968793,180.566204 C187.757112,180.566204 195.692563,188.472679 195.692563,198.225254 C195.692563,207.978972 187.757112,215.885447 177.968793,215.885447 C168.179328,215.885447 160.243877,207.978972 160.243877,198.225254 L160.243877,198.225254 Z" id="Shape" stroke="#FFFFFF" stroke-width="1.14048" fill="none"></path>
                        <path d="M184.471025,202.74226 C184.360954,202.92847 184.119026,203.044994 183.744096,203.091831 C183.711992,203.091831 183.376045,203.107825 182.735109,203.138669 C182.845181,203.761271 183.251068,204.540381 183.955066,205.474855 C184.360954,205.75474 184.563898,206.105454 184.563898,206.525853 C184.563898,207.22728 184.094948,207.576851 183.158196,207.576851 C182.267306,207.576851 181.657328,207.366651 181.329407,206.946252 C181.219336,206.805738 181.149395,206.619529 181.118437,206.385339 C181.118437,206.229974 181.110411,206.066613 181.094359,205.895254 C180.95333,205.770734 180.53139,204.96078 179.828539,203.465393 C178.546668,203.636751 176.967833,203.878938 175.093181,204.189667 C174.905143,204.595215 174.702199,205.178976 174.483203,205.942092 C174.51416,206.082606 174.530212,206.213981 174.530212,206.339644 C174.530212,206.728056 174.389183,207.023935 174.108272,207.22728 C173.826215,207.429483 173.490268,207.530013 173.099286,207.530013 C172.66244,207.530013 172.255406,207.382645 171.880475,207.086766 C171.505545,206.790887 171.317507,206.448171 171.317507,206.058616 C171.317507,205.701048 171.497519,205.381179 171.857544,205.101294 C173.029344,199.759483 174.452245,195.344149 176.123953,191.856435 C176.092995,191.685077 176.076943,191.521715 176.076943,191.365208 C176.076943,190.664923 176.342949,190.197686 176.87496,189.964639 C177.092809,189.885814 177.374867,189.846973 177.71884,189.846973 C178.374681,189.846973 178.921598,189.940648 179.35959,190.128 C179.922559,190.377041 180.20347,190.750602 180.20347,191.248684 C180.20347,191.715921 180.062441,192.128324 179.78153,192.487034 C180.078493,194.870057 180.719429,197.618645 181.704338,200.732798 C181.798357,200.716805 182.118252,200.647119 182.665168,200.522598 C182.993089,200.444916 183.244189,200.406075 183.415029,200.406075 C183.619119,200.406075 183.78308,200.444916 183.908056,200.522598 C184.454973,200.89616 184.729005,201.3554 184.729005,201.90032 C184.729005,202.196198 184.643012,202.477226 184.471025,202.74226 L184.471025,202.74226 Z M178.843631,201.153197 C178.577625,200.265561 178.155685,198.567971 177.577811,196.060427 C176.467926,198.241247 175.812084,200.110196 175.607994,201.667272 L178.843631,201.153197 L178.843631,201.153197 Z" id="Shape" stroke="none" fill="#FFFFFF" fill-rule="evenodd"></path>
                        <path d="M199.678061,221.017058 C199.678061,198.941532 155.367489,198.941532 155.367489,221.017058" id="Shape" stroke="none" fill-opacity="0.246781" fill="#AAAAAA" fill-rule="evenodd"></path>
                        <g id="Group" stroke="none" stroke-width="1" fill="none" fill-rule="evenodd" transform="translate(249.768522, 184.195574)">
                            <polygon id="Shape" fill="#000000" points="8.04322988 1.04185883 8.04322988 6.57787627 0.635203044 6.57787627 0.635203044 25.0297446 32.1178839 25.0297446 32.1178839 6.57787627 24.709857 6.57787627 24.709857 1.04185883"></polygon>
                            <path d="M10.8202367,15.8038104 C10.8202367,12.7467773 13.3083064,10.267793 16.3765435,10.267793 C19.4447805,10.267793 21.9317036,12.7467773 21.9317036,15.8038104 C21.9317036,18.8608436 19.4447805,21.3386855 16.3765435,21.3386855 C13.3083064,21.3386855 10.8202367,18.8608436 10.8202367,15.8038104 L10.8202367,15.8038104 Z" id="Shape" stroke="#AAAAAA" stroke-width="0.792" fill="#000000"></path>
                            <path d="M30.2661638,8.42283462 L2.48692311,8.42283462" id="Shape" stroke="#AAAAAA" stroke-width="0.792" fill="#000000"></path>
                            <path d="M30.2661638,23.1847862 L2.48692311,23.1847862" id="Shape" stroke="#AAAAAA" stroke-width="0.792" fill="#000000"></path>
                        </g>
                        <path d="M288.300352,221.017058 C288.300352,198.941532 243.98978,198.941532 243.98978,221.017058" id="Shape" stroke="none" fill-opacity="0.246781" fill="#AAAAAA" fill-rule="evenodd"></path>
                        <polygon id="Shape" stroke="none" fill="#FFFFFF" fill-rule="evenodd" points="74.7299535 278.972741 97.7268262 278.972741 97.7268262 294.247625 74.7299535 294.247625"></polygon>
                        <polygon id="Shape" stroke="none" fill="#FFFFFF" fill-rule="evenodd" points="95.8108979 286.610754 103.475758 280.881673 103.475758 292.338693"></polygon>
                        <path d="M111.056918,309.314594 C111.056918,287.24021 66.745199,287.24021 66.745199,309.314594" id="Shape" stroke="none" fill-opacity="0.246781" fill="#AAAAAA" fill-rule="evenodd"></path>
                    </g>
                </g>
            </g>
        </g>
    </g>
</svg>