<?xml version="1.0" encoding="UTF-8" standalone="no"?>
<svg width="605px" height="604px" viewBox="0 0 605 604" version="1.1" xmlns="http://www.w3.org/2000/svg" xmlns:xlink="http://www.w3.org/1999/xlink">
    <!-- Generator: Sketch 39.1 (31720) - http://www.bohemiancoding.com/sketch -->
    <title>visual facilitation</title>
    <desc>Created with Sketch.</desc>
    <defs>
        <circle id="path-1" cx="300.5" cy="300" r="300"></circle>
        <filter x="-50%" y="-50%" width="200%" height="200%" filterUnits="objectBoundingBox" id="filter-3">
            <feOffset dx="0" dy="9" in="SourceAlpha" result="shadowOffsetOuter1"></feOffset>
            <feGaussianBlur stdDeviation="3" in="shadowOffsetOuter1" result="shadowBlurOuter1"></feGaussianBlur>
            <feColorMatrix values="0 0 0 0 0   0 0 0 0 0   0 0 0 0 0  0 0 0 0.5 0" type="matrix" in="shadowBlurOuter1" result="shadowMatrixOuter1"></feColorMatrix>
            <feMerge>
                <feMergeNode in="shadowMatrixOuter1"></feMergeNode>
                <feMergeNode in="SourceGraphic"></feMergeNode>
            </feMerge>
        </filter>
    </defs>
    <g id="website" stroke="none" stroke-width="1" fill="none" fill-rule="evenodd">
        <g id="visual-facilitation" transform="translate(-71.000000, -70.000000)">
            <g transform="translate(73.000000, 72.000000)">
                <mask id="mask-2" fill="white">
                    <use xlink:href="#path-1"></use>
                </mask>
                <use id="Oval-1" stroke="#E8AF30" stroke-width="3.75" fill="#F5EED6" xlink:href="#path-1"></use>
                <g mask="url(#mask-2)">
                    <g transform="translate(-109.000000, 57.000000)">
                        <path d="M606.778104,0.290359692 C604.783553,0.324277863 602.625492,0.569542731 600.425541,1.06520749 C561.065597,9.93176894 441.719577,49.215228 436.615635,99.9924879 C428.960399,176.159729 606.798373,148.590066 606.73351,191.025618 C606.718645,201.356471 552.082011,235.29221 521.663762,250.714844 L525.336654,252.49048 L528.493341,261.19164 L526.235283,284.992467 C573.038306,269.342812 616.822477,220.697937 619.375123,195.309307 C624.479065,144.532047 481.002496,168.566653 487.382085,105.095078 C489.93338,79.7064482 557.238654,48.0098491 597.874246,26.4484322 C627.560078,10.696617 620.742661,0.052932489 606.778104,0.290359692 L606.778104,0.290359692 Z" id="Shape" stroke="#F5EED6" stroke-width="2.7" fill="#000000"></path>
                        <g id="pen" filter="url(#filter-3)" stroke="none" stroke-width="1" fill="none" transform="translate(0.799559, 248.398678)">
                            <path d="M252.084988,78.5077302 C249.226943,69.1890165 270.148104,54.5096101 298.812337,45.7219659 C327.47657,36.9343216 353.02871,37.3653932 355.886756,46.6841068 C358.743449,56.0041718 337.822289,70.6822269 309.159406,79.4698711 C280.495173,88.2588667 254.941682,87.8277952 252.084988,78.5077302 L252.084988,78.5077302 Z" id="Shape" stroke="#000000" stroke-width="6.75" fill="#000000"></path>
                            <path d="M392.383249,17.1550275 C387.303631,53.9109747 397.942586,85.34812 424.298762,111.465112 C424.298762,111.465112 319.5308,151.29937 219.961371,180.616292 C120.391943,209.931862 26.0229403,228.728746 26.0229403,228.728746 C4.98529559,218.330326 -5.65338899,186.893181 4.74557115,165.855806 C4.74557115,165.855806 91.1358304,123.481064 188.045858,86.306207 C208.831887,78.3320584 250.691775,63.3675231 250.691775,63.3675231 C284.853185,75.1307775 322.034798,69.972783 345.12483,31.8209207 L392.383249,17.1550275 L392.383249,17.1550275 Z" id="Shape" stroke="#000000" stroke-width="6.75" fill="#E8AF30"></path>
                            <path d="M432.235074,10.6767919 C432.235074,10.6767919 429.718913,34.3019471 436.633626,54.7352808 C443.548338,75.1686145 459.895275,92.411478 459.895275,92.411478 L428.45813,103.049081 C428.45813,103.049081 412.112544,85.8075694 405.197831,65.3742357 C398.281768,44.9395507 400.797928,21.3143954 400.797928,21.3143954 L432.235074,10.6767919 L432.235074,10.6767919 Z" id="Shape" stroke="#000000" stroke-width="2.7" fill="#000000"></path>
                            <path d="M479.436737,5.21339868 L484.851482,45.2665705 L497.571472,69.1498282 L463.038449,91.3466366 C463.038449,91.3466366 446.692863,74.1051244 439.778151,53.6717907 C432.862087,33.2371057 435.378248,9.61195044 435.378248,9.61195044 L479.436737,5.21339868 L479.436737,5.21339868 Z" id="Shape" stroke="#000000" stroke-width="2.7" fill="#000000"></path>
                            <polygon id="Shape" stroke="#000000" stroke-width="2.7" fill="#000000" points="513.002214 0.862143172 517.260228 2.9675022 521.416893 5.02151101 524.608715 14.4523844 520.592587 54.3515055 498.586315 61.7986388 489.059498 44.0003822 484.708242 10.4362566"></polygon>
                        </g>
                    </g>
                </g>
            </g>
        </g>
    </g>
</svg>