<?xml version="1.0" encoding="UTF-8"?>
<svg width="454px" height="454px" viewBox="0 0 454 454" version="1.1" xmlns="http://www.w3.org/2000/svg" xmlns:xlink="http://www.w3.org/1999/xlink">
    <!-- Generator: Sketch 41 (35326) - http://www.bohemiancoding.com/sketch -->
    <title>vf_web</title>
    <desc>Created with Sketch.</desc>
    <defs>
        <path d="M0.737,227.375 C0.737,102.231 102.186,0.782 227.33,0.782 C352.474,0.782 453.923,102.231 453.923,227.375 C453.923,352.519 352.474,453.968 227.33,453.968 C102.186,453.968 0.737,352.519 0.737,227.375 Z" id="path-1"></path>
    </defs>
    <g id="web" stroke="none" stroke-width="1" fill="none" fill-rule="evenodd">
        <g id="vf_web" transform="translate(-73.000000, -73.000000)">
            <g transform="translate(73.000000, 73.000000)">
                <g id="bg" fill="#F5EED6">
                    <path d="M0.737,227.375 C0.737,102.231 102.186,0.782 227.33,0.782 C352.474,0.782 453.923,102.231 453.923,227.375 C453.923,352.519 352.474,453.968 227.33,453.968 C102.186,453.968 0.737,352.519 0.737,227.375 Z" id="Shape"></path>
                </g>
                <g id="content">
                    <g id="Clipped">
                        <mask id="mask-2" fill="white">
                            <use xlink:href="#path-1"></use>
                        </mask>
                        <g id="Mask"></g>
                        <g id="Group" mask="url(#mask-2)">
                            <g transform="translate(-75.000000, 43.000000)" id="Shape">
                                <path d="M448.113,0.133 C446.636,0.158 445.039,0.34 443.411,0.707 C414.284,7.268 325.966,36.338 322.189,73.914 C316.524,130.279 448.127,109.877 448.08,141.281 C448.068,148.926 407.636,174.038 385.126,185.451 L387.844,186.766 L390.18,193.205 L388.51,210.817 C423.144,199.236 455.545,163.239 457.434,144.45 C461.211,106.874 355.036,124.661 359.757,77.691 C361.646,58.902 411.452,35.446 441.523,19.491 C463.491,7.834 458.446,-0.043 448.113,0.133 Z" stroke="#F5EED6" stroke-width="2" fill="#000000"></path>
                                <path d="M186.225,241.835 C184.111,234.938 199.592,224.076 220.804,217.572 C242.016,211.069 260.926,211.388 263.04,218.285 C265.154,225.181 249.673,236.044 228.461,242.547 C207.249,249.05 188.339,248.731 186.225,241.835 Z" stroke="#000000" stroke-width="5" fill="#000000"></path>
                                <path d="M290.048,196.432 C286.289,223.632 294.162,246.896 313.666,266.223 C313.666,266.223 236.136,295.702 162.453,317.396 C88.771,339.09 18.9355,353.001 18.9355,353.001 C3.3674,345.305 -4.5054,322.042 3.19,306.474 C3.19,306.474 67.12,275.116 138.835,247.605 C154.217,241.705 185.194,230.63 185.194,230.63 C210.474,239.335 237.99,235.519 255.076,207.285 L290.048,196.432 Z" stroke="#000000" stroke-width="5" fill="#D9AC32"></path>
                                <path d="M319.539,191.638 C319.539,191.638 317.677,209.121 322.794,224.242 C327.912,239.364 340.008,252.123 340.008,252.123 L316.744,259.996 C316.744,259.996 304.648,247.236 299.531,232.115 C294.414,216.994 296.275,199.511 296.275,199.511 L319.539,191.638 Z" stroke="#000000" stroke-width="2" fill="#000000"></path>
                                <path d="M354.47,187.595 L358.476,217.236 L367.889,234.909 L342.334,251.336 C342.334,251.336 330.238,238.576 325.121,223.455 C320.003,208.334 321.865,190.851 321.865,190.851 L354.47,187.595 Z" stroke="#000000" stroke-width="2" fill="#000000"></path>
                                <polygon stroke="#000000" stroke-width="2" fill="#000000" points="379.308 184.375 382.46 185.933 385.535 187.453 387.897 194.432 384.925 223.959 368.641 229.469 361.591 216.299 358.371 191.46"></polygon>
                            </g>
                        </g>
                    </g>
                </g>
            </g>
        </g>
    </g>
</svg>